%FSLAX25Y25*%
%MOIN*%
G70*
G01*
G75*
G04 Layer_Color=8388736*
%ADD10C,0.03000*%
%ADD11C,0.00800*%
%ADD12C,0.02000*%
%ADD13C,0.01181*%
%ADD14C,0.02362*%
%ADD15C,0.01969*%
%ADD16C,0.01200*%
%ADD17C,0.01500*%
%ADD18C,0.01000*%
%ADD19C,0.01100*%
%ADD20C,0.04000*%
%ADD21C,0.03200*%
%ADD22C,0.03937*%
%ADD23C,0.01575*%
%ADD24C,0.00787*%
%ADD25C,0.00800*%
%ADD26C,0.02000*%
%ADD27C,0.10000*%
%ADD28R,0.05512X0.04331*%
%ADD29R,0.04331X0.10236*%
%ADD30R,0.04331X0.05512*%
%ADD31R,0.03543X0.02756*%
%ADD32R,0.03150X0.03543*%
%ADD33R,0.02756X0.03543*%
%ADD34R,0.02362X0.02362*%
%ADD35R,0.03543X0.03150*%
%ADD36R,0.02362X0.01969*%
%ADD37R,0.03000X0.03000*%
%ADD38C,0.03150*%
%ADD39R,0.10236X0.09449*%
%ADD40R,0.07087X0.06299*%
%ADD41R,0.06299X0.07087*%
%ADD42R,0.01969X0.02362*%
%ADD43C,0.03937*%
%ADD44R,0.22047X0.22047*%
%ADD45O,0.00787X0.05118*%
%ADD46O,0.05118X0.00787*%
%ADD47R,0.06000X0.05000*%
%ADD48R,0.16535X0.12205*%
%ADD49R,0.18504X0.05906*%
%ADD50R,0.02756X0.04528*%
%ADD51R,0.03937X0.07087*%
%ADD52R,0.07480X0.16339*%
%ADD53R,0.09449X0.10236*%
%ADD54R,0.03000X0.03000*%
%ADD55R,0.04331X0.06693*%
%ADD56R,0.02362X0.02362*%
%ADD57R,0.10236X0.04331*%
%ADD58R,0.12205X0.16535*%
%ADD59R,0.05906X0.18504*%
%ADD60R,0.04528X0.02756*%
%ADD61C,0.03000*%
%ADD62R,0.06693X0.04331*%
%ADD63R,0.19488X0.11594*%
%ADD64R,0.01102X0.02756*%
%ADD65R,0.06299X0.09449*%
%ADD66R,0.03347X0.01102*%
%ADD67R,0.08661X0.05512*%
%ADD68R,0.09449X0.11024*%
%ADD69O,0.01575X0.08268*%
%ADD70O,0.01378X0.08268*%
%ADD71R,0.07087X0.05906*%
%ADD72R,0.03937X0.03740*%
%ADD73O,0.04528X0.00787*%
%ADD74O,0.00787X0.04528*%
%ADD75R,0.08268X0.08268*%
%ADD76R,0.02559X0.03543*%
%ADD77R,0.06102X0.04331*%
%ADD78R,0.06102X0.04331*%
%ADD79R,0.06102X0.13583*%
%ADD80R,0.07087X0.03937*%
%ADD81C,0.00780*%
%ADD82R,0.42300X0.07600*%
%ADD83R,0.72700X0.09700*%
%ADD84R,0.46300X0.11900*%
%ADD85R,0.46400X0.11900*%
%ADD86R,0.19500X0.45500*%
%ADD87R,0.60476X0.09600*%
%ADD88C,0.23622*%
%ADD89C,0.25590*%
%ADD90R,0.05906X0.05906*%
%ADD91C,0.05906*%
%ADD92R,0.04724X0.07087*%
%ADD93O,0.05906X0.03937*%
%ADD94C,0.02400*%
%ADD95C,0.02800*%
%ADD96C,0.03200*%
%ADD97C,0.02362*%
%ADD98C,0.01600*%
%ADD99C,0.00394*%
%ADD100C,0.00984*%
%ADD101C,0.00600*%
%ADD102C,0.00039*%
%ADD103C,0.00591*%
%ADD104C,0.00500*%
%ADD105R,0.02165X0.09449*%
%ADD106R,0.07874X0.07874*%
%ADD107R,0.09449X0.02165*%
%ADD108R,0.05906X0.02165*%
%ADD109R,0.04300X0.04100*%
%ADD110R,0.03898X0.01654*%
%ADD111R,0.06312X0.05131*%
%ADD112R,0.05131X0.11036*%
%ADD113R,0.05131X0.06312*%
%ADD114R,0.04343X0.03556*%
%ADD115R,0.03950X0.04343*%
%ADD116R,0.03556X0.04343*%
%ADD117R,0.03162X0.03162*%
%ADD118R,0.04343X0.03950*%
%ADD119R,0.03162X0.02769*%
%ADD120R,0.03800X0.03800*%
%ADD121C,0.03950*%
%ADD122R,0.11036X0.10249*%
%ADD123R,0.07887X0.07099*%
%ADD124R,0.07099X0.07887*%
%ADD125R,0.02769X0.03162*%
%ADD126C,0.04737*%
%ADD127R,0.22847X0.22847*%
%ADD128O,0.01587X0.05918*%
%ADD129O,0.05918X0.01587*%
%ADD130R,0.06800X0.05800*%
%ADD131R,0.17335X0.13005*%
%ADD132R,0.19304X0.06706*%
%ADD133R,0.03556X0.05328*%
%ADD134R,0.04737X0.07887*%
%ADD135R,0.08280X0.17139*%
%ADD136R,0.10249X0.11036*%
%ADD137R,0.03800X0.03800*%
%ADD138R,0.05131X0.07493*%
%ADD139R,0.03162X0.03162*%
%ADD140R,0.11036X0.05131*%
%ADD141R,0.13005X0.17335*%
%ADD142R,0.06706X0.19304*%
%ADD143R,0.05328X0.03556*%
%ADD144C,0.03800*%
%ADD145R,0.07493X0.05131*%
%ADD146R,0.20288X0.12395*%
%ADD147R,0.09461X0.06312*%
%ADD148R,0.10249X0.11824*%
%ADD149O,0.02375X0.09068*%
%ADD150O,0.02178X0.09068*%
%ADD151R,0.07887X0.06706*%
%ADD152R,0.04737X0.04540*%
%ADD153O,0.05328X0.01587*%
%ADD154O,0.01587X0.05328*%
%ADD155R,0.09068X0.09068*%
%ADD156R,0.03359X0.04343*%
%ADD157R,0.06902X0.05131*%
%ADD158R,0.06902X0.05131*%
%ADD159R,0.06902X0.14383*%
%ADD160R,0.07887X0.04737*%
%ADD161C,0.24422*%
%ADD162C,0.26391*%
%ADD163R,0.06706X0.06706*%
%ADD164C,0.06706*%
%ADD165R,0.05524X0.07887*%
%ADD166O,0.06706X0.04737*%
%ADD167C,0.03600*%
%ADD168C,0.03162*%
D10*
X217261Y448237D02*
G03*
X214261Y451237I-3000J0D01*
G01*
X217261Y419237D02*
Y448237D01*
X184261Y472237D02*
X208761D01*
X184261Y476737D02*
X202761D01*
X213861Y419237D02*
X217261D01*
D64*
X231776Y402637D02*
D03*
X233745D02*
D03*
X231776Y414837D02*
D03*
X233745D02*
D03*
D65*
X232761Y408737D02*
D03*
D85*
X155000Y435050D02*
D03*
X153800Y408050D02*
D03*
D96*
X288200Y368500D02*
D03*
X271300Y405800D02*
D03*
X297600Y187900D02*
D03*
X146200Y201600D02*
D03*
X146392Y183500D02*
D03*
X176436Y215710D02*
D03*
X174900Y171800D02*
D03*
X187000Y165000D02*
D03*
X164000Y165900D02*
D03*
X160636Y173000D02*
D03*
X188400Y218900D02*
D03*
X160136Y213300D02*
D03*
X164536Y219600D02*
D03*
X176000Y97200D02*
D03*
X175900Y52000D02*
D03*
X190736Y49390D02*
D03*
X165836Y49090D02*
D03*
X160636Y54890D02*
D03*
X190436Y100890D02*
D03*
X160136Y95190D02*
D03*
X164536Y101490D02*
D03*
X54300D02*
D03*
X49900Y95190D02*
D03*
X80200Y100890D02*
D03*
X50400Y54890D02*
D03*
X55600Y49090D02*
D03*
X80500Y49390D02*
D03*
X66100Y51500D02*
D03*
X66200Y97600D02*
D03*
X54229Y455872D02*
D03*
X49829Y449572D02*
D03*
X80129Y455272D02*
D03*
X50329Y409272D02*
D03*
X55529Y403472D02*
D03*
X80429Y403772D02*
D03*
X65900Y406400D02*
D03*
X66100Y451500D02*
D03*
X54300Y337710D02*
D03*
X49900Y331410D02*
D03*
X80200Y337110D02*
D03*
X50400Y291110D02*
D03*
X55600Y285310D02*
D03*
X80500Y285610D02*
D03*
X66700Y287900D02*
D03*
X66800Y333700D02*
D03*
X66500Y216400D02*
D03*
X66600Y167800D02*
D03*
X80500Y167900D02*
D03*
X55600Y167600D02*
D03*
X50400Y173400D02*
D03*
X80200Y219400D02*
D03*
X49900Y213700D02*
D03*
X54300Y220000D02*
D03*
X108286Y233500D02*
D03*
X124609D02*
D03*
X140931D02*
D03*
X157254D02*
D03*
X173577D02*
D03*
X189900Y233600D02*
D03*
X108286Y270200D02*
D03*
X124609D02*
D03*
X140931D02*
D03*
X157254D02*
D03*
X173577D02*
D03*
X189900Y270300D02*
D03*
X248232Y239000D02*
D03*
X238400D02*
D03*
Y279300D02*
D03*
X248232D02*
D03*
X108286Y240200D02*
D03*
X124609D02*
D03*
X140931D02*
D03*
X157254D02*
D03*
X173577D02*
D03*
X189900Y240300D02*
D03*
X75329Y240200D02*
D03*
X58700D02*
D03*
Y262300D02*
D03*
X75329D02*
D03*
X189900Y262400D02*
D03*
X173577Y262300D02*
D03*
X157254D02*
D03*
X140931D02*
D03*
X124609D02*
D03*
X108286D02*
D03*
X147031Y84300D02*
D03*
X146532Y65800D02*
D03*
X220600Y388100D02*
D03*
X215200Y391000D02*
D03*
X137900Y359137D02*
D03*
X39919Y473819D02*
D03*
X95529Y474129D02*
D03*
X305100Y412400D02*
D03*
X192000Y169000D02*
D03*
X205787Y186000D02*
D03*
X197365Y199313D02*
D03*
X84000Y297500D02*
D03*
X34216Y68200D02*
D03*
X33917Y185800D02*
D03*
X34877Y303737D02*
D03*
X36911Y320500D02*
D03*
Y201500D02*
D03*
X84000Y179500D02*
D03*
X36911Y439000D02*
D03*
X150175Y196966D02*
D03*
Y79675D02*
D03*
X39919Y197500D02*
D03*
Y433126D02*
D03*
X35000Y422000D02*
D03*
X36100Y79100D02*
D03*
X101376Y439765D02*
D03*
X101161Y430962D02*
D03*
X104761Y416062D02*
D03*
X110261Y426462D02*
D03*
X100229Y409562D02*
D03*
X101476Y321240D02*
D03*
X101261Y312437D02*
D03*
X104861Y297537D02*
D03*
X110361Y307937D02*
D03*
X100329Y291037D02*
D03*
X101315Y85303D02*
D03*
X101100Y76500D02*
D03*
X104700Y61600D02*
D03*
X105000Y76500D02*
D03*
X100169Y55100D02*
D03*
X101476Y204203D02*
D03*
X101261Y195400D02*
D03*
X104561Y179700D02*
D03*
X110361Y190900D02*
D03*
X100329Y174000D02*
D03*
X211615Y203403D02*
D03*
X212200Y195200D02*
D03*
X215000Y179700D02*
D03*
X214000Y184200D02*
D03*
X209968Y174200D02*
D03*
X210068Y55200D02*
D03*
X220100Y72100D02*
D03*
X214600Y61700D02*
D03*
X74142Y449947D02*
D03*
X89529Y432304D02*
D03*
X87129Y424134D02*
D03*
X95529Y422300D02*
D03*
X86729Y418898D02*
D03*
X72441Y408234D02*
D03*
X45929Y433084D02*
D03*
Y429434D02*
D03*
X92000Y314200D02*
D03*
X87129Y306024D02*
D03*
X86729Y300787D02*
D03*
X72441Y290124D02*
D03*
X39919Y315000D02*
D03*
X45929Y314974D02*
D03*
Y311324D02*
D03*
X74016Y331837D02*
D03*
X95800Y303800D02*
D03*
X59300Y460900D02*
D03*
X66100D02*
D03*
X73500D02*
D03*
X45929Y193213D02*
D03*
Y196863D02*
D03*
X72441Y172013D02*
D03*
X86729Y182677D02*
D03*
X95900Y185900D02*
D03*
X87129Y187913D02*
D03*
X92000Y196100D02*
D03*
X87129Y199313D02*
D03*
X74142Y213727D02*
D03*
X73500Y106569D02*
D03*
X66100D02*
D03*
X59300D02*
D03*
X45929Y75103D02*
D03*
Y78753D02*
D03*
X39919Y79619D02*
D03*
X72441Y53903D02*
D03*
X86229Y64567D02*
D03*
X95529Y68000D02*
D03*
X87129Y69803D02*
D03*
X92000Y78000D02*
D03*
X87129Y81203D02*
D03*
X74142Y95617D02*
D03*
X213500Y75500D02*
D03*
X156165Y75103D02*
D03*
Y78753D02*
D03*
X182677Y53903D02*
D03*
X196965Y64567D02*
D03*
X205765Y68000D02*
D03*
X211215Y85403D02*
D03*
X197365Y69803D02*
D03*
X202500Y78000D02*
D03*
X197365Y81203D02*
D03*
X184378Y95617D02*
D03*
X155665Y196863D02*
D03*
X182677Y172013D02*
D03*
X196965Y182677D02*
D03*
X197365Y187913D02*
D03*
X199765Y196083D02*
D03*
X184378Y213727D02*
D03*
X59300Y396800D02*
D03*
X66100Y396600D02*
D03*
X73600Y396700D02*
D03*
X59321Y343774D02*
D03*
X66821Y343874D02*
D03*
X73621Y343674D02*
D03*
X73600Y278000D02*
D03*
X66900Y277900D02*
D03*
X60100Y278100D02*
D03*
X59321Y226869D02*
D03*
X66821Y226969D02*
D03*
X73621Y226768D02*
D03*
X74239Y156163D02*
D03*
X66739Y156063D02*
D03*
X59939Y156263D02*
D03*
X73600Y41626D02*
D03*
X66100Y41526D02*
D03*
X59300Y41726D02*
D03*
X183400Y41626D02*
D03*
X175900Y41526D02*
D03*
X169100Y41726D02*
D03*
X169021Y107004D02*
D03*
X175821Y107104D02*
D03*
X183021Y106904D02*
D03*
X182000Y159900D02*
D03*
X175000Y159800D02*
D03*
X167900Y160000D02*
D03*
X169021Y226869D02*
D03*
X175821Y226969D02*
D03*
X183021Y226768D02*
D03*
X269800Y61000D02*
D03*
Y67400D02*
D03*
X275600Y66800D02*
D03*
X264800Y67600D02*
D03*
X281200Y72300D02*
D03*
X229100Y134200D02*
D03*
X226000Y147000D02*
D03*
X23800Y132900D02*
D03*
X30700Y145500D02*
D03*
X31298Y383600D02*
D03*
X24398Y371000D02*
D03*
X301300Y245500D02*
D03*
X279200Y230900D02*
D03*
X285600Y302100D02*
D03*
X285400Y348800D02*
D03*
X176500Y3400D02*
D03*
X283500Y93600D02*
D03*
X246300Y92000D02*
D03*
X260400Y56600D02*
D03*
X246400Y77000D02*
D03*
X284000Y83500D02*
D03*
X274980Y28285D02*
D03*
X255782Y41000D02*
D03*
X267000Y47200D02*
D03*
X259900Y44500D02*
D03*
X248100Y53800D02*
D03*
X234800Y46700D02*
D03*
D97*
X230792Y405784D02*
D03*
X234729D02*
D03*
X230792Y411690D02*
D03*
X234729D02*
D03*
D110*
X238568Y404800D02*
D03*
Y406769D02*
D03*
Y408737D02*
D03*
Y410706D02*
D03*
Y412674D02*
D03*
X226954D02*
D03*
Y410706D02*
D03*
Y408737D02*
D03*
Y406769D02*
D03*
Y404800D02*
D03*
D111*
X184261Y464190D02*
D03*
Y458284D02*
D03*
X247761Y416284D02*
D03*
Y422190D02*
D03*
X216261Y458284D02*
D03*
Y464190D02*
D03*
D112*
X185446Y400237D02*
D03*
X196076D02*
D03*
D113*
X185308Y390737D02*
D03*
X191213D02*
D03*
X233213Y421737D02*
D03*
X227308D02*
D03*
D114*
X253761Y421690D02*
D03*
Y415784D02*
D03*
X258761Y415784D02*
D03*
Y421690D02*
D03*
X231761Y395190D02*
D03*
Y389284D02*
D03*
X246954Y409883D02*
D03*
Y403977D02*
D03*
X215761Y404690D02*
D03*
Y398784D02*
D03*
D115*
X251698Y409430D02*
D03*
X257209D02*
D03*
X251698Y404430D02*
D03*
X257209D02*
D03*
X221456Y147000D02*
D03*
X215944D02*
D03*
X34144Y145500D02*
D03*
X39656D02*
D03*
X281411Y333700D02*
D03*
X286923D02*
D03*
X35144Y384100D02*
D03*
X40656D02*
D03*
D116*
X242213Y394737D02*
D03*
X236308D02*
D03*
X246501Y394430D02*
D03*
X252406D02*
D03*
X246501Y399430D02*
D03*
X252406D02*
D03*
D117*
X243229Y390237D02*
D03*
X239292D02*
D03*
X40669Y189500D02*
D03*
X36732D02*
D03*
X150469Y71700D02*
D03*
X146532D02*
D03*
X146392Y189000D02*
D03*
X150329D02*
D03*
X40968Y71700D02*
D03*
X37031D02*
D03*
X41629Y307237D02*
D03*
X37692D02*
D03*
X41789Y425437D02*
D03*
X37852D02*
D03*
X268531Y192100D02*
D03*
X272468D02*
D03*
D118*
X256954Y399686D02*
D03*
Y394174D02*
D03*
X220761Y398981D02*
D03*
Y404493D02*
D03*
D119*
X40668Y185800D02*
D03*
X36731D02*
D03*
X40968Y82200D02*
D03*
X37031D02*
D03*
X40968Y68200D02*
D03*
X37031D02*
D03*
X206532Y184200D02*
D03*
X210469D02*
D03*
X206031Y176300D02*
D03*
X209968D02*
D03*
X206132Y78300D02*
D03*
X210068D02*
D03*
X206132Y75000D02*
D03*
X210068D02*
D03*
X206132Y66200D02*
D03*
X210068D02*
D03*
X206132Y57300D02*
D03*
X210068D02*
D03*
X210961Y192900D02*
D03*
X207024D02*
D03*
X210961Y196137D02*
D03*
X207024D02*
D03*
X150469Y67700D02*
D03*
X146532D02*
D03*
X150969Y82000D02*
D03*
X147031D02*
D03*
X150329Y185600D02*
D03*
X146392D02*
D03*
X150329Y199600D02*
D03*
X146392D02*
D03*
X96232Y57200D02*
D03*
X100169D02*
D03*
X96232Y66100D02*
D03*
X100169D02*
D03*
X96232Y78200D02*
D03*
X100169D02*
D03*
X96232Y74900D02*
D03*
X100169D02*
D03*
X96392Y175300D02*
D03*
X100329D02*
D03*
X96392Y184200D02*
D03*
X100329D02*
D03*
X96392Y196137D02*
D03*
X100329D02*
D03*
X96392Y192900D02*
D03*
X100329D02*
D03*
X40669Y200000D02*
D03*
X36732D02*
D03*
X41629Y303737D02*
D03*
X37692D02*
D03*
X41629Y318337D02*
D03*
X37692D02*
D03*
X96232Y293337D02*
D03*
X100169D02*
D03*
X96232Y311237D02*
D03*
X100169D02*
D03*
X96232Y314537D02*
D03*
X100169D02*
D03*
X41789Y422037D02*
D03*
X37852D02*
D03*
X41789Y436737D02*
D03*
X37852D02*
D03*
X96292Y411234D02*
D03*
X100229D02*
D03*
X96292Y420434D02*
D03*
X100229D02*
D03*
X96292Y429284D02*
D03*
X100229D02*
D03*
X96292Y432534D02*
D03*
X100229D02*
D03*
X96232Y301937D02*
D03*
X100169D02*
D03*
D120*
X37050Y181700D02*
D03*
X42550D02*
D03*
X211250Y179800D02*
D03*
X205750D02*
D03*
Y188600D02*
D03*
X211250D02*
D03*
X205350Y70600D02*
D03*
X210850D02*
D03*
X211250Y200700D02*
D03*
X205750D02*
D03*
X210750Y171800D02*
D03*
X205250D02*
D03*
X211250Y206500D02*
D03*
X205750D02*
D03*
X210850Y82700D02*
D03*
X205350D02*
D03*
X210850Y52800D02*
D03*
X205350D02*
D03*
X210850Y88400D02*
D03*
X205350D02*
D03*
X146250Y87000D02*
D03*
X151750D02*
D03*
X145611Y63600D02*
D03*
X151111D02*
D03*
X145611Y204000D02*
D03*
X151111D02*
D03*
X145611Y181200D02*
D03*
X151111D02*
D03*
X95450Y70500D02*
D03*
X100950D02*
D03*
Y88400D02*
D03*
X95450D02*
D03*
X100950Y52700D02*
D03*
X95450D02*
D03*
X100950Y82700D02*
D03*
X95450D02*
D03*
X100950Y61600D02*
D03*
X95450D02*
D03*
X36250Y63600D02*
D03*
X41750D02*
D03*
X36250Y86000D02*
D03*
X41750D02*
D03*
X101111Y206500D02*
D03*
X95611D02*
D03*
X101111Y170800D02*
D03*
X95611D02*
D03*
X101111Y200700D02*
D03*
X95611D02*
D03*
Y188600D02*
D03*
X101111D02*
D03*
Y179800D02*
D03*
X95611D02*
D03*
X36911Y204000D02*
D03*
X42411D02*
D03*
X36911Y299237D02*
D03*
X42411D02*
D03*
X36911Y322937D02*
D03*
X42411D02*
D03*
X101111Y289037D02*
D03*
X95611D02*
D03*
X101111Y297537D02*
D03*
X95611D02*
D03*
Y306437D02*
D03*
X101111D02*
D03*
Y319137D02*
D03*
X95611D02*
D03*
X101111Y324437D02*
D03*
X95611D02*
D03*
X36911Y417437D02*
D03*
X42411D02*
D03*
X36911Y441337D02*
D03*
X42411D02*
D03*
X101011Y406737D02*
D03*
X95511D02*
D03*
X101011Y415837D02*
D03*
X95511D02*
D03*
Y424962D02*
D03*
X101011D02*
D03*
Y437037D02*
D03*
X95511D02*
D03*
X101011Y442737D02*
D03*
X95511D02*
D03*
X281638Y296300D02*
D03*
X287138D02*
D03*
X280450Y257500D02*
D03*
X274950D02*
D03*
X280450Y234600D02*
D03*
X274950D02*
D03*
X276350Y132000D02*
D03*
X281850D02*
D03*
X246350Y81300D02*
D03*
X251850D02*
D03*
X251813Y87861D02*
D03*
X246313D02*
D03*
X295750Y78100D02*
D03*
X290250D02*
D03*
X297150Y70400D02*
D03*
X291650D02*
D03*
X290450Y84000D02*
D03*
X295950D02*
D03*
X281650Y148161D02*
D03*
X276150D02*
D03*
X210850Y61800D02*
D03*
X205350D02*
D03*
X276150Y179161D02*
D03*
X281650D02*
D03*
D121*
X40800Y193700D02*
D03*
X150700Y75500D02*
D03*
Y193000D02*
D03*
X41000Y75400D02*
D03*
X41900Y311400D02*
D03*
X41800Y429400D02*
D03*
X36800Y17500D02*
D03*
X298000Y315200D02*
D03*
X237800Y366100D02*
D03*
X39700Y478500D02*
D03*
X67700D02*
D03*
X95700D02*
D03*
X272800Y276400D02*
D03*
X66929Y312795D02*
D03*
X70472Y312795D02*
D03*
X74016Y312795D02*
D03*
Y319882D02*
D03*
X70472Y319882D02*
D03*
X66929Y319882D02*
D03*
X63386Y319882D02*
D03*
X59842Y319882D02*
D03*
Y312795D02*
D03*
X63386Y312795D02*
D03*
X66929Y305709D02*
D03*
X63386Y305709D02*
D03*
X59842Y305709D02*
D03*
X70472Y305709D02*
D03*
X74016Y305709D02*
D03*
X68701Y309252D02*
D03*
X65158D02*
D03*
X61614D02*
D03*
X72244D02*
D03*
X75787D02*
D03*
X58071D02*
D03*
Y316339D02*
D03*
X61614D02*
D03*
X65158D02*
D03*
X68701D02*
D03*
X72244D02*
D03*
X75787D02*
D03*
Y302165D02*
D03*
X72244D02*
D03*
X68701D02*
D03*
X65158D02*
D03*
X61614D02*
D03*
X58071D02*
D03*
X177165Y194685D02*
D03*
X180709Y194685D02*
D03*
X184252Y194685D02*
D03*
Y201772D02*
D03*
X180709Y201772D02*
D03*
X177165Y201772D02*
D03*
X173622Y201772D02*
D03*
X170079Y201772D02*
D03*
Y194685D02*
D03*
X173622Y194685D02*
D03*
X177165Y187598D02*
D03*
X173622Y187598D02*
D03*
X170079Y187598D02*
D03*
X180709Y187598D02*
D03*
X184252Y187598D02*
D03*
X178937Y191142D02*
D03*
X175394D02*
D03*
X171850D02*
D03*
X182480D02*
D03*
X186024D02*
D03*
X168307D02*
D03*
Y198228D02*
D03*
X171850D02*
D03*
X175394D02*
D03*
X178937D02*
D03*
X182480D02*
D03*
X186024D02*
D03*
Y184055D02*
D03*
X182480D02*
D03*
X178937D02*
D03*
X175394D02*
D03*
X171850D02*
D03*
X168307D02*
D03*
X177165Y76575D02*
D03*
X180709Y76575D02*
D03*
X184252Y76575D02*
D03*
Y83661D02*
D03*
X180709Y83661D02*
D03*
X177165Y83661D02*
D03*
X173622Y83661D02*
D03*
X170079Y83661D02*
D03*
Y76575D02*
D03*
X173622Y76575D02*
D03*
X177165Y69488D02*
D03*
X173622Y69488D02*
D03*
X170079Y69488D02*
D03*
X180709Y69488D02*
D03*
X184252Y69488D02*
D03*
X178937Y73032D02*
D03*
X175394D02*
D03*
X171850D02*
D03*
X182480D02*
D03*
X186024D02*
D03*
X168307D02*
D03*
Y80118D02*
D03*
X171850D02*
D03*
X175394D02*
D03*
X178937D02*
D03*
X182480D02*
D03*
X186024D02*
D03*
Y65945D02*
D03*
X182480D02*
D03*
X178937D02*
D03*
X175394D02*
D03*
X171850D02*
D03*
X168307D02*
D03*
X66929Y76575D02*
D03*
X70472Y76575D02*
D03*
X74016Y76575D02*
D03*
Y83661D02*
D03*
X70472Y83661D02*
D03*
X66929Y83661D02*
D03*
X63386Y83661D02*
D03*
X59842Y83661D02*
D03*
Y76575D02*
D03*
X63386Y76575D02*
D03*
X66929Y69488D02*
D03*
X63386Y69488D02*
D03*
X59842Y69488D02*
D03*
X70472Y69488D02*
D03*
X74016Y69488D02*
D03*
X68701Y73032D02*
D03*
X65158D02*
D03*
X61614D02*
D03*
X72244D02*
D03*
X75787D02*
D03*
X58071D02*
D03*
Y80118D02*
D03*
X61614D02*
D03*
X65158D02*
D03*
X68701D02*
D03*
X72244D02*
D03*
X75787D02*
D03*
Y65945D02*
D03*
X72244D02*
D03*
X68701D02*
D03*
X65158D02*
D03*
X61614D02*
D03*
X58071D02*
D03*
X66929Y194685D02*
D03*
X70472Y194685D02*
D03*
X74016Y194685D02*
D03*
Y201772D02*
D03*
X70472Y201772D02*
D03*
X66929Y201772D02*
D03*
X63386Y201772D02*
D03*
X59842Y201772D02*
D03*
Y194685D02*
D03*
X63386Y194685D02*
D03*
X66929Y187598D02*
D03*
X63386Y187598D02*
D03*
X59842Y187598D02*
D03*
X70472Y187598D02*
D03*
X74016Y187598D02*
D03*
X68701Y191142D02*
D03*
X65158D02*
D03*
X61614D02*
D03*
X72244D02*
D03*
X75787D02*
D03*
X58071D02*
D03*
Y198228D02*
D03*
X61614D02*
D03*
X65158D02*
D03*
X68701D02*
D03*
X72244D02*
D03*
X75787D02*
D03*
Y184055D02*
D03*
X72244D02*
D03*
X68701D02*
D03*
X65158D02*
D03*
X61614D02*
D03*
X58071D02*
D03*
Y420276D02*
D03*
X61614D02*
D03*
X65158D02*
D03*
X68701D02*
D03*
X72244D02*
D03*
X75787D02*
D03*
Y434449D02*
D03*
X72244D02*
D03*
X68701D02*
D03*
X65158D02*
D03*
X61614D02*
D03*
X58071D02*
D03*
Y427362D02*
D03*
X75787D02*
D03*
X72244D02*
D03*
X61614D02*
D03*
X65158D02*
D03*
X68701D02*
D03*
X74016Y423819D02*
D03*
X70472Y423819D02*
D03*
X59842Y423819D02*
D03*
X63386Y423819D02*
D03*
X66929Y423819D02*
D03*
X63386Y430905D02*
D03*
X59842Y430905D02*
D03*
Y437992D02*
D03*
X63386Y437992D02*
D03*
X66929Y437992D02*
D03*
X70472Y437992D02*
D03*
X74016Y437992D02*
D03*
Y430905D02*
D03*
X70472Y430905D02*
D03*
X66929Y430905D02*
D03*
D122*
X220998Y134000D02*
D03*
X195802D02*
D03*
X56698Y132900D02*
D03*
X31502D02*
D03*
X32402Y371000D02*
D03*
X57598D02*
D03*
D123*
X219700Y76488D02*
D03*
Y87512D02*
D03*
X109800Y76627D02*
D03*
Y87650D02*
D03*
X110000Y195488D02*
D03*
Y206512D02*
D03*
X109961Y312425D02*
D03*
Y323449D02*
D03*
X109461Y430925D02*
D03*
Y441949D02*
D03*
D124*
X209412Y214700D02*
D03*
X198388D02*
D03*
X285200Y286800D02*
D03*
X274176D02*
D03*
X284312Y226300D02*
D03*
X273288D02*
D03*
X284324Y266300D02*
D03*
X273300D02*
D03*
D125*
X175861Y220063D02*
D03*
Y224000D02*
D03*
X182961Y220063D02*
D03*
Y224000D02*
D03*
X169161Y220063D02*
D03*
Y224000D02*
D03*
Y100198D02*
D03*
Y104135D02*
D03*
X182961Y100198D02*
D03*
Y104135D02*
D03*
X175861Y100198D02*
D03*
Y104135D02*
D03*
X167961Y166706D02*
D03*
Y162768D02*
D03*
X174980Y166706D02*
D03*
Y162768D02*
D03*
X182000Y166706D02*
D03*
Y162768D02*
D03*
X59361Y48432D02*
D03*
Y44495D02*
D03*
X66061Y48432D02*
D03*
Y44495D02*
D03*
X73561Y48432D02*
D03*
Y44495D02*
D03*
X59300Y100198D02*
D03*
Y104135D02*
D03*
X73500Y100198D02*
D03*
Y104135D02*
D03*
X66100Y100198D02*
D03*
Y104135D02*
D03*
X60000Y163469D02*
D03*
Y159531D02*
D03*
X66461Y220063D02*
D03*
Y224000D02*
D03*
X59361Y220063D02*
D03*
Y224000D02*
D03*
X73561Y220063D02*
D03*
Y224000D02*
D03*
X60161Y284805D02*
D03*
Y280869D02*
D03*
X66861Y284805D02*
D03*
Y280869D02*
D03*
X73561Y284805D02*
D03*
Y280869D02*
D03*
X66861Y336968D02*
D03*
Y340905D02*
D03*
X59361Y336968D02*
D03*
Y340905D02*
D03*
X73561Y336968D02*
D03*
Y340905D02*
D03*
Y403506D02*
D03*
Y399569D02*
D03*
X66061Y403506D02*
D03*
Y399569D02*
D03*
X59361Y403506D02*
D03*
Y399569D02*
D03*
X66061Y454468D02*
D03*
Y458405D02*
D03*
X59361Y454468D02*
D03*
Y458405D02*
D03*
X73561Y454468D02*
D03*
Y458405D02*
D03*
X296900Y200532D02*
D03*
Y204468D02*
D03*
X300800Y210631D02*
D03*
Y214568D02*
D03*
X66780Y163531D02*
D03*
Y159595D02*
D03*
X74000Y163531D02*
D03*
Y159595D02*
D03*
X183000Y48968D02*
D03*
Y45031D02*
D03*
X176000Y48968D02*
D03*
Y45031D02*
D03*
X169000Y48968D02*
D03*
Y45031D02*
D03*
D126*
X9400Y275200D02*
D03*
X267717Y110236D02*
D03*
X299213Y370079D02*
D03*
D127*
X66929Y311024D02*
D03*
X177165Y192913D02*
D03*
Y74803D02*
D03*
X66929D02*
D03*
Y192913D02*
D03*
Y429134D02*
D03*
D128*
X77165Y295866D02*
D03*
X75590D02*
D03*
X74016D02*
D03*
X72441D02*
D03*
X70866D02*
D03*
X69291D02*
D03*
X67716D02*
D03*
X66142D02*
D03*
X64567D02*
D03*
X62992D02*
D03*
X61417D02*
D03*
X59842D02*
D03*
X58268D02*
D03*
X56693D02*
D03*
X56693Y326181D02*
D03*
X58268D02*
D03*
X59842D02*
D03*
X61417D02*
D03*
X62992D02*
D03*
X64567D02*
D03*
X66142D02*
D03*
X67716D02*
D03*
X69291D02*
D03*
X70866D02*
D03*
X72441D02*
D03*
X74016D02*
D03*
X75590D02*
D03*
X77165D02*
D03*
X187402Y177756D02*
D03*
X185827D02*
D03*
X184252D02*
D03*
X182677D02*
D03*
X181102D02*
D03*
X179527D02*
D03*
X177953D02*
D03*
X176378D02*
D03*
X174803D02*
D03*
X173228D02*
D03*
X171653D02*
D03*
X170079D02*
D03*
X168504D02*
D03*
X166929D02*
D03*
X166929Y208071D02*
D03*
X168504D02*
D03*
X170079D02*
D03*
X171653D02*
D03*
X173228D02*
D03*
X174803D02*
D03*
X176378D02*
D03*
X177953D02*
D03*
X179527D02*
D03*
X181102D02*
D03*
X182677D02*
D03*
X184252D02*
D03*
X185827D02*
D03*
X187402D02*
D03*
Y59646D02*
D03*
X185827D02*
D03*
X184252D02*
D03*
X182677D02*
D03*
X181102D02*
D03*
X179527D02*
D03*
X177953D02*
D03*
X176378D02*
D03*
X174803D02*
D03*
X173228D02*
D03*
X171653D02*
D03*
X170079D02*
D03*
X168504D02*
D03*
X166929D02*
D03*
X166929Y89961D02*
D03*
X168504D02*
D03*
X170079D02*
D03*
X171653D02*
D03*
X173228D02*
D03*
X174803D02*
D03*
X176378D02*
D03*
X177953D02*
D03*
X179527D02*
D03*
X181102D02*
D03*
X182677D02*
D03*
X184252D02*
D03*
X185827D02*
D03*
X187402D02*
D03*
X77165Y59646D02*
D03*
X75590D02*
D03*
X74016D02*
D03*
X72441D02*
D03*
X70866D02*
D03*
X69291D02*
D03*
X67716D02*
D03*
X66142D02*
D03*
X64567D02*
D03*
X62992D02*
D03*
X61417D02*
D03*
X59842D02*
D03*
X58268D02*
D03*
X56693D02*
D03*
X56693Y89961D02*
D03*
X58268D02*
D03*
X59842D02*
D03*
X61417D02*
D03*
X62992D02*
D03*
X64567D02*
D03*
X66142D02*
D03*
X67716D02*
D03*
X69291D02*
D03*
X70866D02*
D03*
X72441D02*
D03*
X74016D02*
D03*
X75590D02*
D03*
X77165D02*
D03*
Y177756D02*
D03*
X75590D02*
D03*
X74016D02*
D03*
X72441D02*
D03*
X70866D02*
D03*
X69291D02*
D03*
X67716D02*
D03*
X66142D02*
D03*
X64567D02*
D03*
X62992D02*
D03*
X61417D02*
D03*
X59842D02*
D03*
X58268D02*
D03*
X56693D02*
D03*
X56693Y208071D02*
D03*
X58268D02*
D03*
X59842D02*
D03*
X61417D02*
D03*
X62992D02*
D03*
X64567D02*
D03*
X66142D02*
D03*
X67716D02*
D03*
X69291D02*
D03*
X70866D02*
D03*
X72441D02*
D03*
X74016D02*
D03*
X75590D02*
D03*
X77165D02*
D03*
Y444291D02*
D03*
X75590D02*
D03*
X74016D02*
D03*
X72441D02*
D03*
X70866D02*
D03*
X69291D02*
D03*
X67716D02*
D03*
X66142D02*
D03*
X64567D02*
D03*
X62992D02*
D03*
X61417D02*
D03*
X59842D02*
D03*
X58268D02*
D03*
X56693D02*
D03*
X56693Y413976D02*
D03*
X58268D02*
D03*
X59842D02*
D03*
X61417D02*
D03*
X62992D02*
D03*
X64567D02*
D03*
X66142D02*
D03*
X67716D02*
D03*
X69291D02*
D03*
X70866D02*
D03*
X72441D02*
D03*
X74016D02*
D03*
X75590D02*
D03*
X77165D02*
D03*
D129*
X51772Y300787D02*
D03*
Y302362D02*
D03*
Y303937D02*
D03*
Y305512D02*
D03*
Y307087D02*
D03*
Y308661D02*
D03*
Y310236D02*
D03*
Y311811D02*
D03*
Y313386D02*
D03*
Y314961D02*
D03*
Y316535D02*
D03*
Y318110D02*
D03*
Y319685D02*
D03*
Y321260D02*
D03*
X82087Y321260D02*
D03*
Y319685D02*
D03*
Y318110D02*
D03*
Y316535D02*
D03*
Y314961D02*
D03*
Y313386D02*
D03*
Y311811D02*
D03*
Y310236D02*
D03*
Y308661D02*
D03*
Y307087D02*
D03*
Y305512D02*
D03*
Y303937D02*
D03*
Y302362D02*
D03*
Y300787D02*
D03*
X162008Y182677D02*
D03*
Y184252D02*
D03*
Y185827D02*
D03*
Y187402D02*
D03*
Y188976D02*
D03*
Y190551D02*
D03*
Y192126D02*
D03*
Y193701D02*
D03*
Y195276D02*
D03*
Y196850D02*
D03*
Y198425D02*
D03*
Y200000D02*
D03*
Y201575D02*
D03*
Y203150D02*
D03*
X192323Y203150D02*
D03*
Y201575D02*
D03*
Y200000D02*
D03*
Y198425D02*
D03*
Y196850D02*
D03*
Y195276D02*
D03*
Y193701D02*
D03*
Y192126D02*
D03*
Y190551D02*
D03*
Y188976D02*
D03*
Y187402D02*
D03*
Y185827D02*
D03*
Y184252D02*
D03*
Y182677D02*
D03*
X162008Y64567D02*
D03*
Y66142D02*
D03*
Y67716D02*
D03*
Y69291D02*
D03*
Y70866D02*
D03*
Y72441D02*
D03*
Y74016D02*
D03*
Y75591D02*
D03*
Y77165D02*
D03*
Y78740D02*
D03*
Y80315D02*
D03*
Y81890D02*
D03*
Y83465D02*
D03*
Y85039D02*
D03*
X192323Y85039D02*
D03*
Y83465D02*
D03*
Y81890D02*
D03*
Y80315D02*
D03*
Y78740D02*
D03*
Y77165D02*
D03*
Y75591D02*
D03*
Y74016D02*
D03*
Y72441D02*
D03*
Y70866D02*
D03*
Y69291D02*
D03*
Y67716D02*
D03*
Y66142D02*
D03*
Y64567D02*
D03*
X51772D02*
D03*
Y66142D02*
D03*
Y67716D02*
D03*
Y69291D02*
D03*
Y70866D02*
D03*
Y72441D02*
D03*
Y74016D02*
D03*
Y75591D02*
D03*
Y77165D02*
D03*
Y78740D02*
D03*
Y80315D02*
D03*
Y81890D02*
D03*
Y83465D02*
D03*
Y85039D02*
D03*
X82087Y85039D02*
D03*
Y83465D02*
D03*
Y81890D02*
D03*
Y80315D02*
D03*
Y78740D02*
D03*
Y77165D02*
D03*
Y75591D02*
D03*
Y74016D02*
D03*
Y72441D02*
D03*
Y70866D02*
D03*
Y69291D02*
D03*
Y67716D02*
D03*
Y66142D02*
D03*
Y64567D02*
D03*
X51772Y182677D02*
D03*
Y184252D02*
D03*
Y185827D02*
D03*
Y187402D02*
D03*
Y188976D02*
D03*
Y190551D02*
D03*
Y192126D02*
D03*
Y193701D02*
D03*
Y195276D02*
D03*
Y196850D02*
D03*
Y198425D02*
D03*
Y200000D02*
D03*
Y201575D02*
D03*
Y203150D02*
D03*
X82087Y203150D02*
D03*
Y201575D02*
D03*
Y200000D02*
D03*
Y198425D02*
D03*
Y196850D02*
D03*
Y195276D02*
D03*
Y193701D02*
D03*
Y192126D02*
D03*
Y190551D02*
D03*
Y188976D02*
D03*
Y187402D02*
D03*
Y185827D02*
D03*
Y184252D02*
D03*
Y182677D02*
D03*
Y418898D02*
D03*
Y420472D02*
D03*
Y422047D02*
D03*
Y423622D02*
D03*
Y425197D02*
D03*
Y426772D02*
D03*
Y428346D02*
D03*
Y429921D02*
D03*
Y431496D02*
D03*
Y433071D02*
D03*
Y434646D02*
D03*
Y436221D02*
D03*
Y437795D02*
D03*
Y439370D02*
D03*
X51772Y439370D02*
D03*
Y437795D02*
D03*
Y436221D02*
D03*
Y434646D02*
D03*
Y433071D02*
D03*
Y431496D02*
D03*
Y429921D02*
D03*
Y428346D02*
D03*
Y426772D02*
D03*
Y425197D02*
D03*
Y423622D02*
D03*
Y422047D02*
D03*
Y420472D02*
D03*
Y418898D02*
D03*
D130*
X274400Y140161D02*
D03*
X283400D02*
D03*
Y171300D02*
D03*
X274400D02*
D03*
X295700Y63300D02*
D03*
X286700D02*
D03*
D131*
X169361Y468209D02*
D03*
X147361D02*
D03*
D132*
X169361Y477264D02*
D03*
X147361D02*
D03*
D133*
X176861Y455709D02*
D03*
X171861D02*
D03*
X166861D02*
D03*
X161861D02*
D03*
X139861D02*
D03*
X144861D02*
D03*
X149861D02*
D03*
X154861D02*
D03*
D134*
X288966Y438637D02*
D03*
X277155D02*
D03*
X288966Y429637D02*
D03*
X277155D02*
D03*
D135*
X202761Y373323D02*
D03*
Y346551D02*
D03*
X239161Y436851D02*
D03*
Y463623D02*
D03*
X166761Y373323D02*
D03*
Y346551D02*
D03*
D136*
X137761Y372342D02*
D03*
Y347145D02*
D03*
D137*
X189261Y4837D02*
D03*
Y10337D02*
D03*
X297400Y245450D02*
D03*
Y250950D02*
D03*
X291200D02*
D03*
Y245450D02*
D03*
X180711Y9037D02*
D03*
Y3537D02*
D03*
X180811Y14250D02*
D03*
Y19750D02*
D03*
X172000Y14250D02*
D03*
Y19750D02*
D03*
X189261D02*
D03*
Y14250D02*
D03*
X172161Y9037D02*
D03*
Y3537D02*
D03*
D138*
X275702Y342100D02*
D03*
X286332D02*
D03*
D139*
X296900Y210732D02*
D03*
Y214668D02*
D03*
X227000Y389087D02*
D03*
Y393024D02*
D03*
X241761Y425206D02*
D03*
Y421269D02*
D03*
D140*
X194261Y466552D02*
D03*
Y455922D02*
D03*
X206261Y466552D02*
D03*
Y455922D02*
D03*
D141*
X195289Y439337D02*
D03*
Y417337D02*
D03*
D142*
X186234Y439337D02*
D03*
Y417337D02*
D03*
D143*
X207789Y446837D02*
D03*
Y441837D02*
D03*
Y436837D02*
D03*
Y431837D02*
D03*
Y409837D02*
D03*
Y414837D02*
D03*
Y419837D02*
D03*
Y424837D02*
D03*
D144*
X222100Y393000D02*
D03*
D145*
X305000Y427315D02*
D03*
Y416685D02*
D03*
D146*
X153761Y399950D02*
D03*
Y442526D02*
D03*
D147*
X288079Y207526D02*
D03*
X273118D02*
D03*
Y198077D02*
D03*
X288079D02*
D03*
D148*
X308402Y482745D02*
D03*
X263520D02*
D03*
Y458729D02*
D03*
X308402D02*
D03*
D149*
X266018Y21365D02*
D03*
X263459Y20578D02*
D03*
X255782Y21365D02*
D03*
D150*
X260900Y20578D02*
D03*
X258341D02*
D03*
D151*
X260900Y7586D02*
D03*
D152*
X274471Y162201D02*
D03*
X274471Y154720D02*
D03*
X283329Y158461D02*
D03*
D153*
X260153Y77595D02*
D03*
Y79563D02*
D03*
Y81532D02*
D03*
Y83500D02*
D03*
Y85469D02*
D03*
Y87437D02*
D03*
Y89406D02*
D03*
X279247D02*
D03*
Y87437D02*
D03*
Y85469D02*
D03*
Y83500D02*
D03*
Y81532D02*
D03*
Y79563D02*
D03*
Y77595D02*
D03*
D154*
X263794Y93047D02*
D03*
X265763D02*
D03*
X267731D02*
D03*
X269700D02*
D03*
X271669D02*
D03*
X273637D02*
D03*
X275606D02*
D03*
Y73953D02*
D03*
X273637D02*
D03*
X271669D02*
D03*
X269700D02*
D03*
X267731D02*
D03*
X265763D02*
D03*
X263794D02*
D03*
D155*
X269700Y83500D02*
D03*
D156*
X275170Y250924D02*
D03*
X282651D02*
D03*
Y241476D02*
D03*
X278911D02*
D03*
X275170D02*
D03*
D157*
X282887Y306345D02*
D03*
D158*
Y315400D02*
D03*
Y324455D02*
D03*
D159*
X256313Y315400D02*
D03*
D160*
X306800Y342495D02*
D03*
Y354306D02*
D03*
D161*
X299213Y393701D02*
D03*
X15748D02*
D03*
Y110236D02*
D03*
X299213D02*
D03*
D162*
X220472Y488189D02*
D03*
Y15748D02*
D03*
Y251969D02*
D03*
X15748Y15748D02*
D03*
Y488189D02*
D03*
Y251969D02*
D03*
D163*
X289370Y46063D02*
D03*
D164*
X299370D02*
D03*
D165*
X246727Y8176D02*
D03*
X275073D02*
D03*
D166*
X247908Y19200D02*
D03*
X273892D02*
D03*
D167*
X220224Y25059D02*
D03*
Y6059D02*
D03*
X229724Y15559D02*
D03*
X211224D02*
D03*
X213724Y22559D02*
D03*
X227224D02*
D03*
X213224Y9059D02*
D03*
X227224D02*
D03*
X15500Y25059D02*
D03*
Y6059D02*
D03*
X25000Y15559D02*
D03*
X6500D02*
D03*
X9000Y22559D02*
D03*
X22500D02*
D03*
X8500Y9059D02*
D03*
X22500D02*
D03*
X220224Y261280D02*
D03*
Y242280D02*
D03*
X229724Y251780D02*
D03*
X211224D02*
D03*
X213724Y258780D02*
D03*
X227224D02*
D03*
X213224Y245280D02*
D03*
X227224D02*
D03*
X15500Y261280D02*
D03*
Y242280D02*
D03*
X25000Y251780D02*
D03*
X6500D02*
D03*
X9000Y258780D02*
D03*
X22500D02*
D03*
X8500Y245280D02*
D03*
X22500D02*
D03*
X220224Y497500D02*
D03*
Y478500D02*
D03*
X229724Y488000D02*
D03*
X211224D02*
D03*
X213724Y495000D02*
D03*
X227224D02*
D03*
X213224Y481500D02*
D03*
X227224D02*
D03*
X22500D02*
D03*
X8500D02*
D03*
X22500Y495000D02*
D03*
X9000D02*
D03*
X6500Y488000D02*
D03*
X25000D02*
D03*
X15500Y478500D02*
D03*
Y497500D02*
D03*
X199000Y56500D02*
D03*
X39500Y254000D02*
D03*
X87000D02*
D03*
X150175Y254175D02*
D03*
X193500Y254000D02*
D03*
X200500Y245900D02*
D03*
X84519Y57519D02*
D03*
X96571Y16429D02*
D03*
X89000D02*
D03*
X153500Y16500D02*
D03*
Y5500D02*
D03*
X265687Y278310D02*
D03*
X95500Y247000D02*
D03*
X266000Y266000D02*
D03*
X280000Y278000D02*
D03*
X285500Y257700D02*
D03*
X272000Y233000D02*
D03*
X264000Y192000D02*
D03*
X293000Y215000D02*
D03*
X292900Y139400D02*
D03*
X293000Y179000D02*
D03*
X283000Y145000D02*
D03*
X274471Y166000D02*
D03*
X269000Y155000D02*
D03*
X229700Y384300D02*
D03*
D168*
X232761Y408737D02*
D03*
M02*
