M48
;Layer_Color=9474304
;FILE_FORMAT=2:5
INCH,TZ
;TYPE=PLATED
T1F00S00C0.01181
T2F00S00C0.01200
T3F00S00C0.01400
T4F00S00C0.01575
T5F00S00C0.01600
T6F00S00C0.01800
T9F00S00C0.03543
T10F00S00C0.12992
T11F00S00C0.23622
%
T01
X230792Y405784
X234729
X232761Y408737
X230792Y411690
X234729
T02
X234800Y46700
X255782Y41000
X259900Y44500
X267000Y47200
X274980Y28285
X183400Y41626
X175900Y41526
X169100Y41726
X165836Y49090
X190736Y49390
X176500Y3400
X73600Y41626
X66100Y41526
X59300Y41726
X55600Y49090
X80500Y49390
X50400Y54890
X45929Y75103
Y78753
X39919Y79619
X36100Y79100
X34216Y68200
X49900Y95190
X54300Y101490
X23800Y132900
X30700Y145500
X33917Y185800
X39919Y197500
X45929Y196863
Y193213
X36911Y201500
X50400Y173400
X55600Y167600
X66600Y167800
X72441Y172013
X80500Y167900
X84000Y179500
X86729Y182677
X87129Y187913
X95900Y185900
X92000Y196100
X87129Y199313
X101261Y195400
X101476Y204203
X110361Y190900
X104561Y179700
X100329Y174000
X74239Y156163
X66739Y156063
X59939Y156263
X59300Y106569
X66100
X73500
X74142Y95617
X66200Y97600
X80200Y100890
X87129Y81203
X92000Y78000
X101100Y76500
X105000
X101315Y85303
X95529Y68000
X87129Y69803
X86229Y64567
X104700Y61600
X100169Y55100
X72441Y53903
X66100Y51500
X146532Y65800
X150175Y79675
X156165Y78753
Y75103
X147031Y84300
X160136Y95190
X164536Y101490
X169021Y107004
X175821Y107104
X183021Y106904
X184378Y95617
X176000Y97200
X190436Y100890
X197365Y81203
X202500Y78000
X205765Y68000
X197365Y69803
X196965Y64567
X210068Y55200
X182677Y53903
X175900Y52000
X160636Y54890
X167900Y160000
X175000Y159800
X182000Y159900
X187000Y165000
X192000Y169000
X182677Y172013
X174900Y171800
X160636Y173000
X164000Y165900
X146392Y183500
X150175Y196966
X155665Y196863
X146200Y201600
X197365Y199313
X199765Y196083
X197365Y187913
X196965Y182677
X205787Y186000
X209968Y174200
X215000Y179700
X214000Y184200
X212200Y195200
X211615Y203403
X226000Y147000
X229100Y134200
X246300Y92000
X246400Y77000
X248100Y53800
X260400Y56600
X269800Y61000
Y67400
X264800Y67600
X275600Y66800
X281200Y72300
X284000Y83500
X283500Y93600
X211215Y85403
X213500Y75500
X220100Y72100
X214600Y61700
X297600Y187900
X301300Y245500
X279200Y230900
X248232Y239000
X238400
Y279300
X248232
X285600Y302100
X285400Y348800
X137900Y359137
X101476Y321240
X101261Y312437
X92000Y314200
X87129Y306024
X86729Y300787
X84000Y297500
X80500Y285610
X72441Y290124
X66700Y287900
X66900Y277900
X73600Y278000
X60100Y278100
X55600Y285310
X58700Y262300
X75329
Y240200
X73621Y226768
X66821Y226969
X59321Y226869
X58700Y240200
X66500Y216400
X74142Y213727
X80200Y219400
X108286Y233500
Y240200
X124609
Y233500
X140931
Y240200
X157254
Y233500
X173577
Y240200
X175821Y226969
X169021Y226869
X164536Y219600
X160136Y213300
X176436Y215710
X184378Y213727
X188400Y218900
X183021Y226768
X189900Y233600
Y240300
Y262400
Y270300
X173577Y270200
Y262300
X157254
Y270200
X140931
Y262300
X124609
Y270200
X108286
Y262300
X100329Y291037
X104861Y297537
X95800Y303800
X110361Y307937
X80200Y337110
X74016Y331837
X66800Y333700
X66821Y343874
X73621Y343674
X59321Y343774
X54300Y337710
X49900Y331410
X45929Y314974
Y311324
X39919Y315000
X36911Y320500
X34877Y303737
X50400Y291110
X54300Y220000
X49900Y213700
X24398Y371000
X31298Y383600
X35000Y422000
X39919Y433126
X45929Y433084
Y429434
X36911Y439000
X49829Y449572
X54229Y455872
X39919Y473819
X50329Y409272
X55529Y403472
X59300Y396800
X66100Y396600
X73600Y396700
X72441Y408234
X65900Y406400
X80429Y403772
X86729Y418898
X87129Y424134
X95529Y422300
X101161Y430962
X101376Y439765
X89529Y432304
X110261Y426462
X104761Y416062
X100229Y409562
X80129Y455272
X74142Y449947
X66100Y451500
Y460900
X59300
X73500
X95529Y474129
X233261Y423237
Y420237
X238261
Y416737
X241761Y421237
X245761
Y423737
X249761
Y421237
X258761Y421690
X258261Y399737
X255954Y399686
X235761Y399237
X231761
X226954Y402237
X220761Y403737
Y405737
X220600Y388100
X215200Y391000
X271300Y405800
X305100Y412400
X288200Y368500
T03
X269000Y155000
X274471Y166000
X283000Y145000
X292900Y139400
X293000Y179000
X264000Y192000
X272000Y233000
X285500Y257700
X280000Y278000
X265687Y278310
X266000Y266000
X293000Y215000
X176761Y453737
X154761
X229700Y384300
T04
X58071Y65945
X61614
X65158
X68701
X72244
X75787
X74016Y69488
X70472Y69488
X66929Y69488
X63386Y69488
X59842Y69488
X61614Y73032
X65158
X68701
X72244
X75787
X74016Y76575
X70472Y76575
X66929Y76575
X63386Y76575
X59842Y76575
X61614Y80118
X58071
X59842Y83661
X63386Y83661
X66929Y83661
X70472Y83661
X74016Y83661
X72244Y80118
X68701
X65158
X75787
X58071Y73032
X168307
X171850
X175394
X178937
X182480
X186024
X184252Y69488
X180709Y69488
X177165Y69488
X173622Y69488
X170079Y69488
X171850Y65945
X175394
X178937
X182480
X186024
X184252Y76575
X180709Y76575
X177165Y76575
X173622Y76575
X170079Y76575
X171850Y80118
X168307
X170079Y83661
X173622Y83661
X177165Y83661
X180709Y83661
X184252Y83661
X182480Y80118
X178937
X175394
X186024
X168307Y65945
Y184055
X171850
X175394
X178937
X182480
X186024
X184252Y187598
X180709Y187598
X177165Y187598
X173622Y187598
X170079Y187598
X171850Y191142
X175394
X178937
X182480
X186024
X184252Y194685
X180709Y194685
X177165Y194685
X173622Y194685
X170079Y194685
X171850Y198228
X168307
X170079Y201772
X173622Y201772
X177165Y201772
X180709Y201772
X184252Y201772
X182480Y198228
X178937
X175394
X186024
X168307Y191142
X75787
X72244
X68701
X65158
X61614
X58071
X59842Y187598
X63386Y187598
X66929Y187598
X70472Y187598
X74016Y187598
X72244Y184055
X75787
X68701
X65158
X61614
X58071
X59842Y194685
X63386Y194685
X66929Y194685
X70472Y194685
X74016Y194685
X72244Y198228
X68701
X65158
X61614
X58071
X59842Y201772
X63386Y201772
X66929Y201772
X70472Y201772
X74016Y201772
X75787Y198228
Y302165
X72244
X68701
X65158
X61614
X58071
X59842Y305709
X63386Y305709
X66929Y305709
X70472Y305709
X74016Y305709
X72244Y309252
X68701
X65158
X61614
X58071
X59842Y312795
X63386Y312795
X66929Y312795
X70472Y312795
X74016Y312795
X72244Y316339
X68701
X65158
X61614
X58071
X59842Y319882
X63386Y319882
X66929Y319882
X70472Y319882
X74016Y319882
X75787Y316339
Y309252
Y420276
X72244
X68701
X65158
X61614
X58071
X59842Y423819
X63386Y423819
X66929Y423819
X70472Y423819
X74016Y423819
X72244Y427362
X75787
X74016Y430905
X70472Y430905
X66929Y430905
X63386Y430905
X59842Y430905
X61614Y434449
X65158
X68701
X72244
X75787
X74016Y437992
X70472Y437992
X66929Y437992
X63386Y437992
X59842Y437992
X58071Y434449
Y427362
X61614
X65158
X68701
T05
X213224Y9059
X211224Y15559
X213724Y22559
X220224Y25059
X227224Y22559
X229724Y15559
X227224Y9059
X220224Y6059
X153500Y5500
Y16500
X96571Y16429
X89000
X25000Y15559
X22500Y9059
X15500Y6059
X8500Y9059
X6500Y15559
X9000Y22559
X15500Y25059
X22500Y22559
X84519Y57519
X199000Y56500
X213224Y245280
X211224Y251780
X213724Y258780
X220224Y261280
X227224Y258780
X229724Y251780
X227224Y245280
X220224Y242280
X200500Y245900
X193500Y254000
X150175Y254175
X95500Y247000
X87000Y254000
X39500
X25000Y251780
X22500Y245280
X15500Y242280
X8500Y245280
X6500Y251780
X9000Y258780
X15500Y261280
X22500Y258780
Y481500
X25000Y488000
X22500Y495000
X15500Y497500
X9000Y495000
X6500Y488000
X8500Y481500
X15500Y478500
X213224Y481500
X211224Y488000
X213724Y495000
X220224Y497500
X227224Y495000
X229724Y488000
X227224Y481500
X220224Y478500
T06
X134800Y349400
X140761Y349437
X164700Y348500
X168800Y348600
Y353300
X164700Y353200
Y343100
X168800Y343200
X166900Y336300
X203100Y336400
X204600Y341600
X200500Y341500
X200600Y347100
X204700Y347200
Y352500
X200600Y352400
X201261Y394737
X206261
X209461Y408937
Y412737
X198261Y411737
Y415237
X206261Y424737
X209761
Y446737
X206261
X205761Y452237
X210100Y452000
X199761Y452237
X195600Y452300
X188200Y457800
X184600Y468000
X190000Y472237
X200000
X169261
X166361Y468024
X172361
Y477079
X166361
X150361
X144361
X147261Y472737
X144361Y468024
X150361
X216300Y453900
X215232Y441637
Y436637
Y431637
Y426637
Y421637
X219261Y424237
Y429237
Y434237
Y438737
X218261Y412237
X221761
X225453Y399430
X257261Y430237
X259100Y488500
T09
X289370Y46063
X299370
T10
X220472Y15748
X15748
X220472Y251969
X15748
Y488189
X220472
T11
X15748Y110236
X299213
X15748Y393701
X299213
M30
