%FSLAX25Y25*%
%MOIN*%
G70*
G01*
G75*
G04 Layer_Physical_Order=4*
G04 Layer_Color=16711680*
%ADD10C,0.03000*%
%ADD11C,0.00800*%
%ADD12C,0.02000*%
%ADD13C,0.01181*%
%ADD14C,0.02362*%
%ADD15C,0.01969*%
%ADD16C,0.01200*%
%ADD17C,0.01500*%
%ADD18C,0.01000*%
%ADD19C,0.01100*%
%ADD20C,0.04000*%
%ADD21C,0.03200*%
%ADD22C,0.03937*%
%ADD23C,0.01575*%
%ADD24C,0.00787*%
%ADD25C,0.00800*%
%ADD26C,0.02000*%
%ADD27C,0.10000*%
%ADD28R,0.05512X0.04331*%
%ADD29R,0.04331X0.10236*%
%ADD30R,0.04331X0.05512*%
%ADD31R,0.03543X0.02756*%
%ADD32R,0.03150X0.03543*%
%ADD33R,0.02756X0.03543*%
%ADD34R,0.02362X0.02362*%
%ADD35R,0.03543X0.03150*%
%ADD36R,0.02362X0.01969*%
%ADD37R,0.03000X0.03000*%
%ADD38C,0.03150*%
%ADD39R,0.10236X0.09449*%
%ADD40R,0.07087X0.06299*%
%ADD41R,0.06299X0.07087*%
%ADD42R,0.01969X0.02362*%
%ADD43C,0.03937*%
%ADD44R,0.22047X0.22047*%
%ADD45O,0.00787X0.05118*%
%ADD46O,0.05118X0.00787*%
%ADD47R,0.06000X0.05000*%
%ADD48R,0.16535X0.12205*%
%ADD49R,0.18504X0.05906*%
%ADD50R,0.02756X0.04528*%
%ADD51R,0.03937X0.07087*%
%ADD52R,0.07480X0.16339*%
%ADD53R,0.09449X0.10236*%
%ADD54R,0.03000X0.03000*%
%ADD55R,0.04331X0.06693*%
%ADD56R,0.02362X0.02362*%
%ADD57R,0.10236X0.04331*%
%ADD58R,0.12205X0.16535*%
%ADD59R,0.05906X0.18504*%
%ADD60R,0.04528X0.02756*%
%ADD61C,0.03000*%
%ADD62R,0.06693X0.04331*%
%ADD63R,0.19488X0.11594*%
%ADD64R,0.01102X0.02756*%
%ADD65R,0.06299X0.09449*%
%ADD66R,0.03347X0.01102*%
%ADD67R,0.08661X0.05512*%
%ADD68R,0.09449X0.11024*%
%ADD69O,0.01575X0.08268*%
%ADD70O,0.01378X0.08268*%
%ADD71R,0.07087X0.05906*%
%ADD72R,0.03937X0.03740*%
%ADD73O,0.04528X0.00787*%
%ADD74O,0.00787X0.04528*%
%ADD75R,0.08268X0.08268*%
%ADD76R,0.02559X0.03543*%
%ADD77R,0.06102X0.04331*%
%ADD78R,0.06102X0.04331*%
%ADD79R,0.06102X0.13583*%
%ADD80R,0.07087X0.03937*%
%ADD81C,0.00780*%
%ADD82R,0.42300X0.07600*%
%ADD83R,0.72700X0.09700*%
%ADD84R,0.46300X0.11900*%
%ADD85R,0.46400X0.11900*%
%ADD86R,0.19500X0.45500*%
%ADD87R,0.60476X0.09600*%
%ADD88C,0.23622*%
%ADD89C,0.25590*%
%ADD90R,0.05906X0.05906*%
%ADD91C,0.05906*%
%ADD92R,0.04724X0.07087*%
%ADD93O,0.05906X0.03937*%
%ADD94C,0.02400*%
%ADD95C,0.02800*%
%ADD96C,0.03200*%
%ADD97C,0.02362*%
%ADD98C,0.01600*%
G36*
X307845Y501983D02*
X309583Y501055D01*
X311105Y499805D01*
X312355Y498283D01*
X313247Y496614D01*
Y308437D01*
Y4362D01*
X312931Y3771D01*
X312118Y2782D01*
X311129Y1969D01*
X310651Y1714D01*
X178768D01*
X178532Y2155D01*
X178743Y2471D01*
X178928Y3400D01*
X178743Y4329D01*
X178217Y5117D01*
X177429Y5643D01*
X176500Y5828D01*
X175571Y5643D01*
X174783Y5117D01*
X174257Y4329D01*
X174072Y3400D01*
X174257Y2471D01*
X174468Y2155D01*
X174232Y1714D01*
X3142D01*
X2334Y2334D01*
X1714Y3142D01*
Y497977D01*
X2117Y498731D01*
X3042Y499858D01*
X4169Y500783D01*
X5454Y501470D01*
X6849Y501893D01*
X7936Y502000D01*
X8286Y502000D01*
D01*
D01*
D01*
D01*
D01*
D01*
Y502000D01*
X8286D01*
X8286D01*
X8290D01*
X8293D01*
D01*
X8293D01*
X8293D01*
D01*
D01*
D01*
D01*
X8298D01*
X8300D01*
D01*
X8300D01*
D01*
D01*
X8300D01*
D01*
D01*
D01*
Y502000D01*
D01*
D01*
Y502000D01*
X8331Y502223D01*
X307056D01*
X307845Y501983D01*
D02*
G37*
%LPC*%
G36*
X174900Y174228D02*
X173971Y174043D01*
X173183Y173517D01*
X172657Y172729D01*
X172472Y171800D01*
X172657Y170871D01*
X173183Y170083D01*
X173971Y169557D01*
X174900Y169372D01*
X175829Y169557D01*
X176617Y170083D01*
X177143Y170871D01*
X177328Y171800D01*
X177143Y172729D01*
X176617Y173517D01*
X175829Y174043D01*
X174900Y174228D01*
D02*
G37*
G36*
X72441Y174441D02*
X71512Y174256D01*
X70724Y173730D01*
X70198Y172942D01*
X70013Y172013D01*
X70198Y171084D01*
X70724Y170297D01*
X71512Y169770D01*
X72441Y169586D01*
X73370Y169770D01*
X74158Y170297D01*
X74684Y171084D01*
X74869Y172013D01*
X74684Y172942D01*
X74158Y173730D01*
X73370Y174256D01*
X72441Y174441D01*
D02*
G37*
G36*
X182677D02*
X181748Y174256D01*
X180961Y173730D01*
X180434Y172942D01*
X180249Y172013D01*
X180434Y171084D01*
X180961Y170297D01*
X181748Y169770D01*
X182677Y169586D01*
X183606Y169770D01*
X184394Y170297D01*
X184920Y171084D01*
X185105Y172013D01*
X184920Y172942D01*
X184394Y173730D01*
X183606Y174256D01*
X182677Y174441D01*
D02*
G37*
G36*
X66600Y170228D02*
X65671Y170043D01*
X64883Y169517D01*
X64357Y168729D01*
X64172Y167800D01*
X64357Y166871D01*
X64883Y166083D01*
X65671Y165557D01*
X66600Y165372D01*
X67529Y165557D01*
X68317Y166083D01*
X68843Y166871D01*
X69028Y167800D01*
X68843Y168729D01*
X68317Y169517D01*
X67529Y170043D01*
X66600Y170228D01*
D02*
G37*
G36*
X80500Y170328D02*
X79571Y170143D01*
X78783Y169617D01*
X78257Y168829D01*
X78072Y167900D01*
X78257Y166971D01*
X78783Y166183D01*
X79571Y165657D01*
X80500Y165472D01*
X81429Y165657D01*
X82217Y166183D01*
X82743Y166971D01*
X82928Y167900D01*
X82743Y168829D01*
X82217Y169617D01*
X81429Y170143D01*
X80500Y170328D01*
D02*
G37*
G36*
X192000Y171428D02*
X191071Y171243D01*
X190283Y170717D01*
X189757Y169929D01*
X189572Y169000D01*
X189757Y168071D01*
X190283Y167283D01*
X191071Y166757D01*
X192000Y166572D01*
X192929Y166757D01*
X193717Y167283D01*
X194243Y168071D01*
X194428Y169000D01*
X194243Y169929D01*
X193717Y170717D01*
X192929Y171243D01*
X192000Y171428D01*
D02*
G37*
G36*
X104561Y182128D02*
X103632Y181943D01*
X102844Y181417D01*
X102318Y180629D01*
X102133Y179700D01*
X102318Y178771D01*
X102844Y177983D01*
X103632Y177457D01*
X104561Y177272D01*
X105490Y177457D01*
X106277Y177983D01*
X106804Y178771D01*
X106988Y179700D01*
X106804Y180629D01*
X106277Y181417D01*
X105490Y181943D01*
X104561Y182128D01*
D02*
G37*
G36*
X215000D02*
X214071Y181943D01*
X213283Y181417D01*
X212757Y180629D01*
X212572Y179700D01*
X212757Y178771D01*
X213283Y177983D01*
X214071Y177457D01*
X215000Y177272D01*
X215929Y177457D01*
X216717Y177983D01*
X217243Y178771D01*
X217428Y179700D01*
X217243Y180629D01*
X216717Y181417D01*
X215929Y181943D01*
X215000Y182128D01*
D02*
G37*
G36*
X197365Y190341D02*
X196436Y190156D01*
X195649Y189630D01*
X195122Y188842D01*
X194938Y187913D01*
X195122Y186984D01*
X195649Y186197D01*
X196436Y185670D01*
X196865Y185585D01*
Y185085D01*
X196036Y184920D01*
X195249Y184394D01*
X194722Y183606D01*
X194538Y182677D01*
X194722Y181748D01*
X195249Y180961D01*
X196036Y180434D01*
X196965Y180249D01*
X197894Y180434D01*
X198682Y180961D01*
X199208Y181748D01*
X199393Y182677D01*
X199208Y183606D01*
X198682Y184394D01*
X197894Y184920D01*
X197465Y185005D01*
Y185505D01*
X198294Y185670D01*
X199082Y186197D01*
X199608Y186984D01*
X199793Y187913D01*
X199608Y188842D01*
X199082Y189630D01*
X198294Y190156D01*
X197365Y190341D01*
D02*
G37*
G36*
X160636Y175428D02*
X159707Y175243D01*
X158920Y174717D01*
X158393Y173929D01*
X158209Y173000D01*
X158393Y172071D01*
X158920Y171283D01*
X159707Y170757D01*
X160636Y170572D01*
X161565Y170757D01*
X162353Y171283D01*
X162879Y172071D01*
X163064Y173000D01*
X162879Y173929D01*
X162353Y174717D01*
X161565Y175243D01*
X160636Y175428D01*
D02*
G37*
G36*
X50400Y175828D02*
X49471Y175643D01*
X48683Y175117D01*
X48157Y174329D01*
X47972Y173400D01*
X48157Y172471D01*
X48683Y171683D01*
X49471Y171157D01*
X50400Y170972D01*
X51329Y171157D01*
X52117Y171683D01*
X52643Y172471D01*
X52828Y173400D01*
X52643Y174329D01*
X52117Y175117D01*
X51329Y175643D01*
X50400Y175828D01*
D02*
G37*
G36*
X293000Y181603D02*
X292326Y181515D01*
X291698Y181255D01*
X291159Y180841D01*
X290745Y180302D01*
X290485Y179674D01*
X290397Y179000D01*
X290485Y178326D01*
X290745Y177698D01*
X291159Y177159D01*
X291698Y176745D01*
X292326Y176485D01*
X293000Y176397D01*
X293674Y176485D01*
X294302Y176745D01*
X294841Y177159D01*
X295255Y177698D01*
X295515Y178326D01*
X295603Y179000D01*
X295515Y179674D01*
X295255Y180302D01*
X294841Y180841D01*
X294302Y181255D01*
X293674Y181515D01*
X293000Y181603D01*
D02*
G37*
G36*
X80200Y103317D02*
X79271Y103133D01*
X78483Y102606D01*
X77957Y101819D01*
X77772Y100890D01*
X77957Y99961D01*
X78483Y99173D01*
X79271Y98647D01*
X80200Y98462D01*
X81129Y98647D01*
X81917Y99173D01*
X82443Y99961D01*
X82628Y100890D01*
X82443Y101819D01*
X81917Y102606D01*
X81129Y103133D01*
X80200Y103317D01*
D02*
G37*
G36*
X190436D02*
X189507Y103133D01*
X188719Y102606D01*
X188193Y101819D01*
X188008Y100890D01*
X188193Y99961D01*
X188719Y99173D01*
X189507Y98647D01*
X190436Y98462D01*
X191365Y98647D01*
X192153Y99173D01*
X192679Y99961D01*
X192864Y100890D01*
X192679Y101819D01*
X192153Y102606D01*
X191365Y103133D01*
X190436Y103317D01*
D02*
G37*
G36*
X54300Y103918D02*
X53371Y103733D01*
X52583Y103206D01*
X52057Y102419D01*
X51872Y101490D01*
X52057Y100561D01*
X52583Y99773D01*
X53371Y99247D01*
X54300Y99062D01*
X55229Y99247D01*
X56017Y99773D01*
X56543Y100561D01*
X56728Y101490D01*
X56543Y102419D01*
X56017Y103206D01*
X55229Y103733D01*
X54300Y103918D01*
D02*
G37*
G36*
X66200Y100028D02*
X65271Y99843D01*
X64483Y99317D01*
X63957Y98529D01*
X63772Y97600D01*
X63957Y96671D01*
X64483Y95883D01*
X65271Y95357D01*
X66200Y95172D01*
X67129Y95357D01*
X67917Y95883D01*
X68443Y96671D01*
X68628Y97600D01*
X68443Y98529D01*
X67917Y99317D01*
X67129Y99843D01*
X66200Y100028D01*
D02*
G37*
G36*
X15748Y123268D02*
X13709Y123108D01*
X11721Y122631D01*
X9832Y121848D01*
X8088Y120780D01*
X6533Y119451D01*
X5205Y117896D01*
X4136Y116153D01*
X3354Y114263D01*
X2876Y112275D01*
X2716Y110236D01*
X2876Y108197D01*
X3354Y106209D01*
X4136Y104320D01*
X5205Y102576D01*
X6533Y101021D01*
X8088Y99693D01*
X9832Y98624D01*
X11721Y97842D01*
X13709Y97364D01*
X15748Y97204D01*
X17787Y97364D01*
X19775Y97842D01*
X21665Y98624D01*
X23408Y99693D01*
X24963Y101021D01*
X26291Y102576D01*
X27360Y104320D01*
X28142Y106209D01*
X28620Y108197D01*
X28780Y110236D01*
X28620Y112275D01*
X28142Y114263D01*
X27360Y116153D01*
X26291Y117896D01*
X24963Y119451D01*
X23408Y120780D01*
X21665Y121848D01*
X19775Y122631D01*
X17787Y123108D01*
X15748Y123268D01*
D02*
G37*
G36*
X299213D02*
X297174Y123108D01*
X295185Y122631D01*
X293296Y121848D01*
X291552Y120780D01*
X289997Y119451D01*
X288669Y117896D01*
X287601Y116153D01*
X286818Y114263D01*
X286341Y112275D01*
X286180Y110236D01*
X286341Y108197D01*
X286818Y106209D01*
X287601Y104320D01*
X288669Y102576D01*
X289997Y101021D01*
X291552Y99693D01*
X293296Y98624D01*
X295185Y97842D01*
X297174Y97364D01*
X299213Y97204D01*
X301251Y97364D01*
X303240Y97842D01*
X305129Y98624D01*
X306873Y99693D01*
X308428Y101021D01*
X309756Y102576D01*
X310824Y104320D01*
X311607Y106209D01*
X312084Y108197D01*
X312245Y110236D01*
X312084Y112275D01*
X311607Y114263D01*
X310824Y116153D01*
X309756Y117896D01*
X308428Y119451D01*
X306873Y120780D01*
X305129Y121848D01*
X303240Y122631D01*
X301251Y123108D01*
X299213Y123268D01*
D02*
G37*
G36*
X187000Y167428D02*
X186071Y167243D01*
X185283Y166717D01*
X184757Y165929D01*
X184572Y165000D01*
X184757Y164071D01*
X185283Y163283D01*
X186071Y162757D01*
X187000Y162572D01*
X187929Y162757D01*
X188717Y163283D01*
X189243Y164071D01*
X189428Y165000D01*
X189243Y165929D01*
X188717Y166717D01*
X187929Y167243D01*
X187000Y167428D01*
D02*
G37*
G36*
X164000Y168328D02*
X163071Y168143D01*
X162283Y167617D01*
X161757Y166829D01*
X161572Y165900D01*
X161757Y164971D01*
X162283Y164183D01*
X163071Y163657D01*
X164000Y163472D01*
X164929Y163657D01*
X165717Y164183D01*
X166243Y164971D01*
X166428Y165900D01*
X166243Y166829D01*
X165717Y167617D01*
X164929Y168143D01*
X164000Y168328D01*
D02*
G37*
G36*
X55600Y170028D02*
X54671Y169843D01*
X53883Y169317D01*
X53357Y168529D01*
X53172Y167600D01*
X53357Y166671D01*
X53883Y165883D01*
X54671Y165357D01*
X55600Y165172D01*
X56529Y165357D01*
X57317Y165883D01*
X57843Y166671D01*
X58028Y167600D01*
X57843Y168529D01*
X57317Y169317D01*
X56529Y169843D01*
X55600Y170028D01*
D02*
G37*
G36*
X164536Y103918D02*
X163607Y103733D01*
X162820Y103206D01*
X162293Y102419D01*
X162109Y101490D01*
X162293Y100561D01*
X162820Y99773D01*
X163607Y99247D01*
X164536Y99062D01*
X165465Y99247D01*
X166253Y99773D01*
X166779Y100561D01*
X166964Y101490D01*
X166779Y102419D01*
X166253Y103206D01*
X165465Y103733D01*
X164536Y103918D01*
D02*
G37*
G36*
X292900Y142003D02*
X292226Y141915D01*
X291598Y141655D01*
X291059Y141241D01*
X290645Y140702D01*
X290385Y140074D01*
X290297Y139400D01*
X290385Y138726D01*
X290645Y138098D01*
X291059Y137559D01*
X291598Y137145D01*
X292226Y136885D01*
X292900Y136797D01*
X293574Y136885D01*
X294202Y137145D01*
X294741Y137559D01*
X295155Y138098D01*
X295415Y138726D01*
X295503Y139400D01*
X295415Y140074D01*
X295155Y140702D01*
X294741Y141241D01*
X294202Y141655D01*
X293574Y141915D01*
X292900Y142003D01*
D02*
G37*
G36*
X269000Y157603D02*
X268326Y157515D01*
X267698Y157255D01*
X267159Y156841D01*
X266745Y156302D01*
X266485Y155674D01*
X266397Y155000D01*
X266485Y154326D01*
X266745Y153698D01*
X267159Y153159D01*
X267698Y152745D01*
X268326Y152485D01*
X269000Y152397D01*
X269674Y152485D01*
X270302Y152745D01*
X270841Y153159D01*
X271255Y153698D01*
X271515Y154326D01*
X271603Y155000D01*
X271515Y155674D01*
X271255Y156302D01*
X270841Y156841D01*
X270302Y157255D01*
X269674Y157515D01*
X269000Y157603D01*
D02*
G37*
G36*
X293000Y217603D02*
X292326Y217515D01*
X291698Y217255D01*
X291159Y216841D01*
X290745Y216302D01*
X290485Y215674D01*
X290397Y215000D01*
X290485Y214326D01*
X290745Y213698D01*
X291159Y213159D01*
X291698Y212745D01*
X292326Y212485D01*
X293000Y212397D01*
X293674Y212485D01*
X294302Y212745D01*
X294841Y213159D01*
X295255Y213698D01*
X295515Y214326D01*
X295603Y215000D01*
X295515Y215674D01*
X295255Y216302D01*
X294841Y216841D01*
X294302Y217255D01*
X293674Y217515D01*
X293000Y217603D01*
D02*
G37*
G36*
X176436Y218138D02*
X175507Y217953D01*
X174720Y217427D01*
X174193Y216639D01*
X174009Y215710D01*
X174193Y214781D01*
X174720Y213994D01*
X175507Y213467D01*
X176436Y213282D01*
X177365Y213467D01*
X178153Y213994D01*
X178679Y214781D01*
X178864Y215710D01*
X178679Y216639D01*
X178153Y217427D01*
X177365Y217953D01*
X176436Y218138D01*
D02*
G37*
G36*
X66500Y218828D02*
X65571Y218643D01*
X64783Y218117D01*
X64257Y217329D01*
X64072Y216400D01*
X64257Y215471D01*
X64783Y214683D01*
X65571Y214157D01*
X66500Y213972D01*
X67429Y214157D01*
X68217Y214683D01*
X68743Y215471D01*
X68928Y216400D01*
X68743Y217329D01*
X68217Y218117D01*
X67429Y218643D01*
X66500Y218828D01*
D02*
G37*
G36*
X49900Y216128D02*
X48971Y215943D01*
X48183Y215417D01*
X47657Y214629D01*
X47472Y213700D01*
X47657Y212771D01*
X48183Y211983D01*
X48971Y211457D01*
X49900Y211272D01*
X50829Y211457D01*
X51617Y211983D01*
X52143Y212771D01*
X52328Y213700D01*
X52143Y214629D01*
X51617Y215417D01*
X50829Y215943D01*
X49900Y216128D01*
D02*
G37*
G36*
X74142Y216155D02*
X73213Y215970D01*
X72425Y215443D01*
X71899Y214656D01*
X71714Y213727D01*
X71899Y212798D01*
X72425Y212010D01*
X73213Y211484D01*
X74142Y211299D01*
X75071Y211484D01*
X75858Y212010D01*
X76385Y212798D01*
X76569Y213727D01*
X76385Y214656D01*
X75858Y215443D01*
X75071Y215970D01*
X74142Y216155D01*
D02*
G37*
G36*
X184378D02*
X183449Y215970D01*
X182661Y215443D01*
X182135Y214656D01*
X181950Y213727D01*
X182135Y212798D01*
X182661Y212010D01*
X183449Y211484D01*
X184378Y211299D01*
X185307Y211484D01*
X186095Y212010D01*
X186621Y212798D01*
X186806Y213727D01*
X186621Y214656D01*
X186095Y215443D01*
X185307Y215970D01*
X184378Y216155D01*
D02*
G37*
G36*
X54300Y222428D02*
X53371Y222243D01*
X52583Y221717D01*
X52057Y220929D01*
X51872Y220000D01*
X52057Y219071D01*
X52583Y218283D01*
X53371Y217757D01*
X54300Y217572D01*
X55229Y217757D01*
X56017Y218283D01*
X56543Y219071D01*
X56728Y220000D01*
X56543Y220929D01*
X56017Y221717D01*
X55229Y222243D01*
X54300Y222428D01*
D02*
G37*
G36*
X272000Y235603D02*
X271326Y235515D01*
X270698Y235255D01*
X270159Y234841D01*
X269745Y234302D01*
X269485Y233674D01*
X269397Y233000D01*
X269485Y232326D01*
X269745Y231698D01*
X270159Y231159D01*
X270698Y230745D01*
X271326Y230485D01*
X272000Y230397D01*
X272674Y230485D01*
X273302Y230745D01*
X273841Y231159D01*
X274255Y231698D01*
X274515Y232326D01*
X274603Y233000D01*
X274515Y233674D01*
X274255Y234302D01*
X273841Y234841D01*
X273302Y235255D01*
X272674Y235515D01*
X272000Y235603D01*
D02*
G37*
G36*
X108286Y235928D02*
X107357Y235743D01*
X106569Y235217D01*
X106043Y234429D01*
X105858Y233500D01*
X106043Y232571D01*
X106569Y231783D01*
X107357Y231257D01*
X108286Y231072D01*
X109215Y231257D01*
X110002Y231783D01*
X110529Y232571D01*
X110714Y233500D01*
X110529Y234429D01*
X110002Y235217D01*
X109215Y235743D01*
X108286Y235928D01*
D02*
G37*
G36*
X188400Y221328D02*
X187471Y221143D01*
X186683Y220617D01*
X186157Y219829D01*
X185972Y218900D01*
X186157Y217971D01*
X186683Y217183D01*
X187471Y216657D01*
X188400Y216472D01*
X189329Y216657D01*
X190117Y217183D01*
X190643Y217971D01*
X190828Y218900D01*
X190643Y219829D01*
X190117Y220617D01*
X189329Y221143D01*
X188400Y221328D01*
D02*
G37*
G36*
X80200Y221828D02*
X79271Y221643D01*
X78483Y221117D01*
X77957Y220329D01*
X77772Y219400D01*
X77957Y218471D01*
X78483Y217683D01*
X79271Y217157D01*
X80200Y216972D01*
X81129Y217157D01*
X81917Y217683D01*
X82443Y218471D01*
X82628Y219400D01*
X82443Y220329D01*
X81917Y221117D01*
X81129Y221643D01*
X80200Y221828D01*
D02*
G37*
G36*
X164536Y222028D02*
X163607Y221843D01*
X162820Y221317D01*
X162293Y220529D01*
X162109Y219600D01*
X162293Y218671D01*
X162820Y217883D01*
X163607Y217357D01*
X164536Y217172D01*
X165465Y217357D01*
X166253Y217883D01*
X166779Y218671D01*
X166964Y219600D01*
X166779Y220529D01*
X166253Y221317D01*
X165465Y221843D01*
X164536Y222028D01*
D02*
G37*
G36*
X264000Y194603D02*
X263326Y194515D01*
X262698Y194255D01*
X262159Y193841D01*
X261745Y193302D01*
X261485Y192674D01*
X261397Y192000D01*
X261485Y191326D01*
X261745Y190698D01*
X262159Y190159D01*
X262698Y189745D01*
X263326Y189485D01*
X264000Y189397D01*
X264674Y189485D01*
X265302Y189745D01*
X265841Y190159D01*
X266255Y190698D01*
X266515Y191326D01*
X266603Y192000D01*
X266515Y192674D01*
X266255Y193302D01*
X265841Y193841D01*
X265302Y194255D01*
X264674Y194515D01*
X264000Y194603D01*
D02*
G37*
G36*
X45929Y199291D02*
X45000Y199106D01*
X44212Y198580D01*
X43686Y197792D01*
X43501Y196863D01*
X43686Y195934D01*
X44212Y195147D01*
Y194930D01*
X43686Y194142D01*
X43501Y193213D01*
X43686Y192284D01*
X44212Y191497D01*
X45000Y190970D01*
X45929Y190786D01*
X46858Y190970D01*
X47646Y191497D01*
X48172Y192284D01*
X48357Y193213D01*
X48172Y194142D01*
X47646Y194930D01*
Y195147D01*
X48172Y195934D01*
X48357Y196863D01*
X48172Y197792D01*
X47646Y198580D01*
X46858Y199106D01*
X45929Y199291D01*
D02*
G37*
G36*
X197365Y201741D02*
X196436Y201556D01*
X195649Y201030D01*
X195122Y200242D01*
X194938Y199313D01*
X195122Y198384D01*
X195649Y197597D01*
X196436Y197070D01*
X197145Y196929D01*
X197423Y196514D01*
X197338Y196083D01*
X197522Y195155D01*
X198049Y194367D01*
X198836Y193841D01*
X199765Y193656D01*
X200694Y193841D01*
X201482Y194367D01*
X202008Y195155D01*
X202193Y196083D01*
X202008Y197013D01*
X201482Y197800D01*
X200694Y198327D01*
X199765Y198511D01*
X199655Y198621D01*
X199793Y199313D01*
X199608Y200242D01*
X199082Y201030D01*
X198294Y201556D01*
X197365Y201741D01*
D02*
G37*
G36*
X87129Y190341D02*
X86200Y190156D01*
X85413Y189630D01*
X84886Y188842D01*
X84701Y187913D01*
X84886Y186984D01*
X85413Y186197D01*
X86200Y185670D01*
X86629Y185585D01*
Y185085D01*
X85800Y184920D01*
X85013Y184394D01*
X84486Y183606D01*
X84301Y182677D01*
X84381Y182276D01*
X84028Y181922D01*
X84000Y181928D01*
X83071Y181743D01*
X82283Y181217D01*
X81757Y180429D01*
X81572Y179500D01*
X81757Y178571D01*
X82283Y177783D01*
X83071Y177257D01*
X84000Y177072D01*
X84929Y177257D01*
X85717Y177783D01*
X86243Y178571D01*
X86428Y179500D01*
X86348Y179901D01*
X86702Y180255D01*
X86729Y180249D01*
X87658Y180434D01*
X88446Y180961D01*
X88972Y181748D01*
X89157Y182677D01*
X88972Y183606D01*
X88446Y184394D01*
X87658Y184920D01*
X87229Y185005D01*
Y185505D01*
X88058Y185670D01*
X88846Y186197D01*
X89372Y186984D01*
X89557Y187913D01*
X89372Y188842D01*
X88846Y189630D01*
X88058Y190156D01*
X87129Y190341D01*
D02*
G37*
G36*
X95900Y188328D02*
X94971Y188143D01*
X94183Y187617D01*
X93657Y186829D01*
X93472Y185900D01*
X93657Y184971D01*
X94183Y184183D01*
X94971Y183657D01*
X95900Y183472D01*
X96829Y183657D01*
X97617Y184183D01*
X98143Y184971D01*
X98328Y185900D01*
X98143Y186829D01*
X97617Y187617D01*
X96829Y188143D01*
X95900Y188328D01*
D02*
G37*
G36*
X205787Y188428D02*
X204857Y188243D01*
X204070Y187717D01*
X203544Y186929D01*
X203359Y186000D01*
X203544Y185071D01*
X204070Y184283D01*
X204857Y183757D01*
X205787Y183572D01*
X206716Y183757D01*
X207503Y184283D01*
X208030Y185071D01*
X208214Y186000D01*
X208030Y186929D01*
X207503Y187717D01*
X206716Y188243D01*
X205787Y188428D01*
D02*
G37*
G36*
X39919Y199928D02*
X38990Y199743D01*
X38203Y199217D01*
X37677Y198429D01*
X37492Y197500D01*
X37677Y196571D01*
X38203Y195783D01*
X38990Y195257D01*
X39919Y195072D01*
X40848Y195257D01*
X41636Y195783D01*
X42162Y196571D01*
X42347Y197500D01*
X42162Y198429D01*
X41636Y199217D01*
X40848Y199743D01*
X39919Y199928D01*
D02*
G37*
G36*
X87129Y201741D02*
X86200Y201556D01*
X85413Y201030D01*
X84886Y200242D01*
X84701Y199313D01*
X84886Y198384D01*
X85413Y197597D01*
X86200Y197070D01*
X87129Y196886D01*
X88058Y197070D01*
X88846Y197597D01*
X89372Y198384D01*
X89557Y199313D01*
X89372Y200242D01*
X88846Y201030D01*
X88058Y201556D01*
X87129Y201741D01*
D02*
G37*
G36*
X160136Y215728D02*
X159207Y215543D01*
X158420Y215017D01*
X157893Y214229D01*
X157709Y213300D01*
X157893Y212371D01*
X158420Y211583D01*
X159207Y211057D01*
X160136Y210872D01*
X161065Y211057D01*
X161853Y211583D01*
X162379Y212371D01*
X162564Y213300D01*
X162379Y214229D01*
X161853Y215017D01*
X161065Y215543D01*
X160136Y215728D01*
D02*
G37*
G36*
X92000Y198528D02*
X91071Y198343D01*
X90283Y197817D01*
X89757Y197029D01*
X89572Y196100D01*
X89757Y195171D01*
X90283Y194383D01*
X91071Y193857D01*
X92000Y193672D01*
X92929Y193857D01*
X93717Y194383D01*
X94243Y195171D01*
X94428Y196100D01*
X94243Y197029D01*
X93717Y197817D01*
X92929Y198343D01*
X92000Y198528D01*
D02*
G37*
G36*
X155665Y199291D02*
X154736Y199106D01*
X153949Y198580D01*
X153422Y197792D01*
X153238Y196863D01*
X153422Y195934D01*
X153949Y195147D01*
X154736Y194620D01*
X155665Y194436D01*
X156594Y194620D01*
X157382Y195147D01*
X157908Y195934D01*
X158093Y196863D01*
X157908Y197792D01*
X157382Y198580D01*
X156594Y199106D01*
X155665Y199291D01*
D02*
G37*
G36*
X150175Y199393D02*
X149246Y199208D01*
X148458Y198682D01*
X147932Y197895D01*
X147747Y196966D01*
X147932Y196036D01*
X148458Y195249D01*
X149246Y194722D01*
X150175Y194538D01*
X151104Y194722D01*
X151891Y195249D01*
X152418Y196036D01*
X152603Y196966D01*
X152418Y197895D01*
X151891Y198682D01*
X151104Y199208D01*
X150175Y199393D01*
D02*
G37*
G36*
X176000Y99628D02*
X175071Y99443D01*
X174283Y98917D01*
X173757Y98129D01*
X173572Y97200D01*
X173757Y96271D01*
X174283Y95483D01*
X175071Y94957D01*
X176000Y94772D01*
X176929Y94957D01*
X177717Y95483D01*
X178243Y96271D01*
X178428Y97200D01*
X178243Y98129D01*
X177717Y98917D01*
X176929Y99443D01*
X176000Y99628D01*
D02*
G37*
G36*
X182677Y56331D02*
X181748Y56146D01*
X180961Y55620D01*
X180434Y54832D01*
X180249Y53903D01*
X180434Y52974D01*
X180961Y52187D01*
X181748Y51660D01*
X182677Y51475D01*
X183606Y51660D01*
X184394Y52187D01*
X184920Y52974D01*
X185105Y53903D01*
X184920Y54832D01*
X184394Y55620D01*
X183606Y56146D01*
X182677Y56331D01*
D02*
G37*
G36*
X50400Y57318D02*
X49471Y57133D01*
X48683Y56606D01*
X48157Y55819D01*
X47972Y54890D01*
X48157Y53961D01*
X48683Y53173D01*
X49471Y52647D01*
X50400Y52462D01*
X51329Y52647D01*
X52117Y53173D01*
X52643Y53961D01*
X52828Y54890D01*
X52643Y55819D01*
X52117Y56606D01*
X51329Y57133D01*
X50400Y57318D01*
D02*
G37*
G36*
X160636D02*
X159707Y57133D01*
X158920Y56606D01*
X158393Y55819D01*
X158209Y54890D01*
X158393Y53961D01*
X158920Y53173D01*
X159707Y52647D01*
X160636Y52462D01*
X161565Y52647D01*
X162353Y53173D01*
X162879Y53961D01*
X163064Y54890D01*
X162879Y55819D01*
X162353Y56606D01*
X161565Y57133D01*
X160636Y57318D01*
D02*
G37*
G36*
X66100Y53928D02*
X65171Y53743D01*
X64383Y53217D01*
X63857Y52429D01*
X63672Y51500D01*
X63857Y50571D01*
X64383Y49783D01*
X65171Y49257D01*
X66100Y49072D01*
X67029Y49257D01*
X67817Y49783D01*
X68343Y50571D01*
X68528Y51500D01*
X68343Y52429D01*
X67817Y53217D01*
X67029Y53743D01*
X66100Y53928D01*
D02*
G37*
G36*
X175900Y54428D02*
X174971Y54243D01*
X174183Y53717D01*
X173657Y52929D01*
X173472Y52000D01*
X173657Y51071D01*
X174183Y50283D01*
X174971Y49757D01*
X175900Y49572D01*
X176829Y49757D01*
X177617Y50283D01*
X178143Y51071D01*
X178328Y52000D01*
X178143Y52929D01*
X177617Y53717D01*
X176829Y54243D01*
X175900Y54428D01*
D02*
G37*
G36*
X72441Y56331D02*
X71512Y56146D01*
X70724Y55620D01*
X70198Y54832D01*
X70013Y53903D01*
X70198Y52974D01*
X70724Y52187D01*
X71512Y51660D01*
X72441Y51475D01*
X73370Y51660D01*
X74158Y52187D01*
X74684Y52974D01*
X74869Y53903D01*
X74684Y54832D01*
X74158Y55620D01*
X73370Y56146D01*
X72441Y56331D01*
D02*
G37*
G36*
X269800Y63428D02*
X268871Y63243D01*
X268083Y62717D01*
X267557Y61929D01*
X267372Y61000D01*
X267557Y60071D01*
X268083Y59283D01*
X268871Y58757D01*
X269800Y58572D01*
X270729Y58757D01*
X271517Y59283D01*
X272043Y60071D01*
X272228Y61000D01*
X272043Y61929D01*
X271517Y62717D01*
X270729Y63243D01*
X269800Y63428D01*
D02*
G37*
G36*
X104700Y64028D02*
X103771Y63843D01*
X102983Y63317D01*
X102457Y62529D01*
X102272Y61600D01*
X102457Y60671D01*
X102983Y59883D01*
X103771Y59357D01*
X104700Y59172D01*
X105629Y59357D01*
X106417Y59883D01*
X106943Y60671D01*
X107128Y61600D01*
X106943Y62529D01*
X106417Y63317D01*
X105629Y63843D01*
X104700Y64028D01*
D02*
G37*
G36*
X214600Y64128D02*
X213671Y63943D01*
X212883Y63417D01*
X212357Y62629D01*
X212172Y61700D01*
X212357Y60771D01*
X212883Y59983D01*
X213671Y59457D01*
X214600Y59272D01*
X215529Y59457D01*
X216317Y59983D01*
X216843Y60771D01*
X217028Y61700D01*
X216843Y62629D01*
X216317Y63417D01*
X215529Y63943D01*
X214600Y64128D01*
D02*
G37*
G36*
X199000Y59103D02*
X198326Y59015D01*
X197698Y58755D01*
X197159Y58341D01*
X196745Y57802D01*
X196485Y57174D01*
X196397Y56500D01*
X196485Y55826D01*
X196745Y55198D01*
X197159Y54659D01*
X197698Y54245D01*
X198326Y53985D01*
X199000Y53897D01*
X199674Y53985D01*
X200302Y54245D01*
X200841Y54659D01*
X201255Y55198D01*
X201515Y55826D01*
X201603Y56500D01*
X201515Y57174D01*
X201255Y57802D01*
X200841Y58341D01*
X200302Y58755D01*
X199674Y59015D01*
X199000Y59103D01*
D02*
G37*
G36*
X260400Y59028D02*
X259471Y58843D01*
X258683Y58317D01*
X258157Y57529D01*
X257972Y56600D01*
X258157Y55671D01*
X258683Y54883D01*
X259471Y54357D01*
X260400Y54172D01*
X261329Y54357D01*
X262117Y54883D01*
X262643Y55671D01*
X262828Y56600D01*
X262643Y57529D01*
X262117Y58317D01*
X261329Y58843D01*
X260400Y59028D01*
D02*
G37*
G36*
X84519Y60123D02*
X83846Y60034D01*
X83218Y59774D01*
X82679Y59360D01*
X82265Y58821D01*
X82005Y58193D01*
X81916Y57519D01*
X82005Y56846D01*
X82265Y56218D01*
X82679Y55678D01*
X83218Y55265D01*
X83846Y55005D01*
X84519Y54916D01*
X85193Y55005D01*
X85821Y55265D01*
X86360Y55678D01*
X86774Y56218D01*
X87034Y56846D01*
X87123Y57519D01*
X87034Y58193D01*
X86774Y58821D01*
X86360Y59360D01*
X85821Y59774D01*
X85193Y60034D01*
X84519Y60123D01*
D02*
G37*
G36*
X89000Y19032D02*
X88326Y18944D01*
X87698Y18684D01*
X87159Y18270D01*
X86745Y17731D01*
X86485Y17103D01*
X86397Y16429D01*
X86485Y15755D01*
X86745Y15127D01*
X87159Y14588D01*
X87698Y14174D01*
X88326Y13914D01*
X89000Y13826D01*
X89674Y13914D01*
X90302Y14174D01*
X90841Y14588D01*
X91255Y15127D01*
X91515Y15755D01*
X91603Y16429D01*
X91515Y17103D01*
X91255Y17731D01*
X90841Y18270D01*
X90302Y18684D01*
X89674Y18944D01*
X89000Y19032D01*
D02*
G37*
G36*
X96571D02*
X95897Y18944D01*
X95269Y18684D01*
X94730Y18270D01*
X94317Y17731D01*
X94056Y17103D01*
X93968Y16429D01*
X94056Y15755D01*
X94317Y15127D01*
X94730Y14588D01*
X95269Y14174D01*
X95897Y13914D01*
X96571Y13826D01*
X97245Y13914D01*
X97873Y14174D01*
X98412Y14588D01*
X98826Y15127D01*
X99086Y15755D01*
X99174Y16429D01*
X99086Y17103D01*
X98826Y17731D01*
X98412Y18270D01*
X97873Y18684D01*
X97245Y18944D01*
X96571Y19032D01*
D02*
G37*
G36*
X153500Y19103D02*
X152826Y19015D01*
X152198Y18755D01*
X151659Y18341D01*
X151245Y17802D01*
X150985Y17174D01*
X150897Y16500D01*
X150985Y15826D01*
X151245Y15198D01*
X151659Y14659D01*
X152198Y14245D01*
X152826Y13985D01*
X153500Y13897D01*
X154174Y13985D01*
X154802Y14245D01*
X155341Y14659D01*
X155755Y15198D01*
X156015Y15826D01*
X156103Y16500D01*
X156015Y17174D01*
X155755Y17802D01*
X155341Y18341D01*
X154802Y18755D01*
X154174Y19015D01*
X153500Y19103D01*
D02*
G37*
G36*
Y8103D02*
X152826Y8015D01*
X152198Y7755D01*
X151659Y7341D01*
X151245Y6802D01*
X150985Y6174D01*
X150897Y5500D01*
X150985Y4826D01*
X151245Y4198D01*
X151659Y3659D01*
X152198Y3245D01*
X152826Y2985D01*
X153500Y2897D01*
X154174Y2985D01*
X154802Y3245D01*
X155341Y3659D01*
X155755Y4198D01*
X156015Y4826D01*
X156103Y5500D01*
X156015Y6174D01*
X155755Y6802D01*
X155341Y7341D01*
X154802Y7755D01*
X154174Y8015D01*
X153500Y8103D01*
D02*
G37*
G36*
X253223Y18536D02*
X252478Y18438D01*
X251783Y18150D01*
X251187Y17692D01*
X250730Y17096D01*
X250442Y16402D01*
X250344Y15657D01*
X250442Y14912D01*
X250730Y14217D01*
X251187Y13621D01*
X251783Y13163D01*
X252478Y12876D01*
X253223Y12778D01*
X253968Y12876D01*
X254662Y13163D01*
X255259Y13621D01*
X255716Y14217D01*
X256004Y14912D01*
X256102Y15657D01*
X256004Y16402D01*
X255716Y17096D01*
X255259Y17692D01*
X254662Y18150D01*
X253968Y18438D01*
X253223Y18536D01*
D02*
G37*
G36*
X268577D02*
X267832Y18438D01*
X267138Y18150D01*
X266541Y17692D01*
X266084Y17096D01*
X265796Y16402D01*
X265698Y15657D01*
X265796Y14912D01*
X266084Y14217D01*
X266541Y13621D01*
X267138Y13163D01*
X267832Y12876D01*
X268577Y12778D01*
X269322Y12876D01*
X270017Y13163D01*
X270613Y13621D01*
X271070Y14217D01*
X271358Y14912D01*
X271456Y15657D01*
X271358Y16402D01*
X271070Y17096D01*
X270613Y17692D01*
X270017Y18150D01*
X269322Y18438D01*
X268577Y18536D01*
D02*
G37*
G36*
X165836Y51517D02*
X164907Y51333D01*
X164120Y50806D01*
X163593Y50019D01*
X163409Y49090D01*
X163593Y48161D01*
X164120Y47373D01*
X164907Y46847D01*
X165836Y46662D01*
X166765Y46847D01*
X167553Y47373D01*
X168079Y48161D01*
X168264Y49090D01*
X168079Y50019D01*
X167553Y50806D01*
X166765Y51333D01*
X165836Y51517D01*
D02*
G37*
G36*
X80500Y51818D02*
X79571Y51633D01*
X78783Y51106D01*
X78257Y50319D01*
X78072Y49390D01*
X78257Y48461D01*
X78783Y47673D01*
X79571Y47147D01*
X80500Y46962D01*
X81429Y47147D01*
X82217Y47673D01*
X82743Y48461D01*
X82928Y49390D01*
X82743Y50319D01*
X82217Y51106D01*
X81429Y51633D01*
X80500Y51818D01*
D02*
G37*
G36*
X190736D02*
X189807Y51633D01*
X189020Y51106D01*
X188493Y50319D01*
X188309Y49390D01*
X188493Y48461D01*
X189020Y47673D01*
X189807Y47147D01*
X190736Y46962D01*
X191665Y47147D01*
X192453Y47673D01*
X192979Y48461D01*
X193164Y49390D01*
X192979Y50319D01*
X192453Y51106D01*
X191665Y51633D01*
X190736Y51818D01*
D02*
G37*
G36*
X255782Y43428D02*
X254853Y43243D01*
X254065Y42717D01*
X253539Y41929D01*
X253354Y41000D01*
X253539Y40071D01*
X254065Y39283D01*
X254853Y38757D01*
X255782Y38572D01*
X256711Y38757D01*
X257499Y39283D01*
X258025Y40071D01*
X258210Y41000D01*
X258025Y41929D01*
X257499Y42717D01*
X256711Y43243D01*
X255782Y43428D01*
D02*
G37*
G36*
X293504Y50197D02*
X285236D01*
Y41929D01*
X293504D01*
Y50197D01*
D02*
G37*
G36*
X55600Y51517D02*
X54671Y51333D01*
X53883Y50806D01*
X53357Y50019D01*
X53172Y49090D01*
X53357Y48161D01*
X53883Y47373D01*
X54671Y46847D01*
X55600Y46662D01*
X56529Y46847D01*
X57317Y47373D01*
X57843Y48161D01*
X58028Y49090D01*
X57843Y50019D01*
X57317Y50806D01*
X56529Y51333D01*
X55600Y51517D01*
D02*
G37*
G36*
X87129Y83631D02*
X86200Y83446D01*
X85413Y82920D01*
X84886Y82132D01*
X84701Y81203D01*
X84886Y80274D01*
X85413Y79487D01*
X86200Y78960D01*
X87129Y78775D01*
X88058Y78960D01*
X88846Y79487D01*
X89372Y80274D01*
X89557Y81203D01*
X89372Y82132D01*
X88846Y82920D01*
X88058Y83446D01*
X87129Y83631D01*
D02*
G37*
G36*
X197365D02*
X196436Y83446D01*
X195649Y82920D01*
X195122Y82132D01*
X194938Y81203D01*
X195122Y80274D01*
X195649Y79487D01*
X196436Y78960D01*
X197365Y78775D01*
X198294Y78960D01*
X199082Y79487D01*
X199608Y80274D01*
X199793Y81203D01*
X199608Y82132D01*
X199082Y82920D01*
X198294Y83446D01*
X197365Y83631D01*
D02*
G37*
G36*
X284000Y85928D02*
X283071Y85743D01*
X282283Y85217D01*
X281757Y84429D01*
X281572Y83500D01*
X281757Y82571D01*
X282283Y81783D01*
X283071Y81257D01*
X284000Y81072D01*
X284929Y81257D01*
X285717Y81783D01*
X286243Y82571D01*
X286428Y83500D01*
X286243Y84429D01*
X285717Y85217D01*
X284929Y85743D01*
X284000Y85928D01*
D02*
G37*
G36*
X202500Y80428D02*
X201571Y80243D01*
X200783Y79717D01*
X200257Y78929D01*
X200072Y78000D01*
X200257Y77071D01*
X200783Y76283D01*
X201571Y75757D01*
X202500Y75572D01*
X203429Y75757D01*
X204217Y76283D01*
X204743Y77071D01*
X204928Y78000D01*
X204743Y78929D01*
X204217Y79717D01*
X203429Y80243D01*
X202500Y80428D01*
D02*
G37*
G36*
X39919Y82047D02*
X38990Y81862D01*
X38203Y81336D01*
X37677Y80549D01*
X37492Y79619D01*
X37677Y78690D01*
X38203Y77903D01*
X38990Y77377D01*
X39919Y77192D01*
X40848Y77377D01*
X41636Y77903D01*
X42162Y78690D01*
X42347Y79619D01*
X42162Y80549D01*
X41636Y81336D01*
X40848Y81862D01*
X39919Y82047D01*
D02*
G37*
G36*
X150175Y82103D02*
X149246Y81918D01*
X148458Y81391D01*
X147932Y80604D01*
X147747Y79675D01*
X147932Y78746D01*
X148458Y77958D01*
X149246Y77432D01*
X150175Y77247D01*
X151104Y77432D01*
X151891Y77958D01*
X152418Y78746D01*
X152603Y79675D01*
X152418Y80604D01*
X151891Y81391D01*
X151104Y81918D01*
X150175Y82103D01*
D02*
G37*
G36*
X160136Y97618D02*
X159207Y97433D01*
X158420Y96906D01*
X157893Y96119D01*
X157709Y95190D01*
X157893Y94261D01*
X158420Y93473D01*
X159207Y92947D01*
X160136Y92762D01*
X161065Y92947D01*
X161853Y93473D01*
X162379Y94261D01*
X162564Y95190D01*
X162379Y96119D01*
X161853Y96906D01*
X161065Y97433D01*
X160136Y97618D01*
D02*
G37*
G36*
X74142Y98044D02*
X73213Y97860D01*
X72425Y97333D01*
X71899Y96546D01*
X71714Y95617D01*
X71899Y94687D01*
X72425Y93900D01*
X73213Y93374D01*
X74142Y93189D01*
X75071Y93374D01*
X75858Y93900D01*
X76385Y94687D01*
X76569Y95617D01*
X76385Y96546D01*
X75858Y97333D01*
X75071Y97860D01*
X74142Y98044D01*
D02*
G37*
G36*
X184378D02*
X183449Y97860D01*
X182661Y97333D01*
X182135Y96546D01*
X181950Y95617D01*
X182135Y94687D01*
X182661Y93900D01*
X183449Y93374D01*
X184378Y93189D01*
X185307Y93374D01*
X186095Y93900D01*
X186621Y94687D01*
X186806Y95617D01*
X186621Y96546D01*
X186095Y97333D01*
X185307Y97860D01*
X184378Y98044D01*
D02*
G37*
G36*
X246300Y94428D02*
X245371Y94243D01*
X244583Y93717D01*
X244057Y92929D01*
X243872Y92000D01*
X244057Y91071D01*
X244583Y90283D01*
X245371Y89757D01*
X246300Y89572D01*
X247229Y89757D01*
X248017Y90283D01*
X248543Y91071D01*
X248728Y92000D01*
X248543Y92929D01*
X248017Y93717D01*
X247229Y94243D01*
X246300Y94428D01*
D02*
G37*
G36*
X283500Y96028D02*
X282571Y95843D01*
X281783Y95317D01*
X281257Y94529D01*
X281072Y93600D01*
X281257Y92671D01*
X281783Y91883D01*
X282571Y91357D01*
X283500Y91172D01*
X284429Y91357D01*
X285217Y91883D01*
X285743Y92671D01*
X285928Y93600D01*
X285743Y94529D01*
X285217Y95317D01*
X284429Y95843D01*
X283500Y96028D01*
D02*
G37*
G36*
X49900Y97618D02*
X48971Y97433D01*
X48183Y96906D01*
X47657Y96119D01*
X47472Y95190D01*
X47657Y94261D01*
X48183Y93473D01*
X48971Y92947D01*
X49900Y92762D01*
X50829Y92947D01*
X51617Y93473D01*
X52143Y94261D01*
X52328Y95190D01*
X52143Y96119D01*
X51617Y96906D01*
X50829Y97433D01*
X49900Y97618D01*
D02*
G37*
G36*
X269800Y69828D02*
X268871Y69643D01*
X268083Y69117D01*
X267557Y68329D01*
X267372Y67400D01*
X267557Y66471D01*
X268083Y65683D01*
X268871Y65157D01*
X269800Y64972D01*
X270729Y65157D01*
X271517Y65683D01*
X272043Y66471D01*
X272228Y67400D01*
X272043Y68329D01*
X271517Y69117D01*
X270729Y69643D01*
X269800Y69828D01*
D02*
G37*
G36*
X95529Y70428D02*
X94600Y70243D01*
X93812Y69717D01*
X93286Y68929D01*
X93101Y68000D01*
X93286Y67071D01*
X93812Y66283D01*
X94600Y65757D01*
X95529Y65572D01*
X96458Y65757D01*
X97246Y66283D01*
X97772Y67071D01*
X97957Y68000D01*
X97772Y68929D01*
X97246Y69717D01*
X96458Y70243D01*
X95529Y70428D01*
D02*
G37*
G36*
X205765D02*
X204836Y70243D01*
X204049Y69717D01*
X203522Y68929D01*
X203338Y68000D01*
X203522Y67071D01*
X204049Y66283D01*
X204836Y65757D01*
X205765Y65572D01*
X206694Y65757D01*
X207482Y66283D01*
X208008Y67071D01*
X208193Y68000D01*
X208008Y68929D01*
X207482Y69717D01*
X206694Y70243D01*
X205765Y70428D01*
D02*
G37*
G36*
X86229Y66995D02*
X85300Y66810D01*
X84513Y66284D01*
X83986Y65496D01*
X83801Y64567D01*
X83986Y63638D01*
X84513Y62850D01*
X85300Y62324D01*
X86229Y62139D01*
X87158Y62324D01*
X87946Y62850D01*
X88472Y63638D01*
X88657Y64567D01*
X88472Y65496D01*
X87946Y66284D01*
X87158Y66810D01*
X86229Y66995D01*
D02*
G37*
G36*
X197365Y72231D02*
X196436Y72046D01*
X195649Y71520D01*
X195122Y70732D01*
X194938Y69803D01*
X195122Y68874D01*
X195649Y68086D01*
X196436Y67560D01*
X196865Y67475D01*
Y66975D01*
X196036Y66810D01*
X195249Y66284D01*
X194722Y65496D01*
X194538Y64567D01*
X194722Y63638D01*
X195249Y62850D01*
X196036Y62324D01*
X196965Y62139D01*
X197894Y62324D01*
X198682Y62850D01*
X199208Y63638D01*
X199393Y64567D01*
X199208Y65496D01*
X198682Y66284D01*
X197894Y66810D01*
X197465Y66895D01*
Y67395D01*
X198294Y67560D01*
X199082Y68086D01*
X199608Y68874D01*
X199793Y69803D01*
X199608Y70732D01*
X199082Y71520D01*
X198294Y72046D01*
X197365Y72231D01*
D02*
G37*
G36*
X275600Y69228D02*
X274671Y69043D01*
X273883Y68517D01*
X273357Y67729D01*
X273172Y66800D01*
X273357Y65871D01*
X273883Y65083D01*
X274671Y64557D01*
X275600Y64372D01*
X276529Y64557D01*
X277317Y65083D01*
X277843Y65871D01*
X278028Y66800D01*
X277843Y67729D01*
X277317Y68517D01*
X276529Y69043D01*
X275600Y69228D01*
D02*
G37*
G36*
X156165Y81181D02*
X155236Y80996D01*
X154449Y80470D01*
X153922Y79682D01*
X153738Y78753D01*
X153922Y77824D01*
X154449Y77036D01*
Y76820D01*
X153922Y76032D01*
X153738Y75103D01*
X153922Y74174D01*
X154449Y73387D01*
X155236Y72860D01*
X156165Y72675D01*
X157094Y72860D01*
X157882Y73387D01*
X158408Y74174D01*
X158593Y75103D01*
X158408Y76032D01*
X157882Y76820D01*
Y77036D01*
X158408Y77824D01*
X158593Y78753D01*
X158408Y79682D01*
X157882Y80470D01*
X157094Y80996D01*
X156165Y81181D01*
D02*
G37*
G36*
X246400Y79428D02*
X245471Y79243D01*
X244683Y78717D01*
X244157Y77929D01*
X243972Y77000D01*
X244157Y76071D01*
X244683Y75283D01*
X245471Y74757D01*
X246400Y74572D01*
X247329Y74757D01*
X248117Y75283D01*
X248643Y76071D01*
X248828Y77000D01*
X248643Y77929D01*
X248117Y78717D01*
X247329Y79243D01*
X246400Y79428D01*
D02*
G37*
G36*
X92000Y80428D02*
X91071Y80243D01*
X90283Y79717D01*
X89757Y78929D01*
X89572Y78000D01*
X89757Y77071D01*
X90283Y76283D01*
X91071Y75757D01*
X92000Y75572D01*
X92929Y75757D01*
X93717Y76283D01*
X94243Y77071D01*
X94428Y78000D01*
X94243Y78929D01*
X93717Y79717D01*
X92929Y80243D01*
X92000Y80428D01*
D02*
G37*
G36*
X87129Y72231D02*
X86200Y72046D01*
X85413Y71520D01*
X84886Y70732D01*
X84701Y69803D01*
X84886Y68874D01*
X85413Y68086D01*
X86200Y67560D01*
X87129Y67375D01*
X88058Y67560D01*
X88846Y68086D01*
X89372Y68874D01*
X89557Y69803D01*
X89372Y70732D01*
X88846Y71520D01*
X88058Y72046D01*
X87129Y72231D01*
D02*
G37*
G36*
X281200Y74728D02*
X280271Y74543D01*
X279483Y74017D01*
X278957Y73229D01*
X278772Y72300D01*
X278957Y71371D01*
X279483Y70583D01*
X280271Y70057D01*
X281200Y69872D01*
X282129Y70057D01*
X282917Y70583D01*
X283443Y71371D01*
X283628Y72300D01*
X283443Y73229D01*
X282917Y74017D01*
X282129Y74543D01*
X281200Y74728D01*
D02*
G37*
G36*
X45929Y81181D02*
X45000Y80996D01*
X44212Y80470D01*
X43686Y79682D01*
X43501Y78753D01*
X43686Y77824D01*
X44212Y77036D01*
Y76820D01*
X43686Y76032D01*
X43501Y75103D01*
X43686Y74174D01*
X44212Y73387D01*
X45000Y72860D01*
X45929Y72675D01*
X46858Y72860D01*
X47646Y73387D01*
X48172Y74174D01*
X48357Y75103D01*
X48172Y76032D01*
X47646Y76820D01*
Y77036D01*
X48172Y77824D01*
X48357Y78753D01*
X48172Y79682D01*
X47646Y80470D01*
X46858Y80996D01*
X45929Y81181D01*
D02*
G37*
G36*
X124609Y235928D02*
X123679Y235743D01*
X122892Y235217D01*
X122366Y234429D01*
X122181Y233500D01*
X122366Y232571D01*
X122892Y231783D01*
X123679Y231257D01*
X124609Y231072D01*
X125538Y231257D01*
X126325Y231783D01*
X126851Y232571D01*
X127036Y233500D01*
X126851Y234429D01*
X126325Y235217D01*
X125538Y235743D01*
X124609Y235928D01*
D02*
G37*
G36*
X220761Y407961D02*
X219910Y407792D01*
X219188Y407309D01*
X218706Y406588D01*
X218537Y405737D01*
X218706Y404886D01*
X218806Y404737D01*
X218706Y404588D01*
X218537Y403737D01*
X218706Y402886D01*
X219188Y402165D01*
X219910Y401683D01*
X220761Y401513D01*
X221612Y401683D01*
X222333Y402165D01*
X222815Y402886D01*
X222985Y403737D01*
X222815Y404588D01*
X222716Y404737D01*
X222815Y404886D01*
X222985Y405737D01*
X222815Y406588D01*
X222333Y407309D01*
X221612Y407792D01*
X220761Y407961D01*
D02*
G37*
G36*
X258261Y401961D02*
X257410Y401792D01*
X257069Y401564D01*
X256805Y401740D01*
X255954Y401910D01*
X255102Y401740D01*
X254381Y401258D01*
X253899Y400537D01*
X253730Y399686D01*
X253899Y398835D01*
X254381Y398113D01*
X255102Y397631D01*
X255954Y397462D01*
X256805Y397631D01*
X257145Y397859D01*
X257410Y397682D01*
X258261Y397513D01*
X259112Y397682D01*
X259833Y398165D01*
X260315Y398886D01*
X260485Y399737D01*
X260315Y400588D01*
X259833Y401309D01*
X259112Y401792D01*
X258261Y401961D01*
D02*
G37*
G36*
X65900Y408828D02*
X64971Y408643D01*
X64183Y408117D01*
X63657Y407329D01*
X63472Y406400D01*
X63657Y405471D01*
X64183Y404683D01*
X64971Y404157D01*
X65900Y403972D01*
X66829Y404157D01*
X67617Y404683D01*
X68143Y405471D01*
X68328Y406400D01*
X68143Y407329D01*
X67617Y408117D01*
X66829Y408643D01*
X65900Y408828D01*
D02*
G37*
G36*
X226954Y404461D02*
X226102Y404292D01*
X225381Y403809D01*
X224899Y403088D01*
X224730Y402237D01*
X224744Y402163D01*
X224728Y402139D01*
X224051Y401859D01*
X223470Y401413D01*
X223024Y400833D01*
X222744Y400156D01*
X222648Y399430D01*
X222744Y398704D01*
X223024Y398027D01*
X223470Y397446D01*
X224051Y397001D01*
X224728Y396720D01*
X225453Y396625D01*
X226180Y396720D01*
X226856Y397001D01*
X227437Y397446D01*
X227883Y398027D01*
X228163Y398704D01*
X228259Y399430D01*
X228163Y400156D01*
X228077Y400364D01*
X228526Y400665D01*
X229008Y401386D01*
X229177Y402237D01*
X229008Y403088D01*
X228526Y403809D01*
X227805Y404292D01*
X226954Y404461D01*
D02*
G37*
G36*
X55529Y405899D02*
X54600Y405715D01*
X53812Y405188D01*
X53286Y404401D01*
X53101Y403472D01*
X53286Y402543D01*
X53812Y401755D01*
X54600Y401229D01*
X55529Y401044D01*
X56458Y401229D01*
X57246Y401755D01*
X57772Y402543D01*
X57957Y403472D01*
X57772Y404401D01*
X57246Y405188D01*
X56458Y405715D01*
X55529Y405899D01*
D02*
G37*
G36*
X80429Y406199D02*
X79500Y406015D01*
X78712Y405488D01*
X78186Y404701D01*
X78001Y403772D01*
X78186Y402843D01*
X78712Y402055D01*
X79500Y401529D01*
X80429Y401344D01*
X81358Y401529D01*
X82146Y402055D01*
X82672Y402843D01*
X82857Y403772D01*
X82672Y404701D01*
X82146Y405488D01*
X81358Y406015D01*
X80429Y406199D01*
D02*
G37*
G36*
X104761Y418490D02*
X103832Y418305D01*
X103044Y417778D01*
X102518Y416991D01*
X102333Y416062D01*
X102518Y415133D01*
X103044Y414345D01*
X103832Y413819D01*
X104761Y413634D01*
X105690Y413819D01*
X106477Y414345D01*
X107004Y415133D01*
X107188Y416062D01*
X107004Y416991D01*
X106477Y417778D01*
X105690Y418305D01*
X104761Y418490D01*
D02*
G37*
G36*
X221761Y415042D02*
X221035Y414947D01*
X220358Y414666D01*
X220011Y414400D01*
X219663Y414666D01*
X218987Y414947D01*
X218261Y415042D01*
X217535Y414947D01*
X216858Y414666D01*
X216277Y414221D01*
X215831Y413640D01*
X215551Y412963D01*
X215456Y412237D01*
X215551Y411511D01*
X215831Y410835D01*
X216277Y410253D01*
X216858Y409808D01*
X217535Y409527D01*
X218261Y409432D01*
X218987Y409527D01*
X219663Y409808D01*
X220011Y410074D01*
X220358Y409808D01*
X221035Y409527D01*
X221761Y409432D01*
X222487Y409527D01*
X223163Y409808D01*
X223744Y410253D01*
X224190Y410835D01*
X224470Y411511D01*
X224566Y412237D01*
X224470Y412963D01*
X224190Y413640D01*
X223744Y414221D01*
X223163Y414666D01*
X222487Y414947D01*
X221761Y415042D01*
D02*
G37*
G36*
X87129Y426562D02*
X86200Y426377D01*
X85413Y425850D01*
X84886Y425063D01*
X84701Y424134D01*
X84886Y423205D01*
X85413Y422417D01*
X86200Y421891D01*
X86629Y421805D01*
Y421306D01*
X85800Y421141D01*
X85013Y420614D01*
X84486Y419827D01*
X84301Y418898D01*
X84486Y417969D01*
X85013Y417181D01*
X85800Y416655D01*
X86729Y416470D01*
X87658Y416655D01*
X88446Y417181D01*
X88972Y417969D01*
X89157Y418898D01*
X88972Y419827D01*
X88446Y420614D01*
X87658Y421141D01*
X87229Y421226D01*
Y421726D01*
X88058Y421891D01*
X88846Y422417D01*
X89372Y423205D01*
X89557Y424134D01*
X89372Y425063D01*
X88846Y425850D01*
X88058Y426377D01*
X87129Y426562D01*
D02*
G37*
G36*
X72441Y410662D02*
X71512Y410477D01*
X70724Y409950D01*
X70198Y409163D01*
X70013Y408234D01*
X70198Y407305D01*
X70724Y406517D01*
X71512Y405991D01*
X72441Y405806D01*
X73370Y405991D01*
X74158Y406517D01*
X74684Y407305D01*
X74869Y408234D01*
X74684Y409163D01*
X74158Y409950D01*
X73370Y410477D01*
X72441Y410662D01*
D02*
G37*
G36*
X50329Y411699D02*
X49400Y411515D01*
X48612Y410988D01*
X48086Y410201D01*
X47901Y409272D01*
X48086Y408343D01*
X48612Y407555D01*
X49400Y407029D01*
X50329Y406844D01*
X51258Y407029D01*
X52046Y407555D01*
X52572Y408343D01*
X52757Y409272D01*
X52572Y410201D01*
X52046Y410988D01*
X51258Y411515D01*
X50329Y411699D01*
D02*
G37*
G36*
X198261Y418042D02*
X197535Y417946D01*
X196858Y417666D01*
X196277Y417220D01*
X195831Y416640D01*
X195551Y415963D01*
X195456Y415237D01*
X195551Y414511D01*
X195831Y413834D01*
X196098Y413487D01*
X195831Y413140D01*
X195551Y412463D01*
X195456Y411737D01*
X195551Y411011D01*
X195831Y410334D01*
X196277Y409754D01*
X196858Y409308D01*
X197535Y409027D01*
X198261Y408932D01*
X198987Y409027D01*
X199663Y409308D01*
X200244Y409754D01*
X200690Y410334D01*
X200970Y411011D01*
X201066Y411737D01*
X200970Y412463D01*
X200690Y413140D01*
X200423Y413487D01*
X200690Y413834D01*
X200970Y414511D01*
X201066Y415237D01*
X200970Y415963D01*
X200690Y416640D01*
X200244Y417220D01*
X199663Y417666D01*
X198987Y417946D01*
X198261Y418042D01*
D02*
G37*
G36*
X66800Y336128D02*
X65871Y335943D01*
X65083Y335417D01*
X64557Y334629D01*
X64372Y333700D01*
X64557Y332771D01*
X65083Y331983D01*
X65871Y331457D01*
X66800Y331272D01*
X67729Y331457D01*
X68517Y331983D01*
X69043Y332771D01*
X69228Y333700D01*
X69043Y334629D01*
X68517Y335417D01*
X67729Y335943D01*
X66800Y336128D01*
D02*
G37*
G36*
X80200Y339538D02*
X79271Y339353D01*
X78483Y338827D01*
X77957Y338039D01*
X77772Y337110D01*
X77957Y336181D01*
X78483Y335394D01*
X79271Y334867D01*
X80200Y334682D01*
X81129Y334867D01*
X81917Y335394D01*
X82443Y336181D01*
X82628Y337110D01*
X82443Y338039D01*
X81917Y338827D01*
X81129Y339353D01*
X80200Y339538D01*
D02*
G37*
G36*
X54300Y340138D02*
X53371Y339953D01*
X52583Y339427D01*
X52057Y338639D01*
X51872Y337710D01*
X52057Y336781D01*
X52583Y335994D01*
X53371Y335467D01*
X54300Y335282D01*
X55229Y335467D01*
X56017Y335994D01*
X56543Y336781D01*
X56728Y337710D01*
X56543Y338639D01*
X56017Y339427D01*
X55229Y339953D01*
X54300Y340138D01*
D02*
G37*
G36*
X39919Y317428D02*
X38990Y317243D01*
X38203Y316717D01*
X37677Y315929D01*
X37492Y315000D01*
X37677Y314071D01*
X38203Y313283D01*
X38990Y312757D01*
X39919Y312572D01*
X40848Y312757D01*
X41636Y313283D01*
X42162Y314071D01*
X42347Y315000D01*
X42162Y315929D01*
X41636Y316717D01*
X40848Y317243D01*
X39919Y317428D01*
D02*
G37*
G36*
X49900Y333838D02*
X48971Y333653D01*
X48183Y333127D01*
X47657Y332339D01*
X47472Y331410D01*
X47657Y330481D01*
X48183Y329694D01*
X48971Y329167D01*
X49900Y328982D01*
X50829Y329167D01*
X51617Y329694D01*
X52143Y330481D01*
X52328Y331410D01*
X52143Y332339D01*
X51617Y333127D01*
X50829Y333653D01*
X49900Y333838D01*
D02*
G37*
G36*
X74016Y334265D02*
X73087Y334080D01*
X72299Y333554D01*
X71773Y332766D01*
X71588Y331837D01*
X71773Y330908D01*
X72299Y330120D01*
X73087Y329594D01*
X74016Y329409D01*
X74945Y329594D01*
X75732Y330120D01*
X76259Y330908D01*
X76443Y331837D01*
X76259Y332766D01*
X75732Y333554D01*
X74945Y334080D01*
X74016Y334265D01*
D02*
G37*
G36*
X229700Y386903D02*
X229026Y386815D01*
X228398Y386555D01*
X227859Y386141D01*
X227445Y385602D01*
X227185Y384974D01*
X227097Y384300D01*
X227185Y383626D01*
X227445Y382998D01*
X227859Y382459D01*
X228398Y382045D01*
X229026Y381785D01*
X229700Y381697D01*
X230374Y381785D01*
X231002Y382045D01*
X231541Y382459D01*
X231955Y382998D01*
X232215Y383626D01*
X232303Y384300D01*
X232215Y384974D01*
X231955Y385602D01*
X231541Y386141D01*
X231002Y386555D01*
X230374Y386815D01*
X229700Y386903D01*
D02*
G37*
G36*
X220600Y390528D02*
X219671Y390343D01*
X218883Y389817D01*
X218357Y389029D01*
X218172Y388100D01*
X218357Y387171D01*
X218883Y386383D01*
X219671Y385857D01*
X220600Y385672D01*
X221529Y385857D01*
X222317Y386383D01*
X222843Y387171D01*
X223028Y388100D01*
X222843Y389029D01*
X222317Y389817D01*
X221529Y390343D01*
X220600Y390528D01*
D02*
G37*
G36*
X215200Y393428D02*
X214271Y393243D01*
X213483Y392717D01*
X212957Y391929D01*
X212772Y391000D01*
X212957Y390071D01*
X213483Y389283D01*
X214271Y388757D01*
X215200Y388572D01*
X216129Y388757D01*
X216917Y389283D01*
X217443Y390071D01*
X217628Y391000D01*
X217443Y391929D01*
X216917Y392717D01*
X216129Y393243D01*
X215200Y393428D01*
D02*
G37*
G36*
X137900Y361565D02*
X136971Y361380D01*
X136183Y360854D01*
X135657Y360066D01*
X135472Y359137D01*
X135657Y358208D01*
X136183Y357420D01*
X136971Y356894D01*
X137900Y356709D01*
X138829Y356894D01*
X139617Y357420D01*
X140143Y358208D01*
X140328Y359137D01*
X140143Y360066D01*
X139617Y360854D01*
X138829Y361380D01*
X137900Y361565D01*
D02*
G37*
G36*
X15748Y406733D02*
X13709Y406573D01*
X11721Y406095D01*
X9832Y405313D01*
X8088Y404244D01*
X6533Y402916D01*
X5205Y401361D01*
X4136Y399617D01*
X3354Y397728D01*
X2876Y395740D01*
X2716Y393701D01*
X2876Y391662D01*
X3354Y389674D01*
X4136Y387784D01*
X5205Y386041D01*
X6533Y384486D01*
X8088Y383157D01*
X9832Y382089D01*
X11721Y381306D01*
X13709Y380829D01*
X15748Y380668D01*
X17787Y380829D01*
X19775Y381306D01*
X21665Y382089D01*
X23408Y383157D01*
X24963Y384486D01*
X26291Y386041D01*
X27360Y387784D01*
X28142Y389674D01*
X28620Y391662D01*
X28780Y393701D01*
X28620Y395740D01*
X28142Y397728D01*
X27360Y399617D01*
X26291Y401361D01*
X24963Y402916D01*
X23408Y404244D01*
X21665Y405313D01*
X19775Y406095D01*
X17787Y406573D01*
X15748Y406733D01*
D02*
G37*
G36*
X299213D02*
X297174Y406573D01*
X295185Y406095D01*
X293296Y405313D01*
X291552Y404244D01*
X289997Y402916D01*
X288669Y401361D01*
X287601Y399617D01*
X286818Y397728D01*
X286341Y395740D01*
X286180Y393701D01*
X286341Y391662D01*
X286818Y389674D01*
X287601Y387784D01*
X288669Y386041D01*
X289997Y384486D01*
X291552Y383157D01*
X293296Y382089D01*
X295185Y381306D01*
X297174Y380829D01*
X299213Y380668D01*
X301251Y380829D01*
X303240Y381306D01*
X305129Y382089D01*
X306873Y383157D01*
X308428Y384486D01*
X309756Y386041D01*
X310824Y387784D01*
X311607Y389674D01*
X312084Y391662D01*
X312245Y393701D01*
X312084Y395740D01*
X311607Y397728D01*
X310824Y399617D01*
X309756Y401361D01*
X308428Y402916D01*
X306873Y404244D01*
X305129Y405313D01*
X303240Y406095D01*
X301251Y406573D01*
X299213Y406733D01*
D02*
G37*
G36*
X285961Y470191D02*
X284625Y470015D01*
X283380Y469499D01*
X282310Y468679D01*
X281490Y467610D01*
X280974Y466364D01*
X280798Y465028D01*
X280974Y463692D01*
X281490Y462447D01*
X282310Y461378D01*
X283380Y460558D01*
X284625Y460042D01*
X285961Y459866D01*
X287297Y460042D01*
X288542Y460558D01*
X289611Y461378D01*
X290431Y462447D01*
X290947Y463692D01*
X291123Y465028D01*
X290947Y466364D01*
X290431Y467610D01*
X289611Y468679D01*
X288542Y469499D01*
X287297Y470015D01*
X285961Y470191D01*
D02*
G37*
G36*
X184600Y470805D02*
X183874Y470710D01*
X183197Y470429D01*
X182616Y469983D01*
X182171Y469403D01*
X181890Y468726D01*
X181795Y468000D01*
X181890Y467274D01*
X182171Y466598D01*
X182616Y466016D01*
X183197Y465571D01*
X183874Y465290D01*
X184600Y465195D01*
X185326Y465290D01*
X186003Y465571D01*
X186583Y466016D01*
X187029Y466598D01*
X187310Y467274D01*
X187405Y468000D01*
X187310Y468726D01*
X187029Y469403D01*
X186583Y469983D01*
X186003Y470429D01*
X185326Y470710D01*
X184600Y470805D01*
D02*
G37*
G36*
X190000Y475042D02*
X189274Y474946D01*
X188598Y474666D01*
X188016Y474221D01*
X187571Y473640D01*
X187291Y472963D01*
X187195Y472237D01*
X187291Y471511D01*
X187571Y470834D01*
X188016Y470254D01*
X188598Y469808D01*
X189274Y469527D01*
X190000Y469432D01*
X190726Y469527D01*
X191402Y469808D01*
X191983Y470254D01*
X192429Y470834D01*
X192710Y471511D01*
X192805Y472237D01*
X192710Y472963D01*
X192429Y473640D01*
X191983Y474221D01*
X191402Y474666D01*
X190726Y474946D01*
X190000Y475042D01*
D02*
G37*
G36*
X176761Y456542D02*
X176035Y456447D01*
X175358Y456166D01*
X174777Y455721D01*
X174331Y455140D01*
X174051Y454463D01*
X173956Y453737D01*
X174051Y453011D01*
X174331Y452334D01*
X174777Y451754D01*
X175358Y451308D01*
X176035Y451027D01*
X176761Y450932D01*
X177487Y451027D01*
X178163Y451308D01*
X178744Y451754D01*
X179190Y452334D01*
X179470Y453011D01*
X179566Y453737D01*
X179470Y454463D01*
X179190Y455140D01*
X178744Y455721D01*
X178163Y456166D01*
X177487Y456447D01*
X176761Y456542D01*
D02*
G37*
G36*
X80129Y457699D02*
X79200Y457515D01*
X78412Y456988D01*
X77886Y456201D01*
X77701Y455272D01*
X77886Y454343D01*
X78412Y453555D01*
X79200Y453029D01*
X80129Y452844D01*
X81058Y453029D01*
X81846Y453555D01*
X82372Y454343D01*
X82557Y455272D01*
X82372Y456201D01*
X81846Y456988D01*
X81058Y457515D01*
X80129Y457699D01*
D02*
G37*
G36*
X54229Y458299D02*
X53300Y458115D01*
X52513Y457588D01*
X51986Y456801D01*
X51801Y455872D01*
X51986Y454943D01*
X52513Y454155D01*
X53300Y453629D01*
X54229Y453444D01*
X55158Y453629D01*
X55946Y454155D01*
X56472Y454943D01*
X56657Y455872D01*
X56472Y456801D01*
X55946Y457588D01*
X55158Y458115D01*
X54229Y458299D01*
D02*
G37*
G36*
X150361Y479884D02*
X149635Y479788D01*
X148958Y479508D01*
X148377Y479062D01*
X147931Y478481D01*
X147651Y477805D01*
X147611Y477497D01*
X147111D01*
X147070Y477805D01*
X146790Y478481D01*
X146344Y479062D01*
X145763Y479508D01*
X145087Y479788D01*
X144361Y479884D01*
X143635Y479788D01*
X142958Y479508D01*
X142377Y479062D01*
X141931Y478481D01*
X141651Y477805D01*
X141556Y477079D01*
X141651Y476353D01*
X141931Y475676D01*
X142377Y475095D01*
X142958Y474649D01*
X143635Y474369D01*
X144361Y474274D01*
X144422Y474282D01*
X144726Y473885D01*
X144551Y473463D01*
X144456Y472737D01*
X144551Y472011D01*
X144831Y471335D01*
X144918Y471221D01*
X144668Y470788D01*
X144361Y470829D01*
X143635Y470733D01*
X142958Y470453D01*
X142377Y470007D01*
X141931Y469426D01*
X141651Y468750D01*
X141556Y468024D01*
X141651Y467298D01*
X141931Y466621D01*
X142377Y466040D01*
X142958Y465594D01*
X143635Y465314D01*
X144361Y465218D01*
X145087Y465314D01*
X145763Y465594D01*
X146344Y466040D01*
X146790Y466621D01*
X147070Y467298D01*
X147111Y467605D01*
X147611D01*
X147651Y467298D01*
X147931Y466621D01*
X148377Y466040D01*
X148958Y465594D01*
X149635Y465314D01*
X150361Y465218D01*
X151087Y465314D01*
X151763Y465594D01*
X152344Y466040D01*
X152790Y466621D01*
X153070Y467298D01*
X153166Y468024D01*
X153070Y468750D01*
X152790Y469426D01*
X152344Y470007D01*
X151763Y470453D01*
X151087Y470733D01*
X150361Y470829D01*
X149831Y470759D01*
X149581Y471192D01*
X149690Y471335D01*
X149970Y472011D01*
X150066Y472737D01*
X149970Y473463D01*
X149784Y473913D01*
X150088Y474309D01*
X150361Y474274D01*
X151087Y474369D01*
X151763Y474649D01*
X152344Y475095D01*
X152790Y475676D01*
X153070Y476353D01*
X153166Y477079D01*
X153070Y477805D01*
X152790Y478481D01*
X152344Y479062D01*
X151763Y479508D01*
X151087Y479788D01*
X150361Y479884D01*
D02*
G37*
G36*
X172361D02*
X171635Y479788D01*
X170958Y479508D01*
X170377Y479062D01*
X169931Y478481D01*
X169651Y477805D01*
X169611Y477497D01*
X169111D01*
X169070Y477805D01*
X168790Y478481D01*
X168344Y479062D01*
X167763Y479508D01*
X167087Y479788D01*
X166361Y479884D01*
X165635Y479788D01*
X164958Y479508D01*
X164377Y479062D01*
X163931Y478481D01*
X163651Y477805D01*
X163556Y477079D01*
X163651Y476353D01*
X163931Y475676D01*
X164377Y475095D01*
X164958Y474649D01*
X165635Y474369D01*
X166361Y474274D01*
X166778Y474329D01*
X167028Y473896D01*
X166831Y473640D01*
X166551Y472963D01*
X166455Y472237D01*
X166551Y471511D01*
X166670Y471225D01*
X166365Y470828D01*
X166361Y470829D01*
X165635Y470733D01*
X164958Y470453D01*
X164377Y470007D01*
X163931Y469426D01*
X163651Y468750D01*
X163556Y468024D01*
X163651Y467298D01*
X163931Y466621D01*
X164377Y466040D01*
X164958Y465594D01*
X165635Y465314D01*
X166361Y465218D01*
X167087Y465314D01*
X167763Y465594D01*
X168344Y466040D01*
X168790Y466621D01*
X169070Y467298D01*
X169111Y467605D01*
X169611D01*
X169651Y467298D01*
X169931Y466621D01*
X170377Y466040D01*
X170958Y465594D01*
X171635Y465314D01*
X172361Y465218D01*
X173087Y465314D01*
X173763Y465594D01*
X174344Y466040D01*
X174790Y466621D01*
X175070Y467298D01*
X175166Y468024D01*
X175070Y468750D01*
X174790Y469426D01*
X174344Y470007D01*
X173763Y470453D01*
X173087Y470733D01*
X172361Y470829D01*
X172144Y470800D01*
X171840Y471197D01*
X171970Y471511D01*
X172066Y472237D01*
X171970Y472963D01*
X171690Y473640D01*
X171471Y473925D01*
X171721Y474358D01*
X172361Y474274D01*
X173087Y474369D01*
X173763Y474649D01*
X174344Y475095D01*
X174790Y475676D01*
X175070Y476353D01*
X175166Y477079D01*
X175070Y477805D01*
X174790Y478481D01*
X174344Y479062D01*
X173763Y479508D01*
X173087Y479788D01*
X172361Y479884D01*
D02*
G37*
G36*
X285961Y487510D02*
X284727Y487348D01*
X283578Y486872D01*
X282591Y486114D01*
X281834Y485127D01*
X281358Y483978D01*
X281195Y482745D01*
X281358Y481512D01*
X281834Y480362D01*
X282591Y479375D01*
X283578Y478618D01*
X284727Y478142D01*
X285961Y477980D01*
X287194Y478142D01*
X288343Y478618D01*
X289330Y479375D01*
X290087Y480362D01*
X290563Y481512D01*
X290726Y482745D01*
X290563Y483978D01*
X290087Y485127D01*
X289330Y486114D01*
X288343Y486872D01*
X287194Y487348D01*
X285961Y487510D01*
D02*
G37*
G36*
X200000Y475042D02*
X199274Y474946D01*
X198598Y474666D01*
X198017Y474221D01*
X197571Y473640D01*
X197291Y472963D01*
X197195Y472237D01*
X197291Y471511D01*
X197571Y470834D01*
X198017Y470254D01*
X198598Y469808D01*
X199274Y469527D01*
X200000Y469432D01*
X200726Y469527D01*
X201402Y469808D01*
X201983Y470254D01*
X202429Y470834D01*
X202710Y471511D01*
X202805Y472237D01*
X202710Y472963D01*
X202429Y473640D01*
X201983Y474221D01*
X201402Y474666D01*
X200726Y474946D01*
X200000Y475042D01*
D02*
G37*
G36*
X39919Y476247D02*
X38990Y476062D01*
X38203Y475536D01*
X37677Y474749D01*
X37492Y473819D01*
X37677Y472890D01*
X38203Y472103D01*
X38990Y471576D01*
X39919Y471392D01*
X40848Y471576D01*
X41636Y472103D01*
X42162Y472890D01*
X42347Y473819D01*
X42162Y474749D01*
X41636Y475536D01*
X40848Y476062D01*
X39919Y476247D01*
D02*
G37*
G36*
X95529Y476557D02*
X94600Y476372D01*
X93812Y475846D01*
X93286Y475058D01*
X93101Y474129D01*
X93286Y473200D01*
X93812Y472412D01*
X94600Y471886D01*
X95529Y471701D01*
X96458Y471886D01*
X97246Y472412D01*
X97772Y473200D01*
X97957Y474129D01*
X97772Y475058D01*
X97246Y475846D01*
X96458Y476372D01*
X95529Y476557D01*
D02*
G37*
G36*
X45929Y435512D02*
X45000Y435327D01*
X44212Y434800D01*
X43686Y434013D01*
X43501Y433084D01*
X43686Y432155D01*
X44212Y431367D01*
Y431150D01*
X43686Y430363D01*
X43501Y429434D01*
X43686Y428505D01*
X44212Y427717D01*
X45000Y427191D01*
X45929Y427006D01*
X46858Y427191D01*
X47646Y427717D01*
X48172Y428505D01*
X48357Y429434D01*
X48172Y430363D01*
X47646Y431150D01*
Y431367D01*
X48172Y432155D01*
X48357Y433084D01*
X48172Y434013D01*
X47646Y434800D01*
X46858Y435327D01*
X45929Y435512D01*
D02*
G37*
G36*
X257261Y433042D02*
X256535Y432946D01*
X255858Y432666D01*
X255277Y432221D01*
X254831Y431640D01*
X254551Y430963D01*
X254455Y430237D01*
X254551Y429511D01*
X254831Y428834D01*
X255277Y428254D01*
X255858Y427808D01*
X256535Y427528D01*
X257261Y427432D01*
X257987Y427528D01*
X258663Y427808D01*
X259244Y428254D01*
X259690Y428834D01*
X259970Y429511D01*
X260066Y430237D01*
X259970Y430963D01*
X259690Y431640D01*
X259244Y432221D01*
X258663Y432666D01*
X257987Y432946D01*
X257261Y433042D01*
D02*
G37*
G36*
X89529Y434732D02*
X88600Y434547D01*
X87813Y434021D01*
X87286Y433233D01*
X87101Y432304D01*
X87286Y431375D01*
X87813Y430587D01*
X88600Y430061D01*
X89529Y429876D01*
X90458Y430061D01*
X91246Y430587D01*
X91772Y431375D01*
X91957Y432304D01*
X91772Y433233D01*
X91246Y434021D01*
X90458Y434547D01*
X89529Y434732D01*
D02*
G37*
G36*
X241761Y423461D02*
X240910Y423292D01*
X240188Y422810D01*
X239706Y422088D01*
X239537Y421237D01*
X239706Y420386D01*
X240188Y419664D01*
X240910Y419182D01*
X241761Y419013D01*
X242612Y419182D01*
X243333Y419664D01*
X243815Y420386D01*
X243985Y421237D01*
X243815Y422088D01*
X243333Y422810D01*
X242612Y423292D01*
X241761Y423461D01*
D02*
G37*
G36*
X95529Y424728D02*
X94600Y424543D01*
X93812Y424017D01*
X93286Y423229D01*
X93101Y422300D01*
X93286Y421371D01*
X93812Y420583D01*
X94600Y420057D01*
X95529Y419872D01*
X96458Y420057D01*
X97246Y420583D01*
X97772Y421371D01*
X97957Y422300D01*
X97772Y423229D01*
X97246Y424017D01*
X96458Y424543D01*
X95529Y424728D01*
D02*
G37*
G36*
X209761Y427542D02*
X209035Y427447D01*
X208358Y427166D01*
X208011Y426900D01*
X207663Y427166D01*
X206987Y427447D01*
X206261Y427542D01*
X205535Y427447D01*
X204858Y427166D01*
X204277Y426721D01*
X203831Y426140D01*
X203551Y425463D01*
X203455Y424737D01*
X203551Y424011D01*
X203831Y423335D01*
X204277Y422753D01*
X204858Y422308D01*
X205535Y422027D01*
X206261Y421932D01*
X206987Y422027D01*
X207663Y422308D01*
X208011Y422574D01*
X208358Y422308D01*
X209035Y422027D01*
X209761Y421932D01*
X210487Y422027D01*
X211163Y422308D01*
X211744Y422753D01*
X212190Y423335D01*
X212470Y424011D01*
X212566Y424737D01*
X212470Y425463D01*
X212190Y426140D01*
X211744Y426721D01*
X211163Y427166D01*
X210487Y427447D01*
X209761Y427542D01*
D02*
G37*
G36*
Y449542D02*
X209035Y449446D01*
X208358Y449166D01*
X208011Y448900D01*
X207663Y449166D01*
X206987Y449446D01*
X206261Y449542D01*
X205535Y449446D01*
X204858Y449166D01*
X204277Y448721D01*
X203831Y448140D01*
X203551Y447463D01*
X203455Y446737D01*
X203551Y446011D01*
X203831Y445334D01*
X204277Y444754D01*
X204858Y444308D01*
X205535Y444028D01*
X206261Y443932D01*
X206987Y444028D01*
X207663Y444308D01*
X208011Y444574D01*
X208358Y444308D01*
X209035Y444028D01*
X209761Y443932D01*
X210487Y444028D01*
X211163Y444308D01*
X211744Y444754D01*
X212190Y445334D01*
X212470Y446011D01*
X212566Y446737D01*
X212470Y447463D01*
X212190Y448140D01*
X211744Y448721D01*
X211163Y449166D01*
X210487Y449446D01*
X209761Y449542D01*
D02*
G37*
G36*
X66100Y453928D02*
X65171Y453743D01*
X64383Y453217D01*
X63857Y452429D01*
X63672Y451500D01*
X63857Y450571D01*
X64383Y449783D01*
X65171Y449257D01*
X66100Y449072D01*
X67029Y449257D01*
X67817Y449783D01*
X68343Y450571D01*
X68528Y451500D01*
X68343Y452429D01*
X67817Y453217D01*
X67029Y453743D01*
X66100Y453928D01*
D02*
G37*
G36*
X154761Y456542D02*
X154035Y456447D01*
X153358Y456166D01*
X152777Y455721D01*
X152331Y455140D01*
X152051Y454463D01*
X151955Y453737D01*
X152051Y453011D01*
X152331Y452334D01*
X152777Y451754D01*
X153358Y451308D01*
X154035Y451027D01*
X154761Y450932D01*
X155487Y451027D01*
X156163Y451308D01*
X156744Y451754D01*
X157190Y452334D01*
X157470Y453011D01*
X157566Y453737D01*
X157470Y454463D01*
X157190Y455140D01*
X156744Y455721D01*
X156163Y456166D01*
X155487Y456447D01*
X154761Y456542D01*
D02*
G37*
G36*
X39919Y435554D02*
X38990Y435369D01*
X38203Y434843D01*
X37677Y434055D01*
X37492Y433126D01*
X37677Y432197D01*
X38203Y431410D01*
X38990Y430883D01*
X39919Y430699D01*
X40848Y430883D01*
X41636Y431410D01*
X42162Y432197D01*
X42347Y433126D01*
X42162Y434055D01*
X41636Y434843D01*
X40848Y435369D01*
X39919Y435554D01*
D02*
G37*
G36*
X49829Y451999D02*
X48900Y451815D01*
X48112Y451288D01*
X47586Y450501D01*
X47401Y449572D01*
X47586Y448643D01*
X48112Y447855D01*
X48900Y447329D01*
X49829Y447144D01*
X50758Y447329D01*
X51546Y447855D01*
X52072Y448643D01*
X52257Y449572D01*
X52072Y450501D01*
X51546Y451288D01*
X50758Y451815D01*
X49829Y451999D01*
D02*
G37*
G36*
X74142Y452375D02*
X73213Y452190D01*
X72425Y451664D01*
X71899Y450876D01*
X71714Y449947D01*
X71899Y449018D01*
X72425Y448231D01*
X73213Y447704D01*
X74142Y447519D01*
X75071Y447704D01*
X75858Y448231D01*
X76385Y449018D01*
X76569Y449947D01*
X76385Y450876D01*
X75858Y451664D01*
X75071Y452190D01*
X74142Y452375D01*
D02*
G37*
G36*
X92000Y316628D02*
X91071Y316443D01*
X90283Y315917D01*
X89757Y315129D01*
X89572Y314200D01*
X89757Y313271D01*
X90283Y312483D01*
X91071Y311957D01*
X92000Y311772D01*
X92929Y311957D01*
X93717Y312483D01*
X94243Y313271D01*
X94428Y314200D01*
X94243Y315129D01*
X93717Y315917D01*
X92929Y316443D01*
X92000Y316628D01*
D02*
G37*
G36*
X95500Y249603D02*
X94826Y249515D01*
X94198Y249255D01*
X93659Y248841D01*
X93245Y248302D01*
X92985Y247674D01*
X92897Y247000D01*
X92985Y246326D01*
X93245Y245698D01*
X93659Y245159D01*
X94198Y244745D01*
X94826Y244485D01*
X95500Y244397D01*
X96174Y244485D01*
X96802Y244745D01*
X97341Y245159D01*
X97755Y245698D01*
X98015Y246326D01*
X98103Y247000D01*
X98015Y247674D01*
X97755Y248302D01*
X97341Y248841D01*
X96802Y249255D01*
X96174Y249515D01*
X95500Y249603D01*
D02*
G37*
G36*
X39500Y256603D02*
X38826Y256515D01*
X38198Y256255D01*
X37659Y255841D01*
X37245Y255302D01*
X36985Y254674D01*
X36897Y254000D01*
X36985Y253326D01*
X37245Y252698D01*
X37659Y252159D01*
X38198Y251745D01*
X38826Y251485D01*
X39500Y251397D01*
X40174Y251485D01*
X40802Y251745D01*
X41341Y252159D01*
X41755Y252698D01*
X42015Y253326D01*
X42103Y254000D01*
X42015Y254674D01*
X41755Y255302D01*
X41341Y255841D01*
X40802Y256255D01*
X40174Y256515D01*
X39500Y256603D01*
D02*
G37*
G36*
X87000D02*
X86326Y256515D01*
X85698Y256255D01*
X85159Y255841D01*
X84745Y255302D01*
X84485Y254674D01*
X84397Y254000D01*
X84485Y253326D01*
X84745Y252698D01*
X85159Y252159D01*
X85698Y251745D01*
X86326Y251485D01*
X87000Y251397D01*
X87674Y251485D01*
X88302Y251745D01*
X88841Y252159D01*
X89255Y252698D01*
X89515Y253326D01*
X89603Y254000D01*
X89515Y254674D01*
X89255Y255302D01*
X88841Y255841D01*
X88302Y256255D01*
X87674Y256515D01*
X87000Y256603D01*
D02*
G37*
G36*
X173577Y242628D02*
X172648Y242443D01*
X171860Y241917D01*
X171334Y241129D01*
X171149Y240200D01*
X171334Y239271D01*
X171860Y238483D01*
X172648Y237957D01*
X173577Y237772D01*
X174506Y237957D01*
X175294Y238483D01*
X175820Y239271D01*
X176005Y240200D01*
X175820Y241129D01*
X175294Y241917D01*
X174506Y242443D01*
X173577Y242628D01*
D02*
G37*
G36*
X189900Y242728D02*
X188971Y242543D01*
X188183Y242017D01*
X187657Y241229D01*
X187472Y240300D01*
X187657Y239371D01*
X188183Y238583D01*
X188971Y238057D01*
X189900Y237872D01*
X190829Y238057D01*
X191617Y238583D01*
X192143Y239371D01*
X192328Y240300D01*
X192143Y241229D01*
X191617Y242017D01*
X190829Y242543D01*
X189900Y242728D01*
D02*
G37*
G36*
X200500Y248503D02*
X199826Y248415D01*
X199198Y248155D01*
X198659Y247741D01*
X198245Y247202D01*
X197985Y246574D01*
X197897Y245900D01*
X197985Y245226D01*
X198245Y244598D01*
X198659Y244059D01*
X199198Y243645D01*
X199826Y243385D01*
X200500Y243297D01*
X201174Y243385D01*
X201802Y243645D01*
X202341Y244059D01*
X202755Y244598D01*
X203015Y245226D01*
X203103Y245900D01*
X203015Y246574D01*
X202755Y247202D01*
X202341Y247741D01*
X201802Y248155D01*
X201174Y248415D01*
X200500Y248503D01*
D02*
G37*
G36*
X75329Y264728D02*
X74400Y264543D01*
X73612Y264017D01*
X73086Y263229D01*
X72901Y262300D01*
X73086Y261371D01*
X73612Y260583D01*
X74400Y260057D01*
X75329Y259872D01*
X76258Y260057D01*
X77045Y260583D01*
X77571Y261371D01*
X77756Y262300D01*
X77571Y263229D01*
X77045Y264017D01*
X76258Y264543D01*
X75329Y264728D01*
D02*
G37*
G36*
X108286D02*
X107357Y264543D01*
X106569Y264017D01*
X106043Y263229D01*
X105858Y262300D01*
X106043Y261371D01*
X106569Y260583D01*
X107357Y260057D01*
X108286Y259872D01*
X109215Y260057D01*
X110002Y260583D01*
X110529Y261371D01*
X110714Y262300D01*
X110529Y263229D01*
X110002Y264017D01*
X109215Y264543D01*
X108286Y264728D01*
D02*
G37*
G36*
X124609D02*
X123679Y264543D01*
X122892Y264017D01*
X122366Y263229D01*
X122181Y262300D01*
X122366Y261371D01*
X122892Y260583D01*
X123679Y260057D01*
X124609Y259872D01*
X125538Y260057D01*
X126325Y260583D01*
X126851Y261371D01*
X127036Y262300D01*
X126851Y263229D01*
X126325Y264017D01*
X125538Y264543D01*
X124609Y264728D01*
D02*
G37*
G36*
X193500Y256603D02*
X192826Y256515D01*
X192198Y256255D01*
X191659Y255841D01*
X191245Y255302D01*
X190985Y254674D01*
X190897Y254000D01*
X190985Y253326D01*
X191245Y252698D01*
X191659Y252159D01*
X192198Y251745D01*
X192826Y251485D01*
X193500Y251397D01*
X194174Y251485D01*
X194802Y251745D01*
X195341Y252159D01*
X195755Y252698D01*
X196015Y253326D01*
X196103Y254000D01*
X196015Y254674D01*
X195755Y255302D01*
X195341Y255841D01*
X194802Y256255D01*
X194174Y256515D01*
X193500Y256603D01*
D02*
G37*
G36*
X150175Y256778D02*
X149501Y256689D01*
X148873Y256429D01*
X148334Y256016D01*
X147920Y255476D01*
X147660Y254849D01*
X147571Y254175D01*
X147660Y253501D01*
X147920Y252873D01*
X148334Y252334D01*
X148873Y251920D01*
X149501Y251660D01*
X150175Y251571D01*
X150848Y251660D01*
X151476Y251920D01*
X152016Y252334D01*
X152429Y252873D01*
X152689Y253501D01*
X152778Y254175D01*
X152689Y254849D01*
X152429Y255476D01*
X152016Y256016D01*
X151476Y256429D01*
X150848Y256689D01*
X150175Y256778D01*
D02*
G37*
G36*
X58700Y264728D02*
X57771Y264543D01*
X56983Y264017D01*
X56457Y263229D01*
X56272Y262300D01*
X56457Y261371D01*
X56983Y260583D01*
X57771Y260057D01*
X58700Y259872D01*
X59629Y260057D01*
X60417Y260583D01*
X60943Y261371D01*
X61128Y262300D01*
X60943Y263229D01*
X60417Y264017D01*
X59629Y264543D01*
X58700Y264728D01*
D02*
G37*
G36*
X189900Y236028D02*
X188971Y235843D01*
X188183Y235317D01*
X187657Y234529D01*
X187472Y233600D01*
X187657Y232671D01*
X188183Y231883D01*
X188971Y231357D01*
X189900Y231172D01*
X190829Y231357D01*
X191617Y231883D01*
X192143Y232671D01*
X192328Y233600D01*
X192143Y234529D01*
X191617Y235317D01*
X190829Y235843D01*
X189900Y236028D01*
D02*
G37*
G36*
X238400Y241428D02*
X237471Y241243D01*
X236683Y240717D01*
X236157Y239929D01*
X235972Y239000D01*
X236157Y238071D01*
X236683Y237283D01*
X237471Y236757D01*
X238400Y236572D01*
X239329Y236757D01*
X240117Y237283D01*
X240643Y238071D01*
X240828Y239000D01*
X240643Y239929D01*
X240117Y240717D01*
X239329Y241243D01*
X238400Y241428D01*
D02*
G37*
G36*
X248232D02*
X247302Y241243D01*
X246515Y240717D01*
X245988Y239929D01*
X245804Y239000D01*
X245988Y238071D01*
X246515Y237283D01*
X247302Y236757D01*
X248232Y236572D01*
X249161Y236757D01*
X249948Y237283D01*
X250474Y238071D01*
X250659Y239000D01*
X250474Y239929D01*
X249948Y240717D01*
X249161Y241243D01*
X248232Y241428D01*
D02*
G37*
G36*
X140931Y235928D02*
X140002Y235743D01*
X139215Y235217D01*
X138689Y234429D01*
X138504Y233500D01*
X138689Y232571D01*
X139215Y231783D01*
X140002Y231257D01*
X140931Y231072D01*
X141860Y231257D01*
X142648Y231783D01*
X143174Y232571D01*
X143359Y233500D01*
X143174Y234429D01*
X142648Y235217D01*
X141860Y235743D01*
X140931Y235928D01*
D02*
G37*
G36*
X157254D02*
X156325Y235743D01*
X155538Y235217D01*
X155011Y234429D01*
X154826Y233500D01*
X155011Y232571D01*
X155538Y231783D01*
X156325Y231257D01*
X157254Y231072D01*
X158183Y231257D01*
X158971Y231783D01*
X159497Y232571D01*
X159682Y233500D01*
X159497Y234429D01*
X158971Y235217D01*
X158183Y235743D01*
X157254Y235928D01*
D02*
G37*
G36*
X173577D02*
X172648Y235743D01*
X171860Y235217D01*
X171334Y234429D01*
X171149Y233500D01*
X171334Y232571D01*
X171860Y231783D01*
X172648Y231257D01*
X173577Y231072D01*
X174506Y231257D01*
X175294Y231783D01*
X175820Y232571D01*
X176005Y233500D01*
X175820Y234429D01*
X175294Y235217D01*
X174506Y235743D01*
X173577Y235928D01*
D02*
G37*
G36*
X124609Y242628D02*
X123679Y242443D01*
X122892Y241917D01*
X122366Y241129D01*
X122181Y240200D01*
X122366Y239271D01*
X122892Y238483D01*
X123679Y237957D01*
X124609Y237772D01*
X125538Y237957D01*
X126325Y238483D01*
X126851Y239271D01*
X127036Y240200D01*
X126851Y241129D01*
X126325Y241917D01*
X125538Y242443D01*
X124609Y242628D01*
D02*
G37*
G36*
X140931D02*
X140002Y242443D01*
X139215Y241917D01*
X138689Y241129D01*
X138504Y240200D01*
X138689Y239271D01*
X139215Y238483D01*
X140002Y237957D01*
X140931Y237772D01*
X141860Y237957D01*
X142648Y238483D01*
X143174Y239271D01*
X143359Y240200D01*
X143174Y241129D01*
X142648Y241917D01*
X141860Y242443D01*
X140931Y242628D01*
D02*
G37*
G36*
X157254D02*
X156325Y242443D01*
X155538Y241917D01*
X155011Y241129D01*
X154826Y240200D01*
X155011Y239271D01*
X155538Y238483D01*
X156325Y237957D01*
X157254Y237772D01*
X158183Y237957D01*
X158971Y238483D01*
X159497Y239271D01*
X159682Y240200D01*
X159497Y241129D01*
X158971Y241917D01*
X158183Y242443D01*
X157254Y242628D01*
D02*
G37*
G36*
X58700D02*
X57771Y242443D01*
X56983Y241917D01*
X56457Y241129D01*
X56272Y240200D01*
X56457Y239271D01*
X56983Y238483D01*
X57771Y237957D01*
X58700Y237772D01*
X59629Y237957D01*
X60417Y238483D01*
X60943Y239271D01*
X61128Y240200D01*
X60943Y241129D01*
X60417Y241917D01*
X59629Y242443D01*
X58700Y242628D01*
D02*
G37*
G36*
X75329D02*
X74400Y242443D01*
X73612Y241917D01*
X73086Y241129D01*
X72901Y240200D01*
X73086Y239271D01*
X73612Y238483D01*
X74400Y237957D01*
X75329Y237772D01*
X76258Y237957D01*
X77045Y238483D01*
X77571Y239271D01*
X77756Y240200D01*
X77571Y241129D01*
X77045Y241917D01*
X76258Y242443D01*
X75329Y242628D01*
D02*
G37*
G36*
X108286D02*
X107357Y242443D01*
X106569Y241917D01*
X106043Y241129D01*
X105858Y240200D01*
X106043Y239271D01*
X106569Y238483D01*
X107357Y237957D01*
X108286Y237772D01*
X109215Y237957D01*
X110002Y238483D01*
X110529Y239271D01*
X110714Y240200D01*
X110529Y241129D01*
X110002Y241917D01*
X109215Y242443D01*
X108286Y242628D01*
D02*
G37*
G36*
X55600Y287738D02*
X54671Y287553D01*
X53883Y287027D01*
X53357Y286239D01*
X53172Y285310D01*
X53357Y284381D01*
X53883Y283594D01*
X54671Y283067D01*
X55600Y282882D01*
X56529Y283067D01*
X57317Y283594D01*
X57843Y284381D01*
X58028Y285310D01*
X57843Y286239D01*
X57317Y287027D01*
X56529Y287553D01*
X55600Y287738D01*
D02*
G37*
G36*
X80500Y288038D02*
X79571Y287853D01*
X78783Y287327D01*
X78257Y286539D01*
X78072Y285610D01*
X78257Y284681D01*
X78783Y283894D01*
X79571Y283367D01*
X80500Y283183D01*
X81429Y283367D01*
X82217Y283894D01*
X82743Y284681D01*
X82928Y285610D01*
X82743Y286539D01*
X82217Y287327D01*
X81429Y287853D01*
X80500Y288038D01*
D02*
G37*
G36*
X66700Y290328D02*
X65771Y290143D01*
X64983Y289617D01*
X64457Y288829D01*
X64272Y287900D01*
X64457Y286971D01*
X64983Y286183D01*
X65771Y285657D01*
X66700Y285472D01*
X67629Y285657D01*
X68417Y286183D01*
X68943Y286971D01*
X69128Y287900D01*
X68943Y288829D01*
X68417Y289617D01*
X67629Y290143D01*
X66700Y290328D01*
D02*
G37*
G36*
X265687Y280914D02*
X265013Y280825D01*
X264385Y280565D01*
X263846Y280151D01*
X263432Y279612D01*
X263172Y278984D01*
X263083Y278310D01*
X263172Y277637D01*
X263432Y277009D01*
X263846Y276470D01*
X264385Y276056D01*
X265013Y275796D01*
X265687Y275707D01*
X266361Y275796D01*
X266988Y276056D01*
X267528Y276470D01*
X267941Y277009D01*
X268201Y277637D01*
X268290Y278310D01*
X268201Y278984D01*
X267941Y279612D01*
X267528Y280151D01*
X266988Y280565D01*
X266361Y280825D01*
X265687Y280914D01*
D02*
G37*
G36*
X238400Y281728D02*
X237471Y281543D01*
X236683Y281017D01*
X236157Y280229D01*
X235972Y279300D01*
X236157Y278371D01*
X236683Y277583D01*
X237471Y277057D01*
X238400Y276872D01*
X239329Y277057D01*
X240117Y277583D01*
X240643Y278371D01*
X240828Y279300D01*
X240643Y280229D01*
X240117Y281017D01*
X239329Y281543D01*
X238400Y281728D01*
D02*
G37*
G36*
X248232D02*
X247302Y281543D01*
X246515Y281017D01*
X245988Y280229D01*
X245804Y279300D01*
X245988Y278371D01*
X246515Y277583D01*
X247302Y277057D01*
X248232Y276872D01*
X249161Y277057D01*
X249948Y277583D01*
X250474Y278371D01*
X250659Y279300D01*
X250474Y280229D01*
X249948Y281017D01*
X249161Y281543D01*
X248232Y281728D01*
D02*
G37*
G36*
X87129Y308451D02*
X86200Y308267D01*
X85413Y307740D01*
X84886Y306953D01*
X84701Y306024D01*
X84886Y305095D01*
X85413Y304307D01*
X86200Y303781D01*
X86629Y303695D01*
Y303195D01*
X85800Y303030D01*
X85013Y302504D01*
X84486Y301716D01*
X84301Y300787D01*
X84404Y300271D01*
X84051Y299918D01*
X84000Y299928D01*
X83071Y299743D01*
X82283Y299217D01*
X81757Y298429D01*
X81572Y297500D01*
X81757Y296571D01*
X82283Y295783D01*
X83071Y295257D01*
X84000Y295072D01*
X84929Y295257D01*
X85717Y295783D01*
X86243Y296571D01*
X86428Y297500D01*
X86325Y298016D01*
X86679Y298370D01*
X86729Y298360D01*
X87658Y298545D01*
X88446Y299071D01*
X88972Y299858D01*
X89157Y300787D01*
X88972Y301716D01*
X88446Y302504D01*
X87658Y303030D01*
X87229Y303116D01*
Y303616D01*
X88058Y303781D01*
X88846Y304307D01*
X89372Y305095D01*
X89557Y306024D01*
X89372Y306953D01*
X88846Y307740D01*
X88058Y308267D01*
X87129Y308451D01*
D02*
G37*
G36*
X95800Y306228D02*
X94871Y306043D01*
X94083Y305517D01*
X93557Y304729D01*
X93372Y303800D01*
X93557Y302871D01*
X94083Y302083D01*
X94871Y301557D01*
X95800Y301372D01*
X96729Y301557D01*
X97517Y302083D01*
X98043Y302871D01*
X98228Y303800D01*
X98043Y304729D01*
X97517Y305517D01*
X96729Y306043D01*
X95800Y306228D01*
D02*
G37*
G36*
X45929Y317401D02*
X45000Y317217D01*
X44212Y316690D01*
X43686Y315903D01*
X43501Y314974D01*
X43686Y314045D01*
X44212Y313257D01*
Y313040D01*
X43686Y312253D01*
X43501Y311324D01*
X43686Y310395D01*
X44212Y309607D01*
X45000Y309081D01*
X45929Y308896D01*
X46858Y309081D01*
X47646Y309607D01*
X48172Y310395D01*
X48357Y311324D01*
X48172Y312253D01*
X47646Y313040D01*
Y313257D01*
X48172Y314045D01*
X48357Y314974D01*
X48172Y315903D01*
X47646Y316690D01*
X46858Y317217D01*
X45929Y317401D01*
D02*
G37*
G36*
X72441Y292551D02*
X71512Y292367D01*
X70724Y291840D01*
X70198Y291053D01*
X70013Y290124D01*
X70198Y289195D01*
X70724Y288407D01*
X71512Y287881D01*
X72441Y287696D01*
X73370Y287881D01*
X74158Y288407D01*
X74684Y289195D01*
X74869Y290124D01*
X74684Y291053D01*
X74158Y291840D01*
X73370Y292367D01*
X72441Y292551D01*
D02*
G37*
G36*
X50400Y293538D02*
X49471Y293353D01*
X48683Y292827D01*
X48157Y292039D01*
X47972Y291110D01*
X48157Y290181D01*
X48683Y289394D01*
X49471Y288867D01*
X50400Y288683D01*
X51329Y288867D01*
X52117Y289394D01*
X52643Y290181D01*
X52828Y291110D01*
X52643Y292039D01*
X52117Y292827D01*
X51329Y293353D01*
X50400Y293538D01*
D02*
G37*
G36*
X104861Y299965D02*
X103932Y299780D01*
X103144Y299254D01*
X102618Y298466D01*
X102433Y297537D01*
X102618Y296608D01*
X103144Y295820D01*
X103932Y295294D01*
X104861Y295109D01*
X105790Y295294D01*
X106577Y295820D01*
X107104Y296608D01*
X107288Y297537D01*
X107104Y298466D01*
X106577Y299254D01*
X105790Y299780D01*
X104861Y299965D01*
D02*
G37*
G36*
X189900Y264828D02*
X188971Y264643D01*
X188183Y264117D01*
X187657Y263329D01*
X187472Y262400D01*
X187657Y261471D01*
X188183Y260683D01*
X188971Y260157D01*
X189900Y259972D01*
X190829Y260157D01*
X191617Y260683D01*
X192143Y261471D01*
X192328Y262400D01*
X192143Y263329D01*
X191617Y264117D01*
X190829Y264643D01*
X189900Y264828D01*
D02*
G37*
G36*
X266000Y268603D02*
X265326Y268515D01*
X264698Y268255D01*
X264159Y267841D01*
X263745Y267302D01*
X263485Y266674D01*
X263397Y266000D01*
X263485Y265326D01*
X263745Y264698D01*
X264159Y264159D01*
X264698Y263745D01*
X265326Y263485D01*
X266000Y263397D01*
X266674Y263485D01*
X267302Y263745D01*
X267841Y264159D01*
X268255Y264698D01*
X268515Y265326D01*
X268603Y266000D01*
X268515Y266674D01*
X268255Y267302D01*
X267841Y267841D01*
X267302Y268255D01*
X266674Y268515D01*
X266000Y268603D01*
D02*
G37*
G36*
X108286Y272628D02*
X107357Y272443D01*
X106569Y271917D01*
X106043Y271129D01*
X105858Y270200D01*
X106043Y269271D01*
X106569Y268483D01*
X107357Y267957D01*
X108286Y267772D01*
X109215Y267957D01*
X110002Y268483D01*
X110529Y269271D01*
X110714Y270200D01*
X110529Y271129D01*
X110002Y271917D01*
X109215Y272443D01*
X108286Y272628D01*
D02*
G37*
G36*
X140931Y264728D02*
X140002Y264543D01*
X139215Y264017D01*
X138689Y263229D01*
X138504Y262300D01*
X138689Y261371D01*
X139215Y260583D01*
X140002Y260057D01*
X140931Y259872D01*
X141860Y260057D01*
X142648Y260583D01*
X143174Y261371D01*
X143359Y262300D01*
X143174Y263229D01*
X142648Y264017D01*
X141860Y264543D01*
X140931Y264728D01*
D02*
G37*
G36*
X157254D02*
X156325Y264543D01*
X155538Y264017D01*
X155011Y263229D01*
X154826Y262300D01*
X155011Y261371D01*
X155538Y260583D01*
X156325Y260057D01*
X157254Y259872D01*
X158183Y260057D01*
X158971Y260583D01*
X159497Y261371D01*
X159682Y262300D01*
X159497Y263229D01*
X158971Y264017D01*
X158183Y264543D01*
X157254Y264728D01*
D02*
G37*
G36*
X173577D02*
X172648Y264543D01*
X171860Y264017D01*
X171334Y263229D01*
X171149Y262300D01*
X171334Y261371D01*
X171860Y260583D01*
X172648Y260057D01*
X173577Y259872D01*
X174506Y260057D01*
X175294Y260583D01*
X175820Y261371D01*
X176005Y262300D01*
X175820Y263229D01*
X175294Y264017D01*
X174506Y264543D01*
X173577Y264728D01*
D02*
G37*
G36*
Y272628D02*
X172648Y272443D01*
X171860Y271917D01*
X171334Y271129D01*
X171149Y270200D01*
X171334Y269271D01*
X171860Y268483D01*
X172648Y267957D01*
X173577Y267772D01*
X174506Y267957D01*
X175294Y268483D01*
X175820Y269271D01*
X176005Y270200D01*
X175820Y271129D01*
X175294Y271917D01*
X174506Y272443D01*
X173577Y272628D01*
D02*
G37*
G36*
X189900Y272728D02*
X188971Y272543D01*
X188183Y272017D01*
X187657Y271229D01*
X187472Y270300D01*
X187657Y269371D01*
X188183Y268583D01*
X188971Y268057D01*
X189900Y267872D01*
X190829Y268057D01*
X191617Y268583D01*
X192143Y269371D01*
X192328Y270300D01*
X192143Y271229D01*
X191617Y272017D01*
X190829Y272543D01*
X189900Y272728D01*
D02*
G37*
G36*
X280000Y280603D02*
X279326Y280515D01*
X278698Y280255D01*
X278159Y279841D01*
X277745Y279302D01*
X277485Y278674D01*
X277397Y278000D01*
X277485Y277326D01*
X277745Y276698D01*
X278159Y276159D01*
X278698Y275745D01*
X279326Y275485D01*
X280000Y275397D01*
X280674Y275485D01*
X281302Y275745D01*
X281841Y276159D01*
X282255Y276698D01*
X282515Y277326D01*
X282603Y278000D01*
X282515Y278674D01*
X282255Y279302D01*
X281841Y279841D01*
X281302Y280255D01*
X280674Y280515D01*
X280000Y280603D01*
D02*
G37*
G36*
X124609Y272628D02*
X123679Y272443D01*
X122892Y271917D01*
X122366Y271129D01*
X122181Y270200D01*
X122366Y269271D01*
X122892Y268483D01*
X123679Y267957D01*
X124609Y267772D01*
X125538Y267957D01*
X126325Y268483D01*
X126851Y269271D01*
X127036Y270200D01*
X126851Y271129D01*
X126325Y271917D01*
X125538Y272443D01*
X124609Y272628D01*
D02*
G37*
G36*
X140931D02*
X140002Y272443D01*
X139215Y271917D01*
X138689Y271129D01*
X138504Y270200D01*
X138689Y269271D01*
X139215Y268483D01*
X140002Y267957D01*
X140931Y267772D01*
X141860Y267957D01*
X142648Y268483D01*
X143174Y269271D01*
X143359Y270200D01*
X143174Y271129D01*
X142648Y271917D01*
X141860Y272443D01*
X140931Y272628D01*
D02*
G37*
G36*
X157254D02*
X156325Y272443D01*
X155538Y271917D01*
X155011Y271129D01*
X154826Y270200D01*
X155011Y269271D01*
X155538Y268483D01*
X156325Y267957D01*
X157254Y267772D01*
X158183Y267957D01*
X158971Y268483D01*
X159497Y269271D01*
X159682Y270200D01*
X159497Y271129D01*
X158971Y271917D01*
X158183Y272443D01*
X157254Y272628D01*
D02*
G37*
%LPD*%
D26*
X241761Y421237D02*
D03*
X249761Y423737D02*
D03*
X245761D02*
D03*
X249761Y421237D02*
D03*
X245761D02*
D03*
X238261Y416737D02*
D03*
Y420237D02*
D03*
X233261D02*
D03*
Y423237D02*
D03*
X258761Y421690D02*
D03*
X258261Y399737D02*
D03*
X255954Y399686D02*
D03*
X220761Y405737D02*
D03*
Y403737D02*
D03*
X226954Y402237D02*
D03*
X235761Y399237D02*
D03*
X231761D02*
D03*
D38*
X66929Y312795D02*
D03*
X70472Y312795D02*
D03*
X74016Y312795D02*
D03*
Y319882D02*
D03*
X70472Y319882D02*
D03*
X66929Y319882D02*
D03*
X63386Y319882D02*
D03*
X59842Y319882D02*
D03*
Y312795D02*
D03*
X63386Y312795D02*
D03*
X66929Y305709D02*
D03*
X63386Y305709D02*
D03*
X59842Y305709D02*
D03*
X70472Y305709D02*
D03*
X74016Y305709D02*
D03*
X68701Y309252D02*
D03*
X65158D02*
D03*
X61614D02*
D03*
X72244D02*
D03*
X75787D02*
D03*
X58071D02*
D03*
Y316339D02*
D03*
X61614D02*
D03*
X65158D02*
D03*
X68701D02*
D03*
X72244D02*
D03*
X75787D02*
D03*
Y302165D02*
D03*
X72244D02*
D03*
X68701D02*
D03*
X65158D02*
D03*
X61614D02*
D03*
X58071D02*
D03*
X177165Y194685D02*
D03*
X180709Y194685D02*
D03*
X184252Y194685D02*
D03*
Y201772D02*
D03*
X180709Y201772D02*
D03*
X177165Y201772D02*
D03*
X173622Y201772D02*
D03*
X170079Y201772D02*
D03*
Y194685D02*
D03*
X173622Y194685D02*
D03*
X177165Y187598D02*
D03*
X173622Y187598D02*
D03*
X170079Y187598D02*
D03*
X180709Y187598D02*
D03*
X184252Y187598D02*
D03*
X178937Y191142D02*
D03*
X175394D02*
D03*
X171850D02*
D03*
X182480D02*
D03*
X186024D02*
D03*
X168307D02*
D03*
Y198228D02*
D03*
X171850D02*
D03*
X175394D02*
D03*
X178937D02*
D03*
X182480D02*
D03*
X186024D02*
D03*
Y184055D02*
D03*
X182480D02*
D03*
X178937D02*
D03*
X175394D02*
D03*
X171850D02*
D03*
X168307D02*
D03*
X177165Y76575D02*
D03*
X180709Y76575D02*
D03*
X184252Y76575D02*
D03*
Y83661D02*
D03*
X180709Y83661D02*
D03*
X177165Y83661D02*
D03*
X173622Y83661D02*
D03*
X170079Y83661D02*
D03*
Y76575D02*
D03*
X173622Y76575D02*
D03*
X177165Y69488D02*
D03*
X173622Y69488D02*
D03*
X170079Y69488D02*
D03*
X180709Y69488D02*
D03*
X184252Y69488D02*
D03*
X178937Y73032D02*
D03*
X175394D02*
D03*
X171850D02*
D03*
X182480D02*
D03*
X186024D02*
D03*
X168307D02*
D03*
Y80118D02*
D03*
X171850D02*
D03*
X175394D02*
D03*
X178937D02*
D03*
X182480D02*
D03*
X186024D02*
D03*
Y65945D02*
D03*
X182480D02*
D03*
X178937D02*
D03*
X175394D02*
D03*
X171850D02*
D03*
X168307D02*
D03*
X66929Y76575D02*
D03*
X70472Y76575D02*
D03*
X74016Y76575D02*
D03*
Y83661D02*
D03*
X70472Y83661D02*
D03*
X66929Y83661D02*
D03*
X63386Y83661D02*
D03*
X59842Y83661D02*
D03*
Y76575D02*
D03*
X63386Y76575D02*
D03*
X66929Y69488D02*
D03*
X63386Y69488D02*
D03*
X59842Y69488D02*
D03*
X70472Y69488D02*
D03*
X74016Y69488D02*
D03*
X68701Y73032D02*
D03*
X65158D02*
D03*
X61614D02*
D03*
X72244D02*
D03*
X75787D02*
D03*
X58071D02*
D03*
Y80118D02*
D03*
X61614D02*
D03*
X65158D02*
D03*
X68701D02*
D03*
X72244D02*
D03*
X75787D02*
D03*
Y65945D02*
D03*
X72244D02*
D03*
X68701D02*
D03*
X65158D02*
D03*
X61614D02*
D03*
X58071D02*
D03*
X66929Y194685D02*
D03*
X70472Y194685D02*
D03*
X74016Y194685D02*
D03*
Y201772D02*
D03*
X70472Y201772D02*
D03*
X66929Y201772D02*
D03*
X63386Y201772D02*
D03*
X59842Y201772D02*
D03*
Y194685D02*
D03*
X63386Y194685D02*
D03*
X66929Y187598D02*
D03*
X63386Y187598D02*
D03*
X59842Y187598D02*
D03*
X70472Y187598D02*
D03*
X74016Y187598D02*
D03*
X68701Y191142D02*
D03*
X65158D02*
D03*
X61614D02*
D03*
X72244D02*
D03*
X75787D02*
D03*
X58071D02*
D03*
Y198228D02*
D03*
X61614D02*
D03*
X65158D02*
D03*
X68701D02*
D03*
X72244D02*
D03*
X75787D02*
D03*
Y184055D02*
D03*
X72244D02*
D03*
X68701D02*
D03*
X65158D02*
D03*
X61614D02*
D03*
X58071D02*
D03*
Y420276D02*
D03*
X61614D02*
D03*
X65158D02*
D03*
X68701D02*
D03*
X72244D02*
D03*
X75787D02*
D03*
Y434449D02*
D03*
X72244D02*
D03*
X68701D02*
D03*
X65158D02*
D03*
X61614D02*
D03*
X58071D02*
D03*
Y427362D02*
D03*
X75787D02*
D03*
X72244D02*
D03*
X61614D02*
D03*
X65158D02*
D03*
X68701D02*
D03*
X74016Y423819D02*
D03*
X70472Y423819D02*
D03*
X59842Y423819D02*
D03*
X63386Y423819D02*
D03*
X66929Y423819D02*
D03*
X63386Y430905D02*
D03*
X59842Y430905D02*
D03*
Y437992D02*
D03*
X63386Y437992D02*
D03*
X66929Y437992D02*
D03*
X70472Y437992D02*
D03*
X74016Y437992D02*
D03*
Y430905D02*
D03*
X70472Y430905D02*
D03*
X66929Y430905D02*
D03*
D88*
X299213Y393701D02*
D03*
X15748D02*
D03*
Y110236D02*
D03*
X299213D02*
D03*
D89*
X220472Y488189D02*
D03*
Y15748D02*
D03*
Y251969D02*
D03*
X15748Y15748D02*
D03*
Y488189D02*
D03*
Y251969D02*
D03*
D90*
X289370Y46063D02*
D03*
D91*
X299370D02*
D03*
D92*
X246727Y8176D02*
D03*
X275073D02*
D03*
D93*
X247908Y19200D02*
D03*
X273892D02*
D03*
D94*
X288200Y368500D02*
D03*
X271300Y405800D02*
D03*
X297600Y187900D02*
D03*
X146200Y201600D02*
D03*
X146392Y183500D02*
D03*
X176436Y215710D02*
D03*
X174900Y171800D02*
D03*
X187000Y165000D02*
D03*
X164000Y165900D02*
D03*
X160636Y173000D02*
D03*
X188400Y218900D02*
D03*
X160136Y213300D02*
D03*
X164536Y219600D02*
D03*
X176000Y97200D02*
D03*
X175900Y52000D02*
D03*
X190736Y49390D02*
D03*
X165836Y49090D02*
D03*
X160636Y54890D02*
D03*
X190436Y100890D02*
D03*
X160136Y95190D02*
D03*
X164536Y101490D02*
D03*
X54300D02*
D03*
X49900Y95190D02*
D03*
X80200Y100890D02*
D03*
X50400Y54890D02*
D03*
X55600Y49090D02*
D03*
X80500Y49390D02*
D03*
X66100Y51500D02*
D03*
X66200Y97600D02*
D03*
X54229Y455872D02*
D03*
X49829Y449572D02*
D03*
X80129Y455272D02*
D03*
X50329Y409272D02*
D03*
X55529Y403472D02*
D03*
X80429Y403772D02*
D03*
X65900Y406400D02*
D03*
X66100Y451500D02*
D03*
X54300Y337710D02*
D03*
X49900Y331410D02*
D03*
X80200Y337110D02*
D03*
X50400Y291110D02*
D03*
X55600Y285310D02*
D03*
X80500Y285610D02*
D03*
X66700Y287900D02*
D03*
X66800Y333700D02*
D03*
X66500Y216400D02*
D03*
X66600Y167800D02*
D03*
X80500Y167900D02*
D03*
X55600Y167600D02*
D03*
X50400Y173400D02*
D03*
X80200Y219400D02*
D03*
X49900Y213700D02*
D03*
X54300Y220000D02*
D03*
X108286Y233500D02*
D03*
X124609D02*
D03*
X140931D02*
D03*
X157254D02*
D03*
X173577D02*
D03*
X189900Y233600D02*
D03*
X108286Y270200D02*
D03*
X124609D02*
D03*
X140931D02*
D03*
X157254D02*
D03*
X173577D02*
D03*
X189900Y270300D02*
D03*
X248232Y239000D02*
D03*
X238400D02*
D03*
Y279300D02*
D03*
X248232D02*
D03*
X108286Y240200D02*
D03*
X124609D02*
D03*
X140931D02*
D03*
X157254D02*
D03*
X173577D02*
D03*
X189900Y240300D02*
D03*
X75329Y240200D02*
D03*
X58700D02*
D03*
Y262300D02*
D03*
X75329D02*
D03*
X189900Y262400D02*
D03*
X173577Y262300D02*
D03*
X157254D02*
D03*
X140931D02*
D03*
X124609D02*
D03*
X108286D02*
D03*
X147031Y84300D02*
D03*
X146532Y65800D02*
D03*
X220600Y388100D02*
D03*
X215200Y391000D02*
D03*
X137900Y359137D02*
D03*
X39919Y473819D02*
D03*
X95529Y474129D02*
D03*
X305100Y412400D02*
D03*
X192000Y169000D02*
D03*
X205787Y186000D02*
D03*
X197365Y199313D02*
D03*
X84000Y297500D02*
D03*
X34216Y68200D02*
D03*
X33917Y185800D02*
D03*
X34877Y303737D02*
D03*
X36911Y320500D02*
D03*
Y201500D02*
D03*
X84000Y179500D02*
D03*
X36911Y439000D02*
D03*
X150175Y196966D02*
D03*
Y79675D02*
D03*
X39919Y197500D02*
D03*
Y433126D02*
D03*
X35000Y422000D02*
D03*
X36100Y79100D02*
D03*
X101376Y439765D02*
D03*
X101161Y430962D02*
D03*
X104761Y416062D02*
D03*
X110261Y426462D02*
D03*
X100229Y409562D02*
D03*
X101476Y321240D02*
D03*
X101261Y312437D02*
D03*
X104861Y297537D02*
D03*
X110361Y307937D02*
D03*
X100329Y291037D02*
D03*
X101315Y85303D02*
D03*
X101100Y76500D02*
D03*
X104700Y61600D02*
D03*
X105000Y76500D02*
D03*
X100169Y55100D02*
D03*
X101476Y204203D02*
D03*
X101261Y195400D02*
D03*
X104561Y179700D02*
D03*
X110361Y190900D02*
D03*
X100329Y174000D02*
D03*
X211615Y203403D02*
D03*
X212200Y195200D02*
D03*
X215000Y179700D02*
D03*
X214000Y184200D02*
D03*
X209968Y174200D02*
D03*
X210068Y55200D02*
D03*
X220100Y72100D02*
D03*
X214600Y61700D02*
D03*
X74142Y449947D02*
D03*
X89529Y432304D02*
D03*
X87129Y424134D02*
D03*
X95529Y422300D02*
D03*
X86729Y418898D02*
D03*
X72441Y408234D02*
D03*
X45929Y433084D02*
D03*
Y429434D02*
D03*
X92000Y314200D02*
D03*
X87129Y306024D02*
D03*
X86729Y300787D02*
D03*
X72441Y290124D02*
D03*
X39919Y315000D02*
D03*
X45929Y314974D02*
D03*
Y311324D02*
D03*
X74016Y331837D02*
D03*
X95800Y303800D02*
D03*
X59300Y460900D02*
D03*
X66100D02*
D03*
X73500D02*
D03*
X45929Y193213D02*
D03*
Y196863D02*
D03*
X72441Y172013D02*
D03*
X86729Y182677D02*
D03*
X95900Y185900D02*
D03*
X87129Y187913D02*
D03*
X92000Y196100D02*
D03*
X87129Y199313D02*
D03*
X74142Y213727D02*
D03*
X73500Y106569D02*
D03*
X66100D02*
D03*
X59300D02*
D03*
X45929Y75103D02*
D03*
Y78753D02*
D03*
X39919Y79619D02*
D03*
X72441Y53903D02*
D03*
X86229Y64567D02*
D03*
X95529Y68000D02*
D03*
X87129Y69803D02*
D03*
X92000Y78000D02*
D03*
X87129Y81203D02*
D03*
X74142Y95617D02*
D03*
X213500Y75500D02*
D03*
X156165Y75103D02*
D03*
Y78753D02*
D03*
X182677Y53903D02*
D03*
X196965Y64567D02*
D03*
X205765Y68000D02*
D03*
X211215Y85403D02*
D03*
X197365Y69803D02*
D03*
X202500Y78000D02*
D03*
X197365Y81203D02*
D03*
X184378Y95617D02*
D03*
X155665Y196863D02*
D03*
X182677Y172013D02*
D03*
X196965Y182677D02*
D03*
X197365Y187913D02*
D03*
X199765Y196083D02*
D03*
X184378Y213727D02*
D03*
X59300Y396800D02*
D03*
X66100Y396600D02*
D03*
X73600Y396700D02*
D03*
X59321Y343774D02*
D03*
X66821Y343874D02*
D03*
X73621Y343674D02*
D03*
X73600Y278000D02*
D03*
X66900Y277900D02*
D03*
X60100Y278100D02*
D03*
X59321Y226869D02*
D03*
X66821Y226969D02*
D03*
X73621Y226768D02*
D03*
X74239Y156163D02*
D03*
X66739Y156063D02*
D03*
X59939Y156263D02*
D03*
X73600Y41626D02*
D03*
X66100Y41526D02*
D03*
X59300Y41726D02*
D03*
X183400Y41626D02*
D03*
X175900Y41526D02*
D03*
X169100Y41726D02*
D03*
X169021Y107004D02*
D03*
X175821Y107104D02*
D03*
X183021Y106904D02*
D03*
X182000Y159900D02*
D03*
X175000Y159800D02*
D03*
X167900Y160000D02*
D03*
X169021Y226869D02*
D03*
X175821Y226969D02*
D03*
X183021Y226768D02*
D03*
X269800Y61000D02*
D03*
Y67400D02*
D03*
X275600Y66800D02*
D03*
X264800Y67600D02*
D03*
X281200Y72300D02*
D03*
X229100Y134200D02*
D03*
X226000Y147000D02*
D03*
X23800Y132900D02*
D03*
X30700Y145500D02*
D03*
X31298Y383600D02*
D03*
X24398Y371000D02*
D03*
X301300Y245500D02*
D03*
X279200Y230900D02*
D03*
X285600Y302100D02*
D03*
X285400Y348800D02*
D03*
X176500Y3400D02*
D03*
X283500Y93600D02*
D03*
X246300Y92000D02*
D03*
X260400Y56600D02*
D03*
X246400Y77000D02*
D03*
X284000Y83500D02*
D03*
X274980Y28285D02*
D03*
X255782Y41000D02*
D03*
X267000Y47200D02*
D03*
X259900Y44500D02*
D03*
X248100Y53800D02*
D03*
X234800Y46700D02*
D03*
D95*
X220224Y25059D02*
D03*
Y6059D02*
D03*
X229724Y15559D02*
D03*
X211224D02*
D03*
X213724Y22559D02*
D03*
X227224D02*
D03*
X213224Y9059D02*
D03*
X227224D02*
D03*
X15500Y25059D02*
D03*
Y6059D02*
D03*
X25000Y15559D02*
D03*
X6500D02*
D03*
X9000Y22559D02*
D03*
X22500D02*
D03*
X8500Y9059D02*
D03*
X22500D02*
D03*
X220224Y261280D02*
D03*
Y242280D02*
D03*
X229724Y251780D02*
D03*
X211224D02*
D03*
X213724Y258780D02*
D03*
X227224D02*
D03*
X213224Y245280D02*
D03*
X227224D02*
D03*
X15500Y261280D02*
D03*
Y242280D02*
D03*
X25000Y251780D02*
D03*
X6500D02*
D03*
X9000Y258780D02*
D03*
X22500D02*
D03*
X8500Y245280D02*
D03*
X22500D02*
D03*
X220224Y497500D02*
D03*
Y478500D02*
D03*
X229724Y488000D02*
D03*
X211224D02*
D03*
X213724Y495000D02*
D03*
X227224D02*
D03*
X213224Y481500D02*
D03*
X227224D02*
D03*
X22500D02*
D03*
X8500D02*
D03*
X22500Y495000D02*
D03*
X9000D02*
D03*
X6500Y488000D02*
D03*
X25000D02*
D03*
X15500Y478500D02*
D03*
Y497500D02*
D03*
X199000Y56500D02*
D03*
X39500Y254000D02*
D03*
X87000D02*
D03*
X150175Y254175D02*
D03*
X193500Y254000D02*
D03*
X200500Y245900D02*
D03*
X84519Y57519D02*
D03*
X96571Y16429D02*
D03*
X89000D02*
D03*
X153500Y16500D02*
D03*
Y5500D02*
D03*
X265687Y278310D02*
D03*
X95500Y247000D02*
D03*
X266000Y266000D02*
D03*
X280000Y278000D02*
D03*
X285500Y257700D02*
D03*
X272000Y233000D02*
D03*
X264000Y192000D02*
D03*
X293000Y215000D02*
D03*
X292900Y139400D02*
D03*
X293000Y179000D02*
D03*
X283000Y145000D02*
D03*
X274471Y166000D02*
D03*
X269000Y155000D02*
D03*
X229700Y384300D02*
D03*
D96*
X206261Y394737D02*
D03*
X201261D02*
D03*
X259100Y488500D02*
D03*
X215232Y421637D02*
D03*
Y426637D02*
D03*
Y431637D02*
D03*
Y436637D02*
D03*
Y441637D02*
D03*
X188200Y457800D02*
D03*
X184600Y468000D02*
D03*
X144361Y468024D02*
D03*
X150361D02*
D03*
X166361D02*
D03*
X172361D02*
D03*
X144361Y477079D02*
D03*
X150361D02*
D03*
X166361D02*
D03*
X172361D02*
D03*
X190000Y472237D02*
D03*
X200000D02*
D03*
X210100Y452000D02*
D03*
X195600Y452300D02*
D03*
X257261Y430237D02*
D03*
X198261Y415237D02*
D03*
Y411737D02*
D03*
X221761Y412237D02*
D03*
X218261D02*
D03*
X206261Y424737D02*
D03*
X209761D02*
D03*
X206261Y446737D02*
D03*
X209761D02*
D03*
X176761Y453737D02*
D03*
X154761D02*
D03*
X166900Y336300D02*
D03*
X203100Y336400D02*
D03*
X168800Y353300D02*
D03*
X164700Y353200D02*
D03*
X140761Y349437D02*
D03*
X134800Y349400D02*
D03*
X225453Y399430D02*
D03*
X219261Y438737D02*
D03*
Y434237D02*
D03*
Y429237D02*
D03*
Y424237D02*
D03*
X205761Y452237D02*
D03*
X147261Y472737D02*
D03*
X169261Y472237D02*
D03*
X199761Y452237D02*
D03*
X209461Y412737D02*
D03*
Y408937D02*
D03*
X216300Y453900D02*
D03*
X164700Y348500D02*
D03*
X168800Y348600D02*
D03*
X164700Y343100D02*
D03*
X168800Y343200D02*
D03*
X200600Y352400D02*
D03*
X204700Y352500D02*
D03*
X200600Y347100D02*
D03*
X204700Y347200D02*
D03*
X200500Y341500D02*
D03*
X204600Y341600D02*
D03*
D97*
X230792Y405784D02*
D03*
X234729D02*
D03*
X230792Y411690D02*
D03*
X234729D02*
D03*
X232761Y408737D02*
D03*
M02*
