%FSLAX25Y25*%
%MOIN*%
G70*
G01*
G75*
G04 Layer_Physical_Order=3*
G04 Layer_Color=16440176*
%ADD10C,0.03000*%
%ADD11C,0.00800*%
%ADD12C,0.02000*%
%ADD13C,0.01181*%
%ADD14C,0.02362*%
%ADD15C,0.01969*%
%ADD16C,0.01200*%
%ADD17C,0.01500*%
%ADD18C,0.01000*%
%ADD19C,0.01100*%
%ADD20C,0.04000*%
%ADD21C,0.03200*%
%ADD22C,0.03937*%
%ADD23C,0.01575*%
%ADD24C,0.00787*%
%ADD25C,0.00800*%
%ADD26C,0.02000*%
%ADD27C,0.10000*%
%ADD28R,0.05512X0.04331*%
%ADD29R,0.04331X0.10236*%
%ADD30R,0.04331X0.05512*%
%ADD31R,0.03543X0.02756*%
%ADD32R,0.03150X0.03543*%
%ADD33R,0.02756X0.03543*%
%ADD34R,0.02362X0.02362*%
%ADD35R,0.03543X0.03150*%
%ADD36R,0.02362X0.01969*%
%ADD37R,0.03000X0.03000*%
%ADD38C,0.03150*%
%ADD39R,0.10236X0.09449*%
%ADD40R,0.07087X0.06299*%
%ADD41R,0.06299X0.07087*%
%ADD42R,0.01969X0.02362*%
%ADD43C,0.03937*%
%ADD44R,0.22047X0.22047*%
%ADD45O,0.00787X0.05118*%
%ADD46O,0.05118X0.00787*%
%ADD47R,0.06000X0.05000*%
%ADD48R,0.16535X0.12205*%
%ADD49R,0.18504X0.05906*%
%ADD50R,0.02756X0.04528*%
%ADD51R,0.03937X0.07087*%
%ADD52R,0.07480X0.16339*%
%ADD53R,0.09449X0.10236*%
%ADD54R,0.03000X0.03000*%
%ADD55R,0.04331X0.06693*%
%ADD56R,0.02362X0.02362*%
%ADD57R,0.10236X0.04331*%
%ADD58R,0.12205X0.16535*%
%ADD59R,0.05906X0.18504*%
%ADD60R,0.04528X0.02756*%
%ADD61C,0.03000*%
%ADD62R,0.06693X0.04331*%
%ADD63R,0.19488X0.11594*%
%ADD64R,0.01102X0.02756*%
%ADD65R,0.06299X0.09449*%
%ADD66R,0.03347X0.01102*%
%ADD67R,0.08661X0.05512*%
%ADD68R,0.09449X0.11024*%
%ADD69O,0.01575X0.08268*%
%ADD70O,0.01378X0.08268*%
%ADD71R,0.07087X0.05906*%
%ADD72R,0.03937X0.03740*%
%ADD73O,0.04528X0.00787*%
%ADD74O,0.00787X0.04528*%
%ADD75R,0.08268X0.08268*%
%ADD76R,0.02559X0.03543*%
%ADD77R,0.06102X0.04331*%
%ADD78R,0.06102X0.04331*%
%ADD79R,0.06102X0.13583*%
%ADD80R,0.07087X0.03937*%
%ADD81C,0.00780*%
%ADD82R,0.42300X0.07600*%
%ADD83R,0.72700X0.09700*%
%ADD84R,0.46300X0.11900*%
%ADD85R,0.46400X0.11900*%
%ADD86R,0.19500X0.45500*%
%ADD87R,0.60476X0.09600*%
%ADD88C,0.23622*%
%ADD89C,0.25590*%
%ADD90R,0.05906X0.05906*%
%ADD91C,0.05906*%
%ADD92R,0.04724X0.07087*%
%ADD93O,0.05906X0.03937*%
%ADD94C,0.02400*%
%ADD95C,0.02800*%
%ADD96C,0.03200*%
%ADD97C,0.02362*%
%ADD98C,0.01600*%
G36*
X311915Y502145D02*
X312667Y501568D01*
X313245Y500815D01*
X313247Y500811D01*
Y308437D01*
Y4291D01*
X313055Y3828D01*
X312237Y2763D01*
X311172Y1945D01*
X310614Y1714D01*
X178768D01*
X178532Y2155D01*
X178743Y2471D01*
X178928Y3400D01*
X178828Y3900D01*
X179146Y4286D01*
X185358D01*
Y4283D01*
X187191Y4427D01*
X188979Y4856D01*
X190677Y5560D01*
X192245Y6521D01*
X193643Y7715D01*
Y7715D01*
Y7719D01*
X212783Y26859D01*
X212827Y26924D01*
X214026Y27909D01*
X215462Y28676D01*
X217021Y29149D01*
X218565Y29301D01*
X218642Y29286D01*
X236700D01*
X237356Y29416D01*
X237912Y29788D01*
X244412Y36288D01*
X244784Y36844D01*
X244914Y37500D01*
X244914Y37500D01*
X244914Y37500D01*
Y37500D01*
Y73290D01*
X246230Y74606D01*
X246400Y74572D01*
X247329Y74757D01*
X248117Y75283D01*
X248643Y76071D01*
X248828Y77000D01*
X248643Y77929D01*
X248117Y78717D01*
X247329Y79243D01*
X246400Y79428D01*
X245471Y79243D01*
X244683Y78717D01*
X244157Y77929D01*
X244021Y77245D01*
X241988Y75212D01*
X241616Y74656D01*
X241486Y74000D01*
Y38210D01*
X235990Y32714D01*
X218642D01*
Y32717D01*
X216809Y32573D01*
X215021Y32144D01*
X214274Y31834D01*
X213980Y32239D01*
X214079Y32355D01*
X215040Y33923D01*
X215744Y35621D01*
X216173Y37409D01*
X216317Y39242D01*
X216314D01*
Y59982D01*
X216317Y59983D01*
X216843Y60771D01*
X217028Y61700D01*
X216843Y62629D01*
X216317Y63417D01*
X215529Y63943D01*
X214600Y64128D01*
X213671Y63943D01*
X212883Y63417D01*
X212357Y62629D01*
X212172Y61700D01*
X212357Y60771D01*
X212883Y59983D01*
X212886Y59982D01*
Y39242D01*
X212901Y39165D01*
X212749Y37621D01*
X212276Y36062D01*
X211509Y34626D01*
X210525Y33427D01*
X210459Y33383D01*
X203876Y26800D01*
X203460Y27077D01*
X203644Y27521D01*
X204073Y29309D01*
X204217Y31142D01*
X204214D01*
Y65642D01*
X204655Y65878D01*
X204836Y65757D01*
X205765Y65572D01*
X206694Y65757D01*
X207482Y66283D01*
X208008Y67071D01*
X208193Y68000D01*
X208008Y68929D01*
X207994Y68950D01*
Y185018D01*
X208030Y185071D01*
X208214Y186000D01*
X208030Y186929D01*
X207994Y186982D01*
Y221213D01*
X207826Y222058D01*
X207348Y222775D01*
X202708Y227414D01*
Y244537D01*
X202755Y244598D01*
X203015Y245226D01*
X203103Y245900D01*
X203015Y246574D01*
X202755Y247202D01*
X202341Y247741D01*
X201802Y248155D01*
X201174Y248415D01*
X200500Y248503D01*
X199826Y248415D01*
X199198Y248155D01*
X198659Y247741D01*
X198245Y247202D01*
X197985Y246574D01*
X197897Y245900D01*
X197985Y245226D01*
X198245Y244598D01*
X198292Y244537D01*
Y226500D01*
X198460Y225655D01*
X198939Y224939D01*
X198939Y224939D01*
X198939Y224939D01*
X203579Y220299D01*
Y196841D01*
X203105Y196680D01*
X203101Y196685D01*
X202315Y197288D01*
X201636Y197570D01*
X201482Y197800D01*
X200694Y198327D01*
X199765Y198511D01*
X199655Y198621D01*
X199793Y199313D01*
X199608Y200242D01*
X199082Y201030D01*
X198294Y201556D01*
X197365Y201741D01*
X196436Y201556D01*
X195948Y201230D01*
X195507Y201466D01*
Y210500D01*
X195513D01*
X195335Y211856D01*
X194811Y213120D01*
X194461Y213577D01*
X194869Y214109D01*
X195346Y215262D01*
X195509Y216500D01*
X195507D01*
Y252376D01*
X195755Y252698D01*
X196015Y253326D01*
X196103Y254000D01*
X196015Y254674D01*
X195755Y255302D01*
X195341Y255841D01*
X194802Y256255D01*
X194174Y256515D01*
X193500Y256603D01*
X192826Y256515D01*
X192198Y256255D01*
X191659Y255841D01*
X191245Y255302D01*
X190985Y254674D01*
X190897Y254000D01*
X190985Y253326D01*
X191245Y252698D01*
X191493Y252376D01*
Y242630D01*
X191052Y242394D01*
X190829Y242543D01*
X189900Y242728D01*
X188971Y242543D01*
X188183Y242017D01*
X187657Y241229D01*
X187472Y240300D01*
X187657Y239371D01*
X188183Y238583D01*
X188971Y238057D01*
X189900Y237872D01*
X190829Y238057D01*
X191052Y238206D01*
X191493Y237970D01*
Y235930D01*
X191052Y235694D01*
X190829Y235843D01*
X189900Y236028D01*
X188971Y235843D01*
X188183Y235317D01*
X187657Y234529D01*
X187472Y233600D01*
X187657Y232671D01*
X188183Y231883D01*
X188971Y231357D01*
X189900Y231172D01*
X190829Y231357D01*
X191052Y231506D01*
X191493Y231270D01*
Y216500D01*
X191495Y216492D01*
X191438Y216206D01*
X191271Y215956D01*
X191021Y215789D01*
X190730Y215731D01*
X190727Y215734D01*
Y215734D01*
X190565Y215702D01*
X190273Y215740D01*
Y215734D01*
X185660D01*
X185307Y215970D01*
X184378Y216155D01*
X183449Y215970D01*
X182661Y215443D01*
X182135Y214656D01*
X181950Y213727D01*
X182135Y212798D01*
X182661Y212010D01*
X183449Y211484D01*
X184378Y211299D01*
X185307Y211484D01*
X185660Y211720D01*
X190273D01*
X190304Y211726D01*
X190745Y211638D01*
X191144Y211371D01*
X191411Y210971D01*
X191499Y210531D01*
X191493Y210500D01*
Y186000D01*
X191486D01*
X191668Y184619D01*
X191749Y184423D01*
X191646Y184268D01*
X191493Y183500D01*
Y174345D01*
X191169Y174021D01*
X183959D01*
X183606Y174256D01*
X182677Y174441D01*
X181748Y174256D01*
X180961Y173730D01*
X180434Y172942D01*
X180249Y172013D01*
X180431Y171100D01*
X180114Y170714D01*
X177506D01*
X177189Y171100D01*
X177328Y171800D01*
X177143Y172729D01*
X176617Y173517D01*
X175829Y174043D01*
X174900Y174228D01*
X173971Y174043D01*
X173183Y173517D01*
X172657Y172729D01*
X172472Y171800D01*
X172611Y171100D01*
X172294Y170714D01*
X162362D01*
X162217Y171193D01*
X162353Y171283D01*
X162879Y172071D01*
X163064Y173000D01*
X162879Y173929D01*
X162353Y174717D01*
X161565Y175243D01*
X160636Y175428D01*
X159707Y175243D01*
X158920Y174717D01*
X158393Y173929D01*
X158209Y173000D01*
X158393Y172071D01*
X158920Y171283D01*
X159707Y170757D01*
X160543Y170591D01*
X160688Y170112D01*
X158288Y167712D01*
X157916Y167156D01*
X157786Y166500D01*
Y95579D01*
X157709Y95190D01*
X157786Y94800D01*
Y81064D01*
X157345Y80829D01*
X157094Y80996D01*
X156165Y81181D01*
X155314Y81011D01*
X155285Y81054D01*
X155214Y81412D01*
Y81419D01*
Y194131D01*
X155601Y194448D01*
X155665Y194436D01*
X156594Y194620D01*
X157382Y195147D01*
X157908Y195934D01*
X158093Y196863D01*
X157908Y197792D01*
X157382Y198580D01*
X156594Y199106D01*
X155665Y199291D01*
X154736Y199106D01*
X153949Y198580D01*
X153422Y197792D01*
X153371Y197532D01*
X153065Y197298D01*
X153014Y197231D01*
X152527Y197345D01*
X152418Y197895D01*
X152182Y198248D01*
Y252551D01*
X152429Y252873D01*
X152689Y253501D01*
X152778Y254175D01*
X152689Y254849D01*
X152429Y255476D01*
X152016Y256016D01*
X151476Y256429D01*
X150848Y256689D01*
X150175Y256778D01*
X149501Y256689D01*
X148873Y256429D01*
X148334Y256016D01*
X147920Y255476D01*
X147660Y254849D01*
X147571Y254175D01*
X147660Y253501D01*
X147920Y252873D01*
X148168Y252551D01*
Y198248D01*
X147932Y197895D01*
X147747Y196966D01*
X147932Y196036D01*
X148168Y195683D01*
Y80957D01*
X147932Y80604D01*
X147747Y79675D01*
X147932Y78746D01*
X148458Y77958D01*
X149246Y77432D01*
X150175Y77247D01*
X151104Y77432D01*
X151345Y77593D01*
X151786Y77357D01*
Y76123D01*
X151781Y76088D01*
X151786D01*
Y18438D01*
X151659Y18341D01*
X151245Y17802D01*
X150985Y17174D01*
X150897Y16500D01*
X150985Y15826D01*
X151067Y15630D01*
X150789Y15214D01*
X103642D01*
X103565Y15199D01*
X102021Y15351D01*
X100462Y15824D01*
X99163Y16518D01*
X99086Y17103D01*
X98826Y17731D01*
X98412Y18270D01*
X97873Y18684D01*
X97245Y18944D01*
X96571Y19032D01*
X95897Y18944D01*
X95269Y18684D01*
X94730Y18270D01*
X94317Y17731D01*
X94204Y17460D01*
X93714Y17558D01*
Y21000D01*
Y65819D01*
X94155Y66054D01*
X94600Y65757D01*
X95529Y65572D01*
X96458Y65757D01*
X97246Y66283D01*
X97772Y67071D01*
X97957Y68000D01*
X97772Y68929D01*
X97737Y68982D01*
Y184363D01*
X98143Y184971D01*
X98328Y185900D01*
X98143Y186829D01*
X97737Y187437D01*
Y245675D01*
X97755Y245698D01*
X98015Y246326D01*
X98103Y247000D01*
X98015Y247674D01*
X97755Y248302D01*
X97737Y248325D01*
Y302413D01*
X98043Y302871D01*
X98228Y303800D01*
X98043Y304729D01*
X97737Y305187D01*
Y421318D01*
X97772Y421371D01*
X97957Y422300D01*
X97772Y423229D01*
X97737Y423282D01*
Y473147D01*
X97772Y473200D01*
X97957Y474129D01*
X97772Y475058D01*
X97246Y475846D01*
X96458Y476372D01*
X95529Y476557D01*
X94600Y476372D01*
X93812Y475846D01*
X93286Y475058D01*
X93101Y474129D01*
X93286Y473200D01*
X93321Y473147D01*
Y431589D01*
X92859Y431398D01*
X91956Y432301D01*
X91957Y432304D01*
X91772Y433233D01*
X91246Y434021D01*
X90458Y434547D01*
X89529Y434732D01*
X88600Y434547D01*
X87813Y434021D01*
X87286Y433233D01*
X87101Y432304D01*
X87286Y431375D01*
X87813Y430587D01*
X88600Y430061D01*
X89529Y429876D01*
X89532Y429877D01*
X90286Y429123D01*
Y424054D01*
X90180Y424010D01*
X89647Y424116D01*
X89550Y424168D01*
X89372Y425063D01*
X88846Y425850D01*
X88058Y426377D01*
X87129Y426562D01*
X86200Y426377D01*
X85948Y426208D01*
X85507Y426444D01*
Y440589D01*
X85380Y441230D01*
X85354Y441357D01*
X84919Y442008D01*
X76468Y450460D01*
X76385Y450876D01*
X75858Y451664D01*
X75071Y452190D01*
X74142Y452375D01*
X73213Y452190D01*
X72425Y451664D01*
X71899Y450876D01*
X71714Y449947D01*
X71899Y449018D01*
X72425Y448231D01*
X73213Y447704D01*
X73629Y447621D01*
X81493Y439758D01*
Y422127D01*
X81493Y422127D01*
X81493D01*
X81646Y421359D01*
X82081Y420708D01*
X84403Y418385D01*
X84486Y417969D01*
X85013Y417181D01*
X85122Y417108D01*
Y410241D01*
X73723D01*
X73370Y410477D01*
X72441Y410662D01*
X71512Y410477D01*
X70724Y409950D01*
X70198Y409163D01*
X70013Y408234D01*
X70198Y407305D01*
X70724Y406517D01*
X71512Y405991D01*
X72441Y405806D01*
X73370Y405991D01*
X73723Y406227D01*
X78956D01*
X79102Y405748D01*
X78712Y405488D01*
X78186Y404701D01*
X78001Y403772D01*
X78186Y402843D01*
X78712Y402055D01*
X79500Y401529D01*
X80429Y401344D01*
X81358Y401529D01*
X82146Y402055D01*
X82672Y402843D01*
X82857Y403772D01*
X82672Y404701D01*
X82146Y405488D01*
X81757Y405748D01*
X81902Y406227D01*
X85122D01*
Y333844D01*
X75298D01*
X74945Y334080D01*
X74016Y334265D01*
X73087Y334080D01*
X72299Y333554D01*
X71773Y332766D01*
X71588Y331837D01*
X71773Y330908D01*
X72299Y330120D01*
X73087Y329594D01*
X74016Y329409D01*
X74945Y329594D01*
X75298Y329830D01*
X85122D01*
Y318255D01*
X82081Y315214D01*
X81646Y314563D01*
X81493Y313794D01*
Y304016D01*
X81493Y304016D01*
X81493D01*
X81646Y303249D01*
X82081Y302597D01*
X84328Y300350D01*
X84149Y300016D01*
X84051Y299918D01*
X84000Y299928D01*
X83071Y299743D01*
X82283Y299217D01*
X82282Y299214D01*
X54210D01*
X50714Y302710D01*
Y318000D01*
X50584Y318656D01*
X50212Y319212D01*
X47643Y321781D01*
Y329641D01*
X48122Y329786D01*
X48183Y329694D01*
X48971Y329167D01*
X49900Y328982D01*
X50829Y329167D01*
X51617Y329694D01*
X52143Y330481D01*
X52328Y331410D01*
X52143Y332339D01*
X51617Y333127D01*
X50829Y333653D01*
X49900Y333838D01*
X48971Y333653D01*
X48183Y333127D01*
X48122Y333035D01*
X47643Y333180D01*
Y408144D01*
X48122Y408289D01*
X48612Y407555D01*
X49400Y407029D01*
X50329Y406844D01*
X51258Y407029D01*
X52046Y407555D01*
X52572Y408343D01*
X52757Y409272D01*
X52572Y410201D01*
X52046Y410988D01*
X51258Y411515D01*
X50329Y411699D01*
X49400Y411515D01*
X48612Y410988D01*
X48122Y410254D01*
X47643Y410399D01*
Y427715D01*
X47646Y427717D01*
X48172Y428505D01*
X48357Y429434D01*
X48172Y430363D01*
X47646Y431150D01*
Y431367D01*
X48172Y432155D01*
X48357Y433084D01*
X48172Y434013D01*
X47646Y434800D01*
X46858Y435327D01*
X45929Y435512D01*
X45000Y435327D01*
X44212Y434800D01*
X43686Y434013D01*
X43501Y433084D01*
X43502Y433081D01*
X42658Y432237D01*
X42217Y432473D01*
X42347Y433126D01*
X42162Y434055D01*
X41927Y434408D01*
Y472537D01*
X42162Y472890D01*
X42347Y473819D01*
X42162Y474749D01*
X41636Y475536D01*
X40848Y476062D01*
X39919Y476247D01*
X38990Y476062D01*
X38203Y475536D01*
X37677Y474749D01*
X37492Y473819D01*
X37677Y472890D01*
X37912Y472537D01*
Y434408D01*
X37677Y434055D01*
X37492Y433126D01*
X37677Y432197D01*
X37912Y431844D01*
Y316282D01*
X37677Y315929D01*
X37492Y315000D01*
X37677Y314071D01*
X37912Y313718D01*
Y256035D01*
X37659Y255841D01*
X37245Y255302D01*
X36985Y254674D01*
X36897Y254000D01*
X36985Y253326D01*
X37245Y252698D01*
X37659Y252159D01*
X37912Y251965D01*
Y198782D01*
X37677Y198429D01*
X37492Y197500D01*
X37677Y196571D01*
X37912Y196218D01*
Y80901D01*
X37677Y80549D01*
X37492Y79619D01*
X37677Y78690D01*
X38203Y77903D01*
X38990Y77377D01*
X39919Y77192D01*
X40848Y77377D01*
X41286Y76722D01*
Y12500D01*
X41279D01*
X41437Y10896D01*
X41905Y9354D01*
X42665Y7933D01*
X43687Y6687D01*
X44933Y5665D01*
X46354Y4905D01*
X47896Y4437D01*
X49500Y4279D01*
Y4286D01*
X151209D01*
X151245Y4198D01*
X151659Y3659D01*
X152198Y3245D01*
X152826Y2985D01*
X153500Y2897D01*
X154174Y2985D01*
X154802Y3245D01*
X155341Y3659D01*
X155755Y4198D01*
X155791Y4286D01*
X173854D01*
X174172Y3900D01*
X174072Y3400D01*
X174257Y2471D01*
X174468Y2155D01*
X174232Y1714D01*
X3104D01*
X3035Y1743D01*
X2304Y2304D01*
X1743Y3035D01*
X1714Y3104D01*
Y497396D01*
X1780Y497615D01*
X2533Y499022D01*
X3545Y500255D01*
X4778Y501267D01*
X6185Y502020D01*
X6856Y502223D01*
X311726D01*
X311915Y502145D01*
D02*
G37*
G36*
X87286Y56172D02*
Y18367D01*
X87159Y18270D01*
X86745Y17731D01*
X86485Y17103D01*
X86397Y16429D01*
X86485Y15755D01*
X86745Y15127D01*
X87159Y14588D01*
X87698Y14174D01*
X88326Y13914D01*
X89000Y13826D01*
X89674Y13914D01*
X89870Y13996D01*
X90286Y13718D01*
Y13500D01*
X90283D01*
X90426Y12409D01*
X90848Y11391D01*
X91407Y10662D01*
X91186Y10214D01*
X50500D01*
X50477Y10210D01*
X49759Y10304D01*
X49068Y10590D01*
X48475Y11045D01*
X48019Y11639D01*
X47733Y12330D01*
X47639Y13048D01*
X47643Y13071D01*
Y51571D01*
X47643Y51571D01*
X47643Y51571D01*
Y51571D01*
Y53994D01*
X48141Y54043D01*
X48157Y53961D01*
X48683Y53173D01*
X49471Y52647D01*
X50400Y52462D01*
X51329Y52647D01*
X52117Y53173D01*
X52643Y53961D01*
X52828Y54890D01*
X52723Y55419D01*
X53040Y55805D01*
X70318D01*
X70554Y55364D01*
X70198Y54832D01*
X70013Y53903D01*
X70198Y52974D01*
X70724Y52187D01*
X71512Y51660D01*
X72441Y51475D01*
X73370Y51660D01*
X74158Y52187D01*
X74684Y52974D01*
X74869Y53903D01*
X74684Y54832D01*
X74158Y55620D01*
X74214Y55805D01*
X82581D01*
X82679Y55678D01*
X83218Y55265D01*
X83846Y55005D01*
X84519Y54916D01*
X85193Y55005D01*
X85821Y55265D01*
X86360Y55678D01*
X86774Y56218D01*
X86796Y56270D01*
X87286Y56172D01*
D02*
G37*
G36*
X52288Y296288D02*
X52844Y295916D01*
X53500Y295786D01*
X82282D01*
X82283Y295783D01*
X83071Y295257D01*
X84000Y295072D01*
X84736Y295219D01*
X85122Y294901D01*
Y292131D01*
X73723D01*
X73370Y292367D01*
X72441Y292551D01*
X71512Y292367D01*
X70724Y291840D01*
X70198Y291053D01*
X70013Y290124D01*
X70198Y289195D01*
X70724Y288407D01*
X71512Y287881D01*
X72441Y287696D01*
X73370Y287881D01*
X73723Y288117D01*
X79104D01*
X79249Y287638D01*
X78783Y287327D01*
X78257Y286539D01*
X78072Y285610D01*
X78257Y284681D01*
X78783Y283894D01*
X79571Y283367D01*
X80500Y283183D01*
X81429Y283367D01*
X82217Y283894D01*
X82743Y284681D01*
X82928Y285610D01*
X82743Y286539D01*
X82217Y287327D01*
X81751Y287638D01*
X81896Y288117D01*
X85122D01*
Y255792D01*
X84745Y255302D01*
X84485Y254674D01*
X84397Y254000D01*
X84485Y253326D01*
X84745Y252698D01*
X85122Y252207D01*
Y215734D01*
X75424D01*
X75071Y215970D01*
X74142Y216155D01*
X73213Y215970D01*
X72425Y215443D01*
X71899Y214656D01*
X71714Y213727D01*
X71899Y212798D01*
X72425Y212010D01*
X73213Y211484D01*
X74142Y211299D01*
X75071Y211484D01*
X75424Y211720D01*
X85122D01*
Y200595D01*
X84886Y200242D01*
X84803Y199826D01*
X82281Y197303D01*
X81846Y196652D01*
X81693Y195884D01*
Y185706D01*
X81693Y185706D01*
X81693D01*
X81846Y184938D01*
X82281Y184287D01*
X84106Y182462D01*
X84000Y181928D01*
X83071Y181743D01*
X82283Y181217D01*
X82282Y181214D01*
X53710D01*
X51214Y183710D01*
Y198500D01*
X51105Y199047D01*
X51084Y199156D01*
X50712Y199712D01*
X47643Y202781D01*
Y211930D01*
X48122Y212076D01*
X48183Y211983D01*
X48971Y211457D01*
X49900Y211272D01*
X50829Y211457D01*
X51617Y211983D01*
X52143Y212771D01*
X52328Y213700D01*
X52143Y214629D01*
X51617Y215417D01*
X50829Y215943D01*
X49900Y216128D01*
X48971Y215943D01*
X48183Y215417D01*
X48122Y215324D01*
X47643Y215470D01*
Y290214D01*
X48141Y290263D01*
X48157Y290181D01*
X48683Y289394D01*
X49471Y288867D01*
X50400Y288683D01*
X51329Y288867D01*
X52117Y289394D01*
X52643Y290181D01*
X52828Y291110D01*
X52643Y292039D01*
X52117Y292827D01*
X51329Y293353D01*
X50400Y293538D01*
X49471Y293353D01*
X48683Y292827D01*
X48157Y292039D01*
X48141Y291957D01*
X47643Y292006D01*
Y300280D01*
X48105Y300471D01*
X52288Y296288D01*
D02*
G37*
G36*
X48288Y181788D02*
X51788Y178288D01*
X52344Y177916D01*
X53000Y177786D01*
X82282D01*
X82283Y177783D01*
X83071Y177257D01*
X84000Y177072D01*
X84736Y177219D01*
X85122Y176901D01*
Y174021D01*
X73723D01*
X73370Y174256D01*
X72441Y174441D01*
X71512Y174256D01*
X70724Y173730D01*
X70198Y172942D01*
X70013Y172013D01*
X70198Y171084D01*
X70724Y170297D01*
X71512Y169770D01*
X72441Y169586D01*
X73370Y169770D01*
X73723Y170006D01*
X78513D01*
X78749Y169565D01*
X78257Y168829D01*
X78072Y167900D01*
X78257Y166971D01*
X78783Y166183D01*
X79571Y165657D01*
X80500Y165472D01*
X81429Y165657D01*
X82217Y166183D01*
X82743Y166971D01*
X82928Y167900D01*
X82743Y168829D01*
X82217Y169617D01*
X82335Y170006D01*
X85122D01*
Y97331D01*
X75860D01*
X75858Y97333D01*
X75071Y97860D01*
X74142Y98044D01*
X73213Y97860D01*
X72425Y97333D01*
X71899Y96546D01*
X71714Y95617D01*
X71899Y94687D01*
X72425Y93900D01*
X73213Y93374D01*
X74142Y93189D01*
X75071Y93374D01*
X75858Y93900D01*
X75860Y93902D01*
X85122D01*
Y83933D01*
X85134Y83875D01*
X85019Y83008D01*
X84662Y82146D01*
X84106Y81421D01*
X84081Y81419D01*
X84081D01*
X83790Y80984D01*
X83511Y80658D01*
X82647Y79248D01*
X82015Y77720D01*
X81629Y76113D01*
X81503Y74515D01*
X81493Y74464D01*
Y67000D01*
X81499Y66968D01*
X81640Y65898D01*
X82065Y64872D01*
X82742Y63990D01*
X83623Y63313D01*
X84425Y62982D01*
X84513Y62850D01*
X85300Y62324D01*
X86229Y62139D01*
X86900Y62273D01*
X87286Y61955D01*
Y58867D01*
X86796Y58769D01*
X86774Y58821D01*
X86360Y59360D01*
X85821Y59774D01*
X85193Y60034D01*
X84519Y60123D01*
X83846Y60034D01*
X83218Y59774D01*
X82679Y59360D01*
X82581Y59233D01*
X51981D01*
X51962Y59230D01*
X51493Y59323D01*
X51080Y59599D01*
X50804Y60013D01*
X50710Y60481D01*
X50714Y60500D01*
Y81000D01*
X50584Y81656D01*
X50212Y82212D01*
X47643Y84781D01*
Y93420D01*
X48122Y93565D01*
X48183Y93473D01*
X48971Y92947D01*
X49900Y92762D01*
X50829Y92947D01*
X51617Y93473D01*
X52143Y94261D01*
X52328Y95190D01*
X52143Y96119D01*
X51617Y96906D01*
X50829Y97433D01*
X49900Y97618D01*
X48971Y97433D01*
X48183Y96906D01*
X48122Y96814D01*
X47643Y96959D01*
Y172504D01*
X48141Y172553D01*
X48157Y172471D01*
X48683Y171683D01*
X49471Y171157D01*
X50400Y170972D01*
X51329Y171157D01*
X52117Y171683D01*
X52643Y172471D01*
X52828Y173400D01*
X52643Y174329D01*
X52117Y175117D01*
X51329Y175643D01*
X50400Y175828D01*
X49471Y175643D01*
X48683Y175117D01*
X48157Y174329D01*
X48141Y174247D01*
X47643Y174296D01*
Y181892D01*
X48122Y182037D01*
X48288Y181788D01*
D02*
G37*
G36*
X194958Y169567D02*
Y97624D01*
X185660D01*
X185307Y97860D01*
X184378Y98044D01*
X183449Y97860D01*
X182661Y97333D01*
X182135Y96546D01*
X181950Y95617D01*
X182135Y94687D01*
X182661Y93900D01*
X183449Y93374D01*
X184378Y93189D01*
X185307Y93374D01*
X185660Y93609D01*
X194958D01*
Y81634D01*
X192581Y79257D01*
X192146Y78606D01*
X191993Y77838D01*
Y67532D01*
X191993Y67532D01*
X191993D01*
X192146Y66764D01*
X192581Y66113D01*
X194127Y64567D01*
X185470Y55910D01*
X183959D01*
X183606Y56146D01*
X182677Y56331D01*
X181748Y56146D01*
X180961Y55620D01*
X180434Y54832D01*
X180249Y53903D01*
X180434Y52974D01*
X180961Y52187D01*
X181748Y51660D01*
X182677Y51475D01*
X183606Y51660D01*
X183959Y51896D01*
X186302D01*
X187070Y52049D01*
X187721Y52484D01*
X197478Y62241D01*
X197894Y62324D01*
X198286Y62115D01*
Y58998D01*
X197698Y58755D01*
X197159Y58341D01*
X196745Y57802D01*
X196485Y57174D01*
X196397Y56500D01*
X196485Y55826D01*
X196745Y55198D01*
X197159Y54659D01*
X197698Y54245D01*
X198286Y54002D01*
Y32142D01*
X198301Y32065D01*
X198149Y30521D01*
X197676Y28962D01*
X196909Y27526D01*
X195924Y26327D01*
X195859Y26283D01*
X187217Y17641D01*
X187173Y17575D01*
X185974Y16591D01*
X184537Y15824D01*
X182979Y15351D01*
X181435Y15199D01*
X181358Y15214D01*
X156211D01*
X155933Y15630D01*
X156015Y15826D01*
X156103Y16500D01*
X156015Y17174D01*
X155755Y17802D01*
X155341Y18341D01*
X155214Y18438D01*
Y72471D01*
X155601Y72788D01*
X156165Y72675D01*
X157094Y72860D01*
X157882Y73387D01*
X157884Y73389D01*
X158603D01*
X159259Y73520D01*
X159815Y73891D01*
X159815Y73891D01*
X159815Y73891D01*
X160712Y74788D01*
X161084Y75344D01*
X161214Y76000D01*
X161214Y76000D01*
X161214Y76000D01*
Y76000D01*
Y78359D01*
X161224Y78438D01*
X161214D01*
Y80500D01*
Y93046D01*
X161853Y93473D01*
X162379Y94261D01*
X162564Y95190D01*
X162379Y96119D01*
X161853Y96906D01*
X161214Y97333D01*
Y165150D01*
X161712Y165199D01*
X161757Y164971D01*
X162283Y164183D01*
X163071Y163657D01*
X164000Y163472D01*
X164929Y163657D01*
X165717Y164183D01*
X166243Y164971D01*
X166428Y165900D01*
X166243Y166829D01*
X166232Y166845D01*
X166468Y167286D01*
X185274D01*
X185419Y166807D01*
X185283Y166717D01*
X184757Y165929D01*
X184572Y165000D01*
X184757Y164071D01*
X185283Y163283D01*
X186071Y162757D01*
X187000Y162572D01*
X187929Y162757D01*
X188717Y163283D01*
X189243Y164071D01*
X189428Y165000D01*
X189243Y165929D01*
X188717Y166717D01*
X187929Y167243D01*
X187929Y167243D01*
X187929D01*
Y167243D01*
X187933Y167286D01*
X190281D01*
X190283Y167283D01*
X191071Y166757D01*
X192000Y166572D01*
X192929Y166757D01*
X193717Y167283D01*
X194243Y168071D01*
X194428Y169000D01*
X194289Y169695D01*
X194529Y169824D01*
X194958Y169567D01*
D02*
G37*
%LPC*%
G36*
X176436Y218138D02*
X175507Y217953D01*
X174720Y217427D01*
X174193Y216639D01*
X174009Y215710D01*
X174193Y214781D01*
X174720Y213994D01*
X175507Y213467D01*
X176436Y213282D01*
X177365Y213467D01*
X178153Y213994D01*
X178679Y214781D01*
X178864Y215710D01*
X178679Y216639D01*
X178153Y217427D01*
X177365Y217953D01*
X176436Y218138D01*
D02*
G37*
G36*
X160136Y215728D02*
X159207Y215543D01*
X158420Y215017D01*
X157893Y214229D01*
X157709Y213300D01*
X157893Y212371D01*
X158420Y211583D01*
X159207Y211057D01*
X160136Y210872D01*
X161065Y211057D01*
X161853Y211583D01*
X162379Y212371D01*
X162564Y213300D01*
X162379Y214229D01*
X161853Y215017D01*
X161065Y215543D01*
X160136Y215728D01*
D02*
G37*
G36*
X66500Y218828D02*
X65571Y218643D01*
X64783Y218117D01*
X64257Y217329D01*
X64072Y216400D01*
X64257Y215471D01*
X64783Y214683D01*
X65571Y214157D01*
X66500Y213972D01*
X67429Y214157D01*
X68217Y214683D01*
X68743Y215471D01*
X68928Y216400D01*
X68743Y217329D01*
X68217Y218117D01*
X67429Y218643D01*
X66500Y218828D01*
D02*
G37*
G36*
X80200Y221828D02*
X79271Y221643D01*
X78483Y221117D01*
X77957Y220329D01*
X77772Y219400D01*
X77957Y218471D01*
X78483Y217683D01*
X79271Y217157D01*
X80200Y216972D01*
X81129Y217157D01*
X81917Y217683D01*
X82443Y218471D01*
X82628Y219400D01*
X82443Y220329D01*
X81917Y221117D01*
X81129Y221643D01*
X80200Y221828D01*
D02*
G37*
G36*
X188400Y221328D02*
X187471Y221143D01*
X186683Y220617D01*
X186157Y219829D01*
X185972Y218900D01*
X186157Y217971D01*
X186683Y217183D01*
X187471Y216657D01*
X188400Y216472D01*
X189329Y216657D01*
X190117Y217183D01*
X190643Y217971D01*
X190828Y218900D01*
X190643Y219829D01*
X190117Y220617D01*
X189329Y221143D01*
X188400Y221328D01*
D02*
G37*
G36*
X253223Y18536D02*
X252478Y18438D01*
X251783Y18150D01*
X251187Y17692D01*
X250730Y17096D01*
X250442Y16402D01*
X250344Y15657D01*
X250442Y14912D01*
X250730Y14217D01*
X251187Y13621D01*
X251783Y13163D01*
X252478Y12876D01*
X253223Y12778D01*
X253968Y12876D01*
X254662Y13163D01*
X255259Y13621D01*
X255716Y14217D01*
X256004Y14912D01*
X256102Y15657D01*
X256004Y16402D01*
X255716Y17096D01*
X255259Y17692D01*
X254662Y18150D01*
X253968Y18438D01*
X253223Y18536D01*
D02*
G37*
G36*
X268577D02*
X267832Y18438D01*
X267138Y18150D01*
X266541Y17692D01*
X266084Y17096D01*
X265796Y16402D01*
X265698Y15657D01*
X265796Y14912D01*
X266084Y14217D01*
X266541Y13621D01*
X267138Y13163D01*
X267832Y12876D01*
X268577Y12778D01*
X269322Y12876D01*
X270017Y13163D01*
X270613Y13621D01*
X271070Y14217D01*
X271358Y14912D01*
X271456Y15657D01*
X271358Y16402D01*
X271070Y17096D01*
X270613Y17692D01*
X270017Y18150D01*
X269322Y18438D01*
X268577Y18536D01*
D02*
G37*
G36*
X104561Y182128D02*
X103632Y181943D01*
X102844Y181417D01*
X102318Y180629D01*
X102133Y179700D01*
X102318Y178771D01*
X102844Y177983D01*
X103632Y177457D01*
X104561Y177272D01*
X105490Y177457D01*
X106277Y177983D01*
X106804Y178771D01*
X106988Y179700D01*
X106804Y180629D01*
X106277Y181417D01*
X105490Y181943D01*
X104561Y182128D01*
D02*
G37*
G36*
X264000Y194603D02*
X263326Y194515D01*
X262698Y194255D01*
X262159Y193841D01*
X261745Y193302D01*
X261485Y192674D01*
X261397Y192000D01*
X261485Y191326D01*
X261745Y190698D01*
X262159Y190159D01*
X262698Y189745D01*
X263326Y189485D01*
X264000Y189397D01*
X264674Y189485D01*
X265302Y189745D01*
X265841Y190159D01*
X266255Y190698D01*
X266515Y191326D01*
X266603Y192000D01*
X266515Y192674D01*
X266255Y193302D01*
X265841Y193841D01*
X265302Y194255D01*
X264674Y194515D01*
X264000Y194603D01*
D02*
G37*
G36*
X215000Y182128D02*
X214071Y181943D01*
X213283Y181417D01*
X212757Y180629D01*
X212572Y179700D01*
X212757Y178771D01*
X213283Y177983D01*
X214071Y177457D01*
X215000Y177272D01*
X215929Y177457D01*
X216717Y177983D01*
X217243Y178771D01*
X217428Y179700D01*
X217243Y180629D01*
X216717Y181417D01*
X215929Y181943D01*
X215000Y182128D01*
D02*
G37*
G36*
X173577Y235928D02*
X172648Y235743D01*
X171860Y235217D01*
X171334Y234429D01*
X171149Y233500D01*
X171334Y232571D01*
X171860Y231783D01*
X172648Y231257D01*
X173577Y231072D01*
X174506Y231257D01*
X175294Y231783D01*
X175820Y232571D01*
X176005Y233500D01*
X175820Y234429D01*
X175294Y235217D01*
X174506Y235743D01*
X173577Y235928D01*
D02*
G37*
G36*
X157254D02*
X156325Y235743D01*
X155538Y235217D01*
X155011Y234429D01*
X154826Y233500D01*
X155011Y232571D01*
X155538Y231783D01*
X156325Y231257D01*
X157254Y231072D01*
X158183Y231257D01*
X158971Y231783D01*
X159497Y232571D01*
X159682Y233500D01*
X159497Y234429D01*
X158971Y235217D01*
X158183Y235743D01*
X157254Y235928D01*
D02*
G37*
G36*
X238400Y241428D02*
X237471Y241243D01*
X236683Y240717D01*
X236157Y239929D01*
X235972Y239000D01*
X236157Y238071D01*
X236683Y237283D01*
X237471Y236757D01*
X238400Y236572D01*
X239329Y236757D01*
X240117Y237283D01*
X240643Y238071D01*
X240828Y239000D01*
X240643Y239929D01*
X240117Y240717D01*
X239329Y241243D01*
X238400Y241428D01*
D02*
G37*
G36*
X58700Y242628D02*
X57771Y242443D01*
X56983Y241917D01*
X56457Y241129D01*
X56272Y240200D01*
X56457Y239271D01*
X56983Y238483D01*
X57771Y237957D01*
X58700Y237772D01*
X59629Y237957D01*
X60417Y238483D01*
X60943Y239271D01*
X61128Y240200D01*
X60943Y241129D01*
X60417Y241917D01*
X59629Y242443D01*
X58700Y242628D01*
D02*
G37*
G36*
X248232Y241428D02*
X247302Y241243D01*
X246515Y240717D01*
X245988Y239929D01*
X245804Y239000D01*
X245988Y238071D01*
X246515Y237283D01*
X247302Y236757D01*
X248232Y236572D01*
X249161Y236757D01*
X249948Y237283D01*
X250474Y238071D01*
X250659Y239000D01*
X250474Y239929D01*
X249948Y240717D01*
X249161Y241243D01*
X248232Y241428D01*
D02*
G37*
G36*
X54300Y222428D02*
X53371Y222243D01*
X52583Y221717D01*
X52057Y220929D01*
X51872Y220000D01*
X52057Y219071D01*
X52583Y218283D01*
X53371Y217757D01*
X54300Y217572D01*
X55229Y217757D01*
X56017Y218283D01*
X56543Y219071D01*
X56728Y220000D01*
X56543Y220929D01*
X56017Y221717D01*
X55229Y222243D01*
X54300Y222428D01*
D02*
G37*
G36*
X164536Y222028D02*
X163607Y221843D01*
X162820Y221317D01*
X162293Y220529D01*
X162109Y219600D01*
X162293Y218671D01*
X162820Y217883D01*
X163607Y217357D01*
X164536Y217172D01*
X165465Y217357D01*
X166253Y217883D01*
X166779Y218671D01*
X166964Y219600D01*
X166779Y220529D01*
X166253Y221317D01*
X165465Y221843D01*
X164536Y222028D01*
D02*
G37*
G36*
X108286Y235928D02*
X107357Y235743D01*
X106569Y235217D01*
X106043Y234429D01*
X105858Y233500D01*
X106043Y232571D01*
X106569Y231783D01*
X107357Y231257D01*
X108286Y231072D01*
X109215Y231257D01*
X110002Y231783D01*
X110529Y232571D01*
X110714Y233500D01*
X110529Y234429D01*
X110002Y235217D01*
X109215Y235743D01*
X108286Y235928D01*
D02*
G37*
G36*
X140931D02*
X140002Y235743D01*
X139215Y235217D01*
X138689Y234429D01*
X138504Y233500D01*
X138689Y232571D01*
X139215Y231783D01*
X140002Y231257D01*
X140931Y231072D01*
X141860Y231257D01*
X142648Y231783D01*
X143174Y232571D01*
X143359Y233500D01*
X143174Y234429D01*
X142648Y235217D01*
X141860Y235743D01*
X140931Y235928D01*
D02*
G37*
G36*
X124609D02*
X123679Y235743D01*
X122892Y235217D01*
X122366Y234429D01*
X122181Y233500D01*
X122366Y232571D01*
X122892Y231783D01*
X123679Y231257D01*
X124609Y231072D01*
X125538Y231257D01*
X126325Y231783D01*
X126851Y232571D01*
X127036Y233500D01*
X126851Y234429D01*
X126325Y235217D01*
X125538Y235743D01*
X124609Y235928D01*
D02*
G37*
G36*
X66600Y170228D02*
X65671Y170043D01*
X64883Y169517D01*
X64357Y168729D01*
X64172Y167800D01*
X64357Y166871D01*
X64883Y166083D01*
X65671Y165557D01*
X66600Y165372D01*
X67529Y165557D01*
X68317Y166083D01*
X68843Y166871D01*
X69028Y167800D01*
X68843Y168729D01*
X68317Y169517D01*
X67529Y170043D01*
X66600Y170228D01*
D02*
G37*
G36*
X55600Y51517D02*
X54671Y51333D01*
X53883Y50806D01*
X53357Y50019D01*
X53172Y49090D01*
X53357Y48161D01*
X53883Y47373D01*
X54671Y46847D01*
X55600Y46662D01*
X56529Y46847D01*
X57317Y47373D01*
X57843Y48161D01*
X58028Y49090D01*
X57843Y50019D01*
X57317Y50806D01*
X56529Y51333D01*
X55600Y51517D01*
D02*
G37*
G36*
X160636Y57318D02*
X159707Y57133D01*
X158920Y56606D01*
X158393Y55819D01*
X158209Y54890D01*
X158393Y53961D01*
X158920Y53173D01*
X159707Y52647D01*
X160636Y52462D01*
X161565Y52647D01*
X162353Y53173D01*
X162879Y53961D01*
X163064Y54890D01*
X162879Y55819D01*
X162353Y56606D01*
X161565Y57133D01*
X160636Y57318D01*
D02*
G37*
G36*
X104700Y64028D02*
X103771Y63843D01*
X102983Y63317D01*
X102457Y62529D01*
X102272Y61600D01*
X102457Y60671D01*
X102983Y59883D01*
X103771Y59357D01*
X104700Y59172D01*
X105629Y59357D01*
X106417Y59883D01*
X106943Y60671D01*
X107128Y61600D01*
X106943Y62529D01*
X106417Y63317D01*
X105629Y63843D01*
X104700Y64028D01*
D02*
G37*
G36*
X176000Y99628D02*
X175071Y99443D01*
X174283Y98917D01*
X173757Y98129D01*
X173572Y97200D01*
X173757Y96271D01*
X174283Y95483D01*
X175071Y94957D01*
X176000Y94772D01*
X176929Y94957D01*
X177717Y95483D01*
X178243Y96271D01*
X178428Y97200D01*
X178243Y98129D01*
X177717Y98917D01*
X176929Y99443D01*
X176000Y99628D01*
D02*
G37*
G36*
X293504Y50197D02*
X285236D01*
Y41929D01*
X293504D01*
Y50197D01*
D02*
G37*
G36*
X80500Y51818D02*
X79571Y51633D01*
X78783Y51106D01*
X78257Y50319D01*
X78072Y49390D01*
X78257Y48461D01*
X78783Y47673D01*
X79571Y47147D01*
X80500Y46962D01*
X81429Y47147D01*
X82217Y47673D01*
X82743Y48461D01*
X82928Y49390D01*
X82743Y50319D01*
X82217Y51106D01*
X81429Y51633D01*
X80500Y51818D01*
D02*
G37*
G36*
X165836Y51517D02*
X164907Y51333D01*
X164120Y50806D01*
X163593Y50019D01*
X163409Y49090D01*
X163593Y48161D01*
X164120Y47373D01*
X164907Y46847D01*
X165836Y46662D01*
X166765Y46847D01*
X167553Y47373D01*
X168079Y48161D01*
X168264Y49090D01*
X168079Y50019D01*
X167553Y50806D01*
X166765Y51333D01*
X165836Y51517D01*
D02*
G37*
G36*
X190736Y51818D02*
X189807Y51633D01*
X189020Y51106D01*
X188493Y50319D01*
X188309Y49390D01*
X188493Y48461D01*
X189020Y47673D01*
X189807Y47147D01*
X190736Y46962D01*
X191665Y47147D01*
X192453Y47673D01*
X192979Y48461D01*
X193164Y49390D01*
X192979Y50319D01*
X192453Y51106D01*
X191665Y51633D01*
X190736Y51818D01*
D02*
G37*
G36*
X175900Y54428D02*
X174971Y54243D01*
X174183Y53717D01*
X173657Y52929D01*
X173472Y52000D01*
X173657Y51071D01*
X174183Y50283D01*
X174971Y49757D01*
X175900Y49572D01*
X176829Y49757D01*
X177617Y50283D01*
X178143Y51071D01*
X178328Y52000D01*
X178143Y52929D01*
X177617Y53717D01*
X176829Y54243D01*
X175900Y54428D01*
D02*
G37*
G36*
X66100Y53928D02*
X65171Y53743D01*
X64383Y53217D01*
X63857Y52429D01*
X63672Y51500D01*
X63857Y50571D01*
X64383Y49783D01*
X65171Y49257D01*
X66100Y49072D01*
X67029Y49257D01*
X67817Y49783D01*
X68343Y50571D01*
X68528Y51500D01*
X68343Y52429D01*
X67817Y53217D01*
X67029Y53743D01*
X66100Y53928D01*
D02*
G37*
G36*
X280000Y281177D02*
X279178Y281068D01*
X278412Y280751D01*
X277754Y280246D01*
X277249Y279588D01*
X276932Y278822D01*
X276823Y278000D01*
X276932Y277178D01*
X277249Y276412D01*
X277754Y275754D01*
X287825Y265683D01*
X287860Y265656D01*
X288682Y264654D01*
X289313Y263473D01*
X289702Y262191D01*
X289829Y260902D01*
X289823Y260858D01*
Y215000D01*
Y179000D01*
Y137000D01*
X289828Y136963D01*
X289707Y135734D01*
X289338Y134517D01*
X288738Y133395D01*
X287937Y132419D01*
X287925Y132418D01*
X287925D01*
X287528Y131900D01*
X287340Y131822D01*
X286683Y131317D01*
X284383Y129017D01*
X284373Y129027D01*
X283029Y127453D01*
X281947Y125688D01*
X281155Y123776D01*
X280672Y121763D01*
X280510Y119700D01*
X280523D01*
Y94316D01*
X273254Y87046D01*
X272749Y86388D01*
X272431Y85622D01*
X272323Y84800D01*
Y68771D01*
X271845Y68626D01*
X271517Y69117D01*
X270729Y69643D01*
X269800Y69828D01*
X268871Y69643D01*
X268083Y69117D01*
X267557Y68329D01*
X267372Y67400D01*
X267557Y66471D01*
X268083Y65683D01*
X268871Y65157D01*
X269800Y64972D01*
X270729Y65157D01*
X271517Y65683D01*
X271875Y66220D01*
X272362Y66106D01*
X272431Y65578D01*
X272749Y64812D01*
X273254Y64154D01*
X273912Y63649D01*
X274678Y63332D01*
X275500Y63223D01*
X276322Y63332D01*
X277088Y63649D01*
X277746Y64154D01*
X278251Y64812D01*
X278569Y65578D01*
X278677Y66400D01*
Y70929D01*
X279155Y71074D01*
X279483Y70583D01*
X280271Y70057D01*
X281200Y69872D01*
X281899Y70011D01*
X282286Y69694D01*
Y58710D01*
X281890Y58314D01*
X270927D01*
X270782Y58793D01*
X271517Y59283D01*
X272043Y60071D01*
X272228Y61000D01*
X272043Y61929D01*
X271517Y62717D01*
X270729Y63243D01*
X269800Y63428D01*
X268871Y63243D01*
X268083Y62717D01*
X267557Y61929D01*
X267372Y61000D01*
X267557Y60071D01*
X268083Y59283D01*
X268818Y58793D01*
X268673Y58314D01*
X262118D01*
X262117Y58317D01*
X261329Y58843D01*
X260400Y59028D01*
X259471Y58843D01*
X258683Y58317D01*
X258157Y57529D01*
X257972Y56600D01*
X258157Y55671D01*
X258683Y54883D01*
X259471Y54357D01*
X260400Y54172D01*
X261329Y54357D01*
X262117Y54883D01*
X262118Y54886D01*
X282600D01*
X283256Y55016D01*
X283812Y55388D01*
X283812Y55388D01*
X283812Y55388D01*
X285212Y56788D01*
X285584Y57344D01*
X285714Y58000D01*
X285714Y58000D01*
X285714Y58000D01*
Y58000D01*
Y81782D01*
X285717Y81783D01*
X286243Y82571D01*
X286428Y83500D01*
X286243Y84429D01*
X285717Y85217D01*
X284929Y85743D01*
X284000Y85928D01*
X283071Y85743D01*
X282283Y85217D01*
X281757Y84429D01*
X281572Y83500D01*
X281757Y82571D01*
X282283Y81783D01*
X282286Y81782D01*
Y74906D01*
X281899Y74589D01*
X281200Y74728D01*
X280271Y74543D01*
X279483Y74017D01*
X279155Y73526D01*
X278677Y73671D01*
Y83484D01*
X285946Y90754D01*
X286451Y91412D01*
X286769Y92178D01*
X286877Y93000D01*
Y104786D01*
X287367Y104884D01*
X287601Y104320D01*
X288669Y102576D01*
X289997Y101021D01*
X291552Y99693D01*
X293296Y98624D01*
X295185Y97842D01*
X297174Y97364D01*
X299213Y97204D01*
X301251Y97364D01*
X303240Y97842D01*
X305129Y98624D01*
X306873Y99693D01*
X308428Y101021D01*
X309756Y102576D01*
X310824Y104320D01*
X311607Y106209D01*
X312084Y108197D01*
X312245Y110236D01*
X312084Y112275D01*
X311607Y114263D01*
X310824Y116153D01*
X309756Y117896D01*
X308428Y119451D01*
X306873Y120780D01*
X305129Y121848D01*
X303240Y122631D01*
X301251Y123108D01*
X299213Y123268D01*
X297174Y123108D01*
X295185Y122631D01*
X293296Y121848D01*
X291552Y120780D01*
X289997Y119451D01*
X288669Y117896D01*
X287601Y116153D01*
X287367Y115589D01*
X286877Y115686D01*
Y119700D01*
X286871Y119744D01*
X286998Y121033D01*
X287387Y122315D01*
X288018Y123496D01*
X288840Y124498D01*
X288875Y124525D01*
X291175Y126825D01*
X291573Y127343D01*
X291760Y127420D01*
X292418Y127925D01*
X292427Y127917D01*
X293736Y129449D01*
X294789Y131168D01*
X295561Y133030D01*
X296031Y134990D01*
X296189Y137000D01*
X296177D01*
Y179000D01*
Y215000D01*
Y260858D01*
X296190D01*
X296028Y262921D01*
X295545Y264934D01*
X294753Y266846D01*
X293671Y268611D01*
X292327Y270185D01*
X292317Y270175D01*
X292317Y270175D01*
X282246Y280246D01*
X281588Y280751D01*
X280822Y281068D01*
X280000Y281177D01*
D02*
G37*
G36*
X164536Y103918D02*
X163607Y103733D01*
X162820Y103206D01*
X162293Y102419D01*
X162109Y101490D01*
X162293Y100561D01*
X162820Y99773D01*
X163607Y99247D01*
X164536Y99062D01*
X165465Y99247D01*
X166253Y99773D01*
X166779Y100561D01*
X166964Y101490D01*
X166779Y102419D01*
X166253Y103206D01*
X165465Y103733D01*
X164536Y103918D01*
D02*
G37*
G36*
X255782Y43428D02*
X254853Y43243D01*
X254065Y42717D01*
X253539Y41929D01*
X253354Y41000D01*
X253539Y40071D01*
X254065Y39283D01*
X254853Y38757D01*
X255782Y38572D01*
X256711Y38757D01*
X257499Y39283D01*
X258025Y40071D01*
X258210Y41000D01*
X258025Y41929D01*
X257499Y42717D01*
X256711Y43243D01*
X255782Y43428D01*
D02*
G37*
G36*
X55600Y170028D02*
X54671Y169843D01*
X53883Y169317D01*
X53357Y168529D01*
X53172Y167600D01*
X53357Y166671D01*
X53883Y165883D01*
X54671Y165357D01*
X55600Y165172D01*
X56529Y165357D01*
X57317Y165883D01*
X57843Y166671D01*
X58028Y167600D01*
X57843Y168529D01*
X57317Y169317D01*
X56529Y169843D01*
X55600Y170028D01*
D02*
G37*
G36*
X269000Y157603D02*
X268326Y157515D01*
X267698Y157255D01*
X267159Y156841D01*
X266745Y156302D01*
X266485Y155674D01*
X266397Y155000D01*
X266485Y154326D01*
X266745Y153698D01*
X267159Y153159D01*
X267698Y152745D01*
X268326Y152485D01*
X269000Y152397D01*
X269674Y152485D01*
X270302Y152745D01*
X270841Y153159D01*
X271255Y153698D01*
X271515Y154326D01*
X271603Y155000D01*
X271515Y155674D01*
X271255Y156302D01*
X270841Y156841D01*
X270302Y157255D01*
X269674Y157515D01*
X269000Y157603D01*
D02*
G37*
G36*
X15748Y123268D02*
X13709Y123108D01*
X11721Y122631D01*
X9832Y121848D01*
X8088Y120780D01*
X6533Y119451D01*
X5205Y117896D01*
X4136Y116153D01*
X3354Y114263D01*
X2876Y112275D01*
X2716Y110236D01*
X2876Y108197D01*
X3354Y106209D01*
X4136Y104320D01*
X5205Y102576D01*
X6533Y101021D01*
X8088Y99693D01*
X9832Y98624D01*
X11721Y97842D01*
X13709Y97364D01*
X15748Y97204D01*
X17787Y97364D01*
X19775Y97842D01*
X21665Y98624D01*
X23408Y99693D01*
X24963Y101021D01*
X26291Y102576D01*
X27360Y104320D01*
X28142Y106209D01*
X28620Y108197D01*
X28780Y110236D01*
X28620Y112275D01*
X28142Y114263D01*
X27360Y116153D01*
X26291Y117896D01*
X24963Y119451D01*
X23408Y120780D01*
X21665Y121848D01*
X19775Y122631D01*
X17787Y123108D01*
X15748Y123268D01*
D02*
G37*
G36*
X66200Y100028D02*
X65271Y99843D01*
X64483Y99317D01*
X63957Y98529D01*
X63772Y97600D01*
X63957Y96671D01*
X64483Y95883D01*
X65271Y95357D01*
X66200Y95172D01*
X67129Y95357D01*
X67917Y95883D01*
X68443Y96671D01*
X68628Y97600D01*
X68443Y98529D01*
X67917Y99317D01*
X67129Y99843D01*
X66200Y100028D01*
D02*
G37*
G36*
X80200Y103317D02*
X79271Y103133D01*
X78483Y102606D01*
X77957Y101819D01*
X77772Y100890D01*
X77957Y99961D01*
X78483Y99173D01*
X79271Y98647D01*
X80200Y98462D01*
X81129Y98647D01*
X81917Y99173D01*
X82443Y99961D01*
X82628Y100890D01*
X82443Y101819D01*
X81917Y102606D01*
X81129Y103133D01*
X80200Y103317D01*
D02*
G37*
G36*
X54300Y103918D02*
X53371Y103733D01*
X52583Y103206D01*
X52057Y102419D01*
X51872Y101490D01*
X52057Y100561D01*
X52583Y99773D01*
X53371Y99247D01*
X54300Y99062D01*
X55229Y99247D01*
X56017Y99773D01*
X56543Y100561D01*
X56728Y101490D01*
X56543Y102419D01*
X56017Y103206D01*
X55229Y103733D01*
X54300Y103918D01*
D02*
G37*
G36*
X190436Y103317D02*
X189507Y103133D01*
X188719Y102606D01*
X188193Y101819D01*
X188008Y100890D01*
X188193Y99961D01*
X188719Y99173D01*
X189507Y98647D01*
X190436Y98462D01*
X191365Y98647D01*
X192153Y99173D01*
X192679Y99961D01*
X192864Y100890D01*
X192679Y101819D01*
X192153Y102606D01*
X191365Y103133D01*
X190436Y103317D01*
D02*
G37*
G36*
X75329Y242628D02*
X74400Y242443D01*
X73612Y241917D01*
X73086Y241129D01*
X72901Y240200D01*
X73086Y239271D01*
X73612Y238483D01*
X74400Y237957D01*
X75329Y237772D01*
X76258Y237957D01*
X77045Y238483D01*
X77571Y239271D01*
X77756Y240200D01*
X77571Y241129D01*
X77045Y241917D01*
X76258Y242443D01*
X75329Y242628D01*
D02*
G37*
G36*
X65900Y408828D02*
X64971Y408643D01*
X64183Y408117D01*
X63657Y407329D01*
X63472Y406400D01*
X63657Y405471D01*
X64183Y404683D01*
X64971Y404157D01*
X65900Y403972D01*
X66829Y404157D01*
X67617Y404683D01*
X68143Y405471D01*
X68328Y406400D01*
X68143Y407329D01*
X67617Y408117D01*
X66829Y408643D01*
X65900Y408828D01*
D02*
G37*
G36*
X55529Y405899D02*
X54600Y405715D01*
X53812Y405188D01*
X53286Y404401D01*
X53101Y403472D01*
X53286Y402543D01*
X53812Y401755D01*
X54600Y401229D01*
X55529Y401044D01*
X56458Y401229D01*
X57246Y401755D01*
X57772Y402543D01*
X57957Y403472D01*
X57772Y404401D01*
X57246Y405188D01*
X56458Y405715D01*
X55529Y405899D01*
D02*
G37*
G36*
X209761Y449542D02*
X206261D01*
X205535Y449446D01*
X204858Y449166D01*
X204277Y448721D01*
X203831Y448140D01*
X203551Y447463D01*
X203455Y446737D01*
X203551Y446011D01*
X203831Y445334D01*
X204277Y444754D01*
X204858Y444308D01*
X205535Y444028D01*
X206261Y443932D01*
X206956D01*
Y427542D01*
X206261D01*
X205535Y427447D01*
X204858Y427166D01*
X204277Y426721D01*
X203831Y426140D01*
X203551Y425463D01*
X203455Y424737D01*
X203551Y424011D01*
X203831Y423335D01*
X204277Y422753D01*
X204858Y422308D01*
X205535Y422027D01*
X206261Y421932D01*
X207050D01*
X207084Y421497D01*
X207500Y419765D01*
X208182Y418119D01*
X209113Y416600D01*
X210269Y415246D01*
X210277Y415253D01*
X214570Y410961D01*
Y410961D01*
X214555Y410946D01*
X214555Y410946D01*
X215641Y410113D01*
X216904Y409590D01*
X218261Y409411D01*
Y409432D01*
X221761D01*
X222487Y409527D01*
X223163Y409808D01*
X223744Y410253D01*
X224190Y410835D01*
X224470Y411511D01*
X224566Y412237D01*
X224470Y412963D01*
X224190Y413640D01*
X223744Y414221D01*
X223163Y414666D01*
X222487Y414947D01*
X221761Y415042D01*
X218423D01*
X214244Y419220D01*
X214174Y419275D01*
X213313Y420396D01*
X212739Y421783D01*
X212554Y423184D01*
X212566Y423273D01*
Y424737D01*
Y446737D01*
X212470Y447463D01*
X212190Y448140D01*
X211744Y448721D01*
X211163Y449166D01*
X210487Y449446D01*
X209761Y449542D01*
D02*
G37*
G36*
X49829Y451999D02*
X48900Y451815D01*
X48112Y451288D01*
X47586Y450501D01*
X47401Y449572D01*
X47586Y448643D01*
X48112Y447855D01*
X48900Y447329D01*
X49829Y447144D01*
X50758Y447329D01*
X51546Y447855D01*
X52072Y448643D01*
X52257Y449572D01*
X52072Y450501D01*
X51546Y451288D01*
X50758Y451815D01*
X49829Y451999D01*
D02*
G37*
G36*
X257261Y433042D02*
X256535Y432946D01*
X255858Y432666D01*
X255383Y432302D01*
X255271Y432227D01*
Y432227D01*
X255271Y432226D01*
X254966Y432022D01*
X254622Y431953D01*
X254605Y431955D01*
Y431951D01*
X245261D01*
X244605Y431821D01*
X244049Y431449D01*
X240549Y427949D01*
X240177Y427393D01*
X240047Y426737D01*
Y422598D01*
X239706Y422088D01*
X239537Y421237D01*
X239706Y420386D01*
X240188Y419664D01*
X240910Y419182D01*
X241761Y419013D01*
X242612Y419182D01*
X243333Y419664D01*
X243815Y420386D01*
X243985Y421237D01*
X243815Y422088D01*
X243475Y422598D01*
Y426027D01*
X245971Y428523D01*
X254605D01*
Y428518D01*
X254622Y428521D01*
X254966Y428452D01*
X255271Y428249D01*
X255271Y428247D01*
Y428247D01*
X255383Y428172D01*
X255858Y427808D01*
X256535Y427528D01*
X257261Y427432D01*
X257987Y427528D01*
X258663Y427808D01*
X259244Y428254D01*
X259690Y428834D01*
X259970Y429511D01*
X260066Y430237D01*
X259970Y430963D01*
X259690Y431640D01*
X259244Y432221D01*
X258663Y432666D01*
X257987Y432946D01*
X257261Y433042D01*
D02*
G37*
G36*
X299213Y406733D02*
X297174Y406573D01*
X295185Y406095D01*
X293296Y405313D01*
X291552Y404244D01*
X289997Y402916D01*
X288669Y401361D01*
X287601Y399617D01*
X286818Y397728D01*
X286341Y395740D01*
X286180Y393701D01*
X286341Y391662D01*
X286818Y389674D01*
X287601Y387784D01*
X288669Y386041D01*
X289997Y384486D01*
X291552Y383157D01*
X293296Y382089D01*
X295185Y381306D01*
X297174Y380829D01*
X299213Y380668D01*
X301251Y380829D01*
X303240Y381306D01*
X305129Y382089D01*
X306873Y383157D01*
X308428Y384486D01*
X309756Y386041D01*
X310824Y387784D01*
X311607Y389674D01*
X312084Y391662D01*
X312245Y393701D01*
X312084Y395740D01*
X311607Y397728D01*
X310824Y399617D01*
X309756Y401361D01*
X308428Y402916D01*
X306873Y404244D01*
X305129Y405313D01*
X303240Y406095D01*
X301251Y406573D01*
X299213Y406733D01*
D02*
G37*
G36*
X66800Y336128D02*
X65871Y335943D01*
X65083Y335417D01*
X64557Y334629D01*
X64372Y333700D01*
X64557Y332771D01*
X65083Y331983D01*
X65871Y331457D01*
X66800Y331272D01*
X67729Y331457D01*
X68517Y331983D01*
X69043Y332771D01*
X69228Y333700D01*
X69043Y334629D01*
X68517Y335417D01*
X67729Y335943D01*
X66800Y336128D01*
D02*
G37*
G36*
X104861Y299965D02*
X103932Y299780D01*
X103144Y299254D01*
X102618Y298466D01*
X102433Y297537D01*
X102618Y296608D01*
X103144Y295820D01*
X103932Y295294D01*
X104861Y295109D01*
X105790Y295294D01*
X106577Y295820D01*
X107104Y296608D01*
X107288Y297537D01*
X107104Y298466D01*
X106577Y299254D01*
X105790Y299780D01*
X104861Y299965D01*
D02*
G37*
G36*
X80200Y339538D02*
X79271Y339353D01*
X78483Y338827D01*
X77957Y338039D01*
X77772Y337110D01*
X77957Y336181D01*
X78483Y335394D01*
X79271Y334867D01*
X80200Y334682D01*
X81129Y334867D01*
X81917Y335394D01*
X82443Y336181D01*
X82628Y337110D01*
X82443Y338039D01*
X81917Y338827D01*
X81129Y339353D01*
X80200Y339538D01*
D02*
G37*
G36*
X15748Y406733D02*
X13709Y406573D01*
X11721Y406095D01*
X9832Y405313D01*
X8088Y404244D01*
X6533Y402916D01*
X5205Y401361D01*
X4136Y399617D01*
X3354Y397728D01*
X2876Y395740D01*
X2716Y393701D01*
X2876Y391662D01*
X3354Y389674D01*
X4136Y387784D01*
X5205Y386041D01*
X6533Y384486D01*
X8088Y383157D01*
X9832Y382089D01*
X11721Y381306D01*
X13709Y380829D01*
X15748Y380668D01*
X17787Y380829D01*
X19775Y381306D01*
X21665Y382089D01*
X23408Y383157D01*
X24963Y384486D01*
X26291Y386041D01*
X27360Y387784D01*
X28142Y389674D01*
X28620Y391662D01*
X28780Y393701D01*
X28620Y395740D01*
X28142Y397728D01*
X27360Y399617D01*
X26291Y401361D01*
X24963Y402916D01*
X23408Y404244D01*
X21665Y405313D01*
X19775Y406095D01*
X17787Y406573D01*
X15748Y406733D01*
D02*
G37*
G36*
X54300Y340138D02*
X53371Y339953D01*
X52583Y339427D01*
X52057Y338639D01*
X51872Y337710D01*
X52057Y336781D01*
X52583Y335994D01*
X53371Y335467D01*
X54300Y335282D01*
X55229Y335467D01*
X56017Y335994D01*
X56543Y336781D01*
X56728Y337710D01*
X56543Y338639D01*
X56017Y339427D01*
X55229Y339953D01*
X54300Y340138D01*
D02*
G37*
G36*
X200000Y475042D02*
X199274Y474946D01*
X198598Y474666D01*
X198017Y474221D01*
X197571Y473640D01*
X197291Y472963D01*
X197195Y472237D01*
X197291Y471511D01*
X197571Y470834D01*
X198017Y470254D01*
X198598Y469808D01*
X199274Y469527D01*
X200000Y469432D01*
X200726Y469527D01*
X201402Y469808D01*
X201983Y470254D01*
X202429Y470834D01*
X202710Y471511D01*
X202805Y472237D01*
X202710Y472963D01*
X202429Y473640D01*
X201983Y474221D01*
X201402Y474666D01*
X200726Y474946D01*
X200000Y475042D01*
D02*
G37*
G36*
X190000D02*
X189274Y474946D01*
X188598Y474666D01*
X188016Y474221D01*
X187571Y473640D01*
X187291Y472963D01*
X187195Y472237D01*
X187291Y471511D01*
X187571Y470834D01*
X188016Y470254D01*
X188598Y469808D01*
X189274Y469527D01*
X190000Y469432D01*
X190726Y469527D01*
X191402Y469808D01*
X191983Y470254D01*
X192429Y470834D01*
X192710Y471511D01*
X192805Y472237D01*
X192710Y472963D01*
X192429Y473640D01*
X191983Y474221D01*
X191402Y474666D01*
X190726Y474946D01*
X190000Y475042D01*
D02*
G37*
G36*
X150361Y479884D02*
X149635Y479788D01*
X148958Y479508D01*
X148377Y479062D01*
X147931Y478481D01*
X147651Y477805D01*
X147611Y477497D01*
X147111D01*
X147070Y477805D01*
X146790Y478481D01*
X146344Y479062D01*
X145763Y479508D01*
X145087Y479788D01*
X144361Y479884D01*
X143635Y479788D01*
X142958Y479508D01*
X142377Y479062D01*
X141931Y478481D01*
X141651Y477805D01*
X141556Y477079D01*
X141651Y476353D01*
X141931Y475676D01*
X142377Y475095D01*
X142958Y474649D01*
X143635Y474369D01*
X144361Y474274D01*
X144422Y474282D01*
X144726Y473885D01*
X144551Y473463D01*
X144456Y472737D01*
X144551Y472011D01*
X144831Y471335D01*
X144918Y471221D01*
X144668Y470788D01*
X144361Y470829D01*
X143635Y470733D01*
X142958Y470453D01*
X142377Y470007D01*
X141931Y469426D01*
X141651Y468750D01*
X141556Y468024D01*
X141651Y467298D01*
X141931Y466621D01*
X142377Y466040D01*
X142958Y465594D01*
X143635Y465314D01*
X144361Y465218D01*
X145087Y465314D01*
X145763Y465594D01*
X146344Y466040D01*
X146790Y466621D01*
X147070Y467298D01*
X147111Y467605D01*
X147611D01*
X147651Y467298D01*
X147931Y466621D01*
X148377Y466040D01*
X148958Y465594D01*
X149635Y465314D01*
X150361Y465218D01*
X151087Y465314D01*
X151763Y465594D01*
X152344Y466040D01*
X152790Y466621D01*
X153070Y467298D01*
X153166Y468024D01*
X153070Y468750D01*
X152790Y469426D01*
X152344Y470007D01*
X151763Y470453D01*
X151087Y470733D01*
X150361Y470829D01*
X149831Y470759D01*
X149581Y471192D01*
X149690Y471335D01*
X149970Y472011D01*
X150066Y472737D01*
X149970Y473463D01*
X149784Y473913D01*
X150088Y474309D01*
X150361Y474274D01*
X151087Y474369D01*
X151763Y474649D01*
X152344Y475095D01*
X152790Y475676D01*
X153070Y476353D01*
X153166Y477079D01*
X153070Y477805D01*
X152790Y478481D01*
X152344Y479062D01*
X151763Y479508D01*
X151087Y479788D01*
X150361Y479884D01*
D02*
G37*
G36*
X285961Y487510D02*
X284727Y487348D01*
X283578Y486872D01*
X282591Y486114D01*
X281834Y485127D01*
X281358Y483978D01*
X281195Y482745D01*
X281358Y481512D01*
X281834Y480362D01*
X282591Y479375D01*
X283578Y478618D01*
X284727Y478142D01*
X285961Y477980D01*
X287194Y478142D01*
X288343Y478618D01*
X289330Y479375D01*
X290087Y480362D01*
X290563Y481512D01*
X290726Y482745D01*
X290563Y483978D01*
X290087Y485127D01*
X289330Y486114D01*
X288343Y486872D01*
X287194Y487348D01*
X285961Y487510D01*
D02*
G37*
G36*
X172361Y479884D02*
X171635Y479788D01*
X170958Y479508D01*
X170377Y479062D01*
X169931Y478481D01*
X169651Y477805D01*
X169611Y477497D01*
X169111D01*
X169070Y477805D01*
X168790Y478481D01*
X168344Y479062D01*
X167763Y479508D01*
X167087Y479788D01*
X166361Y479884D01*
X165635Y479788D01*
X164958Y479508D01*
X164377Y479062D01*
X163931Y478481D01*
X163651Y477805D01*
X163556Y477079D01*
X163651Y476353D01*
X163931Y475676D01*
X164377Y475095D01*
X164958Y474649D01*
X165635Y474369D01*
X166361Y474274D01*
X166778Y474329D01*
X167028Y473896D01*
X166831Y473640D01*
X166551Y472963D01*
X166455Y472237D01*
X166551Y471511D01*
X166670Y471225D01*
X166365Y470828D01*
X166361Y470829D01*
X165635Y470733D01*
X164958Y470453D01*
X164377Y470007D01*
X163931Y469426D01*
X163651Y468750D01*
X163556Y468024D01*
X163651Y467298D01*
X163931Y466621D01*
X164377Y466040D01*
X164958Y465594D01*
X165635Y465314D01*
X166361Y465218D01*
X167087Y465314D01*
X167763Y465594D01*
X168344Y466040D01*
X168790Y466621D01*
X169070Y467298D01*
X169111Y467605D01*
X169611D01*
X169651Y467298D01*
X169931Y466621D01*
X170377Y466040D01*
X170958Y465594D01*
X171635Y465314D01*
X172361Y465218D01*
X173087Y465314D01*
X173763Y465594D01*
X174344Y466040D01*
X174790Y466621D01*
X175070Y467298D01*
X175166Y468024D01*
X175070Y468750D01*
X174790Y469426D01*
X174344Y470007D01*
X173763Y470453D01*
X173087Y470733D01*
X172361Y470829D01*
X172144Y470800D01*
X171840Y471197D01*
X171970Y471511D01*
X172066Y472237D01*
X171970Y472963D01*
X171690Y473640D01*
X171471Y473925D01*
X171721Y474358D01*
X172361Y474274D01*
X173087Y474369D01*
X173763Y474649D01*
X174344Y475095D01*
X174790Y475676D01*
X175070Y476353D01*
X175166Y477079D01*
X175070Y477805D01*
X174790Y478481D01*
X174344Y479062D01*
X173763Y479508D01*
X173087Y479788D01*
X172361Y479884D01*
D02*
G37*
G36*
X184600Y470805D02*
X183874Y470710D01*
X183197Y470429D01*
X182616Y469983D01*
X182171Y469403D01*
X181890Y468726D01*
X181795Y468000D01*
X181890Y467274D01*
X182171Y466598D01*
X182616Y466016D01*
X183197Y465571D01*
X183874Y465290D01*
X184600Y465195D01*
X185326Y465290D01*
X186003Y465571D01*
X186583Y466016D01*
X187029Y466598D01*
X187310Y467274D01*
X187405Y468000D01*
X187310Y468726D01*
X187029Y469403D01*
X186583Y469983D01*
X186003Y470429D01*
X185326Y470710D01*
X184600Y470805D01*
D02*
G37*
G36*
X80129Y457699D02*
X79200Y457515D01*
X78412Y456988D01*
X77886Y456201D01*
X77701Y455272D01*
X77886Y454343D01*
X78412Y453555D01*
X79200Y453029D01*
X80129Y452844D01*
X81058Y453029D01*
X81846Y453555D01*
X82372Y454343D01*
X82557Y455272D01*
X82372Y456201D01*
X81846Y456988D01*
X81058Y457515D01*
X80129Y457699D01*
D02*
G37*
G36*
X66100Y453928D02*
X65171Y453743D01*
X64383Y453217D01*
X63857Y452429D01*
X63672Y451500D01*
X63857Y450571D01*
X64383Y449783D01*
X65171Y449257D01*
X66100Y449072D01*
X67029Y449257D01*
X67817Y449783D01*
X68343Y450571D01*
X68528Y451500D01*
X68343Y452429D01*
X67817Y453217D01*
X67029Y453743D01*
X66100Y453928D01*
D02*
G37*
G36*
X54229Y458299D02*
X53300Y458115D01*
X52513Y457588D01*
X51986Y456801D01*
X51801Y455872D01*
X51986Y454943D01*
X52513Y454155D01*
X53300Y453629D01*
X54229Y453444D01*
X55158Y453629D01*
X55946Y454155D01*
X56472Y454943D01*
X56657Y455872D01*
X56472Y456801D01*
X55946Y457588D01*
X55158Y458115D01*
X54229Y458299D01*
D02*
G37*
G36*
X285961Y470191D02*
X284625Y470015D01*
X283380Y469499D01*
X282310Y468679D01*
X281490Y467610D01*
X280974Y466364D01*
X280798Y465028D01*
X280974Y463692D01*
X281490Y462447D01*
X282310Y461378D01*
X283380Y460558D01*
X284625Y460042D01*
X285961Y459866D01*
X287297Y460042D01*
X288542Y460558D01*
X289611Y461378D01*
X290431Y462447D01*
X290947Y463692D01*
X291123Y465028D01*
X290947Y466364D01*
X290431Y467610D01*
X289611Y468679D01*
X288542Y469499D01*
X287297Y470015D01*
X285961Y470191D01*
D02*
G37*
G36*
X185261Y456568D02*
Y456542D01*
X183316D01*
X183118Y456558D01*
Y456542D01*
X154761D01*
X154035Y456447D01*
X153358Y456166D01*
X152777Y455721D01*
X152331Y455140D01*
X152051Y454463D01*
X151955Y453737D01*
X152051Y453011D01*
X152331Y452334D01*
X152777Y451754D01*
X153358Y451308D01*
X154035Y451027D01*
X154761Y450932D01*
X183207D01*
X184524Y450802D01*
X185875Y450392D01*
X187121Y449727D01*
X188206Y448836D01*
X188206Y448825D01*
Y448825D01*
X188787Y448379D01*
X189464Y448099D01*
X189548Y448088D01*
X189809Y447456D01*
X189963Y446291D01*
X189955Y446237D01*
Y409430D01*
X189940D01*
X190098Y407424D01*
X190568Y405468D01*
X191337Y403610D01*
X192388Y401894D01*
X193695Y400364D01*
X195225Y399058D01*
X196940Y398007D01*
X198799Y397237D01*
X200755Y396767D01*
X202761Y396609D01*
Y396625D01*
X218691D01*
X218859Y396154D01*
X218429Y395801D01*
X217475Y394638D01*
X216766Y393312D01*
X216763Y393302D01*
X216292Y393134D01*
X216129Y393243D01*
X215200Y393428D01*
X214271Y393243D01*
X213483Y392717D01*
X213482Y392714D01*
X114000D01*
X113935Y392701D01*
X112528Y392840D01*
X111113Y393269D01*
X109808Y393966D01*
X108665Y394904D01*
X107727Y396048D01*
X107030Y397352D01*
X106600Y398767D01*
X106462Y400175D01*
X106475Y400239D01*
Y414343D01*
X106477Y414345D01*
X107004Y415133D01*
X107188Y416062D01*
X107004Y416991D01*
X106477Y417778D01*
X105690Y418305D01*
X104761Y418490D01*
X103832Y418305D01*
X103044Y417778D01*
X102518Y416991D01*
X102333Y416062D01*
X102518Y415133D01*
X103044Y414345D01*
X103047Y414343D01*
Y400239D01*
X103046D01*
X103181Y398526D01*
X103582Y396854D01*
X104240Y395266D01*
X105138Y393801D01*
X106254Y392494D01*
X107561Y391377D01*
X109027Y390479D01*
X110615Y389821D01*
X112286Y389420D01*
X114000Y389285D01*
Y389286D01*
X213482D01*
X213483Y389283D01*
X214271Y388757D01*
X215200Y388572D01*
X215799Y388691D01*
X216186Y388374D01*
Y363600D01*
X216190Y363580D01*
X216099Y362887D01*
X215823Y362222D01*
X215385Y361652D01*
X214815Y361214D01*
X214150Y360938D01*
X213457Y360847D01*
X213437Y360851D01*
X139619D01*
X139617Y360854D01*
X138829Y361380D01*
X137900Y361565D01*
X136971Y361380D01*
X136183Y360854D01*
X135657Y360066D01*
X135472Y359137D01*
X135657Y358208D01*
X136183Y357420D01*
X136971Y356894D01*
X137900Y356709D01*
X138829Y356894D01*
X139617Y357420D01*
X139619Y357423D01*
X213437D01*
X213469Y357429D01*
X214641Y357545D01*
X215800Y357896D01*
X216867Y358467D01*
X217803Y359234D01*
X218570Y360170D01*
X219141Y361237D01*
X219492Y362396D01*
X219608Y363568D01*
X219614Y363600D01*
Y379793D01*
X220088Y379954D01*
X220290Y379690D01*
X221289Y378924D01*
X222452Y378442D01*
X223700Y378278D01*
Y378286D01*
X223750Y378296D01*
X223800Y378286D01*
X249000D01*
X249077Y378301D01*
X250621Y378149D01*
X252180Y377676D01*
X253616Y376909D01*
X254875Y375875D01*
X255909Y374616D01*
X256676Y373180D01*
X257149Y371621D01*
X257301Y370077D01*
X257286Y370000D01*
Y105510D01*
X246180Y94404D01*
X245371Y94243D01*
X244583Y93717D01*
X244057Y92929D01*
X243872Y92000D01*
X244057Y91071D01*
X244583Y90283D01*
X245371Y89757D01*
X246300Y89572D01*
X247229Y89757D01*
X248017Y90283D01*
X248543Y91071D01*
X248728Y92000D01*
X248710Y92086D01*
X260212Y103588D01*
X260584Y104144D01*
X260714Y104800D01*
X260714Y104800D01*
X260714Y104800D01*
Y104800D01*
Y370000D01*
X260717D01*
X260573Y371833D01*
X260144Y373621D01*
X259440Y375320D01*
X258479Y376887D01*
X257285Y378285D01*
X255887Y379479D01*
X254320Y380440D01*
X252621Y381144D01*
X250833Y381573D01*
X249000Y381717D01*
Y381714D01*
X231348D01*
X231187Y382188D01*
X231308Y382280D01*
X262300D01*
X262339Y382288D01*
X262829Y382190D01*
X263277Y381891D01*
X263577Y381442D01*
X263675Y380952D01*
X263667Y380913D01*
Y280731D01*
X263440Y280557D01*
X262936Y279899D01*
X262618Y279133D01*
X262510Y278310D01*
X262618Y277488D01*
X262936Y276722D01*
X263440Y276064D01*
X266825Y272680D01*
X266860Y272653D01*
X267682Y271652D01*
X268313Y270470D01*
X268702Y269188D01*
X268829Y267899D01*
X268823Y267855D01*
Y267210D01*
X268333Y267113D01*
X268255Y267302D01*
X267841Y267841D01*
X267302Y268255D01*
X266674Y268515D01*
X266000Y268603D01*
X265326Y268515D01*
X264698Y268255D01*
X264159Y267841D01*
X263745Y267302D01*
X263485Y266674D01*
X263397Y266000D01*
X263485Y265326D01*
X263745Y264698D01*
X264159Y264159D01*
X264698Y263745D01*
X265326Y263485D01*
X266000Y263397D01*
X266674Y263485D01*
X267302Y263745D01*
X267841Y264159D01*
X268255Y264698D01*
X268333Y264887D01*
X268823Y264790D01*
Y233000D01*
X268932Y232178D01*
X269249Y231412D01*
X269754Y230754D01*
X270412Y230249D01*
X271178Y229931D01*
X272000Y229823D01*
X272822Y229931D01*
X273588Y230249D01*
X274246Y230754D01*
X274751Y231412D01*
X275068Y232178D01*
X275177Y233000D01*
Y267855D01*
X275190D01*
X275028Y269918D01*
X274545Y271931D01*
X273753Y273843D01*
X272671Y275608D01*
X271327Y277182D01*
X271317Y277172D01*
X267933Y280557D01*
X267707Y280731D01*
Y380913D01*
X267714D01*
X267530Y382314D01*
X266989Y383620D01*
X266128Y384742D01*
X265007Y385602D01*
X263701Y386143D01*
X262300Y386327D01*
Y386320D01*
X231308D01*
X231002Y386555D01*
X230374Y386815D01*
X229700Y386903D01*
X229026Y386815D01*
X228398Y386555D01*
X227859Y386141D01*
X227445Y385602D01*
X227185Y384974D01*
X227097Y384300D01*
X227185Y383626D01*
X227445Y382998D01*
X227859Y382459D01*
X228213Y382188D01*
X228052Y381714D01*
X223800D01*
X223750Y381704D01*
X223700Y381714D01*
Y381714D01*
X223690Y381706D01*
X223166Y381810D01*
X222713Y382113D01*
X222410Y382566D01*
X222309Y383075D01*
X222314Y383100D01*
Y386382D01*
X222317Y386383D01*
X222843Y387171D01*
X223028Y388100D01*
X222843Y389029D01*
X222317Y389817D01*
X221529Y390343D01*
X220600Y390528D01*
X220009Y390410D01*
X219644Y390752D01*
X219740Y391479D01*
X220165Y392506D01*
X220842Y393388D01*
X221724Y394065D01*
X222751Y394490D01*
X223795Y394628D01*
X223853Y394616D01*
X252598D01*
X253254Y394746D01*
X253810Y395118D01*
X256203Y397512D01*
X256805Y397631D01*
X257145Y397859D01*
X257410Y397682D01*
X258261Y397513D01*
X259112Y397682D01*
X259833Y398165D01*
X260315Y398886D01*
X260485Y399737D01*
X260315Y400588D01*
X259833Y401309D01*
X259112Y401792D01*
X258261Y401961D01*
X257410Y401792D01*
X257069Y401564D01*
X256805Y401740D01*
X255954Y401910D01*
X255102Y401740D01*
X254381Y401258D01*
X253899Y400537D01*
X253779Y399936D01*
X251888Y398044D01*
X228340D01*
X228062Y398460D01*
X228163Y398704D01*
X228259Y399430D01*
X228163Y400156D01*
X228077Y400364D01*
X228526Y400665D01*
X229008Y401386D01*
X229177Y402237D01*
X229008Y403088D01*
X228526Y403809D01*
X227805Y404292D01*
X226954Y404461D01*
X226102Y404292D01*
X225381Y403809D01*
X224899Y403088D01*
X224730Y402237D01*
X224728Y402235D01*
X223599D01*
X223321Y402651D01*
X223470Y403011D01*
X223566Y403737D01*
Y403847D01*
X223614Y403910D01*
X223894Y404587D01*
X223990Y405313D01*
X223894Y406039D01*
X223614Y406715D01*
X223168Y407296D01*
X222928Y407480D01*
X222744Y407721D01*
X222163Y408166D01*
X221487Y408447D01*
X220761Y408542D01*
X220035Y408447D01*
X219358Y408166D01*
X218777Y407721D01*
X218331Y407140D01*
X218136Y406669D01*
X217501Y406542D01*
X209403D01*
X209365Y406537D01*
X207997Y406672D01*
X206646Y407082D01*
X205401Y407747D01*
X204338Y408619D01*
X204315Y408649D01*
X204315Y408649D01*
X204315Y408649D01*
X201744Y411221D01*
X201744Y411221D01*
X201743Y411221D01*
X201698Y411256D01*
X201225Y411965D01*
X201058Y412801D01*
X201066Y412858D01*
Y415237D01*
X200970Y415963D01*
X200690Y416640D01*
X200244Y417220D01*
X199663Y417666D01*
X198987Y417946D01*
X198261Y418042D01*
X197535Y417946D01*
X196858Y417666D01*
X196277Y417220D01*
X196039Y416911D01*
X195566Y417071D01*
Y446237D01*
X195591D01*
X195393Y448252D01*
X194805Y450190D01*
X193850Y451976D01*
X192566Y453542D01*
X191000Y454827D01*
X189214Y455782D01*
X187276Y456369D01*
X185261Y456568D01*
D02*
G37*
G36*
X66700Y290328D02*
X65771Y290143D01*
X64983Y289617D01*
X64457Y288829D01*
X64272Y287900D01*
X64457Y286971D01*
X64983Y286183D01*
X65771Y285657D01*
X66700Y285472D01*
X67629Y285657D01*
X68417Y286183D01*
X68943Y286971D01*
X69128Y287900D01*
X68943Y288829D01*
X68417Y289617D01*
X67629Y290143D01*
X66700Y290328D01*
D02*
G37*
G36*
X108286Y264728D02*
X107357Y264543D01*
X106569Y264017D01*
X106043Y263229D01*
X105858Y262300D01*
X106043Y261371D01*
X106569Y260583D01*
X107357Y260057D01*
X108286Y259872D01*
X109215Y260057D01*
X110002Y260583D01*
X110529Y261371D01*
X110714Y262300D01*
X110529Y263229D01*
X110002Y264017D01*
X109215Y264543D01*
X108286Y264728D01*
D02*
G37*
G36*
X75329D02*
X74400Y264543D01*
X73612Y264017D01*
X73086Y263229D01*
X72901Y262300D01*
X73086Y261371D01*
X73612Y260583D01*
X74400Y260057D01*
X75329Y259872D01*
X76258Y260057D01*
X77045Y260583D01*
X77571Y261371D01*
X77756Y262300D01*
X77571Y263229D01*
X77045Y264017D01*
X76258Y264543D01*
X75329Y264728D01*
D02*
G37*
G36*
X124609D02*
X123679Y264543D01*
X122892Y264017D01*
X122366Y263229D01*
X122181Y262300D01*
X122366Y261371D01*
X122892Y260583D01*
X123679Y260057D01*
X124609Y259872D01*
X125538Y260057D01*
X126325Y260583D01*
X126851Y261371D01*
X127036Y262300D01*
X126851Y263229D01*
X126325Y264017D01*
X125538Y264543D01*
X124609Y264728D01*
D02*
G37*
G36*
X157254D02*
X156325Y264543D01*
X155538Y264017D01*
X155011Y263229D01*
X154826Y262300D01*
X155011Y261371D01*
X155538Y260583D01*
X156325Y260057D01*
X157254Y259872D01*
X158183Y260057D01*
X158971Y260583D01*
X159497Y261371D01*
X159682Y262300D01*
X159497Y263229D01*
X158971Y264017D01*
X158183Y264543D01*
X157254Y264728D01*
D02*
G37*
G36*
X140931D02*
X140002Y264543D01*
X139215Y264017D01*
X138689Y263229D01*
X138504Y262300D01*
X138689Y261371D01*
X139215Y260583D01*
X140002Y260057D01*
X140931Y259872D01*
X141860Y260057D01*
X142648Y260583D01*
X143174Y261371D01*
X143359Y262300D01*
X143174Y263229D01*
X142648Y264017D01*
X141860Y264543D01*
X140931Y264728D01*
D02*
G37*
G36*
X58700D02*
X57771Y264543D01*
X56983Y264017D01*
X56457Y263229D01*
X56272Y262300D01*
X56457Y261371D01*
X56983Y260583D01*
X57771Y260057D01*
X58700Y259872D01*
X59629Y260057D01*
X60417Y260583D01*
X60943Y261371D01*
X61128Y262300D01*
X60943Y263229D01*
X60417Y264017D01*
X59629Y264543D01*
X58700Y264728D01*
D02*
G37*
G36*
X124609Y242628D02*
X123679Y242443D01*
X122892Y241917D01*
X122366Y241129D01*
X122181Y240200D01*
X122366Y239271D01*
X122892Y238483D01*
X123679Y237957D01*
X124609Y237772D01*
X125538Y237957D01*
X126325Y238483D01*
X126851Y239271D01*
X127036Y240200D01*
X126851Y241129D01*
X126325Y241917D01*
X125538Y242443D01*
X124609Y242628D01*
D02*
G37*
G36*
X108286D02*
X107357Y242443D01*
X106569Y241917D01*
X106043Y241129D01*
X105858Y240200D01*
X106043Y239271D01*
X106569Y238483D01*
X107357Y237957D01*
X108286Y237772D01*
X109215Y237957D01*
X110002Y238483D01*
X110529Y239271D01*
X110714Y240200D01*
X110529Y241129D01*
X110002Y241917D01*
X109215Y242443D01*
X108286Y242628D01*
D02*
G37*
G36*
X140931D02*
X140002Y242443D01*
X139215Y241917D01*
X138689Y241129D01*
X138504Y240200D01*
X138689Y239271D01*
X139215Y238483D01*
X140002Y237957D01*
X140931Y237772D01*
X141860Y237957D01*
X142648Y238483D01*
X143174Y239271D01*
X143359Y240200D01*
X143174Y241129D01*
X142648Y241917D01*
X141860Y242443D01*
X140931Y242628D01*
D02*
G37*
G36*
X173577D02*
X172648Y242443D01*
X171860Y241917D01*
X171334Y241129D01*
X171149Y240200D01*
X171334Y239271D01*
X171860Y238483D01*
X172648Y237957D01*
X173577Y237772D01*
X174506Y237957D01*
X175294Y238483D01*
X175820Y239271D01*
X176005Y240200D01*
X175820Y241129D01*
X175294Y241917D01*
X174506Y242443D01*
X173577Y242628D01*
D02*
G37*
G36*
X157254D02*
X156325Y242443D01*
X155538Y241917D01*
X155011Y241129D01*
X154826Y240200D01*
X155011Y239271D01*
X155538Y238483D01*
X156325Y237957D01*
X157254Y237772D01*
X158183Y237957D01*
X158971Y238483D01*
X159497Y239271D01*
X159682Y240200D01*
X159497Y241129D01*
X158971Y241917D01*
X158183Y242443D01*
X157254Y242628D01*
D02*
G37*
G36*
X189900Y272728D02*
X188971Y272543D01*
X188183Y272017D01*
X187657Y271229D01*
X187472Y270300D01*
X187657Y269371D01*
X188183Y268583D01*
X188971Y268057D01*
X189900Y267872D01*
X190829Y268057D01*
X191617Y268583D01*
X192143Y269371D01*
X192328Y270300D01*
X192143Y271229D01*
X191617Y272017D01*
X190829Y272543D01*
X189900Y272728D01*
D02*
G37*
G36*
X173577Y272628D02*
X172648Y272443D01*
X171860Y271917D01*
X171334Y271129D01*
X171149Y270200D01*
X171334Y269271D01*
X171860Y268483D01*
X172648Y267957D01*
X173577Y267772D01*
X174506Y267957D01*
X175294Y268483D01*
X175820Y269271D01*
X176005Y270200D01*
X175820Y271129D01*
X175294Y271917D01*
X174506Y272443D01*
X173577Y272628D01*
D02*
G37*
G36*
X238400Y281728D02*
X237471Y281543D01*
X236683Y281017D01*
X236157Y280229D01*
X235972Y279300D01*
X236157Y278371D01*
X236683Y277583D01*
X237471Y277057D01*
X238400Y276872D01*
X239329Y277057D01*
X240117Y277583D01*
X240643Y278371D01*
X240828Y279300D01*
X240643Y280229D01*
X240117Y281017D01*
X239329Y281543D01*
X238400Y281728D01*
D02*
G37*
G36*
X55600Y287738D02*
X54671Y287553D01*
X53883Y287027D01*
X53357Y286239D01*
X53172Y285310D01*
X53357Y284381D01*
X53883Y283594D01*
X54671Y283067D01*
X55600Y282882D01*
X56529Y283067D01*
X57317Y283594D01*
X57843Y284381D01*
X58028Y285310D01*
X57843Y286239D01*
X57317Y287027D01*
X56529Y287553D01*
X55600Y287738D01*
D02*
G37*
G36*
X248232Y281728D02*
X247302Y281543D01*
X246515Y281017D01*
X245988Y280229D01*
X245804Y279300D01*
X245988Y278371D01*
X246515Y277583D01*
X247302Y277057D01*
X248232Y276872D01*
X249161Y277057D01*
X249948Y277583D01*
X250474Y278371D01*
X250659Y279300D01*
X250474Y280229D01*
X249948Y281017D01*
X249161Y281543D01*
X248232Y281728D01*
D02*
G37*
G36*
X157254Y272628D02*
X156325Y272443D01*
X155538Y271917D01*
X155011Y271129D01*
X154826Y270200D01*
X155011Y269271D01*
X155538Y268483D01*
X156325Y267957D01*
X157254Y267772D01*
X158183Y267957D01*
X158971Y268483D01*
X159497Y269271D01*
X159682Y270200D01*
X159497Y271129D01*
X158971Y271917D01*
X158183Y272443D01*
X157254Y272628D01*
D02*
G37*
G36*
X189900Y264828D02*
X188971Y264643D01*
X188183Y264117D01*
X187657Y263329D01*
X187472Y262400D01*
X187657Y261471D01*
X188183Y260683D01*
X188971Y260157D01*
X189900Y259972D01*
X190829Y260157D01*
X191617Y260683D01*
X192143Y261471D01*
X192328Y262400D01*
X192143Y263329D01*
X191617Y264117D01*
X190829Y264643D01*
X189900Y264828D01*
D02*
G37*
G36*
X173577Y264728D02*
X172648Y264543D01*
X171860Y264017D01*
X171334Y263229D01*
X171149Y262300D01*
X171334Y261371D01*
X171860Y260583D01*
X172648Y260057D01*
X173577Y259872D01*
X174506Y260057D01*
X175294Y260583D01*
X175820Y261371D01*
X176005Y262300D01*
X175820Y263229D01*
X175294Y264017D01*
X174506Y264543D01*
X173577Y264728D01*
D02*
G37*
G36*
X108286Y272628D02*
X107357Y272443D01*
X106569Y271917D01*
X106043Y271129D01*
X105858Y270200D01*
X106043Y269271D01*
X106569Y268483D01*
X107357Y267957D01*
X108286Y267772D01*
X109215Y267957D01*
X110002Y268483D01*
X110529Y269271D01*
X110714Y270200D01*
X110529Y271129D01*
X110002Y271917D01*
X109215Y272443D01*
X108286Y272628D01*
D02*
G37*
G36*
X140931D02*
X140002Y272443D01*
X139215Y271917D01*
X138689Y271129D01*
X138504Y270200D01*
X138689Y269271D01*
X139215Y268483D01*
X140002Y267957D01*
X140931Y267772D01*
X141860Y267957D01*
X142648Y268483D01*
X143174Y269271D01*
X143359Y270200D01*
X143174Y271129D01*
X142648Y271917D01*
X141860Y272443D01*
X140931Y272628D01*
D02*
G37*
G36*
X124609D02*
X123679Y272443D01*
X122892Y271917D01*
X122366Y271129D01*
X122181Y270200D01*
X122366Y269271D01*
X122892Y268483D01*
X123679Y267957D01*
X124609Y267772D01*
X125538Y267957D01*
X126325Y268483D01*
X126851Y269271D01*
X127036Y270200D01*
X126851Y271129D01*
X126325Y271917D01*
X125538Y272443D01*
X124609Y272628D01*
D02*
G37*
%LPD*%
D13*
X194323Y182677D02*
X196500D01*
D15*
X95529Y422300D02*
Y474129D01*
X205787Y68000D02*
Y186000D01*
X200500Y226500D02*
Y246000D01*
Y226500D02*
X205787Y221213D01*
Y186000D02*
Y221213D01*
X95529Y68000D02*
Y422300D01*
D18*
X223853Y396330D02*
G03*
X217900Y390376I0J-5954D01*
G01*
X213437Y359137D02*
G03*
X217900Y363600I0J4463D01*
G01*
X255100Y398832D02*
G03*
X255453Y399686I-854J854D01*
G01*
X255954Y399186D02*
G03*
X255100Y398832I0J-1207D01*
G01*
X257284Y399737D02*
G03*
X256307Y399332I0J-1382D01*
G01*
Y400039D02*
G03*
X257037Y399737I730J730D01*
G01*
X257887Y399405D02*
G03*
X257016Y399665I-647J-576D01*
G01*
X257053Y399737D02*
G03*
X257907Y400091I0J1207D01*
G01*
Y399383D02*
G03*
X257053Y399737I-854J-854D01*
G01*
X254605Y430237D02*
G03*
X256483Y431015I0J2656D01*
G01*
Y429459D02*
G03*
X254605Y430237I-1878J-1878D01*
G01*
X241761Y422444D02*
G03*
X242114Y421591I1207J0D01*
G01*
X241407D02*
G03*
X241761Y422444I-854J854D01*
G01*
X156165Y75103D02*
G03*
X159500Y78438I0J3335D01*
G01*
X45929Y13071D02*
G03*
X50500Y8500I4571J0D01*
G01*
X183858D02*
G03*
X190929Y11429I0J10000D01*
G01*
X211671Y32171D02*
G03*
X214600Y39242I-7071J7071D01*
G01*
X49000Y60500D02*
G03*
X51981Y57519I2981J0D01*
G01*
X182358Y11000D02*
G03*
X189429Y13929I0J10000D01*
G01*
X199571Y24071D02*
G03*
X202500Y31142I-7071J7071D01*
G01*
Y194000D02*
G03*
X200416Y196083I-2083J0D01*
G01*
X92000Y13500D02*
G03*
X94500Y11000I2500J0D01*
G01*
X87937Y77937D02*
G03*
X90000Y82917I-4980J4980D01*
G01*
X87300Y70604D02*
G03*
X87400Y69533I5804J0D01*
G01*
X88973Y67960D02*
G03*
X87300Y71500I-5777J-564D01*
G01*
X89000Y67396D02*
G03*
X88973Y67960I-5804J0D01*
G01*
X87400Y69533D02*
G03*
X89000Y66500I5704J1072D01*
G01*
X89500Y79500D02*
G03*
X87300Y74189I5311J-5311D01*
G01*
X96571Y16429D02*
G03*
X103642Y13500I7071J7071D01*
G01*
X181358D02*
G03*
X188429Y16429I0J10000D01*
G01*
X197071Y25071D02*
G03*
X200000Y32142I-7071J7071D01*
G01*
X197365Y69803D02*
G03*
X200000Y72438I0J2635D01*
G01*
Y68000D02*
G03*
X198197Y69803I-1803J0D01*
G01*
X200000Y185279D02*
G03*
X197365Y187913I-2635J0D01*
G01*
X104761Y400239D02*
G03*
X114000Y391000I9239J0D01*
G01*
X220600Y383100D02*
G03*
X223700Y380000I3100J0D01*
G01*
X259000Y370000D02*
G03*
X249000Y380000I-10000J0D01*
G01*
X44253Y78753D02*
G03*
X43000Y77500I0J-1253D01*
G01*
X44253Y78753D02*
G03*
X44006Y79000I-247J0D01*
G01*
X43000Y81682D02*
G03*
X45929Y78753I2929J0D01*
G01*
X43000Y12500D02*
G03*
X49500Y6000I6500J0D01*
G01*
X156165Y78753D02*
G03*
X153500Y76088I0J-2665D01*
G01*
X185358Y6000D02*
G03*
X192429Y8929I0J10000D01*
G01*
X218642Y31000D02*
G03*
X211571Y28071I0J-10000D01*
G01*
X153500Y81419D02*
G03*
X156165Y78753I2665J0D01*
G01*
Y196863D02*
G03*
X153500Y194198I0J-2665D01*
G01*
X206200Y391000D02*
X215200D01*
X206200D02*
X207000D01*
X217900Y363600D02*
Y390376D01*
X137900Y359137D02*
X213437D01*
X193687Y199313D02*
X197365D01*
X162000Y169000D02*
X192000D01*
X92000Y314200D02*
Y429833D01*
Y196100D02*
Y314200D01*
Y78000D02*
Y196100D01*
X159500Y166500D02*
X162000Y169000D01*
X53500Y297500D02*
X84000D01*
X49000Y302000D02*
X53500Y297500D01*
X84000Y179500D02*
X84500D01*
X53000D02*
X84000D01*
X49500Y183000D02*
X53000Y179500D01*
X158603Y75103D02*
X159500Y76000D01*
X156165Y75103D02*
X158603D01*
X45929Y84071D02*
X49000Y81000D01*
X45929Y84071D02*
Y193213D01*
X49500Y183000D02*
Y198500D01*
X45929Y202071D02*
X49500Y198500D01*
X45929Y202071D02*
Y311324D01*
X49000Y302000D02*
Y318000D01*
X45929Y321071D02*
X49000Y318000D01*
X45929Y321071D02*
Y429434D01*
X43000Y197000D02*
X43137Y196863D01*
X45929D01*
X43000Y197000D02*
Y315000D01*
X43026Y314974D01*
X43000Y315000D02*
Y430155D01*
X43026Y314974D02*
X45929D01*
X43000Y430155D02*
X45929Y433084D01*
X89529Y432304D02*
X92000Y429833D01*
X90000Y198100D02*
Y303153D01*
X87129Y195229D02*
X90000Y198100D01*
X87129Y187913D02*
Y195229D01*
X89700Y315800D02*
Y421563D01*
X87129Y424134D02*
X89700Y421563D01*
X87129Y313229D02*
X89700Y315800D01*
X87129Y306024D02*
Y313229D01*
Y306024D02*
X90000Y303153D01*
X87129Y187913D02*
X90000Y185043D01*
X245261Y430237D02*
X257261D01*
X241761Y426737D02*
X245261Y430237D01*
X241761Y421237D02*
Y426737D01*
X256005Y399737D02*
X258261D01*
X255954Y399686D02*
X256005Y399737D01*
X159500Y76000D02*
Y80500D01*
Y166500D01*
Y78438D02*
Y80500D01*
X87129Y69803D02*
X87300Y69974D01*
Y77300D02*
X90000Y80000D01*
X74142Y95617D02*
X87013D01*
X45929Y51571D02*
Y75103D01*
X214600Y39242D02*
Y61700D01*
X45929Y13071D02*
Y51571D01*
X50500Y8500D02*
X183858D01*
X190929Y11429D02*
X211671Y32171D01*
X51981Y57519D02*
X84519D01*
X49000Y60500D02*
Y81000D01*
X202500Y31142D02*
Y78000D01*
X92000Y21000D02*
Y78000D01*
X94500Y11000D02*
X102000D01*
X182358D01*
X189429Y13929D02*
X199571Y24071D01*
X202500Y78000D02*
Y194000D01*
X92000Y13500D02*
Y21000D01*
X90000Y80000D02*
Y84500D01*
Y185043D01*
Y82917D02*
Y84500D01*
X153500Y15500D02*
Y16500D01*
X87300Y70604D02*
Y71500D01*
Y69974D02*
Y70604D01*
Y74189D02*
Y77300D01*
Y71500D02*
Y74189D01*
X89000Y16429D02*
Y66500D01*
Y65500D02*
Y66500D01*
Y67396D02*
Y67932D01*
Y66500D02*
Y67396D01*
X87129Y69803D02*
X87400Y69533D01*
X88973Y67960D01*
X89000Y67932D01*
X103642Y13500D02*
X181358D01*
X188429Y16429D02*
X197071Y25071D01*
X198197Y69803D02*
X198697D01*
X200000Y32142D02*
Y68000D01*
X197365Y69803D02*
X198197D01*
X200000Y68000D02*
Y72438D01*
X198197Y69803D02*
X199697D01*
X200000Y72438D02*
Y185279D01*
X197365Y187913D02*
X200000Y185279D01*
X223853Y396330D02*
X252598D01*
X255954Y399686D01*
X246300Y92100D02*
X259000Y104800D01*
X220600Y383100D02*
Y388100D01*
X104761Y400239D02*
Y416062D01*
X114000Y391000D02*
X206200D01*
X223800Y380000D02*
X249000D01*
X259000Y104800D02*
Y370000D01*
X260400Y56600D02*
X282600D01*
X236700Y31000D02*
X243200Y37500D01*
Y74000D01*
X43000Y12500D02*
Y77500D01*
X43500Y79000D02*
X44006D01*
X43000Y81682D02*
Y197000D01*
Y77500D02*
Y80000D01*
Y77500D02*
Y81682D01*
X44253Y78753D02*
X45929D01*
X153500Y16500D02*
Y76088D01*
X49500Y6000D02*
X185358D01*
X192429Y8929D02*
X211571Y28071D01*
X218642Y31000D02*
X236700D01*
X243200Y74000D02*
X246300Y77100D01*
X153500Y76088D02*
Y81419D01*
Y194198D01*
X282600Y56600D02*
X284000Y58000D01*
Y83500D01*
D21*
X192761Y409430D02*
G03*
X202761Y399430I10000J0D01*
G01*
X199760Y409238D02*
G03*
X199761Y409237I3622J3621D01*
G01*
X198261Y412858D02*
G03*
X199760Y409238I5121J0D01*
G01*
X202332Y406666D02*
G03*
X209403Y403737I7071J7071D01*
G01*
X216553Y412944D02*
G03*
X218261Y412237I1707J1707D01*
G01*
X209761Y423273D02*
G03*
X212261Y417237I8535J0D01*
G01*
X192761Y446237D02*
G03*
X185261Y453737I-7500J0D01*
G01*
X190190Y450808D02*
G03*
X183118Y453737I-7071J-7071D01*
G01*
X217381Y403737D02*
G03*
X221185Y405313I0J5380D01*
G01*
X216553Y412944D02*
G03*
X218261Y412237I1707J1707D01*
G01*
X216553Y412944D02*
G03*
X218261Y412237I1707J1707D01*
G01*
X198261Y411737D02*
G03*
X198968Y410030I2414J0D01*
G01*
X198261Y411737D02*
G03*
X198968Y410030I2414J0D01*
G01*
X198261Y411737D02*
G03*
X198968Y410030I2414J0D01*
G01*
X198261Y411737D02*
G03*
X198968Y410030I2414J0D01*
G01*
X202761Y399430D02*
X225453D01*
X192761Y409430D02*
Y446237D01*
X198261Y412858D02*
Y415237D01*
X209403Y403737D02*
X220761D01*
X199761Y409237D02*
X202332Y406666D01*
X199760Y409238D02*
X199761Y409237D01*
X220761Y403737D02*
Y405737D01*
X154761Y453737D02*
X176761D01*
X218261Y412237D02*
X221761D01*
X212261Y417237D02*
X216553Y412944D01*
X209761Y424737D02*
Y446737D01*
Y423273D02*
Y424737D01*
X206261Y446737D02*
X209761D01*
X206261Y424737D02*
X209761D01*
X176761Y453737D02*
X183118D01*
X185261D01*
D22*
X272000Y267855D02*
G03*
X269071Y274926I-10000J0D01*
G01*
X290172Y130172D02*
G03*
X293000Y137000I-6828J6828D01*
G01*
X286629Y126771D02*
G03*
X283700Y119700I7071J-7071D01*
G01*
X293000Y260858D02*
G03*
X290071Y267929I-10000J0D01*
G01*
X265687Y278310D02*
X269071Y274926D01*
X272000Y233000D02*
Y267855D01*
X293000Y179000D02*
Y215000D01*
X275500Y84800D02*
X283700Y93000D01*
X275500Y66400D02*
Y84800D01*
X280000Y278000D02*
X290071Y267929D01*
X283700Y93000D02*
Y119700D01*
X286629Y126771D02*
X288929Y129071D01*
X293000Y137000D02*
Y179000D01*
Y215000D02*
Y260858D01*
D23*
X193500Y210500D02*
G03*
X190273Y213727I-3227J0D01*
G01*
X196500Y182677D02*
G03*
X194323Y180500I0J-2177D01*
G01*
X193500Y186000D02*
G03*
X196823Y182677I3323J0D01*
G01*
X86000Y80500D02*
G03*
X83500Y74464I6036J-6036D01*
G01*
Y67000D02*
G03*
X85752Y64748I2252J0D01*
G01*
X190727Y213727D02*
G03*
X193500Y216500I0J2773D01*
G01*
X85500Y80000D02*
G03*
X87129Y83933I-3933J3933D01*
G01*
X184378Y213727D02*
X190273D01*
X193500Y186000D02*
Y210500D01*
X194323Y173177D02*
Y180500D01*
X87129Y199313D02*
Y300387D01*
X83500Y67000D02*
Y74464D01*
X39919Y197500D02*
Y315000D01*
Y433126D02*
Y473819D01*
X83500Y422127D02*
Y440589D01*
X74142Y449947D02*
X83500Y440589D01*
X193500Y183500D02*
X194323Y182677D01*
X193500Y173513D02*
Y183500D01*
X196965Y95617D02*
Y170535D01*
Y81603D02*
Y95617D01*
X184378D02*
X196965D01*
X194323Y173177D02*
X196965Y170535D01*
X194000Y67532D02*
X196965Y64567D01*
X194000Y67532D02*
Y77838D01*
X197365Y81203D01*
X186302Y53903D02*
X196965Y64567D01*
X182677Y53903D02*
X186302D01*
X192000Y172013D02*
X193500Y173513D01*
X182677Y172013D02*
X192000D01*
X83500Y422127D02*
X86729Y418898D01*
X83500Y313794D02*
X87129Y317424D01*
X83500Y304016D02*
Y313794D01*
Y304016D02*
X86729Y300787D01*
X87129Y317424D02*
Y418498D01*
X72441Y408234D02*
X86895D01*
X74016Y331837D02*
X86992D01*
X72441Y290124D02*
X86953D01*
X74142Y213727D02*
X87102D01*
X72441Y172013D02*
X87116D01*
X83700Y195884D02*
X87129Y199313D01*
X83700Y185706D02*
Y195884D01*
Y185706D02*
X86729Y182677D01*
X39919Y79619D02*
Y197500D01*
Y315000D02*
Y433126D01*
X193500Y216500D02*
Y254000D01*
X150175Y196966D02*
Y254175D01*
Y79675D02*
Y196966D01*
X87129Y83933D02*
Y182277D01*
D26*
X241761Y421237D02*
D03*
X249761Y423737D02*
D03*
X245761D02*
D03*
X249761Y421237D02*
D03*
X245761D02*
D03*
X238261Y416737D02*
D03*
Y420237D02*
D03*
X233261D02*
D03*
Y423237D02*
D03*
X258761Y421690D02*
D03*
X258261Y399737D02*
D03*
X255954Y399686D02*
D03*
X220761Y405737D02*
D03*
Y403737D02*
D03*
X235761Y399237D02*
D03*
X231761D02*
D03*
D38*
X66929Y312795D02*
D03*
X70472Y312795D02*
D03*
X74016Y312795D02*
D03*
Y319882D02*
D03*
X70472Y319882D02*
D03*
X66929Y319882D02*
D03*
X63386Y319882D02*
D03*
X59842Y319882D02*
D03*
Y312795D02*
D03*
X63386Y312795D02*
D03*
X66929Y305709D02*
D03*
X63386Y305709D02*
D03*
X59842Y305709D02*
D03*
X70472Y305709D02*
D03*
X74016Y305709D02*
D03*
X68701Y309252D02*
D03*
X65158D02*
D03*
X61614D02*
D03*
X72244D02*
D03*
X75787D02*
D03*
X58071D02*
D03*
Y316339D02*
D03*
X61614D02*
D03*
X65158D02*
D03*
X68701D02*
D03*
X72244D02*
D03*
X75787D02*
D03*
Y302165D02*
D03*
X72244D02*
D03*
X68701D02*
D03*
X65158D02*
D03*
X61614D02*
D03*
X58071D02*
D03*
X177165Y194685D02*
D03*
X180709Y194685D02*
D03*
X184252Y194685D02*
D03*
Y201772D02*
D03*
X180709Y201772D02*
D03*
X177165Y201772D02*
D03*
X173622Y201772D02*
D03*
X170079Y201772D02*
D03*
Y194685D02*
D03*
X173622Y194685D02*
D03*
X177165Y187598D02*
D03*
X173622Y187598D02*
D03*
X170079Y187598D02*
D03*
X180709Y187598D02*
D03*
X184252Y187598D02*
D03*
X178937Y191142D02*
D03*
X175394D02*
D03*
X171850D02*
D03*
X182480D02*
D03*
X186024D02*
D03*
X168307D02*
D03*
Y198228D02*
D03*
X171850D02*
D03*
X175394D02*
D03*
X178937D02*
D03*
X182480D02*
D03*
X186024D02*
D03*
Y184055D02*
D03*
X182480D02*
D03*
X178937D02*
D03*
X175394D02*
D03*
X171850D02*
D03*
X168307D02*
D03*
X177165Y76575D02*
D03*
X180709Y76575D02*
D03*
X184252Y76575D02*
D03*
Y83661D02*
D03*
X180709Y83661D02*
D03*
X177165Y83661D02*
D03*
X173622Y83661D02*
D03*
X170079Y83661D02*
D03*
Y76575D02*
D03*
X173622Y76575D02*
D03*
X177165Y69488D02*
D03*
X173622Y69488D02*
D03*
X170079Y69488D02*
D03*
X180709Y69488D02*
D03*
X184252Y69488D02*
D03*
X178937Y73032D02*
D03*
X175394D02*
D03*
X171850D02*
D03*
X182480D02*
D03*
X186024D02*
D03*
X168307D02*
D03*
Y80118D02*
D03*
X171850D02*
D03*
X175394D02*
D03*
X178937D02*
D03*
X182480D02*
D03*
X186024D02*
D03*
Y65945D02*
D03*
X182480D02*
D03*
X178937D02*
D03*
X175394D02*
D03*
X171850D02*
D03*
X168307D02*
D03*
X66929Y76575D02*
D03*
X70472Y76575D02*
D03*
X74016Y76575D02*
D03*
Y83661D02*
D03*
X70472Y83661D02*
D03*
X66929Y83661D02*
D03*
X63386Y83661D02*
D03*
X59842Y83661D02*
D03*
Y76575D02*
D03*
X63386Y76575D02*
D03*
X66929Y69488D02*
D03*
X63386Y69488D02*
D03*
X59842Y69488D02*
D03*
X70472Y69488D02*
D03*
X74016Y69488D02*
D03*
X68701Y73032D02*
D03*
X65158D02*
D03*
X61614D02*
D03*
X72244D02*
D03*
X75787D02*
D03*
X58071D02*
D03*
Y80118D02*
D03*
X61614D02*
D03*
X65158D02*
D03*
X68701D02*
D03*
X72244D02*
D03*
X75787D02*
D03*
Y65945D02*
D03*
X72244D02*
D03*
X68701D02*
D03*
X65158D02*
D03*
X61614D02*
D03*
X58071D02*
D03*
X66929Y194685D02*
D03*
X70472Y194685D02*
D03*
X74016Y194685D02*
D03*
Y201772D02*
D03*
X70472Y201772D02*
D03*
X66929Y201772D02*
D03*
X63386Y201772D02*
D03*
X59842Y201772D02*
D03*
Y194685D02*
D03*
X63386Y194685D02*
D03*
X66929Y187598D02*
D03*
X63386Y187598D02*
D03*
X59842Y187598D02*
D03*
X70472Y187598D02*
D03*
X74016Y187598D02*
D03*
X68701Y191142D02*
D03*
X65158D02*
D03*
X61614D02*
D03*
X72244D02*
D03*
X75787D02*
D03*
X58071D02*
D03*
Y198228D02*
D03*
X61614D02*
D03*
X65158D02*
D03*
X68701D02*
D03*
X72244D02*
D03*
X75787D02*
D03*
Y184055D02*
D03*
X72244D02*
D03*
X68701D02*
D03*
X65158D02*
D03*
X61614D02*
D03*
X58071D02*
D03*
Y420276D02*
D03*
X61614D02*
D03*
X65158D02*
D03*
X68701D02*
D03*
X72244D02*
D03*
X75787D02*
D03*
Y434449D02*
D03*
X72244D02*
D03*
X68701D02*
D03*
X65158D02*
D03*
X61614D02*
D03*
X58071D02*
D03*
Y427362D02*
D03*
X75787D02*
D03*
X72244D02*
D03*
X61614D02*
D03*
X65158D02*
D03*
X68701D02*
D03*
X74016Y423819D02*
D03*
X70472Y423819D02*
D03*
X59842Y423819D02*
D03*
X63386Y423819D02*
D03*
X66929Y423819D02*
D03*
X63386Y430905D02*
D03*
X59842Y430905D02*
D03*
Y437992D02*
D03*
X63386Y437992D02*
D03*
X66929Y437992D02*
D03*
X70472Y437992D02*
D03*
X74016Y437992D02*
D03*
Y430905D02*
D03*
X70472Y430905D02*
D03*
X66929Y430905D02*
D03*
D89*
X220472Y488189D02*
D03*
Y15748D02*
D03*
Y251969D02*
D03*
X15748Y15748D02*
D03*
Y488189D02*
D03*
Y251969D02*
D03*
D91*
X299370Y46063D02*
D03*
D92*
X246727Y8176D02*
D03*
X275073D02*
D03*
D93*
X247908Y19200D02*
D03*
X273892D02*
D03*
D94*
X288200Y368500D02*
D03*
X271300Y405800D02*
D03*
X297600Y187900D02*
D03*
X146200Y201600D02*
D03*
X146392Y183500D02*
D03*
X160136Y95190D02*
D03*
X147031Y84300D02*
D03*
X146532Y65800D02*
D03*
X220600Y388100D02*
D03*
X215200Y391000D02*
D03*
X137900Y359137D02*
D03*
X39919Y473819D02*
D03*
X95529Y474129D02*
D03*
X305100Y412400D02*
D03*
X192000Y169000D02*
D03*
X205787Y186000D02*
D03*
X197365Y199313D02*
D03*
X84000Y297500D02*
D03*
X34216Y68200D02*
D03*
X33917Y185800D02*
D03*
X34877Y303737D02*
D03*
X36911Y320500D02*
D03*
Y201500D02*
D03*
X84000Y179500D02*
D03*
X36911Y439000D02*
D03*
X150175Y196966D02*
D03*
Y79675D02*
D03*
X39919Y197500D02*
D03*
Y433126D02*
D03*
X35000Y422000D02*
D03*
X36100Y79100D02*
D03*
X101376Y439765D02*
D03*
X101161Y430962D02*
D03*
X104761Y416062D02*
D03*
X110261Y426462D02*
D03*
X100229Y409562D02*
D03*
X101476Y321240D02*
D03*
X101261Y312437D02*
D03*
X110361Y307937D02*
D03*
X100329Y291037D02*
D03*
X101315Y85303D02*
D03*
X101100Y76500D02*
D03*
X105000D02*
D03*
X100169Y55100D02*
D03*
X101476Y204203D02*
D03*
X101261Y195400D02*
D03*
X110361Y190900D02*
D03*
X100329Y174000D02*
D03*
X211615Y203403D02*
D03*
X212200Y195200D02*
D03*
X214000Y184200D02*
D03*
X209968Y174200D02*
D03*
X210068Y55200D02*
D03*
X220100Y72100D02*
D03*
X214600Y61700D02*
D03*
X74142Y449947D02*
D03*
X89529Y432304D02*
D03*
X87129Y424134D02*
D03*
X95529Y422300D02*
D03*
X86729Y418898D02*
D03*
X72441Y408234D02*
D03*
X45929Y433084D02*
D03*
Y429434D02*
D03*
X92000Y314200D02*
D03*
X87129Y306024D02*
D03*
X86729Y300787D02*
D03*
X72441Y290124D02*
D03*
X39919Y315000D02*
D03*
X45929Y314974D02*
D03*
Y311324D02*
D03*
X74016Y331837D02*
D03*
X95800Y303800D02*
D03*
X59300Y460900D02*
D03*
X66100D02*
D03*
X73500D02*
D03*
X45929Y193213D02*
D03*
Y196863D02*
D03*
X72441Y172013D02*
D03*
X86729Y182677D02*
D03*
X95900Y185900D02*
D03*
X87129Y187913D02*
D03*
X92000Y196100D02*
D03*
X87129Y199313D02*
D03*
X74142Y213727D02*
D03*
X73500Y106569D02*
D03*
X66100D02*
D03*
X59300D02*
D03*
X45929Y75103D02*
D03*
Y78753D02*
D03*
X39919Y79619D02*
D03*
X86229Y64567D02*
D03*
X95529Y68000D02*
D03*
X87129Y69803D02*
D03*
X92000Y78000D02*
D03*
X87129Y81203D02*
D03*
X74142Y95617D02*
D03*
X213500Y75500D02*
D03*
X156165Y75103D02*
D03*
Y78753D02*
D03*
X182677Y53903D02*
D03*
X196965Y64567D02*
D03*
X205765Y68000D02*
D03*
X211215Y85403D02*
D03*
X197365Y69803D02*
D03*
X202500Y78000D02*
D03*
X197365Y81203D02*
D03*
X184378Y95617D02*
D03*
X155665Y196863D02*
D03*
X182677Y172013D02*
D03*
X196965Y182677D02*
D03*
X197365Y187913D02*
D03*
X199765Y196083D02*
D03*
X184378Y213727D02*
D03*
X59300Y396800D02*
D03*
X66100Y396600D02*
D03*
X73600Y396700D02*
D03*
X59321Y343774D02*
D03*
X66821Y343874D02*
D03*
X73621Y343674D02*
D03*
X73600Y278000D02*
D03*
X66900Y277900D02*
D03*
X60100Y278100D02*
D03*
X59321Y226869D02*
D03*
X66821Y226969D02*
D03*
X73621Y226768D02*
D03*
X74239Y156163D02*
D03*
X66739Y156063D02*
D03*
X59939Y156263D02*
D03*
X73600Y41626D02*
D03*
X66100Y41526D02*
D03*
X59300Y41726D02*
D03*
X183400Y41626D02*
D03*
X175900Y41526D02*
D03*
X169100Y41726D02*
D03*
X169021Y107004D02*
D03*
X175821Y107104D02*
D03*
X183021Y106904D02*
D03*
X182000Y159900D02*
D03*
X175000Y159800D02*
D03*
X167900Y160000D02*
D03*
X169021Y226869D02*
D03*
X175821Y226969D02*
D03*
X183021Y226768D02*
D03*
X275600Y66800D02*
D03*
X264800Y67600D02*
D03*
X229100Y134200D02*
D03*
X226000Y147000D02*
D03*
X23800Y132900D02*
D03*
X30700Y145500D02*
D03*
X31298Y383600D02*
D03*
X24398Y371000D02*
D03*
X301300Y245500D02*
D03*
X279200Y230900D02*
D03*
X285600Y302100D02*
D03*
X285400Y348800D02*
D03*
X283500Y93600D02*
D03*
X246300Y92000D02*
D03*
X260400Y56600D02*
D03*
X246400Y77000D02*
D03*
X284000Y83500D02*
D03*
X274980Y28285D02*
D03*
X267000Y47200D02*
D03*
X259900Y44500D02*
D03*
X248100Y53800D02*
D03*
X234800Y46700D02*
D03*
D95*
X220224Y25059D02*
D03*
Y6059D02*
D03*
X229724Y15559D02*
D03*
X211224D02*
D03*
X213724Y22559D02*
D03*
X227224D02*
D03*
X213224Y9059D02*
D03*
X227224D02*
D03*
X15500Y25059D02*
D03*
Y6059D02*
D03*
X25000Y15559D02*
D03*
X6500D02*
D03*
X9000Y22559D02*
D03*
X22500D02*
D03*
X8500Y9059D02*
D03*
X22500D02*
D03*
X220224Y261280D02*
D03*
Y242280D02*
D03*
X229724Y251780D02*
D03*
X211224D02*
D03*
X213724Y258780D02*
D03*
X227224D02*
D03*
X213224Y245280D02*
D03*
X227224D02*
D03*
X15500Y261280D02*
D03*
Y242280D02*
D03*
X25000Y251780D02*
D03*
X6500D02*
D03*
X9000Y258780D02*
D03*
X22500D02*
D03*
X8500Y245280D02*
D03*
X22500D02*
D03*
X220224Y497500D02*
D03*
Y478500D02*
D03*
X229724Y488000D02*
D03*
X211224D02*
D03*
X213724Y495000D02*
D03*
X227224D02*
D03*
X213224Y481500D02*
D03*
X227224D02*
D03*
X22500D02*
D03*
X8500D02*
D03*
X22500Y495000D02*
D03*
X9000D02*
D03*
X6500Y488000D02*
D03*
X25000D02*
D03*
X15500Y478500D02*
D03*
Y497500D02*
D03*
X199000Y56500D02*
D03*
X39500Y254000D02*
D03*
X87000D02*
D03*
X150175Y254175D02*
D03*
X193500Y254000D02*
D03*
X200500Y245900D02*
D03*
X84519Y57519D02*
D03*
X96571Y16429D02*
D03*
X89000D02*
D03*
X153500Y16500D02*
D03*
Y5500D02*
D03*
X265687Y278310D02*
D03*
X95500Y247000D02*
D03*
X280000Y278000D02*
D03*
X285500Y257700D02*
D03*
X272000Y233000D02*
D03*
X293000Y215000D02*
D03*
X292900Y139400D02*
D03*
X293000Y179000D02*
D03*
X283000Y145000D02*
D03*
X274471Y166000D02*
D03*
X229700Y384300D02*
D03*
D96*
X206261Y394737D02*
D03*
X201261D02*
D03*
X259100Y488500D02*
D03*
X215232Y421637D02*
D03*
Y426637D02*
D03*
Y431637D02*
D03*
Y436637D02*
D03*
Y441637D02*
D03*
X188200Y457800D02*
D03*
X210100Y452000D02*
D03*
X195600Y452300D02*
D03*
X257261Y430237D02*
D03*
X198261Y415237D02*
D03*
Y411737D02*
D03*
X221761Y412237D02*
D03*
X218261D02*
D03*
X206261Y424737D02*
D03*
X209761D02*
D03*
X206261Y446737D02*
D03*
X209761D02*
D03*
X176761Y453737D02*
D03*
X154761D02*
D03*
X166900Y336300D02*
D03*
X203100Y336400D02*
D03*
X168800Y353300D02*
D03*
X164700Y353200D02*
D03*
X140761Y349437D02*
D03*
X134800Y349400D02*
D03*
X225453Y399430D02*
D03*
X219261Y438737D02*
D03*
Y434237D02*
D03*
Y429237D02*
D03*
Y424237D02*
D03*
X205761Y452237D02*
D03*
X199761D02*
D03*
X209461Y412737D02*
D03*
Y408937D02*
D03*
X216300Y453900D02*
D03*
X164700Y348500D02*
D03*
X168800Y348600D02*
D03*
X164700Y343100D02*
D03*
X168800Y343200D02*
D03*
X200600Y352400D02*
D03*
X204700Y352500D02*
D03*
X200600Y347100D02*
D03*
X204700Y347200D02*
D03*
X200500Y341500D02*
D03*
X204600Y341600D02*
D03*
D97*
X230792Y405784D02*
D03*
X234729D02*
D03*
X230792Y411690D02*
D03*
X234729D02*
D03*
X232761Y408737D02*
D03*
D98*
X265687Y380913D02*
G03*
X262300Y384300I-3387J0D01*
G01*
X265687Y278310D02*
Y380913D01*
X229700Y384300D02*
X262300D01*
M02*
