%FSLAX25Y25*%
%MOIN*%
G70*
G01*
G75*
G04 Layer_Physical_Order=1*
G04 Layer_Color=255*
%ADD10C,0.03000*%
%ADD11C,0.00800*%
%ADD12C,0.02000*%
%ADD13C,0.01181*%
%ADD14C,0.02362*%
%ADD15C,0.01969*%
%ADD16C,0.01200*%
%ADD17C,0.01500*%
%ADD18C,0.01000*%
%ADD19C,0.01100*%
%ADD20C,0.04000*%
%ADD21C,0.03200*%
%ADD22C,0.03937*%
%ADD23C,0.01575*%
%ADD24C,0.00787*%
%ADD25C,0.00800*%
%ADD26C,0.02000*%
%ADD27C,0.10000*%
%ADD28R,0.05512X0.04331*%
%ADD29R,0.04331X0.10236*%
%ADD30R,0.04331X0.05512*%
%ADD31R,0.03543X0.02756*%
%ADD32R,0.03150X0.03543*%
%ADD33R,0.02756X0.03543*%
%ADD34R,0.02362X0.02362*%
%ADD35R,0.03543X0.03150*%
%ADD36R,0.02362X0.01969*%
%ADD37R,0.03000X0.03000*%
%ADD38C,0.03150*%
%ADD39R,0.10236X0.09449*%
%ADD40R,0.07087X0.06299*%
%ADD41R,0.06299X0.07087*%
%ADD42R,0.01969X0.02362*%
%ADD43C,0.03937*%
%ADD44R,0.22047X0.22047*%
%ADD45O,0.00787X0.05118*%
%ADD46O,0.05118X0.00787*%
%ADD47R,0.06000X0.05000*%
%ADD48R,0.16535X0.12205*%
%ADD49R,0.18504X0.05906*%
%ADD50R,0.02756X0.04528*%
%ADD51R,0.03937X0.07087*%
%ADD52R,0.07480X0.16339*%
%ADD53R,0.09449X0.10236*%
%ADD54R,0.03000X0.03000*%
%ADD55R,0.04331X0.06693*%
%ADD56R,0.02362X0.02362*%
%ADD57R,0.10236X0.04331*%
%ADD58R,0.12205X0.16535*%
%ADD59R,0.05906X0.18504*%
%ADD60R,0.04528X0.02756*%
%ADD61C,0.03000*%
%ADD62R,0.06693X0.04331*%
%ADD63R,0.19488X0.11594*%
%ADD64R,0.01102X0.02756*%
%ADD65R,0.06299X0.09449*%
%ADD66R,0.03347X0.01102*%
%ADD67R,0.08661X0.05512*%
%ADD68R,0.09449X0.11024*%
%ADD69O,0.01575X0.08268*%
%ADD70O,0.01378X0.08268*%
%ADD71R,0.07087X0.05906*%
%ADD72R,0.03937X0.03740*%
%ADD73O,0.04528X0.00787*%
%ADD74O,0.00787X0.04528*%
%ADD75R,0.08268X0.08268*%
%ADD76R,0.02559X0.03543*%
%ADD77R,0.06102X0.04331*%
%ADD78R,0.06102X0.04331*%
%ADD79R,0.06102X0.13583*%
%ADD80R,0.07087X0.03937*%
%ADD81C,0.00780*%
%ADD82R,0.42300X0.07600*%
%ADD83R,0.72700X0.09700*%
%ADD84R,0.46300X0.11900*%
%ADD85R,0.46400X0.11900*%
%ADD86R,0.19500X0.45500*%
%ADD87R,0.60476X0.09600*%
%ADD88C,0.23622*%
%ADD89C,0.25590*%
%ADD90R,0.05906X0.05906*%
%ADD91C,0.05906*%
%ADD92R,0.04724X0.07087*%
%ADD93O,0.05906X0.03937*%
%ADD94C,0.02400*%
%ADD95C,0.02800*%
%ADD96C,0.03200*%
%ADD97C,0.02362*%
G36*
X309079Y422374D02*
X310271Y421880D01*
X311295Y421095D01*
X312080Y420071D01*
X312574Y418879D01*
X312737Y417642D01*
X312700Y417600D01*
X312700D01*
X312707Y407242D01*
X312256Y407028D01*
X310883Y408155D01*
X309145Y409084D01*
X307260Y409655D01*
X305300Y409848D01*
Y409848D01*
X305252Y409800D01*
X293900Y409848D01*
X291940Y409655D01*
X291830Y409622D01*
X291494Y409993D01*
X291511Y410032D01*
X291994Y412045D01*
X292156Y414108D01*
X292143D01*
Y421000D01*
Y422527D01*
X307800Y422542D01*
X309079Y422374D01*
D02*
G37*
G36*
X285545Y382317D02*
X286795Y380795D01*
X288317Y379545D01*
X290055Y378616D01*
X291940Y378045D01*
X293900Y377852D01*
Y377852D01*
X293948Y377900D01*
X305461Y377852D01*
X307421Y378045D01*
X309306Y378616D01*
X311043Y379545D01*
X312275Y380556D01*
X312727Y380342D01*
X312742Y359500D01*
X312574Y358221D01*
X312080Y357029D01*
X311998Y356922D01*
X311524Y357082D01*
Y357455D01*
X307006D01*
X306800Y357482D01*
X291000D01*
X290956Y357476D01*
X289667Y357604D01*
X288385Y357992D01*
X287204Y358624D01*
X286168Y359474D01*
X285318Y360509D01*
X284687Y361690D01*
X284298Y362972D01*
X284171Y364262D01*
X284177Y364305D01*
Y383848D01*
X284662Y383970D01*
X285545Y382317D01*
D02*
G37*
G36*
X178590Y459407D02*
X178556Y459237D01*
X178139Y459154D01*
X174302D01*
Y455068D01*
X174051Y454463D01*
X173956Y453737D01*
X174051Y453011D01*
X174302Y452406D01*
Y452264D01*
X174386D01*
X174777Y451754D01*
X175358Y451308D01*
X176035Y451027D01*
X176761Y450932D01*
X177487Y451027D01*
X178163Y451308D01*
X178401Y451490D01*
X178894Y451408D01*
X178909Y451385D01*
X178909Y451385D01*
X179409Y450885D01*
X179409Y450885D01*
X180409Y449886D01*
X180800Y449624D01*
X181261Y449533D01*
X181261Y449533D01*
X195312D01*
X195600Y449495D01*
X195888Y449533D01*
X199022D01*
X199035Y449528D01*
X199761Y449432D01*
X200487Y449528D01*
X200499Y449533D01*
X201465D01*
X202056Y448941D01*
Y448043D01*
X202080Y447927D01*
Y447808D01*
X202125Y447699D01*
X202148Y447582D01*
X202214Y447484D01*
X202259Y447374D01*
X202261Y447373D01*
Y446101D01*
X202259Y446100D01*
X202214Y445990D01*
X202148Y445892D01*
X202125Y445775D01*
X202080Y445666D01*
Y445547D01*
X202056Y445431D01*
Y426043D01*
X202080Y425927D01*
Y425808D01*
X202125Y425699D01*
X202148Y425582D01*
X202214Y425484D01*
X202259Y425374D01*
X202261Y425373D01*
Y424101D01*
X202259Y424100D01*
X202214Y423990D01*
X202148Y423892D01*
X202125Y423775D01*
X202080Y423666D01*
Y423547D01*
X202056Y423431D01*
Y408737D01*
Y408533D01*
X200965Y407441D01*
X189761D01*
X189300Y407350D01*
X189131Y407237D01*
X182261D01*
X179261Y410237D01*
Y414237D01*
X175761Y417737D01*
X137761D01*
X132761Y422737D01*
X131261Y424237D01*
Y436237D01*
Y454737D01*
X135261Y458737D01*
X136761Y460237D01*
X137261Y460737D01*
X177261D01*
X178590Y459407D01*
D02*
G37*
G36*
X285789Y422167D02*
Y421000D01*
Y414108D01*
X285795Y414065D01*
X285668Y412775D01*
X285279Y411493D01*
X284648Y410312D01*
X283826Y409310D01*
X283791Y409283D01*
X281683Y407175D01*
X281673Y407185D01*
X280329Y405611D01*
X279247Y403846D01*
X278455Y401934D01*
X277972Y399921D01*
X277810Y397858D01*
X277823D01*
Y364305D01*
X277810D01*
X277911Y363017D01*
X277823Y362350D01*
X277823D01*
X277840Y362331D01*
X277675Y361074D01*
X277182Y359885D01*
X276444Y358923D01*
X276385Y358878D01*
X276375Y358887D01*
X275031Y357313D01*
X273950Y355549D01*
X273544Y354568D01*
X254300Y354551D01*
X253841Y354741D01*
X253674Y355143D01*
X253682Y355152D01*
D01*
X253693Y355166D01*
D01*
X253700Y355174D01*
X253700Y355174D01*
Y355174D01*
X253651Y355200D01*
X253651Y355200D01*
X253640Y355187D01*
X253193Y355275D01*
X252763Y355563D01*
X252475Y355993D01*
X252379Y356475D01*
X252400Y356500D01*
X252400D01*
Y369300D01*
X252375Y386500D01*
X252475Y387007D01*
X252763Y387437D01*
X253193Y387725D01*
X253675Y387821D01*
X253700Y387800D01*
Y387800D01*
X253700Y387800D01*
X258400Y387769D01*
X259674Y387894D01*
X260899Y388266D01*
X262029Y388869D01*
X263018Y389682D01*
X263831Y390671D01*
X264434Y391800D01*
X264806Y393026D01*
X264931Y394300D01*
X264900D01*
X264879Y421400D01*
X264964Y421829D01*
X265207Y422193D01*
X265400Y422322D01*
X265400Y422322D01*
Y422322D01*
X265571Y422436D01*
D01*
X265892Y422500D01*
X265892D01*
D01*
X265892D01*
D01*
D01*
X265892Y422500D01*
X266000D01*
Y422501D01*
X285436Y422520D01*
X285789Y422167D01*
D02*
G37*
G36*
X238523Y424417D02*
X239358Y424071D01*
X239398Y424041D01*
Y422843D01*
Y418906D01*
X240047D01*
Y416577D01*
X239359Y415889D01*
X239354Y415893D01*
X239326Y415857D01*
D01*
X237876Y414406D01*
X235713D01*
Y410942D01*
Y408973D01*
Y407005D01*
Y405036D01*
Y403068D01*
X236803D01*
Y402930D01*
X236937Y402254D01*
X237320Y401682D01*
X237496Y401506D01*
Y392599D01*
X236930D01*
Y391984D01*
X236650D01*
Y391984D01*
X236633Y391983D01*
X234236D01*
Y391991D01*
X234175Y391983D01*
X231141D01*
X229362Y393762D01*
Y395387D01*
X224638D01*
Y394765D01*
X224125D01*
X224012Y394912D01*
X223599Y395229D01*
X223452Y395342D01*
X222800Y395612D01*
X222631Y395634D01*
X222580Y395680D01*
X222483Y395915D01*
X222500Y395941D01*
X222500D01*
X222500Y396225D01*
X223713D01*
D01*
Y396691D01*
X224129Y396968D01*
X224728Y396720D01*
X225453Y396625D01*
X226180Y396720D01*
X226856Y397001D01*
X226983Y397098D01*
X227016Y397093D01*
X227016Y397093D01*
X227952Y397862D01*
X228409Y398418D01*
X228937Y398946D01*
X228937Y398946D01*
X228980Y399003D01*
X229037Y399046D01*
X229047Y399036D01*
X229767Y399974D01*
X230219Y401065D01*
X230373Y402237D01*
X230359D01*
X230263Y402963D01*
X229983Y403640D01*
X229808Y403868D01*
Y405036D01*
Y407005D01*
Y408973D01*
Y410942D01*
Y414406D01*
X229783D01*
X229662Y414544D01*
Y417800D01*
X230654D01*
Y424523D01*
X237721D01*
X238523Y424417D01*
D02*
G37*
G36*
X303623Y219673D02*
Y182997D01*
X260828Y182967D01*
X259490Y183099D01*
X258203Y183489D01*
X257016Y184123D01*
X255979Y184974D01*
X255979Y184979D01*
X255979Y184979D01*
X255979Y184979D01*
X255432Y185692D01*
X255088Y186523D01*
X254974Y187385D01*
X255000Y187414D01*
X255000D01*
Y189000D01*
X254967Y214172D01*
X255099Y215510D01*
X255489Y216797D01*
X256123Y217984D01*
X256974Y219021D01*
X256979Y219021D01*
X256979Y219021D01*
X256979Y219021D01*
X257692Y219568D01*
X258523Y219912D01*
X259385Y220026D01*
X259414Y220000D01*
Y220000D01*
X263000D01*
X303270Y220026D01*
X303623Y219673D01*
D02*
G37*
G36*
X258900Y179800D02*
Y179800D01*
X278615Y179816D01*
X278969Y179463D01*
Y176479D01*
X281592D01*
Y174981D01*
X279219D01*
Y167619D01*
X281592D01*
Y161512D01*
X280180D01*
Y160878D01*
Y155409D01*
X286479D01*
Y161238D01*
Y161512D01*
X286408D01*
Y167619D01*
X287581D01*
Y174981D01*
X286408D01*
Y176592D01*
X292070D01*
X292326Y176485D01*
X293000Y176397D01*
X293674Y176485D01*
X294302Y176745D01*
X294841Y177159D01*
X295255Y177698D01*
X295515Y178326D01*
X295603Y179000D01*
X295515Y179674D01*
X295619Y179831D01*
X301400Y179835D01*
X302102Y179696D01*
X302698Y179298D01*
X303096Y178702D01*
X303223Y178061D01*
X303206Y178031D01*
X303206D01*
X303200Y178020D01*
X303235Y178000D01*
X303623Y177784D01*
Y160901D01*
Y145842D01*
X303629Y145798D01*
X303502Y144509D01*
X303113Y143227D01*
X302482Y142046D01*
X301660Y141044D01*
X301625Y141017D01*
X284131Y123523D01*
X284121Y123533D01*
X282777Y121959D01*
X281696Y120194D01*
X280904Y118282D01*
X280420Y116269D01*
X280258Y114206D01*
X280271D01*
Y107462D01*
X280258D01*
X280420Y105399D01*
X280904Y103386D01*
X281696Y101474D01*
X282777Y99709D01*
X284121Y98135D01*
X284131Y98145D01*
X287070Y95206D01*
X286827Y94752D01*
X285281Y95221D01*
X285217Y95317D01*
X284429Y95843D01*
X283500Y96028D01*
X282571Y95843D01*
X281783Y95317D01*
X281257Y94529D01*
X281072Y93600D01*
X281257Y92671D01*
X281783Y91883D01*
X282571Y91357D01*
X283500Y91172D01*
X284429Y91357D01*
X284848Y91637D01*
X286051Y91138D01*
X287039Y90380D01*
X287088Y90307D01*
X290252Y87143D01*
X290061Y86681D01*
X287769D01*
Y84596D01*
X287706Y84281D01*
Y83886D01*
X286815Y82995D01*
X286374Y83231D01*
X286428Y83500D01*
X286243Y84429D01*
X285717Y85217D01*
X284929Y85743D01*
X284000Y85928D01*
X283071Y85743D01*
X282632Y85925D01*
X282601Y86083D01*
X282354Y86453D01*
X282601Y86823D01*
X282723Y87437D01*
X282601Y88051D01*
X282354Y88421D01*
X282601Y88791D01*
X282723Y89406D01*
X282601Y90020D01*
X282253Y90541D01*
X281732Y90889D01*
X281117Y91011D01*
X277377D01*
X277211Y91177D01*
Y94917D01*
X277089Y95532D01*
X276741Y96053D01*
X276220Y96401D01*
X275606Y96523D01*
X274991Y96401D01*
X274621Y96154D01*
X274252Y96401D01*
X273637Y96523D01*
X273023Y96401D01*
X272653Y96154D01*
X272283Y96401D01*
X271669Y96523D01*
X271054Y96401D01*
X270684Y96154D01*
X270314Y96401D01*
X269700Y96523D01*
X269086Y96401D01*
X268716Y96154D01*
X268346Y96401D01*
X267731Y96523D01*
X267117Y96401D01*
X266747Y96154D01*
X266377Y96401D01*
X265763Y96523D01*
X265148Y96401D01*
X264779Y96154D01*
X264409Y96401D01*
X263794Y96523D01*
X263180Y96401D01*
X262659Y96053D01*
X262311Y95532D01*
X262189Y94917D01*
Y91177D01*
X262023Y91011D01*
X258283D01*
X257668Y90889D01*
X257147Y90541D01*
X256799Y90020D01*
X256677Y89406D01*
X256799Y88791D01*
X257046Y88421D01*
X256799Y88051D01*
X256677Y87437D01*
X256799Y86823D01*
X256977Y86556D01*
X256763Y86104D01*
X256319Y86061D01*
X254494Y87886D01*
Y90542D01*
X253568D01*
X253524Y153082D01*
X253593Y153787D01*
X253554Y174500D01*
X253736Y175884D01*
X254271Y177173D01*
X255120Y178280D01*
X256227Y179130D01*
X257516Y179664D01*
X258855Y179840D01*
X258900Y179800D01*
D02*
G37*
G36*
X272465Y352434D02*
X272775Y352041D01*
X272674Y351624D01*
X272512Y349560D01*
X272526D01*
Y346628D01*
X272356D01*
Y337572D01*
X275737D01*
X277262Y336048D01*
X277279Y336035D01*
X277794Y335363D01*
X278127Y334561D01*
X278237Y333721D01*
X278234Y333700D01*
Y328019D01*
X278222D01*
X278380Y326414D01*
X278655Y325507D01*
Y321109D01*
X287120D01*
Y327801D01*
X286241D01*
X284588Y328019D01*
Y333700D01*
X284607D01*
X284421Y335591D01*
X284167Y336429D01*
Y336653D01*
X284099D01*
X283869Y337410D01*
X282974Y339086D01*
X281886Y340411D01*
X281774Y340548D01*
Y340548D01*
D01*
X281772Y340549D01*
X281769Y340553D01*
Y340553D01*
D01*
X281768Y340554D01*
X281768Y340554D01*
D01*
D01*
X281768Y340554D01*
X281754Y340541D01*
X281754D01*
X281754Y340541D01*
X279049Y343246D01*
Y346628D01*
X278879D01*
Y349560D01*
X278873Y349604D01*
X279000Y350893D01*
X279389Y352175D01*
X279524Y352427D01*
X285328Y352422D01*
X286924Y351761D01*
X288937Y351278D01*
X291000Y351115D01*
Y351129D01*
X306800D01*
X307006Y351156D01*
X311483D01*
X311708Y350863D01*
X312020Y350109D01*
X312127Y349300D01*
X312100Y228400D01*
X312100D01*
X312138Y228357D01*
X311971Y227095D01*
X311468Y225878D01*
X310666Y224834D01*
X310425Y224649D01*
X309977Y224870D01*
Y339345D01*
X311524D01*
Y345644D01*
X307006D01*
X306800Y345671D01*
X306594Y345644D01*
X302076D01*
Y339345D01*
X303623D01*
Y223714D01*
X303270Y223361D01*
X277619Y223390D01*
Y231024D01*
X277579D01*
Y231919D01*
X277631D01*
Y237281D01*
X277579D01*
Y238523D01*
X277631D01*
Y243194D01*
X280190D01*
Y238523D01*
X285111D01*
Y244428D01*
X284441D01*
X284320Y245040D01*
X284401Y245194D01*
X288519D01*
Y242769D01*
X293881D01*
Y248131D01*
D01*
Y248131D01*
X293881Y248131D01*
Y248269D01*
X293881D01*
Y249118D01*
X294719D01*
Y248269D01*
X300081D01*
Y253631D01*
X294719D01*
Y252731D01*
X293881D01*
Y253631D01*
X288519D01*
Y252731D01*
X285111D01*
Y253877D01*
X280190D01*
Y249113D01*
X279728Y248921D01*
X278275Y250375D01*
X278347Y250924D01*
Y256968D01*
X278354D01*
X278220Y257986D01*
X277826Y258936D01*
X277631Y259190D01*
Y260181D01*
X276876D01*
X276641Y260533D01*
X276467Y261407D01*
X276477Y261483D01*
Y261576D01*
X277631D01*
Y271024D01*
X275008D01*
Y274750D01*
X275207Y275010D01*
X275485Y275681D01*
X275580Y276400D01*
X275485Y277119D01*
X275337Y277477D01*
X275753Y277755D01*
X277754Y275754D01*
X278412Y275249D01*
X279178Y274932D01*
X280000Y274823D01*
X280822Y274932D01*
X281588Y275249D01*
X282246Y275754D01*
X282751Y276412D01*
X283068Y277178D01*
X283177Y278000D01*
X283068Y278822D01*
X282751Y279588D01*
X282246Y280246D01*
X278507Y283986D01*
Y288676D01*
X283450Y293619D01*
X284319D01*
Y294620D01*
X284389Y294712D01*
X284707Y295478D01*
X284815Y296300D01*
X284707Y297122D01*
X284389Y297888D01*
X284319Y297980D01*
Y298981D01*
X283318D01*
X283227Y299051D01*
X282460Y299369D01*
X282073Y299419D01*
X281175Y300317D01*
X281140Y300344D01*
X280318Y301346D01*
X279687Y302527D01*
X279298Y303809D01*
X279171Y305098D01*
X279177Y305142D01*
Y312053D01*
X287120D01*
Y312223D01*
X297517D01*
X298339Y312332D01*
X299106Y312649D01*
X299179Y312706D01*
X299390Y312793D01*
X299966Y313234D01*
X300407Y313810D01*
X300685Y314481D01*
X300780Y315200D01*
X300685Y315919D01*
X300598Y316130D01*
X300586Y316222D01*
X300268Y316988D01*
X299763Y317646D01*
X299106Y318151D01*
X298339Y318469D01*
X297517Y318577D01*
X287120D01*
Y318746D01*
X278655D01*
Y318577D01*
X260545D01*
Y323373D01*
X252734D01*
X252380Y323726D01*
X252400Y346900D01*
X252400D01*
X252359Y346947D01*
X252542Y348336D01*
X253096Y349674D01*
X253977Y350823D01*
X255126Y351704D01*
X256464Y352258D01*
X257900Y352448D01*
X272465Y352434D01*
D02*
G37*
G36*
X313247Y97891D02*
Y7810D01*
X312856Y6521D01*
X311927Y4784D01*
X310708Y3299D01*
X310643Y3296D01*
X310643D01*
X310595Y3201D01*
X309556Y2348D01*
X308370Y1714D01*
X219686D01*
X219600Y1800D01*
X217900Y3500D01*
Y30186D01*
X235700D01*
X236356Y30316D01*
X236912Y30688D01*
X245507Y39283D01*
D01*
X246295Y40071D01*
X260397Y54173D01*
X260400Y54172D01*
X261329Y54357D01*
X261645Y54568D01*
X262086Y54333D01*
Y42000D01*
X262086D01*
X262018Y41661D01*
X261826Y41374D01*
X261539Y41181D01*
X261200Y41114D01*
Y41114D01*
X259900D01*
X259850Y41104D01*
X259800Y41114D01*
Y41108D01*
X258980Y41000D01*
X258730Y40896D01*
X258454Y40951D01*
X258191Y41092D01*
X258025Y41929D01*
X257499Y42717D01*
X256711Y43243D01*
X255782Y43428D01*
X254853Y43243D01*
X254065Y42717D01*
X253539Y41929D01*
X253354Y41000D01*
X253539Y40071D01*
X254065Y39283D01*
X254068Y39281D01*
Y25690D01*
X253928Y25480D01*
X253775Y24712D01*
Y18842D01*
X253399Y18512D01*
X253223Y18536D01*
X252478Y18438D01*
X251783Y18150D01*
X251187Y17692D01*
X250730Y17096D01*
X250442Y16402D01*
X250344Y15657D01*
X250442Y14912D01*
X250730Y14217D01*
X251187Y13621D01*
X251783Y13163D01*
X252478Y12876D01*
X253223Y12778D01*
X253968Y12876D01*
X253984Y12883D01*
X254662Y13163D01*
X255259Y13621D01*
X255716Y14217D01*
X256004Y14912D01*
X256102Y15657D01*
X256048Y16065D01*
X256550Y16165D01*
X256550Y16165D01*
X256550Y16165D01*
X256768Y16121D01*
X256993Y15785D01*
X257611Y15371D01*
X258341Y15226D01*
X259071Y15371D01*
X259620Y15739D01*
X260170Y15371D01*
X260900Y15226D01*
X261630Y15371D01*
X262248Y15785D01*
X262662Y16403D01*
X262807Y17133D01*
Y24023D01*
X262662Y24753D01*
X262514Y24973D01*
Y30900D01*
X262506Y30939D01*
X262628Y31551D01*
X262997Y32103D01*
X263549Y32472D01*
X264161Y32594D01*
X264200Y32586D01*
X266000D01*
Y32572D01*
X267431Y32760D01*
X268764Y33312D01*
X269909Y34191D01*
X270788Y35336D01*
X271340Y36669D01*
X271528Y38100D01*
X271514D01*
Y41000D01*
Y42300D01*
Y59282D01*
X271517Y59283D01*
X272043Y60071D01*
X272228Y61000D01*
X272043Y61929D01*
X271517Y62717D01*
X271557Y63123D01*
X271690Y63178D01*
X272783Y64017D01*
X273305Y64697D01*
X273883Y65083D01*
X274671Y64557D01*
X274854Y64521D01*
X275718Y63782D01*
X277615Y62620D01*
X279670Y61769D01*
X281832Y61250D01*
X282519Y61196D01*
Y59619D01*
X290881D01*
Y65201D01*
X291270Y65590D01*
X291271Y65588D01*
X292117Y66620D01*
X292705Y67719D01*
X294331D01*
Y73081D01*
X288969D01*
Y67849D01*
X288101Y66981D01*
X282519D01*
Y66007D01*
X282341Y65846D01*
X282117Y65680D01*
X280313Y66227D01*
X278624Y67130D01*
X277781Y67822D01*
X277317Y68517D01*
X277218Y68583D01*
Y73953D01*
X277211Y73985D01*
Y75823D01*
X277377Y75989D01*
X279215D01*
X279247Y75982D01*
X279265D01*
X279493Y75888D01*
X279588Y75660D01*
Y75642D01*
Y74087D01*
X279483Y74017D01*
X278957Y73229D01*
X278772Y72300D01*
X278957Y71371D01*
X279483Y70583D01*
X280271Y70057D01*
X281200Y69872D01*
X282129Y70057D01*
X282917Y70583D01*
X283443Y71371D01*
X283628Y72300D01*
X283443Y73229D01*
X282917Y74017D01*
X282812Y74087D01*
Y75642D01*
Y75982D01*
X287569D01*
Y75419D01*
X292931D01*
Y80781D01*
X289814D01*
X289623Y81243D01*
X289699Y81319D01*
X293131D01*
Y81319D01*
X293131D01*
X293131Y81319D01*
X293269D01*
Y81319D01*
X298631D01*
Y86681D01*
X295824D01*
X290493Y92011D01*
X290771Y92427D01*
X292634Y91655D01*
X294647Y91172D01*
X296710Y91010D01*
Y91023D01*
X297958D01*
X298002Y91029D01*
X299291Y90902D01*
X300573Y90513D01*
X301754Y89882D01*
X302756Y89060D01*
X302783Y89025D01*
X302842Y88979D01*
X303581Y88016D01*
X304074Y86825D01*
X304233Y85621D01*
X304223Y85547D01*
Y64142D01*
X304229Y64098D01*
X304102Y62809D01*
X303713Y61527D01*
X303082Y60346D01*
X302260Y59344D01*
X302225Y59317D01*
X302183Y59275D01*
X302156Y59240D01*
X301154Y58418D01*
X299973Y57787D01*
X298691Y57398D01*
X297402Y57271D01*
X297358Y57277D01*
X291600D01*
X290778Y57169D01*
X290012Y56851D01*
X289354Y56346D01*
X287124Y54116D01*
X286619Y53458D01*
X286301Y52692D01*
X286193Y51870D01*
Y50197D01*
X285236D01*
Y41929D01*
X293504D01*
Y50197D01*
X292843D01*
X292651Y50659D01*
X292916Y50923D01*
X297358D01*
Y50910D01*
X299421Y51072D01*
X301434Y51555D01*
X303346Y52347D01*
X305111Y53429D01*
X306685Y54773D01*
X306685Y54773D01*
X306685D01*
X306685D01*
X306727Y54815D01*
X306727Y54815D01*
X308071Y56389D01*
X309153Y58154D01*
X309945Y60066D01*
X310428Y62079D01*
X310590Y64142D01*
X310577D01*
Y85547D01*
X310584D01*
X310445Y87311D01*
X310032Y89032D01*
X309355Y90668D01*
X308430Y92177D01*
X307281Y93523D01*
X307285Y93527D01*
X306769Y93967D01*
X306919Y94445D01*
X306921Y94445D01*
X308806Y95016D01*
X310543Y95945D01*
X312066Y97195D01*
X312776Y98060D01*
X313247Y97891D01*
D02*
G37*
G36*
X274991Y89694D02*
X275606Y89571D01*
X275771Y89406D01*
X275894Y88791D01*
X276141Y88421D01*
X275894Y88051D01*
X275771Y87437D01*
X275894Y86823D01*
X276141Y86453D01*
X275894Y86083D01*
X275771Y85469D01*
X275894Y84854D01*
X276141Y84484D01*
X275894Y84114D01*
X275771Y83500D01*
X275894Y82885D01*
X276141Y82516D01*
X275894Y82146D01*
X275771Y81532D01*
X275894Y80917D01*
X276141Y80547D01*
X275894Y80177D01*
X275771Y79563D01*
X275894Y78948D01*
X276141Y78579D01*
X275894Y78209D01*
X275771Y77595D01*
X275606Y77429D01*
X274991Y77306D01*
X274621Y77059D01*
X274252Y77306D01*
X273637Y77429D01*
X273023Y77306D01*
X272653Y77059D01*
X272283Y77306D01*
X271669Y77429D01*
X271054Y77306D01*
X270684Y77059D01*
X270314Y77306D01*
X269700Y77429D01*
X269086Y77306D01*
X268565Y76958D01*
X268217Y76437D01*
X268094Y75823D01*
Y73985D01*
X268088Y73953D01*
Y69120D01*
X268083Y69117D01*
X267557Y68329D01*
X267372Y67400D01*
X267557Y66471D01*
X267752Y66180D01*
X267583Y65709D01*
X266477Y65374D01*
X265247Y64716D01*
X264169Y63831D01*
X263284Y62753D01*
X262626Y61523D01*
X262221Y60188D01*
X262090Y58851D01*
X261638Y58637D01*
X261329Y58843D01*
X260400Y59028D01*
X259471Y58843D01*
X258683Y58317D01*
X258157Y57529D01*
X257972Y56600D01*
X257973Y56597D01*
X254400Y53024D01*
D01*
X234990Y33614D01*
X232591D01*
X232400Y34076D01*
X242912Y44588D01*
X243284Y45144D01*
X243414Y45800D01*
X243414Y45800D01*
X243414Y45800D01*
Y45800D01*
Y60714D01*
X253572Y70872D01*
Y75737D01*
Y78619D01*
X254531D01*
Y79919D01*
X256384D01*
X256677Y79563D01*
X256799Y78948D01*
X257046Y78579D01*
X256799Y78209D01*
X256677Y77595D01*
X256799Y76980D01*
X257147Y76459D01*
X257668Y76111D01*
X258283Y75989D01*
X262023D01*
X262189Y75823D01*
Y72083D01*
X262311Y71468D01*
X262659Y70947D01*
X263180Y70599D01*
X263794Y70477D01*
X264409Y70599D01*
X264779Y70846D01*
X265148Y70599D01*
X265763Y70477D01*
X266377Y70599D01*
X266898Y70947D01*
X267246Y71468D01*
X267369Y72083D01*
Y75823D01*
X267246Y76437D01*
X266898Y76958D01*
X266377Y77306D01*
X265763Y77429D01*
X265148Y77306D01*
X264779Y77059D01*
X264409Y77306D01*
X263794Y77429D01*
X263629Y77595D01*
X263506Y78209D01*
X263259Y78579D01*
X263506Y78948D01*
X263629Y79563D01*
X263506Y80177D01*
X263259Y80547D01*
X263506Y80917D01*
X263629Y81532D01*
X263506Y82146D01*
X263259Y82516D01*
X263506Y82885D01*
X263629Y83500D01*
X263506Y84114D01*
X263259Y84484D01*
X263506Y84854D01*
X263629Y85469D01*
X263506Y86083D01*
X263259Y86453D01*
X263506Y86823D01*
X263629Y87437D01*
X263506Y88051D01*
X263259Y88421D01*
X263506Y88791D01*
X263629Y89406D01*
X263794Y89571D01*
X264409Y89694D01*
X264779Y89941D01*
X265148Y89694D01*
X265763Y89571D01*
X266377Y89694D01*
X266747Y89941D01*
X267117Y89694D01*
X267731Y89571D01*
X268346Y89694D01*
X268716Y89941D01*
X269086Y89694D01*
X269700Y89571D01*
X270314Y89694D01*
X270684Y89941D01*
X271054Y89694D01*
X271669Y89571D01*
X272283Y89694D01*
X272653Y89941D01*
X273023Y89694D01*
X273637Y89571D01*
X274252Y89694D01*
X274621Y89941D01*
X274991Y89694D01*
D02*
G37*
G36*
X267474Y61510D02*
X267372Y61000D01*
X267557Y60071D01*
X268083Y59283D01*
X268086Y59282D01*
Y42300D01*
Y41000D01*
Y38100D01*
X268098Y38041D01*
X267949Y37293D01*
X267492Y36608D01*
X266807Y36151D01*
X266059Y36002D01*
X266000Y36014D01*
X264200D01*
Y36025D01*
X262874Y35850D01*
X261637Y35338D01*
X260576Y34524D01*
X260528Y34462D01*
X260055Y34622D01*
Y37686D01*
X261200D01*
Y37682D01*
X262318Y37829D01*
X263359Y38260D01*
X264253Y38947D01*
X264939Y39841D01*
X265371Y40882D01*
X265518Y42000D01*
X265514D01*
Y58800D01*
X265505Y58844D01*
X265626Y59758D01*
X265995Y60650D01*
X266583Y61417D01*
X267049Y61774D01*
X267474Y61510D01*
D02*
G37*
G36*
X210021Y498546D02*
X208565Y496840D01*
X207358Y494871D01*
X206474Y492737D01*
X205935Y490491D01*
X205754Y488189D01*
X205935Y485886D01*
X206474Y483641D01*
X207358Y481507D01*
X208565Y479538D01*
X210065Y477781D01*
X211821Y476281D01*
X213790Y475075D01*
X215924Y474191D01*
X218170Y473652D01*
X220472Y473470D01*
X222775Y473652D01*
X225021Y474191D01*
X227154Y475075D01*
X229124Y476281D01*
X230880Y477781D01*
X232380Y479538D01*
X233587Y481507D01*
X234471Y483641D01*
X235010Y485886D01*
X235152Y487689D01*
X253358D01*
X253412Y487694D01*
X254325Y487574D01*
X254919Y487119D01*
X254919Y487119D01*
X254919D01*
X254919D01*
Y487119D01*
X254919Y487119D01*
X254934Y487118D01*
D01*
X255908Y485931D01*
X256637Y484567D01*
X257086Y483087D01*
X257238Y481547D01*
X257201Y456896D01*
X257081Y456607D01*
X256669Y456525D01*
X256551Y456549D01*
X254900Y458200D01*
X256488Y456562D01*
X256488D01*
X256710Y456333D01*
Y456333D01*
X256807Y456233D01*
X256909Y456191D01*
X256909Y456191D01*
Y456191D01*
D01*
D01*
Y456191D01*
X256909D01*
X257197Y455903D01*
X257167Y453507D01*
X257299Y452841D01*
X257614Y452369D01*
Y452036D01*
X269425D01*
Y452096D01*
X277361D01*
X278063Y452003D01*
X278977Y451625D01*
X279564Y451174D01*
X279738Y451000D01*
Y451000D01*
X280138Y450600D01*
X280586Y449520D01*
X280738Y448361D01*
X280700Y431300D01*
Y428014D01*
X280700D01*
X280726Y427985D01*
X280612Y427123D01*
X280268Y426292D01*
X279721Y425579D01*
X279721Y425579D01*
X279721Y425579D01*
X279720Y425564D01*
X278731Y424805D01*
X277568Y424323D01*
X276320Y424159D01*
X261713Y424195D01*
Y424249D01*
X255808D01*
Y424200D01*
X254290D01*
Y424200D01*
X254244Y424162D01*
X253357Y424339D01*
X252567Y424867D01*
X252429Y425071D01*
X252429D01*
X252364Y425074D01*
X251145Y426560D01*
X250217Y428297D01*
X249645Y430182D01*
X249452Y432142D01*
X249500Y433600D01*
Y433858D01*
X249548D01*
X249355Y435818D01*
X248783Y437703D01*
X247855Y439440D01*
X246965Y440525D01*
Y451237D01*
X246873Y451698D01*
X246769Y451854D01*
X246612Y452088D01*
X246612Y452089D01*
X244112Y454589D01*
X244112Y454589D01*
X243577Y455124D01*
X243186Y455385D01*
X242725Y455477D01*
X242725Y455477D01*
X234953D01*
X234700Y455645D01*
X234239Y455737D01*
X223217D01*
X221688Y457674D01*
X220669Y458966D01*
Y461549D01*
X219140Y463486D01*
X134529D01*
X133000Y465423D01*
Y497063D01*
X134529Y499000D01*
X209812D01*
X210021Y498546D01*
D02*
G37*
G36*
X312226Y501826D02*
X312658Y501262D01*
X312930Y500605D01*
X313023Y499900D01*
X313000Y425900D01*
X313000D01*
X313027Y425867D01*
X312901Y425237D01*
X312526Y424674D01*
X311963Y424299D01*
X311300Y424167D01*
X285800Y424200D01*
Y424200D01*
X285758Y424165D01*
X284942Y424328D01*
X284214Y424814D01*
X283728Y425542D01*
X283557Y426400D01*
X283600Y436300D01*
X283600Y436300D01*
X283500Y436312D01*
Y460058D01*
X283916Y460336D01*
X284625Y460042D01*
X285961Y459866D01*
X287297Y460042D01*
X288542Y460558D01*
X289611Y461378D01*
X290431Y462447D01*
X290947Y463692D01*
X291123Y465028D01*
X290947Y466364D01*
X290431Y467610D01*
X289611Y468679D01*
X288542Y469499D01*
X287297Y470015D01*
X285961Y470191D01*
X284625Y470015D01*
X283916Y469721D01*
X283500Y469999D01*
Y478200D01*
X283916Y478478D01*
X284727Y478142D01*
X285961Y477980D01*
X287194Y478142D01*
X288343Y478618D01*
X289330Y479375D01*
X290087Y480362D01*
X290563Y481512D01*
X290726Y482745D01*
X290563Y483978D01*
X290087Y485127D01*
X289330Y486114D01*
X288343Y486872D01*
X287194Y487348D01*
X285961Y487510D01*
X284727Y487348D01*
X283916Y487011D01*
X283500Y487289D01*
Y499900D01*
X283500D01*
X283480Y499923D01*
X283570Y500605D01*
X283842Y501262D01*
X284274Y501826D01*
X284792Y502223D01*
X311708D01*
X312226Y501826D01*
D02*
G37*
G36*
X239986Y56633D02*
Y46510D01*
X230080Y36604D01*
X219957D01*
X219766Y37066D01*
X239524Y56824D01*
X239986Y56633D01*
D02*
G37*
G36*
X122421Y499456D02*
Y499456D01*
X122458Y499489D01*
X123907Y499346D01*
X125336Y498913D01*
X126652Y498209D01*
X127806Y497262D01*
X128753Y496108D01*
X129457Y494791D01*
X129890Y493363D01*
X130037Y491877D01*
X130000Y487600D01*
Y423998D01*
X130130Y423868D01*
X130148Y423776D01*
X130409Y423385D01*
X131909Y421885D01*
X131909Y421885D01*
X136909Y416886D01*
X137300Y416624D01*
X137761Y416533D01*
X137761Y416533D01*
X175262D01*
X178056Y413738D01*
Y410237D01*
X178148Y409776D01*
X178409Y409385D01*
X181409Y406386D01*
X181800Y406124D01*
X182261Y406033D01*
X182261Y406033D01*
X186965D01*
X187611Y405386D01*
X187588Y405268D01*
X187588Y405268D01*
Y397623D01*
X187636Y397623D01*
X187989Y397270D01*
Y394096D01*
X187958Y393938D01*
Y388237D01*
Y386737D01*
X188019Y386430D01*
X188193Y386169D01*
X188193Y386169D01*
X189193Y385169D01*
X189453Y384995D01*
X189761Y384934D01*
X194761D01*
X195068Y384995D01*
X195328Y385169D01*
X195328Y385169D01*
X196328Y386169D01*
X196328Y386169D01*
X196828Y386669D01*
X197002Y386930D01*
X197064Y387237D01*
Y389405D01*
X198593Y390934D01*
X211261D01*
X211568Y390995D01*
X211828Y391169D01*
X213323Y392665D01*
X213710Y392347D01*
X213328Y391775D01*
X213174Y391000D01*
X213328Y390225D01*
X213767Y389567D01*
X214424Y389128D01*
X215200Y388974D01*
X215975Y389128D01*
X216633Y389567D01*
X217072Y390225D01*
X217226Y391000D01*
X217072Y391775D01*
X216633Y392433D01*
X215975Y392872D01*
X215200Y393026D01*
X214424Y392872D01*
X213767Y392433D01*
X213354Y392709D01*
X213502Y392930D01*
X213563Y393237D01*
Y396619D01*
X215410D01*
X216583Y395992D01*
X218105Y394743D01*
X219355Y393220D01*
X219943Y392120D01*
X219945Y392108D01*
X219967Y392076D01*
X220284Y391483D01*
X220582Y390500D01*
X220324Y390072D01*
X219825Y389972D01*
X219167Y389533D01*
X218728Y388876D01*
X218574Y388100D01*
X218728Y387325D01*
X219167Y386667D01*
X219825Y386228D01*
X220600Y386074D01*
X220621Y386078D01*
X221004Y385756D01*
X221000Y385600D01*
X220957D01*
X221129Y384295D01*
X221633Y383079D01*
X222434Y382034D01*
X223478Y381233D01*
X224695Y380729D01*
X226000Y380557D01*
X244000Y380600D01*
X244000Y380600D01*
Y380600D01*
X244034Y380630D01*
X245044Y380497D01*
X246017Y380094D01*
X246853Y379453D01*
X247494Y378618D01*
X247897Y377644D01*
X248035Y376600D01*
X248000Y361600D01*
Y312742D01*
X247952D01*
X248145Y310782D01*
X248716Y308897D01*
X249645Y307160D01*
X250895Y305637D01*
X252000Y304600D01*
X258071Y298529D01*
X258071Y298529D01*
X258136Y298526D01*
X259355Y297041D01*
X260283Y295304D01*
X260855Y293419D01*
X261048Y291458D01*
X261000Y239025D01*
Y233742D01*
X261000D01*
X261044Y233694D01*
X260855Y231782D01*
X260283Y229897D01*
X259355Y228160D01*
X258105Y226637D01*
X257752Y226352D01*
X253929Y222529D01*
X253895Y222564D01*
X252645Y221041D01*
X251716Y219304D01*
X251145Y217419D01*
X250952Y215458D01*
X251000Y213600D01*
Y90148D01*
X249526D01*
Y85573D01*
X251000D01*
Y83587D01*
X249563D01*
Y79013D01*
X251000D01*
Y75626D01*
X251000D01*
X251043Y75578D01*
X250857Y73688D01*
X250292Y71825D01*
X249374Y70108D01*
X248139Y68603D01*
X243475Y63944D01*
X243013Y64135D01*
Y70900D01*
Y82956D01*
X243601Y83544D01*
X243859Y83437D01*
X243859D01*
X244063Y83353D01*
Y79013D01*
X245087D01*
Y78513D01*
X244967Y78433D01*
X244528Y77776D01*
X244374Y77000D01*
X244528Y76224D01*
X244967Y75567D01*
X245624Y75128D01*
X246400Y74974D01*
X247176Y75128D01*
X247833Y75567D01*
X248272Y76224D01*
X248426Y77000D01*
X248272Y77776D01*
X247833Y78433D01*
X247713Y78513D01*
Y79013D01*
X248637D01*
Y83587D01*
X244297D01*
X244213Y83791D01*
Y83791D01*
X244106Y84049D01*
X245630Y85573D01*
X248600D01*
Y90148D01*
X248013D01*
X247864Y90371D01*
X247747Y90589D01*
X248172Y91224D01*
X248326Y92000D01*
X248172Y92775D01*
X247733Y93433D01*
X247076Y93872D01*
X246300Y94026D01*
X245525Y93872D01*
X244867Y93433D01*
X244428Y92775D01*
X244274Y92000D01*
X244428Y91224D01*
X244853Y90589D01*
X244736Y90371D01*
X244587Y90148D01*
X244026D01*
Y87682D01*
X240772Y84428D01*
X240487Y84002D01*
X240387Y83500D01*
Y70900D01*
Y60860D01*
X215702Y36203D01*
X214890D01*
X214388Y36103D01*
X213962Y35818D01*
X202656Y24513D01*
X184100D01*
X183598Y24413D01*
X183172Y24128D01*
X181081Y22037D01*
X178523D01*
Y17463D01*
X183098D01*
Y20342D01*
X184644Y21887D01*
X186973D01*
Y17463D01*
X191548D01*
Y18437D01*
X197264D01*
X197455Y17975D01*
X192010Y12536D01*
X191548Y12728D01*
Y16537D01*
X186973D01*
Y11963D01*
Y8050D01*
X186973Y8050D01*
X186973D01*
X187133Y7664D01*
X186997Y7529D01*
Y7529D01*
X186994Y7464D01*
X185509Y6245D01*
X183772Y5317D01*
X183400Y5204D01*
X182998Y5502D01*
Y5824D01*
X178423D01*
Y5544D01*
X174448D01*
Y5824D01*
X169873D01*
Y4910D01*
X169520Y4556D01*
X155606Y4561D01*
X155561Y4646D01*
X155730Y5500D01*
X155561Y6353D01*
X155077Y7077D01*
X154353Y7560D01*
X153500Y7730D01*
X152647Y7560D01*
X151923Y7077D01*
X151439Y6353D01*
X151270Y5500D01*
X151379Y4950D01*
X151062Y4563D01*
X56000Y4600D01*
X45749D01*
Y4600D01*
X45716Y4571D01*
X44426Y4698D01*
X43154Y5084D01*
X41981Y5711D01*
X40954Y6554D01*
X29534Y17989D01*
X29548Y21361D01*
X29355Y23321D01*
X28784Y25206D01*
X27855Y26943D01*
X26605Y28466D01*
X25083Y29716D01*
X23345Y30644D01*
X21460Y31216D01*
X19500Y31409D01*
Y31361D01*
X16182D01*
X7929Y39625D01*
X7929D01*
X7864Y39628D01*
X6645Y41113D01*
X5717Y42850D01*
X5145Y44735D01*
X4952Y46696D01*
X4957Y94656D01*
X5386Y94913D01*
X5755Y94717D01*
X7640Y94145D01*
X9600Y93952D01*
Y93952D01*
X9648Y94000D01*
X21500Y93952D01*
X23460Y94145D01*
X25345Y94717D01*
X27083Y95645D01*
X28605Y96895D01*
X29855Y98417D01*
X30784Y100155D01*
X31355Y102040D01*
X31548Y104000D01*
X31548D01*
X31500Y104048D01*
X31548Y115561D01*
X31355Y117521D01*
X30784Y119406D01*
X29855Y121143D01*
X28605Y122666D01*
X27083Y123916D01*
X25345Y124844D01*
X23460Y125416D01*
X21500Y125609D01*
Y125561D01*
X14100D01*
X14000Y125400D01*
X9600Y125448D01*
X7640Y125255D01*
X5755Y124683D01*
X5390Y124488D01*
X4961Y124746D01*
X4975Y236791D01*
X5376Y237089D01*
X6840Y236645D01*
X8800Y236452D01*
Y236452D01*
X8848Y236500D01*
X20700Y236452D01*
X22660Y236645D01*
X24545Y237216D01*
X26283Y238145D01*
X27805Y239395D01*
X29055Y240917D01*
X29983Y242655D01*
X30555Y244540D01*
X30748Y246500D01*
X30748D01*
X30700Y246548D01*
X30748Y258061D01*
X30555Y260021D01*
X29983Y261906D01*
X29055Y263643D01*
X27805Y265166D01*
X26283Y266416D01*
X24545Y267344D01*
X22660Y267916D01*
X20700Y268109D01*
Y268061D01*
X13300D01*
X13200Y267900D01*
X8800Y267948D01*
X6840Y267755D01*
X5380Y267313D01*
X4978Y267610D01*
X4978Y269586D01*
X5431Y269799D01*
X5664Y269608D01*
X6826Y268987D01*
X8088Y268604D01*
X9400Y268475D01*
X10712Y268604D01*
X11974Y268987D01*
X13136Y269608D01*
X14155Y270444D01*
X14992Y271464D01*
X15613Y272626D01*
X15996Y273888D01*
X16125Y275200D01*
X15996Y276512D01*
X15613Y277774D01*
X14992Y278936D01*
X14155Y279956D01*
X13136Y280792D01*
X11974Y281413D01*
X10712Y281796D01*
X9400Y281925D01*
X8088Y281796D01*
X6826Y281413D01*
X5664Y280792D01*
X5432Y280602D01*
X4980Y280816D01*
X4992Y377622D01*
X5393Y377919D01*
X5640Y377845D01*
X7600Y377652D01*
Y377652D01*
X7648Y377700D01*
X19500Y377652D01*
X21460Y377845D01*
X23345Y378416D01*
X25083Y379345D01*
X26605Y380595D01*
X27855Y382117D01*
X28784Y383855D01*
X28871Y384142D01*
X29143Y384074D01*
Y384074D01*
X29356Y384021D01*
X29272Y383600D01*
X29426Y382824D01*
X29866Y382167D01*
X30523Y381728D01*
X31298Y381574D01*
X32074Y381728D01*
X32148Y381778D01*
X32782D01*
Y381541D01*
X32920D01*
Y377380D01*
X32933Y377313D01*
X32854Y376512D01*
X26496D01*
Y372822D01*
X25248D01*
X25174Y372872D01*
X24398Y373026D01*
X23623Y372872D01*
X22966Y372433D01*
X22526Y371776D01*
X22372Y371000D01*
X22526Y370224D01*
X22966Y369567D01*
X23623Y369128D01*
X24398Y368974D01*
X25174Y369128D01*
X25248Y369178D01*
X26496D01*
Y365488D01*
X38307D01*
Y376512D01*
X36863D01*
X36524Y376879D01*
X36562Y377366D01*
X36565Y377380D01*
Y381541D01*
X37506D01*
Y386659D01*
X32782D01*
Y385422D01*
X32148D01*
X32074Y385472D01*
X31298Y385626D01*
X30523Y385472D01*
X29866Y385033D01*
X29485Y384463D01*
X29312Y384545D01*
X29312Y384545D01*
X29033Y384677D01*
X29355Y385740D01*
X29548Y387700D01*
X29548D01*
X29500Y387748D01*
X29548Y399261D01*
X29355Y401221D01*
X28784Y403106D01*
X27855Y404843D01*
X26605Y406366D01*
X25083Y407616D01*
X23345Y408544D01*
X21460Y409116D01*
X19500Y409309D01*
Y409261D01*
X12100D01*
X12000Y409100D01*
X7600Y409148D01*
X5640Y408955D01*
X5397Y408882D01*
X4995Y409180D01*
X5000Y447057D01*
Y450458D01*
X5000D01*
X4956Y450506D01*
X5145Y452419D01*
X5717Y454304D01*
X6645Y456041D01*
X7895Y457563D01*
X43000Y492600D01*
X46926Y496527D01*
Y496527D01*
X46930Y496592D01*
X48415Y497811D01*
X50152Y498739D01*
X52037Y499311D01*
X53997Y499504D01*
X122421Y499456D01*
D02*
G37*
G36*
X219465Y460533D02*
Y458966D01*
X219497Y458803D01*
X219510Y458638D01*
X219542Y458575D01*
X219556Y458505D01*
X219648Y458367D01*
X219724Y458219D01*
X220743Y456928D01*
X220743Y456928D01*
X222272Y454991D01*
X222326Y454945D01*
X222366Y454885D01*
X222503Y454793D01*
X222629Y454686D01*
X222697Y454664D01*
X222757Y454624D01*
X222919Y454592D01*
X223077Y454541D01*
X223077D01*
X223148Y454547D01*
X223217Y454533D01*
X234239D01*
Y454505D01*
Y454273D01*
X242725D01*
X243261Y453737D01*
X245761Y451237D01*
Y441557D01*
Y440525D01*
X245795Y440351D01*
X245813Y440175D01*
X245841Y440123D01*
X245852Y440064D01*
X245951Y439917D01*
X246034Y439761D01*
X246849Y438768D01*
X247666Y437240D01*
X248168Y435582D01*
X248324Y434001D01*
X248296Y433858D01*
Y433620D01*
X248248Y432182D01*
X248261Y432103D01*
X248253Y432024D01*
X248446Y430064D01*
X248481Y429950D01*
X248492Y429832D01*
X249064Y427947D01*
X249120Y427843D01*
X249154Y427729D01*
X250083Y425992D01*
X250158Y425900D01*
X250214Y425796D01*
X251113Y424701D01*
X250899Y424249D01*
X250808D01*
Y419631D01*
X244123D01*
Y422843D01*
Y427568D01*
X241768D01*
X241756Y427573D01*
X241385Y427821D01*
X240729Y427951D01*
X240081D01*
X240040Y427956D01*
Y427951D01*
X237628D01*
X237626Y427951D01*
Y427951D01*
X228261D01*
X227605Y427821D01*
X227049Y427449D01*
X226096Y426496D01*
X225724Y425940D01*
X225671Y425674D01*
X223961D01*
Y423360D01*
X223675Y422987D01*
X223354Y422213D01*
X223245Y421383D01*
Y418725D01*
X223241Y418685D01*
X223245D01*
Y415082D01*
X222941Y414879D01*
X222500Y415115D01*
Y416476D01*
X221761Y415737D01*
X216261D01*
X215261Y414737D01*
Y410737D01*
X213761Y409237D01*
X212761Y408237D01*
Y400737D01*
Y393237D01*
X211261Y391737D01*
X198261D01*
X196261Y389737D01*
Y387237D01*
X195761Y386737D01*
X194761Y385737D01*
X189761D01*
X188761Y386737D01*
Y388237D01*
Y393938D01*
X188792D01*
Y405268D01*
X189761Y406237D01*
X202261D01*
X203261Y407237D01*
Y408737D01*
Y423431D01*
X203751Y423528D01*
X203831Y423335D01*
X204277Y422753D01*
X204344Y422702D01*
Y422278D01*
X204930D01*
X205535Y422027D01*
X206261Y421932D01*
X206987Y422027D01*
X207591Y422278D01*
X208430D01*
X209035Y422027D01*
X209761Y421932D01*
X210487Y422027D01*
X211091Y422278D01*
X211234D01*
Y422362D01*
X211744Y422753D01*
X212190Y423335D01*
X212470Y424011D01*
X212566Y424737D01*
X212470Y425463D01*
X212190Y426140D01*
X211744Y426721D01*
X211234Y427112D01*
Y427396D01*
X210609D01*
X210487Y427447D01*
X209761Y427542D01*
X209035Y427447D01*
X208913Y427396D01*
X207108D01*
X206987Y427447D01*
X206261Y427542D01*
X205535Y427447D01*
X205413Y427396D01*
X204344D01*
Y426772D01*
X204277Y426721D01*
X203831Y426140D01*
X203751Y425946D01*
X203261Y426043D01*
Y445431D01*
X203751Y445528D01*
X203831Y445334D01*
X204277Y444754D01*
X204344Y444702D01*
Y444278D01*
X204930D01*
X205535Y444028D01*
X206261Y443932D01*
X206987Y444028D01*
X207591Y444278D01*
X208430D01*
X209035Y444028D01*
X209761Y443932D01*
X210487Y444028D01*
X211091Y444278D01*
X211234D01*
Y444362D01*
X211744Y444754D01*
X212190Y445334D01*
X212470Y446011D01*
X212566Y446737D01*
X212470Y447463D01*
X212190Y448140D01*
X211744Y448721D01*
X211234Y449112D01*
Y449396D01*
X210609D01*
X210487Y449446D01*
X209761Y449542D01*
X209035Y449446D01*
X208913Y449396D01*
X207108D01*
X206987Y449446D01*
X206261Y449542D01*
X205535Y449446D01*
X205413Y449396D01*
X204344D01*
Y448772D01*
X204277Y448721D01*
X203831Y448140D01*
X203751Y447946D01*
X203261Y448043D01*
Y449737D01*
X202761Y450237D01*
X202261Y450737D01*
X181261D01*
X180261Y451737D01*
X179761Y452237D01*
Y458237D01*
Y459237D01*
X181261Y460737D01*
X219261D01*
X219465Y460533D01*
D02*
G37*
%LPC*%
G36*
X267717Y117357D02*
X266327Y117220D01*
X264991Y116815D01*
X263760Y116157D01*
X262681Y115271D01*
X261796Y114192D01*
X261138Y112961D01*
X260733Y111625D01*
X260596Y110236D01*
X260733Y108847D01*
X261138Y107511D01*
X261796Y106280D01*
X262681Y105201D01*
X263760Y104315D01*
X264991Y103657D01*
X266327Y103252D01*
X267717Y103115D01*
X269106Y103252D01*
X270442Y103657D01*
X271673Y104315D01*
X272752Y105201D01*
X273637Y106280D01*
X274295Y107511D01*
X274701Y108847D01*
X274837Y110236D01*
X274701Y111625D01*
X274295Y112961D01*
X273637Y114192D01*
X272752Y115271D01*
X271673Y116157D01*
X270442Y116815D01*
X269106Y117220D01*
X267717Y117357D01*
D02*
G37*
G36*
X223818Y149559D02*
X219094D01*
Y144441D01*
X219634D01*
Y139512D01*
X215093D01*
Y128488D01*
X226904D01*
Y132378D01*
X228250D01*
X228325Y132328D01*
X229100Y132174D01*
X229875Y132328D01*
X230533Y132767D01*
X230972Y133424D01*
X231126Y134200D01*
X230972Y134976D01*
X230533Y135633D01*
X229875Y136072D01*
X229100Y136226D01*
X228325Y136072D01*
X228250Y136022D01*
X226904D01*
Y139512D01*
X223278D01*
Y144441D01*
X223818D01*
Y145178D01*
X225150D01*
X225224Y145128D01*
X226000Y144974D01*
X226776Y145128D01*
X227433Y145567D01*
X227872Y146224D01*
X228026Y147000D01*
X227872Y147775D01*
X227433Y148433D01*
X226776Y148872D01*
X226000Y149026D01*
X225224Y148872D01*
X225150Y148822D01*
X223818D01*
Y149559D01*
D02*
G37*
G36*
X180811Y16698D02*
X180711D01*
X180247Y16605D01*
X180145Y16537D01*
X178523D01*
Y11963D01*
X179500D01*
Y11324D01*
X178423D01*
Y6750D01*
X182998D01*
Y11324D01*
X181921D01*
Y11963D01*
X183098D01*
Y16537D01*
X181376D01*
X181274Y16605D01*
X180811Y16698D01*
D02*
G37*
G36*
X169021Y109030D02*
X168246Y108876D01*
X167588Y108437D01*
X167149Y107779D01*
X166995Y107004D01*
X167149Y106228D01*
X167389Y105870D01*
Y102167D01*
X170932D01*
Y106104D01*
X170932Y106104D01*
X170932D01*
X170878Y106205D01*
X170893Y106228D01*
X171048Y107004D01*
X170893Y107779D01*
X170454Y108437D01*
X169797Y108876D01*
X169021Y109030D01*
D02*
G37*
G36*
X73500Y108596D02*
X72724Y108441D01*
X72067Y108002D01*
X71628Y107345D01*
X71474Y106569D01*
X71628Y105794D01*
X71728Y105643D01*
Y102167D01*
X75272D01*
Y105643D01*
X75372Y105794D01*
X75526Y106569D01*
X75372Y107345D01*
X74933Y108002D01*
X74275Y108441D01*
X73500Y108596D01*
D02*
G37*
G36*
X183021Y108930D02*
X182246Y108776D01*
X181588Y108337D01*
X181149Y107679D01*
X180995Y106904D01*
X181149Y106129D01*
X181189Y106069D01*
Y102167D01*
X184732D01*
Y105887D01*
X184893Y106129D01*
X185048Y106904D01*
X184893Y107679D01*
X184454Y108337D01*
X183797Y108776D01*
X183021Y108930D01*
D02*
G37*
G36*
X175821Y109130D02*
X175046Y108976D01*
X174388Y108537D01*
X173949Y107879D01*
X173795Y107104D01*
X173949Y106328D01*
X174093Y106112D01*
X174089Y106104D01*
X174089D01*
X174089Y106104D01*
Y102167D01*
X177632D01*
Y106104D01*
X177632Y106104D01*
X177632D01*
X177593Y106178D01*
X177693Y106328D01*
X177848Y107104D01*
X177693Y107879D01*
X177254Y108537D01*
X176597Y108976D01*
X175821Y109130D01*
D02*
G37*
G36*
X36506Y148059D02*
X31782D01*
Y147831D01*
X31596Y147553D01*
X31395Y147388D01*
X30700Y147526D01*
X29924Y147372D01*
X29267Y146933D01*
X28828Y146275D01*
X28674Y145500D01*
X28828Y144725D01*
X29267Y144067D01*
X29924Y143628D01*
X30700Y143474D01*
X31395Y143612D01*
X31596Y143447D01*
X31782Y143169D01*
Y142941D01*
X32322D01*
Y139280D01*
X32335Y139213D01*
X32256Y138412D01*
X25596D01*
Y134722D01*
X24650D01*
X24576Y134772D01*
X23800Y134926D01*
X23024Y134772D01*
X22367Y134333D01*
X21928Y133676D01*
X21774Y132900D01*
X21928Y132124D01*
X22367Y131467D01*
X23024Y131028D01*
X23800Y130874D01*
X24576Y131028D01*
X24650Y131078D01*
X25596D01*
Y127388D01*
X37407D01*
Y138412D01*
X36265D01*
X35925Y138779D01*
X35964Y139266D01*
X35967Y139280D01*
Y142941D01*
X36506D01*
Y148059D01*
D02*
G37*
G36*
X183772Y164737D02*
X180228D01*
Y160826D01*
X180128Y160676D01*
X179974Y159900D01*
X180128Y159125D01*
X180567Y158467D01*
X181225Y158028D01*
X182000Y157874D01*
X182775Y158028D01*
X183433Y158467D01*
X183872Y159125D01*
X184026Y159900D01*
X183872Y160676D01*
X183772Y160826D01*
Y164737D01*
D02*
G37*
G36*
X176752D02*
X173209D01*
Y160800D01*
X173209Y160800D01*
X173209D01*
X173240Y160742D01*
X173128Y160575D01*
X172974Y159800D01*
X173128Y159025D01*
X173567Y158367D01*
X174225Y157928D01*
X175000Y157774D01*
X175776Y157928D01*
X176433Y158367D01*
X176872Y159025D01*
X177026Y159800D01*
X176872Y160575D01*
X176739Y160775D01*
X176752Y160800D01*
X176752D01*
X176752Y160800D01*
Y164737D01*
D02*
G37*
G36*
X192000Y171026D02*
X191225Y170872D01*
X190567Y170433D01*
X190128Y169775D01*
X189974Y169000D01*
X190128Y168225D01*
X190567Y167567D01*
X191225Y167128D01*
X192000Y166974D01*
X192775Y167128D01*
X193433Y167567D01*
X193872Y168225D01*
X194026Y169000D01*
X193872Y169775D01*
X193433Y170433D01*
X192775Y170872D01*
X192000Y171026D01*
D02*
G37*
G36*
X169732Y164737D02*
X166189D01*
Y161016D01*
X166028Y160775D01*
X165874Y160000D01*
X166028Y159224D01*
X166467Y158567D01*
X167125Y158128D01*
X167900Y157974D01*
X168675Y158128D01*
X169333Y158567D01*
X169772Y159224D01*
X169926Y160000D01*
X169772Y160775D01*
X169732Y160835D01*
Y164737D01*
D02*
G37*
G36*
X75772Y161563D02*
X72228D01*
Y157626D01*
X72296D01*
X72532Y157185D01*
X72367Y156938D01*
X72213Y156163D01*
X72367Y155388D01*
X72807Y154730D01*
X73464Y154291D01*
X74239Y154137D01*
X75015Y154291D01*
X75672Y154730D01*
X76112Y155388D01*
X76266Y156163D01*
X76112Y156938D01*
X75672Y157596D01*
X75681Y157626D01*
X75772D01*
Y161563D01*
D02*
G37*
G36*
X68552D02*
X65009D01*
Y157626D01*
X65009D01*
X65009Y157050D01*
X64867Y156838D01*
X64713Y156063D01*
X64867Y155288D01*
X65307Y154630D01*
X65964Y154191D01*
X66739Y154037D01*
X67515Y154191D01*
X68172Y154630D01*
X68612Y155288D01*
X68766Y156063D01*
X68612Y156838D01*
X68172Y157496D01*
X68105Y157541D01*
Y157626D01*
X68552D01*
Y161563D01*
D02*
G37*
G36*
X277621Y157772D02*
X271321D01*
Y156992D01*
X270848Y156832D01*
X270841Y156841D01*
X270302Y157255D01*
X269674Y157515D01*
X269000Y157603D01*
X268326Y157515D01*
X267698Y157255D01*
X267159Y156841D01*
X266745Y156302D01*
X266485Y155674D01*
X266397Y155000D01*
X266485Y154326D01*
X266745Y153698D01*
X267159Y153159D01*
X267698Y152745D01*
X268326Y152485D01*
X269000Y152397D01*
X269674Y152485D01*
X270302Y152745D01*
X270841Y153159D01*
X270848Y153168D01*
X271321Y153007D01*
Y151669D01*
X272192D01*
Y143842D01*
X270219D01*
Y136479D01*
X272214D01*
X272362Y134978D01*
X272867Y133315D01*
X273669Y131814D01*
Y129319D01*
X279031D01*
X279031Y129319D01*
Y129319D01*
X279031D01*
X279169D01*
X279385Y129319D01*
X279385Y129319D01*
Y129319D01*
X284531D01*
Y130571D01*
X285131Y130715D01*
X286670Y131353D01*
X288090Y132223D01*
X289344Y133294D01*
X289358Y133304D01*
X292857Y136802D01*
X292900Y136797D01*
X293574Y136885D01*
X294202Y137145D01*
X294741Y137559D01*
X295155Y138098D01*
X295415Y138726D01*
X295503Y139400D01*
X295415Y140074D01*
X295155Y140702D01*
X294741Y141241D01*
X294202Y141655D01*
X293574Y141915D01*
X292900Y142003D01*
X292226Y141915D01*
X291598Y141655D01*
X291059Y141241D01*
X290645Y140702D01*
X290385Y140074D01*
X290297Y139400D01*
X290302Y139357D01*
X286804Y135858D01*
X286768Y135805D01*
X285752Y134972D01*
X285209Y134681D01*
X284531Y134681D01*
Y134681D01*
X279385D01*
X279385Y134681D01*
Y134681D01*
X279169Y134681D01*
X279100D01*
X279031D01*
X278815Y134681D01*
X278815Y134681D01*
Y134681D01*
X277089D01*
X276730Y135548D01*
X276657Y136104D01*
X276986Y136479D01*
X278581D01*
Y143842D01*
X276608D01*
Y145480D01*
X278831D01*
Y150832D01*
Y150842D01*
X276608D01*
Y151669D01*
X277621D01*
Y157772D01*
D02*
G37*
G36*
X61772Y161500D02*
X58228D01*
Y157563D01*
X58228Y157563D01*
X58228D01*
X58312Y157405D01*
X58067Y157038D01*
X57913Y156263D01*
X58067Y155488D01*
X58507Y154830D01*
X59164Y154391D01*
X59939Y154237D01*
X60715Y154391D01*
X61372Y154830D01*
X61812Y155488D01*
X61966Y156263D01*
X61812Y157038D01*
X61634Y157305D01*
X61772Y157563D01*
X61772D01*
X61772Y157563D01*
Y161500D01*
D02*
G37*
G36*
X61132Y46463D02*
X57589D01*
Y42742D01*
X57428Y42501D01*
X57274Y41726D01*
X57428Y40951D01*
X57867Y40293D01*
X58525Y39854D01*
X59300Y39700D01*
X60075Y39854D01*
X60733Y40293D01*
X61172Y40951D01*
X61326Y41726D01*
X61172Y42501D01*
X61132Y42561D01*
Y46463D01*
D02*
G37*
G36*
X184772Y47000D02*
X181228D01*
Y43063D01*
X181440D01*
X181675Y42622D01*
X181528Y42401D01*
X181374Y41626D01*
X181528Y40850D01*
X181967Y40193D01*
X182624Y39754D01*
X183400Y39600D01*
X184176Y39754D01*
X184833Y40193D01*
X185272Y40850D01*
X185426Y41626D01*
X185272Y42401D01*
X184833Y43059D01*
X184772Y43100D01*
Y47000D01*
D02*
G37*
G36*
X89000Y18659D02*
X88147Y18489D01*
X87423Y18006D01*
X86940Y17282D01*
X86770Y16429D01*
X86940Y15575D01*
X87423Y14852D01*
X88147Y14368D01*
X89000Y14199D01*
X89854Y14368D01*
X90577Y14852D01*
X91061Y15575D01*
X91230Y16429D01*
X91061Y17282D01*
X90577Y18006D01*
X89854Y18489D01*
X89000Y18659D01*
D02*
G37*
G36*
X170772Y47000D02*
X167228D01*
Y43063D01*
X167228Y43063D01*
X167228D01*
X167395Y42751D01*
X167228Y42501D01*
X167074Y41726D01*
X167228Y40951D01*
X167667Y40293D01*
X168324Y39854D01*
X169100Y39700D01*
X169876Y39854D01*
X170533Y40293D01*
X170972Y40951D01*
X171126Y41726D01*
X170972Y42501D01*
X170694Y42918D01*
X170772Y43063D01*
X170772D01*
X170772Y43063D01*
Y47000D01*
D02*
G37*
G36*
X75332Y46463D02*
X71789D01*
Y42526D01*
X71789Y42526D01*
X71789D01*
X71799Y42507D01*
X71728Y42401D01*
X71574Y41626D01*
X71728Y40850D01*
X72167Y40193D01*
X72825Y39754D01*
X73600Y39600D01*
X74375Y39754D01*
X75033Y40193D01*
X75472Y40850D01*
X75626Y41626D01*
X75472Y42401D01*
X75332Y42611D01*
Y46463D01*
D02*
G37*
G36*
X177772Y47000D02*
X174228D01*
Y43063D01*
X174228D01*
X174228Y42601D01*
X174028Y42301D01*
X173874Y41526D01*
X174028Y40751D01*
X174467Y40093D01*
X175125Y39654D01*
X175900Y39500D01*
X176675Y39654D01*
X177333Y40093D01*
X177772Y40751D01*
X177926Y41526D01*
X177772Y42301D01*
X177333Y42959D01*
X177266Y43004D01*
Y43063D01*
X177772D01*
Y47000D01*
D02*
G37*
G36*
X67832Y46463D02*
X64289D01*
Y42526D01*
X64289Y42526D01*
X64289D01*
X64328Y42452D01*
X64228Y42301D01*
X64074Y41526D01*
X64228Y40751D01*
X64667Y40093D01*
X65324Y39654D01*
X66100Y39500D01*
X66875Y39654D01*
X67533Y40093D01*
X67972Y40751D01*
X68126Y41526D01*
X67972Y42301D01*
X67828Y42518D01*
X67832Y42526D01*
X67832D01*
X67832Y42526D01*
Y46463D01*
D02*
G37*
G36*
X96571Y18659D02*
X95718Y18489D01*
X94994Y18006D01*
X94511Y17282D01*
X94341Y16429D01*
X94511Y15575D01*
X94994Y14852D01*
X95718Y14368D01*
X96571Y14199D01*
X97425Y14368D01*
X98148Y14852D01*
X98632Y15575D01*
X98801Y16429D01*
X98632Y17282D01*
X98148Y18006D01*
X97425Y18489D01*
X96571Y18659D01*
D02*
G37*
G36*
X174287Y22037D02*
X169713D01*
Y19319D01*
X168206Y17813D01*
X155254D01*
X155077Y18077D01*
X154353Y18561D01*
X153500Y18730D01*
X152647Y18561D01*
X151923Y18077D01*
X151439Y17354D01*
X151270Y16500D01*
X151439Y15646D01*
X151923Y14923D01*
X152647Y14439D01*
X153500Y14270D01*
X154353Y14439D01*
X155077Y14923D01*
X155254Y15187D01*
X168750D01*
X169252Y15287D01*
X169272Y15300D01*
X169713Y15065D01*
Y11963D01*
X170789D01*
Y11324D01*
X169873D01*
Y6750D01*
X174448D01*
Y11324D01*
X173211D01*
Y11963D01*
X174287D01*
Y16537D01*
X171297D01*
X171106Y16999D01*
X171569Y17463D01*
X174287D01*
Y22037D01*
D02*
G37*
G36*
X160136Y97216D02*
X159361Y97062D01*
X158703Y96623D01*
X158264Y95965D01*
X158110Y95190D01*
X158264Y94414D01*
X158703Y93757D01*
X159361Y93318D01*
X160136Y93163D01*
X160912Y93318D01*
X161569Y93757D01*
X162008Y94414D01*
X162163Y95190D01*
X162008Y95965D01*
X161569Y96623D01*
X160912Y97062D01*
X160136Y97216D01*
D02*
G37*
G36*
X268577Y18536D02*
X267832Y18438D01*
X267138Y18150D01*
X266541Y17692D01*
X266084Y17096D01*
X265796Y16402D01*
X265698Y15657D01*
X265796Y14912D01*
X266084Y14217D01*
X266541Y13621D01*
X267138Y13163D01*
X267832Y12876D01*
X268577Y12778D01*
X269322Y12876D01*
X270017Y13163D01*
X270613Y13621D01*
X271070Y14217D01*
X271358Y14912D01*
X271456Y15657D01*
X271358Y16402D01*
X271070Y17096D01*
X270613Y17692D01*
X270017Y18150D01*
X269322Y18438D01*
X268577Y18536D01*
D02*
G37*
G36*
X66100Y108596D02*
X65324Y108441D01*
X64667Y108002D01*
X64228Y107345D01*
X64074Y106569D01*
X64228Y105794D01*
X64328Y105643D01*
Y102167D01*
X67872D01*
Y105643D01*
X67972Y105794D01*
X68126Y106569D01*
X67972Y107345D01*
X67533Y108002D01*
X66875Y108441D01*
X66100Y108596D01*
D02*
G37*
G36*
X59300D02*
X58525Y108441D01*
X57867Y108002D01*
X57428Y107345D01*
X57274Y106569D01*
X57428Y105794D01*
X57528Y105643D01*
Y102167D01*
X61072D01*
Y105643D01*
X61172Y105794D01*
X61326Y106569D01*
X61172Y107345D01*
X60733Y108002D01*
X60075Y108441D01*
X59300Y108596D01*
D02*
G37*
G36*
X184378Y97643D02*
X183602Y97489D01*
X182945Y97049D01*
X182506Y96392D01*
X182352Y95617D01*
X182506Y94841D01*
X182945Y94184D01*
X183048Y94115D01*
Y92126D01*
Y89961D01*
Y87795D01*
X183139Y87334D01*
X183326Y87055D01*
X183090Y86614D01*
X172815D01*
X172580Y87055D01*
X172766Y87334D01*
X172858Y87795D01*
Y92126D01*
X172766Y92587D01*
X172505Y92977D01*
X172114Y93239D01*
X171653Y93330D01*
X171193Y93239D01*
X170802Y92977D01*
X170541Y92587D01*
X170449Y92126D01*
Y87795D01*
X170541Y87334D01*
X170728Y87055D01*
X170492Y86614D01*
X168133D01*
Y89961D01*
Y92126D01*
X168042Y92587D01*
X167781Y92977D01*
X167390Y93239D01*
X166929Y93330D01*
X166468Y93239D01*
X166078Y92977D01*
X165817Y92587D01*
X165725Y92126D01*
Y89961D01*
Y87795D01*
Y86614D01*
X165354D01*
Y86201D01*
X164913Y85965D01*
X164634Y86152D01*
X164173Y86244D01*
X158802D01*
X158341Y86152D01*
X157950Y85891D01*
X157950Y85891D01*
X155666Y83607D01*
X152937D01*
Y83772D01*
X149347D01*
X149030Y84158D01*
X149058Y84300D01*
X148904Y85075D01*
X148537Y85624D01*
Y89287D01*
X143963D01*
Y84713D01*
X144693D01*
X145010Y84326D01*
X145005Y84300D01*
X145101Y83818D01*
X145063Y83772D01*
X145063D01*
Y80228D01*
X147864D01*
X148182Y79842D01*
X148148Y79675D01*
X148202Y79405D01*
X145681Y76884D01*
X145420Y76493D01*
X145328Y76032D01*
X145328Y76032D01*
Y73668D01*
X144564D01*
Y69825D01*
X144564Y69825D01*
X144564D01*
X144564Y69731D01*
Y69472D01*
D01*
D01*
D01*
D01*
X144564D01*
Y66091D01*
X144523Y65887D01*
X143323D01*
Y61313D01*
X147898D01*
Y63052D01*
X147977Y63155D01*
X148250Y63814D01*
X148320Y64349D01*
X148355Y64522D01*
Y64950D01*
X148404Y65025D01*
X148559Y65800D01*
X148501Y66091D01*
Y69378D01*
X148501Y69378D01*
D01*
D01*
X148501Y69472D01*
Y69507D01*
X148501Y69731D01*
Y69731D01*
D01*
X151235D01*
X154101Y66865D01*
X154101Y66865D01*
X154335Y66708D01*
X154492Y66604D01*
X154953Y66512D01*
X158334D01*
X158638Y66142D01*
X158730Y65681D01*
X158991Y65290D01*
X159382Y65029D01*
X159843Y64938D01*
X164173D01*
X164634Y65029D01*
X164913Y65216D01*
X165354Y64980D01*
Y62992D01*
X165725D01*
Y61811D01*
Y59646D01*
Y57480D01*
X165817Y57020D01*
X166078Y56629D01*
X166468Y56368D01*
X166929Y56276D01*
X167390Y56368D01*
X167781Y56629D01*
X168042Y57020D01*
X168133Y57480D01*
Y61811D01*
Y62992D01*
X181516D01*
X181751Y62551D01*
X181565Y62272D01*
X181473Y61811D01*
Y59646D01*
Y57480D01*
Y55489D01*
X181244Y55336D01*
X180805Y54679D01*
X180651Y53903D01*
X180805Y53128D01*
X181244Y52470D01*
X181902Y52031D01*
X182677Y51877D01*
X183453Y52031D01*
X184110Y52470D01*
X184549Y53128D01*
X184704Y53903D01*
X184549Y54679D01*
X184110Y55336D01*
X183881Y55489D01*
Y59646D01*
Y61811D01*
X183790Y62272D01*
X183529Y62663D01*
X183138Y62924D01*
X183138Y62924D01*
X183138D01*
Y62924D01*
X183145Y62992D01*
X184665D01*
X184901Y62551D01*
X184714Y62272D01*
X184623Y61811D01*
Y57480D01*
X184714Y57020D01*
X184975Y56629D01*
X185366Y56368D01*
X185827Y56276D01*
X186288Y56368D01*
X186614Y56586D01*
X186941Y56368D01*
X187402Y56276D01*
X187862Y56368D01*
X188253Y56629D01*
X188514Y57020D01*
X188606Y57480D01*
Y61811D01*
X188602Y61830D01*
Y62992D01*
X188976D01*
Y63405D01*
X189417Y63641D01*
X189697Y63454D01*
X190157Y63363D01*
X195380D01*
X195533Y63134D01*
X196190Y62695D01*
X196965Y62541D01*
X197515Y62650D01*
X204114Y56052D01*
X204114Y56052D01*
X204163Y56019D01*
Y55528D01*
X206392D01*
X208042Y55200D01*
X208196Y54425D01*
X208563Y53877D01*
Y50513D01*
X213137D01*
Y55087D01*
X212574D01*
X212037Y55528D01*
X212037Y55528D01*
D01*
Y59072D01*
X212037D01*
Y59159D01*
X212391Y59513D01*
X213137D01*
Y59757D01*
X213578Y59992D01*
X213825Y59828D01*
X214600Y59674D01*
X215375Y59828D01*
X216033Y60267D01*
X216472Y60925D01*
X216626Y61700D01*
X216472Y62476D01*
X216033Y63133D01*
X215375Y63572D01*
X214600Y63726D01*
X213825Y63572D01*
X213578Y63408D01*
X213137Y63643D01*
Y64040D01*
X213137Y64040D01*
D01*
D01*
X213137Y64087D01*
D01*
X213444Y64394D01*
X214400D01*
X215091Y64531D01*
X215677Y64923D01*
X216477Y65723D01*
X216869Y66309D01*
X217006Y67000D01*
Y72551D01*
X217769D01*
X218087Y72165D01*
X218074Y72100D01*
X218228Y71324D01*
X218667Y70667D01*
X219324Y70228D01*
X220100Y70074D01*
X220876Y70228D01*
X221533Y70667D01*
X221972Y71324D01*
X222126Y72100D01*
X222113Y72165D01*
X222431Y72551D01*
X224031D01*
Y80425D01*
X215369D01*
Y78932D01*
X213548D01*
Y88403D01*
X213370Y89296D01*
X213137Y89644D01*
Y90687D01*
X211456D01*
X211215Y90735D01*
X210974Y90687D01*
X208563D01*
Y86113D01*
X208883D01*
Y84987D01*
X208563D01*
Y80413D01*
D01*
Y80413D01*
X208222Y80072D01*
X208100Y80072D01*
D01*
X208100D01*
D01*
X207637Y80072D01*
Y80413D01*
X207637D01*
Y84987D01*
X203063D01*
Y80766D01*
D01*
X203063Y80415D01*
Y80413D01*
D01*
X203063D01*
D01*
D01*
Y80413D01*
X203036Y80280D01*
X202621Y80002D01*
X202500Y80026D01*
X201725Y79872D01*
X201067Y79433D01*
X200628Y78776D01*
X200547Y78370D01*
X195996D01*
X195692Y78740D01*
X195996Y79111D01*
X196477D01*
X196938Y79202D01*
X197006Y79248D01*
X197365Y79177D01*
X198141Y79331D01*
X198798Y79770D01*
X199237Y80428D01*
X199392Y81203D01*
X199237Y81979D01*
X198798Y82636D01*
X198141Y83075D01*
X197365Y83230D01*
X196590Y83075D01*
X196042Y82709D01*
X195601Y83004D01*
X195692Y83465D01*
X195601Y83925D01*
X195340Y84316D01*
X194949Y84577D01*
X194488Y84669D01*
X188976D01*
Y86614D01*
X188606D01*
Y89961D01*
Y92126D01*
X188514Y92587D01*
X188253Y92977D01*
X187862Y93239D01*
X187402Y93330D01*
X186941Y93239D01*
X186550Y92977D01*
X186289Y92587D01*
X186197Y92126D01*
Y89961D01*
Y87795D01*
Y86614D01*
X185414D01*
X185178Y87055D01*
X185364Y87334D01*
X185456Y87795D01*
Y92126D01*
Y93947D01*
X185811Y94184D01*
X186250Y94841D01*
X186404Y95617D01*
X186250Y96392D01*
X185811Y97049D01*
X185153Y97489D01*
X184378Y97643D01*
D02*
G37*
G36*
X84519Y59750D02*
X83666Y59580D01*
X82942Y59096D01*
X82459Y58373D01*
X82289Y57519D01*
X82459Y56666D01*
X82942Y55942D01*
X83666Y55459D01*
X84519Y55289D01*
X85373Y55459D01*
X86096Y55942D01*
X86580Y56666D01*
X86750Y57519D01*
X86580Y58373D01*
X86096Y59096D01*
X85373Y59580D01*
X84519Y59750D01*
D02*
G37*
G36*
X199000Y58730D02*
X198146Y58561D01*
X197423Y58077D01*
X196940Y57354D01*
X196770Y56500D01*
X196940Y55647D01*
X197423Y54923D01*
X198146Y54440D01*
X199000Y54270D01*
X199854Y54440D01*
X200577Y54923D01*
X201061Y55647D01*
X201230Y56500D01*
X201061Y57354D01*
X200577Y58077D01*
X199854Y58561D01*
X199000Y58730D01*
D02*
G37*
G36*
X74142Y97643D02*
X73366Y97489D01*
X72709Y97049D01*
X72270Y96392D01*
X72115Y95617D01*
X72270Y94841D01*
X72709Y94184D01*
X72812Y94115D01*
Y92126D01*
Y89961D01*
Y87795D01*
X72903Y87334D01*
X73090Y87055D01*
X72854Y86614D01*
X62579D01*
X62343Y87055D01*
X62530Y87334D01*
X62622Y87795D01*
Y92126D01*
X62530Y92587D01*
X62269Y92977D01*
X61878Y93239D01*
X61417Y93330D01*
X60957Y93239D01*
X60566Y92977D01*
X60305Y92587D01*
X60213Y92126D01*
Y87795D01*
X60305Y87334D01*
X60491Y87055D01*
X60256Y86614D01*
X57897D01*
Y89961D01*
Y92126D01*
X57806Y92587D01*
X57544Y92977D01*
X57154Y93239D01*
X56693Y93330D01*
X56232Y93239D01*
X55841Y92977D01*
X55580Y92587D01*
X55489Y92126D01*
Y89961D01*
Y87795D01*
Y86614D01*
X55118D01*
Y86201D01*
X54677Y85965D01*
X54398Y86152D01*
X53937Y86244D01*
X48565D01*
X48105Y86152D01*
X47714Y85891D01*
X47714Y85891D01*
X45430Y83607D01*
X42937D01*
Y83972D01*
X39000D01*
D01*
X39000Y83972D01*
X39000D01*
D01*
X38537Y83972D01*
Y88287D01*
X33963D01*
Y83713D01*
X34845D01*
Y80652D01*
X34667Y80533D01*
X34228Y79875D01*
X34074Y79100D01*
X34228Y78325D01*
X34667Y77667D01*
X35324Y77228D01*
X36100Y77074D01*
X36100Y77074D01*
X35919Y76692D01*
X35919Y76692D01*
X35919Y76692D01*
X35827Y76231D01*
X35827Y76231D01*
Y73668D01*
X35063D01*
Y70452D01*
X34677Y70135D01*
X34216Y70226D01*
X33441Y70072D01*
X32784Y69633D01*
X32344Y68975D01*
X32190Y68200D01*
X32344Y67424D01*
X32784Y66767D01*
X33441Y66328D01*
X33963Y66224D01*
Y65887D01*
X33963D01*
Y61313D01*
X38537D01*
Y65887D01*
X38236D01*
Y66428D01*
X39000D01*
Y69731D01*
X39000D01*
X39000Y69731D01*
X39000Y69731D01*
X42065D01*
X44932Y66865D01*
X44932Y66865D01*
X45323Y66604D01*
X45783Y66512D01*
X45783Y66512D01*
X48098D01*
X48402Y66142D01*
X48494Y65681D01*
X48755Y65290D01*
X49145Y65029D01*
X49606Y64938D01*
X53937D01*
X54398Y65029D01*
X54677Y65216D01*
X55118Y64980D01*
Y62992D01*
X55489D01*
Y61811D01*
Y59646D01*
Y57480D01*
X55580Y57020D01*
X55841Y56629D01*
X56232Y56368D01*
X56693Y56276D01*
X57154Y56368D01*
X57544Y56629D01*
X57806Y57020D01*
X57897Y57480D01*
Y61811D01*
Y62992D01*
X71279D01*
X71515Y62551D01*
X71328Y62272D01*
X71237Y61811D01*
Y59646D01*
Y57480D01*
Y55489D01*
X71008Y55336D01*
X70569Y54679D01*
X70415Y53903D01*
X70569Y53128D01*
X71008Y52470D01*
X71666Y52031D01*
X72441Y51877D01*
X73216Y52031D01*
X73874Y52470D01*
X74313Y53128D01*
X74467Y53903D01*
X74313Y54679D01*
X73874Y55336D01*
X73645Y55489D01*
Y59646D01*
Y61811D01*
X73554Y62272D01*
X73292Y62663D01*
X72902Y62924D01*
X72902Y62924D01*
X72902D01*
Y62924D01*
X72909Y62992D01*
X74429D01*
X74665Y62551D01*
X74478Y62272D01*
X74386Y61811D01*
Y57480D01*
X74478Y57020D01*
X74739Y56629D01*
X75130Y56368D01*
X75590Y56276D01*
X76051Y56368D01*
X76378Y56586D01*
X76705Y56368D01*
X77165Y56276D01*
X77626Y56368D01*
X78017Y56629D01*
X78278Y57020D01*
X78370Y57480D01*
Y61811D01*
Y62992D01*
X78740D01*
Y63405D01*
X79181Y63641D01*
X79460Y63454D01*
X79921Y63363D01*
X84644D01*
X84796Y63134D01*
X85454Y62695D01*
X86229Y62541D01*
X86669Y62628D01*
X93245Y56052D01*
X93636Y55791D01*
X94097Y55699D01*
D01*
D01*
D01*
X94097Y55699D01*
D01*
X94263Y55533D01*
Y55428D01*
X96491D01*
X98142Y55100D01*
X98296Y54325D01*
X98663Y53777D01*
Y50413D01*
X103237D01*
Y54987D01*
X102674D01*
X102137Y55428D01*
X102137Y55428D01*
D01*
Y58959D01*
X102137Y58959D01*
D01*
D01*
X102137Y58972D01*
D01*
X102478Y59313D01*
X103237D01*
Y59657D01*
X103678Y59892D01*
X103925Y59728D01*
X104700Y59574D01*
X105475Y59728D01*
X106133Y60167D01*
X106572Y60825D01*
X106726Y61600D01*
X106572Y62375D01*
X106133Y63033D01*
X105475Y63472D01*
X104700Y63626D01*
X103925Y63472D01*
X103678Y63308D01*
X103237Y63543D01*
Y63887D01*
X103237D01*
Y63940D01*
X103591Y64294D01*
X104500D01*
X105191Y64431D01*
X105777Y64823D01*
X106577Y65623D01*
X106969Y66209D01*
X107106Y66900D01*
Y72690D01*
X114131D01*
Y80564D01*
X105469D01*
Y78832D01*
X103648D01*
Y88303D01*
X103470Y89196D01*
X103237Y89544D01*
Y90687D01*
X98663D01*
Y86113D01*
X98983D01*
Y84987D01*
X98663D01*
Y80413D01*
X98663D01*
Y80325D01*
X98309Y79972D01*
X98200Y79972D01*
D01*
X98200D01*
D01*
X97737Y79972D01*
Y80413D01*
X97737D01*
Y84987D01*
X93163D01*
Y80413D01*
X93673D01*
Y79803D01*
X93232Y79567D01*
X92775Y79872D01*
X92000Y80026D01*
X91224Y79872D01*
X90567Y79433D01*
X90128Y78776D01*
X90047Y78370D01*
X85760D01*
X85456Y78740D01*
X85365Y79201D01*
X85146Y79528D01*
X85232Y79655D01*
X85232Y79655D01*
Y79655D01*
X85394Y79688D01*
X85722Y79753D01*
X86354Y79331D01*
X87129Y79177D01*
X87905Y79331D01*
X88562Y79770D01*
X89001Y80428D01*
X89156Y81203D01*
X89001Y81979D01*
X88562Y82636D01*
X87905Y83075D01*
X87129Y83230D01*
X86445Y83094D01*
X86443Y83094D01*
X85760D01*
X85456Y83465D01*
X85365Y83925D01*
X85103Y84316D01*
X84713Y84577D01*
X84252Y84669D01*
X78740D01*
Y86614D01*
X78370D01*
Y89961D01*
Y92126D01*
X78278Y92587D01*
X78017Y92977D01*
X77626Y93239D01*
X77165Y93330D01*
X76705Y93239D01*
X76314Y92977D01*
X76053Y92587D01*
X75961Y92126D01*
Y89961D01*
Y87795D01*
Y86614D01*
X75177D01*
X74942Y87055D01*
X75128Y87334D01*
X75220Y87795D01*
Y92126D01*
Y93947D01*
X75575Y94184D01*
X76014Y94841D01*
X76168Y95617D01*
X76014Y96392D01*
X75575Y97049D01*
X74917Y97489D01*
X74142Y97643D01*
D02*
G37*
G36*
X275015Y88815D02*
X264385D01*
Y78185D01*
X275015D01*
Y88815D01*
D02*
G37*
G36*
X299213Y377200D02*
X297823Y377063D01*
X296488Y376658D01*
X295256Y375999D01*
X294177Y375114D01*
X293292Y374035D01*
X292634Y372804D01*
X292229Y371468D01*
X292092Y370079D01*
X292229Y368689D01*
X292634Y367354D01*
X293292Y366123D01*
X294177Y365043D01*
X295256Y364158D01*
X296488Y363500D01*
X297823Y363095D01*
X299213Y362958D01*
X300602Y363095D01*
X301938Y363500D01*
X303169Y364158D01*
X304248Y365043D01*
X305133Y366123D01*
X305791Y367354D01*
X306197Y368689D01*
X306333Y370079D01*
X306197Y371468D01*
X305791Y372804D01*
X305133Y374035D01*
X304248Y375114D01*
X303169Y375999D01*
X301938Y376658D01*
X300602Y377063D01*
X299213Y377200D01*
D02*
G37*
G36*
X168800Y355734D02*
X167868Y355549D01*
X167807Y355508D01*
X165335D01*
X164700Y355634D01*
X164065Y355508D01*
X162233D01*
Y353003D01*
X143272D01*
Y353050D01*
X132249D01*
Y341239D01*
X143272D01*
Y341697D01*
X162233D01*
Y337595D01*
X162797D01*
Y334900D01*
X162858Y334593D01*
X163032Y334332D01*
X163293Y334158D01*
X163600Y334097D01*
X165900D01*
X165969Y334051D01*
X166900Y333866D01*
X167832Y334051D01*
X167900Y334097D01*
X202440D01*
X203100Y333966D01*
X203760Y334097D01*
X205900D01*
X206207Y334158D01*
X206468Y334332D01*
X206642Y334593D01*
X206703Y334900D01*
Y337595D01*
X207288D01*
Y355508D01*
X198233D01*
Y353003D01*
X171288D01*
Y355508D01*
X169793D01*
X169731Y355549D01*
X168800Y355734D01*
D02*
G37*
G36*
X75332Y401537D02*
X71789D01*
Y397600D01*
X71789Y397600D01*
X71789D01*
X71799Y397582D01*
X71728Y397476D01*
X71574Y396700D01*
X71728Y395924D01*
X72167Y395267D01*
X72825Y394828D01*
X73600Y394674D01*
X74375Y394828D01*
X75033Y395267D01*
X75472Y395924D01*
X75626Y396700D01*
X75472Y397476D01*
X75332Y397685D01*
Y401537D01*
D02*
G37*
G36*
X67832D02*
X64289D01*
Y397600D01*
X64289Y397600D01*
X64289D01*
X64328Y397526D01*
X64228Y397375D01*
X64074Y396600D01*
X64228Y395825D01*
X64667Y395167D01*
X65324Y394728D01*
X66100Y394574D01*
X66875Y394728D01*
X67533Y395167D01*
X67972Y395825D01*
X68126Y396600D01*
X67972Y397375D01*
X67828Y397591D01*
X67832Y397600D01*
X67832D01*
X67832Y397600D01*
Y401537D01*
D02*
G37*
G36*
X73621Y345700D02*
X72846Y345546D01*
X72188Y345107D01*
X71749Y344449D01*
X71595Y343674D01*
X71749Y342899D01*
X71789Y342839D01*
Y338937D01*
X75332D01*
Y342657D01*
X75493Y342899D01*
X75648Y343674D01*
X75493Y344449D01*
X75054Y345107D01*
X74397Y345546D01*
X73621Y345700D01*
D02*
G37*
G36*
X74016Y333863D02*
X73240Y333709D01*
X72583Y333270D01*
X72144Y332612D01*
X71989Y331837D01*
X72144Y331062D01*
X72583Y330404D01*
X72812Y330251D01*
Y328346D01*
Y326181D01*
Y324016D01*
X72903Y323555D01*
X73090Y323276D01*
X72854Y322835D01*
X62579D01*
X62343Y323276D01*
X62530Y323555D01*
X62622Y324016D01*
Y328346D01*
X62530Y328807D01*
X62269Y329198D01*
X61878Y329459D01*
X61417Y329551D01*
X60957Y329459D01*
X60566Y329198D01*
X60305Y328807D01*
X60213Y328346D01*
Y324016D01*
X60305Y323555D01*
X60491Y323276D01*
X60256Y322835D01*
X57897D01*
Y326181D01*
Y328346D01*
X57806Y328807D01*
X57544Y329198D01*
X57154Y329459D01*
X56693Y329551D01*
X56232Y329459D01*
X55841Y329198D01*
X55580Y328807D01*
X55489Y328346D01*
Y326181D01*
Y324016D01*
Y322835D01*
X55118D01*
Y322422D01*
X54677Y322186D01*
X54398Y322372D01*
X53937Y322464D01*
X48565D01*
X48105Y322372D01*
X47714Y322111D01*
X47714Y322111D01*
X45430Y319828D01*
X43598D01*
Y320109D01*
X39661D01*
D01*
X39661Y320109D01*
X39661D01*
Y320109D01*
D01*
X39253D01*
X38936Y320495D01*
X38937Y320500D01*
X39060Y320650D01*
X39198D01*
Y325224D01*
X34623D01*
Y320650D01*
X34762D01*
X34884Y320500D01*
X35039Y319724D01*
X35478Y319067D01*
X35724Y318903D01*
Y316565D01*
X38045D01*
X38280Y316124D01*
X38047Y315775D01*
X37893Y315000D01*
X37960Y314663D01*
X36841Y313544D01*
X36580Y313153D01*
X36488Y312692D01*
X36488Y312692D01*
Y309206D01*
X35724D01*
Y305989D01*
X35337Y305672D01*
X34877Y305763D01*
X34102Y305609D01*
X33444Y305170D01*
X33005Y304512D01*
X32851Y303737D01*
X33005Y302961D01*
X33444Y302304D01*
X34102Y301865D01*
X34623Y301761D01*
Y301524D01*
X34623D01*
Y296950D01*
X39198D01*
Y301524D01*
X39198D01*
Y301612D01*
X39552Y301965D01*
X39661D01*
Y305269D01*
X39661D01*
X39661Y305269D01*
X39661Y305269D01*
X43598D01*
Y305446D01*
X44060Y305637D01*
X46611Y303085D01*
X47002Y302824D01*
X47463Y302733D01*
X47463Y302733D01*
X48098D01*
X48402Y302362D01*
X48494Y301901D01*
X48755Y301511D01*
X49145Y301250D01*
X49606Y301158D01*
X53937D01*
X54398Y301250D01*
X54677Y301436D01*
X55118Y301201D01*
Y299213D01*
X55489D01*
Y298031D01*
Y295866D01*
Y293701D01*
X55580Y293240D01*
X55841Y292849D01*
X56232Y292588D01*
X56693Y292496D01*
X57154Y292588D01*
X57544Y292849D01*
X57806Y293240D01*
X57897Y293701D01*
Y298031D01*
Y299213D01*
X71279D01*
X71515Y298772D01*
X71328Y298492D01*
X71237Y298031D01*
Y295866D01*
Y293701D01*
Y291709D01*
X71008Y291557D01*
X70569Y290899D01*
X70415Y290124D01*
X70569Y289348D01*
X71008Y288691D01*
X71666Y288251D01*
X72441Y288097D01*
X73216Y288251D01*
X73874Y288691D01*
X74313Y289348D01*
X74467Y290124D01*
X74313Y290899D01*
X73874Y291557D01*
X73645Y291709D01*
Y295866D01*
Y298031D01*
X73554Y298492D01*
X73292Y298883D01*
X72902Y299144D01*
X72902Y299144D01*
X72902D01*
Y299144D01*
X72909Y299213D01*
X74429D01*
X74665Y298772D01*
X74478Y298492D01*
X74386Y298031D01*
Y293701D01*
X74478Y293240D01*
X74739Y292849D01*
X75130Y292588D01*
X75590Y292496D01*
X76051Y292588D01*
X76378Y292806D01*
X76705Y292588D01*
X77165Y292496D01*
X77626Y292588D01*
X78017Y292849D01*
X78278Y293240D01*
X78370Y293701D01*
Y298031D01*
Y299213D01*
X78740D01*
Y299626D01*
X79181Y299862D01*
X79460Y299675D01*
X79921Y299583D01*
X82679D01*
X82824Y299105D01*
X82567Y298933D01*
X82128Y298275D01*
X81974Y297500D01*
X82128Y296725D01*
X82567Y296067D01*
X83224Y295628D01*
X84000Y295474D01*
X84776Y295628D01*
X85433Y296067D01*
X85872Y296725D01*
X86026Y297500D01*
X85872Y298275D01*
X85729Y298489D01*
X86007Y298905D01*
X86729Y298761D01*
X87279Y298870D01*
X93701Y292448D01*
X93701Y292448D01*
X94092Y292187D01*
X94264Y292153D01*
Y291565D01*
X98014D01*
X98331Y291179D01*
X98303Y291037D01*
X98457Y290262D01*
X98823Y289714D01*
Y286750D01*
X103398D01*
Y291324D01*
X102298D01*
X102201Y291812D01*
X102138Y291907D01*
Y294896D01*
X102138Y294896D01*
D01*
D01*
X102138Y295109D01*
D01*
X102279Y295250D01*
X103398D01*
Y295594D01*
X103839Y295829D01*
X104085Y295665D01*
X104861Y295511D01*
X105636Y295665D01*
X106293Y296104D01*
X106733Y296762D01*
X106887Y297537D01*
X106733Y298312D01*
X106293Y298970D01*
X105636Y299409D01*
X104861Y299563D01*
X104085Y299409D01*
X103839Y299245D01*
X103398Y299480D01*
Y299824D01*
X103398D01*
Y299877D01*
X103752Y300231D01*
X104661D01*
X105352Y300368D01*
X105938Y300760D01*
X106738Y301560D01*
X107130Y302146D01*
X107267Y302837D01*
X107267Y302837D01*
X107267Y302837D01*
Y302837D01*
Y308488D01*
X108050D01*
X108367Y308102D01*
X108334Y307937D01*
X108489Y307162D01*
X108928Y306504D01*
X109585Y306065D01*
X110361Y305911D01*
X111136Y306065D01*
X111793Y306504D01*
X112233Y307162D01*
X112387Y307937D01*
X112354Y308102D01*
X112671Y308488D01*
X114291D01*
Y316362D01*
X105630D01*
Y314769D01*
X102906D01*
Y316850D01*
X103398D01*
Y320716D01*
X103502Y321240D01*
X103348Y322016D01*
X103336Y322034D01*
X103398Y322150D01*
X103398D01*
X103398Y322150D01*
Y326724D01*
X98823D01*
Y322150D01*
X99294D01*
Y321424D01*
X98823D01*
Y316850D01*
X99294D01*
Y316309D01*
X98201D01*
D01*
X98201Y316309D01*
X98201D01*
Y316309D01*
D01*
X97406D01*
Y316850D01*
X97898D01*
Y321424D01*
X93323D01*
Y316850D01*
X93794D01*
Y315922D01*
X93353Y315686D01*
X92775Y316072D01*
X92000Y316226D01*
X91224Y316072D01*
X90567Y315633D01*
X90128Y314976D01*
X90051Y314590D01*
X85760D01*
X85456Y314961D01*
X85365Y315422D01*
X85146Y315748D01*
X85365Y316075D01*
X85456Y316535D01*
X85365Y316996D01*
X85146Y317323D01*
X85365Y317649D01*
X85456Y318110D01*
X85365Y318571D01*
X85146Y318898D01*
X85365Y319224D01*
X85456Y319685D01*
X85365Y320146D01*
X85103Y320537D01*
X84713Y320798D01*
X84252Y320889D01*
X79921D01*
X79460Y320798D01*
X79181Y320611D01*
X78740Y320847D01*
Y322835D01*
X78370D01*
Y326181D01*
Y328346D01*
X78278Y328807D01*
X78017Y329198D01*
X77626Y329459D01*
X77165Y329551D01*
X76705Y329459D01*
X76314Y329198D01*
X76053Y328807D01*
X75961Y328346D01*
Y326181D01*
Y324016D01*
Y322835D01*
X75177D01*
X74942Y323276D01*
X75128Y323555D01*
X75220Y324016D01*
Y328346D01*
Y330251D01*
X75449Y330404D01*
X75888Y331062D01*
X76042Y331837D01*
X75888Y332612D01*
X75449Y333270D01*
X74791Y333709D01*
X74016Y333863D01*
D02*
G37*
G36*
X61932Y282837D02*
X58389D01*
Y279117D01*
X58228Y278875D01*
X58074Y278100D01*
X58228Y277325D01*
X58667Y276667D01*
X59325Y276228D01*
X60100Y276074D01*
X60875Y276228D01*
X61533Y276667D01*
X61972Y277325D01*
X62126Y278100D01*
X61972Y278875D01*
X61932Y278935D01*
Y282837D01*
D02*
G37*
G36*
X66821Y345900D02*
X66046Y345746D01*
X65388Y345307D01*
X64949Y344650D01*
X64795Y343874D01*
X64949Y343099D01*
X65093Y342882D01*
X65089Y342874D01*
X65089D01*
X65089Y342874D01*
Y338937D01*
X68632D01*
Y342874D01*
X68632Y342874D01*
X68632D01*
X68593Y342948D01*
X68693Y343099D01*
X68848Y343874D01*
X68693Y344650D01*
X68254Y345307D01*
X67597Y345746D01*
X66821Y345900D01*
D02*
G37*
G36*
X59321Y345800D02*
X58546Y345646D01*
X57888Y345207D01*
X57449Y344549D01*
X57295Y343774D01*
X57449Y342999D01*
X57589Y342789D01*
Y338937D01*
X61132D01*
Y342874D01*
X61132Y342874D01*
X61132D01*
X61122Y342893D01*
X61193Y342999D01*
X61348Y343774D01*
X61193Y344549D01*
X60754Y345207D01*
X60097Y345646D01*
X59321Y345800D01*
D02*
G37*
G36*
X61132Y401537D02*
X57589D01*
Y397816D01*
X57428Y397575D01*
X57274Y396800D01*
X57428Y396024D01*
X57867Y395367D01*
X58525Y394928D01*
X59300Y394774D01*
X60075Y394928D01*
X60733Y395367D01*
X61172Y396024D01*
X61326Y396800D01*
X61172Y397575D01*
X61132Y397635D01*
Y401537D01*
D02*
G37*
G36*
X73500Y462926D02*
X72724Y462772D01*
X72067Y462333D01*
X71628Y461676D01*
X71474Y460900D01*
X71628Y460124D01*
X71789Y459883D01*
Y456437D01*
X75332D01*
Y460065D01*
X75372Y460124D01*
X75526Y460900D01*
X75372Y461676D01*
X74933Y462333D01*
X74275Y462772D01*
X73500Y462926D01*
D02*
G37*
G36*
X66100D02*
X65324Y462772D01*
X64667Y462333D01*
X64228Y461676D01*
X64074Y460900D01*
X64228Y460124D01*
X64289Y460033D01*
Y456437D01*
X67832D01*
Y459915D01*
X67972Y460124D01*
X68126Y460900D01*
X67972Y461676D01*
X67533Y462333D01*
X66875Y462772D01*
X66100Y462926D01*
D02*
G37*
G36*
X95700Y480908D02*
X94778Y480725D01*
X93997Y480203D01*
X93475Y479422D01*
X93291Y478500D01*
X93475Y477578D01*
X93723Y477207D01*
Y475003D01*
X93657Y474905D01*
X93503Y474129D01*
X93657Y473354D01*
X94096Y472696D01*
X94754Y472257D01*
X95529Y472103D01*
X96305Y472257D01*
X96962Y472696D01*
X97401Y473354D01*
X97556Y474129D01*
X97401Y474905D01*
X97335Y475003D01*
Y476752D01*
X97403Y476797D01*
X97925Y477578D01*
X98109Y478500D01*
X97925Y479422D01*
X97403Y480203D01*
X96622Y480725D01*
X95700Y480908D01*
D02*
G37*
G36*
X39700D02*
X38778Y480725D01*
X37997Y480203D01*
X37475Y479422D01*
X37291Y478500D01*
X37475Y477578D01*
X37997Y476797D01*
X38314Y476585D01*
Y474994D01*
X38047Y474595D01*
X37893Y473819D01*
X38047Y473044D01*
X38487Y472387D01*
X39144Y471947D01*
X39919Y471793D01*
X40695Y471947D01*
X41352Y472387D01*
X41791Y473044D01*
X41946Y473819D01*
X41791Y474595D01*
X41525Y474994D01*
Y476980D01*
X41925Y477578D01*
X42109Y478500D01*
X41925Y479422D01*
X41403Y480203D01*
X40622Y480725D01*
X39700Y480908D01*
D02*
G37*
G36*
X59300Y462926D02*
X58525Y462772D01*
X57867Y462333D01*
X57428Y461676D01*
X57274Y460900D01*
X57428Y460124D01*
X57589Y459883D01*
Y456437D01*
X61132D01*
Y460065D01*
X61172Y460124D01*
X61326Y460900D01*
X61172Y461676D01*
X60733Y462333D01*
X60075Y462772D01*
X59300Y462926D01*
D02*
G37*
G36*
X257261Y433042D02*
X256535Y432946D01*
X255858Y432666D01*
X255277Y432221D01*
X254831Y431640D01*
X254551Y430963D01*
X254455Y430237D01*
X254551Y429511D01*
X254831Y428834D01*
X255277Y428254D01*
X255858Y427808D01*
X256535Y427528D01*
X257261Y427432D01*
X257987Y427528D01*
X258663Y427808D01*
X259244Y428254D01*
X259690Y428834D01*
X259970Y429511D01*
X260066Y430237D01*
X259970Y430963D01*
X259690Y431640D01*
X259244Y432221D01*
X258663Y432666D01*
X257987Y432946D01*
X257261Y433042D01*
D02*
G37*
G36*
X103298Y418124D02*
X98723D01*
Y413550D01*
X103298D01*
Y414118D01*
X103739Y414354D01*
X103985Y414190D01*
X104761Y414036D01*
X105536Y414190D01*
X106193Y414629D01*
X106633Y415286D01*
X106787Y416062D01*
X106633Y416837D01*
X106193Y417495D01*
X105536Y417934D01*
X104761Y418088D01*
X103985Y417934D01*
X103739Y417769D01*
X103298Y418005D01*
Y418124D01*
D02*
G37*
G36*
X157420Y459154D02*
X152302D01*
Y455068D01*
X152051Y454463D01*
X151955Y453737D01*
X152051Y453011D01*
X152302Y452406D01*
Y452264D01*
X152386D01*
X152777Y451754D01*
X153358Y451308D01*
X154035Y451027D01*
X154761Y450932D01*
X155487Y451027D01*
X156163Y451308D01*
X156744Y451754D01*
X157136Y452264D01*
X157420D01*
Y452889D01*
X157470Y453011D01*
X157566Y453737D01*
X157470Y454463D01*
X157420Y454585D01*
Y459154D01*
D02*
G37*
G36*
X74142Y451974D02*
X73366Y451819D01*
X72709Y451380D01*
X72270Y450723D01*
X72115Y449947D01*
X72270Y449172D01*
X72709Y448514D01*
X72812Y448446D01*
Y446457D01*
Y444291D01*
Y442126D01*
X72903Y441665D01*
X73090Y441386D01*
X72854Y440945D01*
X62579D01*
X62343Y441386D01*
X62530Y441665D01*
X62622Y442126D01*
Y446457D01*
X62530Y446917D01*
X62269Y447308D01*
X61878Y447569D01*
X61417Y447661D01*
X60957Y447569D01*
X60566Y447308D01*
X60305Y446917D01*
X60213Y446457D01*
Y442126D01*
X60305Y441665D01*
X60491Y441386D01*
X60256Y440945D01*
X57897D01*
Y444291D01*
Y446457D01*
X57806Y446917D01*
X57544Y447308D01*
X57154Y447569D01*
X56693Y447661D01*
X56232Y447569D01*
X55841Y447308D01*
X55580Y446917D01*
X55489Y446457D01*
Y444291D01*
Y442126D01*
Y440945D01*
X55118D01*
Y440532D01*
X54677Y440296D01*
X54398Y440483D01*
X53937Y440574D01*
X48565D01*
X48105Y440483D01*
X47714Y440222D01*
X47714Y440222D01*
X45430Y437938D01*
X43758D01*
Y438509D01*
X39821D01*
D01*
X39821Y438509D01*
X39820D01*
Y438509D01*
D01*
X39233D01*
X38916Y438895D01*
X38937Y439000D01*
X38978Y439050D01*
X39198D01*
Y443624D01*
X34623D01*
Y439050D01*
X34844D01*
X34884Y439000D01*
X35039Y438225D01*
X35478Y437567D01*
X35767Y437374D01*
X35798Y437218D01*
X35884Y437090D01*
Y434965D01*
X38228D01*
X38463Y434524D01*
X38047Y433902D01*
X37893Y433126D01*
X37981Y432684D01*
X36149Y430852D01*
X35887Y430461D01*
X35796Y430000D01*
X35796Y430000D01*
Y426289D01*
X35796Y426289D01*
X35884Y425848D01*
Y424245D01*
X35497Y423927D01*
X35000Y424026D01*
X34225Y423872D01*
X33567Y423433D01*
X33128Y422776D01*
X32974Y422000D01*
X33128Y421224D01*
X33567Y420567D01*
X34225Y420128D01*
X34623Y420049D01*
Y419724D01*
X34623D01*
Y415150D01*
X39198D01*
Y419724D01*
X39056D01*
Y420265D01*
X39821D01*
Y423468D01*
X39821D01*
X39821Y423468D01*
X39821Y423468D01*
X43758D01*
X43758Y423468D01*
Y423468D01*
X43808Y423489D01*
X46101Y421196D01*
X46492Y420935D01*
X46953Y420843D01*
X46953Y420843D01*
X48098D01*
X48402Y420472D01*
X48494Y420012D01*
X48755Y419621D01*
X49145Y419360D01*
X49606Y419268D01*
X53937D01*
X54398Y419360D01*
X54677Y419547D01*
X55118Y419311D01*
Y417323D01*
X55489D01*
Y416142D01*
Y413976D01*
Y411811D01*
X55580Y411350D01*
X55841Y410959D01*
X56232Y410699D01*
X56693Y410607D01*
X57154Y410699D01*
X57544Y410959D01*
X57806Y411350D01*
X57897Y411811D01*
Y416142D01*
Y417323D01*
X71279D01*
X71515Y416882D01*
X71328Y416603D01*
X71237Y416142D01*
Y413976D01*
Y411811D01*
Y409819D01*
X71008Y409667D01*
X70569Y409009D01*
X70415Y408234D01*
X70569Y407458D01*
X71008Y406801D01*
X71666Y406362D01*
X72441Y406208D01*
X73216Y406362D01*
X73874Y406801D01*
X74313Y407458D01*
X74467Y408234D01*
X74313Y409009D01*
X73874Y409667D01*
X73645Y409819D01*
Y413976D01*
Y416142D01*
X73554Y416603D01*
X73292Y416993D01*
X72902Y417254D01*
X72902Y417254D01*
X72902D01*
Y417254D01*
X72909Y417323D01*
X74429D01*
X74665Y416882D01*
X74478Y416603D01*
X74386Y416142D01*
Y411811D01*
X74478Y411350D01*
X74739Y410959D01*
X75130Y410699D01*
X75590Y410607D01*
X76051Y410699D01*
X76378Y410917D01*
X76705Y410699D01*
X77165Y410607D01*
X77626Y410699D01*
X78017Y410959D01*
X78278Y411350D01*
X78370Y411811D01*
Y416142D01*
Y417323D01*
X78740D01*
Y417736D01*
X79181Y417972D01*
X79460Y417785D01*
X79921Y417693D01*
X85144D01*
X85296Y417465D01*
X85954Y417026D01*
X86729Y416871D01*
X87279Y416981D01*
X93878Y410382D01*
X93878Y410382D01*
X94268Y410121D01*
X94268Y410121D01*
X94268Y410121D01*
D01*
X94268Y410121D01*
X94268Y410121D01*
X94324Y410110D01*
Y409462D01*
X98223D01*
X98357Y408786D01*
X98723Y408238D01*
Y404450D01*
X103298D01*
Y409024D01*
X102543D01*
X102225Y409411D01*
X102255Y409562D01*
X102198Y409853D01*
Y413005D01*
X98261D01*
D01*
X98261Y413005D01*
X98261D01*
Y413005D01*
D01*
X94994D01*
X94717Y413421D01*
X94770Y413550D01*
X97798D01*
Y418124D01*
X94779D01*
X94305Y418598D01*
Y418643D01*
X94324Y418662D01*
X94511Y418662D01*
X94511Y418662D01*
X94511Y418662D01*
X98261D01*
D01*
X98261Y418662D01*
X98261Y418662D01*
X98261D01*
Y418662D01*
Y418662D01*
X102198D01*
Y418755D01*
X104561D01*
X105252Y418893D01*
X105838Y419284D01*
X106638Y420084D01*
X107029Y420671D01*
X107167Y421362D01*
X107167Y421362D01*
X107167Y421362D01*
Y421362D01*
Y426988D01*
X107945D01*
X108262Y426602D01*
X108234Y426462D01*
X108388Y425686D01*
X108828Y425029D01*
X109485Y424590D01*
X110261Y424436D01*
X111036Y424590D01*
X111694Y425029D01*
X112133Y425686D01*
X112287Y426462D01*
X112259Y426602D01*
X112576Y426988D01*
X113791D01*
Y434862D01*
X105130D01*
Y433294D01*
X103708D01*
Y442765D01*
X103531Y443657D01*
X103298Y444006D01*
Y445024D01*
X101742D01*
X101376Y445097D01*
X101010Y445024D01*
X98723D01*
Y440450D01*
X99044D01*
Y439324D01*
X98723D01*
Y434750D01*
X98723D01*
Y434659D01*
X98370Y434305D01*
X98261Y434305D01*
D01*
X98261D01*
D01*
X97806Y434305D01*
Y436972D01*
X97798Y437013D01*
Y439324D01*
X93223D01*
Y434750D01*
X94194D01*
Y433638D01*
X93229D01*
X93229Y433638D01*
X92768Y433546D01*
X92378Y433285D01*
X91904Y432812D01*
X91426Y432957D01*
X91401Y433079D01*
X90962Y433737D01*
X90305Y434176D01*
X89529Y434330D01*
X88754Y434176D01*
X88096Y433737D01*
X87657Y433079D01*
X87582Y432700D01*
X85760D01*
X85456Y433071D01*
X85365Y433532D01*
X85146Y433858D01*
X85365Y434185D01*
X85456Y434646D01*
X85365Y435107D01*
X85146Y435433D01*
X85365Y435760D01*
X85456Y436221D01*
X85365Y436681D01*
X85146Y437008D01*
X85365Y437334D01*
X85456Y437795D01*
X85365Y438256D01*
X85103Y438647D01*
X84713Y438908D01*
X84252Y439000D01*
X79921D01*
X79460Y438908D01*
X79181Y438721D01*
X78740Y438957D01*
Y440945D01*
X78370D01*
Y444291D01*
Y446457D01*
X78278Y446917D01*
X78017Y447308D01*
X77626Y447569D01*
X77165Y447661D01*
X76705Y447569D01*
X76314Y447308D01*
X76053Y446917D01*
X75961Y446457D01*
Y444291D01*
Y442126D01*
Y440945D01*
X75177D01*
X74942Y441386D01*
X75128Y441665D01*
X75220Y442126D01*
Y446457D01*
Y448278D01*
X75575Y448514D01*
X76014Y449172D01*
X76168Y449947D01*
X76014Y450723D01*
X75575Y451380D01*
X74917Y451819D01*
X74142Y451974D01*
D02*
G37*
G36*
X73621Y228795D02*
X72846Y228641D01*
X72188Y228201D01*
X71749Y227544D01*
X71595Y226768D01*
X71749Y225993D01*
X71789Y225933D01*
Y222031D01*
X75332D01*
Y225752D01*
X75493Y225993D01*
X75648Y226768D01*
X75493Y227544D01*
X75054Y228201D01*
X74397Y228641D01*
X73621Y228795D01*
D02*
G37*
G36*
X66821Y228995D02*
X66046Y228841D01*
X65388Y228401D01*
X64949Y227744D01*
X64795Y226969D01*
X64949Y226193D01*
X64949Y226193D01*
X64689Y225969D01*
X64689D01*
Y222031D01*
X68232D01*
Y223833D01*
X68266Y224000D01*
Y225553D01*
X68693Y226193D01*
X68848Y226969D01*
X68693Y227744D01*
X68254Y228401D01*
X67597Y228841D01*
X66821Y228995D01*
D02*
G37*
G36*
X175821D02*
X175046Y228841D01*
X174388Y228401D01*
X173949Y227744D01*
X173795Y226969D01*
X173949Y226193D01*
X174093Y225977D01*
X174089Y225969D01*
X174089D01*
X174089Y225969D01*
Y222031D01*
X177632D01*
Y225969D01*
X177632Y225969D01*
X177632D01*
X177593Y226043D01*
X177693Y226193D01*
X177848Y226969D01*
X177693Y227744D01*
X177254Y228401D01*
X176597Y228841D01*
X175821Y228995D01*
D02*
G37*
G36*
X169021Y228895D02*
X168246Y228741D01*
X167588Y228301D01*
X167149Y227644D01*
X166995Y226869D01*
X167149Y226093D01*
X167389Y225734D01*
Y222031D01*
X170932D01*
Y225969D01*
X170932Y225969D01*
X170932D01*
X170878Y226070D01*
X170893Y226093D01*
X171048Y226869D01*
X170893Y227644D01*
X170454Y228301D01*
X169797Y228741D01*
X169021Y228895D01*
D02*
G37*
G36*
X59321D02*
X58546Y228741D01*
X57888Y228301D01*
X57449Y227644D01*
X57295Y226869D01*
X57449Y226093D01*
X57589Y225884D01*
Y222031D01*
X61132D01*
Y225969D01*
X61132Y225969D01*
X61132D01*
X61122Y225987D01*
X61193Y226093D01*
X61348Y226869D01*
X61193Y227644D01*
X60754Y228301D01*
X60097Y228741D01*
X59321Y228895D01*
D02*
G37*
G36*
X213349Y219031D02*
X205475D01*
Y210369D01*
X208918D01*
Y206500D01*
X208963Y206275D01*
Y204213D01*
X209283D01*
Y202987D01*
X208963D01*
Y202200D01*
X208484Y202054D01*
X208193Y202491D01*
X208037Y202594D01*
Y202987D01*
X207078D01*
X206915Y203020D01*
X206753Y202987D01*
X203463D01*
Y198413D01*
X205109D01*
Y197909D01*
X205055D01*
Y197418D01*
X204613D01*
X204613Y197418D01*
X204152Y197326D01*
X203762Y197065D01*
X202155Y195458D01*
X201714Y195694D01*
X201792Y196083D01*
X201637Y196859D01*
X201198Y197516D01*
X200541Y197956D01*
X199765Y198110D01*
X199467Y198051D01*
X199190Y198466D01*
X199237Y198538D01*
X199392Y199313D01*
X199237Y200089D01*
X198798Y200746D01*
X198141Y201185D01*
X197365Y201340D01*
X196590Y201185D01*
X196042Y200819D01*
X195601Y201114D01*
X195692Y201575D01*
X195601Y202036D01*
X195340Y202426D01*
X194949Y202687D01*
X194488Y202779D01*
X188976D01*
Y204724D01*
X188606D01*
Y208071D01*
Y210236D01*
X188514Y210697D01*
X188253Y211088D01*
X187862Y211349D01*
X187402Y211440D01*
X186941Y211349D01*
X186550Y211088D01*
X186289Y210697D01*
X186197Y210236D01*
Y208071D01*
Y205906D01*
Y204724D01*
X185414D01*
X185178Y205165D01*
X185364Y205445D01*
X185456Y205906D01*
Y210236D01*
Y212057D01*
X185811Y212294D01*
X186250Y212951D01*
X186404Y213727D01*
X186250Y214502D01*
X185811Y215160D01*
X185153Y215599D01*
X184378Y215753D01*
X183602Y215599D01*
X182945Y215160D01*
X182506Y214502D01*
X182352Y213727D01*
X182506Y212951D01*
X182945Y212294D01*
X183048Y212225D01*
Y210236D01*
Y208071D01*
Y205906D01*
X183139Y205445D01*
X183326Y205165D01*
X183090Y204724D01*
X172815D01*
X172580Y205165D01*
X172766Y205445D01*
X172858Y205906D01*
Y210236D01*
X172766Y210697D01*
X172505Y211088D01*
X172114Y211349D01*
X171653Y211440D01*
X171193Y211349D01*
X170802Y211088D01*
X170541Y210697D01*
X170449Y210236D01*
Y205906D01*
X170541Y205445D01*
X170728Y205165D01*
X170492Y204724D01*
X168133D01*
Y208071D01*
Y210236D01*
X168042Y210697D01*
X167781Y211088D01*
X167390Y211349D01*
X166929Y211440D01*
X166468Y211349D01*
X166078Y211088D01*
X165817Y210697D01*
X165725Y210236D01*
Y208071D01*
Y205906D01*
Y204724D01*
X165354D01*
Y204311D01*
X164913Y204076D01*
X164634Y204262D01*
X164173Y204354D01*
X158802D01*
X158802Y204354D01*
X158341Y204262D01*
X157950Y204001D01*
X157950Y204001D01*
X155666Y201718D01*
X151613D01*
X151613Y201718D01*
X151153Y201626D01*
X150772Y201372D01*
X149374D01*
X148226Y201600D01*
X148215Y201659D01*
Y203219D01*
X148177Y203410D01*
X148113Y203889D01*
X147898Y204409D01*
Y206287D01*
X143323D01*
Y201713D01*
X144081D01*
X144174Y201600D01*
X144328Y200824D01*
X144424Y200681D01*
Y197828D01*
X146137D01*
X146392Y197778D01*
X146647Y197828D01*
X147972D01*
X148163Y197366D01*
X145849Y195052D01*
X145587Y194661D01*
X145496Y194200D01*
X145496Y194200D01*
Y190969D01*
X144424D01*
Y187031D01*
Y183828D01*
D01*
X144424Y183828D01*
X144009Y183487D01*
X143323D01*
Y178913D01*
X147898D01*
Y180791D01*
X148113Y181311D01*
X148177Y181790D01*
X148215Y181982D01*
Y182650D01*
X148264Y182724D01*
X148418Y183500D01*
X148355Y183821D01*
X148361Y183828D01*
X148361D01*
Y187031D01*
X148361D01*
X148361Y187031D01*
X148361Y187031D01*
X151265D01*
X153322Y184975D01*
X153322Y184975D01*
X153556Y184819D01*
X153712Y184714D01*
X154173Y184623D01*
X158334D01*
X158638Y184252D01*
X158730Y183791D01*
X158991Y183400D01*
X159382Y183139D01*
X159843Y183048D01*
X164173D01*
X164634Y183139D01*
X164913Y183326D01*
X165354Y183090D01*
Y181102D01*
X165725D01*
Y179921D01*
Y177756D01*
Y175591D01*
X165817Y175130D01*
X166078Y174739D01*
X166468Y174478D01*
X166929Y174386D01*
X167390Y174478D01*
X167781Y174739D01*
X168042Y175130D01*
X168133Y175591D01*
Y179921D01*
Y181102D01*
X181516D01*
X181751Y180661D01*
X181565Y180382D01*
X181473Y179921D01*
Y177756D01*
Y175591D01*
Y173599D01*
X181244Y173446D01*
X180805Y172789D01*
X180651Y172013D01*
X180805Y171238D01*
X181244Y170580D01*
X181902Y170141D01*
X182677Y169987D01*
X183453Y170141D01*
X184110Y170580D01*
X184549Y171238D01*
X184704Y172013D01*
X184549Y172789D01*
X184110Y173446D01*
X183881Y173599D01*
Y177756D01*
Y179921D01*
X183790Y180382D01*
X183529Y180773D01*
X183138Y181034D01*
X183138Y181034D01*
X183138D01*
Y181034D01*
X183145Y181102D01*
X184665D01*
X184901Y180661D01*
X184714Y180382D01*
X184623Y179921D01*
Y175591D01*
X184714Y175130D01*
X184975Y174739D01*
X185366Y174478D01*
X185827Y174386D01*
X186288Y174478D01*
X186614Y174696D01*
X186941Y174478D01*
X187402Y174386D01*
X187862Y174478D01*
X188253Y174739D01*
X188514Y175130D01*
X188606Y175591D01*
Y179921D01*
Y181102D01*
X188976D01*
Y181516D01*
X189417Y181751D01*
X189697Y181565D01*
X190157Y181473D01*
X195380D01*
X195533Y181244D01*
X196190Y180805D01*
X196965Y180651D01*
X196998Y180657D01*
X202349Y175307D01*
X202805Y175002D01*
X203343Y174895D01*
X204063D01*
Y174528D01*
X206292D01*
X207942Y174200D01*
X208096Y173424D01*
X208463Y172877D01*
Y169513D01*
X213037D01*
Y174087D01*
X212474D01*
X211937Y174528D01*
X211937Y174528D01*
D01*
Y177513D01*
X213537D01*
Y177757D01*
X213978Y177992D01*
X214225Y177828D01*
X215000Y177674D01*
X215775Y177828D01*
X216433Y178267D01*
X216872Y178925D01*
X217026Y179700D01*
X216872Y180475D01*
X216433Y181133D01*
X215775Y181572D01*
X215000Y181726D01*
X214225Y181572D01*
X213978Y181408D01*
X213537Y181643D01*
Y181872D01*
X213924Y182189D01*
X214000Y182174D01*
X214775Y182328D01*
X215433Y182767D01*
X215872Y183425D01*
X216026Y184200D01*
X215872Y184976D01*
X215433Y185633D01*
X214775Y186072D01*
X214000Y186226D01*
X213924Y186211D01*
X213537Y186528D01*
Y190887D01*
X212929D01*
Y191128D01*
X212929D01*
Y191530D01*
X213264Y191754D01*
X213770Y192511D01*
X213948Y193403D01*
Y194238D01*
X214072Y194424D01*
X214226Y195200D01*
X214072Y195975D01*
X213948Y196162D01*
Y206403D01*
X213770Y207296D01*
X213582Y207577D01*
Y212862D01*
X213555Y212999D01*
X213431Y213939D01*
X213349Y214138D01*
Y219031D01*
D02*
G37*
G36*
X278630Y202014D02*
X267606D01*
Y194462D01*
X266169D01*
Y194324D01*
X265135D01*
X264674Y194515D01*
X264000Y194603D01*
X263326Y194515D01*
X262698Y194255D01*
X262159Y193841D01*
X261745Y193302D01*
X261485Y192674D01*
X261397Y192000D01*
X261485Y191326D01*
X261745Y190698D01*
X262159Y190159D01*
X262698Y189745D01*
X263326Y189485D01*
X264000Y189397D01*
X264674Y189485D01*
X265302Y189745D01*
X265472Y189876D01*
X266169D01*
Y189738D01*
X274831D01*
Y190684D01*
X275030Y190837D01*
X275460Y191398D01*
X275730Y192050D01*
X275822Y192750D01*
Y194140D01*
X278630D01*
Y202014D01*
D02*
G37*
G36*
X293000Y217603D02*
X292326Y217515D01*
X291698Y217255D01*
X291159Y216841D01*
X290745Y216302D01*
X290485Y215674D01*
X290397Y215000D01*
X290485Y214326D01*
X290745Y213698D01*
X291159Y213159D01*
X291698Y212745D01*
X292326Y212485D01*
X293000Y212397D01*
X293674Y212485D01*
X294122Y212671D01*
X294538Y212393D01*
Y212306D01*
Y210964D01*
X294492Y210732D01*
Y209909D01*
X293591D01*
Y211463D01*
X282567D01*
Y203589D01*
X285670D01*
Y202014D01*
X282567D01*
Y194140D01*
X293591D01*
Y202014D01*
X290487D01*
Y203589D01*
X293591D01*
Y205092D01*
X294492D01*
Y204468D01*
X294675Y203547D01*
X294735Y203457D01*
Y202106D01*
X296667D01*
X296900Y202060D01*
X297133Y202106D01*
X299065D01*
Y203457D01*
X299125Y203547D01*
X299308Y204468D01*
Y205200D01*
X299308Y205200D01*
Y206997D01*
X299409Y207500D01*
X299308Y208003D01*
Y210732D01*
X299262Y210964D01*
Y212206D01*
X302965D01*
Y216931D01*
X299262D01*
Y217031D01*
X294593D01*
X294302Y217255D01*
X293674Y217515D01*
X293000Y217603D01*
D02*
G37*
G36*
X74142Y215753D02*
X73366Y215599D01*
X72709Y215160D01*
X72270Y214502D01*
X72115Y213727D01*
X72270Y212951D01*
X72709Y212294D01*
X72812Y212225D01*
Y210236D01*
Y208071D01*
Y205906D01*
X72903Y205445D01*
X73090Y205165D01*
X72854Y204724D01*
X62579D01*
X62343Y205165D01*
X62530Y205445D01*
X62622Y205906D01*
Y210236D01*
X62530Y210697D01*
X62269Y211088D01*
X61878Y211349D01*
X61417Y211440D01*
X60957Y211349D01*
X60566Y211088D01*
X60305Y210697D01*
X60213Y210236D01*
Y205906D01*
X60305Y205445D01*
X60491Y205165D01*
X60256Y204724D01*
X57897D01*
Y208071D01*
Y210236D01*
X57806Y210697D01*
X57544Y211088D01*
X57154Y211349D01*
X56693Y211440D01*
X56232Y211349D01*
X55841Y211088D01*
X55580Y210697D01*
X55489Y210236D01*
Y208071D01*
Y205906D01*
Y204724D01*
X55118D01*
Y204311D01*
X54677Y204076D01*
X54398Y204262D01*
X53937Y204354D01*
X48565D01*
X48105Y204262D01*
X47714Y204001D01*
X47714Y204001D01*
X45430Y201718D01*
X42638D01*
Y201772D01*
X39198D01*
Y206287D01*
X34623D01*
Y201713D01*
X34764D01*
Y198228D01*
X37644D01*
X37961Y197842D01*
X37893Y197500D01*
X37960Y197163D01*
X35881Y195084D01*
X35620Y194693D01*
X35528Y194232D01*
X35528Y194232D01*
Y191469D01*
X34764D01*
Y188052D01*
X34377Y187735D01*
X33917Y187826D01*
X33141Y187672D01*
X32484Y187233D01*
X32044Y186575D01*
X31890Y185800D01*
X32044Y185024D01*
X32484Y184367D01*
X33141Y183928D01*
X33917Y183774D01*
X34376Y183865D01*
X34763Y183548D01*
Y179413D01*
X39337D01*
Y183987D01*
X38700D01*
Y184028D01*
X38700D01*
Y187531D01*
X38701Y187531D01*
D01*
D01*
X38701D01*
Y187531D01*
Y187531D01*
X42638D01*
X42638Y187531D01*
Y187531D01*
X42728Y187569D01*
X45322Y184975D01*
X45712Y184714D01*
X46173Y184623D01*
X48098D01*
X48402Y184252D01*
X48494Y183791D01*
X48755Y183400D01*
X49145Y183139D01*
X49606Y183048D01*
X53937D01*
X54398Y183139D01*
X54677Y183326D01*
X55118Y183090D01*
Y181102D01*
X55489D01*
Y179921D01*
Y177756D01*
Y175591D01*
X55580Y175130D01*
X55841Y174739D01*
X56232Y174478D01*
X56693Y174386D01*
X57154Y174478D01*
X57544Y174739D01*
X57806Y175130D01*
X57897Y175591D01*
Y179921D01*
Y181102D01*
X71279D01*
X71515Y180661D01*
X71328Y180382D01*
X71237Y179921D01*
Y177756D01*
Y175591D01*
Y173599D01*
X71008Y173446D01*
X70569Y172789D01*
X70415Y172013D01*
X70569Y171238D01*
X71008Y170580D01*
X71666Y170141D01*
X72441Y169987D01*
X73216Y170141D01*
X73874Y170580D01*
X74313Y171238D01*
X74467Y172013D01*
X74313Y172789D01*
X73874Y173446D01*
X73645Y173599D01*
Y177756D01*
Y179921D01*
X73554Y180382D01*
X73292Y180773D01*
X72902Y181034D01*
X72902Y181034D01*
X72902D01*
Y181034D01*
X72909Y181102D01*
X74429D01*
X74665Y180661D01*
X74478Y180382D01*
X74386Y179921D01*
Y175591D01*
X74478Y175130D01*
X74739Y174739D01*
X75130Y174478D01*
X75590Y174386D01*
X76051Y174478D01*
X76378Y174696D01*
X76705Y174478D01*
X77165Y174386D01*
X77626Y174478D01*
X78017Y174739D01*
X78278Y175130D01*
X78370Y175591D01*
Y179921D01*
Y181102D01*
X78740D01*
Y181516D01*
X79181Y181751D01*
X79460Y181565D01*
X79921Y181473D01*
X82514D01*
X82659Y180994D01*
X82567Y180933D01*
X82128Y180275D01*
X81974Y179500D01*
X82128Y178725D01*
X82567Y178067D01*
X83224Y177628D01*
X84000Y177474D01*
X84776Y177628D01*
X85433Y178067D01*
X85872Y178725D01*
X86026Y179500D01*
X85872Y180275D01*
X85814Y180362D01*
X86092Y180778D01*
X86729Y180651D01*
X87279Y180760D01*
X93878Y174162D01*
X93878Y174162D01*
X94268Y173901D01*
X94424Y173870D01*
Y173528D01*
X98361D01*
Y173528D01*
D01*
X98361Y173528D01*
X98361D01*
Y173528D01*
X98397D01*
X98457Y173224D01*
X98823Y172677D01*
Y168513D01*
X103398D01*
Y173087D01*
X102568D01*
X102298Y173417D01*
Y173528D01*
X102298D01*
Y173709D01*
X102356Y174000D01*
X102298Y174291D01*
Y177072D01*
X102298D01*
Y177159D01*
X102651Y177513D01*
X103398D01*
Y177621D01*
X103785Y177828D01*
X104561Y177674D01*
X105336Y177828D01*
X105993Y178267D01*
X106433Y178925D01*
X106587Y179700D01*
X106433Y180475D01*
X105993Y181133D01*
X105336Y181572D01*
X104561Y181726D01*
X103785Y181572D01*
X103398Y181889D01*
Y182087D01*
X102639D01*
X102298Y182428D01*
X102298Y182441D01*
X102298Y182441D01*
X102298D01*
Y183194D01*
X104661D01*
X105352Y183331D01*
X105938Y183723D01*
X106738Y184523D01*
X107130Y185109D01*
X107267Y185800D01*
Y191551D01*
X108070D01*
X108387Y191165D01*
X108334Y190900D01*
X108489Y190124D01*
X108928Y189467D01*
X109585Y189028D01*
X110361Y188874D01*
X111136Y189028D01*
X111793Y189467D01*
X112233Y190124D01*
X112387Y190900D01*
X112334Y191165D01*
X112652Y191551D01*
X114331D01*
Y199425D01*
X105669D01*
Y197732D01*
X103432D01*
Y203851D01*
X103502Y204203D01*
X103432Y204556D01*
Y206400D01*
X103398Y206572D01*
Y208787D01*
X98823D01*
Y206679D01*
X98768Y206400D01*
Y197909D01*
X98361Y197909D01*
D01*
X98361D01*
Y197909D01*
D01*
X97797D01*
X97605Y198371D01*
X97647Y198413D01*
X97898D01*
Y202987D01*
X93323D01*
Y198413D01*
X93680D01*
X93682Y197897D01*
X93241Y197661D01*
X92775Y197972D01*
X92000Y198126D01*
X91224Y197972D01*
X90567Y197533D01*
X90128Y196876D01*
X90049Y196480D01*
X85760D01*
X85456Y196850D01*
X85365Y197311D01*
X85146Y197638D01*
X85232Y197766D01*
X85232Y197766D01*
Y197766D01*
X85394Y197798D01*
X85722Y197863D01*
X86354Y197441D01*
X87129Y197287D01*
X87905Y197441D01*
X88562Y197880D01*
X89001Y198538D01*
X89156Y199313D01*
X89001Y200089D01*
X88562Y200746D01*
X87905Y201185D01*
X87129Y201340D01*
X86445Y201204D01*
X86443Y201204D01*
X85760D01*
X85456Y201575D01*
X85365Y202036D01*
X85103Y202426D01*
X84713Y202687D01*
X84252Y202779D01*
X78740D01*
Y204724D01*
X78370D01*
Y208071D01*
Y210236D01*
X78278Y210697D01*
X78017Y211088D01*
X77626Y211349D01*
X77165Y211440D01*
X76705Y211349D01*
X76314Y211088D01*
X76053Y210697D01*
X75961Y210236D01*
Y208071D01*
Y205906D01*
Y204724D01*
X75177D01*
X74942Y205165D01*
X75128Y205445D01*
X75220Y205906D01*
Y210236D01*
Y212057D01*
X75575Y212294D01*
X76014Y212951D01*
X76168Y213727D01*
X76014Y214502D01*
X75575Y215160D01*
X74917Y215599D01*
X74142Y215753D01*
D02*
G37*
G36*
X183021Y228795D02*
X182246Y228641D01*
X181588Y228201D01*
X181149Y227544D01*
X180995Y226768D01*
X181149Y225993D01*
X181189Y225933D01*
Y222031D01*
X184732D01*
Y225752D01*
X184893Y225993D01*
X185048Y226768D01*
X184893Y227544D01*
X184454Y228201D01*
X183797Y228641D01*
X183021Y228795D01*
D02*
G37*
G36*
X226400Y267509D02*
Y267461D01*
X219000D01*
X218900Y267300D01*
X214500Y267348D01*
X212540Y267155D01*
X210655Y266583D01*
X208917Y265655D01*
X207395Y264405D01*
X206145Y262883D01*
X205217Y261145D01*
X204645Y259260D01*
X204452Y257300D01*
X204452D01*
X204500Y257252D01*
X204452Y245900D01*
X204645Y243940D01*
X205217Y242055D01*
X206145Y240317D01*
X207395Y238795D01*
X208917Y237545D01*
X210655Y236616D01*
X212540Y236045D01*
X214500Y235852D01*
Y235852D01*
X214548Y235900D01*
X226400Y235852D01*
X228360Y236045D01*
X230245Y236616D01*
X231983Y237545D01*
X233505Y238795D01*
X234755Y240317D01*
X235683Y242055D01*
X236255Y243940D01*
X236448Y245900D01*
X236448D01*
X236400Y245948D01*
X236448Y257461D01*
X236255Y259421D01*
X235683Y261306D01*
X234755Y263043D01*
X233505Y264566D01*
X231983Y265816D01*
X230245Y266744D01*
X228360Y267316D01*
X226400Y267509D01*
D02*
G37*
G36*
X150175Y256405D02*
X149321Y256235D01*
X148598Y255752D01*
X148114Y255028D01*
X147944Y254175D01*
X148114Y253321D01*
X148598Y252598D01*
X149321Y252114D01*
X150175Y251944D01*
X151028Y252114D01*
X151752Y252598D01*
X152235Y253321D01*
X152405Y254175D01*
X152235Y255028D01*
X151752Y255752D01*
X151028Y256235D01*
X150175Y256405D01*
D02*
G37*
G36*
X75332Y282837D02*
X71789D01*
Y278900D01*
X71789Y278900D01*
X71789D01*
X71799Y278882D01*
X71728Y278776D01*
X71574Y278000D01*
X71728Y277224D01*
X72167Y276567D01*
X72825Y276128D01*
X73600Y275974D01*
X74375Y276128D01*
X75033Y276567D01*
X75472Y277224D01*
X75626Y278000D01*
X75472Y278776D01*
X75332Y278985D01*
Y282837D01*
D02*
G37*
G36*
X68632D02*
X65089D01*
Y278900D01*
X65089Y278900D01*
X65089D01*
X65128Y278826D01*
X65028Y278676D01*
X64874Y277900D01*
X65028Y277125D01*
X65467Y276467D01*
X66124Y276028D01*
X66900Y275874D01*
X67676Y276028D01*
X68333Y276467D01*
X68772Y277125D01*
X68926Y277900D01*
X68772Y278676D01*
X68628Y278891D01*
X68632Y278900D01*
X68632D01*
X68632Y278900D01*
Y282837D01*
D02*
G37*
G36*
X193500Y256230D02*
X192647Y256061D01*
X191923Y255577D01*
X191439Y254854D01*
X191270Y254000D01*
X191439Y253147D01*
X191923Y252423D01*
X192647Y251940D01*
X193500Y251770D01*
X194353Y251940D01*
X195077Y252423D01*
X195561Y253147D01*
X195730Y254000D01*
X195561Y254854D01*
X195077Y255577D01*
X194353Y256061D01*
X193500Y256230D01*
D02*
G37*
G36*
X95500Y249230D02*
X94647Y249061D01*
X93923Y248577D01*
X93440Y247853D01*
X93270Y247000D01*
X93440Y246146D01*
X93923Y245423D01*
X94647Y244939D01*
X95500Y244770D01*
X96354Y244939D01*
X97077Y245423D01*
X97561Y246146D01*
X97730Y247000D01*
X97561Y247853D01*
X97077Y248577D01*
X96354Y249061D01*
X95500Y249230D01*
D02*
G37*
G36*
X200500Y248130D02*
X199646Y247960D01*
X198923Y247477D01*
X198440Y246754D01*
X198270Y245900D01*
X198440Y245046D01*
X198923Y244323D01*
X199646Y243840D01*
X200500Y243670D01*
X201354Y243840D01*
X202077Y244323D01*
X202560Y245046D01*
X202730Y245900D01*
X202560Y246754D01*
X202077Y247477D01*
X201354Y247960D01*
X200500Y248130D01*
D02*
G37*
G36*
X87000Y256230D02*
X86146Y256061D01*
X85423Y255577D01*
X84939Y254854D01*
X84770Y254000D01*
X84939Y253147D01*
X85423Y252423D01*
X86146Y251940D01*
X87000Y251770D01*
X87853Y251940D01*
X88577Y252423D01*
X89060Y253147D01*
X89230Y254000D01*
X89060Y254854D01*
X88577Y255577D01*
X87853Y256061D01*
X87000Y256230D01*
D02*
G37*
G36*
X39500D02*
X38647Y256061D01*
X37923Y255577D01*
X37440Y254854D01*
X37270Y254000D01*
X37440Y253147D01*
X37923Y252423D01*
X38647Y251940D01*
X39500Y251770D01*
X40354Y251940D01*
X41077Y252423D01*
X41561Y253147D01*
X41730Y254000D01*
X41561Y254854D01*
X41077Y255577D01*
X40354Y256061D01*
X39500Y256230D01*
D02*
G37*
%LPD*%
D10*
X211250Y212862D02*
G03*
X209412Y214700I-1838J0D01*
G01*
X211250Y206500D02*
Y212862D01*
X101376Y429765D02*
Y442765D01*
X101161Y430962D02*
X103761D01*
X105361D01*
X103761D02*
X110149D01*
X110261Y430850D01*
X101261Y312437D02*
X103861D01*
X105461D01*
X103861D02*
X110249D01*
X110361Y312325D01*
X101315Y75303D02*
Y88303D01*
X101100Y76500D02*
X103700D01*
X105300D01*
X103700D02*
X110088D01*
X110200Y76388D01*
X103861Y195400D02*
X110249D01*
X101100Y193400D02*
Y206400D01*
X101261Y195400D02*
X103861D01*
X105461D01*
X211615Y193403D02*
Y206403D01*
X219988Y76600D02*
X220100Y76488D01*
X213600Y76600D02*
X219988D01*
X213600D02*
X215200D01*
X211000D02*
X213600D01*
X262761Y425237D02*
Y432737D01*
X254861Y440637D02*
X262761Y432737D01*
X254861Y440637D02*
Y451537D01*
X211215Y75403D02*
Y88403D01*
X273118Y192750D02*
Y198077D01*
D11*
X187402Y64803D02*
G03*
X177402Y74803I-10000J0D01*
G01*
X264900Y67900D02*
G03*
X267731Y70732I0J2832D01*
G01*
X290130Y66730D02*
G03*
X291650Y70400I-3670J3670D01*
G01*
X275600Y66800D02*
G03*
X275606Y66805I0J6D01*
G01*
X228617Y134000D02*
G03*
X229100Y134200I0J683D01*
G01*
X281200Y75642D02*
G03*
X279247Y77595I-1953J0D01*
G01*
X282700D02*
G03*
X281200Y76095I0J-1500D01*
G01*
X177165Y74803D02*
X177402D01*
X256600Y83500D02*
X260153D01*
X251165Y81532D02*
X260153D01*
X172000Y9037D02*
X172161D01*
X172000D02*
Y14250D01*
X180711Y15487D02*
X180811D01*
X180711Y9037D02*
Y15487D01*
X283900Y77595D02*
X284695D01*
X283900D02*
X284805D01*
X273637Y73953D02*
X275606D01*
Y66805D02*
Y73953D01*
X267731Y70732D02*
Y73953D01*
X279247Y83500D02*
X284000D01*
X284050Y63300D02*
X286700D01*
X290130Y66730D01*
X269700Y67300D02*
Y68200D01*
Y73953D01*
X279247Y79563D02*
X285663D01*
X289318Y83218D01*
Y84281D01*
X251600Y88500D02*
X256600Y83500D01*
X281200Y72300D02*
Y75642D01*
Y76095D01*
X282700Y77595D02*
X283900D01*
X279247D02*
X282700D01*
X283900D02*
X290900D01*
D12*
X146392Y203219D02*
G03*
X145611Y204000I-781J0D01*
G01*
Y181200D02*
G03*
X146392Y181982I0J781D01*
G01*
X145611Y63600D02*
G03*
X146532Y64522I0J922D01*
G01*
X218701Y398784D02*
G03*
X220157Y399388I0J2060D01*
G01*
X253100Y415517D02*
G03*
X251247Y416284I-1852J-1852D01*
G01*
X251165D02*
G03*
X249175Y415460I0J-2813D01*
G01*
Y417108D02*
G03*
X251165Y416284I1989J1989D01*
G01*
X275600Y66800D02*
G03*
X284050Y63300I8450J8450D01*
G01*
X212944Y147000D02*
G03*
X205873Y144071I0J-10000D01*
G01*
X220998Y134000D02*
G03*
X221456Y135104I-1104J1104D01*
G01*
X31502Y132900D02*
G03*
X34144Y139280I-6380J6380D01*
G01*
X32100Y371000D02*
G03*
X34743Y377380I-6380J6380D01*
G01*
X301179Y245450D02*
G03*
X301300Y245500I0J171D01*
G01*
X285017Y257500D02*
G03*
X285500Y257700I0J683D01*
G01*
X285100Y264427D02*
G03*
X284324Y266300I-2649J0D01*
G01*
X286600Y298490D02*
G03*
X283671Y305561I-10000J0D01*
G01*
X287138Y296300D02*
G03*
X285200Y291621I4679J-4679D01*
G01*
X286923Y345124D02*
G03*
X285400Y348800I-5199J0D01*
G01*
X146392Y199600D02*
Y203219D01*
Y181982D02*
Y185600D01*
X146532Y64522D02*
Y67700D01*
X221811Y411737D02*
X222261D01*
X254261Y425237D02*
X262761D01*
X253761Y424737D02*
X254261Y425237D01*
X253761Y421690D02*
Y424737D01*
X247761Y416284D02*
X253261D01*
X215761Y398784D02*
X220564D01*
X264100Y192100D02*
X268531D01*
X221481Y134200D02*
X229100D01*
X221456Y147000D02*
X226000D01*
X195802Y134000D02*
X205873Y144071D01*
X212944Y147000D02*
X215944D01*
X221456Y135104D02*
Y147000D01*
X23800Y132900D02*
X31502D01*
X30700Y145500D02*
X34144D01*
X34144Y139280D02*
Y145500D01*
X34743Y377380D02*
Y383600D01*
X31298Y383600D02*
X34743D01*
X24398Y371000D02*
X32100D01*
X297400Y245450D02*
X301179D01*
X280450Y257500D02*
X285017D01*
X285100Y258400D02*
Y264427D01*
X282887Y306345D02*
X283671Y305561D01*
X285200Y286800D02*
Y291621D01*
X286600Y296100D02*
Y298490D01*
X286923Y333700D02*
Y345124D01*
D13*
X202761Y346551D02*
G03*
X202167Y347145I-594J0D01*
G01*
X305100Y416585D02*
G03*
X305000Y416685I-100J0D01*
G01*
X281850Y132000D02*
G03*
X288081Y134581I0J8812D01*
G01*
X288365Y91585D02*
G03*
X283500Y93600I-4865J-4865D01*
G01*
X137761Y347145D02*
X202167D01*
X305100Y412300D02*
Y416585D01*
X189261Y4837D02*
X191192D01*
X203343Y176300D02*
X205200D01*
X196965Y182677D02*
X203343Y176300D01*
X36250Y79250D02*
Y86000D01*
X59361Y458405D02*
Y460839D01*
X66100Y458445D02*
Y460900D01*
X73500Y458466D02*
Y460900D01*
Y104135D02*
Y106569D01*
X66100Y104114D02*
Y106569D01*
X59361Y104075D02*
Y106509D01*
X73561Y396739D02*
Y399569D01*
X66061Y396661D02*
Y399569D01*
X59361Y396861D02*
Y399569D01*
X73561Y340905D02*
Y343613D01*
X66861Y340905D02*
Y343813D01*
X59361Y340905D02*
Y343735D01*
X60161Y278161D02*
Y280869D01*
X66861Y277961D02*
Y280869D01*
X73561Y278039D02*
Y280869D01*
Y224000D02*
Y226708D01*
X66861Y224000D02*
Y226908D01*
X59361Y224000D02*
Y226829D01*
X60000Y156324D02*
Y159031D01*
X66700Y156124D02*
Y159031D01*
X74200Y156202D02*
Y159031D01*
X59361Y41787D02*
Y44495D01*
X66061Y41587D02*
Y44495D01*
X73561Y41665D02*
Y44495D01*
X169161Y41787D02*
Y44495D01*
X175861Y41587D02*
Y44495D01*
X183361Y41665D02*
Y44495D01*
X182961Y104135D02*
Y106843D01*
X175861Y104135D02*
Y107043D01*
X169061Y104135D02*
Y106965D01*
X167961Y160061D02*
Y162768D01*
X174961Y159861D02*
Y162768D01*
X181961Y159939D02*
Y162768D01*
X182961Y224000D02*
Y226708D01*
X175861Y224000D02*
Y226908D01*
X169061Y224000D02*
Y226829D01*
X297374Y250924D02*
X297400Y250950D01*
X282651Y250924D02*
X297374D01*
X275170D02*
X279095Y247000D01*
X289650D01*
X291200Y245450D01*
X275170Y241476D02*
Y244170D01*
X276000Y245000D01*
X282000D01*
X282651Y244349D01*
Y241476D02*
Y244349D01*
X281850Y132000D02*
X281858D01*
X288081Y134581D02*
X292900Y139400D01*
X288365Y91585D02*
X295950Y84000D01*
X294042Y214568D02*
X300800D01*
D14*
X227000Y386900D02*
G03*
X229600Y384300I2600J0D01*
G01*
X276150Y179161D02*
G03*
X274471Y175107I4054J-4054D01*
G01*
X283400Y143936D02*
G03*
X281650Y148161I-5975J0D01*
G01*
Y179161D02*
G03*
X282038Y179000I388J388D01*
G01*
X281650Y179161D02*
G03*
X282038Y179000I388J388D01*
G01*
X281650Y179161D02*
G03*
X282038Y179000I388J388D01*
G01*
X229600Y384300D02*
X229700D01*
X227000Y386900D02*
Y389087D01*
X275170Y226870D02*
Y241476D01*
X278911Y230413D02*
X284324Y225000D01*
X278911Y230413D02*
Y241476D01*
X283329Y158461D02*
X284000Y159132D01*
X288079Y207526D02*
X288105Y207500D01*
X296900Y204468D02*
Y207400D01*
X288105Y207500D02*
X297000D01*
X296900Y207400D02*
X297000Y207500D01*
X288079Y198077D02*
Y207526D01*
X296900Y205200D02*
Y210732D01*
X274471Y162201D02*
Y175107D01*
X283400Y140161D02*
Y143936D01*
X282038Y179000D02*
X284000D01*
X293000D01*
X189261Y4837D02*
X209561D01*
X220472Y15748D01*
X172161Y3537D02*
X180711D01*
X284000Y159132D02*
Y179000D01*
D15*
X95700Y478500D02*
G03*
X95529Y478329I0J-171D01*
G01*
X272800Y267508D02*
G03*
X273300Y266300I1709J0D01*
G01*
X266724D02*
G03*
X266000Y266000I0J-1024D01*
G01*
X274471Y154720D02*
G03*
X274400Y154549I171J-171D01*
G01*
Y136708D02*
G03*
X276350Y132000I6658J0D01*
G01*
X95529Y474129D02*
Y478329D01*
X205787Y184265D02*
Y187537D01*
X104561Y420562D02*
X105361Y421362D01*
X100229Y420562D02*
X104561D01*
X110261Y426462D02*
Y430850D01*
X105361Y421362D02*
Y430962D01*
X101100Y311300D02*
Y324300D01*
X104661Y302037D02*
X105461Y302837D01*
X100329Y302037D02*
X104661D01*
X110361Y307937D02*
Y312325D01*
X105461Y302837D02*
Y312437D01*
X104500Y66100D02*
X105300Y66900D01*
X100169Y66100D02*
X104500D01*
X105300Y66900D02*
Y76500D01*
X110249Y195400D02*
X110361Y190900D01*
X104661Y185000D02*
X105461Y185800D01*
X100329Y185000D02*
X104661D01*
X105461Y185800D02*
Y195400D01*
X210469Y184200D02*
X214000D01*
X215200Y67000D02*
Y76600D01*
X220100Y72100D02*
Y76488D01*
X210068Y66200D02*
X214400D01*
X215200Y67000D01*
X95529Y421134D02*
Y424405D01*
X96000Y429400D02*
Y436972D01*
X95800Y302800D02*
Y306072D01*
X95600Y311965D02*
Y319537D01*
X95479Y200813D02*
X95500Y194200D01*
X96100Y184400D02*
Y187672D01*
X95479Y75131D02*
Y82703D01*
X95529Y66803D02*
Y70075D01*
X205715Y75131D02*
Y82703D01*
X205765Y66803D02*
Y70075D01*
X206915Y193642D02*
Y201213D01*
X272800Y267508D02*
Y276400D01*
X274400Y140161D02*
Y154549D01*
Y136708D02*
Y140161D01*
D16*
X220957Y405468D02*
G03*
X223576Y406552I0J3703D01*
G01*
X220895Y406114D02*
G03*
X223792Y406768I931J2621D01*
G01*
X220493Y404983D02*
G03*
X222448Y405425I628J1769D01*
G01*
X220994Y406062D02*
G03*
X222288Y405824I897J1245D01*
G01*
X223292Y410706D02*
G03*
X221840Y411240I-1305J-1305D01*
G01*
X222758Y412157D02*
G03*
X223292Y410706I1839J-147D01*
G01*
X221516Y404493D02*
X223792Y406769D01*
X222261Y411737D02*
X223292Y410706D01*
D17*
X215761Y406206D02*
G03*
X216205Y405134I1516J0D01*
G01*
X215317D02*
G03*
X215761Y406206I-1072J1072D01*
G01*
X217261Y408737D02*
X222261D01*
X215761Y407237D02*
X217261Y408737D01*
X215761Y404690D02*
Y407237D01*
D18*
X241761Y419624D02*
G03*
X241279Y420787I-1644J0D01*
G01*
X242242D02*
G03*
X241761Y419624I1163J-1163D01*
G01*
X241279Y424724D02*
G03*
X237626Y426237I-3653J-3653D01*
G01*
X241986Y425431D02*
G03*
X240040Y426237I-1946J-1946D01*
G01*
X237724Y390268D02*
G03*
X238810Y390719I0J1537D01*
G01*
Y389755D02*
G03*
X237572Y390268I-1239J-1239D01*
G01*
X244873Y390237D02*
G03*
X243711Y389755I0J-1644D01*
G01*
Y390719D02*
G03*
X244873Y390237I1163J1163D01*
G01*
X254526Y394430D02*
G03*
X253027Y393809I0J-2120D01*
G01*
Y395051D02*
G03*
X254526Y394430I1499J1499D01*
G01*
X246501Y396943D02*
G03*
X247122Y395444I2120J0D01*
G01*
X245880D02*
G03*
X246501Y396943I-1499J1499D01*
G01*
X244381Y394430D02*
G03*
X245880Y395051I0J2120D01*
G01*
Y393809D02*
G03*
X244381Y394430I-1499J-1499D01*
G01*
X244542D02*
G03*
X242834Y393723I0J-2415D01*
G01*
X242834Y394964D02*
G03*
X244124Y394430I1290J1290D01*
G01*
X254526Y399430D02*
G03*
X253027Y398809I0J-2120D01*
G01*
Y400051D02*
G03*
X254526Y399430I1499J1499D01*
G01*
X246501Y396917D02*
G03*
X245880Y398415I-2120J0D01*
G01*
X247122D02*
G03*
X246501Y396917I1499J-1499D01*
G01*
Y401943D02*
G03*
X247122Y400444I2120J0D01*
G01*
X245880D02*
G03*
X246501Y401943I-1499J1499D01*
G01*
X258761Y413665D02*
G03*
X258140Y415164I-2120J0D01*
G01*
X259381D02*
G03*
X258761Y413665I1499J-1499D01*
G01*
X246501Y402000D02*
G03*
X245939Y403356I-1918J0D01*
G01*
X247181D02*
G03*
X246501Y401715I1641J-1641D01*
G01*
X249467Y403977D02*
G03*
X247968Y403356I0J-2120D01*
G01*
Y404598D02*
G03*
X249467Y403977I1499J1499D01*
G01*
Y409883D02*
G03*
X247968Y409262I0J-2120D01*
G01*
Y410503D02*
G03*
X249467Y409883I1499J1499D01*
G01*
X254780Y394430D02*
G03*
X255997Y394934I0J1721D01*
G01*
Y393414D02*
G03*
X253544Y394430I-2453J-2453D01*
G01*
X253544Y399430D02*
G03*
X255997Y400446I0J3469D01*
G01*
Y398926D02*
G03*
X254780Y399430I-1217J-1217D01*
G01*
X227308Y425284D02*
G03*
X228171Y423752I1792J0D01*
G01*
X226445D02*
G03*
X227308Y425284I-929J1532D01*
G01*
X243461Y415037D02*
G03*
X245552Y416679I0J2153D01*
G01*
X244734Y415037D02*
G03*
X246524Y416442I0J1842D01*
G01*
X257209Y407222D02*
G03*
X257969Y405387I2595J0D01*
G01*
X256449D02*
G03*
X257209Y407222I-1835J1835D01*
G01*
X248485Y403977D02*
G03*
X250938Y404993I0J3469D01*
G01*
Y403473D02*
G03*
X249721Y403977I-1217J-1217D01*
G01*
X257209Y412222D02*
G03*
X257969Y410387I2595J0D01*
G01*
X256449D02*
G03*
X257209Y412222I-1835J1835D01*
G01*
Y406638D02*
G03*
X256449Y408473I-2595J0D01*
G01*
X257969D02*
G03*
X257209Y406638I1835J-1835D01*
G01*
X249721Y409883D02*
G03*
X250938Y410387I0J1721D01*
G01*
Y408867D02*
G03*
X248485Y409883I-2453J-2453D01*
G01*
X240571Y414677D02*
G03*
X239741Y412674I2003J-2003D01*
G01*
X238863Y412970D02*
G03*
X238741Y412674I296J-296D01*
G01*
X236650Y390268D02*
G03*
X232775Y388664I0J-5480D01*
G01*
X234236Y390268D02*
G03*
X232068Y389371I0J-3066D01*
G01*
X226954Y403444D02*
G03*
X227307Y402591I1207J0D01*
G01*
X226600D02*
G03*
X226954Y403444I-854J854D01*
G01*
X254129Y399430D02*
G03*
X255600Y400039I0J2081D01*
G01*
X241761Y420030D02*
G03*
X241407Y420884I-1207J0D01*
G01*
X242114D02*
G03*
X241761Y420030I854J-854D01*
G01*
X274471Y154720D02*
G03*
X273796Y155000I-675J-675D01*
G01*
X264100Y192100D02*
G03*
X264000Y192000I0J-100D01*
G01*
X272600Y67900D02*
G03*
X271822Y69778I-2656J0D01*
G01*
X47027Y142571D02*
G03*
X39956Y145500I-7071J-7071D01*
G01*
X47626Y380671D02*
G03*
X40555Y383600I-7071J-7071D01*
G01*
X269200Y64200D02*
G03*
X272600Y67900I-150J3550D01*
G01*
X261200Y39400D02*
G03*
X263800Y42000I0J2600D01*
G01*
X269200Y64200D02*
G03*
X263800Y58800I0J-5400D01*
G01*
X266000Y34300D02*
G03*
X269800Y38100I0J3800D01*
G01*
X180671Y20087D02*
G03*
X180811Y19750I477J0D01*
G01*
X246300Y87892D02*
G03*
X246313Y87861I44J0D01*
G01*
X265980Y28385D02*
G03*
X263400Y25805I0J-2580D01*
G01*
X264200Y34300D02*
G03*
X260800Y30900I0J-3400D01*
G01*
Y20678D02*
G03*
X260900Y20578I100J0D01*
G01*
X259800Y39400D02*
G03*
X258341Y37941I0J-1459D01*
G01*
X233465Y488189D02*
G03*
X233465Y488189I-12992J0D01*
G01*
X243800Y412276D02*
X244261Y412737D01*
X243800Y409776D02*
Y412276D01*
X242761Y408737D02*
X243800Y409776D01*
X230732Y390268D02*
X239261D01*
X258761Y390237D02*
X262761Y394237D01*
X243229Y390237D02*
X258761D01*
X223792Y406769D02*
X226954D01*
X223292Y410706D02*
X226954D01*
Y402237D02*
Y404800D01*
X241761Y415867D02*
Y420737D01*
X238568Y412674D02*
X241761Y415867D01*
X240729Y426237D02*
X241761Y425206D01*
X262761Y394237D02*
Y425237D01*
X228261Y426237D02*
X240729D01*
X227308Y425284D02*
X228261Y426237D01*
X227308Y421737D02*
Y425284D01*
X243461Y415037D02*
X246513D01*
X241861Y413437D02*
X243461Y415037D01*
X241861Y411437D02*
Y413437D01*
X241129Y410706D02*
X241861Y411437D01*
X238568Y410706D02*
X241129D01*
X238568Y408737D02*
X242761D01*
X244261Y412737D02*
X258261D01*
X246954Y409883D02*
X251245D01*
X257209Y409430D02*
Y412686D01*
Y404430D02*
Y409430D01*
X258761Y413237D02*
Y415784D01*
X258261Y412737D02*
X258761Y413237D01*
X256698Y394430D02*
X256954Y394174D01*
X252406Y394430D02*
X256698D01*
X251245Y403977D02*
X251698Y404430D01*
X246954Y403977D02*
X251245D01*
X246501Y399430D02*
Y403524D01*
Y394430D02*
Y399430D01*
X241713Y394737D02*
X242021Y394430D01*
X246501D01*
Y403524D02*
X246954Y403977D01*
X252406Y399430D02*
X256698D01*
X269000Y155000D02*
X273796D01*
X228000Y392700D02*
X230700Y390000D01*
X271669Y69932D02*
Y73953D01*
Y70549D02*
Y73953D01*
Y69932D02*
X271822Y69778D01*
X189200Y9500D02*
Y14650D01*
X39656Y145500D02*
X39956D01*
X47027Y142571D02*
X56698Y132900D01*
X47626Y380671D02*
X57297Y371000D01*
X40254Y383600D02*
X40555D01*
X269800Y42300D02*
Y61000D01*
X259900Y39400D02*
X261200D01*
X263800Y42000D02*
Y58800D01*
X246300Y87892D02*
Y92000D01*
X241700Y83500D02*
X246061Y87861D01*
X246313D01*
X189261Y19750D02*
X203450D01*
X153500Y16500D02*
X168750D01*
X172000Y19750D01*
X180811D02*
Y19911D01*
X184100Y23200D01*
X203200D01*
X260400Y56600D02*
X260500Y56500D01*
Y56400D02*
Y57100D01*
X260600Y57000D01*
X260700D01*
X246400Y77000D02*
Y81250D01*
X246350Y81300D02*
X246400Y81250D01*
X265980Y28385D02*
X275080D01*
X263400Y21000D02*
Y25805D01*
X269800Y38100D02*
Y41000D01*
Y42300D01*
X264200Y34300D02*
X266000D01*
X260800Y20678D02*
Y30900D01*
X258341Y20578D02*
Y37941D01*
X255782Y21365D02*
Y41000D01*
X203450Y19750D02*
X215600Y31900D01*
X235700D01*
X260400Y56600D01*
X241700Y70900D02*
Y83500D01*
X230790Y34890D02*
X241700Y45800D01*
X214890Y34890D02*
X230790D01*
X203200Y23200D02*
X214890Y34890D01*
X241700Y45800D02*
Y70900D01*
D19*
X239261Y391837D02*
G03*
X239738Y390683I1631J0D01*
G01*
X238846Y390683D02*
G03*
X239261Y391685I-1001J1001D01*
G01*
X244561Y403977D02*
G03*
X245974Y404563I0J1999D01*
G01*
Y403392D02*
G03*
X244561Y403977I-1413J-1413D01*
G01*
X226976Y393000D02*
G03*
X227000Y393024I0J24D01*
G01*
X239261Y390268D02*
Y402237D01*
X238568Y402930D02*
X239261Y402237D01*
X238568Y402930D02*
Y404800D01*
X222261Y408737D02*
X226954D01*
X244021Y403977D02*
X246954D01*
X241229Y406769D02*
X244021Y403977D01*
X238568Y406769D02*
X241229D01*
X226453Y414544D02*
X226954Y412674D01*
X222100Y393000D02*
X226976D01*
X226453Y414544D02*
X226954Y412674D01*
D20*
X227425Y421030D02*
G03*
X226453Y418685I2345J-2345D01*
G01*
X227425Y421030D02*
G03*
X226453Y418685I2345J-2345D01*
G01*
Y414544D02*
Y421383D01*
Y414544D02*
Y421383D01*
D21*
X225453Y399430D02*
G03*
X226954Y402237I-1876J2807D01*
G01*
X227053Y401030D02*
G03*
X227554Y402237I-1207J1207D01*
G01*
X218261Y412237D02*
X221761D01*
X225453Y399430D02*
X226954Y400930D01*
Y402237D01*
D22*
X308402Y482745D02*
G03*
X306561Y480904I0J-1841D01*
G01*
X305846Y438637D02*
G03*
X306561Y439352I0J715D01*
G01*
X281411Y333700D02*
G03*
X279508Y338294I-6498J0D01*
G01*
X281411Y328019D02*
G03*
X282887Y324455I5041J0D01*
G01*
X276000Y305142D02*
G03*
X278929Y298071I10000J0D01*
G01*
X280037Y296963D02*
G03*
X281638Y296300I1602J1602D01*
G01*
X273300Y261483D02*
G03*
X274950Y257500I5632J0D01*
G01*
X275170Y256968D02*
G03*
X274950Y257500I-753J0D01*
G01*
X275618Y290279D02*
G03*
X274176Y286800I3479J-3479D01*
G01*
X273288Y229890D02*
G03*
X272000Y233000I-4398J0D01*
G01*
X278631Y356631D02*
G03*
X275702Y349560I7071J-7071D01*
G01*
X281000Y364305D02*
G03*
X291000Y354306I10000J0D01*
G01*
X278631Y356631D02*
G03*
X281000Y362350I-5719J5719D01*
G01*
X283929Y404929D02*
G03*
X281000Y397858I7071J-7071D01*
G01*
X286037Y407037D02*
G03*
X288966Y414108I-7071J7071D01*
G01*
X283448Y107462D02*
G03*
X286377Y100391I10000J0D01*
G01*
Y121277D02*
G03*
X283448Y114206I7071J-7071D01*
G01*
X289639Y97129D02*
G03*
X296710Y94200I7071J7071D01*
G01*
X297358Y54100D02*
G03*
X304429Y57029I0J10000D01*
G01*
X304471Y57071D02*
G03*
X307400Y64142I-7071J7071D01*
G01*
X305029Y91271D02*
G03*
X297958Y94200I-7071J-7071D01*
G01*
X303871Y138771D02*
G03*
X306800Y145842I-7071J7071D01*
G01*
X307400Y85547D02*
G03*
X305029Y91271I-8095J0D01*
G01*
X306561Y439352D02*
Y480904D01*
X288966Y438637D02*
X302000D01*
X305846D01*
X288966Y429637D02*
Y438637D01*
Y414108D02*
Y421000D01*
Y429637D01*
X275702Y342100D02*
X279508Y338294D01*
X281411Y328019D02*
Y333700D01*
X256313Y315400D02*
X276000D01*
X297517D01*
X276000Y305142D02*
Y315400D01*
X278929Y298071D02*
X280037Y296963D01*
X275618Y290279D02*
X281638Y296300D01*
X266000Y266000D02*
X272576D01*
X273300Y261483D02*
Y266300D01*
X275170Y250924D02*
Y256968D01*
X274176Y283824D02*
X280000Y278000D01*
X274176Y283824D02*
Y286800D01*
X265687Y278310D02*
X274176Y286800D01*
X273288Y226300D02*
Y229890D01*
X275702Y342100D02*
Y349560D01*
X281000Y364305D02*
Y397858D01*
X283929Y404929D02*
X286037Y407037D01*
X291000Y354306D02*
X306800D01*
Y145842D02*
Y342495D01*
X289370Y51870D02*
X291600Y54100D01*
X289370Y46063D02*
Y51870D01*
X291600Y54100D02*
X297358D01*
X283448Y107462D02*
Y114206D01*
X286377Y121277D02*
X303871Y138771D01*
X286377Y100391D02*
X289639Y97129D01*
X304429Y57029D02*
X304471Y57071D01*
X307400Y64142D02*
Y85547D01*
X296710Y94200D02*
X297958D01*
D23*
X298000Y315200D02*
G03*
X297517Y315400I-483J-483D01*
G01*
X39700Y478500D02*
X39919Y478281D01*
Y473819D02*
Y478281D01*
D24*
X272468Y192100D02*
G03*
X273118Y192750I0J650D01*
G01*
X273228Y110236D02*
G03*
X273228Y110236I-5512J0D01*
G01*
X14912Y275200D02*
G03*
X14912Y275200I-5512J0D01*
G01*
X304724Y370079D02*
G03*
X304724Y370079I-5512J0D01*
G01*
X94553Y293300D02*
X96232D01*
X184252Y208071D02*
Y213727D01*
Y89961D02*
Y95617D01*
X74016Y444291D02*
Y449947D01*
X37000Y430000D02*
X41789Y434789D01*
X37692Y312692D02*
X41629Y316629D01*
X74016Y208071D02*
Y213727D01*
Y89961D02*
Y95617D01*
X37031Y76231D02*
X40169Y79369D01*
X206031Y176300D02*
Y176482D01*
X206013Y176500D02*
X206031Y176482D01*
X206500Y176013D01*
X192323Y182677D02*
X196965D01*
X192323Y64567D02*
X196965D01*
X205965Y75591D02*
Y78103D01*
X192323Y75591D02*
X205965D01*
X156065D02*
X162008D01*
X200565Y181713D02*
X202665Y179613D01*
X192323Y198425D02*
X196477D01*
X146700Y194200D02*
X149466Y196966D01*
X146532Y76032D02*
X150175Y79675D01*
X101111Y297637D02*
X104761D01*
X45829Y429921D02*
X51772D01*
X34216Y68200D02*
X37031D01*
X33917Y185800D02*
X36731D01*
X34877Y303737D02*
X37692D01*
Y301500D02*
Y303737D01*
Y300019D02*
Y301500D01*
X36911Y319118D02*
X37692Y318337D01*
X36911Y319118D02*
Y322937D01*
Y299237D02*
X37692Y300019D01*
X46173Y185827D02*
X51772D01*
X42500Y189500D02*
X46173Y185827D01*
X40669Y189500D02*
X42500D01*
X36731Y182018D02*
X37050Y181700D01*
X36731Y182018D02*
Y185800D01*
X36732Y200000D02*
X36911Y200178D01*
Y204000D01*
X100911Y179700D02*
X104561D01*
X45829Y311811D02*
X51772D01*
X36732Y194232D02*
X39796Y197296D01*
X150329Y197829D02*
Y199600D01*
X146700Y189308D02*
Y194200D01*
X157098Y187402D02*
X162008D01*
X150565Y193935D02*
X157098Y187402D01*
X154173Y185827D02*
X162008D01*
X151000Y189000D02*
X154173Y185827D01*
X150329Y189000D02*
X151000D01*
X157209Y69291D02*
X162008D01*
X150850Y75650D02*
X157209Y69291D01*
X154953Y67716D02*
X162008D01*
X150469Y72200D02*
X154953Y67716D01*
X146532Y72200D02*
Y76032D01*
X150969Y80468D02*
Y82000D01*
X156165Y82403D02*
X158802Y85039D01*
X150969Y82000D02*
X151372Y82403D01*
X146250Y87000D02*
X147031Y86219D01*
Y82000D02*
Y86219D01*
X45783Y67716D02*
X51772D01*
X41800Y71700D02*
X45783Y67716D01*
X40968Y71700D02*
X41800D01*
X47709Y69291D02*
X51772D01*
X41266Y75734D02*
X47709Y69291D01*
X41266Y75734D02*
Y76266D01*
X36732Y189500D02*
Y194232D01*
X40669Y198169D02*
Y200000D01*
X47598Y187402D02*
X51772D01*
X41300Y193700D02*
X47598Y187402D01*
X40800Y193700D02*
X41300D01*
X41789Y434789D02*
Y436737D01*
X37000Y426289D02*
Y430000D01*
X41629Y316629D02*
Y318337D01*
X37692Y307237D02*
Y312692D01*
X35000Y422000D02*
X37815D01*
X36911Y417437D02*
X37852Y418378D01*
Y422037D01*
X36911Y437678D02*
X37852Y436737D01*
X36911Y437678D02*
Y441337D01*
X82087Y418898D02*
X86729D01*
X82087Y300787D02*
X86729D01*
X82087Y182677D02*
X86729D01*
X95729Y311811D02*
Y314324D01*
X82087Y311811D02*
X95729D01*
Y193701D02*
Y196213D01*
X82087Y193701D02*
X95729D01*
Y75591D02*
Y78103D01*
X82087Y75591D02*
X95729D01*
X90329Y66371D02*
Y71271D01*
X87584Y74016D02*
X90329Y71271D01*
X82087Y74016D02*
X87584D01*
X95197Y61503D02*
X95479D01*
X90329Y66371D02*
X95197Y61503D01*
X95366Y415834D02*
X95479D01*
X90329Y420871D02*
X95366Y415834D01*
X90329Y420871D02*
Y426734D01*
X94763Y298037D02*
X96411D01*
X90329Y302471D02*
X94763Y298037D01*
X90329Y302471D02*
Y308624D01*
X36250Y63600D02*
X37031Y64381D01*
Y68200D01*
Y71700D02*
Y76231D01*
X40500Y80000D02*
Y82032D01*
X104661Y416162D02*
X104761Y416062D01*
X100229Y407943D02*
Y411662D01*
X96600Y428800D02*
X101000Y424400D01*
X104761Y297637D02*
X104861Y297537D01*
X100329Y289419D02*
Y293137D01*
X96392Y310837D02*
X100792Y306437D01*
X104600Y61700D02*
X104700Y61600D01*
X100169Y53482D02*
Y57200D01*
X96232Y74900D02*
X100631Y70500D01*
X100329Y172381D02*
Y176100D01*
X95800Y193500D02*
X100200Y189100D01*
X214900Y179800D02*
X215000Y179700D01*
X211250Y179800D02*
X214900D01*
X209968Y172582D02*
Y176300D01*
X206532Y193000D02*
X210931Y188600D01*
X177165Y192913D02*
X187402Y203150D01*
Y208071D01*
X177165Y192913D02*
X185827Y201575D01*
X192323D01*
Y200000D02*
Y201575D01*
X177165Y192913D02*
X181102Y196850D01*
X192323D01*
X177165Y192913D02*
X187402Y182677D01*
Y177756D02*
Y182677D01*
X166929D02*
X177165Y192913D01*
X166929Y177756D02*
Y182677D01*
X210531Y70600D02*
X210850D01*
X206132Y75000D02*
X210531Y70600D01*
X210068Y53582D02*
Y57300D01*
X210850Y61800D02*
X214500D01*
X214600Y61700D01*
X204613Y196213D02*
X205965D01*
X202101Y193701D02*
X204613Y196213D01*
X192323Y193701D02*
X202101D01*
X192323Y81890D02*
Y83465D01*
X151111Y181200D02*
Y184818D01*
X152588Y182677D02*
X162008D01*
X146392Y189000D02*
X146700Y189308D01*
X150600Y199500D02*
X151613Y200513D01*
X156165D02*
X158254Y198425D01*
X162008D01*
X170079Y200000D02*
X177165Y192913D01*
X162008Y200000D02*
X170079D01*
X166929Y203150D02*
X177165Y192913D01*
X166929Y203150D02*
Y208071D01*
X171653Y80315D02*
X177165Y74803D01*
X162008Y80315D02*
X171653D01*
X162008D02*
Y81890D01*
X166929Y85039D02*
X177165Y74803D01*
X166929Y85039D02*
Y89961D01*
X177165Y74803D02*
X187402Y85039D01*
Y89961D01*
X192323Y80315D02*
X196477D01*
X177165Y74803D02*
X181102Y78740D01*
X192323D01*
X185827Y83465D02*
X192323D01*
X166929Y64567D02*
X177165Y74803D01*
X166929Y59646D02*
Y64567D01*
X45929Y82403D02*
X48017Y80315D01*
X51772D01*
X41200Y63600D02*
Y67418D01*
X42717Y64567D02*
X51772D01*
X56693D02*
X66929Y74803D01*
X56693Y59646D02*
Y64567D01*
X66929Y74803D02*
X77165Y64567D01*
Y59646D02*
Y64567D01*
X82087Y81890D02*
X86443D01*
X75590Y83465D02*
X82087D01*
X72441Y80315D02*
X82087D01*
Y78740D02*
Y80315D01*
X66929Y74803D02*
X77165Y85039D01*
Y89961D01*
X56693Y85039D02*
X66929Y74803D01*
X56693Y85039D02*
Y89961D01*
X56693Y177756D02*
Y182677D01*
X77165Y177756D02*
Y182677D01*
X82087Y200000D02*
X86443D01*
X66929Y192913D02*
X75590Y201575D01*
X82087D01*
X66929Y192913D02*
X72441Y198425D01*
X82087D01*
Y196850D02*
Y198425D01*
X51772Y198425D02*
X61417D01*
X51772D02*
Y200000D01*
X66929Y192913D02*
X77165Y203150D01*
Y208071D01*
X56693Y203150D02*
Y208071D01*
Y321260D02*
X66929Y311024D01*
X56693Y321260D02*
Y326181D01*
X66929Y311024D02*
X77165Y321260D01*
Y326181D01*
X56693Y300787D02*
X66929Y311024D01*
X56693Y295866D02*
Y300787D01*
X82087Y428346D02*
X88717D01*
X90329Y426734D01*
X82087Y431496D02*
X88721D01*
X82087Y426772D02*
X86591D01*
X87129Y426234D01*
Y424134D02*
Y426234D01*
X82087Y439370D02*
X87265D01*
X90629Y442734D01*
X95479D01*
X82087Y429921D02*
X90716D01*
X93229Y432434D01*
X95729D01*
X94729Y411234D02*
X95561D01*
X87065Y418898D02*
X94729Y411234D01*
X72441Y408234D02*
Y413976D01*
X42557Y436734D02*
X45929D01*
X48565Y439370D01*
X51772D01*
X45829Y432834D02*
X47167Y431496D01*
X51772D01*
X48441Y423622D02*
X51772D01*
X42163Y429700D02*
X48241Y423622D01*
X74016Y326181D02*
Y331837D01*
X82087Y310236D02*
X88717D01*
X90329Y308624D01*
X82087Y308661D02*
X86591D01*
X87129Y308124D01*
Y306024D02*
Y308124D01*
X82087Y321260D02*
X87265D01*
X90629Y324624D01*
X95479D01*
X87065Y300787D02*
X94553Y293300D01*
X72441Y290124D02*
Y295866D01*
X42557Y318624D02*
X45929D01*
X48565Y321260D01*
X51772D01*
X45829Y314724D02*
X47167Y313386D01*
X51772D01*
X48441Y305512D02*
X51772D01*
X42553Y311200D02*
X48241Y305512D01*
X95661Y293437D02*
X96492D01*
X51772Y81890D02*
X59842D01*
X66929Y74803D01*
X48117Y316535D02*
X51772D01*
X45929Y318724D02*
X48117Y316535D01*
X47463Y303937D02*
X51772D01*
X44163Y307237D02*
X47463Y303937D01*
X41629Y307237D02*
X44163D01*
X47167Y195276D02*
X51772D01*
X45829Y196613D02*
X47167Y195276D01*
X48565Y203150D02*
X51772D01*
X45929Y200513D02*
X48565Y203150D01*
X41000Y200513D02*
X45929D01*
X72441Y172013D02*
Y177756D01*
X87065Y182677D02*
X94729Y175013D01*
X95561D01*
X92429Y179613D02*
X95479D01*
X89229Y182813D02*
X92429Y179613D01*
X89229Y182813D02*
Y185313D01*
X90329Y186413D01*
Y190513D01*
X90629Y206513D02*
X95479D01*
X87265Y203150D02*
X90629Y206513D01*
X82087Y203150D02*
X87265D01*
X87129Y187913D02*
Y190013D01*
X86591Y190551D02*
X87129Y190013D01*
X82087Y190551D02*
X86591D01*
X88717Y192126D02*
X90329Y190513D01*
X82087Y192126D02*
X88717D01*
X47167Y77165D02*
X51772D01*
X45829Y78503D02*
X47167Y77165D01*
X48565Y85039D02*
X51772D01*
X45929Y82403D02*
X48565Y85039D01*
X41000Y82403D02*
X45929D01*
X72441Y53903D02*
Y59646D01*
X90629Y88403D02*
X95479D01*
X87265Y85039D02*
X90629Y88403D01*
X82087Y85039D02*
X87265D01*
X87129Y69803D02*
Y71903D01*
X86591Y72441D02*
X87129Y71903D01*
X82087Y72441D02*
X86591D01*
X157403Y77165D02*
X162008D01*
X156065Y78503D02*
X157403Y77165D01*
X158802Y85039D02*
X162008D01*
X151372Y82403D02*
X156165D01*
X182677Y53903D02*
Y59646D01*
X197302Y64567D02*
X204965Y56903D01*
X205797D01*
X202665Y61503D02*
X205715D01*
X199465Y64703D02*
X202665Y61503D01*
X199465Y64703D02*
Y67203D01*
X200565Y68303D01*
Y72403D01*
X200865Y88403D02*
X205715D01*
X197502Y85039D02*
X200865Y88403D01*
X192323Y85039D02*
X197502D01*
X197365Y69803D02*
Y71903D01*
X196827Y72441D02*
X197365Y71903D01*
X192323Y72441D02*
X196827D01*
X198953Y74016D02*
X200565Y72403D01*
X192323Y74016D02*
X198953D01*
X157403Y195276D02*
X162008D01*
X156065Y196613D02*
X157403Y195276D01*
X158802Y203150D02*
X162008D01*
X151613Y200513D02*
X156165D01*
X182677Y172013D02*
Y177756D01*
X202665Y179613D02*
X205715D01*
X200565Y181713D02*
Y190513D01*
X200865Y206513D02*
X205715D01*
X197502Y203150D02*
X200865Y206513D01*
X192323Y203150D02*
X197502D01*
X197365Y187913D02*
Y190013D01*
X196827Y190551D02*
X197365Y190013D01*
X192323Y190551D02*
X196827D01*
X192323Y195276D02*
X198957D01*
X198953Y192126D02*
X200565Y190513D01*
X192323Y192126D02*
X198953D01*
X37000Y426289D02*
X37852Y425437D01*
X41789D02*
X43563D01*
X46953Y422047D01*
X51772D01*
X43871Y418898D02*
X51772D01*
X41789Y418059D02*
Y422037D01*
Y418059D02*
X42411Y417437D01*
X56693Y413976D02*
Y418898D01*
X77165Y413976D02*
Y418898D01*
X66929Y429134D02*
X77165Y418898D01*
X82087Y433071D02*
Y437795D01*
X72441Y434646D02*
X82087D01*
X77165Y439370D02*
Y444291D01*
X66929Y429134D02*
X77165Y439370D01*
X56693Y439370D02*
Y444291D01*
Y439370D02*
X66929Y429134D01*
X51772Y434646D02*
Y436221D01*
Y434646D02*
X61417D01*
X66929Y429134D01*
X43961Y300787D02*
X51772D01*
X42411Y299237D02*
X43961Y300787D01*
X41629Y300019D02*
X42411Y299237D01*
X41629Y300019D02*
Y303737D01*
X51772Y318110D02*
X59842D01*
X66929Y311024D01*
X82087Y314961D02*
Y319685D01*
X72441Y316535D02*
X82087D01*
X77165Y295866D02*
Y300787D01*
X156215Y200563D02*
X158802Y203150D01*
X45829Y75591D02*
X51772D01*
X45929Y193701D02*
X51772D01*
X100950Y61700D02*
X104600D01*
X82087Y77165D02*
X92000D01*
X82087Y195276D02*
X92000D01*
X82087Y313386D02*
X92000D01*
X192323Y77165D02*
X202500D01*
X87065Y63935D02*
X94097Y56903D01*
X95561D01*
X82087Y64567D02*
X86229D01*
X101011Y416162D02*
X104661D01*
X45829Y196613D02*
Y197213D01*
Y314724D02*
Y315324D01*
Y432834D02*
Y433434D01*
D25*
X221456Y147000D02*
D03*
X269700Y68200D02*
D03*
D26*
X34144Y145500D02*
D03*
X34743Y383600D02*
D03*
X241761Y421237D02*
D03*
X249761Y423737D02*
D03*
X245761D02*
D03*
X249761Y421237D02*
D03*
X245761D02*
D03*
X238261Y416737D02*
D03*
Y420237D02*
D03*
X233261D02*
D03*
Y423237D02*
D03*
X258761Y421690D02*
D03*
X258261Y399737D02*
D03*
X255954Y399686D02*
D03*
X220761Y405737D02*
D03*
Y403737D02*
D03*
X226954Y402237D02*
D03*
X235761Y399237D02*
D03*
X231761D02*
D03*
D27*
X263520Y483738D02*
G03*
X260591Y490809I-10000J0D01*
G01*
X260429Y490971D02*
G03*
X253358Y493900I-7071J-7071D01*
G01*
X230326D02*
G03*
X223254Y490971I0J-10000D01*
G01*
X260429D02*
X260591Y490809D01*
X230326Y493900D02*
X253358D01*
X220472Y488189D02*
X223254Y490971D01*
X263520Y458729D02*
Y482745D01*
Y483738D01*
D28*
X184261Y464190D02*
D03*
Y458284D02*
D03*
X247761Y416284D02*
D03*
Y422190D02*
D03*
X216261Y458284D02*
D03*
Y464190D02*
D03*
D29*
X185446Y400237D02*
D03*
X196076D02*
D03*
D30*
X185308Y390737D02*
D03*
X191213D02*
D03*
X233213Y421737D02*
D03*
X227308D02*
D03*
D31*
X253761Y421690D02*
D03*
Y415784D02*
D03*
X258761Y415784D02*
D03*
Y421690D02*
D03*
X231761Y395190D02*
D03*
Y389284D02*
D03*
X246954Y409883D02*
D03*
Y403977D02*
D03*
X215761Y404690D02*
D03*
Y398784D02*
D03*
D32*
X251698Y409430D02*
D03*
X257209D02*
D03*
X251698Y404430D02*
D03*
X257209D02*
D03*
X221456Y147000D02*
D03*
X215944D02*
D03*
X34144Y145500D02*
D03*
X39656D02*
D03*
X281411Y333700D02*
D03*
X286923D02*
D03*
X35144Y384100D02*
D03*
X40656D02*
D03*
D33*
X242213Y394737D02*
D03*
X236308D02*
D03*
X246501Y394430D02*
D03*
X252406D02*
D03*
X246501Y399430D02*
D03*
X252406D02*
D03*
D34*
X243229Y390237D02*
D03*
X239292D02*
D03*
X40669Y189500D02*
D03*
X36732D02*
D03*
X150469Y71700D02*
D03*
X146532D02*
D03*
X146392Y189000D02*
D03*
X150329D02*
D03*
X40968Y71700D02*
D03*
X37031D02*
D03*
X41629Y307237D02*
D03*
X37692D02*
D03*
X41789Y425437D02*
D03*
X37852D02*
D03*
X268531Y192100D02*
D03*
X272468D02*
D03*
D35*
X256954Y399686D02*
D03*
Y394174D02*
D03*
X220761Y398981D02*
D03*
Y404493D02*
D03*
D36*
X40668Y185800D02*
D03*
X36731D02*
D03*
X40968Y82200D02*
D03*
X37031D02*
D03*
X40968Y68200D02*
D03*
X37031D02*
D03*
X206532Y184200D02*
D03*
X210469D02*
D03*
X206031Y176300D02*
D03*
X209968D02*
D03*
X206132Y78300D02*
D03*
X210068D02*
D03*
X206132Y75000D02*
D03*
X210068D02*
D03*
X206132Y66200D02*
D03*
X210068D02*
D03*
X206132Y57300D02*
D03*
X210068D02*
D03*
X210961Y192900D02*
D03*
X207024D02*
D03*
X210961Y196137D02*
D03*
X207024D02*
D03*
X150469Y67700D02*
D03*
X146532D02*
D03*
X150969Y82000D02*
D03*
X147031D02*
D03*
X150329Y185600D02*
D03*
X146392D02*
D03*
X150329Y199600D02*
D03*
X146392D02*
D03*
X96232Y57200D02*
D03*
X100169D02*
D03*
X96232Y66100D02*
D03*
X100169D02*
D03*
X96232Y78200D02*
D03*
X100169D02*
D03*
X96232Y74900D02*
D03*
X100169D02*
D03*
X96392Y175300D02*
D03*
X100329D02*
D03*
X96392Y184200D02*
D03*
X100329D02*
D03*
X96392Y196137D02*
D03*
X100329D02*
D03*
X96392Y192900D02*
D03*
X100329D02*
D03*
X40669Y200000D02*
D03*
X36732D02*
D03*
X41629Y303737D02*
D03*
X37692D02*
D03*
X41629Y318337D02*
D03*
X37692D02*
D03*
X96232Y293337D02*
D03*
X100169D02*
D03*
X96232Y311237D02*
D03*
X100169D02*
D03*
X96232Y314537D02*
D03*
X100169D02*
D03*
X41789Y422037D02*
D03*
X37852D02*
D03*
X41789Y436737D02*
D03*
X37852D02*
D03*
X96292Y411234D02*
D03*
X100229D02*
D03*
X96292Y420434D02*
D03*
X100229D02*
D03*
X96292Y429284D02*
D03*
X100229D02*
D03*
X96292Y432534D02*
D03*
X100229D02*
D03*
X96232Y301937D02*
D03*
X100169D02*
D03*
D37*
X37050Y181700D02*
D03*
X42550D02*
D03*
X211250Y179800D02*
D03*
X205750D02*
D03*
Y188600D02*
D03*
X211250D02*
D03*
X205350Y70600D02*
D03*
X210850D02*
D03*
X211250Y200700D02*
D03*
X205750D02*
D03*
X210750Y171800D02*
D03*
X205250D02*
D03*
X211250Y206500D02*
D03*
X205750D02*
D03*
X210850Y82700D02*
D03*
X205350D02*
D03*
X210850Y52800D02*
D03*
X205350D02*
D03*
X210850Y88400D02*
D03*
X205350D02*
D03*
X146250Y87000D02*
D03*
X151750D02*
D03*
X145611Y63600D02*
D03*
X151111D02*
D03*
X145611Y204000D02*
D03*
X151111D02*
D03*
X145611Y181200D02*
D03*
X151111D02*
D03*
X95450Y70500D02*
D03*
X100950D02*
D03*
Y88400D02*
D03*
X95450D02*
D03*
X100950Y52700D02*
D03*
X95450D02*
D03*
X100950Y82700D02*
D03*
X95450D02*
D03*
X100950Y61600D02*
D03*
X95450D02*
D03*
X36250Y63600D02*
D03*
X41750D02*
D03*
X36250Y86000D02*
D03*
X41750D02*
D03*
X101111Y206500D02*
D03*
X95611D02*
D03*
X101111Y170800D02*
D03*
X95611D02*
D03*
X101111Y200700D02*
D03*
X95611D02*
D03*
Y188600D02*
D03*
X101111D02*
D03*
Y179800D02*
D03*
X95611D02*
D03*
X36911Y204000D02*
D03*
X42411D02*
D03*
X36911Y299237D02*
D03*
X42411D02*
D03*
X36911Y322937D02*
D03*
X42411D02*
D03*
X101111Y289037D02*
D03*
X95611D02*
D03*
X101111Y297537D02*
D03*
X95611D02*
D03*
Y306437D02*
D03*
X101111D02*
D03*
Y319137D02*
D03*
X95611D02*
D03*
X101111Y324437D02*
D03*
X95611D02*
D03*
X36911Y417437D02*
D03*
X42411D02*
D03*
X36911Y441337D02*
D03*
X42411D02*
D03*
X101011Y406737D02*
D03*
X95511D02*
D03*
X101011Y415837D02*
D03*
X95511D02*
D03*
Y424962D02*
D03*
X101011D02*
D03*
Y437037D02*
D03*
X95511D02*
D03*
X101011Y442737D02*
D03*
X95511D02*
D03*
X281638Y296300D02*
D03*
X287138D02*
D03*
X280450Y257500D02*
D03*
X274950D02*
D03*
X280450Y234600D02*
D03*
X274950D02*
D03*
X276350Y132000D02*
D03*
X281850D02*
D03*
X246350Y81300D02*
D03*
X251850D02*
D03*
X251813Y87861D02*
D03*
X246313D02*
D03*
X295750Y78100D02*
D03*
X290250D02*
D03*
X297150Y70400D02*
D03*
X291650D02*
D03*
X290450Y84000D02*
D03*
X295950D02*
D03*
X281650Y148161D02*
D03*
X276150D02*
D03*
X210850Y61800D02*
D03*
X205350D02*
D03*
X276150Y179161D02*
D03*
X281650D02*
D03*
D38*
X40800Y193700D02*
D03*
X150700Y75500D02*
D03*
Y193000D02*
D03*
X41000Y75400D02*
D03*
X41900Y311400D02*
D03*
X41800Y429400D02*
D03*
X36800Y17500D02*
D03*
X298000Y315200D02*
D03*
X237800Y366100D02*
D03*
X39700Y478500D02*
D03*
X67700D02*
D03*
X95700D02*
D03*
X272800Y276400D02*
D03*
X66929Y312795D02*
D03*
X70472Y312795D02*
D03*
X74016Y312795D02*
D03*
Y319882D02*
D03*
X70472Y319882D02*
D03*
X66929Y319882D02*
D03*
X63386Y319882D02*
D03*
X59842Y319882D02*
D03*
Y312795D02*
D03*
X63386Y312795D02*
D03*
X66929Y305709D02*
D03*
X63386Y305709D02*
D03*
X59842Y305709D02*
D03*
X70472Y305709D02*
D03*
X74016Y305709D02*
D03*
X68701Y309252D02*
D03*
X65158D02*
D03*
X61614D02*
D03*
X72244D02*
D03*
X75787D02*
D03*
X58071D02*
D03*
Y316339D02*
D03*
X61614D02*
D03*
X65158D02*
D03*
X68701D02*
D03*
X72244D02*
D03*
X75787D02*
D03*
Y302165D02*
D03*
X72244D02*
D03*
X68701D02*
D03*
X65158D02*
D03*
X61614D02*
D03*
X58071D02*
D03*
X177165Y194685D02*
D03*
X180709Y194685D02*
D03*
X184252Y194685D02*
D03*
Y201772D02*
D03*
X180709Y201772D02*
D03*
X177165Y201772D02*
D03*
X173622Y201772D02*
D03*
X170079Y201772D02*
D03*
Y194685D02*
D03*
X173622Y194685D02*
D03*
X177165Y187598D02*
D03*
X173622Y187598D02*
D03*
X170079Y187598D02*
D03*
X180709Y187598D02*
D03*
X184252Y187598D02*
D03*
X178937Y191142D02*
D03*
X175394D02*
D03*
X171850D02*
D03*
X182480D02*
D03*
X186024D02*
D03*
X168307D02*
D03*
Y198228D02*
D03*
X171850D02*
D03*
X175394D02*
D03*
X178937D02*
D03*
X182480D02*
D03*
X186024D02*
D03*
Y184055D02*
D03*
X182480D02*
D03*
X178937D02*
D03*
X175394D02*
D03*
X171850D02*
D03*
X168307D02*
D03*
X177165Y76575D02*
D03*
X180709Y76575D02*
D03*
X184252Y76575D02*
D03*
Y83661D02*
D03*
X180709Y83661D02*
D03*
X177165Y83661D02*
D03*
X173622Y83661D02*
D03*
X170079Y83661D02*
D03*
Y76575D02*
D03*
X173622Y76575D02*
D03*
X177165Y69488D02*
D03*
X173622Y69488D02*
D03*
X170079Y69488D02*
D03*
X180709Y69488D02*
D03*
X184252Y69488D02*
D03*
X178937Y73032D02*
D03*
X175394D02*
D03*
X171850D02*
D03*
X182480D02*
D03*
X186024D02*
D03*
X168307D02*
D03*
Y80118D02*
D03*
X171850D02*
D03*
X175394D02*
D03*
X178937D02*
D03*
X182480D02*
D03*
X186024D02*
D03*
Y65945D02*
D03*
X182480D02*
D03*
X178937D02*
D03*
X175394D02*
D03*
X171850D02*
D03*
X168307D02*
D03*
X66929Y76575D02*
D03*
X70472Y76575D02*
D03*
X74016Y76575D02*
D03*
Y83661D02*
D03*
X70472Y83661D02*
D03*
X66929Y83661D02*
D03*
X63386Y83661D02*
D03*
X59842Y83661D02*
D03*
Y76575D02*
D03*
X63386Y76575D02*
D03*
X66929Y69488D02*
D03*
X63386Y69488D02*
D03*
X59842Y69488D02*
D03*
X70472Y69488D02*
D03*
X74016Y69488D02*
D03*
X68701Y73032D02*
D03*
X65158D02*
D03*
X61614D02*
D03*
X72244D02*
D03*
X75787D02*
D03*
X58071D02*
D03*
Y80118D02*
D03*
X61614D02*
D03*
X65158D02*
D03*
X68701D02*
D03*
X72244D02*
D03*
X75787D02*
D03*
Y65945D02*
D03*
X72244D02*
D03*
X68701D02*
D03*
X65158D02*
D03*
X61614D02*
D03*
X58071D02*
D03*
X66929Y194685D02*
D03*
X70472Y194685D02*
D03*
X74016Y194685D02*
D03*
Y201772D02*
D03*
X70472Y201772D02*
D03*
X66929Y201772D02*
D03*
X63386Y201772D02*
D03*
X59842Y201772D02*
D03*
Y194685D02*
D03*
X63386Y194685D02*
D03*
X66929Y187598D02*
D03*
X63386Y187598D02*
D03*
X59842Y187598D02*
D03*
X70472Y187598D02*
D03*
X74016Y187598D02*
D03*
X68701Y191142D02*
D03*
X65158D02*
D03*
X61614D02*
D03*
X72244D02*
D03*
X75787D02*
D03*
X58071D02*
D03*
Y198228D02*
D03*
X61614D02*
D03*
X65158D02*
D03*
X68701D02*
D03*
X72244D02*
D03*
X75787D02*
D03*
Y184055D02*
D03*
X72244D02*
D03*
X68701D02*
D03*
X65158D02*
D03*
X61614D02*
D03*
X58071D02*
D03*
Y420276D02*
D03*
X61614D02*
D03*
X65158D02*
D03*
X68701D02*
D03*
X72244D02*
D03*
X75787D02*
D03*
Y434449D02*
D03*
X72244D02*
D03*
X68701D02*
D03*
X65158D02*
D03*
X61614D02*
D03*
X58071D02*
D03*
Y427362D02*
D03*
X75787D02*
D03*
X72244D02*
D03*
X61614D02*
D03*
X65158D02*
D03*
X68701D02*
D03*
X74016Y423819D02*
D03*
X70472Y423819D02*
D03*
X59842Y423819D02*
D03*
X63386Y423819D02*
D03*
X66929Y423819D02*
D03*
X63386Y430905D02*
D03*
X59842Y430905D02*
D03*
Y437992D02*
D03*
X63386Y437992D02*
D03*
X66929Y437992D02*
D03*
X70472Y437992D02*
D03*
X74016Y437992D02*
D03*
Y430905D02*
D03*
X70472Y430905D02*
D03*
X66929Y430905D02*
D03*
D39*
X220998Y134000D02*
D03*
X195802D02*
D03*
X56698Y132900D02*
D03*
X31502D02*
D03*
X32402Y371000D02*
D03*
X57598D02*
D03*
D40*
X219700Y76488D02*
D03*
Y87512D02*
D03*
X109800Y76627D02*
D03*
Y87650D02*
D03*
X110000Y195488D02*
D03*
Y206512D02*
D03*
X109961Y312425D02*
D03*
Y323449D02*
D03*
X109461Y430925D02*
D03*
Y441949D02*
D03*
D41*
X209412Y214700D02*
D03*
X198388D02*
D03*
X285200Y286800D02*
D03*
X274176D02*
D03*
X284312Y226300D02*
D03*
X273288D02*
D03*
X284324Y266300D02*
D03*
X273300D02*
D03*
D42*
X175861Y220063D02*
D03*
Y224000D02*
D03*
X182961Y220063D02*
D03*
Y224000D02*
D03*
X169161Y220063D02*
D03*
Y224000D02*
D03*
Y100198D02*
D03*
Y104135D02*
D03*
X182961Y100198D02*
D03*
Y104135D02*
D03*
X175861Y100198D02*
D03*
Y104135D02*
D03*
X167961Y166706D02*
D03*
Y162768D02*
D03*
X174980Y166706D02*
D03*
Y162768D02*
D03*
X182000Y166706D02*
D03*
Y162768D02*
D03*
X59361Y48432D02*
D03*
Y44495D02*
D03*
X66061Y48432D02*
D03*
Y44495D02*
D03*
X73561Y48432D02*
D03*
Y44495D02*
D03*
X59300Y100198D02*
D03*
Y104135D02*
D03*
X73500Y100198D02*
D03*
Y104135D02*
D03*
X66100Y100198D02*
D03*
Y104135D02*
D03*
X60000Y163469D02*
D03*
Y159531D02*
D03*
X66461Y220063D02*
D03*
Y224000D02*
D03*
X59361Y220063D02*
D03*
Y224000D02*
D03*
X73561Y220063D02*
D03*
Y224000D02*
D03*
X60161Y284805D02*
D03*
Y280869D02*
D03*
X66861Y284805D02*
D03*
Y280869D02*
D03*
X73561Y284805D02*
D03*
Y280869D02*
D03*
X66861Y336968D02*
D03*
Y340905D02*
D03*
X59361Y336968D02*
D03*
Y340905D02*
D03*
X73561Y336968D02*
D03*
Y340905D02*
D03*
Y403506D02*
D03*
Y399569D02*
D03*
X66061Y403506D02*
D03*
Y399569D02*
D03*
X59361Y403506D02*
D03*
Y399569D02*
D03*
X66061Y454468D02*
D03*
Y458405D02*
D03*
X59361Y454468D02*
D03*
Y458405D02*
D03*
X73561Y454468D02*
D03*
Y458405D02*
D03*
X296900Y200532D02*
D03*
Y204468D02*
D03*
X300800Y210631D02*
D03*
Y214568D02*
D03*
X66780Y163531D02*
D03*
Y159595D02*
D03*
X74000Y163531D02*
D03*
Y159595D02*
D03*
X183000Y48968D02*
D03*
Y45031D02*
D03*
X176000Y48968D02*
D03*
Y45031D02*
D03*
X169000Y48968D02*
D03*
Y45031D02*
D03*
D43*
X9400Y275200D02*
D03*
X267717Y110236D02*
D03*
X299213Y370079D02*
D03*
D44*
X66929Y311024D02*
D03*
X177165Y192913D02*
D03*
Y74803D02*
D03*
X66929D02*
D03*
Y192913D02*
D03*
Y429134D02*
D03*
D45*
X77165Y295866D02*
D03*
X75590D02*
D03*
X74016D02*
D03*
X72441D02*
D03*
X70866D02*
D03*
X69291D02*
D03*
X67716D02*
D03*
X66142D02*
D03*
X64567D02*
D03*
X62992D02*
D03*
X61417D02*
D03*
X59842D02*
D03*
X58268D02*
D03*
X56693D02*
D03*
X56693Y326181D02*
D03*
X58268D02*
D03*
X59842D02*
D03*
X61417D02*
D03*
X62992D02*
D03*
X64567D02*
D03*
X66142D02*
D03*
X67716D02*
D03*
X69291D02*
D03*
X70866D02*
D03*
X72441D02*
D03*
X74016D02*
D03*
X75590D02*
D03*
X77165D02*
D03*
X187402Y177756D02*
D03*
X185827D02*
D03*
X184252D02*
D03*
X182677D02*
D03*
X181102D02*
D03*
X179527D02*
D03*
X177953D02*
D03*
X176378D02*
D03*
X174803D02*
D03*
X173228D02*
D03*
X171653D02*
D03*
X170079D02*
D03*
X168504D02*
D03*
X166929D02*
D03*
X166929Y208071D02*
D03*
X168504D02*
D03*
X170079D02*
D03*
X171653D02*
D03*
X173228D02*
D03*
X174803D02*
D03*
X176378D02*
D03*
X177953D02*
D03*
X179527D02*
D03*
X181102D02*
D03*
X182677D02*
D03*
X184252D02*
D03*
X185827D02*
D03*
X187402D02*
D03*
Y59646D02*
D03*
X185827D02*
D03*
X184252D02*
D03*
X182677D02*
D03*
X181102D02*
D03*
X179527D02*
D03*
X177953D02*
D03*
X176378D02*
D03*
X174803D02*
D03*
X173228D02*
D03*
X171653D02*
D03*
X170079D02*
D03*
X168504D02*
D03*
X166929D02*
D03*
X166929Y89961D02*
D03*
X168504D02*
D03*
X170079D02*
D03*
X171653D02*
D03*
X173228D02*
D03*
X174803D02*
D03*
X176378D02*
D03*
X177953D02*
D03*
X179527D02*
D03*
X181102D02*
D03*
X182677D02*
D03*
X184252D02*
D03*
X185827D02*
D03*
X187402D02*
D03*
X77165Y59646D02*
D03*
X75590D02*
D03*
X74016D02*
D03*
X72441D02*
D03*
X70866D02*
D03*
X69291D02*
D03*
X67716D02*
D03*
X66142D02*
D03*
X64567D02*
D03*
X62992D02*
D03*
X61417D02*
D03*
X59842D02*
D03*
X58268D02*
D03*
X56693D02*
D03*
X56693Y89961D02*
D03*
X58268D02*
D03*
X59842D02*
D03*
X61417D02*
D03*
X62992D02*
D03*
X64567D02*
D03*
X66142D02*
D03*
X67716D02*
D03*
X69291D02*
D03*
X70866D02*
D03*
X72441D02*
D03*
X74016D02*
D03*
X75590D02*
D03*
X77165D02*
D03*
Y177756D02*
D03*
X75590D02*
D03*
X74016D02*
D03*
X72441D02*
D03*
X70866D02*
D03*
X69291D02*
D03*
X67716D02*
D03*
X66142D02*
D03*
X64567D02*
D03*
X62992D02*
D03*
X61417D02*
D03*
X59842D02*
D03*
X58268D02*
D03*
X56693D02*
D03*
X56693Y208071D02*
D03*
X58268D02*
D03*
X59842D02*
D03*
X61417D02*
D03*
X62992D02*
D03*
X64567D02*
D03*
X66142D02*
D03*
X67716D02*
D03*
X69291D02*
D03*
X70866D02*
D03*
X72441D02*
D03*
X74016D02*
D03*
X75590D02*
D03*
X77165D02*
D03*
Y444291D02*
D03*
X75590D02*
D03*
X74016D02*
D03*
X72441D02*
D03*
X70866D02*
D03*
X69291D02*
D03*
X67716D02*
D03*
X66142D02*
D03*
X64567D02*
D03*
X62992D02*
D03*
X61417D02*
D03*
X59842D02*
D03*
X58268D02*
D03*
X56693D02*
D03*
X56693Y413976D02*
D03*
X58268D02*
D03*
X59842D02*
D03*
X61417D02*
D03*
X62992D02*
D03*
X64567D02*
D03*
X66142D02*
D03*
X67716D02*
D03*
X69291D02*
D03*
X70866D02*
D03*
X72441D02*
D03*
X74016D02*
D03*
X75590D02*
D03*
X77165D02*
D03*
D46*
X51772Y300787D02*
D03*
Y302362D02*
D03*
Y303937D02*
D03*
Y305512D02*
D03*
Y307087D02*
D03*
Y308661D02*
D03*
Y310236D02*
D03*
Y311811D02*
D03*
Y313386D02*
D03*
Y314961D02*
D03*
Y316535D02*
D03*
Y318110D02*
D03*
Y319685D02*
D03*
Y321260D02*
D03*
X82087Y321260D02*
D03*
Y319685D02*
D03*
Y318110D02*
D03*
Y316535D02*
D03*
Y314961D02*
D03*
Y313386D02*
D03*
Y311811D02*
D03*
Y310236D02*
D03*
Y308661D02*
D03*
Y307087D02*
D03*
Y305512D02*
D03*
Y303937D02*
D03*
Y302362D02*
D03*
Y300787D02*
D03*
X162008Y182677D02*
D03*
Y184252D02*
D03*
Y185827D02*
D03*
Y187402D02*
D03*
Y188976D02*
D03*
Y190551D02*
D03*
Y192126D02*
D03*
Y193701D02*
D03*
Y195276D02*
D03*
Y196850D02*
D03*
Y198425D02*
D03*
Y200000D02*
D03*
Y201575D02*
D03*
Y203150D02*
D03*
X192323Y203150D02*
D03*
Y201575D02*
D03*
Y200000D02*
D03*
Y198425D02*
D03*
Y196850D02*
D03*
Y195276D02*
D03*
Y193701D02*
D03*
Y192126D02*
D03*
Y190551D02*
D03*
Y188976D02*
D03*
Y187402D02*
D03*
Y185827D02*
D03*
Y184252D02*
D03*
Y182677D02*
D03*
X162008Y64567D02*
D03*
Y66142D02*
D03*
Y67716D02*
D03*
Y69291D02*
D03*
Y70866D02*
D03*
Y72441D02*
D03*
Y74016D02*
D03*
Y75591D02*
D03*
Y77165D02*
D03*
Y78740D02*
D03*
Y80315D02*
D03*
Y81890D02*
D03*
Y83465D02*
D03*
Y85039D02*
D03*
X192323Y85039D02*
D03*
Y83465D02*
D03*
Y81890D02*
D03*
Y80315D02*
D03*
Y78740D02*
D03*
Y77165D02*
D03*
Y75591D02*
D03*
Y74016D02*
D03*
Y72441D02*
D03*
Y70866D02*
D03*
Y69291D02*
D03*
Y67716D02*
D03*
Y66142D02*
D03*
Y64567D02*
D03*
X51772D02*
D03*
Y66142D02*
D03*
Y67716D02*
D03*
Y69291D02*
D03*
Y70866D02*
D03*
Y72441D02*
D03*
Y74016D02*
D03*
Y75591D02*
D03*
Y77165D02*
D03*
Y78740D02*
D03*
Y80315D02*
D03*
Y81890D02*
D03*
Y83465D02*
D03*
Y85039D02*
D03*
X82087Y85039D02*
D03*
Y83465D02*
D03*
Y81890D02*
D03*
Y80315D02*
D03*
Y78740D02*
D03*
Y77165D02*
D03*
Y75591D02*
D03*
Y74016D02*
D03*
Y72441D02*
D03*
Y70866D02*
D03*
Y69291D02*
D03*
Y67716D02*
D03*
Y66142D02*
D03*
Y64567D02*
D03*
X51772Y182677D02*
D03*
Y184252D02*
D03*
Y185827D02*
D03*
Y187402D02*
D03*
Y188976D02*
D03*
Y190551D02*
D03*
Y192126D02*
D03*
Y193701D02*
D03*
Y195276D02*
D03*
Y196850D02*
D03*
Y198425D02*
D03*
Y200000D02*
D03*
Y201575D02*
D03*
Y203150D02*
D03*
X82087Y203150D02*
D03*
Y201575D02*
D03*
Y200000D02*
D03*
Y198425D02*
D03*
Y196850D02*
D03*
Y195276D02*
D03*
Y193701D02*
D03*
Y192126D02*
D03*
Y190551D02*
D03*
Y188976D02*
D03*
Y187402D02*
D03*
Y185827D02*
D03*
Y184252D02*
D03*
Y182677D02*
D03*
Y418898D02*
D03*
Y420472D02*
D03*
Y422047D02*
D03*
Y423622D02*
D03*
Y425197D02*
D03*
Y426772D02*
D03*
Y428346D02*
D03*
Y429921D02*
D03*
Y431496D02*
D03*
Y433071D02*
D03*
Y434646D02*
D03*
Y436221D02*
D03*
Y437795D02*
D03*
Y439370D02*
D03*
X51772Y439370D02*
D03*
Y437795D02*
D03*
Y436221D02*
D03*
Y434646D02*
D03*
Y433071D02*
D03*
Y431496D02*
D03*
Y429921D02*
D03*
Y428346D02*
D03*
Y426772D02*
D03*
Y425197D02*
D03*
Y423622D02*
D03*
Y422047D02*
D03*
Y420472D02*
D03*
Y418898D02*
D03*
D47*
X274400Y140161D02*
D03*
X283400D02*
D03*
Y171300D02*
D03*
X274400D02*
D03*
X295700Y63300D02*
D03*
X286700D02*
D03*
D48*
X169361Y468209D02*
D03*
X147361D02*
D03*
D49*
X169361Y477264D02*
D03*
X147361D02*
D03*
D50*
X176861Y455709D02*
D03*
X171861D02*
D03*
X166861D02*
D03*
X161861D02*
D03*
X139861D02*
D03*
X144861D02*
D03*
X149861D02*
D03*
X154861D02*
D03*
D51*
X288966Y438637D02*
D03*
X277155D02*
D03*
X288966Y429637D02*
D03*
X277155D02*
D03*
D52*
X202761Y373323D02*
D03*
Y346551D02*
D03*
X239161Y436851D02*
D03*
Y463623D02*
D03*
X166761Y373323D02*
D03*
Y346551D02*
D03*
D53*
X137761Y372342D02*
D03*
Y347145D02*
D03*
D54*
X189261Y4837D02*
D03*
Y10337D02*
D03*
X297400Y245450D02*
D03*
Y250950D02*
D03*
X291200D02*
D03*
Y245450D02*
D03*
X180711Y9037D02*
D03*
Y3537D02*
D03*
X180811Y14250D02*
D03*
Y19750D02*
D03*
X172000Y14250D02*
D03*
Y19750D02*
D03*
X189261D02*
D03*
Y14250D02*
D03*
X172161Y9037D02*
D03*
Y3537D02*
D03*
D55*
X275702Y342100D02*
D03*
X286332D02*
D03*
D56*
X296900Y210732D02*
D03*
Y214668D02*
D03*
X227000Y389087D02*
D03*
Y393024D02*
D03*
X241761Y425206D02*
D03*
Y421269D02*
D03*
D57*
X194261Y466552D02*
D03*
Y455922D02*
D03*
X206261Y466552D02*
D03*
Y455922D02*
D03*
D58*
X195289Y439337D02*
D03*
Y417337D02*
D03*
D59*
X186234Y439337D02*
D03*
Y417337D02*
D03*
D60*
X207789Y446837D02*
D03*
Y441837D02*
D03*
Y436837D02*
D03*
Y431837D02*
D03*
Y409837D02*
D03*
Y414837D02*
D03*
Y419837D02*
D03*
Y424837D02*
D03*
D61*
X222100Y393000D02*
D03*
D62*
X305000Y427315D02*
D03*
Y416685D02*
D03*
D63*
X153761Y399950D02*
D03*
Y442526D02*
D03*
D64*
X231776Y402637D02*
D03*
X233745D02*
D03*
X231776Y414837D02*
D03*
X233745D02*
D03*
D65*
X232761Y408737D02*
D03*
D66*
X238568Y404800D02*
D03*
Y406769D02*
D03*
Y408737D02*
D03*
Y410706D02*
D03*
Y412674D02*
D03*
X226954D02*
D03*
Y410706D02*
D03*
Y408737D02*
D03*
Y406769D02*
D03*
Y404800D02*
D03*
D67*
X288079Y207526D02*
D03*
X273118D02*
D03*
Y198077D02*
D03*
X288079D02*
D03*
D68*
X308402Y482745D02*
D03*
X263520D02*
D03*
Y458729D02*
D03*
X308402D02*
D03*
D69*
X266018Y21365D02*
D03*
X263459Y20578D02*
D03*
X255782Y21365D02*
D03*
D70*
X260900Y20578D02*
D03*
X258341D02*
D03*
D71*
X260900Y7586D02*
D03*
D72*
X274471Y162201D02*
D03*
X274471Y154720D02*
D03*
X283329Y158461D02*
D03*
D73*
X260153Y77595D02*
D03*
Y79563D02*
D03*
Y81532D02*
D03*
Y83500D02*
D03*
Y85469D02*
D03*
Y87437D02*
D03*
Y89406D02*
D03*
X279247D02*
D03*
Y87437D02*
D03*
Y85469D02*
D03*
Y83500D02*
D03*
Y81532D02*
D03*
Y79563D02*
D03*
Y77595D02*
D03*
D74*
X263794Y93047D02*
D03*
X265763D02*
D03*
X267731D02*
D03*
X269700D02*
D03*
X271669D02*
D03*
X273637D02*
D03*
X275606D02*
D03*
Y73953D02*
D03*
X273637D02*
D03*
X271669D02*
D03*
X269700D02*
D03*
X267731D02*
D03*
X265763D02*
D03*
X263794D02*
D03*
D75*
X269700Y83500D02*
D03*
D76*
X275170Y250924D02*
D03*
X282651D02*
D03*
Y241476D02*
D03*
X278911D02*
D03*
X275170D02*
D03*
D77*
X282887Y306345D02*
D03*
D78*
Y315400D02*
D03*
Y324455D02*
D03*
D79*
X256313Y315400D02*
D03*
D80*
X306800Y342495D02*
D03*
Y354306D02*
D03*
D81*
X187402Y59646D02*
Y64803D01*
D82*
X184750Y338700D02*
D03*
D83*
X169450Y347350D02*
D03*
D84*
X155150Y435050D02*
D03*
D85*
X153800Y408050D02*
D03*
D86*
X271050Y476050D02*
D03*
D87*
X250462Y496900D02*
D03*
D88*
X299213Y393701D02*
D03*
X15748D02*
D03*
Y110236D02*
D03*
X299213D02*
D03*
D89*
X220472Y488189D02*
D03*
Y15748D02*
D03*
Y251969D02*
D03*
X15748Y15748D02*
D03*
Y488189D02*
D03*
Y251969D02*
D03*
D90*
X289370Y46063D02*
D03*
D91*
X299370D02*
D03*
D92*
X246727Y8176D02*
D03*
X275073D02*
D03*
D93*
X247908Y19200D02*
D03*
X273892D02*
D03*
D94*
X288200Y368500D02*
D03*
X271300Y405800D02*
D03*
X297600Y187900D02*
D03*
X146200Y201600D02*
D03*
X146392Y183500D02*
D03*
X176436Y215710D02*
D03*
X174900Y171800D02*
D03*
X187000Y165000D02*
D03*
X164000Y165900D02*
D03*
X160636Y173000D02*
D03*
X188400Y218900D02*
D03*
X160136Y213300D02*
D03*
X164536Y219600D02*
D03*
X176000Y97200D02*
D03*
X175900Y52000D02*
D03*
X190736Y49390D02*
D03*
X165836Y49090D02*
D03*
X160636Y54890D02*
D03*
X190436Y100890D02*
D03*
X160136Y95190D02*
D03*
X164536Y101490D02*
D03*
X54300D02*
D03*
X49900Y95190D02*
D03*
X80200Y100890D02*
D03*
X50400Y54890D02*
D03*
X55600Y49090D02*
D03*
X80500Y49390D02*
D03*
X66100Y51500D02*
D03*
X66200Y97600D02*
D03*
X54229Y455872D02*
D03*
X49829Y449572D02*
D03*
X80129Y455272D02*
D03*
X50329Y409272D02*
D03*
X55529Y403472D02*
D03*
X80429Y403772D02*
D03*
X65900Y406400D02*
D03*
X66100Y451500D02*
D03*
X54300Y337710D02*
D03*
X49900Y331410D02*
D03*
X80200Y337110D02*
D03*
X50400Y291110D02*
D03*
X55600Y285310D02*
D03*
X80500Y285610D02*
D03*
X66700Y287900D02*
D03*
X66800Y333700D02*
D03*
X66500Y216400D02*
D03*
X66600Y167800D02*
D03*
X80500Y167900D02*
D03*
X55600Y167600D02*
D03*
X50400Y173400D02*
D03*
X80200Y219400D02*
D03*
X49900Y213700D02*
D03*
X54300Y220000D02*
D03*
X108286Y233500D02*
D03*
X124609D02*
D03*
X140931D02*
D03*
X157254D02*
D03*
X173577D02*
D03*
X189900Y233600D02*
D03*
X108286Y270200D02*
D03*
X124609D02*
D03*
X140931D02*
D03*
X157254D02*
D03*
X173577D02*
D03*
X189900Y270300D02*
D03*
X248232Y239000D02*
D03*
X238400D02*
D03*
Y279300D02*
D03*
X248232D02*
D03*
X108286Y240200D02*
D03*
X124609D02*
D03*
X140931D02*
D03*
X157254D02*
D03*
X173577D02*
D03*
X189900Y240300D02*
D03*
X75329Y240200D02*
D03*
X58700D02*
D03*
Y262300D02*
D03*
X75329D02*
D03*
X189900Y262400D02*
D03*
X173577Y262300D02*
D03*
X157254D02*
D03*
X140931D02*
D03*
X124609D02*
D03*
X108286D02*
D03*
X147031Y84300D02*
D03*
X146532Y65800D02*
D03*
X220600Y388100D02*
D03*
X215200Y391000D02*
D03*
X137900Y359137D02*
D03*
X39919Y473819D02*
D03*
X95529Y474129D02*
D03*
X305100Y412400D02*
D03*
X192000Y169000D02*
D03*
X205787Y186000D02*
D03*
X197365Y199313D02*
D03*
X84000Y297500D02*
D03*
X34216Y68200D02*
D03*
X33917Y185800D02*
D03*
X34877Y303737D02*
D03*
X36911Y320500D02*
D03*
Y201500D02*
D03*
X84000Y179500D02*
D03*
X36911Y439000D02*
D03*
X150175Y196966D02*
D03*
Y79675D02*
D03*
X39919Y197500D02*
D03*
Y433126D02*
D03*
X35000Y422000D02*
D03*
X36100Y79100D02*
D03*
X101376Y439765D02*
D03*
X101161Y430962D02*
D03*
X104761Y416062D02*
D03*
X110261Y426462D02*
D03*
X100229Y409562D02*
D03*
X101476Y321240D02*
D03*
X101261Y312437D02*
D03*
X104861Y297537D02*
D03*
X110361Y307937D02*
D03*
X100329Y291037D02*
D03*
X101315Y85303D02*
D03*
X101100Y76500D02*
D03*
X104700Y61600D02*
D03*
X105000Y76500D02*
D03*
X100169Y55100D02*
D03*
X101476Y204203D02*
D03*
X101261Y195400D02*
D03*
X104561Y179700D02*
D03*
X110361Y190900D02*
D03*
X100329Y174000D02*
D03*
X211615Y203403D02*
D03*
X212200Y195200D02*
D03*
X215000Y179700D02*
D03*
X214000Y184200D02*
D03*
X209968Y174200D02*
D03*
X210068Y55200D02*
D03*
X220100Y72100D02*
D03*
X214600Y61700D02*
D03*
X74142Y449947D02*
D03*
X89529Y432304D02*
D03*
X87129Y424134D02*
D03*
X95529Y422300D02*
D03*
X86729Y418898D02*
D03*
X72441Y408234D02*
D03*
X45929Y433084D02*
D03*
Y429434D02*
D03*
X92000Y314200D02*
D03*
X87129Y306024D02*
D03*
X86729Y300787D02*
D03*
X72441Y290124D02*
D03*
X39919Y315000D02*
D03*
X45929Y314974D02*
D03*
Y311324D02*
D03*
X74016Y331837D02*
D03*
X95800Y303800D02*
D03*
X59300Y460900D02*
D03*
X66100D02*
D03*
X73500D02*
D03*
X45929Y193213D02*
D03*
Y196863D02*
D03*
X72441Y172013D02*
D03*
X86729Y182677D02*
D03*
X95900Y185900D02*
D03*
X87129Y187913D02*
D03*
X92000Y196100D02*
D03*
X87129Y199313D02*
D03*
X74142Y213727D02*
D03*
X73500Y106569D02*
D03*
X66100D02*
D03*
X59300D02*
D03*
X45929Y75103D02*
D03*
Y78753D02*
D03*
X39919Y79619D02*
D03*
X72441Y53903D02*
D03*
X86229Y64567D02*
D03*
X95529Y68000D02*
D03*
X87129Y69803D02*
D03*
X92000Y78000D02*
D03*
X87129Y81203D02*
D03*
X74142Y95617D02*
D03*
X213500Y75500D02*
D03*
X156165Y75103D02*
D03*
Y78753D02*
D03*
X182677Y53903D02*
D03*
X196965Y64567D02*
D03*
X205765Y68000D02*
D03*
X211215Y85403D02*
D03*
X197365Y69803D02*
D03*
X202500Y78000D02*
D03*
X197365Y81203D02*
D03*
X184378Y95617D02*
D03*
X155665Y196863D02*
D03*
X182677Y172013D02*
D03*
X196965Y182677D02*
D03*
X197365Y187913D02*
D03*
X199765Y196083D02*
D03*
X184378Y213727D02*
D03*
X59300Y396800D02*
D03*
X66100Y396600D02*
D03*
X73600Y396700D02*
D03*
X59321Y343774D02*
D03*
X66821Y343874D02*
D03*
X73621Y343674D02*
D03*
X73600Y278000D02*
D03*
X66900Y277900D02*
D03*
X60100Y278100D02*
D03*
X59321Y226869D02*
D03*
X66821Y226969D02*
D03*
X73621Y226768D02*
D03*
X74239Y156163D02*
D03*
X66739Y156063D02*
D03*
X59939Y156263D02*
D03*
X73600Y41626D02*
D03*
X66100Y41526D02*
D03*
X59300Y41726D02*
D03*
X183400Y41626D02*
D03*
X175900Y41526D02*
D03*
X169100Y41726D02*
D03*
X169021Y107004D02*
D03*
X175821Y107104D02*
D03*
X183021Y106904D02*
D03*
X182000Y159900D02*
D03*
X175000Y159800D02*
D03*
X167900Y160000D02*
D03*
X169021Y226869D02*
D03*
X175821Y226969D02*
D03*
X183021Y226768D02*
D03*
X269800Y61000D02*
D03*
Y67400D02*
D03*
X275600Y66800D02*
D03*
X264800Y67600D02*
D03*
X281200Y72300D02*
D03*
X229100Y134200D02*
D03*
X226000Y147000D02*
D03*
X23800Y132900D02*
D03*
X30700Y145500D02*
D03*
X31298Y383600D02*
D03*
X24398Y371000D02*
D03*
X301300Y245500D02*
D03*
X279200Y230900D02*
D03*
X285600Y302100D02*
D03*
X285400Y348800D02*
D03*
X176500Y3400D02*
D03*
X283500Y93600D02*
D03*
X246300Y92000D02*
D03*
X260400Y56600D02*
D03*
X246400Y77000D02*
D03*
X284000Y83500D02*
D03*
X274980Y28285D02*
D03*
X255782Y41000D02*
D03*
X267000Y47200D02*
D03*
X259900Y44500D02*
D03*
X248100Y53800D02*
D03*
X234800Y46700D02*
D03*
D95*
X220224Y25059D02*
D03*
Y6059D02*
D03*
X229724Y15559D02*
D03*
X211224D02*
D03*
X213724Y22559D02*
D03*
X227224D02*
D03*
X213224Y9059D02*
D03*
X227224D02*
D03*
X15500Y25059D02*
D03*
Y6059D02*
D03*
X25000Y15559D02*
D03*
X6500D02*
D03*
X9000Y22559D02*
D03*
X22500D02*
D03*
X8500Y9059D02*
D03*
X22500D02*
D03*
X220224Y261280D02*
D03*
Y242280D02*
D03*
X229724Y251780D02*
D03*
X211224D02*
D03*
X213724Y258780D02*
D03*
X227224D02*
D03*
X213224Y245280D02*
D03*
X227224D02*
D03*
X15500Y261280D02*
D03*
Y242280D02*
D03*
X25000Y251780D02*
D03*
X6500D02*
D03*
X9000Y258780D02*
D03*
X22500D02*
D03*
X8500Y245280D02*
D03*
X22500D02*
D03*
X220224Y497500D02*
D03*
Y478500D02*
D03*
X229724Y488000D02*
D03*
X211224D02*
D03*
X213724Y495000D02*
D03*
X227224D02*
D03*
X213224Y481500D02*
D03*
X227224D02*
D03*
X22500D02*
D03*
X8500D02*
D03*
X22500Y495000D02*
D03*
X9000D02*
D03*
X6500Y488000D02*
D03*
X25000D02*
D03*
X15500Y478500D02*
D03*
Y497500D02*
D03*
X199000Y56500D02*
D03*
X39500Y254000D02*
D03*
X87000D02*
D03*
X150175Y254175D02*
D03*
X193500Y254000D02*
D03*
X200500Y245900D02*
D03*
X84519Y57519D02*
D03*
X96571Y16429D02*
D03*
X89000D02*
D03*
X153500Y16500D02*
D03*
Y5500D02*
D03*
X265687Y278310D02*
D03*
X95500Y247000D02*
D03*
X266000Y266000D02*
D03*
X280000Y278000D02*
D03*
X285500Y257700D02*
D03*
X272000Y233000D02*
D03*
X264000Y192000D02*
D03*
X293000Y215000D02*
D03*
X292900Y139400D02*
D03*
X293000Y179000D02*
D03*
X283000Y145000D02*
D03*
X274471Y166000D02*
D03*
X269000Y155000D02*
D03*
X229700Y384300D02*
D03*
D96*
X206261Y394737D02*
D03*
X201261D02*
D03*
X259100Y488500D02*
D03*
X215232Y421637D02*
D03*
Y426637D02*
D03*
Y431637D02*
D03*
Y436637D02*
D03*
Y441637D02*
D03*
X188200Y457800D02*
D03*
X184600Y468000D02*
D03*
X144361Y468024D02*
D03*
X150361D02*
D03*
X166361D02*
D03*
X172361D02*
D03*
X144361Y477079D02*
D03*
X150361D02*
D03*
X166361D02*
D03*
X172361D02*
D03*
X190000Y472237D02*
D03*
X200000D02*
D03*
X210100Y452000D02*
D03*
X195600Y452300D02*
D03*
X257261Y430237D02*
D03*
X198261Y415237D02*
D03*
Y411737D02*
D03*
X221761Y412237D02*
D03*
X218261D02*
D03*
X206261Y424737D02*
D03*
X209761D02*
D03*
X206261Y446737D02*
D03*
X209761D02*
D03*
X176761Y453737D02*
D03*
X154761D02*
D03*
X166900Y336300D02*
D03*
X203100Y336400D02*
D03*
X168800Y353300D02*
D03*
X164700Y353200D02*
D03*
X140761Y349437D02*
D03*
X134800Y349400D02*
D03*
X225453Y399430D02*
D03*
X219261Y438737D02*
D03*
Y434237D02*
D03*
Y429237D02*
D03*
Y424237D02*
D03*
X205761Y452237D02*
D03*
X147261Y472737D02*
D03*
X169261Y472237D02*
D03*
X199761Y452237D02*
D03*
X209461Y412737D02*
D03*
Y408937D02*
D03*
X216300Y453900D02*
D03*
X164700Y348500D02*
D03*
X168800Y348600D02*
D03*
X164700Y343100D02*
D03*
X168800Y343200D02*
D03*
X200600Y352400D02*
D03*
X204700Y352500D02*
D03*
X200600Y347100D02*
D03*
X204700Y347200D02*
D03*
X200500Y341500D02*
D03*
X204600Y341600D02*
D03*
D97*
X230792Y405784D02*
D03*
X234729D02*
D03*
X230792Y411690D02*
D03*
X234729D02*
D03*
X232761Y408737D02*
D03*
M02*
