%FSLAX25Y25*%
%MOIN*%
G70*
G01*
G75*
G04 Layer_Physical_Order=2*
G04 Layer_Color=36540*
%ADD10C,0.03000*%
%ADD11C,0.00800*%
%ADD12C,0.02000*%
%ADD13C,0.01181*%
%ADD14C,0.02362*%
%ADD15C,0.01969*%
%ADD16C,0.01200*%
%ADD17C,0.01500*%
%ADD18C,0.01000*%
%ADD19C,0.01100*%
%ADD20C,0.04000*%
%ADD21C,0.03200*%
%ADD22C,0.03937*%
%ADD23C,0.01575*%
%ADD24C,0.00787*%
%ADD25C,0.00800*%
%ADD26C,0.02000*%
%ADD27C,0.10000*%
%ADD28R,0.05512X0.04331*%
%ADD29R,0.04331X0.10236*%
%ADD30R,0.04331X0.05512*%
%ADD31R,0.03543X0.02756*%
%ADD32R,0.03150X0.03543*%
%ADD33R,0.02756X0.03543*%
%ADD34R,0.02362X0.02362*%
%ADD35R,0.03543X0.03150*%
%ADD36R,0.02362X0.01969*%
%ADD37R,0.03000X0.03000*%
%ADD38C,0.03150*%
%ADD39R,0.10236X0.09449*%
%ADD40R,0.07087X0.06299*%
%ADD41R,0.06299X0.07087*%
%ADD42R,0.01969X0.02362*%
%ADD43C,0.03937*%
%ADD44R,0.22047X0.22047*%
%ADD45O,0.00787X0.05118*%
%ADD46O,0.05118X0.00787*%
%ADD47R,0.06000X0.05000*%
%ADD48R,0.16535X0.12205*%
%ADD49R,0.18504X0.05906*%
%ADD50R,0.02756X0.04528*%
%ADD51R,0.03937X0.07087*%
%ADD52R,0.07480X0.16339*%
%ADD53R,0.09449X0.10236*%
%ADD54R,0.03000X0.03000*%
%ADD55R,0.04331X0.06693*%
%ADD56R,0.02362X0.02362*%
%ADD57R,0.10236X0.04331*%
%ADD58R,0.12205X0.16535*%
%ADD59R,0.05906X0.18504*%
%ADD60R,0.04528X0.02756*%
%ADD61C,0.03000*%
%ADD62R,0.06693X0.04331*%
%ADD63R,0.19488X0.11594*%
%ADD64R,0.01102X0.02756*%
%ADD65R,0.06299X0.09449*%
%ADD66R,0.03347X0.01102*%
%ADD67R,0.08661X0.05512*%
%ADD68R,0.09449X0.11024*%
%ADD69O,0.01575X0.08268*%
%ADD70O,0.01378X0.08268*%
%ADD71R,0.07087X0.05906*%
%ADD72R,0.03937X0.03740*%
%ADD73O,0.04528X0.00787*%
%ADD74O,0.00787X0.04528*%
%ADD75R,0.08268X0.08268*%
%ADD76R,0.02559X0.03543*%
%ADD77R,0.06102X0.04331*%
%ADD78R,0.06102X0.04331*%
%ADD79R,0.06102X0.13583*%
%ADD80R,0.07087X0.03937*%
%ADD81C,0.00780*%
%ADD82R,0.42300X0.07600*%
%ADD83R,0.72700X0.09700*%
%ADD84R,0.46300X0.11900*%
%ADD85R,0.46400X0.11900*%
%ADD86R,0.19500X0.45500*%
%ADD87R,0.60476X0.09600*%
%ADD88C,0.23622*%
%ADD89C,0.25590*%
%ADD90R,0.05906X0.05906*%
%ADD91C,0.05906*%
%ADD92R,0.04724X0.07087*%
%ADD93O,0.05906X0.03937*%
%ADD94C,0.02400*%
%ADD95C,0.02800*%
%ADD96C,0.03200*%
%ADD97C,0.02362*%
G36*
X82100Y498800D02*
X115500D01*
Y498800D01*
X115548Y498844D01*
X117460Y498655D01*
X119345Y498083D01*
X121083Y497155D01*
X122605Y495905D01*
X123855Y494383D01*
X124784Y492645D01*
X125355Y490760D01*
X125548Y488800D01*
X125500Y430800D01*
Y428800D01*
X125452D01*
X125645Y426840D01*
X126216Y424955D01*
X127145Y423217D01*
X128395Y421695D01*
X129917Y420445D01*
X131655Y419517D01*
X133540Y418945D01*
X135500Y418752D01*
X170800Y418800D01*
X176000D01*
Y418800D01*
X176048Y418844D01*
X177960Y418655D01*
X179845Y418083D01*
X181583Y417155D01*
X183105Y415905D01*
X184355Y414383D01*
X185284Y412645D01*
X185855Y410760D01*
X186048Y408800D01*
X186000Y392900D01*
Y390900D01*
X185952D01*
X186145Y388940D01*
X186716Y387055D01*
X187645Y385317D01*
X188895Y383795D01*
X190417Y382545D01*
X192155Y381616D01*
X194040Y381045D01*
X196000Y380852D01*
X225200Y380900D01*
X254096D01*
Y380900D01*
X254124Y380925D01*
X255234Y380816D01*
X256328Y380484D01*
X257336Y379945D01*
X258220Y379220D01*
X259071Y378329D01*
X259071Y378329D01*
X259136Y378326D01*
X260355Y376840D01*
X261283Y375103D01*
X261855Y373218D01*
X262048Y371258D01*
X262013Y279129D01*
X258059Y275175D01*
X258032Y275140D01*
X257031Y274318D01*
X255849Y273687D01*
X254567Y273298D01*
X253278Y273171D01*
X253234Y273177D01*
X217142D01*
Y273190D01*
X215079Y273028D01*
X213066Y272545D01*
X211154Y271753D01*
X209389Y270671D01*
X207815Y269327D01*
X207825Y269317D01*
X197683Y259175D01*
X197656Y259140D01*
X196654Y258318D01*
X195473Y257687D01*
X194191Y257298D01*
X192902Y257171D01*
X192858Y257177D01*
X39500D01*
X38678Y257068D01*
X37912Y256751D01*
X37254Y256246D01*
X36749Y255588D01*
X36432Y254822D01*
X36323Y254000D01*
X36432Y253178D01*
X36749Y252412D01*
X37254Y251754D01*
X37912Y251249D01*
X38678Y250932D01*
X39500Y250823D01*
X192858D01*
Y250810D01*
X194921Y250972D01*
X196934Y251455D01*
X198846Y252247D01*
X200611Y253329D01*
X202185Y254673D01*
X202175Y254683D01*
X204111Y256618D01*
X204572Y256426D01*
X204529Y246189D01*
X204075Y245981D01*
X203031Y246872D01*
X202843Y246987D01*
X202755Y247202D01*
X202341Y247741D01*
X201802Y248155D01*
X201174Y248415D01*
X200500Y248503D01*
X200026Y248441D01*
X199629Y248606D01*
X197767Y249053D01*
X195898Y249200D01*
X195858Y249208D01*
X96863D01*
X96802Y249255D01*
X96174Y249515D01*
X95500Y249603D01*
X94826Y249515D01*
X94198Y249255D01*
X93659Y248841D01*
X93245Y248302D01*
X92985Y247674D01*
X92897Y247000D01*
X92985Y246326D01*
X93245Y245698D01*
X93659Y245159D01*
X94198Y244745D01*
X94826Y244485D01*
X95500Y244397D01*
X96174Y244485D01*
X96802Y244745D01*
X96863Y244792D01*
X195858D01*
X195959Y244812D01*
X197384Y244672D01*
X198433Y244354D01*
X198659Y244059D01*
X199198Y243645D01*
X199826Y243385D01*
X200448Y243303D01*
X201310Y242596D01*
X201368Y242510D01*
X206510Y237368D01*
X206544Y237345D01*
X207969Y236128D01*
X209602Y235127D01*
X211371Y234394D01*
X213233Y233947D01*
X215102Y233800D01*
X215142Y233792D01*
X224858D01*
X224898Y233800D01*
X226767Y233947D01*
X228629Y234394D01*
X230398Y235127D01*
X232031Y236128D01*
X233456Y237345D01*
X233490Y237368D01*
X257632Y261510D01*
X257689Y261596D01*
X258796Y262504D01*
X260149Y263227D01*
X261605Y263669D01*
X261809Y263518D01*
X262007Y263338D01*
X262000Y246400D01*
Y194224D01*
X214828D01*
X214510Y194610D01*
X214628Y195200D01*
X214443Y196129D01*
X213917Y196917D01*
X213129Y197443D01*
X212200Y197628D01*
X211271Y197443D01*
X210483Y196917D01*
X209957Y196129D01*
X209772Y195200D01*
X209890Y194610D01*
X209572Y194224D01*
X203849D01*
X203776Y194209D01*
X203126Y194339D01*
X202513Y194748D01*
X202104Y195361D01*
X202077Y195498D01*
X202193Y196083D01*
X202008Y197013D01*
X201482Y197800D01*
X200694Y198327D01*
X199765Y198511D01*
X199655Y198621D01*
X199793Y199313D01*
X199608Y200242D01*
X199082Y201030D01*
X198294Y201556D01*
X197365Y201741D01*
X196436Y201556D01*
X195649Y201030D01*
X195122Y200242D01*
X194938Y199313D01*
X195122Y198384D01*
X195649Y197597D01*
X196436Y197070D01*
X197145Y196929D01*
X197423Y196514D01*
X197338Y196083D01*
X197522Y195155D01*
X197667Y194939D01*
X197675Y194855D01*
X198033Y193675D01*
X198615Y192586D01*
X199398Y191632D01*
X199398Y191632D01*
X199398D01*
X199728Y191119D01*
X199518Y190666D01*
X198581Y190542D01*
X197859Y190243D01*
X197365Y190341D01*
X196436Y190156D01*
X195649Y189630D01*
X195122Y188842D01*
X194938Y187913D01*
X195122Y186984D01*
X195649Y186197D01*
X196436Y185670D01*
X196865Y185585D01*
Y185085D01*
X196036Y184920D01*
X195249Y184394D01*
X194722Y183606D01*
X194538Y182677D01*
X194722Y181748D01*
X195249Y180961D01*
X196036Y180434D01*
X196965Y180249D01*
X197894Y180434D01*
X198682Y180961D01*
X199208Y181748D01*
X199393Y182677D01*
X199208Y183606D01*
X198682Y184394D01*
X197894Y184920D01*
X197465Y185005D01*
Y185505D01*
X198294Y185670D01*
X199082Y186197D01*
X199608Y186984D01*
X199658Y187236D01*
X199989Y187286D01*
X199989Y187286D01*
Y187286D01*
X203221D01*
X203538Y186899D01*
X203359Y186000D01*
X203544Y185071D01*
X204070Y184283D01*
X204857Y183757D01*
X205787Y183572D01*
X206716Y183757D01*
X207503Y184283D01*
X208030Y185071D01*
X208214Y186000D01*
X208030Y186929D01*
X208220Y187286D01*
X230858D01*
X230935Y187301D01*
X232479Y187149D01*
X234037Y186676D01*
X235474Y185909D01*
X236673Y184924D01*
X236717Y184859D01*
X262000Y159576D01*
Y85042D01*
X262000D01*
X262044Y84994D01*
X261855Y83082D01*
X261283Y81197D01*
X260872Y80426D01*
X185652Y5206D01*
X178083D01*
X177429Y5643D01*
X176500Y5828D01*
X175571Y5643D01*
X174783Y5117D01*
X174257Y4329D01*
X174182Y3954D01*
X155871Y3961D01*
X155755Y4198D01*
X156015Y4826D01*
X156103Y5500D01*
X156015Y6174D01*
X155755Y6802D01*
X155341Y7341D01*
X155214Y7438D01*
Y14562D01*
X155341Y14659D01*
X155755Y15198D01*
X156015Y15826D01*
X156103Y16500D01*
X156015Y17174D01*
X155755Y17802D01*
X155341Y18341D01*
X154802Y18755D01*
X154174Y19015D01*
X153500Y19103D01*
X152826Y19015D01*
X152198Y18755D01*
X151659Y18341D01*
X151245Y17802D01*
X150985Y17174D01*
X150897Y16500D01*
X150985Y15826D01*
X151245Y15198D01*
X151659Y14659D01*
X151786Y14562D01*
Y7438D01*
X151659Y7341D01*
X151245Y6802D01*
X150985Y6174D01*
X150897Y5500D01*
X150985Y4826D01*
X151171Y4379D01*
X150893Y3963D01*
X52800Y4000D01*
X47011D01*
Y4000D01*
X46975Y3967D01*
X45539Y4109D01*
X44123Y4538D01*
X42818Y5236D01*
X41674Y6174D01*
X29660Y18208D01*
X29673Y21261D01*
X29480Y23221D01*
X28908Y25106D01*
X27979Y26843D01*
X26730Y28366D01*
X25207Y29616D01*
X23470Y30544D01*
X21585Y31116D01*
X19624Y31309D01*
Y31261D01*
X16627D01*
X8829Y39071D01*
X8829D01*
X8764Y39074D01*
X7545Y40560D01*
X6617Y42297D01*
X6045Y44182D01*
X5852Y46142D01*
X5858Y94861D01*
X6259Y95158D01*
X6964Y94945D01*
X8924Y94752D01*
Y94752D01*
X8973Y94800D01*
X20824Y94752D01*
X22784Y94945D01*
X24670Y95517D01*
X26407Y96445D01*
X27929Y97695D01*
X29179Y99217D01*
X30108Y100955D01*
X30680Y102840D01*
X30873Y104800D01*
X30873D01*
X30824Y104848D01*
X30873Y116361D01*
X30680Y118321D01*
X30108Y120206D01*
X29179Y121943D01*
X27929Y123466D01*
X26407Y124716D01*
X24670Y125644D01*
X22784Y126216D01*
X20824Y126409D01*
Y126361D01*
X13424D01*
X13324Y126200D01*
X8924Y126248D01*
X6964Y126055D01*
X6263Y125843D01*
X5862Y126141D01*
X5875Y236616D01*
X6277Y236914D01*
X7164Y236645D01*
X9124Y236452D01*
Y236452D01*
X9173Y236500D01*
X21024Y236452D01*
X22985Y236645D01*
X24870Y237216D01*
X26607Y238145D01*
X28130Y239395D01*
X29379Y240917D01*
X30308Y242655D01*
X30880Y244540D01*
X31073Y246500D01*
X31073D01*
X31024Y246548D01*
X31073Y258061D01*
X30880Y260021D01*
X30308Y261906D01*
X29379Y263643D01*
X28130Y265166D01*
X26607Y266416D01*
X24870Y267344D01*
X22985Y267916D01*
X21024Y268109D01*
Y268061D01*
X13624D01*
X13524Y267900D01*
X9124Y267948D01*
X7164Y267755D01*
X6281Y267488D01*
X5879Y267785D01*
X5893Y379026D01*
X6295Y379324D01*
X7212Y379046D01*
X9172Y378852D01*
Y378852D01*
X9221Y378901D01*
X21072Y378852D01*
X23033Y379046D01*
X24918Y379617D01*
X26655Y380546D01*
X28177Y381796D01*
X28718Y382454D01*
X29217Y382429D01*
X29582Y381883D01*
X30369Y381357D01*
X31298Y381172D01*
X32228Y381357D01*
X33015Y381883D01*
X33541Y382671D01*
X33726Y383600D01*
X33541Y384529D01*
X33015Y385317D01*
X32228Y385843D01*
X31298Y386028D01*
X31086Y385985D01*
X30750Y386356D01*
X30928Y386941D01*
X31121Y388901D01*
X31121D01*
X31072Y388949D01*
X31121Y400461D01*
X30928Y402422D01*
X30356Y404307D01*
X29427Y406044D01*
X28177Y407567D01*
X26655Y408816D01*
X24918Y409745D01*
X23033Y410317D01*
X21072Y410510D01*
Y410461D01*
X13672D01*
X13572Y410301D01*
X9172Y410349D01*
X7212Y410156D01*
X6299Y409879D01*
X5897Y410177D01*
X5900Y432500D01*
Y449858D01*
X5900D01*
X5856Y449906D01*
X6045Y451818D01*
X6617Y453703D01*
X7545Y455440D01*
X8795Y456963D01*
X47700Y495800D01*
X47771Y495871D01*
Y495871D01*
X47774Y495936D01*
X49260Y497155D01*
X50997Y498083D01*
X52882Y498655D01*
X54842Y498848D01*
X82100Y498800D01*
D02*
G37*
G36*
X307400Y499300D02*
Y499300D01*
X307437Y499332D01*
X308523Y499189D01*
X309569Y498756D01*
X310467Y498067D01*
X311156Y497168D01*
X311589Y496123D01*
X311737Y495000D01*
X311730Y406668D01*
X311278Y406454D01*
X310107Y407416D01*
X308369Y408344D01*
X306485Y408916D01*
X304524Y409109D01*
Y409061D01*
X297124D01*
X297024Y408900D01*
X292624Y408948D01*
X290664Y408755D01*
X288779Y408183D01*
X287042Y407255D01*
X285519Y406005D01*
X284269Y404483D01*
X283341Y402745D01*
X282769Y400860D01*
X282576Y398900D01*
X282576D01*
X282624Y398852D01*
X282576Y387500D01*
X282769Y385540D01*
X283341Y383655D01*
X284269Y381917D01*
X285519Y380395D01*
X287042Y379145D01*
X288779Y378217D01*
X290664Y377645D01*
X292624Y377452D01*
Y377452D01*
X292673Y377500D01*
X304524Y377452D01*
X306485Y377645D01*
X308369Y378217D01*
X310107Y379145D01*
X311276Y380105D01*
X311728Y379891D01*
X311708Y123578D01*
X311256Y123364D01*
X310707Y123816D01*
X308969Y124744D01*
X307084Y125316D01*
X305124Y125509D01*
Y125461D01*
X297724D01*
X297624Y125300D01*
X293224Y125348D01*
X291264Y125155D01*
X289379Y124583D01*
X287642Y123655D01*
X286119Y122405D01*
X284869Y120883D01*
X283941Y119145D01*
X283369Y117260D01*
X283176Y115300D01*
X283176D01*
X283224Y115252D01*
X283176Y103900D01*
X283369Y101940D01*
X283941Y100055D01*
X284869Y98317D01*
X286119Y96795D01*
X287642Y95545D01*
X289379Y94617D01*
X291264Y94045D01*
X293224Y93852D01*
Y93852D01*
X293273Y93900D01*
X305124Y93852D01*
X307084Y94045D01*
X308969Y94617D01*
X310707Y95545D01*
X311254Y95994D01*
X311706Y95781D01*
X311700Y13900D01*
Y13600D01*
X311700D01*
X311744Y13552D01*
X311555Y11640D01*
X310983Y9755D01*
X310055Y8017D01*
X308805Y6495D01*
X307283Y5245D01*
X305545Y4316D01*
X303660Y3745D01*
X301700Y3552D01*
X251100Y3600D01*
X242742D01*
Y3600D01*
X242694Y3556D01*
X240782Y3745D01*
X238897Y4316D01*
X237159Y5245D01*
X235637Y6495D01*
X234700Y7500D01*
Y47827D01*
X234700D01*
X234677Y47853D01*
X234779Y48629D01*
X235089Y49377D01*
X235581Y50019D01*
X261671Y76071D01*
X261705Y76037D01*
X262226Y76672D01*
X277348Y91794D01*
X281918D01*
X282571Y91357D01*
X283500Y91172D01*
X284429Y91357D01*
X285217Y91883D01*
X285743Y92671D01*
X285928Y93600D01*
X285743Y94529D01*
X285217Y95317D01*
X284429Y95843D01*
X283500Y96028D01*
X282571Y95843D01*
X281918Y95406D01*
X276600D01*
X275909Y95269D01*
X275323Y94877D01*
X265110Y84665D01*
X264648Y84856D01*
X264635Y156287D01*
X265097Y156479D01*
X266418Y155158D01*
X266397Y155000D01*
X266485Y154326D01*
X266745Y153698D01*
X267159Y153159D01*
X267698Y152745D01*
X268326Y152485D01*
X269000Y152397D01*
X269674Y152485D01*
X270302Y152745D01*
X270841Y153159D01*
X271255Y153698D01*
X271515Y154326D01*
X271603Y155000D01*
X271515Y155674D01*
X271255Y156302D01*
X270841Y156841D01*
X270302Y157255D01*
X269674Y157515D01*
X269000Y157603D01*
X268842Y157582D01*
X264634Y161790D01*
X264630Y189479D01*
X264674Y189485D01*
X265302Y189745D01*
X265841Y190159D01*
X266255Y190698D01*
X266515Y191326D01*
X266603Y192000D01*
X266515Y192674D01*
X266255Y193302D01*
X265841Y193841D01*
X265302Y194255D01*
X264674Y194515D01*
X264629Y194521D01*
X264616Y263329D01*
X265032Y263607D01*
X265326Y263485D01*
X266000Y263397D01*
X266674Y263485D01*
X267302Y263745D01*
X267841Y264159D01*
X268255Y264698D01*
X268515Y265326D01*
X268603Y266000D01*
X268515Y266674D01*
X268255Y267302D01*
X267841Y267841D01*
X267302Y268255D01*
X266674Y268515D01*
X266000Y268603D01*
X265326Y268515D01*
X265031Y268392D01*
X264616Y268670D01*
X264615Y272746D01*
X267933Y276064D01*
X268438Y276722D01*
X268755Y277488D01*
X268864Y278310D01*
X268755Y279133D01*
X268438Y279899D01*
X267933Y280557D01*
X267275Y281062D01*
X266509Y281379D01*
X265687Y281487D01*
X264989Y281395D01*
X264713Y281638D01*
X264613Y281725D01*
Y281725D01*
D01*
X264600Y356100D01*
Y373400D01*
X264648D01*
X264455Y375360D01*
X263883Y377245D01*
X262955Y378983D01*
X261705Y380505D01*
X260183Y381755D01*
X258445Y382683D01*
X256560Y383255D01*
X254600Y383448D01*
X232568Y383430D01*
X232238Y383805D01*
X232303Y384300D01*
X232215Y384974D01*
X231955Y385602D01*
X231541Y386141D01*
X231002Y386555D01*
X230374Y386815D01*
X229700Y386903D01*
X229026Y386815D01*
X228398Y386555D01*
X227859Y386141D01*
X227445Y385602D01*
X227185Y384974D01*
X227097Y384300D01*
X227162Y383801D01*
X226833Y383425D01*
X197900Y383400D01*
X197900Y383400D01*
Y383400D01*
X197861Y383364D01*
X196292Y383519D01*
X194747Y383987D01*
X193322Y384749D01*
X192074Y385774D01*
X191049Y387022D01*
X190287Y388447D01*
X189819Y389992D01*
X189660Y391600D01*
X189700Y400200D01*
Y411800D01*
X189748D01*
X189555Y413760D01*
X188984Y415645D01*
X188055Y417383D01*
X186805Y418905D01*
X185283Y420155D01*
X183545Y421083D01*
X181660Y421655D01*
X179700Y421848D01*
X137600Y421800D01*
X137600Y421800D01*
Y421800D01*
X137563Y421766D01*
X136091Y421911D01*
X134639Y422352D01*
X133301Y423067D01*
X132129Y424029D01*
X131167Y425201D01*
X130452Y426539D01*
X130011Y427990D01*
X129863Y429500D01*
X129900Y486400D01*
Y489200D01*
X129900D01*
X129856Y489248D01*
X130045Y491160D01*
X130616Y493045D01*
X131545Y494783D01*
X132795Y496305D01*
X134317Y497555D01*
X136055Y498484D01*
X137940Y499055D01*
X139900Y499248D01*
X141149Y499218D01*
X141832Y498935D01*
X141832Y498935D01*
X142149Y498804D01*
X142159Y498800D01*
D01*
D01*
D01*
D01*
D01*
D01*
D01*
X142159Y498800D01*
X142174D01*
Y498800D01*
X142200Y498800D01*
X142185Y498820D01*
D01*
X142174Y498835D01*
Y498835D01*
D01*
Y498835D01*
X142174D01*
D01*
D01*
X142294Y499127D01*
Y499127D01*
X142317Y499183D01*
X142700Y499341D01*
X307400Y499300D01*
D02*
G37*
%LPC*%
G36*
X229100Y136628D02*
X228171Y136443D01*
X227383Y135917D01*
X226857Y135129D01*
X226672Y134200D01*
X226857Y133271D01*
X227383Y132483D01*
X228171Y131957D01*
X229100Y131772D01*
X230029Y131957D01*
X230817Y132483D01*
X231343Y133271D01*
X231528Y134200D01*
X231343Y135129D01*
X230817Y135917D01*
X230029Y136443D01*
X229100Y136628D01*
D02*
G37*
G36*
X292900Y142003D02*
X292226Y141915D01*
X291598Y141655D01*
X291059Y141241D01*
X290645Y140702D01*
X290385Y140074D01*
X290297Y139400D01*
X290385Y138726D01*
X290645Y138098D01*
X291059Y137559D01*
X291598Y137145D01*
X292226Y136885D01*
X292900Y136797D01*
X293574Y136885D01*
X294202Y137145D01*
X294741Y137559D01*
X295155Y138098D01*
X295415Y138726D01*
X295503Y139400D01*
X295415Y140074D01*
X295155Y140702D01*
X294741Y141241D01*
X294202Y141655D01*
X293574Y141915D01*
X292900Y142003D01*
D02*
G37*
G36*
X23800Y135328D02*
X22871Y135143D01*
X22083Y134617D01*
X21557Y133829D01*
X21372Y132900D01*
X21557Y131971D01*
X22083Y131183D01*
X22871Y130657D01*
X23800Y130472D01*
X24729Y130657D01*
X25517Y131183D01*
X26043Y131971D01*
X26228Y132900D01*
X26043Y133829D01*
X25517Y134617D01*
X24729Y135143D01*
X23800Y135328D01*
D02*
G37*
G36*
X169021Y109432D02*
X168092Y109247D01*
X167305Y108721D01*
X166778Y107933D01*
X166594Y107004D01*
X166778Y106075D01*
X167305Y105287D01*
X168092Y104761D01*
X169021Y104576D01*
X169950Y104761D01*
X170738Y105287D01*
X171264Y106075D01*
X171449Y107004D01*
X171264Y107933D01*
X170738Y108721D01*
X169950Y109247D01*
X169021Y109432D01*
D02*
G37*
G36*
X175821Y109532D02*
X174892Y109347D01*
X174105Y108821D01*
X173578Y108033D01*
X173393Y107104D01*
X173578Y106175D01*
X174105Y105387D01*
X174892Y104861D01*
X175821Y104676D01*
X176750Y104861D01*
X177538Y105387D01*
X178064Y106175D01*
X178249Y107104D01*
X178064Y108033D01*
X177538Y108821D01*
X176750Y109347D01*
X175821Y109532D01*
D02*
G37*
G36*
X74239Y158591D02*
X73310Y158406D01*
X72523Y157880D01*
X71996Y157092D01*
X71812Y156163D01*
X71996Y155234D01*
X72523Y154446D01*
X73310Y153920D01*
X74239Y153735D01*
X75168Y153920D01*
X75956Y154446D01*
X76482Y155234D01*
X76667Y156163D01*
X76482Y157092D01*
X75956Y157880D01*
X75168Y158406D01*
X74239Y158591D01*
D02*
G37*
G36*
X59939Y158691D02*
X59010Y158506D01*
X58223Y157980D01*
X57696Y157192D01*
X57512Y156263D01*
X57696Y155334D01*
X58223Y154546D01*
X59010Y154020D01*
X59939Y153835D01*
X60868Y154020D01*
X61656Y154546D01*
X62182Y155334D01*
X62367Y156263D01*
X62182Y157192D01*
X61656Y157980D01*
X60868Y158506D01*
X59939Y158691D01*
D02*
G37*
G36*
X66739Y158491D02*
X65810Y158306D01*
X65023Y157780D01*
X64496Y156992D01*
X64312Y156063D01*
X64496Y155134D01*
X65023Y154346D01*
X65810Y153820D01*
X66739Y153635D01*
X67668Y153820D01*
X68456Y154346D01*
X68982Y155134D01*
X69167Y156063D01*
X68982Y156992D01*
X68456Y157780D01*
X67668Y158306D01*
X66739Y158491D01*
D02*
G37*
G36*
X30700Y147928D02*
X29771Y147743D01*
X28983Y147217D01*
X28457Y146429D01*
X28272Y145500D01*
X28457Y144571D01*
X28983Y143783D01*
X29771Y143257D01*
X30700Y143072D01*
X31629Y143257D01*
X32417Y143783D01*
X32943Y144571D01*
X33128Y145500D01*
X32943Y146429D01*
X32417Y147217D01*
X31629Y147743D01*
X30700Y147928D01*
D02*
G37*
G36*
X226000Y149428D02*
X225071Y149243D01*
X224283Y148717D01*
X223757Y147929D01*
X223572Y147000D01*
X223757Y146071D01*
X224283Y145283D01*
X225071Y144757D01*
X226000Y144572D01*
X226929Y144757D01*
X227717Y145283D01*
X228243Y146071D01*
X228428Y147000D01*
X228243Y147929D01*
X227717Y148717D01*
X226929Y149243D01*
X226000Y149428D01*
D02*
G37*
G36*
X160136Y97618D02*
X159207Y97433D01*
X158420Y96906D01*
X157893Y96119D01*
X157709Y95190D01*
X157893Y94261D01*
X158420Y93473D01*
X159207Y92947D01*
X160136Y92762D01*
X161065Y92947D01*
X161853Y93473D01*
X162379Y94261D01*
X162564Y95190D01*
X162379Y96119D01*
X161853Y96906D01*
X161065Y97433D01*
X160136Y97618D01*
D02*
G37*
G36*
X74142Y98044D02*
X73213Y97860D01*
X72425Y97333D01*
X71899Y96546D01*
X71714Y95617D01*
X71899Y94687D01*
X72425Y93900D01*
X73213Y93374D01*
X74142Y93189D01*
X75071Y93374D01*
X75858Y93900D01*
X76385Y94687D01*
X76569Y95617D01*
X76385Y96546D01*
X75858Y97333D01*
X75071Y97860D01*
X74142Y98044D01*
D02*
G37*
G36*
X246300Y94428D02*
X245371Y94243D01*
X244583Y93717D01*
X244057Y92929D01*
X243872Y92000D01*
X244057Y91071D01*
X244583Y90283D01*
X245371Y89757D01*
X246300Y89572D01*
X247229Y89757D01*
X248017Y90283D01*
X248543Y91071D01*
X248728Y92000D01*
X248543Y92929D01*
X248017Y93717D01*
X247229Y94243D01*
X246300Y94428D01*
D02*
G37*
G36*
X74016Y86441D02*
X73296Y86346D01*
X72626Y86069D01*
X72244Y85776D01*
X71862Y86069D01*
X71192Y86346D01*
X70472Y86441D01*
X69753Y86346D01*
X69083Y86069D01*
X68701Y85776D01*
X68319Y86069D01*
X67649Y86346D01*
X66929Y86441D01*
X66210Y86346D01*
X65539Y86069D01*
X65158Y85776D01*
X64776Y86069D01*
X64105Y86346D01*
X63386Y86441D01*
X62666Y86346D01*
X61996Y86069D01*
X61614Y85776D01*
X61232Y86069D01*
X60562Y86346D01*
X59842Y86441D01*
X59123Y86346D01*
X58453Y86069D01*
X57877Y85627D01*
X57435Y85051D01*
X57158Y84381D01*
X57063Y83661D01*
X57158Y82942D01*
X57235Y82755D01*
X56681Y82525D01*
X56105Y82084D01*
X55664Y81508D01*
X55386Y80838D01*
X55291Y80118D01*
X55386Y79399D01*
X55664Y78728D01*
X56105Y78153D01*
X56681Y77711D01*
X57048Y77559D01*
X57158Y77294D01*
X57063Y76575D01*
X57158Y75855D01*
X57235Y75668D01*
X56681Y75439D01*
X56105Y74997D01*
X55664Y74421D01*
X55386Y73751D01*
X55291Y73032D01*
X55386Y72312D01*
X55664Y71642D01*
X56105Y71066D01*
X56681Y70624D01*
X57048Y70472D01*
X57158Y70208D01*
X57063Y69488D01*
X57158Y68769D01*
X57048Y68504D01*
X56681Y68352D01*
X56105Y67910D01*
X55664Y67335D01*
X55386Y66664D01*
X55291Y65945D01*
X55386Y65225D01*
X55664Y64555D01*
X56105Y63979D01*
X56681Y63538D01*
X57351Y63260D01*
X58071Y63165D01*
X58790Y63260D01*
X59461Y63538D01*
X59842Y63831D01*
X60224Y63538D01*
X60895Y63260D01*
X61614Y63165D01*
X62334Y63260D01*
X63004Y63538D01*
X63386Y63831D01*
X63768Y63538D01*
X64438Y63260D01*
X65158Y63165D01*
X65877Y63260D01*
X66547Y63538D01*
X66929Y63831D01*
X67311Y63538D01*
X67981Y63260D01*
X68701Y63165D01*
X69420Y63260D01*
X70091Y63538D01*
X70472Y63831D01*
X70854Y63538D01*
X71525Y63260D01*
X72244Y63165D01*
X72964Y63260D01*
X73634Y63538D01*
X74016Y63831D01*
X74398Y63538D01*
X75068Y63260D01*
X75787Y63165D01*
X76507Y63260D01*
X77177Y63538D01*
X77753Y63979D01*
X78195Y64555D01*
X78472Y65225D01*
X78567Y65945D01*
X78472Y66664D01*
X78195Y67335D01*
X77753Y67910D01*
X77177Y68352D01*
X76623Y68582D01*
X76701Y68769D01*
X76795Y69488D01*
X76701Y70208D01*
X76810Y70472D01*
X77177Y70624D01*
X77753Y71066D01*
X78195Y71642D01*
X78472Y72312D01*
X78567Y73032D01*
X78472Y73751D01*
X78195Y74421D01*
X77753Y74997D01*
X77177Y75439D01*
X76810Y75591D01*
X76701Y75855D01*
X76795Y76575D01*
X76701Y77294D01*
X76810Y77559D01*
X77177Y77711D01*
X77753Y78153D01*
X78195Y78728D01*
X78472Y79399D01*
X78567Y80118D01*
X78472Y80838D01*
X78195Y81508D01*
X77753Y82084D01*
X77177Y82525D01*
X76623Y82755D01*
X76701Y82942D01*
X76795Y83661D01*
X76701Y84381D01*
X76423Y85051D01*
X75981Y85627D01*
X75406Y86069D01*
X74735Y86346D01*
X74016Y86441D01*
D02*
G37*
G36*
X184252D02*
X183533Y86346D01*
X182862Y86069D01*
X182480Y85776D01*
X182098Y86069D01*
X181428Y86346D01*
X180709Y86441D01*
X179989Y86346D01*
X179319Y86069D01*
X178937Y85776D01*
X178555Y86069D01*
X177885Y86346D01*
X177165Y86441D01*
X176446Y86346D01*
X175776Y86069D01*
X175394Y85776D01*
X175012Y86069D01*
X174341Y86346D01*
X173622Y86441D01*
X172903Y86346D01*
X172232Y86069D01*
X171850Y85776D01*
X171469Y86069D01*
X170798Y86346D01*
X170079Y86441D01*
X169359Y86346D01*
X168689Y86069D01*
X168113Y85627D01*
X167672Y85051D01*
X167394Y84381D01*
X167299Y83661D01*
X167394Y82942D01*
X167471Y82755D01*
X166917Y82525D01*
X166342Y82084D01*
X165900Y81508D01*
X165622Y80838D01*
X165527Y80118D01*
X165622Y79399D01*
X165900Y78728D01*
X166342Y78153D01*
X166917Y77711D01*
X167284Y77559D01*
X167394Y77294D01*
X167299Y76575D01*
X167394Y75855D01*
X167471Y75668D01*
X166917Y75439D01*
X166342Y74997D01*
X165900Y74421D01*
X165622Y73751D01*
X165527Y73032D01*
X165622Y72312D01*
X165900Y71642D01*
X166342Y71066D01*
X166917Y70624D01*
X167284Y70472D01*
X167394Y70208D01*
X167299Y69488D01*
X167394Y68769D01*
X167284Y68504D01*
X166917Y68352D01*
X166342Y67910D01*
X165900Y67335D01*
X165622Y66664D01*
X165527Y65945D01*
X165622Y65225D01*
X165900Y64555D01*
X166342Y63979D01*
X166917Y63538D01*
X167588Y63260D01*
X168307Y63165D01*
X169027Y63260D01*
X169697Y63538D01*
X170079Y63831D01*
X170460Y63538D01*
X171131Y63260D01*
X171850Y63165D01*
X172570Y63260D01*
X173240Y63538D01*
X173622Y63831D01*
X174004Y63538D01*
X174674Y63260D01*
X175394Y63165D01*
X176113Y63260D01*
X176784Y63538D01*
X177165Y63831D01*
X177547Y63538D01*
X178218Y63260D01*
X178937Y63165D01*
X179656Y63260D01*
X180327Y63538D01*
X180709Y63831D01*
X181090Y63538D01*
X181761Y63260D01*
X182480Y63165D01*
X183200Y63260D01*
X183870Y63538D01*
X184252Y63831D01*
X184634Y63538D01*
X185304Y63260D01*
X186024Y63165D01*
X186743Y63260D01*
X187414Y63538D01*
X187989Y63979D01*
X188431Y64555D01*
X188709Y65225D01*
X188803Y65945D01*
X188709Y66664D01*
X188431Y67335D01*
X187989Y67910D01*
X187414Y68352D01*
X187047Y68504D01*
X186937Y68769D01*
X187032Y69488D01*
X186937Y70208D01*
X187047Y70472D01*
X187414Y70624D01*
X187989Y71066D01*
X188431Y71642D01*
X188709Y72312D01*
X188803Y73032D01*
X188709Y73751D01*
X188431Y74421D01*
X187989Y74997D01*
X187414Y75439D01*
X186859Y75668D01*
X186937Y75855D01*
X187032Y76575D01*
X186937Y77294D01*
X187047Y77559D01*
X187414Y77711D01*
X187989Y78153D01*
X188431Y78728D01*
X188709Y79399D01*
X188803Y80118D01*
X188709Y80838D01*
X188431Y81508D01*
X187989Y82084D01*
X187414Y82525D01*
X186859Y82755D01*
X186937Y82942D01*
X187032Y83661D01*
X186937Y84381D01*
X186659Y85051D01*
X186217Y85627D01*
X185642Y86069D01*
X184971Y86346D01*
X184252Y86441D01*
D02*
G37*
G36*
X73500Y108997D02*
X72571Y108812D01*
X71783Y108286D01*
X71257Y107498D01*
X71072Y106569D01*
X71257Y105640D01*
X71783Y104853D01*
X72571Y104326D01*
X73500Y104141D01*
X74429Y104326D01*
X75217Y104853D01*
X75743Y105640D01*
X75928Y106569D01*
X75743Y107498D01*
X75217Y108286D01*
X74429Y108812D01*
X73500Y108997D01*
D02*
G37*
G36*
X183021Y109332D02*
X182092Y109147D01*
X181305Y108621D01*
X180778Y107833D01*
X180594Y106904D01*
X180778Y105975D01*
X181305Y105187D01*
X182092Y104661D01*
X183021Y104476D01*
X183950Y104661D01*
X184738Y105187D01*
X185264Y105975D01*
X185449Y106904D01*
X185264Y107833D01*
X184738Y108621D01*
X183950Y109147D01*
X183021Y109332D01*
D02*
G37*
G36*
X66100Y108997D02*
X65171Y108812D01*
X64383Y108286D01*
X63857Y107498D01*
X63672Y106569D01*
X63857Y105640D01*
X64383Y104853D01*
X65171Y104326D01*
X66100Y104141D01*
X67029Y104326D01*
X67817Y104853D01*
X68343Y105640D01*
X68528Y106569D01*
X68343Y107498D01*
X67817Y108286D01*
X67029Y108812D01*
X66100Y108997D01*
D02*
G37*
G36*
X184378Y98044D02*
X183449Y97860D01*
X182661Y97333D01*
X182135Y96546D01*
X181950Y95617D01*
X182135Y94687D01*
X182661Y93900D01*
X183449Y93374D01*
X184378Y93189D01*
X185307Y93374D01*
X186095Y93900D01*
X186621Y94687D01*
X186806Y95617D01*
X186621Y96546D01*
X186095Y97333D01*
X185307Y97860D01*
X184378Y98044D01*
D02*
G37*
G36*
X59300Y108997D02*
X58371Y108812D01*
X57583Y108286D01*
X57057Y107498D01*
X56872Y106569D01*
X57057Y105640D01*
X57583Y104853D01*
X58371Y104326D01*
X59300Y104141D01*
X60229Y104326D01*
X61017Y104853D01*
X61543Y105640D01*
X61728Y106569D01*
X61543Y107498D01*
X61017Y108286D01*
X60229Y108812D01*
X59300Y108997D01*
D02*
G37*
G36*
X175000Y162228D02*
X174071Y162043D01*
X173283Y161517D01*
X172757Y160729D01*
X172572Y159800D01*
X172757Y158871D01*
X173283Y158083D01*
X174071Y157557D01*
X175000Y157372D01*
X175929Y157557D01*
X176717Y158083D01*
X177243Y158871D01*
X177428Y159800D01*
X177243Y160729D01*
X176717Y161517D01*
X175929Y162043D01*
X175000Y162228D01*
D02*
G37*
G36*
X45929Y199291D02*
X45000Y199106D01*
X44212Y198580D01*
X43686Y197792D01*
X43501Y196863D01*
X43686Y195934D01*
X44212Y195147D01*
Y194930D01*
X43686Y194142D01*
X43501Y193213D01*
X43686Y192284D01*
X44212Y191497D01*
X45000Y190970D01*
X45929Y190786D01*
X46858Y190970D01*
X47646Y191497D01*
X48172Y192284D01*
X48357Y193213D01*
X48172Y194142D01*
X47646Y194930D01*
Y195147D01*
X48172Y195934D01*
X48357Y196863D01*
X48172Y197792D01*
X47646Y198580D01*
X46858Y199106D01*
X45929Y199291D01*
D02*
G37*
G36*
X101261Y197828D02*
X100332Y197643D01*
X99544Y197117D01*
X99018Y196329D01*
X98833Y195400D01*
X99018Y194471D01*
X99544Y193683D01*
X100332Y193157D01*
X101261Y192972D01*
X102190Y193157D01*
X102977Y193683D01*
X103504Y194471D01*
X103688Y195400D01*
X103504Y196329D01*
X102977Y197117D01*
X102190Y197643D01*
X101261Y197828D01*
D02*
G37*
G36*
X110361Y193328D02*
X109432Y193143D01*
X108644Y192617D01*
X108118Y191829D01*
X107933Y190900D01*
X108118Y189971D01*
X108644Y189183D01*
X109432Y188657D01*
X110361Y188472D01*
X111290Y188657D01*
X112077Y189183D01*
X112604Y189971D01*
X112788Y190900D01*
X112604Y191829D01*
X112077Y192617D01*
X111290Y193143D01*
X110361Y193328D01*
D02*
G37*
G36*
X33917Y188228D02*
X32987Y188043D01*
X32200Y187517D01*
X31674Y186729D01*
X31489Y185800D01*
X31674Y184871D01*
X32200Y184083D01*
X32987Y183557D01*
X33917Y183372D01*
X34846Y183557D01*
X35633Y184083D01*
X36160Y184871D01*
X36344Y185800D01*
X36160Y186729D01*
X35633Y187517D01*
X34846Y188043D01*
X33917Y188228D01*
D02*
G37*
G36*
X95900Y188328D02*
X94971Y188143D01*
X94183Y187617D01*
X93657Y186829D01*
X93472Y185900D01*
X93657Y184971D01*
X94183Y184183D01*
X94971Y183657D01*
X95900Y183472D01*
X96829Y183657D01*
X97617Y184183D01*
X98143Y184971D01*
X98328Y185900D01*
X98143Y186829D01*
X97617Y187617D01*
X96829Y188143D01*
X95900Y188328D01*
D02*
G37*
G36*
X36911Y203928D02*
X35982Y203743D01*
X35194Y203217D01*
X34668Y202429D01*
X34483Y201500D01*
X34668Y200571D01*
X35194Y199783D01*
X35982Y199257D01*
X36911Y199072D01*
X37649Y199219D01*
X37927Y198803D01*
X37677Y198429D01*
X37492Y197500D01*
X37677Y196571D01*
X38203Y195783D01*
X38990Y195257D01*
X39919Y195072D01*
X40848Y195257D01*
X41636Y195783D01*
X42162Y196571D01*
X42347Y197500D01*
X42162Y198429D01*
X41636Y199217D01*
X40848Y199743D01*
X39919Y199928D01*
X39181Y199781D01*
X38903Y200197D01*
X39154Y200571D01*
X39338Y201500D01*
X39154Y202429D01*
X38627Y203217D01*
X37840Y203743D01*
X36911Y203928D01*
D02*
G37*
G36*
X87129Y201741D02*
X86200Y201556D01*
X85413Y201030D01*
X84886Y200242D01*
X84701Y199313D01*
X84886Y198384D01*
X85413Y197597D01*
X86200Y197070D01*
X87129Y196886D01*
X88058Y197070D01*
X88846Y197597D01*
X89372Y198384D01*
X89557Y199313D01*
X89372Y200242D01*
X88846Y201030D01*
X88058Y201556D01*
X87129Y201741D01*
D02*
G37*
G36*
X150175Y199393D02*
X149246Y199208D01*
X148458Y198682D01*
X147932Y197895D01*
X147747Y196966D01*
X147932Y196036D01*
X148458Y195249D01*
X149246Y194722D01*
X150175Y194538D01*
X151104Y194722D01*
X151891Y195249D01*
X152418Y196036D01*
X152603Y196966D01*
X152418Y197895D01*
X151891Y198682D01*
X151104Y199208D01*
X150175Y199393D01*
D02*
G37*
G36*
X92000Y198528D02*
X91071Y198343D01*
X90283Y197817D01*
X89757Y197029D01*
X89572Y196100D01*
X89757Y195171D01*
X90283Y194383D01*
X91071Y193857D01*
X92000Y193672D01*
X92929Y193857D01*
X93717Y194383D01*
X94243Y195171D01*
X94428Y196100D01*
X94243Y197029D01*
X93717Y197817D01*
X92929Y198343D01*
X92000Y198528D01*
D02*
G37*
G36*
X155665Y199291D02*
X154736Y199106D01*
X153949Y198580D01*
X153422Y197792D01*
X153238Y196863D01*
X153422Y195934D01*
X153949Y195147D01*
X154736Y194620D01*
X155665Y194436D01*
X156594Y194620D01*
X157382Y195147D01*
X157908Y195934D01*
X158093Y196863D01*
X157908Y197792D01*
X157382Y198580D01*
X156594Y199106D01*
X155665Y199291D01*
D02*
G37*
G36*
X182677Y174441D02*
X181748Y174256D01*
X180961Y173730D01*
X180434Y172942D01*
X180249Y172013D01*
X180434Y171084D01*
X180961Y170297D01*
X181748Y169770D01*
X182677Y169586D01*
X183606Y169770D01*
X184394Y170297D01*
X184920Y171084D01*
X185105Y172013D01*
X184920Y172942D01*
X184394Y173730D01*
X183606Y174256D01*
X182677Y174441D01*
D02*
G37*
G36*
X100329Y176428D02*
X99400Y176243D01*
X98612Y175717D01*
X98086Y174929D01*
X97901Y174000D01*
X98086Y173071D01*
X98612Y172283D01*
X99400Y171757D01*
X100329Y171572D01*
X101258Y171757D01*
X102046Y172283D01*
X102572Y173071D01*
X102757Y174000D01*
X102572Y174929D01*
X102046Y175717D01*
X101258Y176243D01*
X100329Y176428D01*
D02*
G37*
G36*
X72441Y174441D02*
X71512Y174256D01*
X70724Y173730D01*
X70198Y172942D01*
X70013Y172013D01*
X70198Y171084D01*
X70724Y170297D01*
X71512Y169770D01*
X72441Y169586D01*
X73370Y169770D01*
X74158Y170297D01*
X74684Y171084D01*
X74869Y172013D01*
X74684Y172942D01*
X74158Y173730D01*
X73370Y174256D01*
X72441Y174441D01*
D02*
G37*
G36*
X182000Y162328D02*
X181071Y162143D01*
X180283Y161617D01*
X179757Y160829D01*
X179572Y159900D01*
X179757Y158971D01*
X180283Y158183D01*
X181071Y157657D01*
X182000Y157472D01*
X182929Y157657D01*
X183717Y158183D01*
X184243Y158971D01*
X184428Y159900D01*
X184243Y160829D01*
X183717Y161617D01*
X182929Y162143D01*
X182000Y162328D01*
D02*
G37*
G36*
X167900Y162428D02*
X166971Y162243D01*
X166183Y161717D01*
X165657Y160929D01*
X165472Y160000D01*
X165657Y159071D01*
X166183Y158283D01*
X166971Y157757D01*
X167900Y157572D01*
X168829Y157757D01*
X169617Y158283D01*
X170143Y159071D01*
X170328Y160000D01*
X170143Y160929D01*
X169617Y161717D01*
X168829Y162243D01*
X167900Y162428D01*
D02*
G37*
G36*
X146392Y185928D02*
X145463Y185743D01*
X144676Y185217D01*
X144149Y184429D01*
X143964Y183500D01*
X144149Y182571D01*
X144676Y181783D01*
X145463Y181257D01*
X146392Y181072D01*
X147321Y181257D01*
X148109Y181783D01*
X148635Y182571D01*
X148820Y183500D01*
X148635Y184429D01*
X148109Y185217D01*
X147321Y185743D01*
X146392Y185928D01*
D02*
G37*
G36*
X87129Y190341D02*
X86200Y190156D01*
X85413Y189630D01*
X84886Y188842D01*
X84701Y187913D01*
X84886Y186984D01*
X85413Y186197D01*
X86200Y185670D01*
X86629Y185585D01*
Y185085D01*
X85800Y184920D01*
X85013Y184394D01*
X84486Y183606D01*
X84301Y182677D01*
X84381Y182276D01*
X84028Y181922D01*
X84000Y181928D01*
X83071Y181743D01*
X82283Y181217D01*
X81757Y180429D01*
X81572Y179500D01*
X81757Y178571D01*
X82283Y177783D01*
X83071Y177257D01*
X84000Y177072D01*
X84929Y177257D01*
X85717Y177783D01*
X85718Y177786D01*
X103139D01*
X103632Y177457D01*
X104561Y177272D01*
X105490Y177457D01*
X106277Y177983D01*
X106804Y178771D01*
X106988Y179700D01*
X106804Y180629D01*
X106277Y181417D01*
X105490Y181943D01*
X104561Y182128D01*
X103632Y181943D01*
X102844Y181417D01*
X102708Y181214D01*
X89146D01*
X88910Y181655D01*
X88972Y181748D01*
X89157Y182677D01*
X88972Y183606D01*
X88446Y184394D01*
X87658Y184920D01*
X87229Y185005D01*
Y185505D01*
X88058Y185670D01*
X88846Y186197D01*
X89372Y186984D01*
X89557Y187913D01*
X89372Y188842D01*
X88846Y189630D01*
X88058Y190156D01*
X87129Y190341D01*
D02*
G37*
G36*
X214000Y186628D02*
X213071Y186443D01*
X212283Y185917D01*
X211757Y185129D01*
X211572Y184200D01*
X211757Y183271D01*
X212283Y182483D01*
X213071Y181957D01*
X213217Y181928D01*
X213242Y181800D01*
X212925Y181414D01*
X202700D01*
X202044Y181284D01*
X201488Y180912D01*
X192003Y171427D01*
X192000Y171428D01*
X191071Y171243D01*
X190283Y170717D01*
X189757Y169929D01*
X189572Y169000D01*
X189757Y168071D01*
X190283Y167283D01*
X191071Y166757D01*
X192000Y166572D01*
X192929Y166757D01*
X193717Y167283D01*
X194243Y168071D01*
X194428Y169000D01*
X194427Y169003D01*
X203410Y177986D01*
X213282D01*
X213283Y177983D01*
X214071Y177457D01*
X215000Y177272D01*
X215929Y177457D01*
X216717Y177983D01*
X217243Y178771D01*
X217428Y179700D01*
X217243Y180629D01*
X216717Y181417D01*
X215929Y181943D01*
X215783Y181972D01*
X215685Y182462D01*
X215717Y182483D01*
X216243Y183271D01*
X216428Y184200D01*
X216243Y185129D01*
X215717Y185917D01*
X214929Y186443D01*
X214000Y186628D01*
D02*
G37*
G36*
X209968Y176628D02*
X209039Y176443D01*
X208252Y175917D01*
X207726Y175129D01*
X207541Y174200D01*
X207726Y173271D01*
X208252Y172483D01*
X209039Y171957D01*
X209968Y171772D01*
X210898Y171957D01*
X211685Y172483D01*
X212211Y173271D01*
X212396Y174200D01*
X212211Y175129D01*
X211685Y175917D01*
X210898Y176443D01*
X209968Y176628D01*
D02*
G37*
G36*
X293000Y181603D02*
X292326Y181515D01*
X291698Y181255D01*
X291159Y180841D01*
X290745Y180302D01*
X290485Y179674D01*
X290397Y179000D01*
X290485Y178326D01*
X290745Y177698D01*
X291159Y177159D01*
X291698Y176745D01*
X292326Y176485D01*
X293000Y176397D01*
X293674Y176485D01*
X294302Y176745D01*
X294841Y177159D01*
X295255Y177698D01*
X295515Y178326D01*
X295603Y179000D01*
X295515Y179674D01*
X295255Y180302D01*
X294841Y180841D01*
X294302Y181255D01*
X293674Y181515D01*
X293000Y181603D01*
D02*
G37*
G36*
X199000Y59103D02*
X198326Y59015D01*
X197698Y58755D01*
X197159Y58341D01*
X196745Y57802D01*
X196485Y57174D01*
X196397Y56500D01*
X196485Y55826D01*
X196745Y55198D01*
X197159Y54659D01*
X197698Y54245D01*
X198326Y53985D01*
X199000Y53897D01*
X199674Y53985D01*
X200302Y54245D01*
X200841Y54659D01*
X201255Y55198D01*
X201515Y55826D01*
X201603Y56500D01*
X201515Y57174D01*
X201255Y57802D01*
X200841Y58341D01*
X200302Y58755D01*
X199674Y59015D01*
X199000Y59103D01*
D02*
G37*
G36*
X269800Y69828D02*
X268871Y69643D01*
X268083Y69117D01*
X267557Y68329D01*
X267372Y67400D01*
X267557Y66471D01*
X268083Y65683D01*
X268086Y65682D01*
Y62718D01*
X268083Y62717D01*
X267557Y61929D01*
X267372Y61000D01*
X267557Y60071D01*
X268083Y59283D01*
X268871Y58757D01*
X269800Y58572D01*
X270729Y58757D01*
X271517Y59283D01*
X272043Y60071D01*
X272228Y61000D01*
X272043Y61929D01*
X271517Y62717D01*
X271514Y62718D01*
Y65682D01*
X271517Y65683D01*
X272043Y66471D01*
X272228Y67400D01*
X272043Y68329D01*
X271517Y69117D01*
X270729Y69643D01*
X269800Y69828D01*
D02*
G37*
G36*
X210068Y57628D02*
X209139Y57443D01*
X208352Y56917D01*
X207826Y56129D01*
X207641Y55200D01*
X207826Y54271D01*
X208352Y53483D01*
X209139Y52957D01*
X210068Y52772D01*
X210998Y52957D01*
X211785Y53483D01*
X212312Y54271D01*
X212496Y55200D01*
X212312Y56129D01*
X211785Y56917D01*
X210998Y57443D01*
X210068Y57628D01*
D02*
G37*
G36*
X182677Y56331D02*
X181748Y56146D01*
X180961Y55620D01*
X180434Y54832D01*
X180249Y53903D01*
X180434Y52974D01*
X180961Y52187D01*
X181748Y51660D01*
X182677Y51475D01*
X183606Y51660D01*
X184394Y52187D01*
X184920Y52974D01*
X185105Y53903D01*
X184920Y54832D01*
X184394Y55620D01*
X183606Y56146D01*
X182677Y56331D01*
D02*
G37*
G36*
X100169Y57528D02*
X99239Y57343D01*
X98452Y56817D01*
X97926Y56029D01*
X97741Y55100D01*
X97926Y54171D01*
X98452Y53383D01*
X99239Y52857D01*
X100169Y52672D01*
X101098Y52857D01*
X101885Y53383D01*
X102411Y54171D01*
X102596Y55100D01*
X102411Y56029D01*
X101885Y56817D01*
X101098Y57343D01*
X100169Y57528D01*
D02*
G37*
G36*
X146532Y68228D02*
X145603Y68043D01*
X144816Y67517D01*
X144289Y66729D01*
X144105Y65800D01*
X144289Y64871D01*
X144816Y64083D01*
X145603Y63557D01*
X146532Y63372D01*
X147461Y63557D01*
X148249Y64083D01*
X148775Y64871D01*
X148960Y65800D01*
X148775Y66729D01*
X148249Y67517D01*
X147461Y68043D01*
X146532Y68228D01*
D02*
G37*
G36*
X275600Y69228D02*
X274671Y69043D01*
X273883Y68517D01*
X273357Y67729D01*
X273172Y66800D01*
X273357Y65871D01*
X273883Y65083D01*
X274671Y64557D01*
X275600Y64372D01*
X276529Y64557D01*
X277317Y65083D01*
X277843Y65871D01*
X278028Y66800D01*
X277843Y67729D01*
X277317Y68517D01*
X276529Y69043D01*
X275600Y69228D01*
D02*
G37*
G36*
X197365Y72231D02*
X196436Y72046D01*
X195649Y71520D01*
X195122Y70732D01*
X194938Y69803D01*
X195122Y68874D01*
X195649Y68086D01*
X196436Y67560D01*
X196865Y67475D01*
Y66975D01*
X196036Y66810D01*
X195249Y66284D01*
X194722Y65496D01*
X194538Y64567D01*
X194722Y63638D01*
X195249Y62850D01*
X196036Y62324D01*
X196965Y62139D01*
X197894Y62324D01*
X198682Y62850D01*
X199208Y63638D01*
X199393Y64567D01*
X199208Y65496D01*
X198682Y66284D01*
X197894Y66810D01*
X197465Y66895D01*
Y67395D01*
X198294Y67560D01*
X199082Y68086D01*
X199608Y68874D01*
X199793Y69803D01*
X199608Y70732D01*
X199082Y71520D01*
X198294Y72046D01*
X197365Y72231D01*
D02*
G37*
G36*
X86229Y66995D02*
X85300Y66810D01*
X84513Y66284D01*
X83986Y65496D01*
X83903Y65080D01*
X74734Y55910D01*
X73723D01*
X73370Y56146D01*
X72441Y56331D01*
X71512Y56146D01*
X70724Y55620D01*
X70198Y54832D01*
X70013Y53903D01*
X70198Y52974D01*
X70724Y52187D01*
X71512Y51660D01*
X72441Y51475D01*
X73370Y51660D01*
X73723Y51896D01*
X75403D01*
X76171Y52049D01*
X76268Y52113D01*
X76430Y52146D01*
X77081Y52581D01*
X81528Y57028D01*
X82002Y56867D01*
X82005Y56846D01*
X82265Y56218D01*
X82679Y55678D01*
X83218Y55265D01*
X83846Y55005D01*
X84519Y54916D01*
X85193Y55005D01*
X85821Y55265D01*
X86360Y55678D01*
X86774Y56218D01*
X87034Y56846D01*
X87123Y57519D01*
X87103Y57669D01*
X88126Y58509D01*
X89562Y59276D01*
X91121Y59749D01*
X92665Y59901D01*
X92742Y59886D01*
X102981D01*
X102983Y59883D01*
X103771Y59357D01*
X104700Y59172D01*
X105629Y59357D01*
X106417Y59883D01*
X106943Y60671D01*
X107128Y61600D01*
X106943Y62529D01*
X106417Y63317D01*
X105629Y63843D01*
X104700Y64028D01*
X103771Y63843D01*
X102983Y63317D01*
X102981Y63314D01*
X92742D01*
Y63317D01*
X90909Y63173D01*
X89121Y62744D01*
X87966Y62265D01*
X87730Y62706D01*
X87946Y62850D01*
X88472Y63638D01*
X88657Y64567D01*
X88472Y65496D01*
X87946Y66284D01*
X87158Y66810D01*
X86229Y66995D01*
D02*
G37*
G36*
X214600Y64128D02*
X213671Y63943D01*
X212883Y63417D01*
X212357Y62629D01*
X212172Y61700D01*
X212357Y60771D01*
X212883Y59983D01*
X213671Y59457D01*
X214600Y59272D01*
X215529Y59457D01*
X216317Y59983D01*
X216843Y60771D01*
X217028Y61700D01*
X216843Y62629D01*
X216317Y63417D01*
X215529Y63943D01*
X214600Y64128D01*
D02*
G37*
G36*
X66100Y43954D02*
X65171Y43769D01*
X64383Y43243D01*
X63857Y42455D01*
X63672Y41526D01*
X63857Y40597D01*
X64383Y39809D01*
X65171Y39283D01*
X66100Y39098D01*
X67029Y39283D01*
X67817Y39809D01*
X68343Y40597D01*
X68528Y41526D01*
X68343Y42455D01*
X67817Y43243D01*
X67029Y43769D01*
X66100Y43954D01*
D02*
G37*
G36*
X175900D02*
X174971Y43769D01*
X174183Y43243D01*
X173657Y42455D01*
X173472Y41526D01*
X173657Y40597D01*
X174183Y39809D01*
X174971Y39283D01*
X175900Y39098D01*
X176829Y39283D01*
X177617Y39809D01*
X178143Y40597D01*
X178328Y41526D01*
X178143Y42455D01*
X177617Y43243D01*
X176829Y43769D01*
X175900Y43954D01*
D02*
G37*
G36*
X96571Y19032D02*
X95897Y18944D01*
X95269Y18684D01*
X94730Y18270D01*
X94633Y18143D01*
X90938D01*
X90841Y18270D01*
X90302Y18684D01*
X89674Y18944D01*
X89000Y19032D01*
X88326Y18944D01*
X87698Y18684D01*
X87159Y18270D01*
X86745Y17731D01*
X86485Y17103D01*
X86397Y16429D01*
X86485Y15755D01*
X86745Y15127D01*
X87159Y14588D01*
X87698Y14174D01*
X88326Y13914D01*
X89000Y13826D01*
X89674Y13914D01*
X90302Y14174D01*
X90841Y14588D01*
X90938Y14715D01*
X94633D01*
X94730Y14588D01*
X95269Y14174D01*
X95897Y13914D01*
X96571Y13826D01*
X97245Y13914D01*
X97873Y14174D01*
X98412Y14588D01*
X98826Y15127D01*
X99086Y15755D01*
X99174Y16429D01*
X99086Y17103D01*
X98826Y17731D01*
X98412Y18270D01*
X97873Y18684D01*
X97245Y18944D01*
X96571Y19032D01*
D02*
G37*
G36*
X253223Y18536D02*
X252478Y18438D01*
X251783Y18150D01*
X251187Y17692D01*
X250730Y17096D01*
X250442Y16402D01*
X250344Y15657D01*
X250442Y14912D01*
X250730Y14217D01*
X251187Y13621D01*
X251783Y13163D01*
X252478Y12876D01*
X253223Y12778D01*
X253968Y12876D01*
X254662Y13163D01*
X255259Y13621D01*
X255716Y14217D01*
X256004Y14912D01*
X256102Y15657D01*
X256004Y16402D01*
X255716Y17096D01*
X255259Y17692D01*
X254662Y18150D01*
X253968Y18438D01*
X253223Y18536D01*
D02*
G37*
G36*
X268577D02*
X267832Y18438D01*
X267138Y18150D01*
X266541Y17692D01*
X266084Y17096D01*
X265796Y16402D01*
X265698Y15657D01*
X265796Y14912D01*
X266084Y14217D01*
X266541Y13621D01*
X267138Y13163D01*
X267832Y12876D01*
X268577Y12778D01*
X269322Y12876D01*
X270017Y13163D01*
X270613Y13621D01*
X271070Y14217D01*
X271358Y14912D01*
X271456Y15657D01*
X271358Y16402D01*
X271070Y17096D01*
X270613Y17692D01*
X270017Y18150D01*
X269322Y18438D01*
X268577Y18536D01*
D02*
G37*
G36*
X169100Y44154D02*
X168171Y43969D01*
X167383Y43443D01*
X166857Y42655D01*
X166672Y41726D01*
X166857Y40797D01*
X167383Y40009D01*
X168171Y39483D01*
X169100Y39298D01*
X170029Y39483D01*
X170817Y40009D01*
X171343Y40797D01*
X171528Y41726D01*
X171343Y42655D01*
X170817Y43443D01*
X170029Y43969D01*
X169100Y44154D01*
D02*
G37*
G36*
X293504Y50197D02*
X285236D01*
Y41929D01*
X293504D01*
Y50197D01*
D02*
G37*
G36*
X59300Y44154D02*
X58371Y43969D01*
X57583Y43443D01*
X57057Y42655D01*
X56872Y41726D01*
X57057Y40797D01*
X57583Y40009D01*
X58371Y39483D01*
X59300Y39298D01*
X60229Y39483D01*
X61017Y40009D01*
X61543Y40797D01*
X61728Y41726D01*
X61543Y42655D01*
X61017Y43443D01*
X60229Y43969D01*
X59300Y44154D01*
D02*
G37*
G36*
X73600Y44054D02*
X72671Y43869D01*
X71883Y43343D01*
X71357Y42555D01*
X71172Y41626D01*
X71357Y40697D01*
X71883Y39909D01*
X72671Y39383D01*
X73600Y39198D01*
X74529Y39383D01*
X75317Y39909D01*
X75843Y40697D01*
X76028Y41626D01*
X75843Y42555D01*
X75317Y43343D01*
X74529Y43869D01*
X73600Y44054D01*
D02*
G37*
G36*
X183400D02*
X182471Y43869D01*
X181683Y43343D01*
X181157Y42555D01*
X180972Y41626D01*
X181157Y40697D01*
X181683Y39909D01*
X182471Y39383D01*
X183400Y39198D01*
X184329Y39383D01*
X185117Y39909D01*
X185643Y40697D01*
X185828Y41626D01*
X185643Y42555D01*
X185117Y43343D01*
X184329Y43869D01*
X183400Y44054D01*
D02*
G37*
G36*
X205765Y70428D02*
X204836Y70243D01*
X204049Y69717D01*
X203522Y68929D01*
X203338Y68000D01*
X203522Y67071D01*
X204049Y66283D01*
X204836Y65757D01*
X204889Y65746D01*
X204921Y65726D01*
X205765Y65558D01*
X206610Y65726D01*
X206642Y65746D01*
X206694Y65757D01*
X207482Y66283D01*
X208008Y67071D01*
X208193Y68000D01*
X208008Y68929D01*
X207482Y69717D01*
X206694Y70243D01*
X205765Y70428D01*
D02*
G37*
G36*
X87129Y83631D02*
X86200Y83446D01*
X85413Y82920D01*
X84886Y82132D01*
X84701Y81203D01*
X84886Y80274D01*
X85413Y79487D01*
X86200Y78960D01*
X87129Y78775D01*
X88058Y78960D01*
X88846Y79487D01*
X89372Y80274D01*
X89557Y81203D01*
X89372Y82132D01*
X88846Y82920D01*
X88058Y83446D01*
X87129Y83631D01*
D02*
G37*
G36*
X197365D02*
X196436Y83446D01*
X195649Y82920D01*
X195122Y82132D01*
X194938Y81203D01*
X195122Y80274D01*
X195649Y79487D01*
X196436Y78960D01*
X197365Y78775D01*
X198294Y78960D01*
X199082Y79487D01*
X199608Y80274D01*
X199793Y81203D01*
X199608Y82132D01*
X199082Y82920D01*
X198294Y83446D01*
X197365Y83631D01*
D02*
G37*
G36*
X105000Y78928D02*
X104071Y78743D01*
X103283Y78217D01*
X102817D01*
X102029Y78743D01*
X101100Y78928D01*
X100171Y78743D01*
X99383Y78217D01*
X98857Y77429D01*
X98672Y76500D01*
X98857Y75571D01*
X99383Y74783D01*
X100171Y74257D01*
X101100Y74072D01*
X102029Y74257D01*
X102817Y74783D01*
X103283D01*
X104071Y74257D01*
X105000Y74072D01*
X105929Y74257D01*
X106717Y74783D01*
X107243Y75571D01*
X107428Y76500D01*
X107243Y77429D01*
X106717Y78217D01*
X105929Y78743D01*
X105000Y78928D01*
D02*
G37*
G36*
X202500Y80428D02*
X201571Y80243D01*
X200783Y79717D01*
X200257Y78929D01*
X200072Y78000D01*
X200257Y77071D01*
X200783Y76283D01*
X201571Y75757D01*
X202500Y75572D01*
X203429Y75757D01*
X204217Y76283D01*
X204743Y77071D01*
X204928Y78000D01*
X204743Y78929D01*
X204217Y79717D01*
X203429Y80243D01*
X202500Y80428D01*
D02*
G37*
G36*
X150175Y82103D02*
X149246Y81918D01*
X148458Y81391D01*
X147932Y80604D01*
X147747Y79675D01*
X147932Y78746D01*
X148458Y77958D01*
X149246Y77432D01*
X150175Y77247D01*
X151104Y77432D01*
X151891Y77958D01*
X152418Y78746D01*
X152603Y79675D01*
X152418Y80604D01*
X151891Y81391D01*
X151104Y81918D01*
X150175Y82103D01*
D02*
G37*
G36*
X101315Y87731D02*
X100386Y87546D01*
X99599Y87020D01*
X99072Y86232D01*
X98888Y85303D01*
X99072Y84374D01*
X99599Y83587D01*
X100386Y83060D01*
X101315Y82875D01*
X102244Y83060D01*
X103032Y83587D01*
X103558Y84374D01*
X103743Y85303D01*
X103558Y86232D01*
X103032Y87020D01*
X102244Y87546D01*
X101315Y87731D01*
D02*
G37*
G36*
X211215Y87831D02*
X210286Y87646D01*
X209499Y87120D01*
X208972Y86332D01*
X208788Y85403D01*
X208972Y84474D01*
X209499Y83687D01*
X210286Y83160D01*
X211215Y82975D01*
X212144Y83160D01*
X212932Y83687D01*
X213458Y84474D01*
X213643Y85403D01*
X213458Y86332D01*
X212932Y87120D01*
X212144Y87646D01*
X211215Y87831D01*
D02*
G37*
G36*
X147031Y86728D02*
X146102Y86543D01*
X145315Y86017D01*
X144789Y85229D01*
X144604Y84300D01*
X144789Y83371D01*
X145315Y82583D01*
X146102Y82057D01*
X147031Y81872D01*
X147960Y82057D01*
X148748Y82583D01*
X149274Y83371D01*
X149459Y84300D01*
X149274Y85229D01*
X148748Y86017D01*
X147960Y86543D01*
X147031Y86728D01*
D02*
G37*
G36*
X39919Y82047D02*
X38990Y81862D01*
X38203Y81336D01*
X38040Y81093D01*
X37550Y80995D01*
X37029Y81343D01*
X36100Y81528D01*
X35171Y81343D01*
X34383Y80817D01*
X33857Y80029D01*
X33672Y79100D01*
X33857Y78171D01*
X34383Y77383D01*
X35171Y76857D01*
X36100Y76672D01*
X37029Y76857D01*
X37817Y77383D01*
X37979Y77627D01*
X38470Y77724D01*
X38990Y77377D01*
X39919Y77192D01*
X40848Y77377D01*
X41636Y77903D01*
X42162Y78690D01*
X42347Y79619D01*
X42162Y80549D01*
X41636Y81336D01*
X40848Y81862D01*
X39919Y82047D01*
D02*
G37*
G36*
X284000Y85928D02*
X283071Y85743D01*
X282283Y85217D01*
X281757Y84429D01*
X281572Y83500D01*
X281757Y82571D01*
X282283Y81783D01*
X283071Y81257D01*
X284000Y81072D01*
X284929Y81257D01*
X285717Y81783D01*
X286243Y82571D01*
X286428Y83500D01*
X286243Y84429D01*
X285717Y85217D01*
X284929Y85743D01*
X284000Y85928D01*
D02*
G37*
G36*
X220100Y74528D02*
X219171Y74343D01*
X218383Y73817D01*
X217857Y73029D01*
X217672Y72100D01*
X217857Y71171D01*
X218383Y70383D01*
X219171Y69857D01*
X220100Y69672D01*
X221029Y69857D01*
X221817Y70383D01*
X222343Y71171D01*
X222528Y72100D01*
X222343Y73029D01*
X221817Y73817D01*
X221029Y74343D01*
X220100Y74528D01*
D02*
G37*
G36*
X281200Y74728D02*
X280271Y74543D01*
X279483Y74017D01*
X279482Y74014D01*
X262100D01*
X261444Y73884D01*
X260888Y73512D01*
X254570Y67194D01*
X254198Y66638D01*
X254068Y65982D01*
Y65900D01*
Y42718D01*
X254065Y42717D01*
X253539Y41929D01*
X253354Y41000D01*
X253539Y40071D01*
X254065Y39283D01*
X254853Y38757D01*
X255782Y38572D01*
X256711Y38757D01*
X257499Y39283D01*
X258025Y40071D01*
X258210Y41000D01*
X258025Y41929D01*
X257499Y42717D01*
X257496Y42718D01*
Y56444D01*
X257994Y56493D01*
X257994Y56493D01*
Y56493D01*
X258157Y55671D01*
X258683Y54883D01*
X259471Y54357D01*
X260400Y54172D01*
X261329Y54357D01*
X262117Y54883D01*
X262643Y55671D01*
X262828Y56600D01*
X262643Y57529D01*
X262117Y58317D01*
X261329Y58843D01*
X260400Y59028D01*
X259471Y58843D01*
X258683Y58317D01*
X258157Y57529D01*
X257994Y56707D01*
X257496Y56756D01*
Y65272D01*
X262810Y70586D01*
X279482D01*
X279483Y70583D01*
X280271Y70057D01*
X281200Y69872D01*
X282129Y70057D01*
X282917Y70583D01*
X283443Y71371D01*
X283628Y72300D01*
X283443Y73229D01*
X282917Y74017D01*
X282129Y74543D01*
X281200Y74728D01*
D02*
G37*
G36*
X87129Y72231D02*
X86200Y72046D01*
X85413Y71520D01*
X84886Y70732D01*
X84701Y69803D01*
X84886Y68874D01*
X85413Y68086D01*
X86200Y67560D01*
X87129Y67375D01*
X88058Y67560D01*
X88846Y68086D01*
X89372Y68874D01*
X89557Y69803D01*
X89372Y70732D01*
X88846Y71520D01*
X88058Y72046D01*
X87129Y72231D01*
D02*
G37*
G36*
X95529Y70428D02*
X94600Y70243D01*
X93812Y69717D01*
X93286Y68929D01*
X93101Y68000D01*
X93286Y67071D01*
X93812Y66283D01*
X94600Y65757D01*
X95529Y65572D01*
X96458Y65757D01*
X97246Y66283D01*
X97772Y67071D01*
X97957Y68000D01*
X97772Y68929D01*
X97246Y69717D01*
X96458Y70243D01*
X95529Y70428D01*
D02*
G37*
G36*
X34216Y70628D02*
X33288Y70443D01*
X32500Y69917D01*
X31974Y69129D01*
X31789Y68200D01*
X31974Y67271D01*
X32500Y66483D01*
X33288Y65957D01*
X34216Y65772D01*
X35146Y65957D01*
X35933Y66483D01*
X36459Y67271D01*
X36644Y68200D01*
X36459Y69129D01*
X35933Y69917D01*
X35146Y70443D01*
X34216Y70628D01*
D02*
G37*
G36*
X246400Y79428D02*
X245471Y79243D01*
X244683Y78717D01*
X244157Y77929D01*
X243972Y77000D01*
X244157Y76071D01*
X244683Y75283D01*
X245471Y74757D01*
X246400Y74572D01*
X247329Y74757D01*
X248117Y75283D01*
X248643Y76071D01*
X248828Y77000D01*
X248643Y77929D01*
X248117Y78717D01*
X247329Y79243D01*
X246400Y79428D01*
D02*
G37*
G36*
X92000Y80428D02*
X91071Y80243D01*
X90283Y79717D01*
X89757Y78929D01*
X89572Y78000D01*
X89757Y77071D01*
X90283Y76283D01*
X91071Y75757D01*
X92000Y75572D01*
X92929Y75757D01*
X93717Y76283D01*
X94243Y77071D01*
X94428Y78000D01*
X94243Y78929D01*
X93717Y79717D01*
X92929Y80243D01*
X92000Y80428D01*
D02*
G37*
G36*
X213500Y77928D02*
X212571Y77743D01*
X211783Y77217D01*
X211257Y76429D01*
X211072Y75500D01*
X211257Y74571D01*
X211783Y73783D01*
X212571Y73257D01*
X213500Y73072D01*
X214429Y73257D01*
X215217Y73783D01*
X215743Y74571D01*
X215928Y75500D01*
X215743Y76429D01*
X215217Y77217D01*
X214429Y77743D01*
X213500Y77928D01*
D02*
G37*
G36*
X45929Y81181D02*
X45000Y80996D01*
X44212Y80470D01*
X43686Y79682D01*
X43501Y78753D01*
X43686Y77824D01*
X44212Y77036D01*
Y76820D01*
X43686Y76032D01*
X43501Y75103D01*
X43686Y74174D01*
X44212Y73387D01*
X45000Y72860D01*
X45929Y72675D01*
X46858Y72860D01*
X47646Y73387D01*
X48172Y74174D01*
X48357Y75103D01*
X48172Y76032D01*
X47646Y76820D01*
Y77036D01*
X48172Y77824D01*
X48357Y78753D01*
X48172Y79682D01*
X47646Y80470D01*
X46858Y80996D01*
X45929Y81181D01*
D02*
G37*
G36*
X156165D02*
X155236Y80996D01*
X154449Y80470D01*
X153922Y79682D01*
X153738Y78753D01*
X153922Y77824D01*
X154449Y77036D01*
Y76820D01*
X153922Y76032D01*
X153738Y75103D01*
X153922Y74174D01*
X154449Y73387D01*
X155236Y72860D01*
X156165Y72675D01*
X157094Y72860D01*
X157882Y73387D01*
X158408Y74174D01*
X158593Y75103D01*
X158408Y76032D01*
X157882Y76820D01*
Y77036D01*
X158408Y77824D01*
X158593Y78753D01*
X158408Y79682D01*
X157882Y80470D01*
X157094Y80996D01*
X156165Y81181D01*
D02*
G37*
G36*
X146200Y204028D02*
X145271Y203843D01*
X144483Y203317D01*
X143957Y202529D01*
X143772Y201600D01*
X143957Y200671D01*
X144483Y199883D01*
X145271Y199357D01*
X146200Y199172D01*
X147129Y199357D01*
X147917Y199883D01*
X148443Y200671D01*
X148628Y201600D01*
X148443Y202529D01*
X147917Y203317D01*
X147129Y203843D01*
X146200Y204028D01*
D02*
G37*
G36*
X35000Y424428D02*
X34071Y424243D01*
X33283Y423717D01*
X32757Y422929D01*
X32572Y422000D01*
X32757Y421071D01*
X33283Y420283D01*
X34071Y419757D01*
X35000Y419572D01*
X35929Y419757D01*
X36717Y420283D01*
X37243Y421071D01*
X37428Y422000D01*
X37243Y422929D01*
X36717Y423717D01*
X35929Y424243D01*
X35000Y424428D01*
D02*
G37*
G36*
X95529Y424728D02*
X94600Y424543D01*
X93812Y424017D01*
X93286Y423229D01*
X93101Y422300D01*
X93286Y421371D01*
X93812Y420583D01*
X94600Y420057D01*
X95529Y419872D01*
X96458Y420057D01*
X97246Y420583D01*
X97772Y421371D01*
X97957Y422300D01*
X97772Y423229D01*
X97246Y424017D01*
X96458Y424543D01*
X95529Y424728D01*
D02*
G37*
G36*
X241761Y423461D02*
X240910Y423292D01*
X240188Y422810D01*
X239706Y422088D01*
X239537Y421237D01*
X239706Y420386D01*
X240188Y419664D01*
X240910Y419182D01*
X241761Y419013D01*
X242612Y419182D01*
X243333Y419664D01*
X243815Y420386D01*
X243985Y421237D01*
X243815Y422088D01*
X243333Y422810D01*
X242612Y423292D01*
X241761Y423461D01*
D02*
G37*
G36*
X221761Y415042D02*
X221035Y414947D01*
X220358Y414666D01*
X220011Y414400D01*
X219663Y414666D01*
X218987Y414947D01*
X218261Y415042D01*
X217535Y414947D01*
X216858Y414666D01*
X216277Y414221D01*
X215831Y413640D01*
X215551Y412963D01*
X215456Y412237D01*
X215551Y411511D01*
X215831Y410835D01*
X216277Y410253D01*
X216858Y409808D01*
X217535Y409527D01*
X218261Y409432D01*
X218987Y409527D01*
X219663Y409808D01*
X220011Y410074D01*
X220358Y409808D01*
X221035Y409527D01*
X221761Y409432D01*
X222487Y409527D01*
X223163Y409808D01*
X223744Y410253D01*
X224190Y410835D01*
X224470Y411511D01*
X224566Y412237D01*
X224470Y412963D01*
X224190Y413640D01*
X223744Y414221D01*
X223163Y414666D01*
X222487Y414947D01*
X221761Y415042D01*
D02*
G37*
G36*
X87129Y426562D02*
X86200Y426377D01*
X85413Y425850D01*
X84886Y425063D01*
X84701Y424134D01*
X84886Y423205D01*
X85413Y422417D01*
X86200Y421891D01*
X86629Y421805D01*
Y421306D01*
X85800Y421141D01*
X85013Y420614D01*
X84486Y419827D01*
X84301Y418898D01*
X84486Y417969D01*
X85013Y417181D01*
X85800Y416655D01*
X86729Y416470D01*
X87658Y416655D01*
X88446Y417181D01*
X88972Y417969D01*
X89157Y418898D01*
X88972Y419827D01*
X88446Y420614D01*
X87658Y421141D01*
X87229Y421226D01*
Y421726D01*
X88058Y421891D01*
X88846Y422417D01*
X89372Y423205D01*
X89557Y424134D01*
X89372Y425063D01*
X88846Y425850D01*
X88058Y426377D01*
X87129Y426562D01*
D02*
G37*
G36*
X257261Y433042D02*
X256535Y432946D01*
X255858Y432666D01*
X255277Y432221D01*
X254831Y431640D01*
X254551Y430963D01*
X254455Y430237D01*
X254551Y429511D01*
X254831Y428834D01*
X255277Y428254D01*
X255858Y427808D01*
X256535Y427528D01*
X257261Y427432D01*
X257987Y427528D01*
X258663Y427808D01*
X259244Y428254D01*
X259690Y428834D01*
X259970Y429511D01*
X260066Y430237D01*
X259970Y430963D01*
X259690Y431640D01*
X259244Y432221D01*
X258663Y432666D01*
X257987Y432946D01*
X257261Y433042D01*
D02*
G37*
G36*
X101161Y433390D02*
X100232Y433205D01*
X99444Y432679D01*
X98918Y431891D01*
X98733Y430962D01*
X98918Y430033D01*
X99444Y429245D01*
X100232Y428719D01*
X101161Y428534D01*
X102090Y428719D01*
X102877Y429245D01*
X103404Y430033D01*
X103588Y430962D01*
X103404Y431891D01*
X102877Y432679D01*
X102090Y433205D01*
X101161Y433390D01*
D02*
G37*
G36*
X45929Y435512D02*
X45000Y435327D01*
X44212Y434800D01*
X43686Y434013D01*
X43501Y433084D01*
X43686Y432155D01*
X44212Y431367D01*
Y431150D01*
X43686Y430363D01*
X43501Y429434D01*
X43686Y428505D01*
X44212Y427717D01*
X45000Y427191D01*
X45929Y427006D01*
X46858Y427191D01*
X47646Y427717D01*
X48172Y428505D01*
X48357Y429434D01*
X48172Y430363D01*
X47646Y431150D01*
Y431367D01*
X48172Y432155D01*
X48357Y433084D01*
X48172Y434013D01*
X47646Y434800D01*
X46858Y435327D01*
X45929Y435512D01*
D02*
G37*
G36*
X110261Y428890D02*
X109332Y428705D01*
X108544Y428179D01*
X108018Y427391D01*
X107833Y426462D01*
X108018Y425533D01*
X108544Y424745D01*
X109332Y424219D01*
X110261Y424034D01*
X111190Y424219D01*
X111977Y424745D01*
X112504Y425533D01*
X112688Y426462D01*
X112504Y427391D01*
X111977Y428179D01*
X111190Y428705D01*
X110261Y428890D01*
D02*
G37*
G36*
X209761Y427542D02*
X209035Y427447D01*
X208358Y427166D01*
X208011Y426900D01*
X207663Y427166D01*
X206987Y427447D01*
X206261Y427542D01*
X205535Y427447D01*
X204858Y427166D01*
X204277Y426721D01*
X203831Y426140D01*
X203551Y425463D01*
X203455Y424737D01*
X203551Y424011D01*
X203831Y423335D01*
X204277Y422753D01*
X204858Y422308D01*
X205535Y422027D01*
X206261Y421932D01*
X206987Y422027D01*
X207663Y422308D01*
X208011Y422574D01*
X208358Y422308D01*
X209035Y422027D01*
X209761Y421932D01*
X210487Y422027D01*
X211163Y422308D01*
X211744Y422753D01*
X212190Y423335D01*
X212470Y424011D01*
X212566Y424737D01*
X212470Y425463D01*
X212190Y426140D01*
X211744Y426721D01*
X211163Y427166D01*
X210487Y427447D01*
X209761Y427542D01*
D02*
G37*
G36*
X226954Y404461D02*
X226102Y404292D01*
X225381Y403809D01*
X224899Y403088D01*
X224730Y402237D01*
X224744Y402163D01*
X224728Y402139D01*
X224051Y401859D01*
X223470Y401413D01*
X223024Y400833D01*
X222744Y400156D01*
X222648Y399430D01*
X222744Y398704D01*
X223024Y398027D01*
X223470Y397446D01*
X224051Y397001D01*
X224728Y396720D01*
X225453Y396625D01*
X226180Y396720D01*
X226856Y397001D01*
X227437Y397446D01*
X227883Y398027D01*
X228163Y398704D01*
X228259Y399430D01*
X228163Y400156D01*
X228077Y400364D01*
X228526Y400665D01*
X229008Y401386D01*
X229177Y402237D01*
X229008Y403088D01*
X228526Y403809D01*
X227805Y404292D01*
X226954Y404461D01*
D02*
G37*
G36*
X220761Y407961D02*
X219910Y407792D01*
X219188Y407309D01*
X218706Y406588D01*
X218537Y405737D01*
X218706Y404886D01*
X218806Y404737D01*
X218706Y404588D01*
X218537Y403737D01*
X218706Y402886D01*
X219188Y402165D01*
X219910Y401683D01*
X220761Y401513D01*
X221612Y401683D01*
X222333Y402165D01*
X222815Y402886D01*
X222985Y403737D01*
X222815Y404588D01*
X222716Y404737D01*
X222815Y404886D01*
X222985Y405737D01*
X222815Y406588D01*
X222333Y407309D01*
X221612Y407792D01*
X220761Y407961D01*
D02*
G37*
G36*
X59300Y399228D02*
X58371Y399043D01*
X57583Y398517D01*
X57057Y397729D01*
X56872Y396800D01*
X57057Y395871D01*
X57583Y395083D01*
X58371Y394557D01*
X59300Y394372D01*
X60229Y394557D01*
X61017Y395083D01*
X61543Y395871D01*
X61728Y396800D01*
X61543Y397729D01*
X61017Y398517D01*
X60229Y399043D01*
X59300Y399228D01*
D02*
G37*
G36*
X66100Y399028D02*
X65171Y398843D01*
X64383Y398317D01*
X63857Y397529D01*
X63672Y396600D01*
X63857Y395671D01*
X64383Y394883D01*
X65171Y394357D01*
X66100Y394172D01*
X67029Y394357D01*
X67817Y394883D01*
X68343Y395671D01*
X68528Y396600D01*
X68343Y397529D01*
X67817Y398317D01*
X67029Y398843D01*
X66100Y399028D01*
D02*
G37*
G36*
X73600Y399128D02*
X72671Y398943D01*
X71883Y398417D01*
X71357Y397629D01*
X71172Y396700D01*
X71357Y395771D01*
X71883Y394983D01*
X72671Y394457D01*
X73600Y394272D01*
X74529Y394457D01*
X75317Y394983D01*
X75843Y395771D01*
X76028Y396700D01*
X75843Y397629D01*
X75317Y398417D01*
X74529Y398943D01*
X73600Y399128D01*
D02*
G37*
G36*
X198261Y418042D02*
X197535Y417946D01*
X196858Y417666D01*
X196277Y417220D01*
X195831Y416640D01*
X195551Y415963D01*
X195456Y415237D01*
X195551Y414511D01*
X195831Y413834D01*
X196098Y413487D01*
X195831Y413140D01*
X195551Y412463D01*
X195456Y411737D01*
X195551Y411011D01*
X195831Y410334D01*
X196277Y409754D01*
X196858Y409308D01*
X197535Y409027D01*
X198261Y408932D01*
X198987Y409027D01*
X199663Y409308D01*
X200244Y409754D01*
X200690Y410334D01*
X200970Y411011D01*
X201066Y411737D01*
X200970Y412463D01*
X200690Y413140D01*
X200423Y413487D01*
X200690Y413834D01*
X200970Y414511D01*
X201066Y415237D01*
X200970Y415963D01*
X200690Y416640D01*
X200244Y417220D01*
X199663Y417666D01*
X198987Y417946D01*
X198261Y418042D01*
D02*
G37*
G36*
X104761Y418490D02*
X103832Y418305D01*
X103044Y417778D01*
X102518Y416991D01*
X102333Y416062D01*
X102518Y415133D01*
X103044Y414345D01*
X103832Y413819D01*
X104761Y413634D01*
X105690Y413819D01*
X106477Y414345D01*
X107004Y415133D01*
X107188Y416062D01*
X107004Y416991D01*
X106477Y417778D01*
X105690Y418305D01*
X104761Y418490D01*
D02*
G37*
G36*
X100229Y411990D02*
X99300Y411805D01*
X98513Y411278D01*
X97986Y410491D01*
X97801Y409562D01*
X97986Y408633D01*
X98513Y407845D01*
X99300Y407319D01*
X100229Y407134D01*
X101158Y407319D01*
X101946Y407845D01*
X102472Y408633D01*
X102657Y409562D01*
X102472Y410491D01*
X101946Y411278D01*
X101158Y411805D01*
X100229Y411990D01*
D02*
G37*
G36*
X258261Y401961D02*
X257410Y401792D01*
X257069Y401564D01*
X256805Y401740D01*
X255954Y401910D01*
X255102Y401740D01*
X254381Y401258D01*
X253899Y400537D01*
X253730Y399686D01*
X253899Y398835D01*
X254381Y398113D01*
X255102Y397631D01*
X255954Y397462D01*
X256805Y397631D01*
X257145Y397859D01*
X257410Y397682D01*
X258261Y397513D01*
X259112Y397682D01*
X259833Y398165D01*
X260315Y398886D01*
X260485Y399737D01*
X260315Y400588D01*
X259833Y401309D01*
X259112Y401792D01*
X258261Y401961D01*
D02*
G37*
G36*
X72441Y410662D02*
X71512Y410477D01*
X70724Y409950D01*
X70198Y409163D01*
X70013Y408234D01*
X70198Y407305D01*
X70724Y406517D01*
X71512Y405991D01*
X72441Y405806D01*
X73370Y405991D01*
X74158Y406517D01*
X74684Y407305D01*
X74869Y408234D01*
X74684Y409163D01*
X74158Y409950D01*
X73370Y410477D01*
X72441Y410662D01*
D02*
G37*
G36*
X89529Y434732D02*
X88600Y434547D01*
X87813Y434021D01*
X87286Y433233D01*
X87101Y432304D01*
X87286Y431375D01*
X87813Y430587D01*
X88600Y430061D01*
X89529Y429876D01*
X90458Y430061D01*
X91246Y430587D01*
X91772Y431375D01*
X91957Y432304D01*
X91772Y433233D01*
X91246Y434021D01*
X90458Y434547D01*
X89529Y434732D01*
D02*
G37*
G36*
X190000Y475042D02*
X189274Y474946D01*
X188598Y474666D01*
X188016Y474221D01*
X187571Y473640D01*
X187291Y472963D01*
X187195Y472237D01*
X187291Y471511D01*
X187571Y470834D01*
X188016Y470254D01*
X188598Y469808D01*
X189274Y469527D01*
X190000Y469432D01*
X190726Y469527D01*
X191402Y469808D01*
X191983Y470254D01*
X192429Y470834D01*
X192710Y471511D01*
X192805Y472237D01*
X192710Y472963D01*
X192429Y473640D01*
X191983Y474221D01*
X191402Y474666D01*
X190726Y474946D01*
X190000Y475042D01*
D02*
G37*
G36*
X200000D02*
X199274Y474946D01*
X198598Y474666D01*
X198017Y474221D01*
X197571Y473640D01*
X197291Y472963D01*
X197195Y472237D01*
X197291Y471511D01*
X197571Y470834D01*
X198017Y470254D01*
X198598Y469808D01*
X199274Y469527D01*
X200000Y469432D01*
X200726Y469527D01*
X201402Y469808D01*
X201983Y470254D01*
X202429Y470834D01*
X202710Y471511D01*
X202805Y472237D01*
X202710Y472963D01*
X202429Y473640D01*
X201983Y474221D01*
X201402Y474666D01*
X200726Y474946D01*
X200000Y475042D01*
D02*
G37*
G36*
X184600Y470805D02*
X183874Y470710D01*
X183197Y470429D01*
X182616Y469983D01*
X182171Y469403D01*
X181890Y468726D01*
X181795Y468000D01*
X181890Y467274D01*
X182171Y466598D01*
X182616Y466016D01*
X183197Y465571D01*
X183874Y465290D01*
X184600Y465195D01*
X185326Y465290D01*
X186003Y465571D01*
X186583Y466016D01*
X187029Y466598D01*
X187310Y467274D01*
X187405Y468000D01*
X187310Y468726D01*
X187029Y469403D01*
X186583Y469983D01*
X186003Y470429D01*
X185326Y470710D01*
X184600Y470805D01*
D02*
G37*
G36*
X73500Y463328D02*
X72571Y463143D01*
X71783Y462617D01*
X71257Y461829D01*
X71072Y460900D01*
X71257Y459971D01*
X71783Y459183D01*
X72571Y458657D01*
X73500Y458472D01*
X74429Y458657D01*
X75217Y459183D01*
X75743Y459971D01*
X75928Y460900D01*
X75743Y461829D01*
X75217Y462617D01*
X74429Y463143D01*
X73500Y463328D01*
D02*
G37*
G36*
X285961Y470191D02*
X284625Y470015D01*
X283380Y469499D01*
X282310Y468679D01*
X281490Y467610D01*
X280974Y466364D01*
X280798Y465028D01*
X280974Y463692D01*
X281490Y462447D01*
X282310Y461378D01*
X283380Y460558D01*
X284625Y460042D01*
X285961Y459866D01*
X287297Y460042D01*
X288542Y460558D01*
X289611Y461378D01*
X290431Y462447D01*
X290947Y463692D01*
X291123Y465028D01*
X290947Y466364D01*
X290431Y467610D01*
X289611Y468679D01*
X288542Y469499D01*
X287297Y470015D01*
X285961Y470191D01*
D02*
G37*
G36*
X172361Y479884D02*
X171635Y479788D01*
X170958Y479508D01*
X170377Y479062D01*
X169931Y478481D01*
X169651Y477805D01*
X169611Y477497D01*
X169111D01*
X169070Y477805D01*
X168790Y478481D01*
X168344Y479062D01*
X167763Y479508D01*
X167087Y479788D01*
X166361Y479884D01*
X165635Y479788D01*
X164958Y479508D01*
X164377Y479062D01*
X163931Y478481D01*
X163651Y477805D01*
X163556Y477079D01*
X163651Y476353D01*
X163931Y475676D01*
X164377Y475095D01*
X164958Y474649D01*
X165635Y474369D01*
X166361Y474274D01*
X166778Y474329D01*
X167028Y473896D01*
X166831Y473640D01*
X166551Y472963D01*
X166455Y472237D01*
X166551Y471511D01*
X166670Y471225D01*
X166365Y470828D01*
X166361Y470829D01*
X165635Y470733D01*
X164958Y470453D01*
X164377Y470007D01*
X163931Y469426D01*
X163651Y468750D01*
X163556Y468024D01*
X163651Y467298D01*
X163931Y466621D01*
X164377Y466040D01*
X164958Y465594D01*
X165635Y465314D01*
X166361Y465218D01*
X167087Y465314D01*
X167763Y465594D01*
X168344Y466040D01*
X168790Y466621D01*
X169070Y467298D01*
X169111Y467605D01*
X169611D01*
X169651Y467298D01*
X169931Y466621D01*
X170377Y466040D01*
X170958Y465594D01*
X171635Y465314D01*
X172361Y465218D01*
X173087Y465314D01*
X173763Y465594D01*
X174344Y466040D01*
X174790Y466621D01*
X175070Y467298D01*
X175166Y468024D01*
X175070Y468750D01*
X174790Y469426D01*
X174344Y470007D01*
X173763Y470453D01*
X173087Y470733D01*
X172361Y470829D01*
X172144Y470800D01*
X171840Y471197D01*
X171970Y471511D01*
X172066Y472237D01*
X171970Y472963D01*
X171690Y473640D01*
X171471Y473925D01*
X171721Y474358D01*
X172361Y474274D01*
X173087Y474369D01*
X173763Y474649D01*
X174344Y475095D01*
X174790Y475676D01*
X175070Y476353D01*
X175166Y477079D01*
X175070Y477805D01*
X174790Y478481D01*
X174344Y479062D01*
X173763Y479508D01*
X173087Y479788D01*
X172361Y479884D01*
D02*
G37*
G36*
X285961Y487510D02*
X284727Y487348D01*
X283578Y486872D01*
X282591Y486114D01*
X281834Y485127D01*
X281358Y483978D01*
X281195Y482745D01*
X281358Y481512D01*
X281834Y480362D01*
X282591Y479375D01*
X283578Y478618D01*
X284727Y478142D01*
X285961Y477980D01*
X287194Y478142D01*
X288343Y478618D01*
X289330Y479375D01*
X290087Y480362D01*
X290563Y481512D01*
X290726Y482745D01*
X290563Y483978D01*
X290087Y485127D01*
X289330Y486114D01*
X288343Y486872D01*
X287194Y487348D01*
X285961Y487510D01*
D02*
G37*
G36*
X150361Y479884D02*
X149635Y479788D01*
X148958Y479508D01*
X148377Y479062D01*
X147931Y478481D01*
X147651Y477805D01*
X147611Y477497D01*
X147111D01*
X147070Y477805D01*
X146790Y478481D01*
X146344Y479062D01*
X145763Y479508D01*
X145087Y479788D01*
X144361Y479884D01*
X143635Y479788D01*
X142958Y479508D01*
X142377Y479062D01*
X141931Y478481D01*
X141651Y477805D01*
X141556Y477079D01*
X141651Y476353D01*
X141931Y475676D01*
X142377Y475095D01*
X142958Y474649D01*
X143635Y474369D01*
X144361Y474274D01*
X144422Y474282D01*
X144726Y473885D01*
X144551Y473463D01*
X144456Y472737D01*
X144551Y472011D01*
X144831Y471335D01*
X144918Y471221D01*
X144668Y470788D01*
X144361Y470829D01*
X143635Y470733D01*
X142958Y470453D01*
X142377Y470007D01*
X141931Y469426D01*
X141651Y468750D01*
X141556Y468024D01*
X141651Y467298D01*
X141931Y466621D01*
X142377Y466040D01*
X142958Y465594D01*
X143635Y465314D01*
X144361Y465218D01*
X145087Y465314D01*
X145763Y465594D01*
X146344Y466040D01*
X146790Y466621D01*
X147070Y467298D01*
X147111Y467605D01*
X147611D01*
X147651Y467298D01*
X147931Y466621D01*
X148377Y466040D01*
X148958Y465594D01*
X149635Y465314D01*
X150361Y465218D01*
X151087Y465314D01*
X151763Y465594D01*
X152344Y466040D01*
X152790Y466621D01*
X153070Y467298D01*
X153166Y468024D01*
X153070Y468750D01*
X152790Y469426D01*
X152344Y470007D01*
X151763Y470453D01*
X151087Y470733D01*
X150361Y470829D01*
X149831Y470759D01*
X149581Y471192D01*
X149690Y471335D01*
X149970Y472011D01*
X150066Y472737D01*
X149970Y473463D01*
X149784Y473913D01*
X150088Y474309D01*
X150361Y474274D01*
X151087Y474369D01*
X151763Y474649D01*
X152344Y475095D01*
X152790Y475676D01*
X153070Y476353D01*
X153166Y477079D01*
X153070Y477805D01*
X152790Y478481D01*
X152344Y479062D01*
X151763Y479508D01*
X151087Y479788D01*
X150361Y479884D01*
D02*
G37*
G36*
X39919Y476247D02*
X38990Y476062D01*
X38203Y475536D01*
X37677Y474749D01*
X37492Y473819D01*
X37677Y472890D01*
X38203Y472103D01*
X38990Y471576D01*
X39919Y471392D01*
X40848Y471576D01*
X41636Y472103D01*
X42162Y472890D01*
X42347Y473819D01*
X42162Y474749D01*
X41636Y475536D01*
X40848Y476062D01*
X39919Y476247D01*
D02*
G37*
G36*
X95529Y476557D02*
X94600Y476372D01*
X93812Y475846D01*
X93286Y475058D01*
X93101Y474129D01*
X93286Y473200D01*
X93812Y472412D01*
X94600Y471886D01*
X95529Y471701D01*
X96458Y471886D01*
X97246Y472412D01*
X97772Y473200D01*
X97957Y474129D01*
X97772Y475058D01*
X97246Y475846D01*
X96458Y476372D01*
X95529Y476557D01*
D02*
G37*
G36*
X74016Y440772D02*
X73296Y440677D01*
X72626Y440399D01*
X72244Y440106D01*
X71862Y440399D01*
X71192Y440677D01*
X70472Y440772D01*
X69753Y440677D01*
X69083Y440399D01*
X68701Y440106D01*
X68319Y440399D01*
X67649Y440677D01*
X66929Y440772D01*
X66210Y440677D01*
X65539Y440399D01*
X65158Y440106D01*
X64776Y440399D01*
X64105Y440677D01*
X63386Y440772D01*
X62666Y440677D01*
X61996Y440399D01*
X61614Y440106D01*
X61232Y440399D01*
X60562Y440677D01*
X59842Y440772D01*
X59123Y440677D01*
X58453Y440399D01*
X57877Y439958D01*
X57435Y439382D01*
X57158Y438712D01*
X57063Y437992D01*
X57158Y437273D01*
X57235Y437086D01*
X56681Y436856D01*
X56105Y436414D01*
X55664Y435839D01*
X55386Y435168D01*
X55291Y434449D01*
X55386Y433729D01*
X55664Y433059D01*
X56105Y432483D01*
X56681Y432042D01*
X57048Y431890D01*
X57158Y431625D01*
X57063Y430905D01*
X57158Y430186D01*
X57235Y429999D01*
X56681Y429770D01*
X56105Y429328D01*
X55664Y428752D01*
X55386Y428082D01*
X55291Y427362D01*
X55386Y426643D01*
X55664Y425972D01*
X56105Y425397D01*
X56681Y424955D01*
X57048Y424803D01*
X57158Y424538D01*
X57063Y423819D01*
X57158Y423100D01*
X57235Y422912D01*
X56681Y422683D01*
X56105Y422241D01*
X55664Y421665D01*
X55386Y420995D01*
X55291Y420276D01*
X55386Y419556D01*
X55664Y418886D01*
X56105Y418310D01*
X56681Y417868D01*
X57351Y417591D01*
X58071Y417496D01*
X58790Y417591D01*
X59461Y417868D01*
X59842Y418161D01*
X60224Y417868D01*
X60895Y417591D01*
X61614Y417496D01*
X62334Y417591D01*
X63004Y417868D01*
X63386Y418161D01*
X63768Y417868D01*
X64438Y417591D01*
X65158Y417496D01*
X65877Y417591D01*
X66547Y417868D01*
X66929Y418161D01*
X67311Y417868D01*
X67981Y417591D01*
X68701Y417496D01*
X69420Y417591D01*
X70091Y417868D01*
X70472Y418161D01*
X70854Y417868D01*
X71525Y417591D01*
X72244Y417496D01*
X72964Y417591D01*
X73634Y417868D01*
X74016Y418161D01*
X74398Y417868D01*
X75068Y417591D01*
X75787Y417496D01*
X76507Y417591D01*
X77177Y417868D01*
X77753Y418310D01*
X78195Y418886D01*
X78472Y419556D01*
X78567Y420276D01*
X78472Y420995D01*
X78195Y421665D01*
X77753Y422241D01*
X77177Y422683D01*
X76810Y422835D01*
X76701Y423100D01*
X76795Y423819D01*
X76701Y424538D01*
X76810Y424803D01*
X77177Y424955D01*
X77753Y425397D01*
X78195Y425972D01*
X78472Y426643D01*
X78567Y427362D01*
X78472Y428082D01*
X78195Y428752D01*
X77753Y429328D01*
X77177Y429770D01*
X76810Y429921D01*
X76701Y430186D01*
X76795Y430905D01*
X76701Y431625D01*
X76810Y431890D01*
X77177Y432042D01*
X77753Y432483D01*
X78195Y433059D01*
X78472Y433729D01*
X78567Y434449D01*
X78472Y435168D01*
X78195Y435839D01*
X77753Y436414D01*
X77177Y436856D01*
X76623Y437086D01*
X76701Y437273D01*
X76795Y437992D01*
X76701Y438712D01*
X76423Y439382D01*
X75981Y439958D01*
X75406Y440399D01*
X74735Y440677D01*
X74016Y440772D01*
D02*
G37*
G36*
X74142Y452375D02*
X73213Y452190D01*
X72425Y451664D01*
X71899Y450876D01*
X71714Y449947D01*
X71899Y449018D01*
X72425Y448231D01*
X73213Y447704D01*
X74142Y447519D01*
X75071Y447704D01*
X75858Y448231D01*
X76385Y449018D01*
X76569Y449947D01*
X76385Y450876D01*
X75858Y451664D01*
X75071Y452190D01*
X74142Y452375D01*
D02*
G37*
G36*
X101376Y442193D02*
X100447Y442008D01*
X99659Y441482D01*
X99133Y440694D01*
X98948Y439765D01*
X99133Y438836D01*
X99659Y438048D01*
X100447Y437522D01*
X101376Y437337D01*
X102305Y437522D01*
X103093Y438048D01*
X103619Y438836D01*
X103804Y439765D01*
X103619Y440694D01*
X103093Y441482D01*
X102305Y442008D01*
X101376Y442193D01*
D02*
G37*
G36*
X39919Y435554D02*
X38990Y435369D01*
X38203Y434843D01*
X37677Y434055D01*
X37492Y433126D01*
X37677Y432197D01*
X38203Y431410D01*
X38990Y430883D01*
X39919Y430699D01*
X40848Y430883D01*
X41636Y431410D01*
X42162Y432197D01*
X42347Y433126D01*
X42162Y434055D01*
X41636Y434843D01*
X40848Y435369D01*
X39919Y435554D01*
D02*
G37*
G36*
X36911Y441428D02*
X35982Y441243D01*
X35194Y440717D01*
X34668Y439929D01*
X34483Y439000D01*
X34668Y438071D01*
X35194Y437283D01*
X35982Y436757D01*
X36911Y436572D01*
X37840Y436757D01*
X38627Y437283D01*
X39154Y438071D01*
X39338Y439000D01*
X39154Y439929D01*
X38627Y440717D01*
X37840Y441243D01*
X36911Y441428D01*
D02*
G37*
G36*
X59300Y463328D02*
X58371Y463143D01*
X57583Y462617D01*
X57057Y461829D01*
X56872Y460900D01*
X57057Y459971D01*
X57583Y459183D01*
X58371Y458657D01*
X59300Y458472D01*
X60229Y458657D01*
X61017Y459183D01*
X61543Y459971D01*
X61728Y460900D01*
X61543Y461829D01*
X61017Y462617D01*
X60229Y463143D01*
X59300Y463328D01*
D02*
G37*
G36*
X66100D02*
X65171Y463143D01*
X64383Y462617D01*
X63857Y461829D01*
X63672Y460900D01*
X63857Y459971D01*
X64383Y459183D01*
X65171Y458657D01*
X66100Y458472D01*
X67029Y458657D01*
X67817Y459183D01*
X68343Y459971D01*
X68528Y460900D01*
X68343Y461829D01*
X67817Y462617D01*
X67029Y463143D01*
X66100Y463328D01*
D02*
G37*
G36*
X176761Y456542D02*
X176035Y456447D01*
X175358Y456166D01*
X174777Y455721D01*
X174331Y455140D01*
X174051Y454463D01*
X173956Y453737D01*
X174051Y453011D01*
X174331Y452334D01*
X174777Y451754D01*
X175358Y451308D01*
X176035Y451027D01*
X176761Y450932D01*
X177487Y451027D01*
X178163Y451308D01*
X178744Y451754D01*
X179190Y452334D01*
X179470Y453011D01*
X179566Y453737D01*
X179470Y454463D01*
X179190Y455140D01*
X178744Y455721D01*
X178163Y456166D01*
X177487Y456447D01*
X176761Y456542D01*
D02*
G37*
G36*
X209761Y449542D02*
X209035Y449446D01*
X208358Y449166D01*
X208011Y448900D01*
X207663Y449166D01*
X206987Y449446D01*
X206261Y449542D01*
X205535Y449446D01*
X204858Y449166D01*
X204277Y448721D01*
X203831Y448140D01*
X203551Y447463D01*
X203455Y446737D01*
X203551Y446011D01*
X203831Y445334D01*
X204277Y444754D01*
X204858Y444308D01*
X205535Y444028D01*
X206261Y443932D01*
X206987Y444028D01*
X207663Y444308D01*
X208011Y444574D01*
X208358Y444308D01*
X209035Y444028D01*
X209761Y443932D01*
X210487Y444028D01*
X211163Y444308D01*
X211744Y444754D01*
X212190Y445334D01*
X212470Y446011D01*
X212566Y446737D01*
X212470Y447463D01*
X212190Y448140D01*
X211744Y448721D01*
X211163Y449166D01*
X210487Y449446D01*
X209761Y449542D01*
D02*
G37*
G36*
X154761Y456542D02*
X154035Y456447D01*
X153358Y456166D01*
X152777Y455721D01*
X152331Y455140D01*
X152051Y454463D01*
X151955Y453737D01*
X152051Y453011D01*
X152331Y452334D01*
X152777Y451754D01*
X153358Y451308D01*
X154035Y451027D01*
X154761Y450932D01*
X155487Y451027D01*
X156163Y451308D01*
X156744Y451754D01*
X157190Y452334D01*
X157470Y453011D01*
X157566Y453737D01*
X157470Y454463D01*
X157190Y455140D01*
X156744Y455721D01*
X156163Y456166D01*
X155487Y456447D01*
X154761Y456542D01*
D02*
G37*
G36*
X272000Y235603D02*
X271326Y235515D01*
X270698Y235255D01*
X270159Y234841D01*
X269745Y234302D01*
X269485Y233674D01*
X269397Y233000D01*
X269485Y232326D01*
X269745Y231698D01*
X270159Y231159D01*
X270698Y230745D01*
X271326Y230485D01*
X272000Y230397D01*
X272674Y230485D01*
X273302Y230745D01*
X273841Y231159D01*
X274255Y231698D01*
X274515Y232326D01*
X274603Y233000D01*
X274515Y233674D01*
X274255Y234302D01*
X273841Y234841D01*
X273302Y235255D01*
X272674Y235515D01*
X272000Y235603D01*
D02*
G37*
G36*
X280000Y280603D02*
X279326Y280515D01*
X278698Y280255D01*
X278159Y279841D01*
X277745Y279302D01*
X277485Y278674D01*
X277397Y278000D01*
X277485Y277326D01*
X277745Y276698D01*
X278159Y276159D01*
X278698Y275745D01*
X279326Y275485D01*
X280000Y275397D01*
X280674Y275485D01*
X281302Y275745D01*
X281841Y276159D01*
X282255Y276698D01*
X282515Y277326D01*
X282603Y278000D01*
X282515Y278674D01*
X282255Y279302D01*
X281841Y279841D01*
X281302Y280255D01*
X280674Y280515D01*
X280000Y280603D01*
D02*
G37*
G36*
X175821Y229396D02*
X174892Y229211D01*
X174105Y228685D01*
X173578Y227898D01*
X173393Y226969D01*
X173578Y226039D01*
X174105Y225252D01*
X174892Y224726D01*
X175821Y224541D01*
X176750Y224726D01*
X177538Y225252D01*
X178064Y226039D01*
X178249Y226969D01*
X178064Y227898D01*
X177538Y228685D01*
X176750Y229211D01*
X175821Y229396D01*
D02*
G37*
G36*
X169021Y229296D02*
X168092Y229112D01*
X167305Y228585D01*
X166778Y227798D01*
X166594Y226869D01*
X166778Y225939D01*
X167305Y225152D01*
X168092Y224626D01*
X169021Y224441D01*
X169950Y224626D01*
X170738Y225152D01*
X171264Y225939D01*
X171449Y226869D01*
X171264Y227798D01*
X170738Y228585D01*
X169950Y229112D01*
X169021Y229296D01*
D02*
G37*
G36*
X66821Y229396D02*
X65892Y229211D01*
X65105Y228685D01*
X64578Y227898D01*
X64394Y226969D01*
X64578Y226039D01*
X65105Y225252D01*
X65892Y224726D01*
X66821Y224541D01*
X67750Y224726D01*
X68538Y225252D01*
X69064Y226039D01*
X69249Y226969D01*
X69064Y227898D01*
X68538Y228685D01*
X67750Y229211D01*
X66821Y229396D01*
D02*
G37*
G36*
X72441Y292551D02*
X71512Y292367D01*
X70724Y291840D01*
X70198Y291053D01*
X70013Y290124D01*
X70198Y289195D01*
X70724Y288407D01*
X71512Y287881D01*
X72441Y287696D01*
X73370Y287881D01*
X74158Y288407D01*
X74684Y289195D01*
X74869Y290124D01*
X74684Y291053D01*
X74158Y291840D01*
X73370Y292367D01*
X72441Y292551D01*
D02*
G37*
G36*
X100329Y293465D02*
X99400Y293280D01*
X98612Y292754D01*
X98086Y291966D01*
X97901Y291037D01*
X98086Y290108D01*
X98612Y289320D01*
X99400Y288794D01*
X100329Y288609D01*
X101258Y288794D01*
X102046Y289320D01*
X102572Y290108D01*
X102757Y291037D01*
X102572Y291966D01*
X102046Y292754D01*
X101258Y293280D01*
X100329Y293465D01*
D02*
G37*
G36*
X60100Y280528D02*
X59171Y280343D01*
X58383Y279817D01*
X57857Y279029D01*
X57672Y278100D01*
X57857Y277171D01*
X58383Y276383D01*
X59171Y275857D01*
X60100Y275672D01*
X61029Y275857D01*
X61817Y276383D01*
X62343Y277171D01*
X62528Y278100D01*
X62343Y279029D01*
X61817Y279817D01*
X61029Y280343D01*
X60100Y280528D01*
D02*
G37*
G36*
X66900Y280328D02*
X65971Y280143D01*
X65183Y279617D01*
X64657Y278829D01*
X64472Y277900D01*
X64657Y276971D01*
X65183Y276183D01*
X65971Y275657D01*
X66900Y275472D01*
X67829Y275657D01*
X68617Y276183D01*
X69143Y276971D01*
X69328Y277900D01*
X69143Y278829D01*
X68617Y279617D01*
X67829Y280143D01*
X66900Y280328D01*
D02*
G37*
G36*
X73600Y280428D02*
X72671Y280243D01*
X71883Y279717D01*
X71357Y278929D01*
X71172Y278000D01*
X71357Y277071D01*
X71883Y276283D01*
X72671Y275757D01*
X73600Y275572D01*
X74529Y275757D01*
X75317Y276283D01*
X75843Y277071D01*
X76028Y278000D01*
X75843Y278929D01*
X75317Y279717D01*
X74529Y280243D01*
X73600Y280428D01*
D02*
G37*
G36*
X184252Y204551D02*
X183533Y204457D01*
X182862Y204179D01*
X182480Y203886D01*
X182098Y204179D01*
X181428Y204457D01*
X180709Y204551D01*
X179989Y204457D01*
X179319Y204179D01*
X178937Y203886D01*
X178555Y204179D01*
X177885Y204457D01*
X177165Y204551D01*
X176446Y204457D01*
X175776Y204179D01*
X175394Y203886D01*
X175012Y204179D01*
X174341Y204457D01*
X173622Y204551D01*
X172903Y204457D01*
X172232Y204179D01*
X171850Y203886D01*
X171469Y204179D01*
X170798Y204457D01*
X170079Y204551D01*
X169359Y204457D01*
X168689Y204179D01*
X168113Y203737D01*
X167672Y203162D01*
X167394Y202491D01*
X167299Y201772D01*
X167394Y201052D01*
X167471Y200865D01*
X166917Y200636D01*
X166342Y200194D01*
X165900Y199618D01*
X165622Y198948D01*
X165527Y198228D01*
X165622Y197509D01*
X165900Y196838D01*
X166342Y196263D01*
X166917Y195821D01*
X167284Y195669D01*
X167394Y195405D01*
X167299Y194685D01*
X167394Y193966D01*
X167471Y193779D01*
X166917Y193549D01*
X166342Y193107D01*
X165900Y192532D01*
X165622Y191861D01*
X165527Y191142D01*
X165622Y190422D01*
X165900Y189752D01*
X166342Y189176D01*
X166917Y188734D01*
X167284Y188583D01*
X167394Y188318D01*
X167299Y187598D01*
X167394Y186879D01*
X167284Y186614D01*
X166917Y186462D01*
X166342Y186021D01*
X165900Y185445D01*
X165622Y184774D01*
X165527Y184055D01*
X165622Y183336D01*
X165900Y182665D01*
X166342Y182090D01*
X166917Y181648D01*
X167588Y181370D01*
X168307Y181275D01*
X169027Y181370D01*
X169697Y181648D01*
X170079Y181941D01*
X170460Y181648D01*
X171131Y181370D01*
X171850Y181275D01*
X172570Y181370D01*
X173240Y181648D01*
X173622Y181941D01*
X174004Y181648D01*
X174674Y181370D01*
X175394Y181275D01*
X176113Y181370D01*
X176784Y181648D01*
X177165Y181941D01*
X177547Y181648D01*
X178218Y181370D01*
X178937Y181275D01*
X179656Y181370D01*
X180327Y181648D01*
X180709Y181941D01*
X181090Y181648D01*
X181761Y181370D01*
X182480Y181275D01*
X183200Y181370D01*
X183870Y181648D01*
X184252Y181941D01*
X184634Y181648D01*
X185304Y181370D01*
X186024Y181275D01*
X186743Y181370D01*
X187414Y181648D01*
X187989Y182090D01*
X188431Y182665D01*
X188709Y183336D01*
X188803Y184055D01*
X188709Y184774D01*
X188431Y185445D01*
X187989Y186021D01*
X187414Y186462D01*
X187047Y186614D01*
X186937Y186879D01*
X187032Y187598D01*
X186937Y188318D01*
X187047Y188583D01*
X187414Y188734D01*
X187989Y189176D01*
X188431Y189752D01*
X188709Y190422D01*
X188803Y191142D01*
X188709Y191861D01*
X188431Y192532D01*
X187989Y193107D01*
X187414Y193549D01*
X187047Y193701D01*
X186937Y193966D01*
X187032Y194685D01*
X186937Y195405D01*
X187047Y195669D01*
X187414Y195821D01*
X187989Y196263D01*
X188431Y196838D01*
X188709Y197509D01*
X188803Y198228D01*
X188709Y198948D01*
X188431Y199618D01*
X187989Y200194D01*
X187414Y200636D01*
X186859Y200865D01*
X186937Y201052D01*
X187032Y201772D01*
X186937Y202491D01*
X186659Y203162D01*
X186217Y203737D01*
X185642Y204179D01*
X184971Y204457D01*
X184252Y204551D01*
D02*
G37*
G36*
X74142Y216155D02*
X73213Y215970D01*
X72425Y215443D01*
X71899Y214656D01*
X71714Y213727D01*
X71899Y212798D01*
X72425Y212010D01*
X73213Y211484D01*
X74142Y211299D01*
X75071Y211484D01*
X75858Y212010D01*
X76385Y212798D01*
X76569Y213727D01*
X76385Y214656D01*
X75858Y215443D01*
X75071Y215970D01*
X74142Y216155D01*
D02*
G37*
G36*
X74016Y204551D02*
X73296Y204457D01*
X72626Y204179D01*
X72244Y203886D01*
X71862Y204179D01*
X71192Y204457D01*
X70472Y204551D01*
X69753Y204457D01*
X69083Y204179D01*
X68701Y203886D01*
X68319Y204179D01*
X67649Y204457D01*
X66929Y204551D01*
X66210Y204457D01*
X65539Y204179D01*
X65158Y203886D01*
X64776Y204179D01*
X64105Y204457D01*
X63386Y204551D01*
X62666Y204457D01*
X61996Y204179D01*
X61614Y203886D01*
X61232Y204179D01*
X60562Y204457D01*
X59842Y204551D01*
X59123Y204457D01*
X58453Y204179D01*
X57877Y203737D01*
X57435Y203162D01*
X57158Y202491D01*
X57063Y201772D01*
X57158Y201052D01*
X57235Y200865D01*
X56681Y200636D01*
X56105Y200194D01*
X55664Y199618D01*
X55386Y198948D01*
X55291Y198228D01*
X55386Y197509D01*
X55664Y196838D01*
X56105Y196263D01*
X56681Y195821D01*
X57048Y195669D01*
X57158Y195405D01*
X57063Y194685D01*
X57158Y193966D01*
X57235Y193779D01*
X56681Y193549D01*
X56105Y193107D01*
X55664Y192532D01*
X55386Y191861D01*
X55291Y191142D01*
X55386Y190422D01*
X55664Y189752D01*
X56105Y189176D01*
X56681Y188734D01*
X57048Y188583D01*
X57158Y188318D01*
X57063Y187598D01*
X57158Y186879D01*
X57048Y186614D01*
X56681Y186462D01*
X56105Y186021D01*
X55664Y185445D01*
X55386Y184774D01*
X55291Y184055D01*
X55386Y183336D01*
X55664Y182665D01*
X56105Y182090D01*
X56681Y181648D01*
X57351Y181370D01*
X58071Y181275D01*
X58790Y181370D01*
X59461Y181648D01*
X59842Y181941D01*
X60224Y181648D01*
X60895Y181370D01*
X61614Y181275D01*
X62334Y181370D01*
X63004Y181648D01*
X63386Y181941D01*
X63768Y181648D01*
X64438Y181370D01*
X65158Y181275D01*
X65877Y181370D01*
X66547Y181648D01*
X66929Y181941D01*
X67311Y181648D01*
X67981Y181370D01*
X68701Y181275D01*
X69420Y181370D01*
X70091Y181648D01*
X70472Y181941D01*
X70854Y181648D01*
X71525Y181370D01*
X72244Y181275D01*
X72964Y181370D01*
X73634Y181648D01*
X74016Y181941D01*
X74398Y181648D01*
X75068Y181370D01*
X75787Y181275D01*
X76507Y181370D01*
X77177Y181648D01*
X77753Y182090D01*
X78195Y182665D01*
X78472Y183336D01*
X78567Y184055D01*
X78472Y184774D01*
X78195Y185445D01*
X77753Y186021D01*
X77177Y186462D01*
X76623Y186692D01*
X76701Y186879D01*
X76795Y187598D01*
X76701Y188318D01*
X76623Y188505D01*
X77177Y188734D01*
X77753Y189176D01*
X78195Y189752D01*
X78472Y190422D01*
X78567Y191142D01*
X78472Y191861D01*
X78195Y192532D01*
X77753Y193107D01*
X77177Y193549D01*
X76810Y193701D01*
X76701Y193966D01*
X76795Y194685D01*
X76701Y195405D01*
X76810Y195669D01*
X77177Y195821D01*
X77753Y196263D01*
X78195Y196838D01*
X78472Y197509D01*
X78567Y198228D01*
X78472Y198948D01*
X78195Y199618D01*
X77753Y200194D01*
X77177Y200636D01*
X76623Y200865D01*
X76701Y201052D01*
X76795Y201772D01*
X76701Y202491D01*
X76423Y203162D01*
X75981Y203737D01*
X75406Y204179D01*
X74735Y204457D01*
X74016Y204551D01*
D02*
G37*
G36*
X211615Y205831D02*
X210686Y205646D01*
X209899Y205120D01*
X209372Y204332D01*
X209188Y203403D01*
X209372Y202474D01*
X209899Y201687D01*
X210686Y201160D01*
X211615Y200975D01*
X212544Y201160D01*
X213332Y201687D01*
X213858Y202474D01*
X214043Y203403D01*
X213858Y204332D01*
X213332Y205120D01*
X212544Y205646D01*
X211615Y205831D01*
D02*
G37*
G36*
X101476Y206631D02*
X100547Y206446D01*
X99759Y205920D01*
X99233Y205132D01*
X99048Y204203D01*
X99233Y203274D01*
X99759Y202486D01*
X100547Y201960D01*
X101476Y201775D01*
X102405Y201960D01*
X103193Y202486D01*
X103719Y203274D01*
X103904Y204203D01*
X103719Y205132D01*
X103193Y205920D01*
X102405Y206446D01*
X101476Y206631D01*
D02*
G37*
G36*
X183021Y229196D02*
X182092Y229012D01*
X181305Y228485D01*
X180778Y227698D01*
X180594Y226768D01*
X180778Y225839D01*
X181305Y225052D01*
X182092Y224526D01*
X183021Y224341D01*
X183950Y224526D01*
X184738Y225052D01*
X185264Y225839D01*
X185449Y226768D01*
X185264Y227698D01*
X184738Y228485D01*
X183950Y229012D01*
X183021Y229196D01*
D02*
G37*
G36*
X59321Y229296D02*
X58392Y229112D01*
X57605Y228585D01*
X57078Y227798D01*
X56893Y226869D01*
X57078Y225939D01*
X57605Y225152D01*
X58392Y224626D01*
X59321Y224441D01*
X60250Y224626D01*
X61038Y225152D01*
X61564Y225939D01*
X61749Y226869D01*
X61564Y227798D01*
X61038Y228585D01*
X60250Y229112D01*
X59321Y229296D01*
D02*
G37*
G36*
X73621Y229196D02*
X72692Y229012D01*
X71905Y228485D01*
X71378Y227698D01*
X71193Y226768D01*
X71378Y225839D01*
X71905Y225052D01*
X72692Y224526D01*
X73621Y224341D01*
X74550Y224526D01*
X75338Y225052D01*
X75864Y225839D01*
X76049Y226768D01*
X75864Y227698D01*
X75338Y228485D01*
X74550Y229012D01*
X73621Y229196D01*
D02*
G37*
G36*
X184378Y216155D02*
X183449Y215970D01*
X182661Y215443D01*
X182135Y214656D01*
X181950Y213727D01*
X182135Y212798D01*
X182661Y212010D01*
X183449Y211484D01*
X184378Y211299D01*
X185307Y211484D01*
X186095Y212010D01*
X186621Y212798D01*
X186806Y213727D01*
X186621Y214656D01*
X186095Y215443D01*
X185307Y215970D01*
X184378Y216155D01*
D02*
G37*
G36*
X293000Y217603D02*
X292326Y217515D01*
X291698Y217255D01*
X291159Y216841D01*
X290745Y216302D01*
X290485Y215674D01*
X290397Y215000D01*
X290485Y214326D01*
X290745Y213698D01*
X291159Y213159D01*
X291698Y212745D01*
X292326Y212485D01*
X293000Y212397D01*
X293674Y212485D01*
X294302Y212745D01*
X294841Y213159D01*
X295255Y213698D01*
X295515Y214326D01*
X295603Y215000D01*
X295515Y215674D01*
X295255Y216302D01*
X294841Y216841D01*
X294302Y217255D01*
X293674Y217515D01*
X293000Y217603D01*
D02*
G37*
G36*
X87129Y308451D02*
X86200Y308267D01*
X85413Y307740D01*
X84886Y306953D01*
X84701Y306024D01*
X84886Y305095D01*
X85413Y304307D01*
X86200Y303781D01*
X86629Y303695D01*
Y303195D01*
X85800Y303030D01*
X85013Y302504D01*
X84486Y301716D01*
X84301Y300787D01*
X84404Y300271D01*
X84051Y299918D01*
X84000Y299928D01*
X83071Y299743D01*
X82283Y299217D01*
X81757Y298429D01*
X81572Y297500D01*
X81757Y296571D01*
X82283Y295783D01*
X83071Y295257D01*
X84000Y295072D01*
X84929Y295257D01*
X85717Y295783D01*
X85718Y295786D01*
X103195D01*
X103932Y295294D01*
X104861Y295109D01*
X105790Y295294D01*
X106577Y295820D01*
X107104Y296608D01*
X107288Y297537D01*
X107104Y298466D01*
X106577Y299254D01*
X105790Y299780D01*
X104861Y299965D01*
X103932Y299780D01*
X103144Y299254D01*
X103118Y299214D01*
X89072D01*
X88836Y299655D01*
X88972Y299858D01*
X89157Y300787D01*
X88972Y301716D01*
X88446Y302504D01*
X87658Y303030D01*
X87229Y303116D01*
Y303616D01*
X88058Y303781D01*
X88846Y304307D01*
X89372Y305095D01*
X89557Y306024D01*
X89372Y306953D01*
X88846Y307740D01*
X88058Y308267D01*
X87129Y308451D01*
D02*
G37*
G36*
X59321Y346202D02*
X58392Y346017D01*
X57605Y345491D01*
X57078Y344703D01*
X56893Y343774D01*
X57078Y342845D01*
X57605Y342057D01*
X58392Y341531D01*
X59321Y341346D01*
X60250Y341531D01*
X61038Y342057D01*
X61564Y342845D01*
X61749Y343774D01*
X61564Y344703D01*
X61038Y345491D01*
X60250Y346017D01*
X59321Y346202D01*
D02*
G37*
G36*
X66821Y346302D02*
X65892Y346117D01*
X65105Y345591D01*
X64578Y344803D01*
X64394Y343874D01*
X64578Y342945D01*
X65105Y342157D01*
X65892Y341631D01*
X66821Y341446D01*
X67750Y341631D01*
X68538Y342157D01*
X69064Y342945D01*
X69249Y343874D01*
X69064Y344803D01*
X68538Y345591D01*
X67750Y346117D01*
X66821Y346302D01*
D02*
G37*
G36*
X73621Y346102D02*
X72692Y345917D01*
X71905Y345391D01*
X71378Y344603D01*
X71193Y343674D01*
X71378Y342745D01*
X71905Y341957D01*
X72692Y341431D01*
X73621Y341246D01*
X74550Y341431D01*
X75338Y341957D01*
X75864Y342745D01*
X76049Y343674D01*
X75864Y344603D01*
X75338Y345391D01*
X74550Y345917D01*
X73621Y346102D01*
D02*
G37*
G36*
X74016Y334265D02*
X73087Y334080D01*
X72299Y333554D01*
X71773Y332766D01*
X71588Y331837D01*
X71773Y330908D01*
X72299Y330120D01*
X73087Y329594D01*
X74016Y329409D01*
X74945Y329594D01*
X75732Y330120D01*
X76259Y330908D01*
X76443Y331837D01*
X76259Y332766D01*
X75732Y333554D01*
X74945Y334080D01*
X74016Y334265D01*
D02*
G37*
G36*
X166900Y339105D02*
X166174Y339009D01*
X165498Y338729D01*
X164917Y338283D01*
X164471Y337703D01*
X164190Y337026D01*
X164095Y336300D01*
X164190Y335574D01*
X164471Y334897D01*
X164917Y334316D01*
X165498Y333871D01*
X166174Y333591D01*
X166900Y333495D01*
X167626Y333591D01*
X168303Y333871D01*
X168884Y334316D01*
X169329Y334897D01*
X169609Y335574D01*
X169705Y336300D01*
X169609Y337026D01*
X169329Y337703D01*
X168884Y338283D01*
X168303Y338729D01*
X167626Y339009D01*
X166900Y339105D01*
D02*
G37*
G36*
X24398Y373428D02*
X23469Y373243D01*
X22682Y372717D01*
X22155Y371929D01*
X21971Y371000D01*
X22155Y370071D01*
X22682Y369283D01*
X23469Y368757D01*
X24398Y368572D01*
X25328Y368757D01*
X26115Y369283D01*
X26641Y370071D01*
X26826Y371000D01*
X26641Y371929D01*
X26115Y372717D01*
X25328Y373243D01*
X24398Y373428D01*
D02*
G37*
G36*
X215200Y393428D02*
X214271Y393243D01*
X213483Y392717D01*
X212957Y391929D01*
X212772Y391000D01*
X212957Y390071D01*
X213483Y389283D01*
X214271Y388757D01*
X215200Y388572D01*
X216129Y388757D01*
X216917Y389283D01*
X216918Y389286D01*
X217700D01*
X217715Y389289D01*
X218036Y389225D01*
X218313Y388809D01*
X218172Y388100D01*
X218357Y387171D01*
X218883Y386383D01*
X219671Y385857D01*
X220600Y385672D01*
X221529Y385857D01*
X222317Y386383D01*
X222843Y387171D01*
X223028Y388100D01*
X222843Y389029D01*
X222317Y389817D01*
X221806Y390158D01*
X221702Y390410D01*
X220967Y391367D01*
X220010Y392102D01*
X218896Y392563D01*
X217700Y392721D01*
Y392714D01*
X216918D01*
X216917Y392717D01*
X216129Y393243D01*
X215200Y393428D01*
D02*
G37*
G36*
X168800Y356105D02*
X168074Y356010D01*
X167397Y355729D01*
X166816Y355283D01*
X166816Y355283D01*
X166683Y355184D01*
X166103Y355629D01*
X165426Y355909D01*
X164700Y356005D01*
X163974Y355909D01*
X163297Y355629D01*
X162716Y355184D01*
X162271Y354603D01*
X161990Y353926D01*
X161895Y353200D01*
X161990Y352474D01*
X162271Y351797D01*
X162716Y351217D01*
X162868Y351100D01*
Y350600D01*
X162716Y350483D01*
X162271Y349903D01*
X161990Y349226D01*
X161895Y348500D01*
X161990Y347774D01*
X162271Y347097D01*
X162716Y346516D01*
X163297Y346071D01*
X163347Y346050D01*
Y345550D01*
X163297Y345529D01*
X162716Y345083D01*
X162271Y344503D01*
X161990Y343826D01*
X161895Y343100D01*
X161990Y342374D01*
X162271Y341697D01*
X162716Y341116D01*
X163297Y340671D01*
X163974Y340390D01*
X164700Y340295D01*
X165426Y340390D01*
X166103Y340671D01*
X166683Y341116D01*
X166683Y341116D01*
X166816Y341216D01*
X167397Y340771D01*
X168074Y340491D01*
X168800Y340395D01*
X169526Y340491D01*
X170203Y340771D01*
X170783Y341216D01*
X171229Y341797D01*
X171510Y342474D01*
X171605Y343200D01*
X171510Y343926D01*
X171229Y344603D01*
X170783Y345183D01*
X170203Y345629D01*
X170153Y345650D01*
Y346150D01*
X170203Y346171D01*
X170783Y346617D01*
X171229Y347197D01*
X171510Y347874D01*
X171605Y348600D01*
X171510Y349326D01*
X171229Y350003D01*
X170783Y350584D01*
X170632Y350700D01*
Y351200D01*
X170783Y351316D01*
X171229Y351897D01*
X171510Y352574D01*
X171605Y353300D01*
X171510Y354026D01*
X171229Y354703D01*
X170783Y355283D01*
X170203Y355729D01*
X169526Y356010D01*
X168800Y356105D01*
D02*
G37*
G36*
X140761Y352242D02*
X140035Y352147D01*
X139358Y351866D01*
X138777Y351420D01*
X138331Y350840D01*
X138051Y350163D01*
X138028Y349987D01*
X137528D01*
X137510Y350126D01*
X137229Y350803D01*
X136784Y351383D01*
X136203Y351829D01*
X135526Y352110D01*
X134800Y352205D01*
X134074Y352110D01*
X133397Y351829D01*
X132817Y351383D01*
X132371Y350803D01*
X132090Y350126D01*
X131995Y349400D01*
X132090Y348674D01*
X132371Y347997D01*
X132817Y347416D01*
X133397Y346971D01*
X134074Y346691D01*
X134800Y346595D01*
X135526Y346691D01*
X136203Y346971D01*
X136784Y347416D01*
X137229Y347997D01*
X137510Y348674D01*
X137533Y348850D01*
X138033D01*
X138051Y348711D01*
X138331Y348035D01*
X138777Y347453D01*
X139358Y347008D01*
X140035Y346727D01*
X140761Y346632D01*
X141487Y346727D01*
X142163Y347008D01*
X142744Y347453D01*
X143190Y348035D01*
X143470Y348711D01*
X143566Y349437D01*
X143470Y350163D01*
X143190Y350840D01*
X142744Y351420D01*
X142163Y351866D01*
X141487Y352147D01*
X140761Y352242D01*
D02*
G37*
G36*
X204700Y355305D02*
X203974Y355209D01*
X203297Y354929D01*
X202716Y354484D01*
X202716Y354484D01*
X202584Y354383D01*
X202003Y354829D01*
X201326Y355110D01*
X200600Y355205D01*
X199874Y355110D01*
X199197Y354829D01*
X198617Y354383D01*
X198171Y353803D01*
X197890Y353126D01*
X197795Y352400D01*
X197890Y351674D01*
X198171Y350997D01*
X198617Y350416D01*
X199159Y350000D01*
Y349500D01*
X198617Y349083D01*
X198171Y348503D01*
X197890Y347826D01*
X197795Y347100D01*
X197890Y346374D01*
X198171Y345697D01*
X198617Y345116D01*
X199197Y344671D01*
X199439Y344571D01*
Y344071D01*
X199098Y343929D01*
X198516Y343483D01*
X198071Y342903D01*
X197791Y342226D01*
X197695Y341500D01*
X197791Y340774D01*
X198071Y340097D01*
X198516Y339516D01*
X199098Y339071D01*
X199774Y338790D01*
X200500Y338695D01*
X200804Y338735D01*
X201054Y338302D01*
X200671Y337803D01*
X200391Y337126D01*
X200295Y336400D01*
X200391Y335674D01*
X200671Y334997D01*
X201116Y334417D01*
X201697Y333971D01*
X202374Y333691D01*
X203100Y333595D01*
X203826Y333691D01*
X204503Y333971D01*
X205083Y334417D01*
X205529Y334997D01*
X205809Y335674D01*
X205905Y336400D01*
X205809Y337126D01*
X205529Y337803D01*
X205083Y338384D01*
X204587Y338764D01*
X204600Y338795D01*
X205326Y338891D01*
X206003Y339171D01*
X206583Y339616D01*
X207029Y340197D01*
X207310Y340874D01*
X207405Y341600D01*
X207310Y342326D01*
X207029Y343003D01*
X206583Y343583D01*
X206003Y344029D01*
X205761Y344129D01*
Y344629D01*
X206103Y344771D01*
X206683Y345216D01*
X207129Y345797D01*
X207410Y346474D01*
X207505Y347200D01*
X207410Y347926D01*
X207129Y348603D01*
X206683Y349184D01*
X206103Y349629D01*
Y350071D01*
X206683Y350517D01*
X207129Y351097D01*
X207410Y351774D01*
X207505Y352500D01*
X207410Y353226D01*
X207129Y353903D01*
X206683Y354484D01*
X206103Y354929D01*
X205426Y355209D01*
X204700Y355305D01*
D02*
G37*
G36*
X45929Y317401D02*
X45000Y317217D01*
X44212Y316690D01*
X43686Y315903D01*
X43501Y314974D01*
X43686Y314045D01*
X44212Y313257D01*
Y313040D01*
X43686Y312253D01*
X43501Y311324D01*
X43686Y310395D01*
X44212Y309607D01*
X45000Y309081D01*
X45929Y308896D01*
X46858Y309081D01*
X47646Y309607D01*
X48172Y310395D01*
X48357Y311324D01*
X48172Y312253D01*
X47646Y313040D01*
Y313257D01*
X48172Y314045D01*
X48357Y314974D01*
X48172Y315903D01*
X47646Y316690D01*
X46858Y317217D01*
X45929Y317401D01*
D02*
G37*
G36*
X101261Y314865D02*
X100332Y314680D01*
X99544Y314154D01*
X99018Y313366D01*
X98833Y312437D01*
X99018Y311508D01*
X99544Y310720D01*
X100332Y310194D01*
X101261Y310009D01*
X102190Y310194D01*
X102977Y310720D01*
X103504Y311508D01*
X103688Y312437D01*
X103504Y313366D01*
X102977Y314154D01*
X102190Y314680D01*
X101261Y314865D01*
D02*
G37*
G36*
X110361Y310365D02*
X109432Y310180D01*
X108644Y309654D01*
X108118Y308866D01*
X107933Y307937D01*
X108118Y307008D01*
X108644Y306220D01*
X109432Y305694D01*
X110361Y305509D01*
X111290Y305694D01*
X112077Y306220D01*
X112604Y307008D01*
X112788Y307937D01*
X112604Y308866D01*
X112077Y309654D01*
X111290Y310180D01*
X110361Y310365D01*
D02*
G37*
G36*
X34877Y306165D02*
X33948Y305980D01*
X33160Y305454D01*
X32634Y304666D01*
X32449Y303737D01*
X32634Y302808D01*
X33160Y302020D01*
X33948Y301494D01*
X34877Y301309D01*
X35806Y301494D01*
X36594Y302020D01*
X37120Y302808D01*
X37305Y303737D01*
X37120Y304666D01*
X36594Y305454D01*
X35806Y305980D01*
X34877Y306165D01*
D02*
G37*
G36*
X95800Y306228D02*
X94871Y306043D01*
X94083Y305517D01*
X93557Y304729D01*
X93372Y303800D01*
X93557Y302871D01*
X94083Y302083D01*
X94871Y301557D01*
X95800Y301372D01*
X96729Y301557D01*
X97517Y302083D01*
X98043Y302871D01*
X98228Y303800D01*
X98043Y304729D01*
X97517Y305517D01*
X96729Y306043D01*
X95800Y306228D01*
D02*
G37*
G36*
X101476Y323668D02*
X100547Y323483D01*
X99759Y322957D01*
X99233Y322169D01*
X99048Y321240D01*
X99233Y320311D01*
X99759Y319524D01*
X100547Y318997D01*
X101476Y318812D01*
X102405Y318997D01*
X103193Y319524D01*
X103719Y320311D01*
X103904Y321240D01*
X103719Y322169D01*
X103193Y322957D01*
X102405Y323483D01*
X101476Y323668D01*
D02*
G37*
G36*
X74016Y322662D02*
X73296Y322567D01*
X72626Y322289D01*
X72244Y321996D01*
X71862Y322289D01*
X71192Y322567D01*
X70472Y322662D01*
X69753Y322567D01*
X69083Y322289D01*
X68701Y321996D01*
X68319Y322289D01*
X67649Y322567D01*
X66929Y322662D01*
X66210Y322567D01*
X65539Y322289D01*
X65158Y321996D01*
X64776Y322289D01*
X64105Y322567D01*
X63386Y322662D01*
X62666Y322567D01*
X61996Y322289D01*
X61614Y321996D01*
X61232Y322289D01*
X60562Y322567D01*
X59842Y322662D01*
X59123Y322567D01*
X58453Y322289D01*
X57877Y321847D01*
X57435Y321272D01*
X57158Y320601D01*
X57063Y319882D01*
X57158Y319163D01*
X57235Y318975D01*
X56681Y318746D01*
X56105Y318304D01*
X55664Y317728D01*
X55386Y317058D01*
X55291Y316339D01*
X55386Y315619D01*
X55664Y314949D01*
X56105Y314373D01*
X56681Y313931D01*
X57048Y313779D01*
X57158Y313515D01*
X57063Y312795D01*
X57158Y312076D01*
X57235Y311889D01*
X56681Y311659D01*
X56105Y311217D01*
X55664Y310642D01*
X55386Y309971D01*
X55291Y309252D01*
X55386Y308533D01*
X55664Y307862D01*
X56105Y307286D01*
X56681Y306845D01*
X57048Y306693D01*
X57158Y306428D01*
X57063Y305709D01*
X57158Y304989D01*
X57048Y304725D01*
X56681Y304573D01*
X56105Y304131D01*
X55664Y303555D01*
X55386Y302885D01*
X55291Y302165D01*
X55386Y301446D01*
X55664Y300776D01*
X56105Y300200D01*
X56681Y299758D01*
X57351Y299480D01*
X58071Y299386D01*
X58790Y299480D01*
X59461Y299758D01*
X59842Y300051D01*
X60224Y299758D01*
X60895Y299480D01*
X61614Y299386D01*
X62334Y299480D01*
X63004Y299758D01*
X63386Y300051D01*
X63768Y299758D01*
X64438Y299480D01*
X65158Y299386D01*
X65877Y299480D01*
X66547Y299758D01*
X66929Y300051D01*
X67311Y299758D01*
X67981Y299480D01*
X68701Y299386D01*
X69420Y299480D01*
X70091Y299758D01*
X70472Y300051D01*
X70854Y299758D01*
X71525Y299480D01*
X72244Y299386D01*
X72964Y299480D01*
X73634Y299758D01*
X74016Y300051D01*
X74398Y299758D01*
X75068Y299480D01*
X75787Y299386D01*
X76507Y299480D01*
X77177Y299758D01*
X77753Y300200D01*
X78195Y300776D01*
X78472Y301446D01*
X78567Y302165D01*
X78472Y302885D01*
X78195Y303555D01*
X77753Y304131D01*
X77177Y304573D01*
X76623Y304802D01*
X76701Y304989D01*
X76795Y305709D01*
X76701Y306428D01*
X76623Y306615D01*
X77177Y306845D01*
X77753Y307286D01*
X78195Y307862D01*
X78472Y308533D01*
X78567Y309252D01*
X78472Y309971D01*
X78195Y310642D01*
X77753Y311217D01*
X77177Y311659D01*
X76810Y311811D01*
X76701Y312076D01*
X76795Y312795D01*
X76701Y313515D01*
X76810Y313779D01*
X77177Y313931D01*
X77753Y314373D01*
X78195Y314949D01*
X78472Y315619D01*
X78567Y316339D01*
X78472Y317058D01*
X78195Y317728D01*
X77753Y318304D01*
X77177Y318746D01*
X76623Y318975D01*
X76701Y319163D01*
X76795Y319882D01*
X76701Y320601D01*
X76423Y321272D01*
X75981Y321847D01*
X75406Y322289D01*
X74735Y322567D01*
X74016Y322662D01*
D02*
G37*
G36*
X36911Y322928D02*
X35982Y322743D01*
X35194Y322217D01*
X34668Y321429D01*
X34483Y320500D01*
X34668Y319571D01*
X35194Y318783D01*
X35982Y318257D01*
X36911Y318072D01*
X37840Y318257D01*
X38627Y318783D01*
X39154Y319571D01*
X39338Y320500D01*
X39154Y321429D01*
X38627Y322217D01*
X37840Y322743D01*
X36911Y322928D01*
D02*
G37*
G36*
X92000Y316628D02*
X91071Y316443D01*
X90283Y315917D01*
X89757Y315129D01*
X89572Y314200D01*
X89757Y313271D01*
X90283Y312483D01*
X91071Y311957D01*
X92000Y311772D01*
X92929Y311957D01*
X93717Y312483D01*
X94243Y313271D01*
X94428Y314200D01*
X94243Y315129D01*
X93717Y315917D01*
X92929Y316443D01*
X92000Y316628D01*
D02*
G37*
G36*
X39919Y317428D02*
X38990Y317243D01*
X38203Y316717D01*
X37677Y315929D01*
X37492Y315000D01*
X37677Y314071D01*
X38203Y313283D01*
X38990Y312757D01*
X39919Y312572D01*
X40848Y312757D01*
X41636Y313283D01*
X42162Y314071D01*
X42347Y315000D01*
X42162Y315929D01*
X41636Y316717D01*
X40848Y317243D01*
X39919Y317428D01*
D02*
G37*
%LPD*%
D12*
X199765Y196083D02*
G03*
X203849Y192000I4084J0D01*
G01*
X264000D01*
D13*
X176500Y3400D02*
X186400D01*
X276600Y93600D01*
X283500D01*
D15*
X202929Y244071D02*
G03*
X195858Y247000I-7071J-7071D01*
G01*
X208071Y238929D02*
G03*
X215142Y236000I7071J7071D01*
G01*
X224858D02*
G03*
X231929Y238929I0J10000D01*
G01*
X263142Y266000D02*
G03*
X256071Y263071I0J-10000D01*
G01*
X205765Y67765D02*
Y68000D01*
X95500Y247000D02*
X190000D01*
X189684D02*
X191042D01*
X202929Y244071D02*
X208071Y238929D01*
X215142Y236000D02*
X224858D01*
X231929Y238929D02*
X256071Y263071D01*
X190000Y247000D02*
X195858D01*
X263142Y266000D02*
X266000D01*
D18*
X92742Y61600D02*
G03*
X85671Y58671I0J-10000D01*
G01*
X197574Y188000D02*
G03*
X197365Y187913I0J-296D01*
G01*
X199989Y189000D02*
G03*
X197365Y187913I0J-3710D01*
G01*
X199989Y189000D02*
G03*
X197574Y188000I0J-3414D01*
G01*
X199989Y189000D02*
G03*
X197365Y187913I0J-3710D01*
G01*
X237929Y186071D02*
G03*
X230858Y189000I-7071J-7071D01*
G01*
X220600Y388100D02*
G03*
X217700Y391000I-2900J0D01*
G01*
X202700Y179700D02*
X215000D01*
X192000Y169000D02*
X202700Y179700D01*
X104824Y297500D02*
X104861Y297537D01*
X84000Y297500D02*
X104824D01*
X104361Y179500D02*
X104561Y179700D01*
X84000Y179500D02*
X104361D01*
X84519Y57519D02*
X85671Y58671D01*
X92742Y61600D02*
X104700D01*
X89000Y16429D02*
X96571D01*
X153500Y5500D02*
Y16500D01*
X237929Y186071D02*
X269000Y155000D01*
X199989Y189000D02*
X230858D01*
X269800Y61000D02*
Y67400D01*
X215200Y391000D02*
X217700D01*
X262100Y72300D02*
X281200D01*
X255782Y65900D02*
Y65982D01*
Y41000D02*
Y65900D01*
Y65982D02*
X262100Y72300D01*
D22*
X253234Y270000D02*
G03*
X260305Y272929I0J10000D01*
G01*
X217142Y270000D02*
G03*
X210071Y267071I0J-10000D01*
G01*
X192858Y254000D02*
G03*
X199929Y256929I0J10000D01*
G01*
X260305Y272929D02*
X265687Y278310D01*
X217142Y270000D02*
X249000D01*
X253234D01*
X199929Y256929D02*
X210071Y267071D01*
X87000Y254000D02*
X192858D01*
X39500D02*
X87000D01*
X249000Y270000D02*
X251000D01*
D23*
X72441Y53903D02*
X75403D01*
X75662Y54000D02*
X86229Y64567D01*
D26*
X249761Y423737D02*
D03*
X245761D02*
D03*
X249761Y421237D02*
D03*
X245761D02*
D03*
X238261Y416737D02*
D03*
Y420237D02*
D03*
X233261D02*
D03*
Y423237D02*
D03*
X258761Y421690D02*
D03*
X220761Y405737D02*
D03*
Y403737D02*
D03*
X235761Y399237D02*
D03*
X231761D02*
D03*
D89*
X220472Y488189D02*
D03*
Y15748D02*
D03*
Y251969D02*
D03*
X15748Y15748D02*
D03*
Y488189D02*
D03*
Y251969D02*
D03*
D91*
X299370Y46063D02*
D03*
D92*
X246727Y8176D02*
D03*
X275073D02*
D03*
D93*
X247908Y19200D02*
D03*
X273892D02*
D03*
D94*
X288200Y368500D02*
D03*
X271300Y405800D02*
D03*
X297600Y187900D02*
D03*
X176436Y215710D02*
D03*
X174900Y171800D02*
D03*
X187000Y165000D02*
D03*
X164000Y165900D02*
D03*
X160636Y173000D02*
D03*
X188400Y218900D02*
D03*
X160136Y213300D02*
D03*
X164536Y219600D02*
D03*
X176000Y97200D02*
D03*
X175900Y52000D02*
D03*
X190736Y49390D02*
D03*
X165836Y49090D02*
D03*
X160636Y54890D02*
D03*
X190436Y100890D02*
D03*
X164536Y101490D02*
D03*
X54300D02*
D03*
X49900Y95190D02*
D03*
X80200Y100890D02*
D03*
X50400Y54890D02*
D03*
X55600Y49090D02*
D03*
X80500Y49390D02*
D03*
X66100Y51500D02*
D03*
X66200Y97600D02*
D03*
X54229Y455872D02*
D03*
X49829Y449572D02*
D03*
X80129Y455272D02*
D03*
X50329Y409272D02*
D03*
X55529Y403472D02*
D03*
X80429Y403772D02*
D03*
X65900Y406400D02*
D03*
X66100Y451500D02*
D03*
X54300Y337710D02*
D03*
X49900Y331410D02*
D03*
X80200Y337110D02*
D03*
X50400Y291110D02*
D03*
X55600Y285310D02*
D03*
X80500Y285610D02*
D03*
X66700Y287900D02*
D03*
X66800Y333700D02*
D03*
X66500Y216400D02*
D03*
X66600Y167800D02*
D03*
X80500Y167900D02*
D03*
X55600Y167600D02*
D03*
X50400Y173400D02*
D03*
X80200Y219400D02*
D03*
X49900Y213700D02*
D03*
X54300Y220000D02*
D03*
X108286Y233500D02*
D03*
X124609D02*
D03*
X140931D02*
D03*
X157254D02*
D03*
X173577D02*
D03*
X189900Y233600D02*
D03*
X108286Y270200D02*
D03*
X124609D02*
D03*
X140931D02*
D03*
X157254D02*
D03*
X173577D02*
D03*
X189900Y270300D02*
D03*
X248232Y239000D02*
D03*
X238400D02*
D03*
Y279300D02*
D03*
X248232D02*
D03*
X108286Y240200D02*
D03*
X124609D02*
D03*
X140931D02*
D03*
X157254D02*
D03*
X173577D02*
D03*
X189900Y240300D02*
D03*
X75329Y240200D02*
D03*
X58700D02*
D03*
Y262300D02*
D03*
X75329D02*
D03*
X189900Y262400D02*
D03*
X173577Y262300D02*
D03*
X157254D02*
D03*
X140931D02*
D03*
X124609D02*
D03*
X108286D02*
D03*
X220600Y388100D02*
D03*
X215200Y391000D02*
D03*
X137900Y359137D02*
D03*
X305100Y412400D02*
D03*
X192000Y169000D02*
D03*
X84000Y297500D02*
D03*
Y179500D02*
D03*
X104861Y297537D02*
D03*
X104700Y61600D02*
D03*
X104561Y179700D02*
D03*
X215000D02*
D03*
X72441Y53903D02*
D03*
X86229Y64567D02*
D03*
X205765Y68000D02*
D03*
X197365Y187913D02*
D03*
X199765Y196083D02*
D03*
X269800Y61000D02*
D03*
Y67400D02*
D03*
X264800Y67600D02*
D03*
X281200Y72300D02*
D03*
X301300Y245500D02*
D03*
X279200Y230900D02*
D03*
X285600Y302100D02*
D03*
X285400Y348800D02*
D03*
X176500Y3400D02*
D03*
X283500Y93600D02*
D03*
X274980Y28285D02*
D03*
X255782Y41000D02*
D03*
X267000Y47200D02*
D03*
X259900Y44500D02*
D03*
X248100Y53800D02*
D03*
X234800Y46700D02*
D03*
D95*
X220224Y25059D02*
D03*
Y6059D02*
D03*
X229724Y15559D02*
D03*
X211224D02*
D03*
X213724Y22559D02*
D03*
X227224D02*
D03*
X213224Y9059D02*
D03*
X227224D02*
D03*
X15500Y25059D02*
D03*
Y6059D02*
D03*
X25000Y15559D02*
D03*
X6500D02*
D03*
X9000Y22559D02*
D03*
X22500D02*
D03*
X8500Y9059D02*
D03*
X22500D02*
D03*
X220224Y261280D02*
D03*
Y242280D02*
D03*
X229724Y251780D02*
D03*
X211224D02*
D03*
X213724Y258780D02*
D03*
X227224D02*
D03*
X213224Y245280D02*
D03*
X227224D02*
D03*
X15500Y261280D02*
D03*
Y242280D02*
D03*
X25000Y251780D02*
D03*
X6500D02*
D03*
X9000Y258780D02*
D03*
X22500D02*
D03*
X8500Y245280D02*
D03*
X22500D02*
D03*
X220224Y497500D02*
D03*
Y478500D02*
D03*
X229724Y488000D02*
D03*
X211224D02*
D03*
X213724Y495000D02*
D03*
X227224D02*
D03*
X213224Y481500D02*
D03*
X227224D02*
D03*
X22500D02*
D03*
X8500D02*
D03*
X22500Y495000D02*
D03*
X9000D02*
D03*
X6500Y488000D02*
D03*
X25000D02*
D03*
X15500Y478500D02*
D03*
Y497500D02*
D03*
X39500Y254000D02*
D03*
X87000D02*
D03*
X150175Y254175D02*
D03*
X193500Y254000D02*
D03*
X200500Y245900D02*
D03*
X84519Y57519D02*
D03*
X96571Y16429D02*
D03*
X89000D02*
D03*
X153500Y16500D02*
D03*
Y5500D02*
D03*
X265687Y278310D02*
D03*
X95500Y247000D02*
D03*
X266000Y266000D02*
D03*
X285500Y257700D02*
D03*
X264000Y192000D02*
D03*
X283000Y145000D02*
D03*
X274471Y166000D02*
D03*
X269000Y155000D02*
D03*
D96*
X206261Y394737D02*
D03*
X201261D02*
D03*
X259100Y488500D02*
D03*
X215232Y421637D02*
D03*
Y426637D02*
D03*
Y431637D02*
D03*
Y436637D02*
D03*
Y441637D02*
D03*
X188200Y457800D02*
D03*
X210100Y452000D02*
D03*
X195600Y452300D02*
D03*
X219261Y438737D02*
D03*
Y434237D02*
D03*
Y429237D02*
D03*
Y424237D02*
D03*
X205761Y452237D02*
D03*
X199761D02*
D03*
X209461Y412737D02*
D03*
Y408937D02*
D03*
X216300Y453900D02*
D03*
D97*
X230792Y405784D02*
D03*
X234729D02*
D03*
X230792Y411690D02*
D03*
X234729D02*
D03*
X232761Y408737D02*
D03*
M02*
