%FSLAX25Y25*%
%MOIN*%
G70*
G01*
G75*
%ADD10C,0.03000*%
%ADD11C,0.00800*%
%ADD12C,0.02000*%
%ADD13C,0.01181*%
%ADD14C,0.02362*%
%ADD15C,0.01969*%
%ADD16C,0.01200*%
%ADD17C,0.01500*%
%ADD18C,0.01000*%
%ADD19C,0.01100*%
%ADD20C,0.04000*%
%ADD21C,0.03200*%
%ADD22C,0.03937*%
%ADD23C,0.01575*%
%ADD24C,0.00787*%
%ADD25C,0.00800*%
%ADD26C,0.02000*%
%ADD27C,0.10000*%
%ADD28R,0.05512X0.04331*%
%ADD29R,0.04331X0.10236*%
%ADD30R,0.04331X0.05512*%
%ADD31R,0.03543X0.02756*%
%ADD32R,0.03150X0.03543*%
%ADD33R,0.02756X0.03543*%
%ADD34R,0.02362X0.02362*%
%ADD35R,0.03543X0.03150*%
%ADD36R,0.02362X0.01969*%
%ADD37R,0.03000X0.03000*%
%ADD38C,0.03150*%
%ADD39R,0.10236X0.09449*%
%ADD40R,0.07087X0.06299*%
%ADD41R,0.06299X0.07087*%
%ADD42R,0.01969X0.02362*%
%ADD43C,0.03937*%
%ADD44R,0.22047X0.22047*%
%ADD45O,0.00787X0.05118*%
%ADD46O,0.05118X0.00787*%
%ADD47R,0.06000X0.05000*%
%ADD48R,0.16535X0.12205*%
%ADD49R,0.18504X0.05906*%
%ADD50R,0.02756X0.04528*%
%ADD51R,0.03937X0.07087*%
%ADD52R,0.07480X0.16339*%
%ADD53R,0.09449X0.10236*%
%ADD54R,0.03000X0.03000*%
%ADD55R,0.04331X0.06693*%
%ADD56R,0.02362X0.02362*%
%ADD57R,0.10236X0.04331*%
%ADD58R,0.12205X0.16535*%
%ADD59R,0.05906X0.18504*%
%ADD60R,0.04528X0.02756*%
%ADD61C,0.03000*%
%ADD62R,0.06693X0.04331*%
%ADD63R,0.19488X0.11594*%
%ADD64R,0.01102X0.02756*%
%ADD65R,0.06299X0.09449*%
%ADD66R,0.03347X0.01102*%
%ADD67R,0.08661X0.05512*%
%ADD68R,0.09449X0.11024*%
%ADD69O,0.01575X0.08268*%
%ADD70O,0.01378X0.08268*%
%ADD71R,0.07087X0.05906*%
%ADD72R,0.03937X0.03740*%
%ADD73O,0.04528X0.00787*%
%ADD74O,0.00787X0.04528*%
%ADD75R,0.08268X0.08268*%
%ADD76R,0.02559X0.03543*%
%ADD77R,0.06102X0.04331*%
%ADD78R,0.06102X0.04331*%
%ADD79R,0.06102X0.13583*%
%ADD80R,0.07087X0.03937*%
%ADD81C,0.00780*%
%ADD82R,0.42300X0.07600*%
%ADD83R,0.72700X0.09700*%
%ADD84R,0.46300X0.11900*%
%ADD85R,0.46400X0.11900*%
%ADD86R,0.19500X0.45500*%
%ADD87R,0.60476X0.09600*%
%ADD88C,0.23622*%
%ADD89C,0.25590*%
%ADD90R,0.05906X0.05906*%
%ADD91C,0.05906*%
%ADD92R,0.04724X0.07087*%
%ADD93O,0.05906X0.03937*%
%ADD94C,0.02400*%
%ADD95C,0.02800*%
%ADD96C,0.03200*%
%ADD97C,0.02362*%
%ADD98C,0.01600*%
%ADD99C,0.00394*%
%ADD100C,0.00984*%
%ADD101C,0.00600*%
%ADD102C,0.00039*%
%ADD103C,0.00591*%
%ADD104C,0.00500*%
%ADD105R,0.02165X0.09449*%
%ADD106R,0.07874X0.07874*%
%ADD107R,0.09449X0.02165*%
%ADD108R,0.05906X0.02165*%
%ADD109R,0.04300X0.04100*%
G36*
X243247Y403347D02*
Y403342D01*
Y403327D01*
X243252Y403303D01*
X243256Y403273D01*
X243266Y403239D01*
X243281Y403210D01*
X243300Y403176D01*
X243325Y403151D01*
X243330D01*
X243339Y403142D01*
X243359Y403132D01*
X243383Y403122D01*
X243418Y403112D01*
X243457Y403103D01*
X243500Y403098D01*
X243554Y403093D01*
X243803D01*
Y402878D01*
X242300D01*
Y403093D01*
X242549D01*
X242578Y403098D01*
X242612Y403103D01*
X242695Y403117D01*
X242734Y403132D01*
X242764Y403151D01*
X242769Y403156D01*
X242773Y403161D01*
X242788Y403181D01*
X242803Y403200D01*
X242812Y403229D01*
X242827Y403259D01*
X242832Y403303D01*
X242837Y403347D01*
Y405655D01*
Y405660D01*
Y405665D01*
X242832Y405689D01*
X242822Y405718D01*
X242803Y405748D01*
X242798Y405752D01*
X242778Y405767D01*
X242739Y405777D01*
X242690Y405782D01*
X242300D01*
Y405996D01*
X242554D01*
X242598Y406001D01*
X242647Y406006D01*
X242700Y406011D01*
X242759Y406026D01*
X242817Y406040D01*
X242866Y406065D01*
X242871Y406070D01*
X242891Y406079D01*
X242915Y406094D01*
X242944Y406118D01*
X242978Y406153D01*
X243012Y406196D01*
X243052Y406245D01*
X243086Y406304D01*
X243247D01*
Y403347D01*
D02*
G37*
D11*
X39000Y180600D02*
X40600D01*
X39000Y182800D02*
X40600D01*
X35500Y184100D02*
X44100D01*
X35500Y179300D02*
X44100D01*
X217800Y80900D02*
Y83100D01*
X221300Y80900D02*
Y83100D01*
X215200Y73000D02*
Y90800D01*
X224200Y73100D02*
Y90800D01*
X204200Y177400D02*
X212800D01*
X204200Y182200D02*
X212800D01*
X204200Y191000D02*
X212800D01*
X204200Y186200D02*
X212800D01*
X203800Y73000D02*
X212400D01*
X203800Y68200D02*
X212400D01*
X207700Y201800D02*
X209300D01*
X207700Y199600D02*
X209300D01*
X204200Y198300D02*
X212800D01*
X204200Y203100D02*
X212800D01*
X207200Y172900D02*
X208800D01*
X207200Y170700D02*
X208800D01*
X203700Y169400D02*
X212300D01*
X203700Y174200D02*
X212300D01*
X207700Y207600D02*
X209300D01*
X207700Y205400D02*
X209300D01*
X204200Y204100D02*
X212800D01*
X204200Y208900D02*
X212800D01*
X202800Y212800D02*
X205000D01*
X202800Y216300D02*
X205000D01*
X195100Y210200D02*
X212900D01*
X195100Y219200D02*
X212800D01*
X207300Y83800D02*
X208900D01*
X207300Y81600D02*
X208900D01*
X203800Y80300D02*
X212400D01*
X203800Y85100D02*
X212400D01*
X207300Y53900D02*
X208900D01*
X207300Y51700D02*
X208900D01*
X203800Y50400D02*
X212400D01*
X203800Y55200D02*
X212400D01*
X207300Y89500D02*
X208900D01*
X207300Y87300D02*
X208900D01*
X203800Y86000D02*
X212400D01*
X203800Y90800D02*
X212400D01*
X148200Y85900D02*
X149800D01*
X148200Y88100D02*
X149800D01*
X144700Y89400D02*
X153300D01*
X144700Y84600D02*
X153300D01*
X147561Y62500D02*
X149161D01*
X147561Y64700D02*
X149161D01*
X144061Y66000D02*
X152661D01*
X144061Y61200D02*
X152661D01*
X147561Y202900D02*
X149161D01*
X147561Y205100D02*
X149161D01*
X144061Y206400D02*
X152661D01*
X144061Y201600D02*
X152661D01*
X147561Y180100D02*
X149161D01*
X147561Y182300D02*
X149161D01*
X144061Y183600D02*
X152661D01*
X144061Y178800D02*
X152661D01*
X107900Y81039D02*
Y83239D01*
X111400Y81039D02*
Y83239D01*
X105300Y73139D02*
Y90939D01*
X114300Y73239D02*
Y90939D01*
X93900Y72900D02*
X102500D01*
X93900Y68100D02*
X102500D01*
X97400Y89500D02*
X99000D01*
X97400Y87300D02*
X99000D01*
X93900Y86000D02*
X102500D01*
X93900Y90800D02*
X102500D01*
X97400Y53800D02*
X99000D01*
X97400Y51600D02*
X99000D01*
X93900Y50300D02*
X102500D01*
X93900Y55100D02*
X102500D01*
X97400Y83800D02*
X99000D01*
X97400Y81600D02*
X99000D01*
X93900Y80300D02*
X102500D01*
X93900Y85100D02*
X102500D01*
X93900Y59200D02*
X102500D01*
X93900Y64000D02*
X102500D01*
X38200Y62500D02*
X39800D01*
X38200Y64700D02*
X39800D01*
X34700Y66000D02*
X43300D01*
X34700Y61200D02*
X43300D01*
X38200Y84900D02*
X39800D01*
X38200Y87100D02*
X39800D01*
X34700Y88400D02*
X43300D01*
X34700Y83600D02*
X43300D01*
X108100Y199900D02*
Y202100D01*
X111600Y199900D02*
Y202100D01*
X105500Y192000D02*
Y209800D01*
X114500Y192100D02*
Y209800D01*
X97561Y207600D02*
X99161D01*
X97561Y205400D02*
X99161D01*
X94061Y204100D02*
X102661D01*
X94061Y208900D02*
X102661D01*
X97561Y171900D02*
X99161D01*
X97561Y169700D02*
X99161D01*
X94061Y168400D02*
X102661D01*
X94061Y173200D02*
X102661D01*
X97561Y201800D02*
X99161D01*
X97561Y199600D02*
X99161D01*
X94061Y198300D02*
X102661D01*
X94061Y203100D02*
X102661D01*
X94061Y191000D02*
X102661D01*
X94061Y186200D02*
X102661D01*
X94061Y177400D02*
X102661D01*
X94061Y182200D02*
X102661D01*
X38861Y202900D02*
X40461D01*
X38861Y205100D02*
X40461D01*
X35361Y206400D02*
X43961D01*
X35361Y201600D02*
X43961D01*
X38861Y298137D02*
X40461D01*
X38861Y300337D02*
X40461D01*
X35361Y301637D02*
X43961D01*
X35361Y296837D02*
X43961D01*
X38861Y321837D02*
X40461D01*
X38861Y324037D02*
X40461D01*
X35361Y325337D02*
X43961D01*
X35361Y320537D02*
X43961D01*
X97561Y290137D02*
X99161D01*
X97561Y287937D02*
X99161D01*
X94061Y286637D02*
X102661D01*
X94061Y291437D02*
X102661D01*
X94061Y295137D02*
X102661D01*
X94061Y299937D02*
X102661D01*
X94061Y308837D02*
X102661D01*
X94061Y304037D02*
X102661D01*
X108061Y316837D02*
Y319037D01*
X111561Y316837D02*
Y319037D01*
X105461Y308937D02*
Y326737D01*
X114461Y309037D02*
Y326737D01*
X97561Y320237D02*
X99161D01*
X97561Y318037D02*
X99161D01*
X94061Y316737D02*
X102661D01*
X94061Y321537D02*
X102661D01*
X97561Y325537D02*
X99161D01*
X97561Y323337D02*
X99161D01*
X94061Y322037D02*
X102661D01*
X94061Y326837D02*
X102661D01*
X38861Y416337D02*
X40461D01*
X38861Y418537D02*
X40461D01*
X35361Y419837D02*
X43961D01*
X35361Y415037D02*
X43961D01*
X38861Y440237D02*
X40461D01*
X38861Y442437D02*
X40461D01*
X35361Y443737D02*
X43961D01*
X35361Y438937D02*
X43961D01*
X97461Y407837D02*
X99061D01*
X97461Y405637D02*
X99061D01*
X93961Y404337D02*
X102561D01*
X93961Y409137D02*
X102561D01*
X93961Y413437D02*
X102561D01*
X93961Y418237D02*
X102561D01*
X93961Y427362D02*
X102561D01*
X93961Y422562D02*
X102561D01*
X97461Y438137D02*
X99061D01*
X97461Y435937D02*
X99061D01*
X93961Y434637D02*
X102561D01*
X93961Y439437D02*
X102561D01*
X97461Y443837D02*
X99061D01*
X97461Y441637D02*
X99061D01*
X93961Y440337D02*
X102561D01*
X93961Y445137D02*
X102561D01*
X107561Y435337D02*
Y437537D01*
X111061Y435337D02*
Y437537D01*
X104961Y427437D02*
Y445237D01*
X113961Y427537D02*
Y445237D01*
X277800Y141861D02*
X280000D01*
X277800Y138361D02*
X280000D01*
X271400Y143761D02*
X286400D01*
X271400Y136561D02*
X286400D01*
X277800Y169600D02*
X280000D01*
X277800Y173100D02*
X280000D01*
X271400Y167700D02*
X286400D01*
X271400Y174900D02*
X286400D01*
X186861Y2987D02*
X187811Y2037D01*
X186861Y2987D02*
Y11887D01*
X190761Y1987D02*
X191661Y2887D01*
Y11887D01*
X187861Y1987D02*
X190661D01*
X283588Y295200D02*
X285188D01*
X283588Y297400D02*
X285188D01*
X280088Y298700D02*
X288688D01*
X280088Y293900D02*
X288688D01*
X278588Y284900D02*
X280788D01*
X278588Y288400D02*
X280788D01*
X270888Y282300D02*
X288688D01*
X270888Y291300D02*
X288588D01*
X295000Y243900D02*
Y252500D01*
X299800Y243900D02*
Y252500D01*
X293600Y243900D02*
Y252500D01*
X288800Y243900D02*
Y252500D01*
X277700Y224400D02*
X279900D01*
X277700Y227900D02*
X279900D01*
X270000Y221800D02*
X287800D01*
X270000Y230800D02*
X287700D01*
X276900Y258600D02*
X278500D01*
X276900Y256400D02*
X278500D01*
X273400Y255100D02*
X282000D01*
X273400Y259900D02*
X282000D01*
X276900Y235700D02*
X278500D01*
X276900Y233500D02*
X278500D01*
X273400Y232200D02*
X282000D01*
X273400Y237000D02*
X282000D01*
X182161Y11837D02*
X183111Y10887D01*
Y1987D02*
Y10887D01*
X178311Y10987D02*
X179211Y11887D01*
X178311Y1987D02*
Y10987D01*
X179311Y11887D02*
X182111D01*
X274800Y134400D02*
X283400D01*
X274800Y129600D02*
X283400D01*
X178411Y12700D02*
Y21300D01*
X183211Y12700D02*
Y21300D01*
X169600Y12700D02*
Y21300D01*
X174400Y12700D02*
Y21300D01*
X244800Y83700D02*
X253400D01*
X244800Y78900D02*
X253400D01*
X244763Y85461D02*
X253363D01*
X244763Y90261D02*
X253363D01*
X292200Y79200D02*
X293800D01*
X292200Y77000D02*
X293800D01*
X288700Y75700D02*
X297300D01*
X288700Y80500D02*
X297300D01*
X293600Y71500D02*
X295200D01*
X293600Y69300D02*
X295200D01*
X290100Y68000D02*
X298700D01*
X290100Y72800D02*
X298700D01*
X191661Y12700D02*
Y21300D01*
X186861Y12700D02*
Y21300D01*
X288900Y86400D02*
X297500D01*
X288900Y81600D02*
X297500D01*
X278100Y149261D02*
X279700D01*
X278100Y147061D02*
X279700D01*
X274600Y145761D02*
X283200D01*
X274600Y150561D02*
X283200D01*
X203800Y59400D02*
X212400D01*
X203800Y64200D02*
X212400D01*
X290100Y61600D02*
X292300D01*
X290100Y65100D02*
X292300D01*
X283700Y59700D02*
X298700D01*
X283700Y66900D02*
X298700D01*
X278100Y178061D02*
X279700D01*
X278100Y180261D02*
X279700D01*
X274600Y181561D02*
X283200D01*
X274600Y176761D02*
X283200D01*
X277712Y264400D02*
X279912D01*
X277712Y267900D02*
X279912D01*
X270012Y261800D02*
X287812D01*
X270012Y270800D02*
X287712D01*
X173611Y11837D02*
X174561Y10887D01*
Y1987D02*
Y10887D01*
X169761Y10987D02*
X170661Y11887D01*
X169761Y1987D02*
Y10987D01*
X170761Y11887D02*
X173561D01*
D18*
X162461Y451437D02*
G03*
X162461Y451437I-500J0D01*
G01*
X140461D02*
G03*
X140461Y451437I-500J0D01*
G01*
X212561Y431937D02*
G03*
X212561Y431937I-500J0D01*
G01*
Y409937D02*
G03*
X212561Y409937I-500J0D01*
G01*
X208500Y177800D02*
Y181800D01*
Y186600D02*
Y190600D01*
X208100Y68600D02*
Y72600D01*
X98200Y68500D02*
Y72500D01*
Y59600D02*
Y63600D01*
X98361Y186600D02*
Y190600D01*
Y177800D02*
Y181800D01*
Y295537D02*
Y299537D01*
Y304437D02*
Y308437D01*
X98261Y413837D02*
Y417837D01*
Y422962D02*
Y426962D01*
X179203Y458563D02*
Y473917D01*
X159518Y458563D02*
Y473917D01*
X198361Y337437D02*
X207161D01*
X219296Y342220D02*
Y377654D01*
X186225Y342220D02*
Y377654D01*
X198361Y382437D02*
X207161D01*
X211944Y342220D02*
X219296D01*
X186225D02*
X193577D01*
X211944Y377654D02*
X219296D01*
X186225D02*
X193577D01*
X207761D02*
X211944D01*
X207761D02*
Y381837D01*
X207161Y382437D02*
X207761Y381837D01*
X197661Y377654D02*
Y381737D01*
X198361Y382437D01*
X193577Y377654D02*
X197661D01*
X197761Y338037D02*
Y342220D01*
Y338037D02*
X198361Y337437D01*
X193577Y342220D02*
X197761D01*
X207761D02*
X211944D01*
X207761Y338037D02*
Y342220D01*
X207161Y337437D02*
X207761Y338037D01*
X187261Y7587D02*
X191261D01*
X295400Y248200D02*
X299400D01*
X289200D02*
X293200D01*
X178711Y6287D02*
X182711D01*
X279100Y130000D02*
Y134000D01*
X178811Y17000D02*
X182811D01*
X170000D02*
X174000D01*
X249100Y79300D02*
Y83300D01*
X249063Y85861D02*
Y89861D01*
X187261Y17000D02*
X191261D01*
X293200Y82000D02*
Y86000D01*
X243561Y427737D02*
X244161Y428337D01*
Y432520D01*
X248344D01*
X229977D02*
X234161D01*
Y428337D02*
X234761Y427737D01*
X234161Y428337D02*
Y432520D01*
X229977Y467953D02*
X234061D01*
Y472037D02*
X234761Y472737D01*
X234061Y467953D02*
Y472037D01*
X243561Y472737D02*
X244161Y472137D01*
Y467953D02*
Y472137D01*
Y467953D02*
X248344D01*
X222625D02*
X229977D01*
X248344D02*
X255696D01*
X222625Y432520D02*
X229977D01*
X248344D02*
X255696D01*
X234761Y472737D02*
X243561D01*
X222625Y432520D02*
Y467953D01*
X255696Y432520D02*
Y467953D01*
X234761Y427737D02*
X243561D01*
X137518Y458563D02*
Y473917D01*
X157203Y458563D02*
Y473917D01*
X189580Y449180D02*
X204935D01*
X189580Y429494D02*
X204935D01*
X162361Y337437D02*
X171161D01*
X183296Y342220D02*
Y377654D01*
X150225Y342220D02*
Y377654D01*
X162361Y382437D02*
X171161D01*
X175944Y342220D02*
X183296D01*
X150225D02*
X157577D01*
X175944Y377654D02*
X183296D01*
X150225D02*
X157577D01*
X171761D02*
X175944D01*
X171761D02*
Y381837D01*
X171161Y382437D02*
X171761Y381837D01*
X161661Y377654D02*
Y381737D01*
X162361Y382437D01*
X157577Y377654D02*
X161661D01*
X161761Y338037D02*
Y342220D01*
Y338037D02*
X162361Y337437D01*
X157577Y342220D02*
X161761D01*
X171761D02*
X175944D01*
X171761Y338037D02*
Y342220D01*
X171161Y337437D02*
X171761Y338037D01*
X208100Y59800D02*
Y63800D01*
X189580Y407494D02*
X204935D01*
X189580Y427179D02*
X204935D01*
X164342Y447221D02*
X166457D01*
X164342D02*
Y449337D01*
X141064Y447221D02*
X143180D01*
Y449337D01*
X164342Y393137D02*
Y395253D01*
X166457D01*
X143180Y393137D02*
Y395253D01*
X141064D02*
X143180D01*
X166457Y447221D02*
X179154D01*
X128367D02*
X141064D01*
X166457Y395253D02*
X179154D01*
X128367D02*
X141064D01*
X179154D02*
Y447221D01*
X128367Y395253D02*
Y447221D01*
X143180Y393137D02*
X164342D01*
X143180Y449337D02*
X164342D01*
X224161Y416837D02*
X241361D01*
X224161Y400637D02*
Y416837D01*
X241361Y400637D02*
Y416837D01*
X224161Y400637D02*
X241361D01*
X170161Y6287D02*
X174161D01*
X299898Y351101D02*
Y355100D01*
X296899D01*
Y353101D01*
Y355100D01*
X293900D01*
X299898Y349102D02*
X293900D01*
Y346103D01*
X294900Y345103D01*
X295899D01*
X296899Y346103D01*
Y349102D01*
Y346103D01*
X297899Y345103D01*
X298898D01*
X299898Y346103D01*
Y349102D01*
X298898Y343104D02*
X299898Y342104D01*
Y340105D01*
X298898Y339105D01*
X297899D01*
X296899Y340105D01*
Y341105D01*
Y340105D01*
X295899Y339105D01*
X294900D01*
X293900Y340105D01*
Y342104D01*
X294900Y343104D01*
D24*
X181898Y454938D02*
X186623D01*
X192335Y395513D02*
Y404961D01*
X189186D02*
X192335D01*
X189186Y395513D02*
X192335D01*
X194560Y388375D02*
Y393099D01*
X223961Y419375D02*
Y424099D01*
X245398Y425536D02*
X250123D01*
X255139Y417950D02*
Y419524D01*
X252383Y417950D02*
Y419524D01*
X257383Y417950D02*
Y419524D01*
X260139Y417950D02*
Y419524D01*
X259965Y408052D02*
Y410808D01*
X233139Y391450D02*
Y393024D01*
X230383Y391450D02*
Y393024D01*
X238473Y393359D02*
X240048D01*
X238473Y396115D02*
X240048D01*
X248666Y395808D02*
X250241D01*
X248666Y393052D02*
X250241D01*
X248666Y400808D02*
X250241D01*
X248666Y398052D02*
X250241D01*
X255576Y391418D02*
X258331D01*
X259965Y403052D02*
Y405808D01*
X248331Y406143D02*
Y407717D01*
X245576Y406143D02*
Y407717D01*
X224212Y145622D02*
Y148378D01*
X223361Y142858D02*
Y143055D01*
Y124945D02*
Y125142D01*
X193439Y124945D02*
X223361D01*
X193439Y143055D02*
X223361D01*
X193439Y124945D02*
Y125142D01*
Y142858D02*
Y143055D01*
X202495Y124945D02*
Y143055D01*
X204661Y192309D02*
Y193491D01*
Y195546D02*
Y196728D01*
X31388Y144122D02*
Y146878D01*
X50006Y123845D02*
Y141955D01*
X59061Y123845D02*
Y124042D01*
Y141758D02*
Y141955D01*
X29139Y123845D02*
X59061D01*
X29139Y141955D02*
X59061D01*
X29139Y141758D02*
Y141955D01*
Y123845D02*
Y124042D01*
X80905Y322835D02*
Y325000D01*
X78740D02*
X80905D01*
X52953D02*
X55118D01*
X52953Y322835D02*
Y325000D01*
Y297047D02*
Y299213D01*
Y297047D02*
X55118D01*
X78740D02*
X80905D01*
Y299213D01*
X280698Y435487D02*
X285423D01*
X280698Y441787D02*
X285423D01*
X128706Y365649D02*
X146816D01*
X146619Y374704D02*
X146816D01*
X128706D02*
X128902D01*
X146816Y344783D02*
Y374704D01*
X128706Y344783D02*
Y374704D01*
Y344783D02*
X128902D01*
X146619D02*
X146816D01*
X191142Y204724D02*
Y206890D01*
X188976D02*
X191142D01*
X163189D02*
X165354D01*
X163189Y204724D02*
Y206890D01*
Y178937D02*
Y181102D01*
Y178937D02*
X165354D01*
X188976D02*
X191142D01*
Y181102D01*
X279443Y345053D02*
X282592D01*
X279443Y339147D02*
X282592D01*
X191142Y86614D02*
Y88779D01*
X188976D02*
X191142D01*
X163189D02*
X165354D01*
X163189Y86614D02*
Y88779D01*
Y60827D02*
Y62992D01*
Y60827D02*
X165354D01*
X188976D02*
X191142D01*
Y62992D01*
X80905Y86614D02*
Y88779D01*
X78740D02*
X80905D01*
X52953D02*
X55118D01*
X52953Y86614D02*
Y88779D01*
Y60827D02*
Y62992D01*
Y60827D02*
X55118D01*
X78740D02*
X80905D01*
Y62992D01*
Y204724D02*
Y206890D01*
X78740D02*
X80905D01*
X52953D02*
X55118D01*
X52953Y204724D02*
Y206890D01*
Y178937D02*
Y181102D01*
Y178937D02*
X55118D01*
X78740D02*
X80905D01*
Y181102D01*
X189536Y459662D02*
X198985D01*
Y462812D01*
X189536Y459662D02*
Y462812D01*
X217139Y400950D02*
Y402524D01*
X214383Y400950D02*
Y402524D01*
X219383Y407249D02*
X222139D01*
X284370Y36063D02*
X304370D01*
Y41063D01*
X284370Y36063D02*
Y41063D01*
X304370D01*
X287703Y22730D02*
Y36063D01*
Y22730D02*
X289370Y21063D01*
X291037Y22730D01*
X291037Y22730D02*
Y36063D01*
X297703Y22730D02*
Y36063D01*
Y22730D02*
X299370Y21063D01*
X301037Y22730D01*
Y36063D01*
X30039Y361945D02*
Y362142D01*
Y379858D02*
Y380055D01*
X59961D01*
X30039Y361945D02*
X59961D01*
Y379858D02*
Y380055D01*
Y361945D02*
Y362142D01*
X50906Y361945D02*
Y380055D01*
X80905Y415158D02*
Y417323D01*
X78740Y415158D02*
X80905D01*
X52953D02*
X55118D01*
X52953D02*
Y417323D01*
Y440945D02*
Y443110D01*
X55118D01*
X78740D02*
X80905D01*
Y440945D02*
Y443110D01*
X213898Y454938D02*
X218623D01*
X302047Y420425D02*
X307953D01*
Y423575D01*
X302047Y420425D02*
Y423575D01*
X280698Y426487D02*
X285423D01*
X280698Y432787D02*
X285423D01*
X201536Y459662D02*
X210985D01*
Y462812D01*
X201536Y459662D02*
Y462812D01*
X270756Y202211D02*
Y203392D01*
X279498Y209308D02*
X281698D01*
X290441Y202211D02*
Y203392D01*
X279498Y196295D02*
X281698D01*
X283329Y153244D02*
Y155016D01*
Y161906D02*
Y163691D01*
X278014Y163677D02*
X283329D01*
X278014Y153244D02*
X283329D01*
X259464Y73264D02*
X261629D01*
X259464D02*
Y75429D01*
X277771Y73264D02*
X279936D01*
Y75429D01*
X277771Y93736D02*
X279936D01*
Y91571D02*
Y93736D01*
X259464D02*
X261629D01*
X259464Y91571D02*
Y93736D01*
X272808Y247578D02*
X285013D01*
X272808Y244822D02*
X285013D01*
Y247578D01*
X272808Y244822D02*
Y247578D01*
X262316Y302211D02*
Y328589D01*
X276884D01*
Y302211D02*
Y328589D01*
X262316Y302211D02*
X276884D01*
X303650Y346038D02*
Y350762D01*
X309950Y346038D02*
Y350762D01*
D99*
X42611Y193700D02*
G03*
X42611Y193700I-1811J0D01*
G01*
X152511Y75500D02*
G03*
X152511Y75500I-1811J0D01*
G01*
Y193000D02*
G03*
X152511Y193000I-1811J0D01*
G01*
X42811Y75400D02*
G03*
X42811Y75400I-1811J0D01*
G01*
X43711Y311400D02*
G03*
X43711Y311400I-1811J0D01*
G01*
X43611Y429400D02*
G03*
X43611Y429400I-1811J0D01*
G01*
X38611Y17500D02*
G03*
X38611Y17500I-1811J0D01*
G01*
X299811Y315200D02*
G03*
X299811Y315200I-1811J0D01*
G01*
X239611Y366100D02*
G03*
X239611Y366100I-1811J0D01*
G01*
X41511Y478500D02*
G03*
X41511Y478500I-1811J0D01*
G01*
X69511D02*
G03*
X69511Y478500I-1811J0D01*
G01*
X97511D02*
G03*
X97511Y478500I-1811J0D01*
G01*
X274611Y276400D02*
G03*
X274611Y276400I-1811J0D01*
G01*
X35157Y187925D02*
X42244D01*
Y191075D01*
X35157D02*
X42244D01*
X35157Y187925D02*
Y191075D01*
X35157Y184422D02*
X42243D01*
X35157Y187178D02*
X42243D01*
Y184422D02*
Y187178D01*
X35157Y184422D02*
Y187178D01*
X38700Y185300D02*
Y186300D01*
X35457Y80822D02*
X42543D01*
X35457Y83578D02*
X42543D01*
Y80822D02*
Y83578D01*
X35457Y80822D02*
Y83578D01*
X39000Y81700D02*
Y82700D01*
X35457Y66822D02*
X42543D01*
X35457Y69578D02*
X42543D01*
Y66822D02*
Y69578D01*
X35457Y66822D02*
Y69578D01*
X39000Y67700D02*
Y68700D01*
X204957Y185578D02*
X212043D01*
X204957Y182822D02*
X212043D01*
X204957D02*
Y185578D01*
X212043Y182822D02*
Y185578D01*
X208500Y183700D02*
Y184700D01*
X204457Y177678D02*
X211543D01*
X204457Y174922D02*
X211543D01*
X204457D02*
Y177678D01*
X211543Y174922D02*
Y177678D01*
X208000Y175800D02*
Y176800D01*
X204557Y79678D02*
X211643D01*
X204557Y76922D02*
X211643D01*
X204557D02*
Y79678D01*
X211643Y76922D02*
Y79678D01*
X208100Y77800D02*
Y78800D01*
X204557Y76378D02*
X211643D01*
X204557Y73622D02*
X211643D01*
X204557D02*
Y76378D01*
X211643Y73622D02*
Y76378D01*
X208100Y74500D02*
Y75500D01*
X204557Y67578D02*
X211643D01*
X204557Y64822D02*
X211643D01*
X204557D02*
Y67578D01*
X211643Y64822D02*
Y67578D01*
X208100Y65700D02*
Y66700D01*
X204557Y58678D02*
X211643D01*
X204557Y55922D02*
X211643D01*
X204557D02*
Y58678D01*
X211643Y55922D02*
Y58678D01*
X208100Y56800D02*
Y57800D01*
X144957Y70125D02*
X152044D01*
Y73275D01*
X144957D02*
X152044D01*
X144957Y70125D02*
Y73275D01*
Y66322D02*
X152044D01*
X144957Y69078D02*
X152044D01*
Y66322D02*
Y69078D01*
X144957Y66322D02*
Y69078D01*
X148501Y67200D02*
Y68200D01*
X145457Y80622D02*
X152543D01*
X145457Y83378D02*
X152543D01*
Y80622D02*
Y83378D01*
X145457Y80622D02*
Y83378D01*
X149000Y81500D02*
Y82500D01*
X144817Y184222D02*
X151904D01*
X144817Y186978D02*
X151904D01*
Y184222D02*
Y186978D01*
X144817Y184222D02*
Y186978D01*
X148361Y185100D02*
Y186100D01*
X144817Y198222D02*
X151904D01*
X144817Y200978D02*
X151904D01*
Y198222D02*
Y200978D01*
X144817Y198222D02*
Y200978D01*
X148361Y199100D02*
Y200100D01*
X174483Y218488D02*
Y225575D01*
X177239Y218488D02*
Y225575D01*
X174483Y218488D02*
X177239D01*
X174483Y225575D02*
X177239D01*
X175361Y222031D02*
X176361D01*
X181583Y218488D02*
Y225575D01*
X184339Y218488D02*
Y225575D01*
X181583Y218488D02*
X184339D01*
X181583Y225575D02*
X184339D01*
X182461Y222031D02*
X183461D01*
X167783Y218488D02*
Y225575D01*
X170539Y218488D02*
Y225575D01*
X167783Y218488D02*
X170539D01*
X167783Y225575D02*
X170539D01*
X168661Y222031D02*
X169661D01*
X167783Y98624D02*
Y105710D01*
X170539Y98624D02*
Y105710D01*
X167783Y98624D02*
X170539D01*
X167783Y105710D02*
X170539D01*
X168661Y102167D02*
X169661D01*
X181583Y98624D02*
Y105710D01*
X184339Y98624D02*
Y105710D01*
X181583Y98624D02*
X184339D01*
X181583Y105710D02*
X184339D01*
X182461Y102167D02*
X183461D01*
X174483Y98624D02*
Y105710D01*
X177239Y98624D02*
Y105710D01*
X174483Y98624D02*
X177239D01*
X174483Y105710D02*
X177239D01*
X175361Y102167D02*
X176361D01*
X169339Y161194D02*
Y168280D01*
X166583Y161194D02*
Y168280D01*
X169339D01*
X166583Y161194D02*
X169339D01*
X167461Y164737D02*
X168461D01*
X176358Y161194D02*
Y168280D01*
X173602Y161194D02*
Y168280D01*
X176358D01*
X173602Y161194D02*
X176358D01*
X174480Y164737D02*
X175480D01*
X183378Y161194D02*
Y168280D01*
X180622Y161194D02*
Y168280D01*
X183378D01*
X180622Y161194D02*
X183378D01*
X181500Y164737D02*
X182500D01*
X60739Y42920D02*
Y50006D01*
X57983Y42920D02*
Y50006D01*
X60739D01*
X57983Y42920D02*
X60739D01*
X58861Y46463D02*
X59861D01*
X67439Y42920D02*
Y50006D01*
X64683Y42920D02*
Y50006D01*
X67439D01*
X64683Y42920D02*
X67439D01*
X65561Y46463D02*
X66561D01*
X74939Y42920D02*
Y50006D01*
X72183Y42920D02*
Y50006D01*
X74939D01*
X72183Y42920D02*
X74939D01*
X73061Y46463D02*
X74061D01*
X94657Y58578D02*
X101743D01*
X94657Y55822D02*
X101743D01*
X94657D02*
Y58578D01*
X101743Y55822D02*
Y58578D01*
X98200Y56700D02*
Y57700D01*
X94657Y67478D02*
X101743D01*
X94657Y64722D02*
X101743D01*
X94657D02*
Y67478D01*
X101743Y64722D02*
Y67478D01*
X98200Y65600D02*
Y66600D01*
X94657Y79578D02*
X101743D01*
X94657Y76822D02*
X101743D01*
X94657D02*
Y79578D01*
X101743Y76822D02*
Y79578D01*
X98200Y77700D02*
Y78700D01*
X94657Y76278D02*
X101743D01*
X94657Y73522D02*
X101743D01*
X94657D02*
Y76278D01*
X101743Y73522D02*
Y76278D01*
X98200Y74400D02*
Y75400D01*
X35457Y70125D02*
X42543D01*
Y73275D01*
X35457D02*
X42543D01*
X35457Y70125D02*
Y73275D01*
X57922Y98624D02*
Y105710D01*
X60678Y98624D02*
Y105710D01*
X57922Y98624D02*
X60678D01*
X57922Y105710D02*
X60678D01*
X58800Y102167D02*
X59800D01*
X72122Y98624D02*
Y105710D01*
X74878Y98624D02*
Y105710D01*
X72122Y98624D02*
X74878D01*
X72122Y105710D02*
X74878D01*
X73000Y102167D02*
X74000D01*
X64722Y98624D02*
Y105710D01*
X67478Y98624D02*
Y105710D01*
X64722Y98624D02*
X67478D01*
X64722Y105710D02*
X67478D01*
X65600Y102167D02*
X66600D01*
X61378Y157957D02*
Y165043D01*
X58622Y157957D02*
Y165043D01*
X61378D01*
X58622Y157957D02*
X61378D01*
X59500Y161500D02*
X60500D01*
X94817Y176678D02*
X101904D01*
X94817Y173922D02*
X101904D01*
X94817D02*
Y176678D01*
X101904Y173922D02*
Y176678D01*
X98361Y174800D02*
Y175800D01*
X94817Y185578D02*
X101904D01*
X94817Y182822D02*
X101904D01*
X94817D02*
Y185578D01*
X101904Y182822D02*
Y185578D01*
X98361Y183700D02*
Y184700D01*
X94817Y197515D02*
X101904D01*
X94817Y194759D02*
X101904D01*
X94817D02*
Y197515D01*
X101904Y194759D02*
Y197515D01*
X98361Y195637D02*
Y196637D01*
X94817Y194278D02*
X101904D01*
X94817Y191522D02*
X101904D01*
X94817D02*
Y194278D01*
X101904Y191522D02*
Y194278D01*
X98361Y192400D02*
Y193400D01*
X35157Y198622D02*
X42244D01*
X35157Y201378D02*
X42244D01*
Y198622D02*
Y201378D01*
X35157Y198622D02*
Y201378D01*
X38701Y199500D02*
Y200500D01*
X65083Y218488D02*
Y225575D01*
X67839Y218488D02*
Y225575D01*
X65083Y218488D02*
X67839D01*
X65083Y225575D02*
X67839D01*
X65961Y222031D02*
X66961D01*
X57983Y218488D02*
Y225575D01*
X60739Y218488D02*
Y225575D01*
X57983Y218488D02*
X60739D01*
X57983Y225575D02*
X60739D01*
X58861Y222031D02*
X59861D01*
X72183Y218488D02*
Y225575D01*
X74939Y218488D02*
Y225575D01*
X72183Y218488D02*
X74939D01*
X72183Y225575D02*
X74939D01*
X73061Y222031D02*
X74061D01*
X36117Y302359D02*
X43204D01*
X36117Y305115D02*
X43204D01*
Y302359D02*
Y305115D01*
X36117Y302359D02*
Y305115D01*
X39661Y303237D02*
Y304237D01*
X36117Y305662D02*
X43204D01*
Y308812D01*
X36117D02*
X43204D01*
X36117Y305662D02*
Y308812D01*
Y316959D02*
X43204D01*
X36117Y319715D02*
X43204D01*
Y316959D02*
Y319715D01*
X36117Y316959D02*
Y319715D01*
X39661Y317837D02*
Y318837D01*
X61539Y279294D02*
Y286380D01*
X58783Y279294D02*
Y286380D01*
X61539D01*
X58783Y279294D02*
X61539D01*
X59661Y282837D02*
X60661D01*
X68239Y279294D02*
Y286380D01*
X65483Y279294D02*
Y286380D01*
X68239D01*
X65483Y279294D02*
X68239D01*
X66361Y282837D02*
X67361D01*
X74939Y279294D02*
Y286380D01*
X72183Y279294D02*
Y286380D01*
X74939D01*
X72183Y279294D02*
X74939D01*
X73061Y282837D02*
X74061D01*
X94657Y294715D02*
X101744D01*
X94657Y291959D02*
X101744D01*
X94657D02*
Y294715D01*
X101744Y291959D02*
Y294715D01*
X98201Y292837D02*
Y293837D01*
X94657Y312615D02*
X101744D01*
X94657Y309859D02*
X101744D01*
X94657D02*
Y312615D01*
X101744Y309859D02*
Y312615D01*
X98201Y310737D02*
Y311737D01*
X94657Y315915D02*
X101744D01*
X94657Y313159D02*
X101744D01*
X94657D02*
Y315915D01*
X101744Y313159D02*
Y315915D01*
X98201Y314037D02*
Y315037D01*
X65483Y335394D02*
Y342480D01*
X68239Y335394D02*
Y342480D01*
X65483Y335394D02*
X68239D01*
X65483Y342480D02*
X68239D01*
X66361Y338937D02*
X67361D01*
X57983Y335394D02*
Y342480D01*
X60739Y335394D02*
Y342480D01*
X57983Y335394D02*
X60739D01*
X57983Y342480D02*
X60739D01*
X58861Y338937D02*
X59861D01*
X72183Y335394D02*
Y342480D01*
X74939Y335394D02*
Y342480D01*
X72183Y335394D02*
X74939D01*
X72183Y342480D02*
X74939D01*
X73061Y338937D02*
X74061D01*
X74939Y397994D02*
Y405080D01*
X72183Y397994D02*
Y405080D01*
X74939D01*
X72183Y397994D02*
X74939D01*
X73061Y401537D02*
X74061D01*
X67439Y397994D02*
Y405080D01*
X64683Y397994D02*
Y405080D01*
X67439D01*
X64683Y397994D02*
X67439D01*
X65561Y401537D02*
X66561D01*
X60739Y397994D02*
Y405080D01*
X57983Y397994D02*
Y405080D01*
X60739D01*
X57983Y397994D02*
X60739D01*
X58861Y401537D02*
X59861D01*
X36277Y420659D02*
X43364D01*
X36277Y423415D02*
X43364D01*
Y420659D02*
Y423415D01*
X36277Y420659D02*
Y423415D01*
X39821Y421537D02*
Y422537D01*
X36277Y423862D02*
X43364D01*
Y427012D01*
X36277D02*
X43364D01*
X36277Y423862D02*
Y427012D01*
Y435359D02*
X43364D01*
X36277Y438115D02*
X43364D01*
Y435359D02*
Y438115D01*
X36277Y435359D02*
Y438115D01*
X39821Y436237D02*
Y437237D01*
X64683Y452894D02*
Y459980D01*
X67439Y452894D02*
Y459980D01*
X64683Y452894D02*
X67439D01*
X64683Y459980D02*
X67439D01*
X65561Y456437D02*
X66561D01*
X57983Y452894D02*
Y459980D01*
X60739Y452894D02*
Y459980D01*
X57983Y452894D02*
X60739D01*
X57983Y459980D02*
X60739D01*
X58861Y456437D02*
X59861D01*
X72183Y452894D02*
Y459980D01*
X74939Y452894D02*
Y459980D01*
X72183Y452894D02*
X74939D01*
X72183Y459980D02*
X74939D01*
X73061Y456437D02*
X74061D01*
X94717Y412612D02*
X101804D01*
X94717Y409856D02*
X101804D01*
X94717D02*
Y412612D01*
X101804Y409856D02*
Y412612D01*
X98261Y410734D02*
Y411734D01*
X94717Y421812D02*
X101804D01*
X94717Y419056D02*
X101804D01*
X94717D02*
Y421812D01*
X101804Y419056D02*
Y421812D01*
X98261Y419934D02*
Y420934D01*
X94717Y430662D02*
X101804D01*
X94717Y427906D02*
X101804D01*
X94717D02*
Y430662D01*
X101804Y427906D02*
Y430662D01*
X98261Y428784D02*
Y429784D01*
X94717Y433912D02*
X101804D01*
X94717Y431156D02*
X101804D01*
X94717D02*
Y433912D01*
X101804Y431156D02*
Y433912D01*
X98261Y432034D02*
Y433034D01*
X288891Y331535D02*
Y335865D01*
X279443D02*
X288891D01*
X279443Y331535D02*
X288891D01*
X279443D02*
Y335865D01*
X288891Y338360D02*
Y345840D01*
X273143D02*
X288891D01*
X273143Y338360D02*
X288891D01*
X273143D02*
Y345840D01*
X295325Y209157D02*
Y216243D01*
Y209157D02*
X298475D01*
Y216243D01*
X295325D02*
X298475D01*
X266957Y193675D02*
X274043D01*
X266957Y190525D02*
Y193675D01*
Y190525D02*
X274043D01*
Y193675D01*
X295522Y198957D02*
Y206043D01*
X298278Y198957D02*
Y206043D01*
X295522Y198957D02*
X298278D01*
X295522Y206043D02*
X298278D01*
X296400Y202500D02*
X297400D01*
X299422Y209057D02*
Y216143D01*
X302178Y209057D02*
Y216143D01*
X299422Y209057D02*
X302178D01*
X299422Y216143D02*
X302178D01*
X300300Y212600D02*
X301300D01*
X42624Y381935D02*
Y386265D01*
X33176D02*
X42624D01*
X33176Y381935D02*
X42624D01*
X33176D02*
Y386265D01*
X94657Y303315D02*
X101744D01*
X94657Y300559D02*
X101744D01*
X94657D02*
Y303315D01*
X101744Y300559D02*
Y303315D01*
X98201Y301437D02*
Y302437D01*
X291886Y447662D02*
X303602D01*
X291886Y446162D02*
Y447662D01*
X276886Y446162D02*
X291886D01*
X276886Y444162D02*
Y446162D01*
X268244Y444162D02*
X276886D01*
X303677Y447662D02*
Y502430D01*
X268244Y444162D02*
Y502430D01*
X303677D01*
X68158Y158020D02*
Y165106D01*
X65402Y158020D02*
Y165106D01*
X68158D01*
X65402Y158020D02*
X68158D01*
X66280Y161563D02*
X67280D01*
X75378Y158020D02*
Y165106D01*
X72622Y158020D02*
Y165106D01*
X75378D01*
X72622Y158020D02*
X75378D01*
X73500Y161563D02*
X74500D01*
X184378Y43457D02*
Y50543D01*
X181622Y43457D02*
Y50543D01*
X184378D01*
X181622Y43457D02*
X184378D01*
X182500Y47000D02*
X183500D01*
X177378Y43457D02*
Y50543D01*
X174622Y43457D02*
Y50543D01*
X177378D01*
X174622Y43457D02*
X177378D01*
X175500Y47000D02*
X176500D01*
X170378Y43457D02*
Y50543D01*
X167622Y43457D02*
Y50543D01*
X170378D01*
X167622Y43457D02*
X170378D01*
X168500Y47000D02*
X169500D01*
D100*
X191372Y143055D02*
G03*
X191372Y143055I-492J0D01*
G01*
X62112Y123845D02*
G03*
X62112Y123845I-492J0D01*
G01*
X83913Y298524D02*
G03*
X83913Y298524I-492J0D01*
G01*
X147308Y377263D02*
G03*
X147308Y377263I-492J0D01*
G01*
X194150Y180413D02*
G03*
X194150Y180413I-492J0D01*
G01*
Y62303D02*
G03*
X194150Y62303I-492J0D01*
G01*
X83913D02*
G03*
X83913Y62303I-492J0D01*
G01*
Y180413D02*
G03*
X83913Y180413I-492J0D01*
G01*
X63012Y361945D02*
G03*
X63012Y361945I-492J0D01*
G01*
X83913Y416634D02*
G03*
X83913Y416634I-492J0D01*
G01*
X292259Y212286D02*
G03*
X292259Y212286I-492J0D01*
G01*
X274963Y166236D02*
G03*
X274963Y166236I-492J0D01*
G01*
X261531Y71098D02*
G03*
X261531Y71098I-492J0D01*
G01*
X272218Y241476D02*
G03*
X272218Y241476I-492J0D01*
G01*
X288596Y306345D02*
G03*
X288596Y306345I-492J0D01*
G01*
D101*
X224100Y393000D02*
G03*
X224100Y393000I-2000J0D01*
G01*
D102*
X273794Y8176D02*
X276156D01*
X275073Y6011D02*
Y10342D01*
X246727Y6011D02*
Y10342D01*
X245644Y8176D02*
X248006D01*
X245152Y-2965D02*
X245939D01*
X275861D02*
X276648D01*
X275270Y-209D02*
X275861Y-2965D01*
X245939D02*
X246530Y-209D01*
X274679Y-2965D02*
X275270Y-209D01*
X246530D02*
X247120Y-2965D01*
X276058Y-209D02*
X276648Y-2965D01*
X245152D02*
X245743Y-209D01*
Y20657D02*
X276058D01*
X245743Y-209D02*
Y20657D01*
X276058Y-209D02*
Y20657D01*
X254995Y15429D02*
X256569D01*
X257554D02*
X259128D01*
X260113D02*
X261687D01*
X262672D02*
X264247D01*
X265231D02*
X266806D01*
X247120Y-2965D02*
X274679D01*
X245743Y-209D02*
X276058D01*
X246136Y19200D02*
X249679D01*
X247908Y18216D02*
Y20184D01*
X272120Y19200D02*
X275664D01*
X273892Y18216D02*
Y20184D01*
D103*
X252600Y303749D02*
Y301125D01*
X253125Y300600D01*
X254174D01*
X254699Y301125D01*
Y303749D01*
X255749Y300600D02*
X256798D01*
X256273D01*
Y303749D01*
X255749Y303224D01*
X260472Y300600D02*
X258372D01*
X260472Y302699D01*
Y303224D01*
X259947Y303749D01*
X258897D01*
X258372Y303224D01*
X263200Y247749D02*
Y245125D01*
X263725Y244600D01*
X264774D01*
X265299Y245125D01*
Y247749D01*
X266349Y244600D02*
X267398D01*
X266873D01*
Y247749D01*
X266349Y247224D01*
X268972Y244600D02*
X270022D01*
X269497D01*
Y247749D01*
X268972Y247224D01*
X17861Y273637D02*
Y276786D01*
X18910Y275736D01*
X19960Y276786D01*
Y273637D01*
X21009D02*
Y275736D01*
X22059Y276786D01*
X23108Y275736D01*
Y273637D01*
Y275211D01*
X21009D01*
X26257Y276261D02*
X25732Y276786D01*
X24683D01*
X24158Y276261D01*
Y275736D01*
X24683Y275211D01*
X25732D01*
X26257Y274687D01*
Y274162D01*
X25732Y273637D01*
X24683D01*
X24158Y274162D01*
X27306Y276786D02*
Y273637D01*
Y274687D01*
X29406Y276786D01*
X27831Y275211D01*
X29406Y273637D01*
X32554D02*
X30455D01*
X32554Y275736D01*
Y276261D01*
X32029Y276786D01*
X30980D01*
X30455Y276261D01*
X289800Y320824D02*
X290325Y321349D01*
X291374D01*
X291899Y320824D01*
Y320299D01*
X291374Y319774D01*
X290849D01*
X291374D01*
X291899Y319250D01*
Y318725D01*
X291374Y318200D01*
X290325D01*
X289800Y318725D01*
X292949Y318200D02*
Y318725D01*
X293473D01*
Y318200D01*
X292949D01*
X295572Y320824D02*
X296097Y321349D01*
X297147D01*
X297672Y320824D01*
Y320299D01*
X297147Y319774D01*
X296622D01*
X297147D01*
X297672Y319250D01*
Y318725D01*
X297147Y318200D01*
X296097D01*
X295572Y318725D01*
X298721Y321349D02*
Y319250D01*
X299770Y318200D01*
X300820Y319250D01*
Y321349D01*
X302394Y320299D02*
X303444D01*
X303969Y319774D01*
Y318200D01*
X302394D01*
X301870Y318725D01*
X302394Y319250D01*
X303969D01*
X100261Y476937D02*
Y479036D01*
X101310Y480086D01*
X102360Y479036D01*
Y476937D01*
Y478511D01*
X100261D01*
X103409Y476937D02*
X104459D01*
X103934D01*
Y480086D01*
X103409Y479561D01*
X106033Y476937D02*
Y477462D01*
X106558D01*
Y476937D01*
X106033D01*
X110756D02*
X108657D01*
X110756Y479036D01*
Y479561D01*
X110231Y480086D01*
X109182D01*
X108657Y479561D01*
X111805Y480086D02*
Y477986D01*
X112855Y476937D01*
X113905Y477986D01*
Y480086D01*
X114954D02*
Y476937D01*
X116528D01*
X117053Y477462D01*
Y477986D01*
Y478511D01*
X116528Y479036D01*
X114954D01*
X298600Y239000D02*
Y242149D01*
X300174D01*
X300699Y241624D01*
Y240574D01*
X300174Y240050D01*
X298600D01*
X299650D02*
X300699Y239000D01*
X303323D02*
Y242149D01*
X301749Y240574D01*
X303848D01*
X304897Y239000D02*
X305947D01*
X305422D01*
Y242149D01*
X304897Y241624D01*
X288000Y238900D02*
Y242049D01*
X289574D01*
X290099Y241524D01*
Y240474D01*
X289574Y239949D01*
X288000D01*
X289050D02*
X290099Y238900D01*
X292723D02*
Y242049D01*
X291149Y240474D01*
X293248D01*
X294297Y241524D02*
X294822Y242049D01*
X295871D01*
X296396Y241524D01*
Y239425D01*
X295871Y238900D01*
X294822D01*
X294297Y239425D01*
Y241524D01*
X259899Y286924D02*
X259374Y287449D01*
X258325D01*
X257800Y286924D01*
Y284825D01*
X258325Y284300D01*
X259374D01*
X259899Y284825D01*
X260949Y284300D02*
X261998D01*
X261473D01*
Y287449D01*
X260949Y286924D01*
X265147Y284300D02*
Y287449D01*
X263572Y285874D01*
X265671D01*
X268820Y287449D02*
X266721D01*
Y285874D01*
X267771Y286399D01*
X268295D01*
X268820Y285874D01*
Y284825D01*
X268295Y284300D01*
X267246D01*
X266721Y284825D01*
X268499Y297324D02*
X267974Y297849D01*
X266925D01*
X266400Y297324D01*
Y295225D01*
X266925Y294700D01*
X267974D01*
X268499Y295225D01*
X269549Y294700D02*
X270598D01*
X270073D01*
Y297849D01*
X269549Y297324D01*
X273747Y294700D02*
Y297849D01*
X272172Y296274D01*
X274271D01*
X276895Y294700D02*
Y297849D01*
X275321Y296274D01*
X277420D01*
X291199Y227724D02*
X290674Y228249D01*
X289625D01*
X289100Y227724D01*
Y225625D01*
X289625Y225100D01*
X290674D01*
X291199Y225625D01*
X292249Y225100D02*
X293298D01*
X292773D01*
Y228249D01*
X292249Y227724D01*
X296447Y225100D02*
Y228249D01*
X294872Y226674D01*
X296972D01*
X298021Y227724D02*
X298546Y228249D01*
X299595D01*
X300120Y227724D01*
Y227199D01*
X299595Y226674D01*
X299071D01*
X299595D01*
X300120Y226150D01*
Y225625D01*
X299595Y225100D01*
X298546D01*
X298021Y225625D01*
X261616Y117836D02*
Y120985D01*
X262666Y119935D01*
X263716Y120985D01*
Y117836D01*
X264765D02*
Y119935D01*
X265815Y120985D01*
X266864Y119935D01*
Y117836D01*
Y119411D01*
X264765D01*
X270013Y120460D02*
X269488Y120985D01*
X268439D01*
X267914Y120460D01*
Y119935D01*
X268439Y119411D01*
X269488D01*
X270013Y118886D01*
Y118361D01*
X269488Y117836D01*
X268439D01*
X267914Y118361D01*
X271062Y120985D02*
Y117836D01*
Y118886D01*
X273161Y120985D01*
X271587Y119411D01*
X273161Y117836D01*
X274211D02*
X275260D01*
X274736D01*
Y120985D01*
X274211Y120460D01*
X263399Y342824D02*
X262874Y343349D01*
X261825D01*
X261300Y342824D01*
Y340725D01*
X261825Y340200D01*
X262874D01*
X263399Y340725D01*
X264449Y340200D02*
X265498D01*
X264973D01*
Y343349D01*
X264449Y342824D01*
X268647Y340200D02*
Y343349D01*
X267072Y341774D01*
X269172D01*
X270221Y340200D02*
X271270D01*
X270746D01*
Y343349D01*
X270221Y342824D01*
X286299Y235224D02*
X285774Y235749D01*
X284725D01*
X284200Y235224D01*
Y233125D01*
X284725Y232600D01*
X285774D01*
X286299Y233125D01*
X287349Y232600D02*
X288398D01*
X287873D01*
Y235749D01*
X287349Y235224D01*
X291547Y232600D02*
Y235749D01*
X289972Y234174D01*
X292072D01*
X293121Y235224D02*
X293646Y235749D01*
X294695D01*
X295220Y235224D01*
Y233125D01*
X294695Y232600D01*
X293646D01*
X293121Y233125D01*
Y235224D01*
X65176Y466299D02*
X64651Y465774D01*
Y464725D01*
X65176Y464200D01*
X67275D01*
X67800Y464725D01*
Y465774D01*
X67275Y466299D01*
X67800Y469448D02*
Y467349D01*
X65701Y469448D01*
X65176D01*
X64651Y468923D01*
Y467873D01*
X65176Y467349D01*
X67800Y470497D02*
Y471547D01*
Y471022D01*
X64651D01*
X65176Y470497D01*
X58076Y466199D02*
X57551Y465674D01*
Y464625D01*
X58076Y464100D01*
X60175D01*
X60700Y464625D01*
Y465674D01*
X60175Y466199D01*
X60700Y469348D02*
Y467249D01*
X58601Y469348D01*
X58076D01*
X57551Y468823D01*
Y467773D01*
X58076Y467249D01*
Y470397D02*
X57551Y470922D01*
Y471972D01*
X58076Y472496D01*
X60175D01*
X60700Y471972D01*
Y470922D01*
X60175Y470397D01*
X58076D01*
X194315Y168615D02*
Y171239D01*
X193791Y171763D01*
X192741D01*
X192216Y171239D01*
Y168615D01*
X191167D02*
X189068D01*
Y169140D01*
X191167Y171239D01*
Y171763D01*
X194315Y50505D02*
Y53128D01*
X193791Y53653D01*
X192741D01*
X192216Y53128D01*
Y50505D01*
X189068D02*
X190117Y51029D01*
X191167Y52079D01*
Y53128D01*
X190642Y53653D01*
X189593D01*
X189068Y53128D01*
Y52604D01*
X189593Y52079D01*
X191167D01*
X85000Y96149D02*
Y93525D01*
X85525Y93000D01*
X86574D01*
X87099Y93525D01*
Y96149D01*
X90248D02*
X88149D01*
Y94574D01*
X89198Y95099D01*
X89723D01*
X90248Y94574D01*
Y93525D01*
X89723Y93000D01*
X88673D01*
X88149Y93525D01*
X85000Y214149D02*
Y211525D01*
X85525Y211000D01*
X86574D01*
X87099Y211525D01*
Y214149D01*
X89723Y211000D02*
Y214149D01*
X88149Y212574D01*
X90248D01*
X132000Y196149D02*
X134099D01*
X133049D01*
Y193000D01*
X135149D02*
Y196149D01*
X136723D01*
X137248Y195624D01*
Y194574D01*
X136723Y194050D01*
X135149D01*
X140396Y196149D02*
X139347Y195624D01*
X138297Y194574D01*
Y193525D01*
X138822Y193000D01*
X139872D01*
X140396Y193525D01*
Y194050D01*
X139872Y194574D01*
X138297D01*
X131890Y77086D02*
X133989D01*
X132939D01*
Y73937D01*
X135038D02*
Y77086D01*
X136613D01*
X137137Y76561D01*
Y75511D01*
X136613Y74986D01*
X135038D01*
X140286Y77086D02*
X138187D01*
Y75511D01*
X139236Y76036D01*
X139761D01*
X140286Y75511D01*
Y74462D01*
X139761Y73937D01*
X138712D01*
X138187Y74462D01*
X24000Y78149D02*
X26099D01*
X25049D01*
Y75000D01*
X27149D02*
Y78149D01*
X28723D01*
X29248Y77624D01*
Y76574D01*
X28723Y76050D01*
X27149D01*
X31872Y75000D02*
Y78149D01*
X30297Y76574D01*
X32396D01*
X24000Y196149D02*
X26099D01*
X25049D01*
Y193000D01*
X27149D02*
Y196149D01*
X28723D01*
X29248Y195624D01*
Y194574D01*
X28723Y194050D01*
X27149D01*
X30297Y195624D02*
X30822Y196149D01*
X31872D01*
X32396Y195624D01*
Y195099D01*
X31872Y194574D01*
X31347D01*
X31872D01*
X32396Y194050D01*
Y193525D01*
X31872Y193000D01*
X30822D01*
X30297Y193525D01*
X23000Y313149D02*
X25099D01*
X24049D01*
Y310000D01*
X26149D02*
Y313149D01*
X27723D01*
X28248Y312624D01*
Y311574D01*
X27723Y311050D01*
X26149D01*
X31396Y310000D02*
X29297D01*
X31396Y312099D01*
Y312624D01*
X30871Y313149D01*
X29822D01*
X29297Y312624D01*
X30600Y432849D02*
X32699D01*
X31650D01*
Y429700D01*
X33749D02*
Y432849D01*
X35323D01*
X35848Y432324D01*
Y431274D01*
X35323Y430750D01*
X33749D01*
X36897Y429700D02*
X37947D01*
X37422D01*
Y432849D01*
X36897Y432324D01*
X219000Y177000D02*
Y180149D01*
X220574D01*
X221099Y179624D01*
Y178574D01*
X220574Y178050D01*
X219000D01*
X220050D02*
X221099Y177000D01*
X224248D02*
X222149D01*
X224248Y179099D01*
Y179624D01*
X223723Y180149D01*
X222673D01*
X222149Y179624D01*
X225297Y177525D02*
X225822Y177000D01*
X226871D01*
X227396Y177525D01*
Y179624D01*
X226871Y180149D01*
X225822D01*
X225297Y179624D01*
Y179099D01*
X225822Y178574D01*
X227396D01*
X219000Y187000D02*
Y190149D01*
X220574D01*
X221099Y189624D01*
Y188574D01*
X220574Y188049D01*
X219000D01*
X220050D02*
X221099Y187000D01*
X224248D02*
X222149D01*
X224248Y189099D01*
Y189624D01*
X223723Y190149D01*
X222673D01*
X222149Y189624D01*
X225297D02*
X225822Y190149D01*
X226871D01*
X227396Y189624D01*
Y189099D01*
X226871Y188574D01*
X227396Y188049D01*
Y187525D01*
X226871Y187000D01*
X225822D01*
X225297Y187525D01*
Y188049D01*
X225822Y188574D01*
X225297Y189099D01*
Y189624D01*
X225822Y188574D02*
X226871D01*
X226378Y69037D02*
Y72186D01*
X227952D01*
X228477Y71661D01*
Y70611D01*
X227952Y70086D01*
X226378D01*
X227428D02*
X228477Y69037D01*
X231626D02*
X229526D01*
X231626Y71136D01*
Y71661D01*
X231101Y72186D01*
X230051D01*
X229526Y71661D01*
X234774Y72186D02*
X232675D01*
Y70611D01*
X233725Y71136D01*
X234249D01*
X234774Y70611D01*
Y69562D01*
X234249Y69037D01*
X233200D01*
X232675Y69562D01*
X131890Y70137D02*
Y73286D01*
X133464D01*
X133989Y72761D01*
Y71711D01*
X133464Y71187D01*
X131890D01*
X132939D02*
X133989Y70137D01*
X137137D02*
X135038D01*
X137137Y72236D01*
Y72761D01*
X136613Y73286D01*
X135563D01*
X135038Y72761D01*
X139761Y70137D02*
Y73286D01*
X138187Y71711D01*
X140286D01*
X118110Y60037D02*
Y63186D01*
X119685D01*
X120209Y62661D01*
Y61611D01*
X119685Y61086D01*
X118110D01*
X119160D02*
X120209Y60037D01*
X123358D02*
X121259D01*
X123358Y62136D01*
Y62661D01*
X122833Y63186D01*
X121784D01*
X121259Y62661D01*
X124407D02*
X124932Y63186D01*
X125982D01*
X126506Y62661D01*
Y62136D01*
X125982Y61611D01*
X125457D01*
X125982D01*
X126506Y61086D01*
Y60562D01*
X125982Y60037D01*
X124932D01*
X124407Y60562D01*
X24000Y70137D02*
Y73286D01*
X25574D01*
X26099Y72761D01*
Y71711D01*
X25574Y71187D01*
X24000D01*
X25049D02*
X26099Y70137D01*
X29248D02*
X27149D01*
X29248Y72236D01*
Y72761D01*
X28723Y73286D01*
X27673D01*
X27149Y72761D01*
X30297Y70137D02*
X31347D01*
X30822D01*
Y73286D01*
X30297Y72761D01*
X118110Y178237D02*
Y181386D01*
X119685D01*
X120209Y180861D01*
Y179811D01*
X119685Y179287D01*
X118110D01*
X119160D02*
X120209Y178237D01*
X123358D02*
X121259D01*
X123358Y180336D01*
Y180861D01*
X122833Y181386D01*
X121784D01*
X121259Y180861D01*
X124407D02*
X124932Y181386D01*
X125982D01*
X126506Y180861D01*
Y178762D01*
X125982Y178237D01*
X124932D01*
X124407Y178762D01*
Y180861D01*
X118110Y187037D02*
Y190186D01*
X119685D01*
X120209Y189661D01*
Y188611D01*
X119685Y188086D01*
X118110D01*
X119160D02*
X120209Y187037D01*
X121259D02*
X122308D01*
X121784D01*
Y190186D01*
X121259Y189661D01*
X123883Y187562D02*
X124407Y187037D01*
X125457D01*
X125982Y187562D01*
Y189661D01*
X125457Y190186D01*
X124407D01*
X123883Y189661D01*
Y189136D01*
X124407Y188611D01*
X125982D01*
X24000Y188000D02*
Y191149D01*
X25574D01*
X26099Y190624D01*
Y189574D01*
X25574Y189049D01*
X24000D01*
X25049D02*
X26099Y188000D01*
X27149D02*
X28198D01*
X27673D01*
Y191149D01*
X27149Y190624D01*
X29772D02*
X30297Y191149D01*
X31347D01*
X31872Y190624D01*
Y190099D01*
X31347Y189574D01*
X31872Y189049D01*
Y188525D01*
X31347Y188000D01*
X30297D01*
X29772Y188525D01*
Y189049D01*
X30297Y189574D01*
X29772Y190099D01*
Y190624D01*
X30297Y189574D02*
X31347D01*
X118000Y297000D02*
Y300149D01*
X119574D01*
X120099Y299624D01*
Y298574D01*
X119574Y298049D01*
X118000D01*
X119050D02*
X120099Y297000D01*
X121149D02*
X122198D01*
X121673D01*
Y300149D01*
X121149Y299624D01*
X123772Y300149D02*
X125872D01*
Y299624D01*
X123772Y297525D01*
Y297000D01*
X118000Y305000D02*
Y308149D01*
X119574D01*
X120099Y307624D01*
Y306574D01*
X119574Y306049D01*
X118000D01*
X119050D02*
X120099Y305000D01*
X121149D02*
X122198D01*
X121673D01*
Y308149D01*
X121149Y307624D01*
X125872Y308149D02*
X124822Y307624D01*
X123772Y306574D01*
Y305525D01*
X124297Y305000D01*
X125347D01*
X125872Y305525D01*
Y306049D01*
X125347Y306574D01*
X123772D01*
X24000Y305000D02*
Y308149D01*
X25574D01*
X26099Y307624D01*
Y306574D01*
X25574Y306049D01*
X24000D01*
X25049D02*
X26099Y305000D01*
X27149D02*
X28198D01*
X27673D01*
Y308149D01*
X27149Y307624D01*
X31872Y308149D02*
X29772D01*
Y306574D01*
X30822Y307099D01*
X31347D01*
X31872Y306574D01*
Y305525D01*
X31347Y305000D01*
X30297D01*
X29772Y305525D01*
X116900Y413600D02*
Y416749D01*
X118474D01*
X118999Y416224D01*
Y415174D01*
X118474Y414649D01*
X116900D01*
X117949D02*
X118999Y413600D01*
X120049D02*
X121098D01*
X120573D01*
Y416749D01*
X120049Y416224D01*
X124247Y413600D02*
Y416749D01*
X122672Y415174D01*
X124771D01*
X116900Y423100D02*
Y426249D01*
X118474D01*
X118999Y425724D01*
Y424674D01*
X118474Y424150D01*
X116900D01*
X117949D02*
X118999Y423100D01*
X120049D02*
X121098D01*
X120573D01*
Y426249D01*
X120049Y425724D01*
X122672D02*
X123197Y426249D01*
X124247D01*
X124771Y425724D01*
Y425199D01*
X124247Y424674D01*
X123722D01*
X124247D01*
X124771Y424150D01*
Y423625D01*
X124247Y423100D01*
X123197D01*
X122672Y423625D01*
X24200Y424000D02*
Y427149D01*
X25774D01*
X26299Y426624D01*
Y425574D01*
X25774Y425049D01*
X24200D01*
X25249D02*
X26299Y424000D01*
X27349D02*
X28398D01*
X27873D01*
Y427149D01*
X27349Y426624D01*
X32072Y424000D02*
X29972D01*
X32072Y426099D01*
Y426624D01*
X31547Y427149D01*
X30497D01*
X29972Y426624D01*
X221099Y204624D02*
X220574Y205149D01*
X219525D01*
X219000Y204624D01*
Y202525D01*
X219525Y202000D01*
X220574D01*
X221099Y202525D01*
X222149Y202000D02*
X223198D01*
X222673D01*
Y205149D01*
X222149Y204624D01*
X226871Y202000D02*
X224772D01*
X226871Y204099D01*
Y204624D01*
X226347Y205149D01*
X225297D01*
X224772Y204624D01*
X230020Y205149D02*
X227921D01*
Y203574D01*
X228971Y204099D01*
X229495D01*
X230020Y203574D01*
Y202525D01*
X229495Y202000D01*
X228446D01*
X227921Y202525D01*
X221099Y184624D02*
X220574Y185149D01*
X219525D01*
X219000Y184624D01*
Y182525D01*
X219525Y182000D01*
X220574D01*
X221099Y182525D01*
X222149Y182000D02*
X223198D01*
X222673D01*
Y185149D01*
X222149Y184624D01*
X226871Y182000D02*
X224772D01*
X226871Y184099D01*
Y184624D01*
X226347Y185149D01*
X225297D01*
X224772Y184624D01*
X229495Y182000D02*
Y185149D01*
X227921Y183574D01*
X230020D01*
X221099Y174624D02*
X220574Y175149D01*
X219525D01*
X219000Y174624D01*
Y172525D01*
X219525Y172000D01*
X220574D01*
X221099Y172525D01*
X222149Y172000D02*
X223198D01*
X222673D01*
Y175149D01*
X222149Y174624D01*
X226871Y172000D02*
X224772D01*
X226871Y174099D01*
Y174624D01*
X226347Y175149D01*
X225297D01*
X224772Y174624D01*
X227921D02*
X228446Y175149D01*
X229495D01*
X230020Y174624D01*
Y174099D01*
X229495Y173574D01*
X228971D01*
X229495D01*
X230020Y173049D01*
Y172525D01*
X229495Y172000D01*
X228446D01*
X227921Y172525D01*
X133989Y200661D02*
X133464Y201186D01*
X132414D01*
X131890Y200661D01*
Y198562D01*
X132414Y198037D01*
X133464D01*
X133989Y198562D01*
X135038Y198037D02*
X136088D01*
X135563D01*
Y201186D01*
X135038Y200661D01*
X139761Y198037D02*
X137662D01*
X139761Y200136D01*
Y200661D01*
X139236Y201186D01*
X138187D01*
X137662Y200661D01*
X142910Y198037D02*
X140811D01*
X142910Y200136D01*
Y200661D01*
X142385Y201186D01*
X141335D01*
X140811Y200661D01*
X134099Y180624D02*
X133574Y181149D01*
X132525D01*
X132000Y180624D01*
Y178525D01*
X132525Y178000D01*
X133574D01*
X134099Y178525D01*
X135149Y178000D02*
X136198D01*
X135673D01*
Y181149D01*
X135149Y180624D01*
X139872Y178000D02*
X137772D01*
X139872Y180099D01*
Y180624D01*
X139347Y181149D01*
X138297D01*
X137772Y180624D01*
X140921Y178000D02*
X141971D01*
X141446D01*
Y181149D01*
X140921Y180624D01*
X221099Y169624D02*
X220574Y170149D01*
X219525D01*
X219000Y169624D01*
Y167525D01*
X219525Y167000D01*
X220574D01*
X221099Y167525D01*
X222149Y167000D02*
X223198D01*
X222673D01*
Y170149D01*
X222149Y169624D01*
X226871Y167000D02*
X224772D01*
X226871Y169099D01*
Y169624D01*
X226347Y170149D01*
X225297D01*
X224772Y169624D01*
X227921D02*
X228446Y170149D01*
X229495D01*
X230020Y169624D01*
Y167525D01*
X229495Y167000D01*
X228446D01*
X227921Y167525D01*
Y169624D01*
X133989Y205061D02*
X133464Y205586D01*
X132414D01*
X131890Y205061D01*
Y202962D01*
X132414Y202437D01*
X133464D01*
X133989Y202962D01*
X135038Y202437D02*
X136088D01*
X135563D01*
Y205586D01*
X135038Y205061D01*
X137662Y202437D02*
X138712D01*
X138187D01*
Y205586D01*
X137662Y205061D01*
X140286Y202962D02*
X140811Y202437D01*
X141860D01*
X142385Y202962D01*
Y205061D01*
X141860Y205586D01*
X140811D01*
X140286Y205061D01*
Y204536D01*
X140811Y204011D01*
X142385D01*
X221099Y209624D02*
X220574Y210149D01*
X219525D01*
X219000Y209624D01*
Y207525D01*
X219525Y207000D01*
X220574D01*
X221099Y207525D01*
X222149Y207000D02*
X223198D01*
X222673D01*
Y210149D01*
X222149Y209624D01*
X224772Y207000D02*
X225822D01*
X225297D01*
Y210149D01*
X224772Y209624D01*
X227396D02*
X227921Y210149D01*
X228971D01*
X229495Y209624D01*
Y209099D01*
X228971Y208574D01*
X229495Y208050D01*
Y207525D01*
X228971Y207000D01*
X227921D01*
X227396Y207525D01*
Y208050D01*
X227921Y208574D01*
X227396Y209099D01*
Y209624D01*
X227921Y208574D02*
X228971D01*
X168137Y230436D02*
X167612Y229911D01*
Y228862D01*
X168137Y228337D01*
X170236D01*
X170761Y228862D01*
Y229911D01*
X170236Y230436D01*
X170761Y231486D02*
Y232535D01*
Y232010D01*
X167612D01*
X168137Y231486D01*
X170761Y234109D02*
Y235159D01*
Y234634D01*
X167612D01*
X168137Y234109D01*
X167612Y236733D02*
Y238832D01*
X168137D01*
X170236Y236733D01*
X170761D01*
X221099Y214624D02*
X220574Y215149D01*
X219525D01*
X219000Y214624D01*
Y212525D01*
X219525Y212000D01*
X220574D01*
X221099Y212525D01*
X222149Y212000D02*
X223198D01*
X222673D01*
Y215149D01*
X222149Y214624D01*
X224772Y212000D02*
X225822D01*
X225297D01*
Y215149D01*
X224772Y214624D01*
X229495Y215149D02*
X228446Y214624D01*
X227396Y213574D01*
Y212525D01*
X227921Y212000D01*
X228971D01*
X229495Y212525D01*
Y213050D01*
X228971Y213574D01*
X227396D01*
X134099Y185624D02*
X133574Y186149D01*
X132525D01*
X132000Y185624D01*
Y183525D01*
X132525Y183000D01*
X133574D01*
X134099Y183525D01*
X135149Y183000D02*
X136198D01*
X135673D01*
Y186149D01*
X135149Y185624D01*
X137772Y183000D02*
X138822D01*
X138297D01*
Y186149D01*
X137772Y185624D01*
X142495Y186149D02*
X140396D01*
Y184574D01*
X141446Y185099D01*
X141971D01*
X142495Y184574D01*
Y183525D01*
X141971Y183000D01*
X140921D01*
X140396Y183525D01*
X166937Y150036D02*
X166412Y149511D01*
Y148462D01*
X166937Y147937D01*
X169036D01*
X169561Y148462D01*
Y149511D01*
X169036Y150036D01*
X169561Y151086D02*
Y152135D01*
Y151610D01*
X166412D01*
X166937Y151086D01*
X169561Y153709D02*
Y154759D01*
Y154234D01*
X166412D01*
X166937Y153709D01*
X169561Y157908D02*
X166412D01*
X167986Y156333D01*
Y158432D01*
X173937Y150036D02*
X173412Y149511D01*
Y148462D01*
X173937Y147937D01*
X176036D01*
X176561Y148462D01*
Y149511D01*
X176036Y150036D01*
X176561Y151086D02*
Y152135D01*
Y151610D01*
X173412D01*
X173937Y151086D01*
X176561Y153709D02*
Y154759D01*
Y154234D01*
X173412D01*
X173937Y153709D01*
Y156333D02*
X173412Y156858D01*
Y157908D01*
X173937Y158432D01*
X174462D01*
X174986Y157908D01*
Y157383D01*
Y157908D01*
X175511Y158432D01*
X176036D01*
X176561Y157908D01*
Y156858D01*
X176036Y156333D01*
X180937Y150036D02*
X180412Y149511D01*
Y148462D01*
X180937Y147937D01*
X183036D01*
X183561Y148462D01*
Y149511D01*
X183036Y150036D01*
X183561Y151086D02*
Y152135D01*
Y151610D01*
X180412D01*
X180937Y151086D01*
X183561Y153709D02*
Y154759D01*
Y154234D01*
X180412D01*
X180937Y153709D01*
X183561Y158432D02*
Y156333D01*
X181462Y158432D01*
X180937D01*
X180412Y157908D01*
Y156858D01*
X180937Y156333D01*
X181937Y230436D02*
X181412Y229911D01*
Y228862D01*
X181937Y228337D01*
X184036D01*
X184561Y228862D01*
Y229911D01*
X184036Y230436D01*
X184561Y231486D02*
Y232535D01*
Y232010D01*
X181412D01*
X181937Y231486D01*
X184561Y234109D02*
Y235159D01*
Y234634D01*
X181412D01*
X181937Y234109D01*
X184561Y236733D02*
Y237783D01*
Y237258D01*
X181412D01*
X181937Y236733D01*
X174837Y230436D02*
X174312Y229911D01*
Y228862D01*
X174837Y228337D01*
X176936D01*
X177461Y228862D01*
Y229911D01*
X176936Y230436D01*
X177461Y231486D02*
Y232535D01*
Y232010D01*
X174312D01*
X174837Y231486D01*
X177461Y234109D02*
Y235159D01*
Y234634D01*
X174312D01*
X174837Y234109D01*
Y236733D02*
X174312Y237258D01*
Y238308D01*
X174837Y238832D01*
X176936D01*
X177461Y238308D01*
Y237258D01*
X176936Y236733D01*
X174837D01*
X228477Y79361D02*
X227952Y79886D01*
X226903D01*
X226378Y79361D01*
Y77262D01*
X226903Y76737D01*
X227952D01*
X228477Y77262D01*
X229526Y76737D02*
X230576D01*
X230051D01*
Y79886D01*
X229526Y79361D01*
X232150D02*
X232675Y79886D01*
X233725D01*
X234249Y79361D01*
Y77262D01*
X233725Y76737D01*
X232675D01*
X232150Y77262D01*
Y79361D01*
X235299Y77262D02*
X235824Y76737D01*
X236873D01*
X237398Y77262D01*
Y79361D01*
X236873Y79886D01*
X235824D01*
X235299Y79361D01*
Y78836D01*
X235824Y78311D01*
X237398D01*
X228477Y76061D02*
X227952Y76586D01*
X226903D01*
X226378Y76061D01*
Y73962D01*
X226903Y73437D01*
X227952D01*
X228477Y73962D01*
X229526Y73437D02*
X230576D01*
X230051D01*
Y76586D01*
X229526Y76061D01*
X232150D02*
X232675Y76586D01*
X233725D01*
X234249Y76061D01*
Y73962D01*
X233725Y73437D01*
X232675D01*
X232150Y73962D01*
Y76061D01*
X235299D02*
X235824Y76586D01*
X236873D01*
X237398Y76061D01*
Y75536D01*
X236873Y75011D01*
X237398Y74487D01*
Y73962D01*
X236873Y73437D01*
X235824D01*
X235299Y73962D01*
Y74487D01*
X235824Y75011D01*
X235299Y75536D01*
Y76061D01*
X235824Y75011D02*
X236873D01*
X228477Y83761D02*
X227952Y84286D01*
X226903D01*
X226378Y83761D01*
Y81662D01*
X226903Y81137D01*
X227952D01*
X228477Y81662D01*
X229526Y81137D02*
X230576D01*
X230051D01*
Y84286D01*
X229526Y83761D01*
X232150D02*
X232675Y84286D01*
X233725D01*
X234249Y83761D01*
Y81662D01*
X233725Y81137D01*
X232675D01*
X232150Y81662D01*
Y83761D01*
X235299Y84286D02*
X237398D01*
Y83761D01*
X235299Y81662D01*
Y81137D01*
X228477Y67261D02*
X227952Y67786D01*
X226903D01*
X226378Y67261D01*
Y65162D01*
X226903Y64637D01*
X227952D01*
X228477Y65162D01*
X229526Y64637D02*
X230576D01*
X230051D01*
Y67786D01*
X229526Y67261D01*
X232150D02*
X232675Y67786D01*
X233725D01*
X234249Y67261D01*
Y65162D01*
X233725Y64637D01*
X232675D01*
X232150Y65162D01*
Y67261D01*
X237398Y67786D02*
X236349Y67261D01*
X235299Y66211D01*
Y65162D01*
X235824Y64637D01*
X236873D01*
X237398Y65162D01*
Y65687D01*
X236873Y66211D01*
X235299D01*
X228477Y58361D02*
X227952Y58886D01*
X226903D01*
X226378Y58361D01*
Y56262D01*
X226903Y55737D01*
X227952D01*
X228477Y56262D01*
X229526Y55737D02*
X230576D01*
X230051D01*
Y58886D01*
X229526Y58361D01*
X232150D02*
X232675Y58886D01*
X233725D01*
X234249Y58361D01*
Y56262D01*
X233725Y55737D01*
X232675D01*
X232150Y56262D01*
Y58361D01*
X237398Y58886D02*
X235299D01*
Y57311D01*
X236349Y57836D01*
X236873D01*
X237398Y57311D01*
Y56262D01*
X236873Y55737D01*
X235824D01*
X235299Y56262D01*
X133989Y83061D02*
X133464Y83586D01*
X132414D01*
X131890Y83061D01*
Y80962D01*
X132414Y80437D01*
X133464D01*
X133989Y80962D01*
X135038Y80437D02*
X136088D01*
X135563D01*
Y83586D01*
X135038Y83061D01*
X137662D02*
X138187Y83586D01*
X139236D01*
X139761Y83061D01*
Y80962D01*
X139236Y80437D01*
X138187D01*
X137662Y80962D01*
Y83061D01*
X142385Y80437D02*
Y83586D01*
X140811Y82011D01*
X142910D01*
X228477Y53861D02*
X227952Y54386D01*
X226903D01*
X226378Y53861D01*
Y51762D01*
X226903Y51237D01*
X227952D01*
X228477Y51762D01*
X229526Y51237D02*
X230576D01*
X230051D01*
Y54386D01*
X229526Y53861D01*
X232150D02*
X232675Y54386D01*
X233725D01*
X234249Y53861D01*
Y51762D01*
X233725Y51237D01*
X232675D01*
X232150Y51762D01*
Y53861D01*
X235299D02*
X235824Y54386D01*
X236873D01*
X237398Y53861D01*
Y53336D01*
X236873Y52811D01*
X236349D01*
X236873D01*
X237398Y52286D01*
Y51762D01*
X236873Y51237D01*
X235824D01*
X235299Y51762D01*
X133989Y64661D02*
X133464Y65186D01*
X132414D01*
X131890Y64661D01*
Y62562D01*
X132414Y62037D01*
X133464D01*
X133989Y62562D01*
X135038Y62037D02*
X136088D01*
X135563D01*
Y65186D01*
X135038Y64661D01*
X137662D02*
X138187Y65186D01*
X139236D01*
X139761Y64661D01*
Y62562D01*
X139236Y62037D01*
X138187D01*
X137662Y62562D01*
Y64661D01*
X142910Y62037D02*
X140811D01*
X142910Y64136D01*
Y64661D01*
X142385Y65186D01*
X141335D01*
X140811Y64661D01*
X133989Y88061D02*
X133464Y88586D01*
X132414D01*
X131890Y88061D01*
Y85962D01*
X132414Y85437D01*
X133464D01*
X133989Y85962D01*
X135038Y85437D02*
X136088D01*
X135563D01*
Y88586D01*
X135038Y88061D01*
X137662D02*
X138187Y88586D01*
X139236D01*
X139761Y88061D01*
Y85962D01*
X139236Y85437D01*
X138187D01*
X137662Y85962D01*
Y88061D01*
X140811Y85437D02*
X141860D01*
X141335D01*
Y88586D01*
X140811Y88061D01*
X228477Y89461D02*
X227952Y89986D01*
X226903D01*
X226378Y89461D01*
Y87362D01*
X226903Y86837D01*
X227952D01*
X228477Y87362D01*
X229526Y86837D02*
X230576D01*
X230051D01*
Y89986D01*
X229526Y89461D01*
X232150D02*
X232675Y89986D01*
X233725D01*
X234249Y89461D01*
Y87362D01*
X233725Y86837D01*
X232675D01*
X232150Y87362D01*
Y89461D01*
X235299D02*
X235824Y89986D01*
X236873D01*
X237398Y89461D01*
Y87362D01*
X236873Y86837D01*
X235824D01*
X235299Y87362D01*
Y89461D01*
X168137Y110636D02*
X167612Y110111D01*
Y109062D01*
X168137Y108537D01*
X170236D01*
X170761Y109062D01*
Y110111D01*
X170236Y110636D01*
Y111686D02*
X170761Y112210D01*
Y113260D01*
X170236Y113785D01*
X168137D01*
X167612Y113260D01*
Y112210D01*
X168137Y111686D01*
X168662D01*
X169186Y112210D01*
Y113785D01*
X170236Y114834D02*
X170761Y115359D01*
Y116409D01*
X170236Y116933D01*
X168137D01*
X167612Y116409D01*
Y115359D01*
X168137Y114834D01*
X168662D01*
X169186Y115359D01*
Y116933D01*
X217099Y95624D02*
X216574Y96149D01*
X215525D01*
X215000Y95624D01*
Y93525D01*
X215525Y93000D01*
X216574D01*
X217099Y93525D01*
X218149D02*
X218673Y93000D01*
X219723D01*
X220248Y93525D01*
Y95624D01*
X219723Y96149D01*
X218673D01*
X218149Y95624D01*
Y95099D01*
X218673Y94574D01*
X220248D01*
X221297Y95624D02*
X221822Y96149D01*
X222871D01*
X223396Y95624D01*
Y95099D01*
X222871Y94574D01*
X223396Y94050D01*
Y93525D01*
X222871Y93000D01*
X221822D01*
X221297Y93525D01*
Y94050D01*
X221822Y94574D01*
X221297Y95099D01*
Y95624D01*
X221822Y94574D02*
X222871D01*
X133989Y68761D02*
X133464Y69286D01*
X132414D01*
X131890Y68761D01*
Y66662D01*
X132414Y66137D01*
X133464D01*
X133989Y66662D01*
X135038D02*
X135563Y66137D01*
X136613D01*
X137137Y66662D01*
Y68761D01*
X136613Y69286D01*
X135563D01*
X135038Y68761D01*
Y68236D01*
X135563Y67711D01*
X137137D01*
X138187Y69286D02*
X140286D01*
Y68761D01*
X138187Y66662D01*
Y66137D01*
X167876Y32999D02*
X167351Y32474D01*
Y31425D01*
X167876Y30900D01*
X169975D01*
X170500Y31425D01*
Y32474D01*
X169975Y32999D01*
Y34049D02*
X170500Y34573D01*
Y35623D01*
X169975Y36148D01*
X167876D01*
X167351Y35623D01*
Y34573D01*
X167876Y34049D01*
X168401D01*
X168926Y34573D01*
Y36148D01*
X167351Y39296D02*
X167876Y38247D01*
X168926Y37197D01*
X169975D01*
X170500Y37722D01*
Y38772D01*
X169975Y39296D01*
X169450D01*
X168926Y38772D01*
Y37197D01*
X175176Y32699D02*
X174651Y32174D01*
Y31125D01*
X175176Y30600D01*
X177275D01*
X177800Y31125D01*
Y32174D01*
X177275Y32699D01*
Y33749D02*
X177800Y34273D01*
Y35323D01*
X177275Y35848D01*
X175176D01*
X174651Y35323D01*
Y34273D01*
X175176Y33749D01*
X175701D01*
X176226Y34273D01*
Y35848D01*
X174651Y38996D02*
Y36897D01*
X176226D01*
X175701Y37947D01*
Y38471D01*
X176226Y38996D01*
X177275D01*
X177800Y38471D01*
Y37422D01*
X177275Y36897D01*
X181976Y33199D02*
X181451Y32674D01*
Y31625D01*
X181976Y31100D01*
X184075D01*
X184600Y31625D01*
Y32674D01*
X184075Y33199D01*
Y34249D02*
X184600Y34773D01*
Y35823D01*
X184075Y36348D01*
X181976D01*
X181451Y35823D01*
Y34773D01*
X181976Y34249D01*
X182501D01*
X183026Y34773D01*
Y36348D01*
X184600Y38971D02*
X181451D01*
X183026Y37397D01*
Y39496D01*
X181937Y110636D02*
X181412Y110111D01*
Y109062D01*
X181937Y108537D01*
X184036D01*
X184561Y109062D01*
Y110111D01*
X184036Y110636D01*
Y111686D02*
X184561Y112210D01*
Y113260D01*
X184036Y113785D01*
X181937D01*
X181412Y113260D01*
Y112210D01*
X181937Y111686D01*
X182462D01*
X182986Y112210D01*
Y113785D01*
X181937Y114834D02*
X181412Y115359D01*
Y116409D01*
X181937Y116933D01*
X182462D01*
X182986Y116409D01*
Y115884D01*
Y116409D01*
X183511Y116933D01*
X184036D01*
X184561Y116409D01*
Y115359D01*
X184036Y114834D01*
X174837Y110636D02*
X174312Y110111D01*
Y109062D01*
X174837Y108537D01*
X176936D01*
X177461Y109062D01*
Y110111D01*
X176936Y110636D01*
Y111686D02*
X177461Y112210D01*
Y113260D01*
X176936Y113785D01*
X174837D01*
X174312Y113260D01*
Y112210D01*
X174837Y111686D01*
X175362D01*
X175886Y112210D01*
Y113785D01*
X177461Y116933D02*
Y114834D01*
X175362Y116933D01*
X174837D01*
X174312Y116409D01*
Y115359D01*
X174837Y114834D01*
X120099Y74624D02*
X119574Y75149D01*
X118525D01*
X118000Y74624D01*
Y72525D01*
X118525Y72000D01*
X119574D01*
X120099Y72525D01*
X121149D02*
X121673Y72000D01*
X122723D01*
X123248Y72525D01*
Y74624D01*
X122723Y75149D01*
X121673D01*
X121149Y74624D01*
Y74099D01*
X121673Y73574D01*
X123248D01*
X124297Y72000D02*
X125347D01*
X124822D01*
Y75149D01*
X124297Y74624D01*
X120209Y79261D02*
X119685Y79786D01*
X118635D01*
X118110Y79261D01*
Y77162D01*
X118635Y76637D01*
X119685D01*
X120209Y77162D01*
X121259D02*
X121784Y76637D01*
X122833D01*
X123358Y77162D01*
Y79261D01*
X122833Y79786D01*
X121784D01*
X121259Y79261D01*
Y78736D01*
X121784Y78211D01*
X123358D01*
X124407Y79261D02*
X124932Y79786D01*
X125982D01*
X126506Y79261D01*
Y77162D01*
X125982Y76637D01*
X124932D01*
X124407Y77162D01*
Y79261D01*
X120209Y83761D02*
X119685Y84286D01*
X118635D01*
X118110Y83761D01*
Y81662D01*
X118635Y81137D01*
X119685D01*
X120209Y81662D01*
X121259Y83761D02*
X121784Y84286D01*
X122833D01*
X123358Y83761D01*
Y83236D01*
X122833Y82711D01*
X123358Y82187D01*
Y81662D01*
X122833Y81137D01*
X121784D01*
X121259Y81662D01*
Y82187D01*
X121784Y82711D01*
X121259Y83236D01*
Y83761D01*
X121784Y82711D02*
X122833D01*
X124407Y81662D02*
X124932Y81137D01*
X125982D01*
X126506Y81662D01*
Y83761D01*
X125982Y84286D01*
X124932D01*
X124407Y83761D01*
Y83236D01*
X124932Y82711D01*
X126506D01*
X120209Y67161D02*
X119685Y67686D01*
X118635D01*
X118110Y67161D01*
Y65062D01*
X118635Y64537D01*
X119685D01*
X120209Y65062D01*
X121259Y67161D02*
X121784Y67686D01*
X122833D01*
X123358Y67161D01*
Y66636D01*
X122833Y66111D01*
X123358Y65587D01*
Y65062D01*
X122833Y64537D01*
X121784D01*
X121259Y65062D01*
Y65587D01*
X121784Y66111D01*
X121259Y66636D01*
Y67161D01*
X121784Y66111D02*
X122833D01*
X124407Y67161D02*
X124932Y67686D01*
X125982D01*
X126506Y67161D01*
Y66636D01*
X125982Y66111D01*
X126506Y65587D01*
Y65062D01*
X125982Y64537D01*
X124932D01*
X124407Y65062D01*
Y65587D01*
X124932Y66111D01*
X124407Y66636D01*
Y67161D01*
X124932Y66111D02*
X125982D01*
X120209Y58261D02*
X119685Y58786D01*
X118635D01*
X118110Y58261D01*
Y56162D01*
X118635Y55637D01*
X119685D01*
X120209Y56162D01*
X121259Y58261D02*
X121784Y58786D01*
X122833D01*
X123358Y58261D01*
Y57736D01*
X122833Y57211D01*
X123358Y56687D01*
Y56162D01*
X122833Y55637D01*
X121784D01*
X121259Y56162D01*
Y56687D01*
X121784Y57211D01*
X121259Y57736D01*
Y58261D01*
X121784Y57211D02*
X122833D01*
X124407Y58786D02*
X126506D01*
Y58261D01*
X124407Y56162D01*
Y55637D01*
X26099Y83261D02*
X25574Y83786D01*
X24525D01*
X24000Y83261D01*
Y81162D01*
X24525Y80637D01*
X25574D01*
X26099Y81162D01*
X27149Y83261D02*
X27673Y83786D01*
X28723D01*
X29248Y83261D01*
Y82736D01*
X28723Y82211D01*
X29248Y81687D01*
Y81162D01*
X28723Y80637D01*
X27673D01*
X27149Y81162D01*
Y81687D01*
X27673Y82211D01*
X27149Y82736D01*
Y83261D01*
X27673Y82211D02*
X28723D01*
X32396Y83786D02*
X31347Y83261D01*
X30297Y82211D01*
Y81162D01*
X30822Y80637D01*
X31872D01*
X32396Y81162D01*
Y81687D01*
X31872Y82211D01*
X30297D01*
X120209Y53761D02*
X119685Y54286D01*
X118635D01*
X118110Y53761D01*
Y51662D01*
X118635Y51137D01*
X119685D01*
X120209Y51662D01*
X121259Y53761D02*
X121784Y54286D01*
X122833D01*
X123358Y53761D01*
Y53236D01*
X122833Y52711D01*
X123358Y52187D01*
Y51662D01*
X122833Y51137D01*
X121784D01*
X121259Y51662D01*
Y52187D01*
X121784Y52711D01*
X121259Y53236D01*
Y53761D01*
X121784Y52711D02*
X122833D01*
X126506Y54286D02*
X124407D01*
Y52711D01*
X125457Y53236D01*
X125982D01*
X126506Y52711D01*
Y51662D01*
X125982Y51137D01*
X124932D01*
X124407Y51662D01*
X26099Y62624D02*
X25574Y63149D01*
X24525D01*
X24000Y62624D01*
Y60525D01*
X24525Y60000D01*
X25574D01*
X26099Y60525D01*
X27149Y62624D02*
X27673Y63149D01*
X28723D01*
X29248Y62624D01*
Y62099D01*
X28723Y61574D01*
X29248Y61049D01*
Y60525D01*
X28723Y60000D01*
X27673D01*
X27149Y60525D01*
Y61049D01*
X27673Y61574D01*
X27149Y62099D01*
Y62624D01*
X27673Y61574D02*
X28723D01*
X31872Y60000D02*
Y63149D01*
X30297Y61574D01*
X32396D01*
X120209Y89461D02*
X119685Y89986D01*
X118635D01*
X118110Y89461D01*
Y87362D01*
X118635Y86837D01*
X119685D01*
X120209Y87362D01*
X121259Y89461D02*
X121784Y89986D01*
X122833D01*
X123358Y89461D01*
Y88936D01*
X122833Y88411D01*
X123358Y87887D01*
Y87362D01*
X122833Y86837D01*
X121784D01*
X121259Y87362D01*
Y87887D01*
X121784Y88411D01*
X121259Y88936D01*
Y89461D01*
X121784Y88411D02*
X122833D01*
X124407Y89461D02*
X124932Y89986D01*
X125982D01*
X126506Y89461D01*
Y88936D01*
X125982Y88411D01*
X125457D01*
X125982D01*
X126506Y87887D01*
Y87362D01*
X125982Y86837D01*
X124932D01*
X124407Y87362D01*
X26099Y88624D02*
X25574Y89149D01*
X24525D01*
X24000Y88624D01*
Y86525D01*
X24525Y86000D01*
X25574D01*
X26099Y86525D01*
X27149Y88624D02*
X27673Y89149D01*
X28723D01*
X29248Y88624D01*
Y88099D01*
X28723Y87574D01*
X29248Y87050D01*
Y86525D01*
X28723Y86000D01*
X27673D01*
X27149Y86525D01*
Y87050D01*
X27673Y87574D01*
X27149Y88099D01*
Y88624D01*
X27673Y87574D02*
X28723D01*
X32396Y86000D02*
X30297D01*
X32396Y88099D01*
Y88624D01*
X31872Y89149D01*
X30822D01*
X30297Y88624D01*
X58237Y110636D02*
X57712Y110111D01*
Y109062D01*
X58237Y108537D01*
X60336D01*
X60861Y109062D01*
Y110111D01*
X60336Y110636D01*
X58237Y111686D02*
X57712Y112210D01*
Y113260D01*
X58237Y113785D01*
X58762D01*
X59286Y113260D01*
X59811Y113785D01*
X60336D01*
X60861Y113260D01*
Y112210D01*
X60336Y111686D01*
X59811D01*
X59286Y112210D01*
X58762Y111686D01*
X58237D01*
X59286Y112210D02*
Y113260D01*
X60861Y114834D02*
Y115884D01*
Y115359D01*
X57712D01*
X58237Y114834D01*
X107099Y95624D02*
X106574Y96149D01*
X105525D01*
X105000Y95624D01*
Y93525D01*
X105525Y93000D01*
X106574D01*
X107099Y93525D01*
X108149Y95624D02*
X108673Y96149D01*
X109723D01*
X110248Y95624D01*
Y95099D01*
X109723Y94574D01*
X110248Y94050D01*
Y93525D01*
X109723Y93000D01*
X108673D01*
X108149Y93525D01*
Y94050D01*
X108673Y94574D01*
X108149Y95099D01*
Y95624D01*
X108673Y94574D02*
X109723D01*
X111297Y95624D02*
X111822Y96149D01*
X112872D01*
X113396Y95624D01*
Y93525D01*
X112872Y93000D01*
X111822D01*
X111297Y93525D01*
Y95624D01*
X26099Y67624D02*
X25574Y68149D01*
X24525D01*
X24000Y67624D01*
Y65525D01*
X24525Y65000D01*
X25574D01*
X26099Y65525D01*
X27149Y68149D02*
X29248D01*
Y67624D01*
X27149Y65525D01*
Y65000D01*
X30297Y65525D02*
X30822Y65000D01*
X31872D01*
X32396Y65525D01*
Y67624D01*
X31872Y68149D01*
X30822D01*
X30297Y67624D01*
Y67099D01*
X30822Y66574D01*
X32396D01*
X58337Y33836D02*
X57812Y33311D01*
Y32262D01*
X58337Y31737D01*
X60436D01*
X60961Y32262D01*
Y33311D01*
X60436Y33836D01*
X57812Y34886D02*
Y36985D01*
X58337D01*
X60436Y34886D01*
X60961D01*
X58337Y38034D02*
X57812Y38559D01*
Y39608D01*
X58337Y40133D01*
X58862D01*
X59386Y39608D01*
X59911Y40133D01*
X60436D01*
X60961Y39608D01*
Y38559D01*
X60436Y38034D01*
X59911D01*
X59386Y38559D01*
X58862Y38034D01*
X58337D01*
X59386Y38559D02*
Y39608D01*
X65037Y33836D02*
X64512Y33311D01*
Y32262D01*
X65037Y31737D01*
X67136D01*
X67661Y32262D01*
Y33311D01*
X67136Y33836D01*
X64512Y34886D02*
Y36985D01*
X65037D01*
X67136Y34886D01*
X67661D01*
X64512Y38034D02*
Y40133D01*
X65037D01*
X67136Y38034D01*
X67661D01*
X72537Y33836D02*
X72012Y33311D01*
Y32262D01*
X72537Y31737D01*
X74636D01*
X75161Y32262D01*
Y33311D01*
X74636Y33836D01*
X72012Y34886D02*
Y36985D01*
X72537D01*
X74636Y34886D01*
X75161D01*
X72012Y40133D02*
X72537Y39084D01*
X73586Y38034D01*
X74636D01*
X75161Y38559D01*
Y39608D01*
X74636Y40133D01*
X74111D01*
X73586Y39608D01*
Y38034D01*
X72437Y110636D02*
X71912Y110111D01*
Y109062D01*
X72437Y108537D01*
X74536D01*
X75061Y109062D01*
Y110111D01*
X74536Y110636D01*
X71912Y111686D02*
Y113785D01*
X72437D01*
X74536Y111686D01*
X75061D01*
X71912Y116933D02*
Y114834D01*
X73486D01*
X72962Y115884D01*
Y116409D01*
X73486Y116933D01*
X74536D01*
X75061Y116409D01*
Y115359D01*
X74536Y114834D01*
X65037Y110636D02*
X64512Y110111D01*
Y109062D01*
X65037Y108537D01*
X67136D01*
X67661Y109062D01*
Y110111D01*
X67136Y110636D01*
X64512Y111686D02*
Y113785D01*
X65037D01*
X67136Y111686D01*
X67661D01*
Y116409D02*
X64512D01*
X66086Y114834D01*
Y116933D01*
X120209Y193961D02*
X119685Y194486D01*
X118635D01*
X118110Y193961D01*
Y191862D01*
X118635Y191337D01*
X119685D01*
X120209Y191862D01*
X121259Y194486D02*
X123358D01*
Y193961D01*
X121259Y191862D01*
Y191337D01*
X124407Y193961D02*
X124932Y194486D01*
X125982D01*
X126506Y193961D01*
Y193436D01*
X125982Y192911D01*
X125457D01*
X125982D01*
X126506Y192386D01*
Y191862D01*
X125982Y191337D01*
X124932D01*
X124407Y191862D01*
X120209Y197161D02*
X119685Y197686D01*
X118635D01*
X118110Y197161D01*
Y195062D01*
X118635Y194537D01*
X119685D01*
X120209Y195062D01*
X121259Y197686D02*
X123358D01*
Y197161D01*
X121259Y195062D01*
Y194537D01*
X126506D02*
X124407D01*
X126506Y196636D01*
Y197161D01*
X125982Y197686D01*
X124932D01*
X124407Y197161D01*
X120209Y201761D02*
X119685Y202286D01*
X118635D01*
X118110Y201761D01*
Y199662D01*
X118635Y199137D01*
X119685D01*
X120209Y199662D01*
X121259Y202286D02*
X123358D01*
Y201761D01*
X121259Y199662D01*
Y199137D01*
X124407D02*
X125457D01*
X124932D01*
Y202286D01*
X124407Y201761D01*
X120209Y185261D02*
X119685Y185786D01*
X118635D01*
X118110Y185261D01*
Y183162D01*
X118635Y182637D01*
X119685D01*
X120209Y183162D01*
X121259Y185786D02*
X123358D01*
Y185261D01*
X121259Y183162D01*
Y182637D01*
X124407Y185261D02*
X124932Y185786D01*
X125982D01*
X126506Y185261D01*
Y183162D01*
X125982Y182637D01*
X124932D01*
X124407Y183162D01*
Y185261D01*
X120209Y176361D02*
X119685Y176886D01*
X118635D01*
X118110Y176361D01*
Y174262D01*
X118635Y173737D01*
X119685D01*
X120209Y174262D01*
X123358Y176886D02*
X122308Y176361D01*
X121259Y175311D01*
Y174262D01*
X121784Y173737D01*
X122833D01*
X123358Y174262D01*
Y174786D01*
X122833Y175311D01*
X121259D01*
X124407Y174262D02*
X124932Y173737D01*
X125982D01*
X126506Y174262D01*
Y176361D01*
X125982Y176886D01*
X124932D01*
X124407Y176361D01*
Y175836D01*
X124932Y175311D01*
X126506D01*
X26060Y201061D02*
X25535Y201586D01*
X24485D01*
X23961Y201061D01*
Y198962D01*
X24485Y198437D01*
X25535D01*
X26060Y198962D01*
X29208Y201586D02*
X28159Y201061D01*
X27109Y200011D01*
Y198962D01*
X27634Y198437D01*
X28684D01*
X29208Y198962D01*
Y199486D01*
X28684Y200011D01*
X27109D01*
X30258Y201061D02*
X30783Y201586D01*
X31832D01*
X32357Y201061D01*
Y200536D01*
X31832Y200011D01*
X32357Y199486D01*
Y198962D01*
X31832Y198437D01*
X30783D01*
X30258Y198962D01*
Y199486D01*
X30783Y200011D01*
X30258Y200536D01*
Y201061D01*
X30783Y200011D02*
X31832D01*
X120209Y171861D02*
X119685Y172386D01*
X118635D01*
X118110Y171861D01*
Y169762D01*
X118635Y169237D01*
X119685D01*
X120209Y169762D01*
X123358Y172386D02*
X122308Y171861D01*
X121259Y170811D01*
Y169762D01*
X121784Y169237D01*
X122833D01*
X123358Y169762D01*
Y170287D01*
X122833Y170811D01*
X121259D01*
X124407Y172386D02*
X126506D01*
Y171861D01*
X124407Y169762D01*
Y169237D01*
X26099Y181624D02*
X25574Y182149D01*
X24525D01*
X24000Y181624D01*
Y179525D01*
X24525Y179000D01*
X25574D01*
X26099Y179525D01*
X29248Y182149D02*
X28198Y181624D01*
X27149Y180574D01*
Y179525D01*
X27673Y179000D01*
X28723D01*
X29248Y179525D01*
Y180050D01*
X28723Y180574D01*
X27149D01*
X32396Y182149D02*
X31347Y181624D01*
X30297Y180574D01*
Y179525D01*
X30822Y179000D01*
X31872D01*
X32396Y179525D01*
Y180050D01*
X31872Y180574D01*
X30297D01*
X120209Y207561D02*
X119685Y208086D01*
X118635D01*
X118110Y207561D01*
Y205462D01*
X118635Y204937D01*
X119685D01*
X120209Y205462D01*
X123358Y208086D02*
X122308Y207561D01*
X121259Y206511D01*
Y205462D01*
X121784Y204937D01*
X122833D01*
X123358Y205462D01*
Y205986D01*
X122833Y206511D01*
X121259D01*
X126506Y208086D02*
X124407D01*
Y206511D01*
X125457Y207036D01*
X125982D01*
X126506Y206511D01*
Y205462D01*
X125982Y204937D01*
X124932D01*
X124407Y205462D01*
X26060Y205061D02*
X25535Y205586D01*
X24485D01*
X23961Y205061D01*
Y202962D01*
X24485Y202437D01*
X25535D01*
X26060Y202962D01*
X29208Y205586D02*
X28159Y205061D01*
X27109Y204011D01*
Y202962D01*
X27634Y202437D01*
X28684D01*
X29208Y202962D01*
Y203486D01*
X28684Y204011D01*
X27109D01*
X31832Y202437D02*
Y205586D01*
X30258Y204011D01*
X32357D01*
X73076Y147099D02*
X72551Y146574D01*
Y145525D01*
X73076Y145000D01*
X75175D01*
X75700Y145525D01*
Y146574D01*
X75175Y147099D01*
X72551Y150248D02*
X73076Y149198D01*
X74126Y148149D01*
X75175D01*
X75700Y148673D01*
Y149723D01*
X75175Y150248D01*
X74651D01*
X74126Y149723D01*
Y148149D01*
X73076Y151297D02*
X72551Y151822D01*
Y152872D01*
X73076Y153396D01*
X73601D01*
X74126Y152872D01*
Y152347D01*
Y152872D01*
X74651Y153396D01*
X75175D01*
X75700Y152872D01*
Y151822D01*
X75175Y151297D01*
X107099Y214624D02*
X106574Y215149D01*
X105525D01*
X105000Y214624D01*
Y212525D01*
X105525Y212000D01*
X106574D01*
X107099Y212525D01*
X110248Y215149D02*
X109198Y214624D01*
X108149Y213574D01*
Y212525D01*
X108673Y212000D01*
X109723D01*
X110248Y212525D01*
Y213050D01*
X109723Y213574D01*
X108149D01*
X113396Y212000D02*
X111297D01*
X113396Y214099D01*
Y214624D01*
X112872Y215149D01*
X111822D01*
X111297Y214624D01*
X65376Y232099D02*
X64851Y231574D01*
Y230525D01*
X65376Y230000D01*
X67475D01*
X68000Y230525D01*
Y231574D01*
X67475Y232099D01*
X64851Y235248D02*
X65376Y234198D01*
X66426Y233149D01*
X67475D01*
X68000Y233673D01*
Y234723D01*
X67475Y235248D01*
X66951D01*
X66426Y234723D01*
Y233149D01*
X68000Y236297D02*
Y237347D01*
Y236822D01*
X64851D01*
X65376Y236297D01*
X73376Y231099D02*
X72851Y230574D01*
Y229525D01*
X73376Y229000D01*
X75475D01*
X76000Y229525D01*
Y230574D01*
X75475Y231099D01*
X72851Y234248D02*
X73376Y233198D01*
X74426Y232149D01*
X75475D01*
X76000Y232673D01*
Y233723D01*
X75475Y234248D01*
X74950D01*
X74426Y233723D01*
Y232149D01*
X73376Y235297D02*
X72851Y235822D01*
Y236872D01*
X73376Y237396D01*
X75475D01*
X76000Y236872D01*
Y235822D01*
X75475Y235297D01*
X73376D01*
X58376Y232099D02*
X57851Y231574D01*
Y230525D01*
X58376Y230000D01*
X60475D01*
X61000Y230525D01*
Y231574D01*
X60475Y232099D01*
X57851Y235248D02*
Y233149D01*
X59426D01*
X58901Y234198D01*
Y234723D01*
X59426Y235248D01*
X60475D01*
X61000Y234723D01*
Y233673D01*
X60475Y233149D01*
Y236297D02*
X61000Y236822D01*
Y237872D01*
X60475Y238396D01*
X58376D01*
X57851Y237872D01*
Y236822D01*
X58376Y236297D01*
X58901D01*
X59426Y236822D01*
Y238396D01*
X26099Y186624D02*
X25574Y187149D01*
X24525D01*
X24000Y186624D01*
Y184525D01*
X24525Y184000D01*
X25574D01*
X26099Y184525D01*
X29248Y187149D02*
X27149D01*
Y185574D01*
X28198Y186099D01*
X28723D01*
X29248Y185574D01*
Y184525D01*
X28723Y184000D01*
X27673D01*
X27149Y184525D01*
X30297Y186624D02*
X30822Y187149D01*
X31872D01*
X32396Y186624D01*
Y186099D01*
X31872Y185574D01*
X32396Y185049D01*
Y184525D01*
X31872Y184000D01*
X30822D01*
X30297Y184525D01*
Y185049D01*
X30822Y185574D01*
X30297Y186099D01*
Y186624D01*
X30822Y185574D02*
X31872D01*
X58937Y148836D02*
X58412Y148311D01*
Y147262D01*
X58937Y146737D01*
X61036D01*
X61561Y147262D01*
Y148311D01*
X61036Y148836D01*
X58412Y151985D02*
Y149886D01*
X59986D01*
X59462Y150935D01*
Y151460D01*
X59986Y151985D01*
X61036D01*
X61561Y151460D01*
Y150410D01*
X61036Y149886D01*
X58412Y153034D02*
Y155133D01*
X58937D01*
X61036Y153034D01*
X61561D01*
X65576Y147299D02*
X65051Y146774D01*
Y145725D01*
X65576Y145200D01*
X67675D01*
X68200Y145725D01*
Y146774D01*
X67675Y147299D01*
X65051Y150448D02*
Y148349D01*
X66626D01*
X66101Y149398D01*
Y149923D01*
X66626Y150448D01*
X67675D01*
X68200Y149923D01*
Y148873D01*
X67675Y148349D01*
X65051Y153596D02*
X65576Y152547D01*
X66626Y151497D01*
X67675D01*
X68200Y152022D01*
Y153071D01*
X67675Y153596D01*
X67150D01*
X66626Y153071D01*
Y151497D01*
X120099Y320624D02*
X119574Y321149D01*
X118525D01*
X118000Y320624D01*
Y318525D01*
X118525Y318000D01*
X119574D01*
X120099Y318525D01*
X123248Y321149D02*
X121149D01*
Y319574D01*
X122198Y320099D01*
X122723D01*
X123248Y319574D01*
Y318525D01*
X122723Y318000D01*
X121673D01*
X121149Y318525D01*
X124297Y320624D02*
X124822Y321149D01*
X125872D01*
X126396Y320624D01*
Y320099D01*
X125872Y319574D01*
X125347D01*
X125872D01*
X126396Y319050D01*
Y318525D01*
X125872Y318000D01*
X124822D01*
X124297Y318525D01*
X26099Y318624D02*
X25574Y319149D01*
X24525D01*
X24000Y318624D01*
Y316525D01*
X24525Y316000D01*
X25574D01*
X26099Y316525D01*
X29248Y319149D02*
X27149D01*
Y317574D01*
X28198Y318099D01*
X28723D01*
X29248Y317574D01*
Y316525D01*
X28723Y316000D01*
X27673D01*
X27149Y316525D01*
X30297Y316000D02*
X31347D01*
X30822D01*
Y319149D01*
X30297Y318624D01*
X120099Y324624D02*
X119574Y325149D01*
X118525D01*
X118000Y324624D01*
Y322525D01*
X118525Y322000D01*
X119574D01*
X120099Y322525D01*
X122723Y322000D02*
Y325149D01*
X121149Y323574D01*
X123248D01*
X124297Y322525D02*
X124822Y322000D01*
X125872D01*
X126396Y322525D01*
Y324624D01*
X125872Y325149D01*
X124822D01*
X124297Y324624D01*
Y324099D01*
X124822Y323574D01*
X126396D01*
X120099Y291624D02*
X119574Y292149D01*
X118525D01*
X118000Y291624D01*
Y289525D01*
X118525Y289000D01*
X119574D01*
X120099Y289525D01*
X122723Y289000D02*
Y292149D01*
X121149Y290574D01*
X123248D01*
X124297Y291624D02*
X124822Y292149D01*
X125872D01*
X126396Y291624D01*
Y291099D01*
X125872Y290574D01*
X126396Y290050D01*
Y289525D01*
X125872Y289000D01*
X124822D01*
X124297Y289525D01*
Y290050D01*
X124822Y290574D01*
X124297Y291099D01*
Y291624D01*
X124822Y290574D02*
X125872D01*
X26099Y299624D02*
X25574Y300149D01*
X24525D01*
X24000Y299624D01*
Y297525D01*
X24525Y297000D01*
X25574D01*
X26099Y297525D01*
X28723Y297000D02*
Y300149D01*
X27149Y298574D01*
X29248D01*
X30297Y300149D02*
X32396D01*
Y299624D01*
X30297Y297525D01*
Y297000D01*
X26099Y323624D02*
X25574Y324149D01*
X24525D01*
X24000Y323624D01*
Y321525D01*
X24525Y321000D01*
X25574D01*
X26099Y321525D01*
X28723Y321000D02*
Y324149D01*
X27149Y322574D01*
X29248D01*
X32396Y324149D02*
X31347Y323624D01*
X30297Y322574D01*
Y321525D01*
X30822Y321000D01*
X31872D01*
X32396Y321525D01*
Y322049D01*
X31872Y322574D01*
X30297D01*
X72376Y269099D02*
X71851Y268574D01*
Y267525D01*
X72376Y267000D01*
X74475D01*
X75000Y267525D01*
Y268574D01*
X74475Y269099D01*
X75000Y271723D02*
X71851D01*
X73426Y270149D01*
Y272248D01*
X71851Y275396D02*
Y273297D01*
X73426D01*
X72901Y274347D01*
Y274871D01*
X73426Y275396D01*
X74475D01*
X75000Y274871D01*
Y273822D01*
X74475Y273297D01*
X109099Y330624D02*
X108574Y331149D01*
X107525D01*
X107000Y330624D01*
Y328525D01*
X107525Y328000D01*
X108574D01*
X109099Y328525D01*
X111723Y328000D02*
Y331149D01*
X110149Y329574D01*
X112248D01*
X114872Y328000D02*
Y331149D01*
X113297Y329574D01*
X115396D01*
X26099Y303624D02*
X25574Y304149D01*
X24525D01*
X24000Y303624D01*
Y301525D01*
X24525Y301000D01*
X25574D01*
X26099Y301525D01*
X28723Y301000D02*
Y304149D01*
X27149Y302574D01*
X29248D01*
X30297Y303624D02*
X30822Y304149D01*
X31872D01*
X32396Y303624D01*
Y303099D01*
X31872Y302574D01*
X31347D01*
X31872D01*
X32396Y302049D01*
Y301525D01*
X31872Y301000D01*
X30822D01*
X30297Y301525D01*
X73176Y349399D02*
X72651Y348874D01*
Y347825D01*
X73176Y347300D01*
X75275D01*
X75800Y347825D01*
Y348874D01*
X75275Y349399D01*
X75800Y352023D02*
X72651D01*
X74226Y350449D01*
Y352548D01*
X75800Y355696D02*
Y353597D01*
X73701Y355696D01*
X73176D01*
X72651Y355171D01*
Y354122D01*
X73176Y353597D01*
X65676Y349699D02*
X65151Y349174D01*
Y348125D01*
X65676Y347600D01*
X67775D01*
X68300Y348125D01*
Y349174D01*
X67775Y349699D01*
X68300Y352323D02*
X65151D01*
X66726Y350749D01*
Y352848D01*
X68300Y353897D02*
Y354947D01*
Y354422D01*
X65151D01*
X65676Y353897D01*
X58576Y348999D02*
X58051Y348474D01*
Y347425D01*
X58576Y346900D01*
X60675D01*
X61200Y347425D01*
Y348474D01*
X60675Y348999D01*
X61200Y351623D02*
X58051D01*
X59626Y350049D01*
Y352148D01*
X58576Y353197D02*
X58051Y353722D01*
Y354771D01*
X58576Y355296D01*
X60675D01*
X61200Y354771D01*
Y353722D01*
X60675Y353197D01*
X58576D01*
X59376Y269099D02*
X58851Y268574D01*
Y267525D01*
X59376Y267000D01*
X61475D01*
X62000Y267525D01*
Y268574D01*
X61475Y269099D01*
X59376Y270149D02*
X58851Y270673D01*
Y271723D01*
X59376Y272248D01*
X59901D01*
X60426Y271723D01*
Y271198D01*
Y271723D01*
X60950Y272248D01*
X61475D01*
X62000Y271723D01*
Y270673D01*
X61475Y270149D01*
Y273297D02*
X62000Y273822D01*
Y274871D01*
X61475Y275396D01*
X59376D01*
X58851Y274871D01*
Y273822D01*
X59376Y273297D01*
X59901D01*
X60426Y273822D01*
Y275396D01*
X65376Y269099D02*
X64851Y268574D01*
Y267525D01*
X65376Y267000D01*
X67475D01*
X68000Y267525D01*
Y268574D01*
X67475Y269099D01*
X65376Y270149D02*
X64851Y270673D01*
Y271723D01*
X65376Y272248D01*
X65901D01*
X66426Y271723D01*
Y271198D01*
Y271723D01*
X66951Y272248D01*
X67475D01*
X68000Y271723D01*
Y270673D01*
X67475Y270149D01*
X65376Y273297D02*
X64851Y273822D01*
Y274871D01*
X65376Y275396D01*
X65901D01*
X66426Y274871D01*
X66951Y275396D01*
X67475D01*
X68000Y274871D01*
Y273822D01*
X67475Y273297D01*
X66951D01*
X66426Y273822D01*
X65901Y273297D01*
X65376D01*
X66426Y273822D02*
Y274871D01*
X118999Y439824D02*
X118474Y440349D01*
X117425D01*
X116900Y439824D01*
Y437725D01*
X117425Y437200D01*
X118474D01*
X118999Y437725D01*
X120049Y439824D02*
X120573Y440349D01*
X121623D01*
X122148Y439824D01*
Y439299D01*
X121623Y438774D01*
X121098D01*
X121623D01*
X122148Y438249D01*
Y437725D01*
X121623Y437200D01*
X120573D01*
X120049Y437725D01*
X125296Y440349D02*
X123197D01*
Y438774D01*
X124247Y439299D01*
X124771D01*
X125296Y438774D01*
Y437725D01*
X124771Y437200D01*
X123722D01*
X123197Y437725D01*
X26299Y437824D02*
X25774Y438349D01*
X24725D01*
X24200Y437824D01*
Y435725D01*
X24725Y435200D01*
X25774D01*
X26299Y435725D01*
X27349Y437824D02*
X27873Y438349D01*
X28923D01*
X29448Y437824D01*
Y437299D01*
X28923Y436774D01*
X28398D01*
X28923D01*
X29448Y436249D01*
Y435725D01*
X28923Y435200D01*
X27873D01*
X27349Y435725D01*
X30497Y437824D02*
X31022Y438349D01*
X32072D01*
X32596Y437824D01*
Y437299D01*
X32072Y436774D01*
X31547D01*
X32072D01*
X32596Y436249D01*
Y435725D01*
X32072Y435200D01*
X31022D01*
X30497Y435725D01*
X118999Y406724D02*
X118474Y407249D01*
X117425D01*
X116900Y406724D01*
Y404625D01*
X117425Y404100D01*
X118474D01*
X118999Y404625D01*
X120049Y406724D02*
X120573Y407249D01*
X121623D01*
X122148Y406724D01*
Y406199D01*
X121623Y405674D01*
X121098D01*
X121623D01*
X122148Y405150D01*
Y404625D01*
X121623Y404100D01*
X120573D01*
X120049Y404625D01*
X123197Y404100D02*
X124247D01*
X123722D01*
Y407249D01*
X123197Y406724D01*
X26299Y417324D02*
X25774Y417849D01*
X24725D01*
X24200Y417324D01*
Y415225D01*
X24725Y414700D01*
X25774D01*
X26299Y415225D01*
X27349Y417324D02*
X27873Y417849D01*
X28923D01*
X29448Y417324D01*
Y416799D01*
X28923Y416274D01*
X28398D01*
X28923D01*
X29448Y415750D01*
Y415225D01*
X28923Y414700D01*
X27873D01*
X27349Y415225D01*
X30497Y417324D02*
X31022Y417849D01*
X32072D01*
X32596Y417324D01*
Y415225D01*
X32072Y414700D01*
X31022D01*
X30497Y415225D01*
Y417324D01*
X26299Y442024D02*
X25774Y442549D01*
X24725D01*
X24200Y442024D01*
Y439925D01*
X24725Y439400D01*
X25774D01*
X26299Y439925D01*
X29448Y439400D02*
X27349D01*
X29448Y441499D01*
Y442024D01*
X28923Y442549D01*
X27873D01*
X27349Y442024D01*
X30497Y439925D02*
X31022Y439400D01*
X32072D01*
X32596Y439925D01*
Y442024D01*
X32072Y442549D01*
X31022D01*
X30497Y442024D01*
Y441499D01*
X31022Y440974D01*
X32596D01*
X118999Y444424D02*
X118474Y444949D01*
X117425D01*
X116900Y444424D01*
Y442325D01*
X117425Y441800D01*
X118474D01*
X118999Y442325D01*
X122148Y441800D02*
X120049D01*
X122148Y443899D01*
Y444424D01*
X121623Y444949D01*
X120573D01*
X120049Y444424D01*
X123197D02*
X123722Y444949D01*
X124771D01*
X125296Y444424D01*
Y443899D01*
X124771Y443374D01*
X125296Y442849D01*
Y442325D01*
X124771Y441800D01*
X123722D01*
X123197Y442325D01*
Y442849D01*
X123722Y443374D01*
X123197Y443899D01*
Y444424D01*
X123722Y443374D02*
X124771D01*
X77299Y393424D02*
X76774Y393949D01*
X75725D01*
X75200Y393424D01*
Y391325D01*
X75725Y390800D01*
X76774D01*
X77299Y391325D01*
X80448Y390800D02*
X78349D01*
X80448Y392899D01*
Y393424D01*
X79923Y393949D01*
X78873D01*
X78349Y393424D01*
X81497Y393949D02*
X83596D01*
Y393424D01*
X81497Y391325D01*
Y390800D01*
X107499Y450424D02*
X106974Y450949D01*
X105925D01*
X105400Y450424D01*
Y448325D01*
X105925Y447800D01*
X106974D01*
X107499Y448325D01*
X110648Y447800D02*
X108549D01*
X110648Y449899D01*
Y450424D01*
X110123Y450949D01*
X109073D01*
X108549Y450424D01*
X113796Y450949D02*
X112747Y450424D01*
X111697Y449374D01*
Y448325D01*
X112222Y447800D01*
X113271D01*
X113796Y448325D01*
Y448849D01*
X113271Y449374D01*
X111697D01*
X26299Y422424D02*
X25774Y422949D01*
X24725D01*
X24200Y422424D01*
Y420325D01*
X24725Y419800D01*
X25774D01*
X26299Y420325D01*
X29448Y419800D02*
X27349D01*
X29448Y421899D01*
Y422424D01*
X28923Y422949D01*
X27873D01*
X27349Y422424D01*
X32596Y422949D02*
X30497D01*
Y421374D01*
X31547Y421899D01*
X32072D01*
X32596Y421374D01*
Y420325D01*
X32072Y419800D01*
X31022D01*
X30497Y420325D01*
X72176Y466299D02*
X71651Y465774D01*
Y464725D01*
X72176Y464200D01*
X74275D01*
X74800Y464725D01*
Y465774D01*
X74275Y466299D01*
X74800Y469448D02*
Y467349D01*
X72701Y469448D01*
X72176D01*
X71651Y468923D01*
Y467873D01*
X72176Y467349D01*
X74800Y472072D02*
X71651D01*
X73226Y470497D01*
Y472596D01*
X57299Y393524D02*
X56774Y394049D01*
X55725D01*
X55200Y393524D01*
Y391425D01*
X55725Y390900D01*
X56774D01*
X57299Y391425D01*
X60448Y390900D02*
X58349D01*
X60448Y392999D01*
Y393524D01*
X59923Y394049D01*
X58873D01*
X58349Y393524D01*
X61497D02*
X62022Y394049D01*
X63072D01*
X63596Y393524D01*
Y392999D01*
X63072Y392474D01*
X62547D01*
X63072D01*
X63596Y391950D01*
Y391425D01*
X63072Y390900D01*
X62022D01*
X61497Y391425D01*
X67299Y393424D02*
X66774Y393949D01*
X65725D01*
X65200Y393424D01*
Y391325D01*
X65725Y390800D01*
X66774D01*
X67299Y391325D01*
X70448Y390800D02*
X68349D01*
X70448Y392899D01*
Y393424D01*
X69923Y393949D01*
X68873D01*
X68349Y393424D01*
X73596Y390800D02*
X71497D01*
X73596Y392899D01*
Y393424D01*
X73071Y393949D01*
X72022D01*
X71497Y393424D01*
X256100Y102249D02*
Y99625D01*
X256625Y99100D01*
X257674D01*
X258199Y99625D01*
Y102249D01*
X259249Y99100D02*
X260298D01*
X259773D01*
Y102249D01*
X259249Y101724D01*
X261872D02*
X262397Y102249D01*
X263447D01*
X263971Y101724D01*
Y99625D01*
X263447Y99100D01*
X262397D01*
X261872Y99625D01*
Y101724D01*
X258100Y161449D02*
Y158825D01*
X258625Y158300D01*
X259674D01*
X260199Y158825D01*
Y161449D01*
X261249Y158825D02*
X261773Y158300D01*
X262823D01*
X263348Y158825D01*
Y160924D01*
X262823Y161449D01*
X261773D01*
X261249Y160924D01*
Y160399D01*
X261773Y159874D01*
X263348D01*
X189400Y24300D02*
Y27449D01*
X190974D01*
X191499Y26924D01*
Y25874D01*
X190974Y25350D01*
X189400D01*
X190450D02*
X191499Y24300D01*
X192549Y26924D02*
X193073Y27449D01*
X194123D01*
X194648Y26924D01*
Y26399D01*
X194123Y25874D01*
X193598D01*
X194123D01*
X194648Y25350D01*
Y24825D01*
X194123Y24300D01*
X193073D01*
X192549Y24825D01*
X195697D02*
X196222Y24300D01*
X197272D01*
X197796Y24825D01*
Y26924D01*
X197272Y27449D01*
X196222D01*
X195697Y26924D01*
Y26399D01*
X196222Y25874D01*
X197796D01*
X289200Y88500D02*
Y91649D01*
X290774D01*
X291299Y91124D01*
Y90074D01*
X290774Y89549D01*
X289200D01*
X290249D02*
X291299Y88500D01*
X292349Y91124D02*
X292873Y91649D01*
X293923D01*
X294448Y91124D01*
Y90599D01*
X293923Y90074D01*
X293398D01*
X293923D01*
X294448Y89549D01*
Y89025D01*
X293923Y88500D01*
X292873D01*
X292349Y89025D01*
X295497Y91124D02*
X296022Y91649D01*
X297072D01*
X297596Y91124D01*
Y90599D01*
X297072Y90074D01*
X297596Y89549D01*
Y89025D01*
X297072Y88500D01*
X296022D01*
X295497Y89025D01*
Y89549D01*
X296022Y90074D01*
X295497Y90599D01*
Y91124D01*
X296022Y90074D02*
X297072D01*
X245200Y96000D02*
Y99149D01*
X246774D01*
X247299Y98624D01*
Y97574D01*
X246774Y97049D01*
X245200D01*
X246250D02*
X247299Y96000D01*
X248349Y98624D02*
X248873Y99149D01*
X249923D01*
X250448Y98624D01*
Y98099D01*
X249923Y97574D01*
X249398D01*
X249923D01*
X250448Y97049D01*
Y96525D01*
X249923Y96000D01*
X248873D01*
X248349Y96525D01*
X251497Y99149D02*
X253596D01*
Y98624D01*
X251497Y96525D01*
Y96000D01*
X245000Y69500D02*
Y72649D01*
X246574D01*
X247099Y72124D01*
Y71074D01*
X246574Y70549D01*
X245000D01*
X246049D02*
X247099Y69500D01*
X248149Y72124D02*
X248673Y72649D01*
X249723D01*
X250248Y72124D01*
Y71599D01*
X249723Y71074D01*
X249198D01*
X249723D01*
X250248Y70549D01*
Y70025D01*
X249723Y69500D01*
X248673D01*
X248149Y70025D01*
X253396Y72649D02*
X252347Y72124D01*
X251297Y71074D01*
Y70025D01*
X251822Y69500D01*
X252871D01*
X253396Y70025D01*
Y70549D01*
X252871Y71074D01*
X251297D01*
X178700Y24800D02*
Y27949D01*
X180274D01*
X180799Y27424D01*
Y26374D01*
X180274Y25850D01*
X178700D01*
X179750D02*
X180799Y24800D01*
X181849Y27424D02*
X182373Y27949D01*
X183423D01*
X183948Y27424D01*
Y26899D01*
X183423Y26374D01*
X182898D01*
X183423D01*
X183948Y25850D01*
Y25325D01*
X183423Y24800D01*
X182373D01*
X181849Y25325D01*
X187096Y27949D02*
X184997D01*
Y26374D01*
X186047Y26899D01*
X186572D01*
X187096Y26374D01*
Y25325D01*
X186572Y24800D01*
X185522D01*
X184997Y25325D01*
X168100Y25000D02*
Y28149D01*
X169674D01*
X170199Y27624D01*
Y26574D01*
X169674Y26050D01*
X168100D01*
X169149D02*
X170199Y25000D01*
X171249Y27624D02*
X171773Y28149D01*
X172823D01*
X173348Y27624D01*
Y27099D01*
X172823Y26574D01*
X172298D01*
X172823D01*
X173348Y26050D01*
Y25525D01*
X172823Y25000D01*
X171773D01*
X171249Y25525D01*
X175971Y25000D02*
Y28149D01*
X174397Y26574D01*
X176496D01*
X258100Y130700D02*
Y133849D01*
X259674D01*
X260199Y133324D01*
Y132274D01*
X259674Y131749D01*
X258100D01*
X259150D02*
X260199Y130700D01*
X261249Y133324D02*
X261773Y133849D01*
X262823D01*
X263348Y133324D01*
Y132799D01*
X262823Y132274D01*
X262298D01*
X262823D01*
X263348Y131749D01*
Y131225D01*
X262823Y130700D01*
X261773D01*
X261249Y131225D01*
X264397Y133324D02*
X264922Y133849D01*
X265971D01*
X266496Y133324D01*
Y132799D01*
X265971Y132274D01*
X265447D01*
X265971D01*
X266496Y131749D01*
Y131225D01*
X265971Y130700D01*
X264922D01*
X264397Y131225D01*
X266900Y185800D02*
Y188949D01*
X268474D01*
X268999Y188424D01*
Y187374D01*
X268474Y186849D01*
X266900D01*
X267950D02*
X268999Y185800D01*
X270049Y188424D02*
X270573Y188949D01*
X271623D01*
X272148Y188424D01*
Y187899D01*
X271623Y187374D01*
X271098D01*
X271623D01*
X272148Y186849D01*
Y186325D01*
X271623Y185800D01*
X270573D01*
X270049Y186325D01*
X273197Y185800D02*
X274247D01*
X273722D01*
Y188949D01*
X273197Y188424D01*
X298700Y217500D02*
X295551D01*
X296601Y218549D01*
X295551Y219599D01*
X298700D01*
Y220649D02*
Y221698D01*
Y221173D01*
X295551D01*
X296076Y220649D01*
X247049Y31999D02*
X246000D01*
X246524D01*
Y29375D01*
X246000Y28850D01*
X245475D01*
X244950Y29375D01*
X248099Y28850D02*
X249148D01*
X248623D01*
Y31999D01*
X248099Y31474D01*
X204051Y7700D02*
X207200D01*
Y9274D01*
X206675Y9799D01*
X204576D01*
X204051Y9274D01*
Y7700D01*
X204576Y10849D02*
X204051Y11373D01*
Y12423D01*
X204576Y12948D01*
X205101D01*
X205626Y12423D01*
Y11898D01*
Y12423D01*
X206151Y12948D01*
X206675D01*
X207200Y12423D01*
Y11373D01*
X206675Y10849D01*
X198851Y8100D02*
X202000D01*
Y9674D01*
X201475Y10199D01*
X199376D01*
X198851Y9674D01*
Y8100D01*
X202000Y13348D02*
Y11249D01*
X199901Y13348D01*
X199376D01*
X198851Y12823D01*
Y11773D01*
X199376Y11249D01*
X193751Y8100D02*
X196900D01*
Y9674D01*
X196375Y10199D01*
X194276D01*
X193751Y9674D01*
Y8100D01*
X196900Y11249D02*
Y12298D01*
Y11773D01*
X193751D01*
X194276Y11249D01*
X263699Y335624D02*
X263174Y336149D01*
X262125D01*
X261600Y335624D01*
Y333525D01*
X262125Y333000D01*
X263174D01*
X263699Y333525D01*
X264749Y333000D02*
X265798D01*
X265273D01*
Y336149D01*
X264749Y335624D01*
X268947Y333000D02*
Y336149D01*
X267372Y334574D01*
X269472D01*
X272620Y333000D02*
X270521D01*
X272620Y335099D01*
Y335624D01*
X272095Y336149D01*
X271046D01*
X270521Y335624D01*
X290599Y267124D02*
X290074Y267649D01*
X289025D01*
X288500Y267124D01*
Y265025D01*
X289025Y264500D01*
X290074D01*
X290599Y265025D01*
X291649Y264500D02*
X292698D01*
X292173D01*
Y267649D01*
X291649Y267124D01*
X294272D02*
X294797Y267649D01*
X295847D01*
X296372Y267124D01*
Y266599D01*
X295847Y266074D01*
X295322D01*
X295847D01*
X296372Y265549D01*
Y265025D01*
X295847Y264500D01*
X294797D01*
X294272Y265025D01*
X297421D02*
X297946Y264500D01*
X298995D01*
X299520Y265025D01*
Y267124D01*
X298995Y267649D01*
X297946D01*
X297421Y267124D01*
Y266599D01*
X297946Y266074D01*
X299520D01*
X261899Y258324D02*
X261374Y258849D01*
X260325D01*
X259800Y258324D01*
Y256225D01*
X260325Y255700D01*
X261374D01*
X261899Y256225D01*
X262949Y255700D02*
X263998D01*
X263473D01*
Y258849D01*
X262949Y258324D01*
X265572D02*
X266097Y258849D01*
X267147D01*
X267671Y258324D01*
Y257799D01*
X267147Y257274D01*
X266622D01*
X267147D01*
X267671Y256750D01*
Y256225D01*
X267147Y255700D01*
X266097D01*
X265572Y256225D01*
X268721Y258324D02*
X269246Y258849D01*
X270295D01*
X270820Y258324D01*
Y257799D01*
X270295Y257274D01*
X270820Y256750D01*
Y256225D01*
X270295Y255700D01*
X269246D01*
X268721Y256225D01*
Y256750D01*
X269246Y257274D01*
X268721Y257799D01*
Y258324D01*
X269246Y257274D02*
X270295D01*
X302899Y71524D02*
X302374Y72049D01*
X301325D01*
X300800Y71524D01*
Y69425D01*
X301325Y68900D01*
X302374D01*
X302899Y69425D01*
X303949Y68900D02*
X304998D01*
X304473D01*
Y72049D01*
X303949Y71524D01*
X306572D02*
X307097Y72049D01*
X308147D01*
X308671Y71524D01*
Y70999D01*
X308147Y70474D01*
X307622D01*
X308147D01*
X308671Y69950D01*
Y69425D01*
X308147Y68900D01*
X307097D01*
X306572Y69425D01*
X311820Y72049D02*
X310771Y71524D01*
X309721Y70474D01*
Y69425D01*
X310246Y68900D01*
X311295D01*
X311820Y69425D01*
Y69950D01*
X311295Y70474D01*
X309721D01*
X303199Y79424D02*
X302674Y79949D01*
X301625D01*
X301100Y79424D01*
Y77325D01*
X301625Y76800D01*
X302674D01*
X303199Y77325D01*
X304249Y76800D02*
X305298D01*
X304773D01*
Y79949D01*
X304249Y79424D01*
X306872D02*
X307397Y79949D01*
X308447D01*
X308972Y79424D01*
Y78899D01*
X308447Y78374D01*
X307922D01*
X308447D01*
X308972Y77850D01*
Y77325D01*
X308447Y76800D01*
X307397D01*
X306872Y77325D01*
X312120Y79949D02*
X310021D01*
Y78374D01*
X311070Y78899D01*
X311595D01*
X312120Y78374D01*
Y77325D01*
X311595Y76800D01*
X310546D01*
X310021Y77325D01*
X260199Y141224D02*
X259674Y141749D01*
X258625D01*
X258100Y141224D01*
Y139125D01*
X258625Y138600D01*
X259674D01*
X260199Y139125D01*
X261249Y138600D02*
X262298D01*
X261773D01*
Y141749D01*
X261249Y141224D01*
X263872D02*
X264397Y141749D01*
X265447D01*
X265971Y141224D01*
Y140699D01*
X265447Y140174D01*
X264922D01*
X265447D01*
X265971Y139649D01*
Y139125D01*
X265447Y138600D01*
X264397D01*
X263872Y139125D01*
X268595Y138600D02*
Y141749D01*
X267021Y140174D01*
X269120D01*
X260199Y149924D02*
X259674Y150449D01*
X258625D01*
X258100Y149924D01*
Y147825D01*
X258625Y147300D01*
X259674D01*
X260199Y147825D01*
X261249Y147300D02*
X262298D01*
X261773D01*
Y150449D01*
X261249Y149924D01*
X263872D02*
X264397Y150449D01*
X265447D01*
X265971Y149924D01*
Y149399D01*
X265447Y148874D01*
X264922D01*
X265447D01*
X265971Y148349D01*
Y147825D01*
X265447Y147300D01*
X264397D01*
X263872Y147825D01*
X267021Y149924D02*
X267546Y150449D01*
X268595D01*
X269120Y149924D01*
Y149399D01*
X268595Y148874D01*
X268071D01*
X268595D01*
X269120Y148349D01*
Y147825D01*
X268595Y147300D01*
X267546D01*
X267021Y147825D01*
X260199Y171824D02*
X259674Y172349D01*
X258625D01*
X258100Y171824D01*
Y169725D01*
X258625Y169200D01*
X259674D01*
X260199Y169725D01*
X261249Y169200D02*
X262298D01*
X261773D01*
Y172349D01*
X261249Y171824D01*
X263872D02*
X264397Y172349D01*
X265447D01*
X265971Y171824D01*
Y171299D01*
X265447Y170774D01*
X264922D01*
X265447D01*
X265971Y170249D01*
Y169725D01*
X265447Y169200D01*
X264397D01*
X263872Y169725D01*
X269120Y169200D02*
X267021D01*
X269120Y171299D01*
Y171824D01*
X268595Y172349D01*
X267546D01*
X267021Y171824D01*
X260199Y180124D02*
X259674Y180649D01*
X258625D01*
X258100Y180124D01*
Y178025D01*
X258625Y177500D01*
X259674D01*
X260199Y178025D01*
X261249Y177500D02*
X262298D01*
X261773D01*
Y180649D01*
X261249Y180124D01*
X263872D02*
X264397Y180649D01*
X265447D01*
X265971Y180124D01*
Y179599D01*
X265447Y179074D01*
X264922D01*
X265447D01*
X265971Y178550D01*
Y178025D01*
X265447Y177500D01*
X264397D01*
X263872Y178025D01*
X267021Y177500D02*
X268071D01*
X267546D01*
Y180649D01*
X267021Y180124D01*
X300676Y197899D02*
X300151Y197374D01*
Y196325D01*
X300676Y195800D01*
X302775D01*
X303300Y196325D01*
Y197374D01*
X302775Y197899D01*
X303300Y198949D02*
Y199998D01*
Y199473D01*
X300151D01*
X300676Y198949D01*
X303300Y203672D02*
Y201572D01*
X301201Y203672D01*
X300676D01*
X300151Y203147D01*
Y202097D01*
X300676Y201572D01*
X302775Y204721D02*
X303300Y205246D01*
Y206295D01*
X302775Y206820D01*
X300676D01*
X300151Y206295D01*
Y205246D01*
X300676Y204721D01*
X301201D01*
X301726Y205246D01*
Y206820D01*
X305776Y209999D02*
X305251Y209474D01*
Y208425D01*
X305776Y207900D01*
X307875D01*
X308400Y208425D01*
Y209474D01*
X307875Y209999D01*
X308400Y211049D02*
Y212098D01*
Y211573D01*
X305251D01*
X305776Y211049D01*
X308400Y215772D02*
Y213672D01*
X306301Y215772D01*
X305776D01*
X305251Y215247D01*
Y214197D01*
X305776Y213672D01*
Y216821D02*
X305251Y217346D01*
Y218395D01*
X305776Y218920D01*
X306301D01*
X306826Y218395D01*
X307350Y218920D01*
X307875D01*
X308400Y218395D01*
Y217346D01*
X307875Y216821D01*
X307350D01*
X306826Y217346D01*
X306301Y216821D01*
X305776D01*
X306826Y217346D02*
Y218395D01*
X297600Y442200D02*
Y445349D01*
X299174D01*
X299699Y444824D01*
Y443774D01*
X299174Y443250D01*
X297600D01*
X300749Y442200D02*
X301798D01*
X301273D01*
Y445349D01*
X300749Y444824D01*
X46560Y146561D02*
X46035Y147086D01*
X44985D01*
X44461Y146561D01*
Y144462D01*
X44985Y143937D01*
X46035D01*
X46560Y144462D01*
X47609Y146561D02*
X48134Y147086D01*
X49183D01*
X49708Y146561D01*
Y146036D01*
X49183Y145511D01*
X48659D01*
X49183D01*
X49708Y144986D01*
Y144462D01*
X49183Y143937D01*
X48134D01*
X47609Y144462D01*
X231099Y147624D02*
X230574Y148149D01*
X229525D01*
X229000Y147624D01*
Y145525D01*
X229525Y145000D01*
X230574D01*
X231099Y145525D01*
X234248Y145000D02*
X232149D01*
X234248Y147099D01*
Y147624D01*
X233723Y148149D01*
X232673D01*
X232149Y147624D01*
X268200Y216249D02*
Y215724D01*
X269250Y214674D01*
X270299Y215724D01*
Y216249D01*
X269250Y214674D02*
Y213100D01*
X271349D02*
X272398D01*
X271873D01*
Y216249D01*
X271349Y215724D01*
X218200Y418049D02*
Y415425D01*
X218725Y414900D01*
X219774D01*
X220299Y415425D01*
Y418049D01*
X221349Y414900D02*
X222398D01*
X221873D01*
Y418049D01*
X221349Y417524D01*
X262100Y389500D02*
Y392649D01*
X263674D01*
X264199Y392124D01*
Y391074D01*
X263674Y390549D01*
X262100D01*
X263149D02*
X264199Y389500D01*
X265249D02*
X266298D01*
X265773D01*
Y392649D01*
X265249Y392124D01*
X267872Y389500D02*
X268922D01*
X268397D01*
Y392649D01*
X267872Y392124D01*
X237500Y383400D02*
Y386549D01*
X239074D01*
X239599Y386024D01*
Y384974D01*
X239074Y384450D01*
X237500D01*
X238549D02*
X239599Y383400D01*
X240649D02*
X241698D01*
X241173D01*
Y386549D01*
X240649Y386024D01*
X243272D02*
X243797Y386549D01*
X244847D01*
X245372Y386024D01*
Y383925D01*
X244847Y383400D01*
X243797D01*
X243272Y383925D01*
Y386024D01*
X262100Y395300D02*
Y398449D01*
X263674D01*
X264199Y397924D01*
Y396874D01*
X263674Y396350D01*
X262100D01*
X263149D02*
X264199Y395300D01*
X265249Y395825D02*
X265773Y395300D01*
X266823D01*
X267348Y395825D01*
Y397924D01*
X266823Y398449D01*
X265773D01*
X265249Y397924D01*
Y397399D01*
X265773Y396874D01*
X267348D01*
X265600Y414100D02*
X262451D01*
Y415674D01*
X262976Y416199D01*
X264026D01*
X264550Y415674D01*
Y414100D01*
Y415149D02*
X265600Y416199D01*
X262976Y417249D02*
X262451Y417773D01*
Y418823D01*
X262976Y419348D01*
X263501D01*
X264026Y418823D01*
X264550Y419348D01*
X265075D01*
X265600Y418823D01*
Y417773D01*
X265075Y417249D01*
X264550D01*
X264026Y417773D01*
X263501Y417249D01*
X262976D01*
X264026Y417773D02*
Y418823D01*
X280300Y415200D02*
X277151D01*
Y416774D01*
X277676Y417299D01*
X278726D01*
X279251Y416774D01*
Y415200D01*
Y416250D02*
X280300Y417299D01*
X277151Y418349D02*
Y420448D01*
X277676D01*
X279775Y418349D01*
X280300D01*
X266000Y403500D02*
X262851D01*
Y405074D01*
X263376Y405599D01*
X264426D01*
X264950Y405074D01*
Y403500D01*
Y404550D02*
X266000Y405599D01*
X262851Y408748D02*
Y406649D01*
X264426D01*
X263901Y407698D01*
Y408223D01*
X264426Y408748D01*
X265475D01*
X266000Y408223D01*
Y407173D01*
X265475Y406649D01*
X207661Y397537D02*
X204512D01*
Y399111D01*
X205037Y399636D01*
X206086D01*
X206611Y399111D01*
Y397537D01*
Y398587D02*
X207661Y399636D01*
Y402260D02*
X204512D01*
X206086Y400686D01*
Y402785D01*
X275900Y415400D02*
X272751D01*
Y416974D01*
X273276Y417499D01*
X274326D01*
X274851Y416974D01*
Y415400D01*
Y416449D02*
X275900Y417499D01*
Y418549D02*
Y419598D01*
Y419073D01*
X272751D01*
X273276Y418549D01*
X233800Y377000D02*
X230651D01*
Y378574D01*
X231176Y379099D01*
X232226D01*
X232751Y378574D01*
Y377000D01*
Y378049D02*
X233800Y379099D01*
X230651Y382248D02*
X231176Y381198D01*
X232226Y380149D01*
X233275D01*
X233800Y380673D01*
Y381723D01*
X233275Y382248D01*
X232751D01*
X232226Y381723D01*
Y380149D01*
X303199Y64424D02*
X302674Y64949D01*
X301625D01*
X301100Y64424D01*
Y62325D01*
X301625Y61800D01*
X302674D01*
X303199Y62325D01*
X304249Y61800D02*
X305298D01*
X304773D01*
Y64949D01*
X304249Y64424D01*
X306872D02*
X307397Y64949D01*
X308447D01*
X308972Y64424D01*
Y63899D01*
X308447Y63374D01*
X307922D01*
X308447D01*
X308972Y62849D01*
Y62325D01*
X308447Y61800D01*
X307397D01*
X306872Y62325D01*
X310021Y64949D02*
X312120D01*
Y64424D01*
X310021Y62325D01*
Y61800D01*
X221099Y194624D02*
X220574Y195149D01*
X219525D01*
X219000Y194624D01*
Y192525D01*
X219525Y192000D01*
X220574D01*
X221099Y192525D01*
X222149Y192000D02*
X223198D01*
X222673D01*
Y195149D01*
X222149Y194624D01*
X226871Y192000D02*
X224772D01*
X226871Y194099D01*
Y194624D01*
X226347Y195149D01*
X225297D01*
X224772Y194624D01*
X227921Y195149D02*
X230020D01*
Y194624D01*
X227921Y192525D01*
Y192000D01*
X221099Y199624D02*
X220574Y200149D01*
X219525D01*
X219000Y199624D01*
Y197525D01*
X219525Y197000D01*
X220574D01*
X221099Y197525D01*
X222149Y197000D02*
X223198D01*
X222673D01*
Y200149D01*
X222149Y199624D01*
X226871Y197000D02*
X224772D01*
X226871Y199099D01*
Y199624D01*
X226347Y200149D01*
X225297D01*
X224772Y199624D01*
X230020Y200149D02*
X228971Y199624D01*
X227921Y198574D01*
Y197525D01*
X228446Y197000D01*
X229495D01*
X230020Y197525D01*
Y198049D01*
X229495Y198574D01*
X227921D01*
X271076Y391699D02*
X270551Y391174D01*
Y390125D01*
X271076Y389600D01*
X273175D01*
X273700Y390125D01*
Y391174D01*
X273175Y391699D01*
X273700Y392749D02*
Y393798D01*
Y393273D01*
X270551D01*
X271076Y392749D01*
X273175Y395372D02*
X273700Y395897D01*
Y396947D01*
X273175Y397471D01*
X271076D01*
X270551Y396947D01*
Y395897D01*
X271076Y395372D01*
X271601D01*
X272126Y395897D01*
Y397471D01*
X226999Y428624D02*
X226474Y429149D01*
X225425D01*
X224900Y428624D01*
Y426525D01*
X225425Y426000D01*
X226474D01*
X226999Y426525D01*
X228049Y426000D02*
X229098D01*
X228573D01*
Y429149D01*
X228049Y428624D01*
X230672D02*
X231197Y429149D01*
X232247D01*
X232771Y428624D01*
Y428099D01*
X232247Y427574D01*
X232771Y427049D01*
Y426525D01*
X232247Y426000D01*
X231197D01*
X230672Y426525D01*
Y427049D01*
X231197Y427574D01*
X230672Y428099D01*
Y428624D01*
X231197Y427574D02*
X232247D01*
X268476Y416399D02*
X267951Y415874D01*
Y414825D01*
X268476Y414300D01*
X270575D01*
X271100Y414825D01*
Y415874D01*
X270575Y416399D01*
X271100Y417449D02*
Y418498D01*
Y417973D01*
X267951D01*
X268476Y417449D01*
X267951Y420072D02*
Y422171D01*
X268476D01*
X270575Y420072D01*
X271100D01*
X269699Y403324D02*
X269174Y403849D01*
X268125D01*
X267600Y403324D01*
Y401225D01*
X268125Y400700D01*
X269174D01*
X269699Y401225D01*
X270749Y400700D02*
X271798D01*
X271273D01*
Y403849D01*
X270749Y403324D01*
X275471Y403849D02*
X274422Y403324D01*
X273372Y402274D01*
Y401225D01*
X273897Y400700D01*
X274947D01*
X275471Y401225D01*
Y401750D01*
X274947Y402274D01*
X273372D01*
X198999Y387024D02*
X198474Y387549D01*
X197425D01*
X196900Y387024D01*
Y384925D01*
X197425Y384400D01*
X198474D01*
X198999Y384925D01*
X200049Y384400D02*
X201098D01*
X200573D01*
Y387549D01*
X200049Y387024D01*
X204771Y387549D02*
X202672D01*
Y385974D01*
X203722Y386499D01*
X204247D01*
X204771Y385974D01*
Y384925D01*
X204247Y384400D01*
X203197D01*
X202672Y384925D01*
X199099Y391424D02*
X198574Y391949D01*
X197525D01*
X197000Y391424D01*
Y389325D01*
X197525Y388800D01*
X198574D01*
X199099Y389325D01*
X200149Y388800D02*
X201198D01*
X200673D01*
Y391949D01*
X200149Y391424D01*
X204347Y388800D02*
Y391949D01*
X202772Y390374D01*
X204872D01*
X143137Y357536D02*
X142612Y357011D01*
Y355962D01*
X143137Y355437D01*
X145236D01*
X145761Y355962D01*
Y357011D01*
X145236Y357536D01*
X145761Y358586D02*
Y359635D01*
Y359110D01*
X142612D01*
X143137Y358586D01*
Y361209D02*
X142612Y361734D01*
Y362784D01*
X143137Y363309D01*
X143662D01*
X144186Y362784D01*
Y362259D01*
Y362784D01*
X144711Y363309D01*
X145236D01*
X145761Y362784D01*
Y361734D01*
X145236Y361209D01*
X212860Y346561D02*
X212335Y347086D01*
X211285D01*
X210761Y346561D01*
Y344462D01*
X211285Y343937D01*
X212335D01*
X212860Y344462D01*
X213909Y343937D02*
X214959D01*
X214434D01*
Y347086D01*
X213909Y346561D01*
X216533Y343937D02*
X217583D01*
X217058D01*
Y347086D01*
X216533Y346561D01*
X209837Y399636D02*
X209312Y399111D01*
Y398062D01*
X209837Y397537D01*
X211936D01*
X212461Y398062D01*
Y399111D01*
X211936Y399636D01*
X212461Y400686D02*
Y401735D01*
Y401210D01*
X209312D01*
X209837Y400686D01*
Y403309D02*
X209312Y403834D01*
Y404884D01*
X209837Y405408D01*
X211936D01*
X212461Y404884D01*
Y403834D01*
X211936Y403309D01*
X209837D01*
X270799Y410124D02*
X270274Y410649D01*
X269225D01*
X268700Y410124D01*
Y408025D01*
X269225Y407500D01*
X270274D01*
X270799Y408025D01*
X271849D02*
X272373Y407500D01*
X273423D01*
X273948Y408025D01*
Y410124D01*
X273423Y410649D01*
X272373D01*
X271849Y410124D01*
Y409599D01*
X272373Y409074D01*
X273948D01*
X194076Y472499D02*
X193551Y471974D01*
Y470925D01*
X194076Y470400D01*
X196175D01*
X196700Y470925D01*
Y471974D01*
X196175Y472499D01*
X193551Y473549D02*
Y475648D01*
X194076D01*
X196175Y473549D01*
X196700D01*
X206576Y473599D02*
X206051Y473074D01*
Y472025D01*
X206576Y471500D01*
X208675D01*
X209200Y472025D01*
Y473074D01*
X208675Y473599D01*
X206051Y476748D02*
X206576Y475698D01*
X207626Y474649D01*
X208675D01*
X209200Y475173D01*
Y476223D01*
X208675Y476748D01*
X208151D01*
X207626Y476223D01*
Y474649D01*
X249799Y438224D02*
X249274Y438749D01*
X248225D01*
X247700Y438224D01*
Y436125D01*
X248225Y435600D01*
X249274D01*
X249799Y436125D01*
X252948Y438749D02*
X250849D01*
Y437174D01*
X251898Y437699D01*
X252423D01*
X252948Y437174D01*
Y436125D01*
X252423Y435600D01*
X251373D01*
X250849Y436125D01*
X67260Y133661D02*
X66735Y134186D01*
X65685D01*
X65161Y133661D01*
Y131562D01*
X65685Y131037D01*
X66735D01*
X67260Y131562D01*
X68309Y131037D02*
X69359D01*
X68834D01*
Y134186D01*
X68309Y133661D01*
X266399Y439349D02*
X264300D01*
Y437774D01*
X265350D01*
X264300D01*
Y436200D01*
X267449Y439349D02*
Y436200D01*
X269023D01*
X269548Y436725D01*
Y437250D01*
X269023Y437774D01*
X267449D01*
X269023D01*
X269548Y438299D01*
Y438824D01*
X269023Y439349D01*
X267449D01*
X270597Y436200D02*
X271647D01*
X271122D01*
Y439349D01*
X270597Y438824D01*
X266499Y430849D02*
X264400D01*
Y429274D01*
X265450D01*
X264400D01*
Y427700D01*
X267549Y430849D02*
Y427700D01*
X269123D01*
X269648Y428225D01*
Y428750D01*
X269123Y429274D01*
X267549D01*
X269123D01*
X269648Y429799D01*
Y430324D01*
X269123Y430849D01*
X267549D01*
X272796Y427700D02*
X270697D01*
X272796Y429799D01*
Y430324D01*
X272271Y430849D01*
X271222D01*
X270697Y430324D01*
X128261Y392886D02*
Y389737D01*
X130360D01*
X131409D02*
X132459D01*
X131934D01*
Y392886D01*
X131409Y392361D01*
X169999Y471725D02*
Y473824D01*
X169474Y474349D01*
X168425D01*
X167900Y473824D01*
Y471725D01*
X168425Y471200D01*
X169474D01*
X168949Y472250D02*
X169999Y471200D01*
X169474D02*
X169999Y471725D01*
X171049Y471200D02*
X172098D01*
X171573D01*
Y474349D01*
X171049Y473824D01*
X147099Y468225D02*
Y470324D01*
X146574Y470849D01*
X145525D01*
X145000Y470324D01*
Y468225D01*
X145525Y467700D01*
X146574D01*
X146049Y468750D02*
X147099Y467700D01*
X146574D02*
X147099Y468225D01*
X150248Y467700D02*
X148149D01*
X150248Y469799D01*
Y470324D01*
X149723Y470849D01*
X148673D01*
X148149Y470324D01*
X197175Y437999D02*
X195076D01*
X194551Y437474D01*
Y436425D01*
X195076Y435900D01*
X197175D01*
X197700Y436425D01*
Y437474D01*
X196651Y436949D02*
X197700Y437999D01*
Y437474D02*
X197175Y437999D01*
X195076Y439049D02*
X194551Y439573D01*
Y440623D01*
X195076Y441148D01*
X195601D01*
X196126Y440623D01*
Y440098D01*
Y440623D01*
X196651Y441148D01*
X197175D01*
X197700Y440623D01*
Y439573D01*
X197175Y439049D01*
X195075Y419199D02*
X192976D01*
X192451Y418674D01*
Y417625D01*
X192976Y417100D01*
X195075D01*
X195600Y417625D01*
Y418674D01*
X194551Y418150D02*
X195600Y419199D01*
Y418674D02*
X195075Y419199D01*
X195600Y421823D02*
X192451D01*
X194026Y420249D01*
Y422348D01*
X113000Y81000D02*
Y84149D01*
X114574D01*
X115099Y83624D01*
Y82574D01*
X114574Y82050D01*
X113000D01*
X114049D02*
X115099Y81000D01*
X118248D02*
X116149D01*
X118248Y83099D01*
Y83624D01*
X117723Y84149D01*
X116673D01*
X116149Y83624D01*
X121396Y81000D02*
X119297D01*
X121396Y83099D01*
Y83624D01*
X120871Y84149D01*
X119822D01*
X119297Y83624D01*
X226378Y60237D02*
Y63386D01*
X227952D01*
X228477Y62861D01*
Y61811D01*
X227952Y61286D01*
X226378D01*
X227428D02*
X228477Y60237D01*
X231626D02*
X229526D01*
X231626Y62336D01*
Y62861D01*
X231101Y63386D01*
X230051D01*
X229526Y62861D01*
X234774Y63386D02*
X233725Y62861D01*
X232675Y61811D01*
Y60762D01*
X233200Y60237D01*
X234249D01*
X234774Y60762D01*
Y61286D01*
X234249Y61811D01*
X232675D01*
X131890Y187437D02*
Y190586D01*
X133464D01*
X133989Y190061D01*
Y189011D01*
X133464Y188487D01*
X131890D01*
X132939D02*
X133989Y187437D01*
X137137D02*
X135038D01*
X137137Y189536D01*
Y190061D01*
X136613Y190586D01*
X135563D01*
X135038Y190061D01*
X138187Y190586D02*
X140286D01*
Y190061D01*
X138187Y187962D01*
Y187437D01*
X216351Y392274D02*
Y391225D01*
X216876Y390700D01*
X218975D01*
X219500Y391225D01*
Y392274D01*
X218975Y392799D01*
X216876D01*
X216351Y392274D01*
X219500Y393849D02*
X216351D01*
X219500Y395948D01*
X216351D01*
X228800Y377600D02*
X225651D01*
Y379174D01*
X226176Y379699D01*
X227226D01*
X227750Y379174D01*
Y377600D01*
Y378649D02*
X228800Y379699D01*
X226176Y380749D02*
X225651Y381273D01*
Y382323D01*
X226176Y382848D01*
X226701D01*
X227226Y382323D01*
Y381798D01*
Y382323D01*
X227750Y382848D01*
X228275D01*
X228800Y382323D01*
Y381273D01*
X228275Y380749D01*
X238900Y379100D02*
Y382249D01*
X240474D01*
X240999Y381724D01*
Y380674D01*
X240474Y380150D01*
X238900D01*
X239949D02*
X240999Y379100D01*
X244148D02*
X242049D01*
X244148Y381199D01*
Y381724D01*
X243623Y382249D01*
X242573D01*
X242049Y381724D01*
X293861Y381686D02*
X295960D01*
X294910D01*
Y378537D01*
X297009D02*
Y381686D01*
X298584D01*
X299108Y381161D01*
Y380111D01*
X298584Y379587D01*
X297009D01*
X300158Y378537D02*
Y381686D01*
X301207Y380636D01*
X302257Y381686D01*
Y378537D01*
X305405D02*
X303306D01*
X305405Y380636D01*
Y381161D01*
X304881Y381686D01*
X303831D01*
X303306Y381161D01*
X173860Y346561D02*
X173335Y347086D01*
X172285D01*
X171761Y346561D01*
Y344462D01*
X172285Y343937D01*
X173335D01*
X173860Y344462D01*
X174909Y343937D02*
X175959D01*
X175434D01*
Y347086D01*
X174909Y346561D01*
X179632Y343937D02*
X177533D01*
X179632Y346036D01*
Y346561D01*
X179107Y347086D01*
X178058D01*
X177533Y346561D01*
X296676Y421499D02*
X296151Y420974D01*
Y419925D01*
X296676Y419400D01*
X298775D01*
X299300Y419925D01*
Y420974D01*
X298775Y421499D01*
X299300Y424123D02*
X296151D01*
X297726Y422549D01*
Y424648D01*
X183876Y473199D02*
X183351Y472674D01*
Y471625D01*
X183876Y471100D01*
X185975D01*
X186500Y471625D01*
Y472674D01*
X185975Y473199D01*
X183876Y474249D02*
X183351Y474773D01*
Y475823D01*
X183876Y476348D01*
X184401D01*
X184926Y475823D01*
X185450Y476348D01*
X185975D01*
X186500Y475823D01*
Y474773D01*
X185975Y474249D01*
X185450D01*
X184926Y474773D01*
X184401Y474249D01*
X183876D01*
X184926Y474773D02*
Y475823D01*
X218876Y444499D02*
X218351Y443974D01*
Y442925D01*
X218876Y442400D01*
X220975D01*
X221500Y442925D01*
Y443974D01*
X220975Y444499D01*
X221500Y445549D02*
Y446598D01*
Y446073D01*
X218351D01*
X218876Y445549D01*
X221500Y449747D02*
X218351D01*
X219926Y448172D01*
Y450272D01*
X218351Y453420D02*
X218876Y452371D01*
X219926Y451321D01*
X220975D01*
X221500Y451846D01*
Y452895D01*
X220975Y453420D01*
X220450D01*
X219926Y452895D01*
Y451321D01*
X118999Y411324D02*
X118474Y411849D01*
X117425D01*
X116900Y411324D01*
Y409225D01*
X117425Y408700D01*
X118474D01*
X118999Y409225D01*
X120049Y411324D02*
X120573Y411849D01*
X121623D01*
X122148Y411324D01*
Y410799D01*
X121623Y410274D01*
X121098D01*
X121623D01*
X122148Y409750D01*
Y409225D01*
X121623Y408700D01*
X120573D01*
X120049Y409225D01*
X125296Y408700D02*
X123197D01*
X125296Y410799D01*
Y411324D01*
X124771Y411849D01*
X123722D01*
X123197Y411324D01*
X118999Y420924D02*
X118474Y421449D01*
X117425D01*
X116900Y420924D01*
Y418825D01*
X117425Y418300D01*
X118474D01*
X118999Y418825D01*
X120049Y420924D02*
X120573Y421449D01*
X121623D01*
X122148Y420924D01*
Y420399D01*
X121623Y419874D01*
X121098D01*
X121623D01*
X122148Y419349D01*
Y418825D01*
X121623Y418300D01*
X120573D01*
X120049Y418825D01*
X124771Y418300D02*
Y421449D01*
X123197Y419874D01*
X125296D01*
X118999Y435224D02*
X118474Y435749D01*
X117425D01*
X116900Y435224D01*
Y433125D01*
X117425Y432600D01*
X118474D01*
X118999Y433125D01*
X120049Y435224D02*
X120573Y435749D01*
X121623D01*
X122148Y435224D01*
Y434699D01*
X121623Y434174D01*
X121098D01*
X121623D01*
X122148Y433649D01*
Y433125D01*
X121623Y432600D01*
X120573D01*
X120049Y433125D01*
X125296Y435749D02*
X124247Y435224D01*
X123197Y434174D01*
Y433125D01*
X123722Y432600D01*
X124771D01*
X125296Y433125D01*
Y433649D01*
X124771Y434174D01*
X123197D01*
X118999Y430324D02*
X118474Y430849D01*
X117425D01*
X116900Y430324D01*
Y428225D01*
X117425Y427700D01*
X118474D01*
X118999Y428225D01*
X120049Y430324D02*
X120573Y430849D01*
X121623D01*
X122148Y430324D01*
Y429799D01*
X121623Y429274D01*
X121098D01*
X121623D01*
X122148Y428750D01*
Y428225D01*
X121623Y427700D01*
X120573D01*
X120049Y428225D01*
X123197Y430849D02*
X125296D01*
Y430324D01*
X123197Y428225D01*
Y427700D01*
X87661Y312586D02*
Y309962D01*
X88185Y309437D01*
X89235D01*
X89760Y309962D01*
Y312586D01*
X90809Y312061D02*
X91334Y312586D01*
X92383D01*
X92908Y312061D01*
Y311536D01*
X92383Y311011D01*
X91859D01*
X92383D01*
X92908Y310487D01*
Y309962D01*
X92383Y309437D01*
X91334D01*
X90809Y309962D01*
X83100Y447949D02*
Y445325D01*
X83625Y444800D01*
X84674D01*
X85199Y445325D01*
Y447949D01*
X88348Y444800D02*
X86249D01*
X88348Y446899D01*
Y447424D01*
X87823Y447949D01*
X86773D01*
X86249Y447424D01*
X120099Y312624D02*
X119574Y313149D01*
X118525D01*
X118000Y312624D01*
Y310525D01*
X118525Y310000D01*
X119574D01*
X120099Y310525D01*
X123248Y313149D02*
X121149D01*
Y311574D01*
X122198Y312099D01*
X122723D01*
X123248Y311574D01*
Y310525D01*
X122723Y310000D01*
X121673D01*
X121149Y310525D01*
X126396Y313149D02*
X124297D01*
Y311574D01*
X125347Y312099D01*
X125872D01*
X126396Y311574D01*
Y310525D01*
X125872Y310000D01*
X124822D01*
X124297Y310525D01*
X120099Y316624D02*
X119574Y317149D01*
X118525D01*
X118000Y316624D01*
Y314525D01*
X118525Y314000D01*
X119574D01*
X120099Y314525D01*
X123248Y317149D02*
X121149D01*
Y315574D01*
X122198Y316099D01*
X122723D01*
X123248Y315574D01*
Y314525D01*
X122723Y314000D01*
X121673D01*
X121149Y314525D01*
X125872Y314000D02*
Y317149D01*
X124297Y315574D01*
X126396D01*
X120099Y295624D02*
X119574Y296149D01*
X118525D01*
X118000Y295624D01*
Y293525D01*
X118525Y293000D01*
X119574D01*
X120099Y293525D01*
X123248Y296149D02*
X121149D01*
Y294574D01*
X122198Y295099D01*
X122723D01*
X123248Y294574D01*
Y293525D01*
X122723Y293000D01*
X121673D01*
X121149Y293525D01*
X124297Y295624D02*
X124822Y296149D01*
X125872D01*
X126396Y295624D01*
Y293525D01*
X125872Y293000D01*
X124822D01*
X124297Y293525D01*
Y295624D01*
X120099Y303624D02*
X119574Y304149D01*
X118525D01*
X118000Y303624D01*
Y301525D01*
X118525Y301000D01*
X119574D01*
X120099Y301525D01*
X123248Y304149D02*
X121149D01*
Y302574D01*
X122198Y303099D01*
X122723D01*
X123248Y302574D01*
Y301525D01*
X122723Y301000D01*
X121673D01*
X121149Y301525D01*
X126396Y301000D02*
X124297D01*
X126396Y303099D01*
Y303624D01*
X125872Y304149D01*
X124822D01*
X124297Y303624D01*
X233099Y131624D02*
X232574Y132149D01*
X231525D01*
X231000Y131624D01*
Y129525D01*
X231525Y129000D01*
X232574D01*
X233099Y129525D01*
X234149Y129000D02*
X235198D01*
X234673D01*
Y132149D01*
X234149Y131624D01*
X238347Y129000D02*
Y132149D01*
X236772Y130574D01*
X238872D01*
X239921Y132149D02*
X242020D01*
Y131624D01*
X239921Y129525D01*
Y129000D01*
X68160Y371761D02*
X67635Y372286D01*
X66585D01*
X66061Y371761D01*
Y369662D01*
X66585Y369137D01*
X67635D01*
X68160Y369662D01*
X69209Y369137D02*
X70259D01*
X69734D01*
Y372286D01*
X69209Y371761D01*
X73407Y369137D02*
Y372286D01*
X71833Y370711D01*
X73932D01*
X74982Y371761D02*
X75506Y372286D01*
X76556D01*
X77081Y371761D01*
Y371236D01*
X76556Y370711D01*
X77081Y370186D01*
Y369662D01*
X76556Y369137D01*
X75506D01*
X74982Y369662D01*
Y370186D01*
X75506Y370711D01*
X74982Y371236D01*
Y371761D01*
X75506Y370711D02*
X76556D01*
X47560Y385161D02*
X47035Y385686D01*
X45985D01*
X45461Y385161D01*
Y383062D01*
X45985Y382537D01*
X47035D01*
X47560Y383062D01*
X48609Y382537D02*
X49659D01*
X49134D01*
Y385686D01*
X48609Y385161D01*
X52807Y382537D02*
Y385686D01*
X51233Y384111D01*
X53332D01*
X54382Y383062D02*
X54906Y382537D01*
X55956D01*
X56481Y383062D01*
Y385161D01*
X55956Y385686D01*
X54906D01*
X54382Y385161D01*
Y384636D01*
X54906Y384111D01*
X56481D01*
X240600Y364900D02*
X241650D01*
X241125D01*
Y368049D01*
X240600Y367524D01*
X243224Y364900D02*
Y365425D01*
X243749D01*
Y364900D01*
X243224D01*
X247947D02*
X245848D01*
X247947Y366999D01*
Y367524D01*
X247422Y368049D01*
X246372D01*
X245848Y367524D01*
X248996Y368049D02*
Y365950D01*
X250046Y364900D01*
X251095Y365950D01*
Y368049D01*
X252670Y366999D02*
X253719D01*
X254244Y366474D01*
Y364900D01*
X252670D01*
X252145Y365425D01*
X252670Y365950D01*
X254244D01*
X72261Y476937D02*
X73310D01*
X72785D01*
Y480086D01*
X72261Y479561D01*
X74884Y476937D02*
Y477462D01*
X75409D01*
Y476937D01*
X74884D01*
X79607D02*
X77508D01*
X79607Y479036D01*
Y479561D01*
X79083Y480086D01*
X78033D01*
X77508Y479561D01*
X80657Y480086D02*
Y477986D01*
X81706Y476937D01*
X82756Y477986D01*
Y480086D01*
X83806D02*
Y476937D01*
X85380D01*
X85905Y477462D01*
Y477986D01*
Y478511D01*
X85380Y479036D01*
X83806D01*
X41361Y15937D02*
X42410D01*
X41885D01*
Y19086D01*
X41361Y18561D01*
X43984Y15937D02*
Y16462D01*
X44509D01*
Y15937D01*
X43984D01*
X48707D02*
X46608D01*
X48707Y18036D01*
Y18561D01*
X48183Y19086D01*
X47133D01*
X46608Y18561D01*
X49757Y19086D02*
Y16986D01*
X50806Y15937D01*
X51856Y16986D01*
Y19086D01*
X55005Y18036D02*
X53430D01*
X52905Y17511D01*
Y16462D01*
X53430Y15937D01*
X55005D01*
X44261Y479561D02*
X44785Y480086D01*
X45835D01*
X46360Y479561D01*
Y479036D01*
X45835Y478511D01*
X45310D01*
X45835D01*
X46360Y477986D01*
Y477462D01*
X45835Y476937D01*
X44785D01*
X44261Y477462D01*
X47409Y476937D02*
Y477462D01*
X47934D01*
Y476937D01*
X47409D01*
X50033Y479561D02*
X50558Y480086D01*
X51607D01*
X52132Y479561D01*
Y479036D01*
X51607Y478511D01*
X51083D01*
X51607D01*
X52132Y477986D01*
Y477462D01*
X51607Y476937D01*
X50558D01*
X50033Y477462D01*
X53182Y480086D02*
Y477986D01*
X54231Y476937D01*
X55281Y477986D01*
Y480086D01*
X56330D02*
Y476937D01*
X57904D01*
X58429Y477462D01*
Y477986D01*
Y478511D01*
X57904Y479036D01*
X56330D01*
X251400Y272600D02*
Y274699D01*
X252449Y275749D01*
X253499Y274699D01*
Y272600D01*
Y274174D01*
X251400D01*
X254549Y272600D02*
X255598D01*
X255073D01*
Y275749D01*
X254549Y275224D01*
X257172Y272600D02*
Y273125D01*
X257697D01*
Y272600D01*
X257172D01*
X261895D02*
X259796D01*
X261895Y274699D01*
Y275224D01*
X261371Y275749D01*
X260321D01*
X259796Y275224D01*
X262945Y275749D02*
Y273650D01*
X263994Y272600D01*
X265044Y273650D01*
Y275749D01*
X266618Y274699D02*
X267668D01*
X268193Y274174D01*
Y272600D01*
X266618D01*
X266093Y273125D01*
X266618Y273650D01*
X268193D01*
X306600Y44400D02*
Y47549D01*
X308174D01*
X308699Y47024D01*
Y45974D01*
X308174Y45450D01*
X306600D01*
X309749Y47024D02*
X310273Y47549D01*
X311323D01*
X311848Y47024D01*
Y46499D01*
X311323Y45974D01*
X310798D01*
X311323D01*
X311848Y45450D01*
Y44925D01*
X311323Y44400D01*
X310273D01*
X309749Y44925D01*
X183600Y3768D02*
X186224D01*
X175200Y10868D02*
X177824D01*
X166000Y10768D02*
X168624D01*
X183600Y11268D02*
X186224D01*
X184912Y12580D02*
Y9956D01*
X175000Y4768D02*
X177624D01*
X176312Y6080D02*
Y3456D01*
X166100Y3868D02*
X168724D01*
X167412Y5180D02*
Y2556D01*
D104*
X191561Y375688D02*
X189228D01*
X190394Y374521D02*
Y376854D01*
X227961Y465988D02*
X225628D01*
X226794Y464821D02*
Y467154D01*
X208761Y382436D02*
X211426D01*
X210093Y383769D02*
Y381103D01*
X126761Y378436D02*
X129426D01*
X128094Y379769D02*
Y377103D01*
X155561Y375438D02*
X152895D01*
X154228Y374105D02*
Y376771D01*
D105*
X191253Y400237D02*
D03*
D106*
X215798Y374274D02*
D03*
X252198Y464574D02*
D03*
X179798Y374274D02*
D03*
D107*
X194261Y460745D02*
D03*
X206261Y460745D02*
D03*
D108*
X305000Y421508D02*
D03*
D109*
X241811Y400187D02*
D03*
M02*
